<svg height="1024" width="896" xmlns="http://www.w3.org/2000/svg">
  <path d="M320 576v128c0 64 64 64 64 64v256h128V768c0 0 64 0 64-64V576c0-64-64-64-64-64h-63.938H384C384 512 320 512 320 576zM576 384c0-128-128-128-128-128s-128 0-128 128 128.062 128 128.062 128S576 512 576 384zM448 0C200.562 0 0 200.562 0 448c0 197.125 128.188 362.688 305.156 422.625l-12.031-71.75C158.406 739.312 64 604.875 64 448 64 235.96900000000005 235.969 64 448 64c212 0 384 171.969 384 384 0 156.875-94.375 291.312-229.125 350.875l-12 71.625C767.812 810.688 896 645.125 896 448 896 200.562 695.438 0 448 0zM448 192c141.562 0 256 114.5 256 256 0 69.438-27.625 132.125-72.375 178.312l-15.5 92.812C707 662.75 768 562.875 768 448c0-176.781-143.25-320-320-320-176.781 0-320 143.219-320 320 0 114.875 61 214.75 151.875 271.125l-15.5-92.812C219.594 580.125 192 517.438 192 448 192 306.5 306.5 192 448 192z" />
</svg>
