<svg height="1024" width="896" xmlns="http://www.w3.org/2000/svg">
  <path d="M704 896H64V320h640v192h64V192c0-35.312-28.625-64-64-64H512C512 57.34400000000005 454.656 0 384 0S256 57.34400000000005 256 128H64c-35.406 0-64 28.688-64 64v704c0 35.375 28.594 64 64 64h640c35.375 0 64-28.625 64-64V768h-64V896zM192 192c0 0 0 0 64 0s64-64 64-64c0-35.312 28.594-64 64-64s64 28.688 64 64c0 0 0 64 64 64h64c64 0 64 64 64 64H128C128 256 128 192 192 192zM128 704h128v-64H128V704zM576 576V448L320 640l256 192V704h320V576H576zM128 832h192v-64H128V832zM448 384H128v64h320V384zM256 512H128v64h128V512z" />
</svg>
