<svg height="1024" width="1024" xmlns="http://www.w3.org/2000/svg">
  <path d="M512 128C128 128 0 512 0 512s122 320 512 320 512-320 512-320S896 128 512 128zM512 768c-320 0-384-256-384-256s66-256 384-256 384 256 384 256S832 768 512 768zM512 320c-19.531 0-37.938 3.781-55.688 9.219C489.156 344.438 512 377.469 512 416c0 53-43 96-96 96-38.531 0-71.562-22.844-86.781-55.688C323.781 474.062 320 492.469 320 512c0 106.062 86 192 192 192 106.062 0 192-85.938 192-192C704 406 618.062 320 512 320z" />
</svg>
