<svg height="1024" width="768" xmlns="http://www.w3.org/2000/svg">
  <path d="M576 64H0v896h768V256zM64 128h256c-13 4-27 15-35 43-13 49-7 131 16 209-24 81-123 277-129 289-16 4-66 23-108 59z m283 307c58 150 95 150 135 168-84 13-148 22-232 60-4 6 76-146 97-228z m357 461H64c1 0 1 0 2 0 34 0 85-21 180-182 39-16 72-27 79-29 59-15 125-27 187-34 55 28 127 46 168 49 10 0 16-2 24-2z m0-311c-24-14-54-25-89-25-24 0-51 2-79 5-27-13-92-33-147-190 17-104 13-174 13-174 6-53-24-73-52-73h194l160 160z" />
</svg>
