<svg height="1024" width="896" xmlns="http://www.w3.org/2000/svg">
  <path d="M832 721.75V320c0-192.5-192-192-192-192h-64V0L384 192l192 192V256c0 0 26.688 0 64 0 56.438 0 64 64 64 64v401.75c-38.125 22.188-64 62.875-64 110.25 0 70.625 57.375 128 128 128s128-57.375 128-128C896 784.75 870.125 743.938 832 721.75zM768 896c-35.312 0-64-28.625-64-64 0-35.312 28.688-64 64-64 35.375 0 64 28.688 64 64C832 867.375 803.375 896 768 896zM64 315.59400000000005v401.719c0 192.5 192 192 192 192h64v128l192-192-192-192v128c0 0-26.688 0-64 0-56.438 0-64-64-64-64V315.59400000000005c38.156-22.219 64-62.906 64-110.281 0-70.656-57.344-128-128-128s-128 57.344-128 128C0 252.59400000000005 25.844 293.375 64 315.59400000000005zM128 272c-35.312 0-64-28.594-64-64 0-35.312 28.688-64 64-64 35.406 0 64 28.688 64 64C192 243.40599999999995 163.406 272 128 272z" />
</svg>
