<svg height="1024" width="640" xmlns="http://www.w3.org/2000/svg">
  <path d="M512 192c-70.625 0-128 57.344-128 128 0 47.219 25.875 88.062 64 110.281V448c0 0 0 128-128 128-53.062 0-94.656 11.375-128 28.812V302.28099999999995c38.156-22.219 64-63.062 64-110.281 0-70.656-57.344-128-128-128S0 121.34400000000005 0 192c0 47.219 25.844 88.062 64 110.281V721.75C25.844 743.938 0 784.75 0 832c0 70.625 57.344 128 128 128s128-57.375 128-128c0-33.5-13.188-63.75-34.25-86.625C240.375 722.5 270.656 704 320 704c254 0 256-256 256-256v-17.719c38.125-22.219 64-63.062 64-110.281C640 249.34400000000005 582.625 192 512 192zM128 128c35.406 0 64 28.594 64 64s-28.594 64-64 64-64-28.594-64-64S92.594 128 128 128zM128 896c-35.406 0-64-28.625-64-64 0-35.312 28.594-64 64-64s64 28.688 64 64C192 867.375 163.406 896 128 896zM512 384c-35.375 0-64-28.594-64-64s28.625-64 64-64 64 28.594 64 64S547.375 384 512 384z" />
</svg>
