<svg height="16" width="16" xmlns="http://www.w3.org/2000/svg">
  <path d="M8 2c-3.31 0-6 2.69-6 6s2.69 6 6 6c0.41 0 0.8-0.04 1.18-0.12-0.15-0.07-0.17-0.63-0.02-0.94 0.17-0.35 0.7-1.24 0.18-1.54s-0.38-0.43-0.7-0.78-0.19-0.4-0.21-0.49c-0.07-0.3 0.31-0.76 0.33-0.81s0.02-0.22 0.01-0.28S8.53 8.86 8.47 8.85s-0.09 0.09-0.17 0.1-0.44-0.22-0.52-0.28-0.11-0.2-0.22-0.3-0.12-0.02-0.28-0.09-0.69-0.26-1.1-0.42-0.44-0.39-0.45-0.56-0.25-0.4-0.36-0.57c-0.11-0.17-0.13-0.4-0.17-0.35s0.21 0.67 0.17 0.69-0.13-0.17-0.25-0.32 0.12-0.07-0.25-0.81 0.12-1.11 0.14-1.5 0.32 0.14 0.16-0.11 0.01-0.76-0.11-0.95S4.3 3.59 4.3 3.59c0.02-0.18 0.59-0.49 1-0.78s0.66-0.06 0.99 0.04 0.35 0.07 0.24-0.04 0.05-0.16 0.3-0.12 0.33 0.35 0.72 0.32 0.04 0.08 0.09 0.18-0.06 0.09-0.32 0.26S7.33 3.64 7.79 3.97s0.32-0.22 0.27-0.47S8.39 3.45 8.39 3.45c0.28 0.19 0.23 0.01 0.43 0.07S9.59 4.06 9.59 4.06c-0.7 0.38-0.26 0.42-0.14 0.51s-0.24 0.26-0.24 0.26c-0.15-0.15-0.17 0.01-0.26 0.06s-0.01 0.19-0.01 0.19c-0.48 0.08-0.38 0.59-0.37 0.71s-0.31 0.31-0.39 0.49S8.39 6.83 8.23 6.85s-0.3-0.57-1.13-0.35c-0.25 0.07-0.8 0.35-0.5 0.93s0.78-0.16 0.94-0.08-0.05 0.45-0.01 0.46 0.46 0.02 0.49 0.52 0.65 0.46 0.79 0.47 0.59-0.37 0.65-0.39S9.78 8.17 10.34 8.49s0.85 0.28 1.04 0.41 0.06 0.4 0.24 0.49 0.91-0.03 1.09 0.27-0.75 1.8-1.04 1.96S11.25 12.17 10.95 12.41s-0.7 0.54-1.09 0.77c-0.34 0.2-0.4 0.57-0.56 0.68C11.99 13.26 14 10.86 14 8 14 4.69 11.31 2 8 2zM9.41 7.63c-0.08 0.02-0.25 0.18-0.67-0.07s-0.7-0.2-0.74-0.24c0 0-0.04-0.1 0.15-0.12 0.37-0.04 0.84 0.35 0.95 0.35s0.16-0.11 0.35-0.05C9.63 7.57 9.49 7.61 9.41 7.63zM7.44 2.6c-0.04-0.03 0.03-0.06 0.08-0.12 0.03-0.03 0.01-0.09 0.04-0.12 0.09-0.09 0.52-0.21 0.44 0.03C7.91 2.62 7.51 2.64 7.44 2.6zM8.49 3.36c-0.15-0.01-0.49-0.04-0.43-0.11 0.25-0.25-0.09-0.32-0.3-0.33S7.46 2.79 7.57 2.77s0.53 0.01 0.6 0.06 0.45 0.21 0.47 0.32S8.64 3.37 8.49 3.36zM9.76 3.32c-0.12 0.09-0.71-0.34-0.82-0.43-0.49-0.42-0.76-0.28-0.86-0.35-0.1-0.07-0.07-0.16 0.09-0.3s0.6 0.05 0.86 0.08 0.56 0.23 0.56 0.47C9.61 3.01 9.88 3.22 9.76 3.32z" />
</svg>
