<svg height="1024" width="768" xmlns="http://www.w3.org/2000/svg">
  <path d="M570.625 513.906C688.312 429.375 768 274.25 768 129.90599999999995c0-70.656-172-128-384-128-212.031 0-384 57.344-384 128 0 144.344 79.688 299.469 197.375 384C79.688 598.5 0 753.625 0 897.875c0 70.688 171.969 128 384 128 212 0 384-57.312 384-128C768 753.625 688.312 598.5 570.625 513.906zM384 65.90599999999995c141.375 0 256 28.625 256 64 0 35.406-114.625 64-256 64s-256-28.594-256-64C128 94.53099999999995 242.625 65.90599999999995 384 65.90599999999995zM320 771.5c-153.719 7.125-238.281 40.25-252.688 81.688C82.875 739.625 156.031 637.75 256 577.875c0 0 64 1.062 64-63.969V771.5zM381.875 385.906c-97.469 0-144.812 16.656-167.875 32.969C144.781 364.219 92.938 289.28099999999995 73.406 204.687c69.75 32.125 182.469 53.219 310.594 53.219s240.875-21.094 310.625-53.219c-19.688 84.969-72 160.375-141.75 214.969C529.25 403.125 481.25 385.906 381.875 385.906zM448 771.5V513.906c0 61.969 64 63.969 64 63.969 100 59.875 173.125 161.75 188.688 275.312C686.25 811.75 601.75 778.625 448 771.5z" />
</svg>
