<svg height="1024" width="1024" xmlns="http://www.w3.org/2000/svg">
  <path d="M512 64C229.25 64 0 293.25 0 576v256c0 126.375 128 128 128 128h768c0 0 128-1.375 128-128V576C1024 293.25 794.75 64 512 64zM608 832H416c-17.719 0-32-14.375-32-32s14.281-32 32-32h192c17.625 0 32 14.375 32 32S625.625 832 608 832zM896 704c0 61.062-64 64-64 64H704c0 0 0-64-64-64H384c-64 0-64 64-64 64H192c-63.094 0-64-64-64-64V344.062C206 215.21900000000005 347.969 128 512 128c164 0 305.875 87.219 384 216V704zM768 320H256c-35.406 0-64 28.594-64 64v128c0 35.375 28.594 64 64 64h512c35.375 0 64-28.625 64-64V384C832 348.594 803.312 320 768 320zM768 448l-64 64H576l-64-64-64 64H320l-64-64v-64h64l64 64 64-64h128l64 64 64-64h64V448z" />
</svg>
