<svg height="1024" width="768" xmlns="http://www.w3.org/2000/svg">
  <path d="M768 832c0 38 0 64-38 64H294c-38 0-38-26-38-64s0-64 38-64h436c38 0 38 26 38 64zM294 256h436c38 0 38-26 38-64s0-64-38-64H294c-38 0-38 26-38 64s0 64 38 64z m436 192H294c-38 0-38 26-38 64s0 64 38 64h436c38 0 38-26 38-64s0-64-38-64zM128 64H82C63 76 45 80 16 86v42h48v137H10v55h182v-55h-64V64z m16 520c-11 0-29 2-42 4 34-36 73-80 73-121-1-50-36-83-87-83-38 0-62 13-88 41l37 37c12-12 24-24 41-24 18 0 31 10 31 33 0 34-49 77-109 132v37h192l-6-56h-42z m-5 242v-2c28-12 41-30 41-55 0-45-36-71-92-71-31 0-57 12-82 33l35 41c16-13 28-20 44-20 17 0 27 8 27 23 0 17-13 28-55 28v48c53 0 63 11 63 30 0 16-15 24-37 24-18 0-36-9-52-24L0 924c19 23 49 36 90 36 53 0 98-26 98-74 0-32-20-52-49-60z" />
</svg>
