<svg height="1024" width="768" xmlns="http://www.w3.org/2000/svg">
  <path d="M128 832c0 38 0 64-38 64H38c-38 0-38-26-38-64s0-64 38-64h52c38 0 38 26 38 64z m166-576h436c38 0 38-26 38-64s0-64-38-64H294c-38 0-38 26-38 64s0 64 38 64zM90 448H38c-38 0-38 26-38 64s0 64 38 64h52c38 0 38-26 38-64s0-64-38-64z m0-320H38c-38 0-38 26-38 64s0 64 38 64h52c38 0 38-26 38-64s0-64-38-64z m640 320H294c-38 0-38 26-38 64s0 64 38 64h436c38 0 38-26 38-64s0-64-38-64z m0 320H294c-38 0-38 26-38 64s0 64 38 64h436c38 0 38-26 38-64s0-64-38-64z" />
</svg>
