<svg height="16" width="44.638390625" xmlns="http://www.w3.org/2000/svg">
  <path d="M8.64 5.19H4.87c-0.1 0-0.18 0.08-0.18 0.18v1.84c0 0.1 0.08 0.18 0.18 0.18h1.47v2.29c0 0-0.33 0.11-1.24 0.11-1.08 0-2.58-0.39-2.58-3.7 0-3.31 1.57-3.74 3.04-3.74 1.27 0 1.82 0.22 2.17 0.33 0.11 0.03 0.21-0.08 0.21-0.17L8.35 0.72c0-0.05-0.02-0.1-0.07-0.14C8.14 0.48 7.28 0 5.1 0 2.58 0 0 1.07 0 6.21 0 11.36 2.95 12.13 5.44 12.13c2.06 0 3.31-0.88 3.31-0.88 0.05-0.03 0.06-0.1 0.06-0.13V5.37C8.81 5.27 8.73 5.19 8.64 5.19zM27.69 0.44h-2.12c-0.1 0-0.18 0.08-0.18 0.18v4.1h-3.31V0.62c0-0.1-0.08-0.18-0.17-0.18h-2.12c-0.1 0-0.17 0.08-0.17 0.18v11.1c0 0.1 0.08 0.18 0.17 0.18h2.12c0.1 0 0.17-0.08 0.17-0.18V6.97h3.31l-0.01 4.75c0 0.1 0.08 0.18 0.17 0.18h2.12c0.1 0 0.17-0.08 0.17-0.18l0.01-11.1C27.87 0.52 27.79 0.44 27.69 0.44zM11.17 0.69c-0.76 0-1.37 0.62-1.37 1.38 0 0.76 0.61 1.38 1.37 1.38s1.37-0.62 1.37-1.38C12.54 1.31 11.93 0.69 11.17 0.69zM12.39 4.25c0-0.1-0.08-0.18-0.17-0.18H10.1c-0.1 0-0.18 0.1-0.18 0.2 0 0 0 6.17 0 7.34 0 0.21 0.13 0.28 0.31 0.28 0 0 0.9 0 1.91 0 0.21 0 0.26-0.1 0.26-0.28 0-0.39 0-1.93 0-2.23C12.39 9.09 12.39 4.25 12.39 4.25zM35.91 4.09h-2.1c-0.1 0-0.17 0.08-0.17 0.18v5.44c0 0-0.54 0.39-1.3 0.39-0.76 0-0.96-0.34-0.96-1.09 0-0.74 0-4.75 0-4.75 0-0.1-0.08-0.18-0.17-0.18h-2.14c-0.1 0-0.17 0.08-0.17 0.18 0 0 0 2.9 0 5.11 0 2.21 1.23 2.75 2.92 2.75 1.39 0 2.51-0.77 2.51-0.77s0.05 0.4 0.08 0.45c0.02 0.05 0.09 0.1 0.15 0.1h1.35c0.1 0 0.17-0.08 0.17-0.18l0.01-7.46C36.08 4.17 36 4.09 35.91 4.09zM41.67 3.84c-1.2 0-2.01 0.53-2.01 0.53V0.62c0-0.1-0.08-0.18-0.17-0.18h-2.13c-0.1 0-0.17 0.08-0.17 0.18l-0.01 11.1c0 0.1 0.08 0.18 0.18 0.18 0 0 1.48 0 1.48 0 0.07 0 0.12-0.03 0.15-0.09 0.04-0.06 0.09-0.51 0.09-0.51s0.87 0.82 2.52 0.82c1.93 0 3.04-0.98 3.04-4.4C44.64 4.29 42.87 3.84 41.67 3.84zM40.84 10.1c-0.73-0.02-1.22-0.35-1.22-0.35v-3.52c0 0 0.49-0.3 1.09-0.35 0.76-0.07 1.49 0.16 1.49 1.97C42.19 9.75 41.86 10.13 40.84 10.1zM18.52 10.06c-0.09 0-0.33 0.04-0.58 0.04-0.78 0-1.05-0.36-1.05-0.83 0-0.47 0-3.12 0-3.12h1.59c0.1 0 0.17-0.08 0.17-0.18v-1.71c0-0.1-0.08-0.18-0.17-0.18h-1.59l0-2.1c0-0.08-0.04-0.12-0.13-0.12H14.59c-0.08 0-0.13 0.04-0.13 0.12v2.17c0 0-1.09 0.26-1.16 0.28-0.07 0.02-0.13 0.09-0.13 0.17v1.37c0 0.1 0.08 0.18 0.17 0.18h1.11c0 0 0 1.43 0 3.28 0 2.44 1.71 2.68 2.87 2.68 0.53 0 1.16-0.17 1.26-0.21 0.06-0.02 0.1-0.09 0.1-0.16l0-1.5C18.69 10.14 18.61 10.06 18.52 10.06z" />
</svg>
