<svg height="16" width="24.28125" xmlns="http://www.w3.org/2000/svg">
  <path d="M4.7 6.72h2.45v4.02c-0.55 0.27-1.64 0.34-2.53 0.34-2.56 0-3.48-2.2-3.48-5.05 0-2.83 0.92-5.05 3.48-5.05 1.27 0 2.06 0.23 3.28 0.73v-1.06c-0.64-0.33-1.66-0.66-3.28-0.66-3.5 0-4.63 2.69-4.63 6.03s1.11 6.03 4.63 6.03c1.64 0 2.8-0.27 3.59-0.64v-5.69h-3.52v0.98z m6.39 3.73v-6.39h-1.06v6.27c0 1.25 0.59 1.72 1.72 1.72v-0.89c-0.48 0-0.66-0.16-0.66-0.7z m0.25-8.73c0-0.44-0.34-0.78-0.78-0.78s-0.78 0.34-0.78 0.78 0.34 0.78 0.78 0.78 0.78-0.34 0.78-0.78z m4.33 5.69c-1.5-0.13-1.78-0.48-1.78-1.17 0-0.77 0.33-1.34 1.88-1.34 1.05 0 1.66 0.16 2.27 0.36v-0.94c-0.69-0.3-1.52-0.39-2.25-0.39-2.2 0-2.92 1.2-2.92 2.31 0 1.08 0.47 1.88 2.73 2.08 1.55 0.13 1.77 0.63 1.77 1.34 0 0.73-0.44 1.42-2.06 1.42-1.11 0-1.86-0.19-2.34-0.36v0.94c0.5 0.2 1.58 0.39 2.33 0.39 2.38 0 3.14-1.2 3.14-2.41 0-1.28-0.53-2.03-2.75-2.23z m8.59-2.47v-0.86h-2.42v-2.5l-1.09 0.31v2.11l-1.56 0.45v0.48h1.56v5c0 1.53 1.2 2.13 2.5 2.13 0.2 0 0.52-0.02 0.7-0.06v-0.88c-0.2 0.02-0.41 0.03-0.61 0.03-0.98 0-1.5-0.39-1.5-1.34v-4.88h2.42z" />
</svg>
