<?xml version="1.0" encoding="utf-8"?>
<!-- Generator: Adobe Illustrator 18.1.1, SVG Export Plug-In . SVG Version: 6.00 Build 0)  -->
<svg version="1.1" id="Layer_1" xmlns="http://www.w3.org/2000/svg" xmlns:xlink="http://www.w3.org/1999/xlink" x="0px" y="0px"
	 viewBox="-115.9 -205.9 1023.8 1023.8" enable-background="new -115.9 -205.9 1023.8 1023.8" xml:space="preserve">
<path d="M395.5-205.9c-281.3,0-511.7,228.9-511.7,511.7c0,225.9,147,417.7,349.8,485.8c25.9,5,34.9-11,34.9-24.9c0-12-1-53-1-95
	c-104,22.9-155.8-20.1-172.9-60c-11-26.9-24.9-55-57-74.9c-33.9-21.9-19.1-33.9,4-30.9c28.9,3,58,17.1,78.9,53
	c43,74.9,116.9,57,149,43c5-32.9,18.1-56,32.9-67.9c-113.9-13-232.9-57-232.9-252.8c0-56,20.1-102,53-137c-5-13-22.9-64.9,5-135.9
	c0,0,43-14,141,53c41-11,84.9-17.1,127.9-17.1c44,0,87,6,127.9,17.1c98-65.9,141-53,141-53c27.9,70.9,10,122.9,5,135.9
	c32.9,36,53,81.9,53,137c0,196.8-119.9,239.8-233.9,252.8c18.1,16.1,34.9,47,34.9,95c0,67.9-1,123.9-1,141c0,14,9,29.9,34.9,24.9
	c202.8-67.9,349.8-259.9,349.8-485.8C908.2,24.2,676.8-205.9,395.5-205.9z"/>
</svg>
