<?xml version="1.0" encoding="utf-8"?>
<!-- Generator: Adobe Illustrator 18.1.1, SVG Export Plug-In . SVG Version: 6.00 Build 0)  -->
<svg version="1.1" id="Layer_1" xmlns="http://www.w3.org/2000/svg" xmlns:xlink="http://www.w3.org/1999/xlink" x="0px" y="0px"
	 viewBox="116 -206 1024 1024" enable-background="new 116 -206 1024 1024" xml:space="preserve">
<path d="M628-206c-281.4,0-512,229-512,512c0,226,147,418,350,486c26,5,35-11,35-25c0-12-1-53-1-95c-104,23-156-20-173-60
	c-11-27-25-55-57-75c-34-22-19-34,4-31c29,3,58,17,79,53c43,75,117,57,149,43c5-33,18-56,33-68c-114-13-233-57-233-253
	c0-56,20-102,53-137c-5-13-23-65,5-136c0,0,43-14,141,53c41-11,85-17,128-17c44,0,87,6,128,17C855-5,898,8,898,8c28,71,10,123,5,136
	c33,36,53,82,53,137c0,197-120,240-234,253c18,16,35,47,35,95c0,68-1,124-1,141c0,14,9,30,35,25c203-68,350-260,350-486
	C1141,24.3,909.4-206,628-206z"/>
</svg>
