<svg height="1024" width="896" xmlns="http://www.w3.org/2000/svg">
  <path d="M421 960c80 0 161-20 228-60l-27-60c-54 33-121 53-194 53-207 0-361-133-361-366C67 247 274 67 488 67c221 0 334 140 334 333 0 153-86 247-160 247-67 0-87-47-67-140l47-240h-67l-7 46c-26-40-60-53-100-53-140 0-234 153-234 280 0 107 60 167 147 167 54 0 107-34 147-80 7 60 60 93 127 93 107 0 241-107 241-320C896 167 742 0 501 0 234 0 0 213 0 533c0 280 187 427 421 427z m-20-320c-47 0-87-33-87-107 0-93 60-206 154-206 33 0 54 13 80 53l-33 193c-40 47-80 67-114 67z" />
</svg>
