<svg height="1024" width="519.657" xmlns="http://www.w3.org/2000/svg">
  <path d="M196.032 704l64 320 64-320c-20.125 2-41.344 3.188-62.281 3.188C239.22 707.188 217.47 706.312 196.032 704zM450.032 404.688c-16.188-15.625-40.312-44.375-62-84.688v-64c7.562-12.406 12.25-39.438 23.375-51.969 15.25-13.375 24-28.594 24-44.875 0-53.094-61.062-95.156-175.375-95.156-114.25 0-182.469 42.062-182.469 95.094 0 16 8.469 31.062 23.375 44.312 13.438 14.844 22.719 38 31.094 52.594v64c-32.375 62.656-82 96.188-82 96.188h0.656C18.749 437.876 0 464.126 0 492.344 0.063 566.625 101.063 640.062 260.032 640c159 0.062 259.625-73.375 259.625-147.656C519.657 458.875 493.407 428.219 450.032 404.688z" />
</svg>
