<svg height="1024" width="767.896" xmlns="http://www.w3.org/2000/svg">
  <path d="M767.698 63.75199999999995c-1.625-64.251-63.75-63.751-63.75-63.751h-640c0 0-64-1.219-64 64 0 293.438 0 768 0 768H0.01c0.125 9.625 3.406 64 63.938 64h128v128l128-128v-128h-128v64h-66c-64 0-62-64-62-64v-64h256v-64h-128v-576h512v576h-128v64h128c0 0 0 32 0 64 0 61.625-66 64-66 64s-24.5 0-62 0v64h126c66.875 0 66-64 66-64L767.698 63.75199999999995zM495.948 384.002h144l-192-256-192 256h144l-144 192h128v448h128v-448h128L495.948 384.002z" />
</svg>
