<svg height="1024" width="1024" xmlns="http://www.w3.org/2000/svg">
  <path d="M320 384h-64v64h64v-64z m-128-320h256v-64h-384s-64-1-64 64c0 293 0 768 0 768 0 10 3 64 64 64h128v128l96-96 96 96v-128h318c67 0 66-64 66-64v-192h-576v-576z m512 640s0 32 0 64c0 62-66 64-66 64s-124 0-254 0v-64h-192v64h-66c-64 0-62-64-62-64v-64h640z m-384-448h-64v64h64v-64z m-64 320h64v-64h-64v64z m704-576h-320s-64 0-64 64v384c0 64 64 64 64 64h64v64l32-32 32 32v-64h192s64 0 64-64v-384c0-64-64-64-64-64z m-256 448s0 0-32 0-32-32-32-32v-32h64v64z m256-32s0 32-32 32-160 0-160 0v-64h192v32z m0-96h-256v-256h224s32 0 32 32 0 224 0 224z m-640-192h-64v64h64v-64z" />
</svg>
