<svg height="1024" width="768" xmlns="http://www.w3.org/2000/svg">
  <path d="M0 128v128c0 0 1.906 64 64 64s577.125 0 640 0 64-64 64-64V128c0 0-0.5-64-64-64s-588.468 0-640 0C-0.906 64 0 128 0 128zM0 448v128c0 0 1.906 64 64 64s577.125 0 640 0 64-64 64-64V448c0 0-0.5-64-64-64s-588.468 0-640 0C-0.906 384 0 448 0 448zM0 768v128c0 0 1.906 64 64 64s577.125 0 640 0 64-64 64-64V768c0 0-0.5-64-64-64s-588.468 0-640 0C-0.906 704 0 768 0 768zM64 576V448h64v128H64zM192 576V448h64v128H192zM320 576V448h64v128H320zM448 576V448h64v128H448zM640 512v-64h64v64H640zM64 256V128h64v128H64zM192 256V128h64v128H192zM320 256V128h64v128H320zM448 256V128h64v128H448zM640 192v-64h64v64H640zM64 896V768h64v128H64zM192 896V768h64v128H192zM320 896V768h64v128H320zM448 896V768h64v128H448zM640 832v-64h64v64H640z" />
</svg>
