<svg height="1024" width="929.875" xmlns="http://www.w3.org/2000/svg">
  <path d="M77.771 425.469l1.281-3.062 225.906-57.812C304.083 371 303.052 384 303.052 384c0 128 128 128 128 128s128 0 128-128c0-10.812-8.438-22.094-19.062-32.125l48.938 2.938c0 0 7.375-1.969 30.875-8.312-51.25 13.75-107.625-30.531-125.875-98.75-18.25-68.281 8.439-134.781 59.625-148.5-23.5 6.281-30.875 8.281-30.875 8.281L354.24 217.59400000000005c-34.094 9.156-54.904 45.625-45.75 79.812 2.375 8.844 6.596 16.594 11.971 23.219-7.031 12.312-12.346 25.5-15.031 39.812-27-1.344-51.406-18.938-58.75-46.438-9.094-34.188 11.125-69.25 45.25-78.344L47.052 300.812c-34.125 9.125-54 42.688-44.812 76.781C11.333 411.719 43.646 434.625 77.771 425.469zM495.052 576h-128v64l-320 320h128l192-128v128h128V832l192 128h128l-320-320V576zM923.865 128c-18.25-68.219-70.439-109.75-121.625-96-68.688 18.375-98.312 27.781-185.562 51.188-51.25 13.719-79.188 79.688-60.875 147.969 18.25 68.312 73.625 115.406 124.875 101.656 87.25-23.375 116.875-32.781 185.562-51.219C917.427 267.84400000000005 942.177 196.28099999999995 923.865 128zM853.427 217.59400000000005c-17.062 4.562-41.25-18.562-50.375-52.719l-0.812 1.531c-9.125-34.125-4.312-65.875 12.812-70.406s42.062 17.094 51.188 51.188C875.427 181.375 870.552 213.062 853.427 217.59400000000005z" />
</svg>
