<svg height="1024" width="1024" xmlns="http://www.w3.org/2000/svg">
	<path d="M832.57,574.4c0,37.63-30.78,68.41-68.41,68.41h-110.5c-4.74,0-108.88-3.74-128.41,7.77
		c-18.63,10.98-21.38,101-8.09,138.71c11.93,33.84,22.35,100.34-15.85,149.6c-23.29,30.03-57.26,24.55-78.22,16.99
		c-23.26-8.39-14.1-50.44-10.22-85.93c3.87-35.49-13.56-93.4-46.5-123.29s-29.06-57.91-44.56-85.93s-40.69-52.3-62-85.93
		C238.5,541.18,192,534.27,128,535.58V182.53c0,0,93.1,0.43,114.37-1.87c31.2-3.38,71.69-13.08,112.37-26.15
		c40.69-13.08,127.88-25.71,139.5-26.15c89.23-3.36,173.97,17.61,207.5,24.2c33.53,6.59,59.5,40.82,54.32,76.83l0,0
		c-1.56,10.86-5.65,20.76-11.56,29.23c5.68,2.05,11.3,5.01,16.48,8.79c21.51,11.56,36.22,34.29,36.22,60.3v0
		c0,20.55-9.19,39.04-23.65,51.6c3.63,1.32,7.7,3.02,12.03,5.17c27.21,9.05,46.98,34.78,46.98,64.93v0
		c0,27.45-16.4,51.25-39.88,62.12c1.76,1.06,3.64,2.27,5.61,3.66c14.9,8.65,26.28,22.74,31.35,39.51
		c2.24,6.16,2.88,10.63,2.88,18.11C832.54,573.34,832.57,573.87,832.57,574.4L832.57,574.4z"/>
</svg>
