<svg height="16" width="14" xmlns="http://www.w3.org/2000/svg">
  <path d="M14 7.05c0-1.13-0.81-2.05-2-2.05l-4 0.69c0.36-0.36 1.52-1.84 1.83-2.16 0.81-0.83 0.83-2.14 0.03-2.94-0.38-0.39-0.89-0.59-1.44-0.59-0.56 0-1.09 0.22-1.5 0.63 0 0-2.52 2.47-2.7 2.63-0.8 0.67-2.64 1.72-3.22 1.75H0v9h0.98c0.38 0 1.11 0.39 1.77 0.73 1.13 0.59 2.41 1.27 3.78 1.27 0.16 0 3.47 0 3.47 0 1.08 0 2-0.8 2-1.83 0-0.13-0.13-0.3-0.16-0.42 0.61-0.39 1.02-1.06 1.02-1.84 0-0.22-0.03-0.44-0.09-0.64 0.64-0.38 1.08-1.08 1.08-1.88 0-0.34-0.09-0.67-0.23-0.97 0.34-0.38 0.39-0.84 0.39-1.38z m-1 0c0 0.59-0.33 1.09-0.98 1.09h-0.42c0.7 0 1.27 0.56 1.27 1.25 0 0.7-0.56 1.11-1.27 1.11h-0.98c0.7 0 1.27 0.72 1.27 1.41 0 0.7-0.42 1.09-1.13 1.09h-0.75c0.53 0 1 0.64 1 1.17 0 0.52-0.47 0.83-1 0.83H6.5c-2.05 0-4.14-1.97-5.5-1.97V6c1.05 0 3.08-1.36 4.42-2.47L7.61 1.31c0.23-0.22 0.53-0.33 0.81-0.33s0.55 0.09 0.75 0.3c0.41 0.42 0.39 1.11-0.05 1.56 0 0-3.23 4.16-3.13 4.16l6-1c0.64 0 1 0.44 1 1.05z" />
</svg>
