<svg height="16" width="14" xmlns="http://www.w3.org/2000/svg">
  <path d="M13.61 7.58c0.14-0.3 0.23-0.63 0.23-0.97 0-0.8-0.44-1.5-1.08-1.88 0.06-0.2 0.09-0.42 0.09-0.64 0-0.78-0.41-1.45-1.02-1.84 0.03-0.13 0.16-0.3 0.16-0.42C12 0.8 11.08 0 10 0c0 0-3.31 0-3.47 0-1.38 0-2.66 0.67-3.78 1.27-0.66 0.34-1.39 0.73-1.77 0.73H0v9h1c0.58 0.03 2.42 1.08 3.22 1.75 0.19 0.16 2.7 2.63 2.7 2.63 0.41 0.41 0.94 0.63 1.5 0.63 0.55 0 1.06-0.2 1.44-0.59 0.8-0.8 0.78-2.11-0.03-2.94-0.31-0.31-1.47-1.8-1.83-2.16l4 0.69c1.19 0 2-0.92 2-2.05 0-0.53-0.05-1-0.39-1.38zM12 10l-6-1c-0.11 0 3.13 4.16 3.13 4.16 0.44 0.45 0.45 1.14 0.05 1.56-0.2 0.2-0.47 0.3-0.75 0.3s-0.58-0.11-0.81-0.33L5.42 12.47c-1.34-1.11-3.38-2.47-4.42-2.47V2.97c1.36 0 3.45-1.97 5.5-1.97h3.5c0.53 0 1 0.31 1 0.83 0 0.53-0.47 1.17-1 1.17h0.75c0.7 0 1.13 0.39 1.13 1.09 0 0.69-0.56 1.41-1.27 1.41h0.98c0.7 0 1.27 0.41 1.27 1.11 0 0.69-0.56 1.25-1.27 1.25h0.42c0.66 0 0.98 0.5 0.98 1.09 0 0.61-0.36 1.05-1 1.05z" />
</svg>
