<svg height="1024" width="1024" xmlns="http://www.w3.org/2000/svg">
	<path d="M832.57,451.43c0-37.63-30.78-68.41-68.41-68.41h-110.5c-4.74,0-9.36,0.49-13.83,1.42c-18.3-0.17-33.36-0.2-41.55-0.44
		c-29.11-0.83-55.21,0.33-73.03-8.76c-19.27-9.83-21.38-101-8.09-138.71c11.93-33.84,22.35-100.34-15.85-149.6
		c-23.29-30.03-57.26-24.55-78.22-16.99c-23.26,8.39-14.1,50.44-10.22,85.93c3.87,35.49-13.56,93.4-46.5,123.29
		s-29.06,57.91-44.56,85.93s-40.69,52.3-62,85.93C238.5,484.64,192,491.55,128,490.24v353.05c0,0,93.06,3.74,114.37,1.87
		s71.69,13.08,112.37,26.15c40.69,13.08,127.87,26.15,139.5,26.15c11.62,0,145.31-1.87,187.93-16.81
		c7.17-2.51,13.66-4.94,19.57-7.39c35.28-7.04,59.5-40.82,54.32-76.83l0,0c-1.56-10.86-5.65-20.76-11.56-29.23
		c5.68-2.05,11.3-5.01,16.48-8.79c21.51-11.56,36.22-34.29,36.22-60.3v0c0-20.55-9.19-39.04-23.65-51.6
		c3.63-1.32,7.7-3.02,12.03-5.17c27.21-9.05,46.98-34.78,46.98-64.93v0c0-27.45-16.4-51.25-39.88-62.12
		c1.76-1.06,3.64-2.27,5.61-3.66c14.9-8.65,26.28-22.74,31.35-39.51c2.24-6.16,3.11-12.23,2.88-18.11
		C832.54,452.48,832.57,451.96,832.57,451.43L832.57,451.43z"/>
</svg>
