<svg height="16" width="16" xmlns="http://www.w3.org/2000/svg">
  <path d="M16 8.03c0-0.11-0.02-0.22-0.05-0.33L14.11 1.72C13.94 0.53 12.58 0 11.27 0H5.67c-0.19 0-0.36 0.05-0.52 0.14l-1.44 0.86H2C0.94 1 0 1.94 0 3v4c0 1.06 0.94 2 2 2h2c0.91 0 1.39 0.45 2.39 1.55 0.91 1 0.88 1.8 0.63 3.28-0.08 0.5 0.06 1 0.42 1.41 0.39 0.47 0.98 0.77 1.56 0.77 1.83 0 3-3.72 3-5.02l-0.02-0.98c0.02 0 0.02 0 0.02 0h2c1.16 0 1.97-0.8 2-1.97z m-1-0.03c-0.02 0.64-0.38 1-1 1H12c-0.69 0-1.02 0.28-1.02 0.97l0.02 1.03c0 1.27-1.17 4-2 4-0.5 0-1.08-0.5-1-1 0.27-1.56 0.36-2.77-0.88-4.13-1.02-1.13-1.77-1.88-3.13-1.88V2l1.67-1h5.59c0.73 0 1.81 0.25 1.88 0.94l1.86 6.06z" />
</svg>
