<svg height="16" width="16" xmlns="http://www.w3.org/2000/svg">
  <path d="M15.66 7.36l-1.31-1c-0.47-0.34-0.78-1.11-0.7-1.69l0.22-1.63c0.08-0.58-0.33-0.98-0.91-0.91l-1.63 0.22c-0.58 0.08-1.34-0.23-1.69-0.7l-1-1.31c-0.36-0.45-0.92-0.45-1.28 0l-1 1.31c-0.34 0.47-1.11 0.78-1.69 0.7l-1.63-0.22c-0.58-0.08-0.98 0.33-0.91 0.91l0.22 1.63c0.08 0.58-0.23 1.34-0.7 1.69l-1.31 1c-0.45 0.36-0.45 0.92 0 1.28l1.31 1c0.47 0.34 0.78 1.11 0.7 1.69l-0.22 1.63c-0.08 0.58 0.33 0.98 0.91 0.91l1.63-0.22c0.58-0.08 1.34 0.23 1.69 0.7l1 1.31c0.36 0.45 0.92 0.45 1.28 0l1-1.31c0.34-0.47 1.11-0.78 1.69-0.7l1.63 0.22c0.58 0.08 0.98-0.33 0.91-0.91l-0.22-1.63c-0.08-0.58 0.23-1.34 0.7-1.69l1.31-1c0.45-0.36 0.45-0.92 0-1.28z m-3.66 0.14c0 0.83-0.67 1.5-1.5 1.5H8v1l-1-0.5v1.5l-1-0.5v1.5H4V10l3-3v-1.5c0-0.83 0.67-1.5 1.5-1.5h2.5c0.55 0 1 0.45 1 1v2.5z m-1-1.44v0.44c0 0.28-0.22 0.5-0.5 0.5h-1c-0.28 0-0.5-0.22-0.5-0.5v-1c0-0.28 0.22-0.5 0.5-0.5h0.44c0.58 0 1.06 0.48 1.06 1.06z" />
</svg>
