<svg width="24" height="24" viewBox="0 0 24 24" xmlns="http://www.w3.org/2000/svg">
  <path fill-rule="evenodd" clip-rule="evenodd" d="M12.868 3.03101C12.7805 2.87806 12.6541 2.75095 12.5017 2.66254C12.3493 2.57413 12.1762 2.52757 12 2.52757C11.8238 2.52757 11.6507 2.57413 11.4983 2.66254C11.3459 2.75095 11.2195 2.87806 11.132 3.03101L3.147 17.004C3.0601 17.1561 3.01469 17.3284 3.01533 17.5036C3.01596 17.6788 3.06262 17.8508 3.15062 18.0023C3.23862 18.1538 3.36488 18.2795 3.51676 18.3669C3.66863 18.4542 3.84079 18.5001 4.016 18.5H19.984C20.1592 18.5001 20.3314 18.4542 20.4832 18.3669C20.6351 18.2795 20.7614 18.1538 20.8494 18.0023C20.9374 17.8508 20.984 17.6788 20.9847 17.5036C20.9853 17.3284 20.9399 17.1561 20.853 17.004L12.868 3.03001V3.03101ZM9.83 2.28701C10.79 0.607008 13.212 0.607008 14.172 2.28701L22.156 16.26C23.108 17.926 21.905 20 19.986 20H4.014C2.095 20 0.891996 17.926 1.844 16.26L9.829 2.28701H9.83ZM12 6.96301C12.1989 6.96301 12.3897 7.04203 12.5303 7.18268C12.671 7.32333 12.75 7.5141 12.75 7.71301V11.25C12.75 11.4489 12.671 11.6397 12.5303 11.7803C12.3897 11.921 12.1989 12 12 12C11.8011 12 11.6103 11.921 11.4697 11.7803C11.329 11.6397 11.25 11.4489 11.25 11.25V7.71301C11.25 7.5141 11.329 7.32333 11.4697 7.18268C11.6103 7.04203 11.8011 6.96301 12 6.96301ZM12 14C11.7348 14 11.4804 14.1054 11.2929 14.2929C11.1054 14.4804 11 14.7348 11 15C11 15.2652 11.1054 15.5196 11.2929 15.7071C11.4804 15.8947 11.7348 16 12 16C12.2652 16 12.5196 15.8947 12.7071 15.7071C12.8946 15.5196 13 15.2652 13 15C13 14.7348 12.8946 14.4804 12.7071 14.2929C12.5196 14.1054 12.2652 14 12 14Z"/>
</svg>
