<svg width="24" height="24" viewBox="0 0 24 24" xmlns="http://www.w3.org/2000/svg">
  <path fill-rule="evenodd" clip-rule="evenodd" d="M6.71236 14.9998C6.29815 14.9998 5.96236 14.6641 5.96236 14.2498L5.96236 6.71218C5.96236 6.51327 6.04138 6.3225 6.18204 6.18185C6.32269 6.0412 6.51346 5.96218 6.71237 5.96218L14.25 5.96222C14.6642 5.96222 15 6.29801 15 6.71222C15 7.12643 14.6642 7.46222 14.25 7.46222L8.52302 7.46219L17.7803 16.7196C18.0732 17.0125 18.0732 17.4873 17.7803 17.7802C17.4874 18.0731 17.0126 18.0731 16.7197 17.7802L7.46236 8.52285L7.46236 14.2498C7.46236 14.6641 7.12658 14.9998 6.71236 14.9998Z"/>
</svg>
