<svg width="24" height="24" viewBox="0 0 24 24" xmlns="http://www.w3.org/2000/svg">
  <path fill-rule="evenodd" clip-rule="evenodd" d="M6 8C6 6.4087 6.63214 4.88258 7.75736 3.75736C8.88258 2.63214 10.4087 2 12 2C13.5913 2 15.1174 2.63214 16.2426 3.75736C17.3679 4.88258 18 6.4087 18 8V10.917C18 11.62 18.228 12.304 18.65 12.867L20.7 15.6C20.8671 15.8229 20.9689 16.0878 20.9939 16.3653C21.019 16.6427 20.9662 16.9217 20.8416 17.1708C20.7171 17.42 20.5256 17.6295 20.2886 17.776C20.0516 17.9224 19.7786 18 19.5 18H4.5C4.22143 18 3.94837 17.9224 3.7114 17.776C3.47444 17.6295 3.28294 17.42 3.15836 17.1708C3.03378 16.9217 2.98104 16.6427 3.00606 16.3653C3.03108 16.0878 3.13286 15.8229 3.3 15.6L5.35 12.867C5.77192 12.3044 6 11.6202 6 10.917V8ZM12 21.5C11.2462 21.4999 10.5126 21.2565 9.90811 20.8061C9.30366 20.3557 8.86068 19.7223 8.645 19H15.355C15.1393 19.7223 14.6963 20.3557 14.0919 20.8061C13.4874 21.2565 12.7538 21.4999 12 21.5Z"/>
</svg>
