<svg width="24" height="24" viewBox="0 0 24 24" xmlns="http://www.w3.org/2000/svg">
  <path fill-rule="evenodd" clip-rule="evenodd" d="M7.25 4C6.55964 4 6 4.55964 6 5.25V11.75V18.75C6 19.4404 6.55964 20 7.25 20H13.25C15.8734 20 18 17.8734 18 15.25C18 13.6406 17.1996 12.2182 15.9752 11.359C16.6155 10.5817 17 9.58574 17 8.5C17 6.01472 14.9853 4 12.5 4H7.25ZM12.5 10.5C13.6046 10.5 14.5 9.60457 14.5 8.5C14.5 7.39543 13.6046 6.5 12.5 6.5H8.5V10.5H12.5ZM8.5 13V17.5H13.25C14.4926 17.5 15.5 16.4926 15.5 15.25C15.5 14.0074 14.4926 13 13.25 13H12.5H8.5Z"/>
</svg>
