<svg width="24" height="24" viewBox="0 0 24 24" xmlns="http://www.w3.org/2000/svg">
  <path fill-rule="evenodd" clip-rule="evenodd" d="M4.94 3.756C4.93921 3.52568 4.98389 3.29747 5.07148 3.08446C5.15907 2.87145 5.28785 2.67782 5.45043 2.51468C5.61302 2.35154 5.8062 2.2221 6.01891 2.13378C6.23162 2.04546 6.45968 2 6.69 2H17.25C18.216 2 19 2.784 19 3.75V21.25C19 21.3912 18.9601 21.5296 18.8849 21.6491C18.8098 21.7687 18.7024 21.8646 18.5752 21.9258C18.4479 21.987 18.306 22.0111 18.1656 21.9952C18.0253 21.9793 17.8923 21.9241 17.782 21.836L12 17.21L6.219 21.835C6.10893 21.9232 5.97622 21.9786 5.8361 21.9948C5.69598 22.011 5.55414 21.9873 5.42685 21.9266C5.29956 21.8658 5.19199 21.7703 5.11649 21.6512C5.04099 21.5321 5.00061 21.394 5 21.253L4.94 3.756ZM6.69 3.5C6.62369 3.5 6.5601 3.52634 6.51322 3.57322C6.46634 3.62011 6.44 3.6837 6.44 3.75L6.495 19.694L11.531 15.664C11.6641 15.5574 11.8295 15.4993 12 15.4993C12.1705 15.4993 12.3359 15.5574 12.469 15.664L17.5 19.69V3.75C17.5 3.6837 17.4737 3.62011 17.4268 3.57322C17.3799 3.52634 17.3163 3.5 17.25 3.5H6.69Z"/>
</svg>
