<svg width="24" height="24" viewBox="0 0 24 24" xmlns="http://www.w3.org/2000/svg">
  <path fill-rule="evenodd" clip-rule="evenodd" d="M2.17499 2.268C2.23827 2.19246 2.31581 2.13012 2.40319 2.08456C2.49056 2.039 2.58606 2.0111 2.68422 2.00246C2.78239 1.99383 2.88129 2.00462 2.97528 2.03422C3.06927 2.06383 3.1565 2.11167 3.23199 2.175L21.732 17.675C21.8845 17.8028 21.98 17.986 21.9974 18.1842C22.0148 18.3825 21.9528 18.5795 21.825 18.732C21.6972 18.8845 21.514 18.98 21.3158 18.9974C21.1175 19.0149 20.9205 18.9528 20.768 18.825L19 17.343V21.25C19 21.3912 18.9601 21.5296 18.8849 21.6491C18.8098 21.7687 18.7024 21.8646 18.5752 21.9258C18.4479 21.987 18.306 22.0111 18.1656 21.9952C18.0253 21.9793 17.8923 21.9241 17.782 21.836L12 17.21L6.21899 21.835C6.10893 21.9232 5.97621 21.9786 5.8361 21.9948C5.69598 22.011 5.55413 21.9873 5.42685 21.9266C5.29956 21.8658 5.19199 21.7703 5.11649 21.6512C5.04098 21.5321 5.00061 21.394 4.99999 21.253L4.94699 5.569L2.26799 3.325C2.19245 3.26173 2.13012 3.18419 2.08455 3.09681C2.03899 3.00943 2.0111 2.91393 2.00246 2.81577C1.99382 2.71761 2.00461 2.61871 2.03422 2.52472C2.06382 2.43073 2.11166 2.34349 2.17499 2.268ZM6.45099 6.83L6.49499 19.694L11.531 15.664C11.6641 15.5574 11.8295 15.4993 12 15.4993C12.1705 15.4993 12.3359 15.5574 12.469 15.664L17.5 19.69V16.088L6.45099 6.83ZM6.67099 2.75C6.67099 2.55109 6.75001 2.36032 6.89066 2.21967C7.03132 2.07902 7.22208 2 7.42099 2H17.25C18.216 2 19 2.784 19 3.75V11.823C19 12.0219 18.921 12.2127 18.7803 12.3533C18.6397 12.494 18.4489 12.573 18.25 12.573C18.0511 12.573 17.8603 12.494 17.7197 12.3533C17.579 12.2127 17.5 12.0219 17.5 11.823V3.75C17.5 3.6837 17.4737 3.62011 17.4268 3.57322C17.3799 3.52634 17.3163 3.5 17.25 3.5H7.42099C7.22208 3.5 7.03132 3.42098 6.89066 3.28033C6.75001 3.13968 6.67099 2.94891 6.67099 2.75Z"/>
</svg>
