<svg width="24" height="24" viewBox="0 0 24 24" xmlns="http://www.w3.org/2000/svg">
  <path fill-rule="evenodd" clip-rule="evenodd" d="M3.232 2.175C3.15649 2.1117 3.06925 2.0639 2.97526 2.03432C2.88128 2.00473 2.78239 1.99395 2.68424 2.00259C2.48601 2.02003 2.30283 2.1155 2.175 2.268C2.04716 2.4205 1.98514 2.61753 2.00258 2.81576C2.02003 3.01399 2.1155 3.19717 2.268 3.325L4.947 5.569L5 21.253C5.00042 21.3941 5.04066 21.5323 5.11609 21.6516C5.19152 21.7709 5.29908 21.8664 5.4264 21.9273C5.55372 21.9882 5.69564 22.012 5.83585 21.9958C5.97606 21.9796 6.10886 21.9243 6.219 21.836L12 17.21L17.782 21.835C17.8923 21.9231 18.0252 21.9782 18.1654 21.9941C18.3056 22.0101 18.4475 21.9861 18.5747 21.925C18.7019 21.8639 18.8093 21.7681 18.8845 21.6487C18.9598 21.5293 18.9998 21.3911 19 21.25V17.343L20.768 18.825C20.8435 18.8883 20.9307 18.9361 21.0247 18.9657C21.1187 18.9953 21.2176 19.006 21.3158 18.9974C21.4139 18.9888 21.5094 18.9609 21.5968 18.9154C21.6841 18.8698 21.7617 18.8075 21.825 18.732C21.8883 18.6565 21.9361 18.5693 21.9657 18.4753C21.9953 18.3813 22.006 18.2824 21.9974 18.1842C21.9888 18.0861 21.9609 17.9906 21.9153 17.9032C21.8698 17.8158 21.8075 17.7383 21.732 17.675L3.232 2.175ZM7.422 2C7.26798 1.9999 7.11767 2.04723 6.99149 2.13554C6.8653 2.22385 6.76937 2.34887 6.71672 2.49361C6.66406 2.63834 6.65725 2.79578 6.6972 2.94453C6.73714 3.09327 6.82192 3.22611 6.94 3.325L17.768 12.398C17.8774 12.4898 18.0107 12.5484 18.1523 12.567C18.2939 12.5856 18.4378 12.5634 18.5672 12.503C18.6966 12.4426 18.806 12.3466 18.8827 12.2261C18.9594 12.1056 19.0001 11.9658 19 11.823V3.75C19 3.28587 18.8156 2.84075 18.4874 2.51256C18.1592 2.18437 17.7141 2 17.25 2H7.421H7.422Z"/>
</svg>
