<svg width="24" height="24" viewBox="0 0 24 24" xmlns="http://www.w3.org/2000/svg">
  <path fill-rule="evenodd" clip-rule="evenodd" d="M2 4.75C2 4.33579 2.33579 4 2.75 4H8.24709C9.81317 4 11.1925 4.80004 11.9985 6.01384C12.8045 4.80009 14.1838 4 15.75 4H21.25C21.6642 4 22 4.33579 22 4.75V18.3125C22 18.5126 21.9201 18.7043 21.778 18.8452C21.636 18.986 21.4436 19.0642 21.2435 19.0625L15.5658 19.0135C14.7612 19.0066 13.9875 19.3231 13.4186 19.8921L12.5303 20.7803C12.3897 20.921 12.1989 21 12 21C11.8011 21 11.6103 20.921 11.4697 20.7803L10.568 19.8787C10.0054 19.3161 9.24235 19 8.4467 19H2.75C2.33579 19 2 18.6642 2 18.25V4.75ZM11.2471 8.49732C11.2456 6.84151 9.9029 5.5 8.24709 5.5H3.5V17.5H8.4467C9.46997 17.5 10.4573 17.8485 11.25 18.4798L11.2471 8.49732ZM12.75 18.4826V8.5C12.75 6.84315 14.0931 5.5 15.75 5.5H20.5V17.556L15.5787 17.5136C14.5478 17.5047 13.5507 17.8499 12.75 18.4826Z"/>
</svg>
