<svg width="24" height="24" viewBox="0 0 24 24" xmlns="http://www.w3.org/2000/svg">
  <path fill-rule="evenodd" clip-rule="evenodd" d="M6.69 2C6.45968 2 6.23162 2.04546 6.01891 2.13378C5.8062 2.2221 5.61302 2.35154 5.45043 2.51468C5.28785 2.67782 5.15907 2.87145 5.07148 3.08446C4.98389 3.29747 4.93921 3.52568 4.94 3.756L5 21.253C5.00042 21.3941 5.04066 21.5323 5.11609 21.6516C5.19152 21.7709 5.29908 21.8664 5.4264 21.9273C5.55372 21.9882 5.69565 22.012 5.83585 21.9958C5.97606 21.9796 6.10886 21.9243 6.219 21.836L12 17.21L17.782 21.835C17.8923 21.9231 18.0252 21.9782 18.1654 21.9941C18.3056 22.0101 18.4475 21.9861 18.5747 21.925C18.7019 21.8639 18.8093 21.7681 18.8845 21.6487C18.9598 21.5293 18.9998 21.3911 19 21.25V3.75C19 3.28587 18.8156 2.84075 18.4874 2.51256C18.1592 2.18437 17.7141 2 17.25 2H6.69Z"/>
</svg>
