<svg width="24" height="24" viewBox="0 0 24 24" xmlns="http://www.w3.org/2000/svg">
  <path fill-rule="evenodd" clip-rule="evenodd" d="M4.5 6C4.5 5.82831 4.5853 5.58572 4.90949 5.28378C5.23477 4.98082 5.74635 4.67346 6.44126 4.39971C7.8266 3.85397 9.79163 3.5 12 3.5C14.2084 3.5 16.1734 3.85397 17.5587 4.39971C18.2537 4.67346 18.7652 4.98082 19.0905 5.28378C19.4147 5.58572 19.5 5.82831 19.5 6C19.5 6.17169 19.4147 6.41428 19.0905 6.71622C18.7652 7.01918 18.2537 7.32654 17.5587 7.60029C16.1734 8.14603 14.2084 8.5 12 8.5C9.79163 8.5 7.8266 8.14603 6.44126 7.60029C5.74635 7.32654 5.23477 7.01918 4.90949 6.71622C4.5853 6.41428 4.5 6.17169 4.5 6ZM3 6C3 5.27423 3.3764 4.66183 3.88716 4.18613C4.39682 3.71144 5.09344 3.31848 5.89148 3.0041C7.49205 2.37357 9.65202 2 12 2C14.348 2 16.508 2.37357 18.1085 3.0041C18.9066 3.31848 19.6032 3.71144 20.1128 4.18613C20.6236 4.66183 21 5.27423 21 6V12V18C21 18.7258 20.6236 19.3382 20.1128 19.8139C19.6032 20.2886 18.9066 20.6815 18.1085 20.9959C16.508 21.6264 14.348 22 12 22C9.65202 22 7.49205 21.6264 5.89148 20.9959C5.09344 20.6815 4.39682 20.2886 3.88716 19.8139C3.3764 19.3382 3 18.7258 3 18V12V6ZM4.5 14.2908V18C4.5 18.1717 4.5853 18.4143 4.90949 18.7162C5.23477 19.0192 5.74635 19.3265 6.44126 19.6003C7.8266 20.146 9.79163 20.5 12 20.5C14.2084 20.5 16.1734 20.146 17.5587 19.6003C18.2537 19.3265 18.7652 19.0192 19.0905 18.7162C19.4147 18.4143 19.5 18.1717 19.5 18V14.2908C19.0933 14.5589 18.6219 14.7937 18.1085 14.9959C16.508 15.6264 14.348 16 12 16C9.65202 16 7.49205 15.6264 5.89148 14.9959C5.37808 14.7937 4.90667 14.5589 4.5 14.2908ZM19.5 12C19.5 12.1717 19.4147 12.4143 19.0905 12.7162C18.7652 13.0192 18.2537 13.3265 17.5587 13.6003C16.1734 14.146 14.2084 14.5 12 14.5C9.79163 14.5 7.8266 14.146 6.44126 13.6003C5.74635 13.3265 5.23477 13.0192 4.90949 12.7162C4.5853 12.4143 4.5 12.1717 4.5 12V8.29077C4.90667 8.55889 5.37808 8.79366 5.89148 8.9959C7.49205 9.62643 9.65202 10 12 10C14.348 10 16.508 9.62643 18.1085 8.9959C18.6219 8.79366 19.0933 8.55889 19.5 8.29077V12Z"/>
</svg>
