<svg width="24" height="24" viewBox="0 0 24 24" xmlns="http://www.w3.org/2000/svg">
  <path fill-rule="evenodd" clip-rule="evenodd" d="M15.7501 7C16.7166 7 17.5001 6.2165 17.5001 5.25C17.5001 4.2835 16.7166 3.5 15.7501 3.5C14.8737 3.5 13.0673 4.26255 12.787 7H15.7501ZM11.213 7C10.9327 4.26255 9.12627 3.5 8.24992 3.5C7.28342 3.5 6.49992 4.2835 6.49992 5.25C6.49992 6.2165 7.28342 7 8.24992 7H11.213ZM5.51083 7C5.18742 6.49485 4.99992 5.89432 4.99992 5.25C4.99992 3.45507 6.45499 2 8.24992 2C9.46276 2 11.071 2.71894 12 4.44202C12.929 2.71894 14.5372 2 15.7501 2C17.545 2 19.0001 3.45507 19.0001 5.25C19.0001 5.89432 18.8126 6.49485 18.4892 7H20.25C21.2165 7 22 7.7835 22 8.75V11.75C22 12.448 21.5913 13.0506 21.0002 13.3315V20.2499C21.0002 21.2164 20.2167 21.9999 19.2502 21.9999H4.75016C3.78366 21.9999 3.00016 21.2164 3.00016 20.2499V13.3317C2.40884 13.0508 2 12.4482 2 11.75V8.75C2 7.7835 2.7835 7 3.75 7H5.51083ZM8.24992 8.5H3.75C3.61193 8.5 3.5 8.61193 3.5 8.75V11.75C3.5 11.8881 3.61193 12 3.75 12H11.2501V8.5H8.24992ZM12.7501 12V8.5H15.7501H20.25C20.3881 8.5 20.5 8.61193 20.5 8.75V11.75C20.5 11.8881 20.3881 12 20.25 12H12.7501ZM11.2501 13.5H4.50016V20.2499C4.50016 20.388 4.61209 20.4999 4.75016 20.4999H11.2501V13.5ZM12.7501 20.4999V13.5H19.5002V20.2499C19.5002 20.388 19.3882 20.4999 19.2502 20.4999H12.7501Z"/>
</svg>
