<svg width="24" height="24" viewBox="0 0 24 24" xmlns="http://www.w3.org/2000/svg">
  <path fill-rule="evenodd" clip-rule="evenodd" d="M14.7803 2.71967C15.0732 3.01256 15.0732 3.48744 14.7803 3.78033L13.5607 5H16.25C18.3211 5 20 6.67893 20 8.75V15.6035C21.1543 15.93 22 16.9912 22 18.25C22 19.7688 20.7688 21 19.25 21C17.7312 21 16.5 19.7688 16.5 18.25C16.5 16.9912 17.3457 15.93 18.5 15.6035V8.75C18.5 7.50736 17.4926 6.5 16.25 6.5H13.5607L14.7803 7.71967C15.0732 8.01256 15.0732 8.48744 14.7803 8.78033C14.4874 9.07322 14.0126 9.07322 13.7197 8.78033L11.2197 6.28033C10.9268 5.98744 10.9268 5.51256 11.2197 5.21967L13.7197 2.71967C14.0126 2.42678 14.4874 2.42678 14.7803 2.71967ZM18 18.25C18 17.5596 18.5596 17 19.25 17C19.9404 17 20.5 17.5596 20.5 18.25C20.5 18.9404 19.9404 19.5 19.25 19.5C18.5596 19.5 18 18.9404 18 18.25ZM3.5 5.75C3.5 5.05964 4.05964 4.5 4.75 4.5C5.44036 4.5 6 5.05964 6 5.75C6 6.44036 5.44036 7 4.75 7C4.05964 7 3.5 6.44036 3.5 5.75ZM4.75 3C3.23122 3 2 4.23122 2 5.75C2 7.00878 2.84575 8.07002 4 8.39648L4 15.25C4 17.3211 5.67893 19 7.75 19H10.4393L9.21967 20.2197C8.92678 20.5126 8.92678 20.9874 9.21967 21.2803C9.51256 21.5732 9.98744 21.5732 10.2803 21.2803L12.7803 18.7803C13.0732 18.4874 13.0732 18.0126 12.7803 17.7197L10.2803 15.2197C9.98744 14.9268 9.51256 14.9268 9.21967 15.2197C8.92678 15.5126 8.92678 15.9874 9.21967 16.2803L10.4393 17.5H7.75C6.50736 17.5 5.5 16.4926 5.5 15.25L5.5 8.39648C6.65425 8.07002 7.5 7.00878 7.5 5.75C7.5 4.23122 6.26878 3 4.75 3Z"/>
</svg>
