<svg width="24" height="24" viewBox="0 0 24 24" xmlns="http://www.w3.org/2000/svg">
  <path fill-rule="evenodd" clip-rule="evenodd" d="M13.78 3.78C13.9125 3.63782 13.9846 3.44978 13.9812 3.25548C13.9777 3.06118 13.899 2.87579 13.7616 2.73838C13.6242 2.60096 13.4388 2.52225 13.2445 2.51882C13.0502 2.5154 12.8622 2.58752 12.72 2.72L10.22 5.22C10.0795 5.36062 10.0007 5.55125 10.0007 5.75C10.0007 5.94875 10.0795 6.13937 10.22 6.28L12.72 8.78C12.7887 8.85369 12.8715 8.91279 12.9635 8.95378C13.0555 8.99477 13.1548 9.01681 13.2555 9.01859C13.3562 9.02037 13.4562 9.00184 13.5496 8.96412C13.643 8.9264 13.7278 8.87026 13.799 8.79904C13.8703 8.72782 13.9264 8.64298 13.9641 8.5496C14.0018 8.45621 14.0204 8.35618 14.0186 8.25548C14.0168 8.15477 13.9948 8.05546 13.9538 7.96346C13.9128 7.87146 13.8537 7.78866 13.78 7.72L12.56 6.5H15.25C15.8467 6.5 16.419 6.73705 16.841 7.15901C17.2629 7.58097 17.5 8.15326 17.5 8.75V15.604C16.8611 15.785 16.3093 16.191 15.9463 16.7471C15.5834 17.3031 15.4338 17.9717 15.5252 18.6294C15.6166 19.2871 15.9428 19.8896 16.4436 20.3256C16.9444 20.7616 17.586 21.0018 18.25 21.0018C18.914 21.0018 19.5556 20.7616 20.0564 20.3256C20.5572 19.8896 20.8834 19.2871 20.9748 18.6294C21.0662 17.9717 20.9166 17.3031 20.5537 16.7471C20.1907 16.191 19.6389 15.785 19 15.604V8.75C19 7.75544 18.6049 6.80161 17.9017 6.09835C17.1984 5.39509 16.2446 5 15.25 5H12.56L13.78 3.78ZM7 5.75C7 6.08152 6.8683 6.39946 6.63388 6.63388C6.39946 6.8683 6.08152 7 5.75 7C5.41848 7 5.10054 6.8683 4.86612 6.63388C4.6317 6.39946 4.5 6.08152 4.5 5.75C4.5 5.41848 4.6317 5.10054 4.86612 4.86612C5.10054 4.6317 5.41848 4.5 5.75 4.5C6.08152 4.5 6.39946 4.6317 6.63388 4.86612C6.8683 5.10054 7 5.41848 7 5.75ZM6.5 8.396C7.13887 8.21497 7.6907 7.80897 8.05366 7.25292C8.41662 6.69687 8.56621 6.02831 8.47482 5.37061C8.38344 4.7129 8.05725 4.11045 7.55644 3.67441C7.05564 3.23838 6.41402 2.99821 5.75 2.99821C5.08598 2.99821 4.44436 3.23838 3.94356 3.67441C3.44275 4.11045 3.11656 4.7129 3.02518 5.37061C2.93379 6.02831 3.08338 6.69687 3.44634 7.25292C3.8093 7.80897 4.36113 8.21497 5 8.396V15.603C4.36113 15.784 3.8093 16.19 3.44634 16.7461C3.08338 17.3021 2.93379 17.9707 3.02518 18.6284C3.11656 19.2861 3.44275 19.8886 3.94356 20.3246C4.44436 20.7606 5.08598 21.0008 5.75 21.0008C6.41402 21.0008 7.05564 20.7606 7.55644 20.3246C8.05725 19.8886 8.38344 19.2861 8.47482 18.6284C8.56621 17.9707 8.41662 17.3021 8.05366 16.7461C7.6907 16.19 7.13887 15.784 6.5 15.603V8.396ZM7 18.25C7 18.5815 6.8683 18.8995 6.63388 19.1339C6.39946 19.3683 6.08152 19.5 5.75 19.5C5.41848 19.5 5.10054 19.3683 4.86612 19.1339C4.6317 18.8995 4.5 18.5815 4.5 18.25C4.5 17.9185 4.6317 17.6005 4.86612 17.3661C5.10054 17.1317 5.41848 17 5.75 17C6.08152 17 6.39946 17.1317 6.63388 17.3661C6.8683 17.6005 7 17.9185 7 18.25ZM18.25 19.5C18.5815 19.5 18.8995 19.3683 19.1339 19.1339C19.3683 18.8995 19.5 18.5815 19.5 18.25C19.5 17.9185 19.3683 17.6005 19.1339 17.3661C18.8995 17.1317 18.5815 17 18.25 17C17.9185 17 17.6005 17.1317 17.3661 17.3661C17.1317 17.6005 17 17.9185 17 18.25C17 18.5815 17.1317 18.8995 17.3661 19.1339C17.6005 19.3683 17.9185 19.5 18.25 19.5Z"/>
</svg>
