<svg width="24" height="24" viewBox="0 0 24 24" xmlns="http://www.w3.org/2000/svg">
  <path fill-rule="evenodd" clip-rule="evenodd" d="M7.75 6.99999C8.08152 6.99999 8.39946 6.8683 8.63388 6.63388C8.8683 6.39946 9 6.08152 9 5.74999C9 5.41847 8.8683 5.10053 8.63388 4.86611C8.39946 4.63169 8.08152 4.49999 7.75 4.49999C7.41848 4.49999 7.10054 4.63169 6.86611 4.86611C6.63169 5.10053 6.5 5.41847 6.5 5.74999C6.5 6.08152 6.63169 6.39946 6.86611 6.63388C7.10054 6.8683 7.41848 6.99999 7.75 6.99999ZM8.999 8.19999C9.56959 7.90865 10.0206 7.42721 10.274 6.83882C10.5275 6.25042 10.5676 5.59198 10.3874 4.97718C10.2071 4.36238 9.8179 3.8298 9.28686 3.47139C8.75582 3.11297 8.11631 2.95122 7.47872 3.01406C6.84113 3.07689 6.2455 3.36037 5.79464 3.81554C5.34377 4.27072 5.06599 4.86904 5.00924 5.50719C4.95248 6.14535 5.12032 6.78329 5.48378 7.31089C5.84724 7.83849 6.38351 8.22263 7 8.397V15.604C6.36113 15.785 5.8093 16.191 5.44634 16.7471C5.08338 17.3031 4.93379 17.9717 5.02518 18.6294C5.11656 19.2871 5.44275 19.8895 5.94356 20.3256C6.44436 20.7616 7.08598 21.0018 7.75 21.0018C8.41402 21.0018 9.05564 20.7616 9.55644 20.3256C10.0572 19.8895 10.3834 19.2871 10.4748 18.6294C10.5662 17.9717 10.4166 17.3031 10.0537 16.7471C9.6907 16.191 9.13887 15.785 8.5 15.604V10.334C9.21929 11.3162 10.1601 12.1149 11.2461 12.6652C12.3321 13.2155 13.5326 13.5018 14.75 13.501H15.604C15.785 14.1399 16.191 14.6917 16.7471 15.0547C17.3031 15.4176 17.9717 15.5672 18.6294 15.4758C19.2871 15.3844 19.8896 15.0582 20.3256 14.5574C20.7616 14.0566 21.0018 13.415 21.0018 12.751C21.0018 12.087 20.7616 11.4454 20.3256 10.9446C19.8896 10.4437 19.2871 10.1176 18.6294 10.0262C17.9717 9.93479 17.3031 10.0844 16.7471 10.4473C16.191 10.8103 15.785 11.3621 15.604 12.001H14.75C13.5245 12.001 12.326 11.6408 11.3035 10.9652C10.281 10.2896 9.47964 9.32833 8.999 8.20099V8.19999ZM18.25 14C18.5815 14 18.8995 13.8683 19.1339 13.6339C19.3683 13.3995 19.5 13.0815 19.5 12.75C19.5 12.4185 19.3683 12.1005 19.1339 11.8661C18.8995 11.6317 18.5815 11.5 18.25 11.5C17.9185 11.5 17.6005 11.6317 17.3661 11.8661C17.1317 12.1005 17 12.4185 17 12.75C17 13.0815 17.1317 13.3995 17.3661 13.6339C17.6005 13.8683 17.9185 14 18.25 14ZM9 18.25C9 18.5815 8.8683 18.8995 8.63388 19.1339C8.39946 19.3683 8.08152 19.5 7.75 19.5C7.41848 19.5 7.10054 19.3683 6.86611 19.1339C6.63169 18.8995 6.5 18.5815 6.5 18.25C6.5 17.9185 6.63169 17.6005 6.86611 17.3661C7.10054 17.1317 7.41848 17 7.75 17C8.08152 17 8.39946 17.1317 8.63388 17.3661C8.8683 17.6005 9 17.9185 9 18.25Z"/>
</svg>
