<svg width="24" height="24" viewBox="0 0 24 24" xmlns="http://www.w3.org/2000/svg">
  <path fill-rule="evenodd" clip-rule="evenodd" d="M6.75 7.00001C7.08152 7.00001 7.39946 6.86831 7.63388 6.63389C7.8683 6.39947 8 6.08153 8 5.75001C8 5.41848 7.8683 5.10054 7.63388 4.86612C7.39946 4.6317 7.08152 4.50001 6.75 4.50001C6.41848 4.50001 6.10054 4.6317 5.86612 4.86612C5.6317 5.10054 5.5 5.41848 5.5 5.75001C5.5 6.08153 5.6317 6.39947 5.86612 6.63389C6.10054 6.86831 6.41848 7.00001 6.75 7.00001ZM7.5 8.39601C8.13887 8.21497 8.6907 7.80897 9.05366 7.25293C9.41662 6.69688 9.56621 6.02832 9.47482 5.37061C9.38344 4.71291 9.05725 4.11045 8.55644 3.67442C8.05564 3.23839 7.41402 2.99821 6.75 2.99821C6.08598 2.99821 5.44436 3.23839 4.94356 3.67442C4.44275 4.11045 4.11656 4.71291 4.02518 5.37061C3.93379 6.02832 4.08338 6.69688 4.44634 7.25293C4.8093 7.80897 5.36113 8.21497 6 8.39601V15.604C5.36113 15.785 4.8093 16.191 4.44634 16.7471C4.08338 17.3031 3.93379 17.9717 4.02518 18.6294C4.11656 19.2871 4.44275 19.8896 4.94356 20.3256C5.44436 20.7616 6.08598 21.0018 6.75 21.0018C7.41402 21.0018 8.05564 20.7616 8.55644 20.3256C9.05725 19.8896 9.38344 19.2871 9.47482 18.6294C9.56621 17.9717 9.41662 17.3031 9.05366 16.7471C8.6907 16.191 8.13887 15.785 7.5 15.604V14.25C7.5 13.284 8.284 12.5 9.25 12.5H14.25C15.2446 12.5 16.1984 12.1049 16.9017 11.4017C17.6049 10.6984 18 9.74457 18 8.75001V8.39601C18.6389 8.21497 19.1907 7.80897 19.5537 7.25293C19.9166 6.69688 20.0662 6.02832 19.9748 5.37061C19.8834 4.71291 19.5572 4.11045 19.0564 3.67442C18.5556 3.23839 17.914 2.99821 17.25 2.99821C16.586 2.99821 15.9444 3.23839 15.4436 3.67442C14.9428 4.11045 14.6166 4.71291 14.5252 5.37061C14.4338 6.02832 14.5834 6.69688 14.9463 7.25293C15.3093 7.80897 15.8611 8.21497 16.5 8.39601V8.75001C16.5 9.34674 16.2629 9.91904 15.841 10.341C15.419 10.763 14.8467 11 14.25 11H9.25C8.606 11 8.005 11.188 7.5 11.51V8.39701V8.39601ZM18.5 5.75001C18.5 6.08153 18.3683 6.39947 18.1339 6.63389C17.8995 6.86831 17.5815 7.00001 17.25 7.00001C16.9185 7.00001 16.6005 6.86831 16.3661 6.63389C16.1317 6.39947 16 6.08153 16 5.75001C16 5.41848 16.1317 5.10054 16.3661 4.86612C16.6005 4.6317 16.9185 4.50001 17.25 4.50001C17.5815 4.50001 17.8995 4.6317 18.1339 4.86612C18.3683 5.10054 18.5 5.41848 18.5 5.75001ZM6.75 19.5C7.08152 19.5 7.39946 19.3683 7.63388 19.1339C7.8683 18.8995 8 18.5815 8 18.25C8 17.9185 7.8683 17.6005 7.63388 17.3661C7.39946 17.1317 7.08152 17 6.75 17C6.41848 17 6.10054 17.1317 5.86612 17.3661C5.6317 17.6005 5.5 17.9185 5.5 18.25C5.5 18.5815 5.6317 18.8995 5.86612 19.1339C6.10054 19.3683 6.41848 19.5 6.75 19.5Z"/>
</svg>
