<svg width="24" height="24" viewBox="0 0 24 24" xmlns="http://www.w3.org/2000/svg">
  <path fill-rule="evenodd" clip-rule="evenodd" d="M3 7.75C3 7.33579 3.33579 7 3.75 7H20.25C20.6642 7 21 7.33579 21 7.75C21 8.16421 20.6642 8.5 20.25 8.5H3.75C3.33579 8.5 3 8.16421 3 7.75ZM3 11.75C3 11.3358 3.33579 11 3.75 11H20.25C20.6642 11 21 11.3358 21 11.75C21 12.1642 20.6642 12.5 20.25 12.5H3.75C3.33579 12.5 3 12.1642 3 11.75ZM3 15.75C3 15.3358 3.33579 15 3.75 15H20.25C20.6642 15 21 15.3358 21 15.75C21 16.1642 20.6642 16.5 20.25 16.5H3.75C3.33579 16.5 3 16.1642 3 15.75Z"/>
</svg>
