<svg width="24" height="24" viewBox="0 0 24 24" xmlns="http://www.w3.org/2000/svg">
  <path fill-rule="evenodd" clip-rule="evenodd" d="M11.7528 3.00001C12.1671 3.00157 12.5016 3.33863 12.5 3.75284L12.4375 20.2528C12.4359 20.6671 12.0989 21.0016 11.6847 21C11.2704 20.9984 10.9359 20.6614 10.9375 20.2472L11 3.74716C11.0016 3.33295 11.3386 2.99844 11.7528 3.00001ZM17.75 7C18.1642 7 18.5 7.33579 18.5 7.75V20.25C18.5 20.6642 18.1642 21 17.75 21C17.3358 21 17 20.6642 17 20.25V7.75C17 7.33579 17.3358 7 17.75 7ZM5.75 11C6.16421 11 6.5 11.3358 6.5 11.75V20.25C6.5 20.6642 6.16421 21 5.75 21C5.33579 21 5 20.6642 5 20.25V11.75C5 11.3358 5.33579 11 5.75 11Z"/>
</svg>
