<svg width="24" height="24" viewBox="0 0 24 24" xmlns="http://www.w3.org/2000/svg">
  <path fill-rule="evenodd" clip-rule="evenodd" d="M7.25 5C5.41421 5 3.5 6.66421 3.5 9C3.5 11.7695 5.57359 14.3251 7.86118 16.2727C8.98201 17.2269 10.1066 17.9947 10.9527 18.5245C11.375 18.7889 11.726 18.9928 11.9699 19.1298C11.9801 19.1356 11.9901 19.1412 12 19.1467C12.0098 19.1412 12.0199 19.1356 12.0301 19.1298C12.274 18.9928 12.625 18.7889 13.0473 18.5245C13.8934 17.9947 15.018 17.2269 16.1388 16.2727C18.4264 14.3251 20.5 11.7695 20.5 9C20.5 6.66421 18.5858 5 16.75 5C14.8879 5 13.3816 6.22683 12.7115 8.23717C12.6094 8.54343 12.3228 8.75 12 8.75C11.6772 8.75 11.3906 8.54343 11.2885 8.23717C10.6184 6.22683 9.11212 5 7.25 5ZM12 20C11.6574 20.6672 11.6572 20.6671 11.6569 20.6669L11.6479 20.6623L11.6251 20.6504C11.6057 20.6402 11.5777 20.6254 11.5418 20.6062C11.4699 20.5676 11.3662 20.5112 11.2352 20.4376C10.9732 20.2904 10.6016 20.0744 10.1567 19.7958C9.26844 19.2397 8.08049 18.4294 6.88882 17.4148C4.5514 15.4249 2 12.4805 2 9C2 5.83579 4.58579 3.5 7.25 3.5C9.30732 3.5 10.9728 4.57857 12 6.23441C13.0272 4.57857 14.6927 3.5 16.75 3.5C19.4142 3.5 22 5.83579 22 9C22 12.4805 19.4486 15.4249 17.1112 17.4148C15.9195 18.4294 14.7316 19.2397 13.8433 19.7958C13.3984 20.0744 13.0268 20.2904 12.7648 20.4376C12.6338 20.5112 12.5301 20.5676 12.4582 20.6062C12.4223 20.6254 12.3943 20.6402 12.3749 20.6504L12.3521 20.6623L12.3431 20.6669C12.3428 20.6671 12.3426 20.6672 12 20ZM12 20L12.3426 20.6672C12.1276 20.7776 11.8724 20.7776 11.6574 20.6672L12 20Z"/>
</svg>
