<svg width="24" height="24" viewBox="0 0 24 24" xmlns="http://www.w3.org/2000/svg">
  <path fill-rule="evenodd" clip-rule="evenodd" d="M12 3.5C7.30558 3.5 3.5 7.30558 3.5 12C3.5 16.6944 7.30558 20.5 12 20.5C16.6944 20.5 20.5 16.6944 20.5 12C20.5 7.30558 16.6944 3.5 12 3.5ZM2 12C2 6.47715 6.47715 2 12 2C17.5228 2 22 6.47715 22 12C22 17.5228 17.5228 22 12 22C6.47715 22 2 17.5228 2 12ZM10 11.75C10 11.3358 10.3358 11 10.75 11H12.25C12.6642 11 13 11.3358 13 11.75V15.5H13.75C14.1642 15.5 14.5 15.8358 14.5 16.25C14.5 16.6642 14.1642 17 13.75 17H10.75C10.3358 17 10 16.6642 10 16.25C10 15.8358 10.3358 15.5 10.75 15.5H11.5V12.5H10.75C10.3358 12.5 10 12.1642 10 11.75ZM12 9C12.5523 9 13 8.55228 13 8C13 7.44772 12.5523 7 12 7C11.4477 7 11 7.44772 11 8C11 8.55228 11.4477 9 12 9Z"/>
</svg>
