<svg width="24" height="24" viewBox="0 0 24 24" xmlns="http://www.w3.org/2000/svg">
  <path fill-rule="evenodd" clip-rule="evenodd" d="M4.787 7.5C5.77441 5.91607 7.25571 4.70118 9.00226 4.04287C10.7488 3.38456 12.6635 3.31943 14.4507 3.85754C16.238 4.39564 17.7984 5.50707 18.8912 7.02024C19.9839 8.53342 20.5482 10.3642 20.497 12.23C20.4944 12.3285 20.5112 12.4265 20.5464 12.5185C20.5817 12.6105 20.6347 12.6947 20.7025 12.7662C20.7703 12.8377 20.8515 12.8951 20.9415 12.9353C21.0315 12.9754 21.1285 12.9974 21.227 13C21.3255 13.0026 21.4235 12.9858 21.5155 12.9506C21.6075 12.9153 21.6917 12.8623 21.7632 12.7945C21.8347 12.7267 21.8921 12.6455 21.9323 12.5555C21.9724 12.4655 21.9944 12.3685 21.997 12.27L22 12C22 6.477 17.523 2 12 2C10.2976 1.9992 8.62326 2.43328 7.13569 3.26107C5.64813 4.08885 4.39667 5.28291 3.5 6.73V4.75C3.5 4.55109 3.42098 4.36032 3.28033 4.21967C3.13968 4.07902 2.94891 4 2.75 4C2.55109 4 2.36032 4.07902 2.21967 4.21967C2.07902 4.36032 2 4.55109 2 4.75V8.25C2 8.664 2.336 9 2.75 9H6.25C6.44891 9 6.63968 8.92098 6.78033 8.78033C6.92098 8.63968 7 8.44891 7 8.25C7 8.05109 6.92098 7.86032 6.78033 7.71967C6.63968 7.57902 6.44891 7.5 6.25 7.5H4.787ZM3.503 11.77C3.50563 11.6715 3.48883 11.5735 3.45356 11.4815C3.4183 11.3895 3.36526 11.3053 3.29747 11.2338C3.22969 11.1623 3.14848 11.1049 3.05849 11.0647C2.9685 11.0246 2.87149 11.0026 2.773 11C2.67451 10.9974 2.57646 11.0142 2.48447 11.0494C2.39247 11.0847 2.30831 11.1377 2.23681 11.2055C2.16531 11.2733 2.10786 11.3545 2.06774 11.4445C2.02763 11.5345 2.00563 11.6315 2.003 11.73L2 12C2 17.523 6.477 22 12 22C13.7024 22.0009 15.3768 21.5669 16.8644 20.7391C18.352 19.9113 19.6034 18.7172 20.5 17.27V19.25C20.5 19.4489 20.579 19.6397 20.7197 19.7803C20.8603 19.921 21.0511 20 21.25 20C21.4489 20 21.6397 19.921 21.7803 19.7803C21.921 19.6397 22 19.4489 22 19.25V15.75C22 15.5511 21.921 15.3603 21.7803 15.2197C21.6397 15.079 21.4489 15 21.25 15H17.75C17.5511 15 17.3603 15.079 17.2197 15.2197C17.079 15.3603 17 15.5511 17 15.75C17 15.9489 17.079 16.1397 17.2197 16.2803C17.3603 16.421 17.5511 16.5 17.75 16.5H19.213C18.2256 18.0839 16.7443 19.2988 14.9977 19.9571C13.2512 20.6154 11.3365 20.6806 9.54926 20.1425C7.76201 19.6044 6.20157 18.4929 5.10882 16.9798C4.01606 15.4666 3.45175 13.6358 3.503 11.77V11.77ZM12 7C12.1989 7 12.3897 7.07902 12.5303 7.21967C12.671 7.36032 12.75 7.55109 12.75 7.75V12.25C12.75 12.4489 12.671 12.6397 12.5303 12.7803C12.3897 12.921 12.1989 13 12 13C11.8011 13 11.6103 12.921 11.4697 12.7803C11.329 12.6397 11.25 12.4489 11.25 12.25V7.75C11.25 7.55109 11.329 7.36032 11.4697 7.21967C11.6103 7.07902 11.8011 7 12 7V7ZM13 16C13 16.2652 12.8946 16.5196 12.7071 16.7071C12.5196 16.8946 12.2652 17 12 17C11.7348 17 11.4804 16.8946 11.2929 16.7071C11.1054 16.5196 11 16.2652 11 16C11 15.7348 11.1054 15.4804 11.2929 15.2929C11.4804 15.1054 11.7348 15 12 15C12.2652 15 12.5196 15.1054 12.7071 15.2929C12.8946 15.4804 13 15.7348 13 16V16Z"/>
</svg>
