<svg width="24" height="24" viewBox="0 0 24 24" xmlns="http://www.w3.org/2000/svg">
  <path fill-rule="evenodd" clip-rule="evenodd" d="M12 20.5C14.2543 20.5 16.4163 19.6045 18.0104 18.0104C19.6045 16.4163 20.5 14.2543 20.5 12C20.5 9.74566 19.6045 7.58365 18.0104 5.98959C16.4163 4.39553 14.2543 3.5 12 3.5C9.74566 3.5 7.58365 4.39553 5.98959 5.98959C4.39553 7.58365 3.5 9.74566 3.5 12C3.5 14.2543 4.39553 16.4163 5.98959 18.0104C7.58365 19.6045 9.74566 20.5 12 20.5ZM12 22C17.523 22 22 17.523 22 12C22 6.477 17.523 2 12 2C6.477 2 2 6.477 2 12C2 17.523 6.477 22 12 22ZM13 16C13 16.2652 12.8946 16.5196 12.7071 16.7071C12.5196 16.8946 12.2652 17 12 17C11.7348 17 11.4804 16.8946 11.2929 16.7071C11.1054 16.5196 11 16.2652 11 16C11 15.7348 11.1054 15.4804 11.2929 15.2929C11.4804 15.1054 11.7348 15 12 15C12.2652 15 12.5196 15.1054 12.7071 15.2929C12.8946 15.4804 13 15.7348 13 16ZM12.75 7.75C12.75 7.55109 12.671 7.36032 12.5303 7.21967C12.3897 7.07902 12.1989 7 12 7C11.8011 7 11.6103 7.07902 11.4697 7.21967C11.329 7.36032 11.25 7.55109 11.25 7.75V12.25C11.25 12.4489 11.329 12.6397 11.4697 12.7803C11.6103 12.921 11.8011 13 12 13C12.1989 13 12.3897 12.921 12.5303 12.7803C12.671 12.6397 12.75 12.4489 12.75 12.25V7.75Z"/>
</svg>
