<svg width="24" height="24" viewBox="0 0 24 24" xmlns="http://www.w3.org/2000/svg">
  <path fill-rule="evenodd" clip-rule="evenodd" d="M12.348 7.41L14.378 5.379C14.9421 4.8239 15.7027 4.51417 16.4941 4.5173C17.2855 4.52043 18.0436 4.83616 18.6033 5.39571C19.163 5.95526 19.4789 6.7133 19.4822 7.50471C19.4855 8.29612 19.176 9.05678 18.621 9.621L15.621 12.621C15.3171 12.9249 14.9514 13.1599 14.5488 13.3102C14.1462 13.4605 13.7159 13.5225 13.2873 13.4921C12.8586 13.4617 12.4414 13.3395 12.064 13.1338C11.6867 12.9281 11.3579 12.6438 11.1 12.3C10.9804 12.1409 10.8025 12.0358 10.6054 12.0078C10.4083 11.9799 10.2081 12.0314 10.049 12.151C9.88987 12.2706 9.78477 12.4485 9.75683 12.6456C9.72889 12.8427 9.78038 13.0429 9.9 13.202C10.2869 13.7177 10.7801 14.1443 11.3462 14.4528C11.9123 14.7613 12.5381 14.9446 13.1812 14.9902C13.8243 15.0358 14.4697 14.9427 15.0737 14.7172C15.6777 14.4916 16.2262 14.1389 16.682 13.683L19.682 10.683C20.1082 10.267 20.4475 9.77065 20.6804 9.22257C20.9133 8.67449 21.0351 8.08564 21.0387 7.49014C21.0423 6.89465 20.9277 6.30435 20.7016 5.75348C20.4754 5.2026 20.1421 4.7021 19.721 4.28098C19.3 3.85986 18.7995 3.5265 18.2487 3.30022C17.6978 3.07394 17.1076 2.95925 16.5121 2.96279C15.9166 2.96632 15.3277 3.08802 14.7796 3.32083C14.2315 3.55363 13.735 3.89291 13.319 4.319L11.289 6.349C11.1523 6.49039 11.0766 6.67981 11.0782 6.87646C11.0799 7.07311 11.1586 7.26125 11.2976 7.40038C11.4366 7.5395 11.6247 7.61846 11.8213 7.62026C12.018 7.62207 12.2075 7.54656 12.349 7.41H12.348ZM5.378 14.379L8.378 11.379C8.68198 11.0748 9.04781 10.8396 9.45069 10.6891C9.85357 10.5387 10.2841 10.4767 10.713 10.5072C11.142 10.5378 11.5593 10.6602 11.9369 10.8661C12.3144 11.0721 12.6432 11.3568 12.901 11.701C13.0206 11.8601 13.1985 11.9652 13.3956 11.9932C13.5927 12.0211 13.7929 11.9696 13.952 11.85C14.1111 11.7304 14.2162 11.5525 14.2442 11.3554C14.2721 11.1583 14.2206 10.9581 14.101 10.799C13.7141 10.2833 13.2209 9.85673 12.6548 9.54822C12.0887 9.23971 11.4629 9.05644 10.8198 9.01083C10.1767 8.96522 9.53127 9.05833 8.92728 9.28385C8.32329 9.50938 7.77482 9.86206 7.319 10.318L4.318 13.318C3.47408 14.1619 2.99997 15.3065 2.99997 16.5C2.99997 17.6935 3.47408 18.8381 4.318 19.682C5.16192 20.5259 6.30652 21 7.5 21C8.69348 21 9.83808 20.5259 10.682 19.682L12.712 17.652C12.8487 17.5106 12.9244 17.3212 12.9228 17.1246C12.9211 16.9279 12.8424 16.7398 12.7034 16.6006C12.5644 16.4615 12.3763 16.3825 12.1796 16.3807C11.983 16.3789 11.7935 16.4544 11.652 16.591L9.622 18.621C9.34429 18.9033 9.01343 19.1279 8.64851 19.2817C8.28358 19.4355 7.89181 19.5156 7.49579 19.5173C7.09978 19.5189 6.70735 19.4421 6.34115 19.2914C5.97495 19.1406 5.64222 18.9188 5.36216 18.6388C5.08209 18.3589 4.86024 18.0262 4.70939 17.66C4.55854 17.2938 4.48168 16.9014 4.48325 16.5054C4.48481 16.1094 4.56477 15.7176 4.71851 15.3526C4.87225 14.9877 5.09673 14.6568 5.379 14.379H5.378Z"/>
</svg>
