<svg width="24" height="24" viewBox="0 0 24 24" xmlns="http://www.w3.org/2000/svg">
  <path fill-rule="evenodd" clip-rule="evenodd" d="M3.75 4.5C2.7835 4.5 2 5.2835 2 6.25V17.75C2 18.7165 2.7835 19.5 3.75 19.5H20.25C21.2165 19.5 22 18.7165 22 17.75V6.25C22 5.2835 21.2165 4.5 20.25 4.5H3.75ZM3.5 6.25C3.5 6.11193 3.61193 6 3.75 6H20.25C20.3881 6 20.5 6.11193 20.5 6.25V6.35157L12.1399 12.0003C12.0554 12.0574 11.9446 12.0574 11.86 12.0003L3.5 6.3516V6.25ZM3.5 8.16191V17.75C3.5 17.8881 3.61193 18 3.75 18H20.25C20.3881 18 20.5 17.8881 20.5 17.75V8.16187L12.9797 13.2431C12.3878 13.6431 11.6122 13.6431 11.0202 13.2431L3.5 8.16191Z"/>
</svg>
