<svg width="24" height="24" viewBox="0 0 24 24" xmlns="http://www.w3.org/2000/svg">
  <path fill-rule="evenodd" clip-rule="evenodd" d="M2 6.75C2 5.7835 2.7835 5 3.75 5H20.25C21.2165 5 22 5.7835 22 6.75V17.25C22 18.2165 21.2165 19 20.25 19H3.75C2.7835 19 2 18.2165 2 17.25V6.75ZM3.75 6.5C3.61193 6.5 3.5 6.61193 3.5 6.75V17.25C3.5 17.3881 3.61193 17.5 3.75 17.5H20.25C20.3881 17.5 20.5 17.3881 20.5 17.25V6.75C20.5 6.61193 20.3881 6.5 20.25 6.5H3.75ZM6 9.75C6 9.33579 6.33579 9 6.75 9H16.25C16.6642 9 17 9.33579 17 9.75C17 10.1642 16.6642 10.5 16.25 10.5H6.75C6.33579 10.5 6 10.1642 6 9.75ZM6.75 12.5C6.33579 12.5 6 12.8358 6 13.25C6 13.6642 6.33579 14 6.75 14H12.25C12.6642 14 13 13.6642 13 13.25C13 12.8358 12.6642 12.5 12.25 12.5H6.75Z"/>
</svg>
