<svg width="24" height="24" viewBox="0 0 24 24" xmlns="http://www.w3.org/2000/svg">
  <path fill-rule="evenodd" clip-rule="evenodd" d="M12.5 9C12.5 10.933 10.933 12.5 9 12.5C7.067 12.5 5.5 10.933 5.5 9C5.5 7.067 7.067 5.5 9 5.5C10.933 5.5 12.5 7.067 12.5 9ZM11.8933 13.0784C13.1682 12.1722 14 10.6833 14 9C14 6.23858 11.7614 4 9 4C6.23858 4 4 6.23858 4 9C4 10.6833 4.83178 12.1723 6.10674 13.0784C3.6454 14.1084 1.85023 16.4131 1.54574 19.1676C1.50023 19.5793 1.79709 19.9499 2.2088 19.9955C2.6205 20.041 2.99115 19.7441 3.03666 19.3324C3.3682 16.3332 5.91214 14 9.00001 14C12.0879 14 14.6318 16.3332 14.9634 19.3324C15.0089 19.7441 15.3795 20.041 15.7912 19.9955C16.2029 19.9499 16.4998 19.5793 16.4543 19.1676C16.1498 16.4131 14.3546 14.1084 11.8933 13.0784ZM16 6.5C15.5858 6.5 15.25 6.83579 15.25 7.25C15.25 7.66421 15.5858 8 16 8C17.3807 8 18.5 9.11929 18.5 10.5C18.5 11.7609 17.5659 12.8048 16.3522 12.9755C15.942 13.0332 15.6562 13.4124 15.7139 13.8226C15.7359 13.979 15.8047 14.1174 15.9041 14.2255C16.0289 14.3885 16.2198 14.4999 16.4406 14.5174C19.0523 14.724 21.152 16.7572 21.4608 19.3391C21.51 19.7503 21.8832 20.0439 22.2945 19.9947C22.7058 19.9455 22.9993 19.5722 22.9502 19.1609C22.643 16.5922 20.946 14.4514 18.6322 13.5118C19.4706 12.7788 20 11.7014 20 10.5C20 8.29086 18.2091 6.5 16 6.5Z"/>
</svg>
