<svg width="24" height="24" viewBox="0 0 24 24" xmlns="http://www.w3.org/2000/svg">
  <path fill-rule="evenodd" clip-rule="evenodd" d="M16 8.5C16 10.7091 14.2091 12.5 12 12.5C9.79086 12.5 8 10.7091 8 8.5C8 6.29086 9.79086 4.5 12 4.5C14.2091 4.5 16 6.29086 16 8.5ZM15.0633 13.0687C16.5329 12.0813 17.5 10.4036 17.5 8.5C17.5 5.46243 15.0376 3 12 3C8.96243 3 6.5 5.46243 6.5 8.5C6.5 10.4036 7.46708 12.0813 8.93674 13.0687C6.00007 14.2036 3.85189 16.9226 3.53925 20.1783C3.49966 20.5906 3.80181 20.957 4.21413 20.9966C4.62645 21.0362 4.99279 20.734 5.03238 20.3217C5.37303 16.7743 8.36297 14 12 14C15.637 14 18.627 16.7743 18.9676 20.3217C19.0072 20.734 19.3735 21.0362 19.7859 20.9966C20.1982 20.957 20.5003 20.5906 20.4607 20.1783C20.1481 16.9226 17.9999 14.2036 15.0633 13.0687Z"/>
</svg>
