<svg width="24" height="24" viewBox="0 0 24 24" xmlns="http://www.w3.org/2000/svg">
  <path fill-rule="evenodd" clip-rule="evenodd" d="M11.75 5C11.9489 5 12.1397 5.07902 12.2803 5.21967C12.421 5.36032 12.5 5.55109 12.5 5.75V11H17.75C17.9489 11 18.1397 11.079 18.2803 11.2197C18.421 11.3603 18.5 11.5511 18.5 11.75C18.5 11.9489 18.421 12.1397 18.2803 12.2803C18.1397 12.421 17.9489 12.5 17.75 12.5H12.5V17.75C12.5 17.9489 12.421 18.1397 12.2803 18.2803C12.1397 18.421 11.9489 18.5 11.75 18.5C11.5511 18.5 11.3603 18.421 11.2197 18.2803C11.079 18.1397 11 17.9489 11 17.75V12.5H5.75C5.55109 12.5 5.36032 12.421 5.21967 12.2803C5.07902 12.1397 5 11.9489 5 11.75C5 11.5511 5.07902 11.3603 5.21967 11.2197C5.36032 11.079 5.55109 11 5.75 11H11V5.75C11 5.55109 11.079 5.36032 11.2197 5.21967C11.3603 5.07902 11.5511 5 11.75 5Z"/>
</svg>
