<svg width="24" height="24" viewBox="0 0 24 24" xmlns="http://www.w3.org/2000/svg">
  <path fill-rule="evenodd" clip-rule="evenodd" d="M19.6161 2C16.9418 2 14.3636 2.99676 12.3848 4.79565L12.3113 4.86251C11.575 5.53184 10.8826 6.24585 10.2376 7H5.60208C4.95387 7 4.35875 7.35831 4.05545 7.9312L2.08716 11.6491C1.98182 11.8481 1.97144 12.0838 2.05889 12.2913C2.14634 12.4988 2.32238 12.656 2.53838 12.7195L6.6292 13.9227C6.66391 13.9687 6.70213 14.0128 6.74381 14.0545L9.94553 17.2562C9.98721 17.2979 10.0313 17.3361 10.0773 17.3708L11.2805 21.4616C11.344 21.6776 11.5012 21.8537 11.7087 21.9411C11.9162 22.0286 12.1519 22.0182 12.3509 21.9128L16.0688 19.9445C16.6417 19.6413 17 19.0461 17 18.3979V13.7624C17.7541 13.1174 18.4682 12.425 19.1375 11.6887L19.2044 11.6152C21.0032 9.63639 22 7.05817 22 4.38393V3.75C22 2.7835 21.2165 2 20.25 2H19.6161ZM15.5 14.9442C14.9021 15.3775 14.2835 15.7832 13.6462 16.1597L11.6343 17.3486L12.4605 20.1576L15.367 18.6189C15.4488 18.5755 15.5 18.4905 15.5 18.3979V14.9442ZM6.65139 12.3657L7.84026 10.3538C8.21683 9.71649 8.62253 9.09795 9.05583 8.5H5.60208C5.50948 8.5 5.42446 8.55119 5.38114 8.63303L3.8424 11.5395L6.65139 12.3657ZM13.3938 5.90556C15.0965 4.35768 17.315 3.5 19.6161 3.5H20.25C20.3881 3.5 20.5 3.61193 20.5 3.75V4.38393C20.5 6.68502 19.6423 8.90349 18.0944 10.6062L18.0276 10.6797C16.5317 12.3252 14.7976 13.7371 12.8831 14.8684L10.8691 16.0585L7.94154 13.1309L9.13165 11.1169C10.2629 9.20237 11.6748 7.46829 13.3203 5.97242L13.3938 5.90556ZM17 8.5C17 9.32843 16.3284 10 15.5 10C14.6716 10 14 9.32843 14 8.5C14 7.67157 14.6716 7 15.5 7C16.3284 7 17 7.67157 17 8.5ZM6.45082 20.201C7.18306 19.4688 7.18306 18.2816 6.45082 17.5494C5.71859 16.8171 4.53141 16.8171 3.79917 17.5494C2.85487 18.4937 2.46788 20.5956 2.35255 21.3824C2.32948 21.5397 2.46025 21.6705 2.61763 21.6474C3.40449 21.5321 5.50666 21.1452 6.45082 20.201Z"/>
</svg>
