<svg width="24" height="24" viewBox="0 0 24 24" xmlns="http://www.w3.org/2000/svg">
  <path fill-rule="evenodd" clip-rule="evenodd" d="M18.5 5.5C18.5 6.60457 17.6046 7.5 16.5 7.5C15.3954 7.5 14.5 6.60457 14.5 5.5C14.5 4.39543 15.3954 3.5 16.5 3.5C17.6046 3.5 18.5 4.39543 18.5 5.5ZM20 5.5C20 7.433 18.433 9 16.5 9C15.4885 9 14.5772 8.57089 13.9382 7.88478L8.82558 10.9059C8.93877 11.2501 9 11.6179 9 12C9 12.382 8.9388 12.7497 8.82568 13.0939L13.9384 16.115C14.5774 15.429 15.4886 15 16.5 15C18.433 15 20 16.567 20 18.5C20 20.433 18.433 22 16.5 22C14.567 22 13 20.433 13 18.5C13 18.1179 13.0612 17.7501 13.1744 17.4059L8.06181 14.3848C7.42283 15.0709 6.51153 15.5 5.5 15.5C3.567 15.5 2 13.933 2 12C2 10.067 3.567 8.5 5.5 8.5C6.51142 8.5 7.42264 8.92901 8.06161 9.61499L13.1743 6.59385C13.0612 6.2497 13 5.882 13 5.5C13 3.567 14.567 2 16.5 2C18.433 2 20 3.567 20 5.5ZM7.5 12C7.5 13.1046 6.60457 14 5.5 14C4.39543 14 3.5 13.1046 3.5 12C3.5 10.8954 4.39543 10 5.5 10C6.60457 10 7.5 10.8954 7.5 12ZM16.5 20.5C17.6046 20.5 18.5 19.6046 18.5 18.5C18.5 17.3954 17.6046 16.5 16.5 16.5C15.3954 16.5 14.5 17.3954 14.5 18.5C14.5 19.6046 15.3954 20.5 16.5 20.5Z"/>
</svg>
