<svg width="24" height="24" viewBox="0 0 24 24" xmlns="http://www.w3.org/2000/svg">
  <path fill-rule="evenodd" clip-rule="evenodd" d="M12.0725 3.55567C12.0252 3.54134 11.9748 3.54134 11.9275 3.55567L4.6775 5.75264C4.57082 5.78496 4.5 5.88158 4.5 5.9904L4.5 11C4.5 13.4031 5.2227 15.3203 6.48358 16.847C7.75398 18.3853 9.60747 19.5706 11.9297 20.4278C11.9746 20.4444 12.0253 20.4444 12.0703 20.4278C14.3925 19.5706 16.246 18.3853 17.5164 16.847C18.7773 15.3203 19.5 13.4031 19.5 11V5.99039C19.5 5.88157 19.4292 5.78497 19.3225 5.75264L12.0725 3.55567ZM11.4925 2.12013C11.8234 2.01985 12.1766 2.01985 12.5075 2.12013L19.7575 4.3171C20.4941 4.54031 21 5.21804 21 5.99039V11C21 13.7306 20.169 15.9908 18.673 17.8022C17.1865 19.6021 15.08 20.9157 12.5897 21.835C12.2095 21.9753 11.7904 21.9753 11.4102 21.835C8.91996 20.9157 6.81347 19.6021 5.32701 17.8022C3.83104 15.9908 3 13.7306 3 11L3 5.9904C3 5.21807 3.50587 4.54032 4.24249 4.3171L11.4925 2.12013ZM13 16C13 16.5523 12.5523 17 12 17C11.4477 17 11 16.5523 11 16C11 15.4477 11.4477 15 12 15C12.5523 15 13 15.4477 13 16ZM12.75 7.75C12.75 7.33579 12.4142 7 12 7C11.5858 7 11.25 7.33579 11.25 7.75V12.25C11.25 12.6642 11.5858 13 12 13C12.4142 13 12.75 12.6642 12.75 12.25V7.75Z"/>
</svg>
