<svg width="24" height="24" viewBox="0 0 24 24" xmlns="http://www.w3.org/2000/svg">
  <path fill-rule="evenodd" clip-rule="evenodd" d="M11.9275 3.55567C11.9748 3.54134 12.0252 3.54134 12.0725 3.55567L19.3225 5.75264C19.4292 5.78497 19.5 5.88157 19.5 5.99039V11C19.5 13.4031 18.7773 15.3203 17.5164 16.847C16.246 18.3853 14.3925 19.5706 12.0703 20.4278C12.0253 20.4444 11.9746 20.4444 11.9297 20.4278C9.60747 19.5706 7.75398 18.3853 6.48358 16.847C5.2227 15.3203 4.5 13.4031 4.5 11L4.5 5.9904C4.5 5.88158 4.57082 5.78496 4.6775 5.75264L11.9275 3.55567ZM12.5075 2.12013C12.1766 2.01985 11.8234 2.01985 11.4925 2.12013L4.24249 4.3171C3.50587 4.54032 3 5.21807 3 5.9904L3 11C3 13.7306 3.83104 15.9908 5.32701 17.8022C6.81347 19.6021 8.91996 20.9157 11.4102 21.835C11.7904 21.9753 12.2095 21.9753 12.5897 21.835C15.08 20.9157 17.1865 19.6021 18.673 17.8022C20.169 15.9908 21 13.7306 21 11V5.99039C21 5.21804 20.4941 4.54031 19.7575 4.3171L12.5075 2.12013ZM9.78033 8.21967C9.48744 7.92678 9.01256 7.92678 8.71967 8.21967C8.42678 8.51256 8.42678 8.98744 8.71967 9.28033L10.9393 11.5L8.71967 13.7197C8.42678 14.0126 8.42678 14.4874 8.71967 14.7803C9.01256 15.0732 9.48744 15.0732 9.78033 14.7803L12 12.5607L14.2197 14.7803C14.5126 15.0732 14.9874 15.0732 15.2803 14.7803C15.5732 14.4874 15.5732 14.0126 15.2803 13.7197L13.0607 11.5L15.2803 9.28033C15.5732 8.98744 15.5732 8.51256 15.2803 8.21967C14.9874 7.92678 14.5126 7.92678 14.2197 8.21967L12 10.4393L9.78033 8.21967Z"/>
</svg>
