<svg width="24" height="24" viewBox="0 0 24 24" xmlns="http://www.w3.org/2000/svg">
  <path fill-rule="evenodd" clip-rule="evenodd" d="M20.5 12C20.5 14.2543 19.6045 16.4163 18.0104 18.0104C16.4163 19.6045 14.2543 20.5 12 20.5C9.74566 20.5 7.58365 19.6045 5.98959 18.0104C4.39553 16.4163 3.5 14.2543 3.5 12C3.5 9.74566 4.39553 7.58365 5.98959 5.98959C7.58365 4.39553 9.74566 3.5 12 3.5C14.2543 3.5 16.4163 4.39553 18.0104 5.98959C19.6045 7.58365 20.5 9.74566 20.5 12ZM22 12C22 17.523 17.523 22 12 22C6.477 22 2 17.523 2 12C2 6.477 6.477 2 12 2C17.523 2 22 6.477 22 12ZM9 11C9.26522 11 9.51957 10.8946 9.70711 10.7071C9.89464 10.5196 10 10.2652 10 10C10 9.73478 9.89464 9.48043 9.70711 9.29289C9.51957 9.10536 9.26522 9 9 9C8.73478 9 8.48043 9.10536 8.29289 9.29289C8.10536 9.48043 8 9.73478 8 10C8 10.2652 8.10536 10.5196 8.29289 10.7071C8.48043 10.8946 8.73478 11 9 11ZM16 10C16 10.2652 15.8946 10.5196 15.7071 10.7071C15.5196 10.8946 15.2652 11 15 11C14.7348 11 14.4804 10.8946 14.2929 10.7071C14.1054 10.5196 14 10.2652 14 10C14 9.73478 14.1054 9.48043 14.2929 9.29289C14.4804 9.10536 14.7348 9 15 9C15.2652 9 15.5196 9.10536 15.7071 9.29289C15.8946 9.48043 16 9.73478 16 10ZM9.35 14.3C9.29091 14.2212 9.21687 14.1548 9.13212 14.1046C9.04737 14.0545 8.95357 14.0215 8.85607 14.0075C8.75856 13.9936 8.65927 13.999 8.56386 14.0235C8.46845 14.0479 8.37879 14.0909 8.3 14.15C8.22121 14.2091 8.15482 14.2831 8.10464 14.3679C8.05446 14.4526 8.02147 14.5464 8.00754 14.6439C7.99361 14.7414 7.99902 14.8407 8.02347 14.9361C8.04791 15.0315 8.0909 15.1212 8.15 15.2C9.07 16.428 10.567 17 12 17C13.433 17 14.93 16.428 15.85 15.2C15.9693 15.0409 16.0206 14.8408 15.9925 14.6439C15.9643 14.447 15.8591 14.2693 15.7 14.15C15.5409 14.0307 15.3408 13.9794 15.1439 14.0075C14.947 14.0357 14.7693 14.1409 14.65 14.3C14.07 15.072 13.067 15.5 12 15.5C10.933 15.5 9.93 15.072 9.35 14.3Z"/>
</svg>
