<svg width="24" height="24" viewBox="0 0 24 24" xmlns="http://www.w3.org/2000/svg">
  <path fill-rule="evenodd" clip-rule="evenodd" d="M12.6724 1.66808C12.5461 1.41207 12.2853 1.25 11.9998 1.25C11.7144 1.25 11.4536 1.41207 11.3273 1.66808L8.56287 7.26941L2.38143 8.16762C2.09892 8.20868 1.86421 8.40656 1.77599 8.67807C1.68777 8.94958 1.76134 9.24763 1.96577 9.44689L6.4387 13.8069L5.38279 19.9634C5.33453 20.2448 5.45019 20.5291 5.68115 20.6969C5.91211 20.8647 6.21831 20.8869 6.471 20.754L11.9998 17.8473L17.5287 20.754C17.7814 20.8869 18.0876 20.8647 18.3185 20.6969C18.5495 20.5291 18.6652 20.2448 18.6169 19.9634L17.561 13.8069L22.0339 9.44689C22.2383 9.24763 22.3119 8.94958 22.2237 8.67807C22.1355 8.40656 21.9008 8.20868 21.6183 8.16762L15.4368 7.26941L12.6724 1.66808Z"/>
</svg>
