<svg width="24" height="24" viewBox="0 0 24 24" xmlns="http://www.w3.org/2000/svg">
  <path fill-rule="evenodd" clip-rule="evenodd" d="M9.5 3.75C9.5 3.6837 9.52634 3.62011 9.57322 3.57322C9.62011 3.52634 9.6837 3.5 9.75 3.5H14.25C14.3163 3.5 14.3799 3.52634 14.4268 3.57322C14.4737 3.62011 14.5 3.6837 14.5 3.75V5H9.5V3.75ZM16 3.75V5H20.25C20.4489 5 20.6397 5.07902 20.7803 5.21967C20.921 5.36032 21 5.55109 21 5.75C21 5.94891 20.921 6.13968 20.7803 6.28033C20.6397 6.42098 20.4489 6.5 20.25 6.5H3.75C3.55109 6.5 3.36032 6.42098 3.21967 6.28033C3.07902 6.13968 3 5.94891 3 5.75C3 5.55109 3.07902 5.36032 3.21967 5.21967C3.36032 5.07902 3.55109 5 3.75 5H8V3.75C8 2.784 8.784 2 9.75 2H14.25C15.216 2 16 2.784 16 3.75ZM6.497 8.685C6.49051 8.58535 6.46418 8.48799 6.41956 8.39865C6.37494 8.30931 6.31293 8.22978 6.23716 8.16472C6.1614 8.09967 6.0734 8.0504 5.97834 8.01981C5.88327 7.98922 5.78306 7.97792 5.68357 7.98658C5.58408 7.99523 5.48733 8.02367 5.39897 8.07022C5.31062 8.11677 5.23246 8.1805 5.16907 8.25766C5.10568 8.33483 5.05833 8.42388 5.02982 8.51958C5.0013 8.61529 4.99218 8.71572 5.003 8.815L5.923 19.402C5.96104 19.8383 6.16126 20.2444 6.48414 20.5403C6.80701 20.8361 7.22908 21.0002 7.667 21H16.333C16.7709 21.0002 17.193 20.8361 17.5159 20.5403C17.8387 20.2444 18.039 19.8383 18.077 19.402L18.997 8.815C19.0097 8.61933 18.9454 8.42644 18.8176 8.27767C18.6899 8.1289 18.509 8.03607 18.3136 8.01907C18.1183 8.00207 17.924 8.06226 17.7725 8.18673C17.621 8.3112 17.5242 8.49007 17.503 8.685L16.583 19.272C16.5775 19.3344 16.5487 19.3925 16.5024 19.4347C16.4561 19.4769 16.3957 19.5002 16.333 19.5H7.667C7.60434 19.5002 7.54387 19.4769 7.49757 19.4347C7.45127 19.3925 7.42251 19.3344 7.417 19.272L6.497 8.685ZM9.721 9.001C9.91962 8.99343 10.1131 9.065 10.259 9.2C10.4049 9.33501 10.4912 9.52239 10.499 9.721L10.749 16.221C10.7499 16.4155 10.6752 16.6027 10.5407 16.7431C10.4062 16.8836 10.2224 16.9663 10.028 16.9738C9.8337 16.9813 9.64405 16.9131 9.49908 16.7835C9.35411 16.6538 9.26517 16.473 9.251 16.279L9 9.779C8.99612 9.68057 9.01166 9.58234 9.04574 9.48992C9.07982 9.3975 9.13178 9.3127 9.19864 9.24036C9.2655 9.16802 9.34596 9.10956 9.43541 9.06832C9.52487 9.02708 9.62157 9.00386 9.72 9L9.721 9.001ZM15 9.779C15.0009 9.58453 14.9262 9.39733 14.7917 9.25688C14.6572 9.11643 14.4733 9.03372 14.279 9.02619C14.0847 9.01867 13.895 9.08692 13.7501 9.21655C13.6051 9.34618 13.5162 9.52705 13.502 9.721L13.252 16.221C13.2447 16.3214 13.2576 16.4222 13.2901 16.5175C13.3225 16.6128 13.3738 16.7005 13.4409 16.7756C13.508 16.8506 13.5895 16.9113 13.6806 16.9542C13.7717 16.9971 13.8704 17.0212 13.971 17.0251C14.0716 17.029 14.1719 17.0126 14.266 16.9769C14.3601 16.9412 14.4461 16.8869 14.5188 16.8173C14.5915 16.7477 14.6494 16.6641 14.6891 16.5717C14.7288 16.4792 14.7495 16.3796 14.75 16.279L15 9.779Z"/>
</svg>
