<svg width="24" height="24" viewBox="0 0 24 24" xmlns="http://www.w3.org/2000/svg">
  <path fill-rule="evenodd" clip-rule="evenodd" d="M11.4697 1.21967C11.7626 0.926777 12.2374 0.926777 12.5303 1.21967L15.7803 4.46967C16.0732 4.76256 16.0732 5.23744 15.7803 5.53033C15.4874 5.82322 15.0126 5.82322 14.7197 5.53033L12.75 3.56066V8.25C12.75 8.66421 12.4142 9 12 9C11.5858 9 11.25 8.66421 11.25 8.25V3.56066L9.28033 5.53033C8.98744 5.82322 8.51256 5.82322 8.21967 5.53033C7.92678 5.23744 7.92678 4.76256 8.21967 4.46967L11.4697 1.21967ZM4.75 11.25C4.33579 11.25 4 11.5858 4 12C4 12.4142 4.33579 12.75 4.75 12.75H19.25C19.6642 12.75 20 12.4142 20 12C20 11.5858 19.6642 11.25 19.25 11.25H4.75ZM14.7197 18.4697L12.75 20.4393V15.75C12.75 15.3358 12.4142 15 12 15C11.5858 15 11.25 15.3358 11.25 15.75V20.4393L9.28033 18.4697C8.98744 18.1768 8.51256 18.1768 8.21967 18.4697C7.92678 18.7626 7.92678 19.2374 8.21967 19.5303L11.4697 22.7803C11.6103 22.921 11.8011 23 12 23C12.1989 23 12.3897 22.921 12.5303 22.7803L15.7803 19.5303C16.0732 19.2374 16.0732 18.7626 15.7803 18.4697C15.4874 18.1768 15.0126 18.1768 14.7197 18.4697Z"/>
</svg>
