<svg width="24" height="24" viewBox="0 0 24 24" xmlns="http://www.w3.org/2000/svg">
  <path fill-rule="evenodd" clip-rule="evenodd" d="M12.001 21.9995C17.5238 21.9995 22.001 17.5224 22.001 11.9995C22.001 6.47666 17.5238 1.99951 12.001 1.99951C6.47813 1.99951 2.00098 6.47666 2.00098 11.9995C2.00098 17.5224 6.47813 21.9995 12.001 21.9995ZM9.28131 8.21918C8.98841 7.92629 8.51354 7.92629 8.22065 8.21918C7.92775 8.51207 7.92775 8.98695 8.22065 9.27984L10.9403 11.9995L8.22065 14.7192C7.92775 15.0121 7.92775 15.4869 8.22065 15.7798C8.51354 16.0727 8.98841 16.0727 9.28131 15.7798L12.001 13.0602L14.7206 15.7798C15.0135 16.0727 15.4884 16.0727 15.7813 15.7798C16.0742 15.4869 16.0742 15.0121 15.7813 14.7192L13.0616 11.9995L15.7813 9.27984C16.0742 8.98695 16.0742 8.51207 15.7813 8.21918C15.4884 7.92629 15.0135 7.92629 14.7206 8.21918L12.001 10.9389L9.28131 8.21918Z"/>
</svg>
