<?xml version="1.0" encoding="UTF-8" standalone="no"?>
<svg width="48px" height="48px" viewBox="0 0 48 48" version="1.1" xmlns="http://www.w3.org/2000/svg" xmlns:xlink="http://www.w3.org/1999/xlink">
    <!-- Generator: Sketch 3.8.3 (29802) - http://www.bohemiancoding.com/sketch -->
    <title>l/alert</title>
    <desc>Created with Sketch.</desc>
    <defs></defs>
    <g id="Octicons" stroke="none" stroke-width="1" fill="none" fill-rule="evenodd">
        <g id="l/alert" fill="#020302">
            <path d="M47.5866801,39.5160785 L27.5925756,5.47806253 C26.4339148,3.50731249 23.5660852,3.50731249 22.4074244,5.47806253 L2.41331994,39.5160785 C1.24601241,41.5040029 2.69001506,44 5.00733666,44 L44.9926633,44 C47.3099849,44 48.7539876,41.5040029 47.5866801,39.5160785 L47.5866801,39.5160785 Z" id="Path" fill-opacity="0.2"></path>
            <path d="M45.5866801,37.5160785 L25.5925756,3.47806253 C24.4339148,1.50731249 21.5660852,1.50731249 20.4074244,3.47806253 L0.413319938,37.5160785 C-0.753987587,39.5040029 0.690015055,42 3.00733666,42 L42.9926633,42 C45.3099849,42 46.7539876,39.5040029 45.5866801,37.5160785 Z M20,14.9994225 C20,13.3428872 21.3465171,12 23,12 C24.6568542,12 26,13.3443507 26,14.9994225 L26,24.0005775 C26,25.6571128 24.6534829,27 23,27 C21.3431458,27 20,25.6556493 20,24.0005775 L20,14.9994225 Z M19.5,33 C19.5,31.0670034 21.0709366,29.5 23,29.5 C24.9329966,29.5 26.5,31.0709366 26.5,33 C26.5,34.9329966 24.9290634,36.5 23,36.5 C21.0670034,36.5 19.5,34.9290634 19.5,33 Z" id="Combined-Shape"></path>
        </g>
    </g>
</svg>