<?xml version="1.0" encoding="UTF-8" standalone="no"?>
<svg width="30px" height="48px" viewBox="0 0 30 48" version="1.1" xmlns="http://www.w3.org/2000/svg" xmlns:xlink="http://www.w3.org/1999/xlink">
    <!-- Generator: Sketch 3.8.3 (29802) - http://www.bohemiancoding.com/sketch -->
    <title>l/arrow-left</title>
    <desc>Created with Sketch.</desc>
    <defs></defs>
    <g id="Octicons" stroke="none" stroke-width="1" fill="none" fill-rule="evenodd">
        <g id="l/arrow-left" fill="#020302">
            <path d="M18.0029999,31.9967208 L28.0029999,31.9967208 C29.1079999,31.9967208 30.0029999,31.1017208 30.0029999,29.9967208 L30.0029999,21.9967208 C30.0029999,20.8917208 29.1079999,19.9967208 28.0029999,19.9967208 L18.0029999,19.9967208 L18.0029999,15.9637208 C18.0029999,14.4167208 16.1819999,13.5907208 15.0179999,14.6087208 L3.7849999,23.1287208 C1.8849999,24.5687208 1.8849999,27.4247208 3.7849999,28.8647208 L15.0179999,37.3847208 C16.1819999,38.4027208 18.0029999,37.5767208 18.0029999,36.0297208 L18.0029999,31.9967208 Z" id="Shadow" opacity="0.2"></path>
            <path d="M16.0027,29.9967208 L26.0027,29.9967208 C27.1077,29.9967208 28.0027,29.1017208 28.0027,27.9967208 L28.0027,19.9967208 C28.0027,18.8917208 27.1077,17.9967208 26.0027,17.9967208 L16.0027,17.9967208 L16.0027,13.9637208 C16.0027,12.4167208 14.1817,11.5907208 13.0177,12.6087208 L1.78470001,21.1287208 C-0.115299986,22.5687208 -0.115299986,25.4247208 1.78470001,26.8647208 L13.0177,35.3847208 C14.1817,36.4027208 16.0027,35.5767208 16.0027,34.0297208 L16.0027,29.9967208 Z" id="Shape"></path>
        </g>
    </g>
</svg>