<?xml version="1.0" encoding="UTF-8" standalone="no"?>
<svg width="30px" height="48px" viewBox="0 0 30 48" version="1.1" xmlns="http://www.w3.org/2000/svg" xmlns:xlink="http://www.w3.org/1999/xlink">
    <!-- Generator: Sketch 3.8.3 (29802) - http://www.bohemiancoding.com/sketch -->
    <title>l/arrow-down</title>
    <desc>Created with Sketch.</desc>
    <defs></defs>
    <g id="Octicons" stroke="none" stroke-width="1" fill="none" fill-rule="evenodd">
        <g id="l/arrow-down" fill="#020302">
            <path d="M23.0007,23 L23.0007,13 C23.0007,11.895 22.1057,11 21.0007,11 L13.0007,11 C11.8957,11 11.0007,11.895 11.0007,13 L11.0007,23 L5.84369996,23 C4.31769996,23 3.48369996,24.78 4.46069996,25.952 L14.2347,37.681 C15.6747,39.408 18.3267,39.408 19.7667,37.681 L29.5407,25.952 C30.5177,24.78 29.6837,23 28.1577,23 L23.0007,23 Z" id="Shadow" opacity="0.2"></path>
            <path d="M21.0004,21 L21.0004,11 C21.0004,9.895 20.1054,9 19.0004,9 L11.0004,9 C9.89539996,9 9.00039996,9.895 9.00039996,11 L9.00039996,21 L3.84339996,21 C2.31739996,21 1.48339996,22.78 2.46039996,23.952 L12.2344,35.681 C13.6744,37.408 16.3264,37.408 17.7664,35.681 L27.5404,23.952 C28.5174,22.78 27.6834,21 26.1574,21 L21.0004,21 Z" id="Shape"></path>
        </g>
    </g>
</svg>