<?xml version="1.0" encoding="UTF-8" standalone="no"?>
<svg width="30px" height="48px" viewBox="0 0 30 48" version="1.1" xmlns="http://www.w3.org/2000/svg" xmlns:xlink="http://www.w3.org/1999/xlink">
    <!-- Generator: Sketch 3.8.3 (29802) - http://www.bohemiancoding.com/sketch -->
    <title>l/arrow-right</title>
    <desc>Created with Sketch.</desc>
    <defs></defs>
    <g id="Octicons" stroke="none" stroke-width="1" fill="none" fill-rule="evenodd">
        <g id="l/arrow-right" fill="#020302">
            <path d="M17.643,31.7475761 L27.643,31.7475761 C28.748,31.7475761 29.643,30.8149002 29.643,29.663384 L29.643,21.3266157 C29.643,20.1750996 28.748,19.2424237 27.643,19.2424237 L17.643,19.2424237 L17.643,15.0396503 C17.643,13.4275278 15.822,12.5667564 14.658,13.6276102 L3.425,22.5062684 C1.525,24.0068867 1.525,26.983113 3.425,28.4837313 L14.658,37.3623896 C15.822,38.4232433 17.643,37.562472 17.643,35.9503494 L17.643,31.7475761 Z" id="Shadow" opacity="0.2" transform="translate(15.821500, 25.495000) scale(-1, 1) translate(-15.821500, -25.495000) "></path>
            <path d="M15.643,29.9967208 L25.643,29.9967208 C26.748,29.9967208 27.643,29.1017208 27.643,27.9967208 L27.643,19.9967208 C27.643,18.8917208 26.748,17.9967208 25.643,17.9967208 L15.643,17.9967208 L15.643,13.9637208 C15.643,12.4167208 13.822,11.5907208 12.658,12.6087208 L1.425,21.1287208 C-0.475,22.5687208 -0.475,25.4247208 1.425,26.8647208 L12.658,35.3847208 C13.822,36.4027208 15.643,35.5767208 15.643,34.0297208 L15.643,29.9967208 Z" id="Shape" transform="translate(13.821500, 23.996721) scale(-1, 1) translate(-13.821500, -23.996721) "></path>
        </g>
    </g>
</svg>