<?xml version="1.0" encoding="UTF-8" standalone="no"?>
<svg width="30px" height="48px" viewBox="0 0 30 48" version="1.1" xmlns="http://www.w3.org/2000/svg" xmlns:xlink="http://www.w3.org/1999/xlink">
    <!-- Generator: Sketch 3.8.3 (29802) - http://www.bohemiancoding.com/sketch -->
    <title>l/arrow-up</title>
    <desc>Created with Sketch.</desc>
    <defs></defs>
    <g id="Octicons" stroke="none" stroke-width="1" fill="none" fill-rule="evenodd">
        <g id="l/arrow-up" fill="#020302">
            <path d="M23.0007,25 L23.0007,15 C23.0007,13.895 22.1057,13 21.0007,13 L13.0007,13 C11.8957,13 11.0007,13.895 11.0007,15 L11.0007,25 L5.84369996,25 C4.31769996,25 3.48369996,26.78 4.46069996,27.952 L14.2347,39.681 C15.6747,41.408 18.3267,41.408 19.7667,39.681 L29.5407,27.952 C30.5177,26.78 29.6837,25 28.1577,25 L23.0007,25 Z" id="Shadow" opacity="0.2" transform="translate(17.000700, 26.988125) scale(1, -1) translate(-17.000700, -26.988125) "></path>
            <path d="M21.0004,23 L21.0004,13 C21.0004,11.895 20.1054,11 19.0004,11 L11.0004,11 C9.89539996,11 9.00039996,11.895 9.00039996,13 L9.00039996,23 L3.84339996,23 C2.31739996,23 1.48339996,24.78 2.46039996,25.952 L12.2344,37.681 C13.6744,39.408 16.3264,39.408 17.7664,37.681 L27.5404,25.952 C28.5174,24.78 27.6834,23 26.1574,23 L21.0004,23 Z" id="Shape" transform="translate(15.000400, 24.988125) scale(1, -1) translate(-15.000400, -24.988125) "></path>
        </g>
    </g>
</svg>