<svg width="16" height="16" viewBox="0 0 16 16" fill="none" xmlns="http://www.w3.org/2000/svg">
<path fill-rule="evenodd" clip-rule="evenodd" d="M10.628 7.24999C10.9369 6.3761 11.7703 5.75 12.75 5.75C13.9926 5.75 15 6.75736 15 8C15 9.24264 13.9926 10.25 12.75 10.25C11.7703 10.25 10.9369 9.62389 10.628 8.74999H8.62197C8.3131 9.62389 7.47967 10.25 6.5 10.25C6.36661 10.25 6.23593 10.2384 6.10891 10.2161L5.03046 12.1242C5.32483 12.5045 5.5 12.9818 5.5 13.5C5.5 14.7426 4.49264 15.75 3.25 15.75C2.00736 15.75 1 14.7426 1 13.5C1 12.2574 2.00736 11.25 3.25 11.25C3.42816 11.25 3.60149 11.2707 3.7677 11.3098L4.80325 9.47773C4.45868 9.08242 4.25 8.56558 4.25 8C4.25 7.43441 4.45868 6.91757 4.80325 6.52226L3.76771 4.69015C3.60149 4.72929 3.42817 4.75 3.25 4.75C2.00736 4.75 1 3.74264 1 2.5C1 1.25736 2.00736 0.25 3.25 0.25C4.49264 0.25 5.5 1.25736 5.5 2.5C5.5 3.01819 5.32483 3.49546 5.03047 3.87583L6.10892 5.78387C6.23593 5.76161 6.36661 5.75 6.5 5.75C7.47966 5.75 8.31309 6.3761 8.62197 7.24999L10.628 7.24999ZM12.75 7.25C12.3358 7.25 12 7.58579 12 8C12 8.41421 12.3358 8.75 12.75 8.75C13.1642 8.75 13.5 8.41421 13.5 8C13.5 7.58579 13.1642 7.25 12.75 7.25ZM2.5 2.5C2.5 2.08579 2.83579 1.75 3.25 1.75C3.66421 1.75 4 2.08579 4 2.5C4 2.91421 3.66421 3.25 3.25 3.25C2.83579 3.25 2.5 2.91421 2.5 2.5ZM3.25 12.75C2.83579 12.75 2.5 13.0858 2.5 13.5C2.5 13.9142 2.83579 14.25 3.25 14.25C3.66421 14.25 4 13.9142 4 13.5C4 13.0858 3.66421 12.75 3.25 12.75ZM6.5 7.25C6.08579 7.25 5.75 7.58579 5.75 8C5.75 8.41421 6.08579 8.75 6.5 8.75C6.91421 8.75 7.25 8.41421 7.25 8C7.25 7.58579 6.91421 7.25 6.5 7.25Z" fill="black"/>
</svg>
