<svg width="24" height="24" viewBox="0 0 24 24" fill="none" xmlns="http://www.w3.org/2000/svg">
<path fill-rule="evenodd" clip-rule="evenodd" d="M19.375 8.5C17.8382 8.5 16.5506 9.56665 16.212 11H13.0932C12.6715 9.69437 11.446 8.75 10 8.75C9.65248 8.75 9.3177 8.80454 9.00376 8.90554L7.40104 6.06995C8.00212 5.48017 8.375 4.65863 8.375 3.75C8.375 1.95507 6.91993 0.5 5.125 0.5C3.33007 0.5 1.875 1.95507 1.875 3.75C1.875 5.54493 3.33007 7 5.125 7C5.47081 7 5.80401 6.94599 6.11662 6.84595L7.72045 9.6835C7.12143 10.273 6.75 11.0931 6.75 12C6.75 12.8142 7.04937 13.5584 7.54403 14.1286L5.87229 17.0863C5.63235 17.0299 5.38217 17 5.125 17C3.33007 17 1.875 18.4551 1.875 20.25C1.875 22.0449 3.33007 23.5 5.125 23.5C6.91993 23.5 8.375 22.0449 8.375 20.25C8.375 19.2506 7.92393 18.3566 7.21429 17.7604L8.76947 15.009C9.14902 15.1643 9.56451 15.25 10 15.25C11.6249 15.25 12.9713 14.0575 13.2118 12.5H16.212C16.5505 13.9333 17.8382 15 19.375 15C21.1699 15 22.625 13.5449 22.625 11.75C22.625 9.95507 21.1699 8.5 19.375 8.5ZM17.625 11.75C17.625 10.7835 18.4085 10 19.375 10C20.3415 10 21.125 10.7835 21.125 11.75C21.125 12.7165 20.3415 13.5 19.375 13.5C18.4085 13.5 17.625 12.7165 17.625 11.75ZM5.125 2C4.1585 2 3.375 2.7835 3.375 3.75C3.375 4.7165 4.1585 5.5 5.125 5.5C6.0915 5.5 6.875 4.7165 6.875 3.75C6.875 2.7835 6.0915 2 5.125 2ZM3.375 20.25C3.375 19.2835 4.1585 18.5 5.125 18.5C6.0915 18.5 6.875 19.2835 6.875 20.25C6.875 21.2165 6.0915 22 5.125 22C4.1585 22 3.375 21.2165 3.375 20.25ZM10 10.25C9.0335 10.25 8.25 11.0335 8.25 12C8.25 12.9665 9.0335 13.75 10 13.75C10.9665 13.75 11.75 12.9665 11.75 12C11.75 11.0335 10.9665 10.25 10 10.25Z" fill="black"/>
</svg>
