<svg xmlns="http://www.w3.org/2000/svg" width="16" height="16" viewBox="0 0 16 16">
  <defs/>
  <path d="M6.457,1.047 C7.116,-0.187 8.884,-0.187 9.543,1.047 L15.625,12.425 C15.915,12.967 15.899,13.622 15.583,14.15 C15.267,14.677 14.697,15 14.082,15 L1.918,15 C1.303,15 0.733,14.677 0.417,14.15 C0.101,13.622 0.085,12.967 0.375,12.425 Z M8,5 C7.586,5 7.25,5.336 7.25,5.75 L7.25,8.25 C7.25,8.664 7.586,9 8,9 C8.414,9 8.75,8.664 8.75,8.25 L8.75,5.75 C8.75,5.336 8.414,5 8,5 Z M9,11 C9,10.448 8.552,10 8,10 C7.448,10 7,10.448 7,11 C7,11.552 7.448,12 8,12 C8.552,12 9,11.552 9,11 Z"/>
</svg>

