<svg width="16" height="16" viewBox="0 0 16 16" fill="none" xmlns="http://www.w3.org/2000/svg">
<path fill-rule="evenodd" clip-rule="evenodd" d="M6.45662 1.04653C7.11588 -0.186917 8.88412 -0.18692 9.54338 1.04653L15.625 12.4251C16.2481 13.5908 15.4034 15 14.0816 15H1.91836C0.596556 15 -0.248091 13.5908 0.374976 12.4251L6.45662 1.04653ZM8 5C8.41421 5 8.75 5.33579 8.75 5.75V8.25C8.75 8.66421 8.41421 9 8 9C7.58579 9 7.25 8.66421 7.25 8.25V5.75C7.25 5.33579 7.58579 5 8 5ZM9 11C9 11.5523 8.55228 12 8 12C7.44772 12 7 11.5523 7 11C7 10.4477 7.44772 10 8 10C8.55228 10 9 10.4477 9 11Z" fill="black"/>
</svg>
