<svg xmlns="http://www.w3.org/2000/svg" width="16" height="16" viewBox="0 0 16 16">
  <defs/>
  <path d="M6.457,1.047 C7.116,-0.187 8.884,-0.187 9.543,1.047 L15.625,12.425 C15.915,12.967 15.899,13.622 15.583,14.15 C15.267,14.677 14.697,15 14.082,15 L1.918,15 C1.303,15 0.733,14.677 0.417,14.15 C0.101,13.622 0.085,12.967 0.375,12.425 Z M8.22,1.754 C8.176,1.673 8.092,1.623 8,1.623 C7.908,1.623 7.824,1.673 7.78,1.754 L1.698,13.132 C1.657,13.209 1.659,13.303 1.704,13.378 C1.749,13.454 1.83,13.5 1.918,13.5 L14.082,13.5 C14.17,13.5 14.251,13.454 14.296,13.378 C14.341,13.303 14.343,13.209 14.302,13.132 Z M8.75,5.75 L8.75,8.25 C8.75,8.664 8.414,9 8,9 C7.586,9 7.25,8.664 7.25,8.25 L7.25,5.75 C7.25,5.336 7.586,5 8,5 C8.414,5 8.75,5.336 8.75,5.75 Z M9,11 C9,11.552 8.552,12 8,12 C7.448,12 7,11.552 7,11 C7,10.448 7.448,10 8,10 C8.552,10 9,10.448 9,11 Z"/>
</svg>

