<svg xmlns="http://www.w3.org/2000/svg" width="16" height="16" viewBox="0 0 16 16"><path fill-rule="evenodd" d="M1.5 3.25c0-.966.784-1.75 1.75-1.75h2.5c.966 0 1.75.784 1.75 1.75v2.5A1.75 1.75 0 015.75 7.5h-2.5A1.75 1.75 0 011.5 5.75v-2.5zM3.25 3a.25.25 0 00-.25.25v2.5c0 .138.112.25.25.25h2.5A.25.25 0 006 5.75v-2.5A.25.25 0 005.75 3h-2.5zM1.5 10.25c0-.966.784-1.75 1.75-1.75h2.5c.966 0 1.75.784 1.75 1.75v2.5a1.75 1.75 0 01-1.75 1.75h-2.5a1.75 1.75 0 01-1.75-1.75v-2.5zM3.25 10a.25.25 0 00-.25.25v2.5c0 .138.112.25.25.25h2.5a.25.25 0 00.25-.25v-2.5a.25.25 0 00-.25-.25h-2.5zM8.5 3.25c0-.966.784-1.75 1.75-1.75h2.5c.966 0 1.75.784 1.75 1.75v2.5a1.75 1.75 0 01-1.75 1.75h-2.5A1.75 1.75 0 018.5 5.75v-2.5zM10.25 3a.25.25 0 00-.25.25v2.5c0 .138.112.25.25.25h2.5a.25.25 0 00.25-.25v-2.5a.25.25 0 00-.25-.25h-2.5zM8.5 10.25c0-.966.784-1.75 1.75-1.75h2.5c.966 0 1.75.784 1.75 1.75v2.5a1.75 1.75 0 01-1.75 1.75h-2.5a1.75 1.75 0 01-1.75-1.75v-2.5zm1.75-.25a.25.25 0 00-.25.25v2.5c0 .138.112.25.25.25h2.5a.25.25 0 00.25-.25v-2.5a.25.25 0 00-.25-.25h-2.5z"/></svg>