<svg xmlns="http://www.w3.org/2000/svg" width="16" height="16" viewBox="0 0 16 16"><path fill-rule="evenodd" clip-rule="evenodd" d="M2.75 7.25C1.78 7.25 1 6.47 1 5.5V3.25c0-.97.78-1.75 1.75-1.75h2.5C6.22 1.5 7 2.28 7 3.25V5.5c0 .97-.78 1.75-1.75 1.75h-2.5ZM2.5 5.5V3.25c0-.14.11-.25.25-.25h2.5c.14 0 .25.11.25.25V5.5c0 .14-.11.25-.25.25h-2.5a.25.25 0 0 1-.25-.25ZM10.75 7.25C9.78 7.25 9 6.47 9 5.5V3.25c0-.97.78-1.75 1.75-1.75h2.5c.97 0 1.75.78 1.75 1.75V5.5c0 .97-.78 1.75-1.75 1.75h-2.5ZM10.5 5.5V3.25c0-.14.11-.25.25-.25h2.5c.14 0 .25.11.25.25V5.5c0 .14-.11.25-.25.25h-2.5a.25.25 0 0 1-.25-.25ZM2.75 14.5c-.97 0-1.75-.78-1.75-1.75V10.5c0-.97.78-1.75 1.75-1.75h2.5c.97 0 1.75.78 1.75 1.75v2.25c0 .97-.78 1.75-1.75 1.75h-2.5Zm-.25-1.75V10.5c0-.14.11-.25.25-.25h2.5c.14 0 .25.11.25.25v2.25c0 .14-.11.25-.25.25h-2.5a.25.25 0 0 1-.25-.25ZM10.75 14.5c-.97 0-1.75-.78-1.75-1.75V10.5c0-.97.78-1.75 1.75-1.75h2.5c.97 0 1.75.78 1.75 1.75v2.25c0 .97-.78 1.75-1.75 1.75h-2.5Zm-.25-1.75V10.5c0-.14.11-.25.25-.25h2.5c.14 0 .25.11.25.25v2.25c0 .14-.11.25-.25.25h-2.5a.25.25 0 0 1-.25-.25Z"/></svg>
