<svg xmlns="http://www.w3.org/2000/svg" width="16" height="16" viewBox="0 0 16 16"><path d="M1.5 3.25c0-.966.784-1.75 1.75-1.75h2.5c.966 0 1.75.784 1.75 1.75v2.5A1.75 1.75 0 015.75 7.5h-2.5A1.75 1.75 0 011.5 5.75zm7 0c0-.966.784-1.75 1.75-1.75h2.5c.966 0 1.75.784 1.75 1.75v2.5a1.75 1.75 0 01-1.75 1.75h-2.5A1.75 1.75 0 018.5 5.75zm-7 7c0-.966.784-1.75 1.75-1.75h2.5c.966 0 1.75.784 1.75 1.75v2.5a1.75 1.75 0 01-1.75 1.75h-2.5a1.75 1.75 0 01-1.75-1.75zm7 0c0-.966.784-1.75 1.75-1.75h2.5c.966 0 1.75.784 1.75 1.75v2.5a1.75 1.75 0 01-1.75 1.75h-2.5a1.75 1.75 0 01-1.75-1.75zM3.25 3a.25.25 0 00-.25.25v2.5c0 .138.112.25.25.25h2.5A.25.25 0 006 5.75v-2.5A.25.25 0 005.75 3zm7 0a.25.25 0 00-.25.25v2.5c0 .138.112.25.25.25h2.5a.25.25 0 00.25-.25v-2.5a.25.25 0 00-.25-.25zm-7 7a.25.25 0 00-.25.25v2.5c0 .138.112.25.25.25h2.5a.25.25 0 00.25-.25v-2.5a.25.25 0 00-.25-.25zm7 0a.25.25 0 00-.25.25v2.5c0 .138.112.25.25.25h2.5a.25.25 0 00.25-.25v-2.5a.25.25 0 00-.25-.25z"/></svg>