<svg width="24" height="24" viewBox="0 0 24 24" xmlns="http://www.w3.org/2000/svg">
  <path fill-rule="evenodd" clip-rule="evenodd" d="M20.25 4.5H3.75C3.6837 4.5 3.62011 4.52634 3.57322 4.57322C3.52634 4.62011 3.5 4.6837 3.5 4.75V7.25C3.5 7.388 3.612 7.5 3.75 7.5H20.25C20.3163 7.5 20.3799 7.47366 20.4268 7.42678C20.4737 7.37989 20.5 7.3163 20.5 7.25V4.75C20.5 4.6837 20.4737 4.62011 20.4268 4.57322C20.3799 4.52634 20.3163 4.5 20.25 4.5ZM3.75 3C3.28587 3 2.84075 3.18437 2.51256 3.51256C2.18437 3.84075 2 4.28587 2 4.75V7.25C2 8.216 2.784 9 3.75 9H20.25C20.7141 9 21.1592 8.81563 21.4874 8.48744C21.8156 8.15925 22 7.71413 22 7.25V4.75C22 4.28587 21.8156 3.84075 21.4874 3.51256C21.1592 3.18437 20.7141 3 20.25 3H3.75ZM3.75 10C3.94891 10 4.13968 10.079 4.28033 10.2197C4.42098 10.3603 4.5 10.5511 4.5 10.75V19.25C4.5 19.388 4.612 19.5 4.75 19.5H19.25C19.3163 19.5 19.3799 19.4737 19.4268 19.4268C19.4737 19.3799 19.5 19.3163 19.5 19.25V10.75C19.5 10.5511 19.579 10.3603 19.7197 10.2197C19.8603 10.079 20.0511 10 20.25 10C20.4489 10 20.6397 10.079 20.7803 10.2197C20.921 10.3603 21 10.5511 21 10.75V19.25C21 19.7141 20.8156 20.1592 20.4874 20.4874C20.1592 20.8156 19.7141 21 19.25 21H4.75C4.28587 21 3.84075 20.8156 3.51256 20.4874C3.18437 20.1592 3 19.7141 3 19.25V10.75C3 10.5511 3.07902 10.3603 3.21967 10.2197C3.36032 10.079 3.55109 10 3.75 10ZM9.75 11C9.55109 11 9.36032 11.079 9.21967 11.2197C9.07902 11.3603 9 11.5511 9 11.75C9 11.9489 9.07902 12.1397 9.21967 12.2803C9.36032 12.421 9.55109 12.5 9.75 12.5H14.25C14.4489 12.5 14.6397 12.421 14.7803 12.2803C14.921 12.1397 15 11.9489 15 11.75C15 11.5511 14.921 11.3603 14.7803 11.2197C14.6397 11.079 14.4489 11 14.25 11H9.75Z"/>
</svg>
