<svg xmlns="http://www.w3.org/2000/svg" width="24" height="24" viewBox="0 0 24 24">
  <defs/>
  <path d="M2.75,2 L21.25,2 C22.216,2 23,2.784 23,3.75 L23,7.25 C23,8.216 22.216,9 21.25,9 L2.75,9 C1.784,9 1,8.216 1,7.25 L1,3.75 C1,2.784 1.784,2 2.75,2 Z M21.25,3.5 L2.75,3.5 C2.612,3.5 2.5,3.612 2.5,3.75 L2.5,7.25 C2.5,7.388 2.612,7.5 2.75,7.5 L21.25,7.5 C21.388,7.5 21.5,7.388 21.5,7.25 L21.5,3.75 C21.5,3.612 21.388,3.5 21.25,3.5 Z"/>
  <path d="M2.75,10 A0.75 0.75 0 0 1 3.5,10.75 L3.5,20.25 C3.5,20.388 3.612,20.5 3.75,20.5 L20.25,20.5 A0.25 0.25 0 0 0 20.5,20.25 L20.5,10.75 A0.75 0.75 0 0 1 22,10.75 L22,20.25 A1.75 1.75 0 0 1 20.25,22 L3.75,22 A1.75 1.75 0 0 1 2,20.25 L2,10.75 A0.75 0.75 0 0 1 2.75,10 Z"/>
  <path d="M9.75,11.5 A0.75 0.75 0 0 0 9.75,13 L14.25,13 A0.75 0.75 0 0 0 14.25,11.5 L9.75,11.5 Z"/>
</svg>

