<svg xmlns="http://www.w3.org/2000/svg" width="16" height="16" viewBox="0 0 16 16">
  <defs/>
  <path d="M0,2.75 C0,1.784 0.784,1 1.75,1 L14.25,1 C15.216,1 16,1.784 16,2.75 L16,4.25 C16,5.216 15.216,6 14.25,6 L1.75,6 C0.784,6 0,5.216 0,4.25 Z M1.75,7 C2.164,7 2.5,7.336 2.5,7.75 L2.5,13.25 C2.5,13.388 2.612,13.5 2.75,13.5 L13.25,13.5 C13.388,13.5 13.5,13.388 13.5,13.25 L13.5,7.75 C13.5,7.336 13.836,7 14.25,7 C14.664,7 15,7.336 15,7.75 L15,13.25 C15,14.216 14.216,15 13.25,15 L2.75,15 C1.784,15 1,14.216 1,13.25 L1,7.75 C1,7.336 1.336,7 1.75,7 Z M1.75,2.5 C1.612,2.5 1.5,2.612 1.5,2.75 L1.5,4.25 C1.5,4.388 1.612,4.5 1.75,4.5 L14.25,4.5 C14.388,4.5 14.5,4.388 14.5,4.25 L14.5,2.75 C14.5,2.612 14.388,2.5 14.25,2.5 Z M6.25,8 L9.75,8 C10.164,8 10.5,8.336 10.5,8.75 C10.5,9.164 10.164,9.5 9.75,9.5 L6.25,9.5 C5.836,9.5 5.5,9.164 5.5,8.75 C5.5,8.336 5.836,8 6.25,8 Z"/>
</svg>

