<svg xmlns="http://www.w3.org/2000/svg" width="16" height="16" viewBox="0 0 16 16"><path fill-rule="evenodd" d="M7.25 1.5A1.75 1.75 0 005.5 3.254V11.5c0 .797.317 1.562.88 2.126.563.562 1.32.874 2.12.874.802 0 1.572-.314 2.132-.874s.868-1.322.868-2.126V3.75a.75.75 0 011.5 0v7.75a4.494 4.494 0 01-1.307 3.187A4.515 4.515 0 018.5 16a4.485 4.485 0 01-3.18-1.313A4.506 4.506 0 014 11.5V3.254a3.25 3.25 0 015.551-2.3c.61.61.953 1.437.953 2.3L10.5 11.5c0 .522-.2 1.038-.582 1.42a2 2 0 01-1.418.58 1.991 1.991 0 01-2-2V3.75a.75.75 0 111.5 0v7.75a.491.491 0 00.5.5c.145 0 .27-.054.357-.14A.509.509 0 009 11.5l.004-8.246A1.755 1.755 0 007.25 1.5z"/></svg>