<svg xmlns="http://www.w3.org/2000/svg" width="24" height="24" viewBox="0 0 24 24"><path fill-rule="evenodd" d="M11.25 1.5A2.75 2.75 0 008.5 4.25V18a4.5 4.5 0 109 0V5.75a.75.75 0 011.5 0V18a6 6 0 01-12 0V4.25a4.25 4.25 0 018.5 0v13c0 .688-.264 1.366-.764 1.865-.5.5-1.176.76-1.861.76-.277 0-.571-.094-.818-.21a2.824 2.824 0 01-.787-.55 2.644 2.644 0 01-.77-1.865V5.75a.75.75 0 011.5 0v11.5c0 .302.12.595.33.804a1.324 1.324 0 00.519.313.42.42 0 00.037.008 1.13 1.13 0 00.79-.32c.205-.206.324-.497.324-.805v-13a2.75 2.75 0 00-2.75-2.75z"/></svg>