<svg xmlns="http://www.w3.org/2000/svg" width="16" height="16" viewBox="0 0 16 16"><path d="M5.502.434h5.019c.239 0 .472.075.667.214.194.14.339.337.416.563L15.94 14.06c.039.117.06.239.06.361v.009a1.135 1.135 0 0 1-.621 1.011c-.161.083-.34.126-.521.126H9.963v-.004a1.13 1.13 0 0 1-.102.004h-.019c-.245 0-.484-.079-.681-.225l-3.19-2.37-.614 1.818a1.137 1.137 0 0 1-1.082.778H1.142a1.15 1.15 0 0 1-.928-.477A1.123 1.123 0 0 1 0 14.425c0-.124.02-.247.06-.365L4.397 1.211A1.136 1.136 0 0 1 5.479.434Zm9.356 14.276a.28.28 0 0 0 .13-.031.285.285 0 0 0 .14-.345L10.792 1.485a.288.288 0 0 0-.271-.195H6.634l4.309 12.77c.072.21.081.436.025.65Zm-9.796-3.481 4.61 3.425a.282.282 0 0 0 .17.056h.019a.287.287 0 0 0 .283-.243.3.3 0 0 0-.012-.133L7.796 7.413l-.934 2.419-.106.274h-3.19Z"/></svg>