<svg xmlns="http://www.w3.org/2000/svg" width="24" height="24" viewBox="0 0 24 24">
  <defs/>
  <path d="M8,8.807 L8,3.5 L7.437,3.5 C7.023,3.5 6.687,3.164 6.687,2.75 C6.687,2.336 7.023,2 7.437,2 L16.562,2 C16.976,2 17.312,2.336 17.312,2.75 C17.312,3.164 16.976,3.5 16.562,3.5 L16,3.5 L16,8.807 L21.125,18.108 C22.089,19.858 20.823,22 18.826,22 L5.174,22 C3.176,22 1.911,19.858 2.874,18.108 Z M4.189,18.832 C3.997,19.18 4.003,19.604 4.206,19.947 C4.408,20.29 4.776,20.5 5.174,20.5 L18.826,20.5 C19.224,20.5 19.592,20.29 19.794,19.947 C19.997,19.604 20.003,19.18 19.811,18.832 L17.7,15 L6.3,15 Z M14.5,3.5 L9.5,3.5 L9.5,9 C9.5,9.127 9.468,9.251 9.407,9.362 L7.127,13.5 L16.873,13.5 L14.593,9.362 C14.532,9.251 14.5,9.127 14.5,9 Z"/>
</svg>

