<svg xmlns="http://www.w3.org/2000/svg" width="24" height="24" viewBox="0 0 24 24">
  <defs/>
  <path d="M6,8 C6,4.686 8.686,2 12,2 C15.314,2 18,4.686 18,8 L18,10.917 C18,11.62 18.228,12.304 18.65,12.867 L20.7,15.6 C21.041,16.055 21.096,16.663 20.842,17.171 C20.588,17.679 20.068,18 19.5,18 L4.5,18 C3.932,18 3.412,17.679 3.158,17.171 C2.904,16.663 2.959,16.055 3.3,15.6 L5.35,12.867 C5.772,12.304 6,11.62 6,10.917 Z M12,21.5 C10.452,21.5 9.088,20.483 8.645,19 L15.355,19 C14.912,20.483 13.548,21.5 12,21.5 Z"/>
</svg>

