<svg width="24" height="24" viewBox="0 0 24 24" xmlns="http://www.w3.org/2000/svg">
  <path fill-rule="evenodd" clip-rule="evenodd" d="M3.28 2.22C3.13783 2.08752 2.94978 2.0154 2.75548 2.01883C2.56118 2.02225 2.37579 2.10097 2.23838 2.23838C2.10097 2.37579 2.02225 2.56118 2.01883 2.75548C2.0154 2.94978 2.08752 3.13783 2.22 3.28L6.064 7.124C6.02144 7.41406 6.00005 7.70683 6 8V10.917C6 11.6202 5.77192 12.3044 5.35 12.867L3.3 15.6C3.13286 15.8229 3.03108 16.0878 3.00606 16.3653C2.98104 16.6427 3.03378 16.9217 3.15836 17.1708C3.28294 17.42 3.47444 17.6295 3.7114 17.776C3.94837 17.9224 4.22143 18 4.5 18H8.5C8.5 18.4596 8.59053 18.9148 8.76642 19.3394C8.94231 19.764 9.20012 20.1499 9.52513 20.4749C9.85013 20.7999 10.236 21.0577 10.6606 21.2336C11.0852 21.4095 11.5404 21.5 12 21.5C12.4596 21.5 12.9148 21.4095 13.3394 21.2336C13.764 21.0577 14.1499 20.7999 14.4749 20.4749C14.7999 20.1499 15.0577 19.764 15.2336 19.3394C15.4095 18.9148 15.5 18.4596 15.5 18H16.94L20.72 21.78C20.7887 21.8537 20.8715 21.9128 20.9635 21.9538C21.0555 21.9948 21.1548 22.0168 21.2555 22.0186C21.3562 22.0204 21.4562 22.0018 21.5496 21.9641C21.643 21.9264 21.7278 21.8703 21.799 21.799C21.8703 21.7278 21.9264 21.643 21.9641 21.5496C22.0018 21.4562 22.0204 21.3562 22.0186 21.2555C22.0168 21.1548 21.9948 21.0555 21.9538 20.9635C21.9128 20.8715 21.8537 20.7887 21.78 20.72L3.28 2.22ZM14 18H10C10 18.5304 10.2107 19.0391 10.5858 19.4142C10.9609 19.7893 11.4696 20 12 20C12.5304 20 13.0391 19.7893 13.4142 19.4142C13.7893 19.0391 14 18.5304 14 18ZM7.5 10.917V8.56L15.44 16.499H4.5L6.55 13.766C7.16666 12.9438 7.5 11.9438 7.5 10.916V10.917ZM8.924 4.716C9.56442 4.11624 10.3662 3.71679 11.2307 3.56679C12.0952 3.41679 12.9847 3.52279 13.7897 3.87176C14.5948 4.22072 15.2802 4.79741 15.7617 5.53088C16.2433 6.26435 16.4999 7.12259 16.5 8V10.917C16.5 11.9448 16.8333 12.9448 17.45 13.767L18.922 15.729C18.9811 15.8078 19.0551 15.8742 19.1399 15.9244C19.2246 15.9745 19.3184 16.0075 19.4159 16.0215C19.5134 16.0354 19.6127 16.03 19.7081 16.0055C19.8035 15.9811 19.8932 15.9381 19.972 15.879C20.0508 15.8199 20.1172 15.7459 20.1674 15.6611C20.2175 15.5764 20.2505 15.4826 20.2645 15.3851C20.2784 15.2876 20.273 15.1883 20.2485 15.0929C20.2241 14.9975 20.1811 14.9078 20.122 14.829L18.65 12.867C18.2281 12.3044 18 11.6202 18 10.917V8C18 6.82996 17.658 5.68543 17.0159 4.70729C16.3739 3.72915 15.4598 2.96007 14.3863 2.49472C13.3128 2.02938 12.1266 1.88806 10.9738 2.08817C9.82103 2.28828 8.75189 2.82108 7.898 3.621C7.75279 3.75706 7.66758 3.94522 7.66111 4.14411C7.65464 4.34299 7.72744 4.53629 7.8635 4.6815C7.99956 4.82671 8.18772 4.91192 8.38661 4.91839C8.58549 4.92486 8.77879 4.85206 8.924 4.716Z"/>
</svg>
