<svg width="24" height="24" viewBox="0 0 24 24" xmlns="http://www.w3.org/2000/svg">
  <path fill-rule="evenodd" clip-rule="evenodd" d="M7.5 8C7.5 6.80653 7.97411 5.66193 8.81802 4.81802C9.66193 3.97411 10.8065 3.5 12 3.5C13.1935 3.5 14.3381 3.97411 15.182 4.81802C16.0259 5.66193 16.5 6.80653 16.5 8V10.917C16.5 11.9448 16.8333 12.9448 17.45 13.767L19.5 16.5H4.5L6.55 13.767C7.16666 12.9448 7.5 11.9448 7.5 10.917V8ZM12 2C10.4087 2 8.88258 2.63214 7.75736 3.75736C6.63214 4.88258 6 6.4087 6 8V10.917C6 11.6202 5.77192 12.3044 5.35 12.867L3.3 15.6C3.13286 15.8229 3.03108 16.0878 3.00606 16.3653C2.98104 16.6427 3.03378 16.9217 3.15836 17.1708C3.28294 17.42 3.47444 17.6295 3.7114 17.776C3.94837 17.9224 4.22143 18 4.5 18H8.5C8.5 18.4596 8.59053 18.9148 8.76642 19.3394C8.94231 19.764 9.20012 20.1499 9.52513 20.4749C9.85013 20.7999 10.236 21.0577 10.6606 21.2336C11.0852 21.4095 11.5404 21.5 12 21.5C12.4596 21.5 12.9148 21.4095 13.3394 21.2336C13.764 21.0577 14.1499 20.7999 14.4749 20.4749C14.7999 20.1499 15.0577 19.764 15.2336 19.3394C15.4095 18.9148 15.5 18.4596 15.5 18H19.5C19.7786 18 20.0516 17.9224 20.2886 17.776C20.5256 17.6295 20.7171 17.42 20.8416 17.1708C20.9662 16.9217 21.019 16.6427 20.9939 16.3653C20.9689 16.0878 20.8671 15.8229 20.7 15.6L18.65 12.867C18.2281 12.3044 18 11.6202 18 10.917V8C18 6.4087 17.3679 4.88258 16.2426 3.75736C15.1174 2.63214 13.5913 2 12 2ZM14 18H10C10 18.5304 10.2107 19.0391 10.5858 19.4142C10.9609 19.7893 11.4696 20 12 20C12.5304 20 13.0391 19.7893 13.4142 19.4142C13.7893 19.0391 14 18.5304 14 18Z"/>
</svg>
