<svg width="16" height="16" viewBox="0 0 16 16" fill="none" xmlns="http://www.w3.org/2000/svg">
<path fill-rule="evenodd" clip-rule="evenodd" d="M4.46662 0.21967C4.60727 0.0790176 4.79804 0 4.99695 0L11.003 2.98023e-07C11.202 2.98023e-07 11.3927 0.0790179 11.5334 0.21967L15.7803 4.46662C15.921 4.60727 16 4.79804 16 4.99695V11.003C16 11.202 15.921 11.3927 15.7803 11.5334L11.5334 15.7803C11.3927 15.921 11.202 16 11.003 16H4.99695C4.79804 16 4.60727 15.921 4.46662 15.7803L0.21967 11.5334C0.0790176 11.3927 0 11.202 0 11.003L2.98023e-07 4.99695C2.98023e-07 4.79804 0.0790179 4.60727 0.21967 4.46662L4.46662 0.21967ZM5.30761 1.5L1.5 5.30761L1.5 10.6924L5.30761 14.5H10.6924L14.5 10.6924V5.30761L10.6924 1.5L5.30761 1.5ZM4 7.75C4 7.33579 4.33579 7 4.75 7H11.25C11.6642 7 12 7.33579 12 7.75C12 8.16421 11.6642 8.5 11.25 8.5H4.75C4.33579 8.5 4 8.16421 4 7.75Z" fill="#24292E"/>
</svg>
