<svg xmlns="http://www.w3.org/2000/svg" width="24" height="24" viewBox="0 0 24 24">
  <defs/>
  <path d="M6,4.75 C6,4.06 6.56,3.5 7.25,3.5 L12.25,3.5 C14.022,3.5 15.647,4.487 16.465,6.059 C17.282,7.632 17.156,9.528 16.138,10.979 C18.254,11.979 19.394,14.312 18.881,16.596 C18.368,18.879 16.34,20.501 14,20.5 L7.25,20.5 C6.56,20.5 6,19.94 6,19.25 Z M8.5,13 L8.5,18 L14,18 C15.381,18 16.5,16.881 16.5,15.5 C16.5,14.119 15.381,13 14,13 Z M8.5,10.5 L12.251,10.5 C13.494,10.5 14.501,9.492 14.5,8.25 C14.5,7.007 13.493,6 12.25,6 L8.5,6 Z"/>
</svg>

