<svg xmlns="http://www.w3.org/2000/svg" width="16" height="16" viewBox="0 0 16 16">
  <defs/>
  <path d="M0,1.75 C0,1.336 0.336,1 0.75,1 L5.003,1 C6.23,1 7.32,1.59 8.003,2.501 C8.711,1.555 9.824,0.998 11.006,1 L15.251,1 C15.665,1 16.001,1.336 16.001,1.75 L16.001,12.25 C16.001,12.664 15.665,13 15.251,13 L10.744,13 C10.147,13 9.575,13.237 9.153,13.659 L8.531,14.28 C8.238,14.572 7.764,14.572 7.471,14.28 L6.849,13.659 C6.427,13.237 5.855,13 5.258,13 L0.75,13 C0.336,13 0,12.664 0,12.25 Z M7.251,12.074 L7.255,7.001 L7.253,4.748 C7.252,3.506 6.245,2.5 5.003,2.5 L1.5,2.5 L1.5,11.5 L5.257,11.5 C5.962,11.5 6.654,11.699 7.251,12.074 Z M8.755,4.75 L8.751,12.072 C9.343,11.701 10.033,11.5 10.743,11.5 L14.5,11.5 L14.5,2.5 L11.005,2.5 C9.762,2.5 8.755,3.507 8.755,4.75 Z"/>
</svg>

