<svg xmlns="http://www.w3.org/2000/svg" width="16" height="16" viewBox="0 0 16 16">
  <defs/>
  <path d="M3,2.75 C3,1.784 3.784,1 4.75,1 L11.25,1 C12.216,1 13,1.784 13,2.75 L13,14.25 C13,14.54 12.833,14.805 12.57,14.929 C12.308,15.052 11.997,15.014 11.773,14.829 L8,11.722 L4.227,14.829 C4.003,15.014 3.692,15.052 3.43,14.929 C3.167,14.805 3,14.54 3,14.25 Z M4.75,2.5 C4.612,2.5 4.5,2.612 4.5,2.75 L4.5,12.66 L7.523,10.171 C7.8,9.943 8.2,9.943 8.477,10.171 L11.5,12.661 L11.5,2.75 C11.5,2.612 11.388,2.5 11.25,2.5 Z"/>
</svg>

