<svg width="16" height="16" viewBox="0 0 16 16" xmlns="http://www.w3.org/2000/svg">
  <path fill-rule="evenodd" clip-rule="evenodd" d="M1.18988 1.14254C0.854394 0.899596 0.385485 0.974622 0.142544 1.31011C-0.100396 1.6456 -0.0253706 2.11451 0.310118 2.35745L3 4.3053V14.25C3 14.5353 3.16192 14.796 3.41773 14.9224C3.67354 15.0488 3.97892 15.0191 4.20559 14.8458L8 11.9442L11.7944 14.8458C12.0211 15.0191 12.3265 15.0488 12.5823 14.9224C12.8381 14.796 13 14.5353 13 14.25V11.5467L14.8101 12.8574C15.1456 13.1004 15.6145 13.0254 15.8575 12.6899C16.1004 12.3544 16.0254 11.8855 15.6899 11.6425L12.6963 9.47478C12.6917 9.47138 12.6871 9.46804 12.6825 9.46475L4.19629 3.31959C4.19173 3.3162 4.18712 3.31287 4.18248 3.30959L1.18988 1.14254ZM4.5 5.3915V12.7323L7.54441 10.4042C7.81333 10.1986 8.18667 10.1986 8.45559 10.4042L11.5 12.7323V10.4605L4.5 5.3915ZM5.865 1C5.45079 1 5.115 1.33579 5.115 1.75C5.115 2.16421 5.45079 2.5 5.865 2.5H11.25C11.3881 2.5 11.5 2.61193 11.5 2.75V6.37362C11.5 6.78783 11.8358 7.12362 12.25 7.12362C12.6642 7.12362 13 6.78783 13 6.37362V2.75C13 1.7835 12.2165 1 11.25 1H5.865Z"/>
</svg>
