<svg xmlns="http://www.w3.org/2000/svg" width="24" height="24" viewBox="0 0 24 24">
  <defs/>
  <path d="M3.232,2.175 L21.732,17.675 C22.05,17.941 22.091,18.414 21.825,18.732 C21.559,19.05 21.086,19.091 20.768,18.825 L19,17.343 L19,21.25 C19,21.538 18.834,21.8 18.575,21.925 C18.315,22.05 18.007,22.015 17.782,21.835 L12,17.21 L6.219,21.836 C5.994,22.016 5.686,22.052 5.426,21.927 C5.167,21.803 5.001,21.541 5,21.253 L4.947,5.569 L2.268,3.325 C1.95,3.059 1.909,2.586 2.175,2.268 C2.441,1.95 2.914,1.909 3.232,2.175 Z M7.421,2 L17.25,2 C18.216,2 19,2.784 19,3.75 L19,11.823 C19,12.115 18.831,12.38 18.567,12.503 C18.303,12.626 17.991,12.585 17.768,12.398 L6.94,3.325 C6.698,3.122 6.609,2.79 6.717,2.494 C6.824,2.197 7.106,2 7.421,2 Z"/>
</svg>

