<svg xmlns="http://www.w3.org/2000/svg" width="16" height="16" viewBox="0 0 16 16"><path d="M6.75 0h2.5C10.216 0 11 .784 11 1.75V3h3.25c.966 0 1.75.784 1.75 1.75v8.5A1.75 1.75 0 0114.25 15H1.75A1.75 1.75 0 010 13.25v-8.5C0 3.784.784 3 1.75 3H5V1.75C5 .784 5.784 0 6.75 0zM3.5 9.5a3.49 3.49 0 01-2-.627v4.377c0 .138.112.25.25.25h12.5a.25.25 0 00.25-.25V8.873a3.49 3.49 0 01-2 .627zm-1.75-5a.25.25 0 00-.25.25V6a2 2 0 002 2h9a2 2 0 002-2V4.75a.25.25 0 00-.25-.25H1.75zM9.5 3V1.75a.25.25 0 00-.25-.25h-2.5a.25.25 0 00-.25.25V3z"/></svg>