<svg xmlns="http://www.w3.org/2000/svg" width="16" height="16" viewBox="0 0 16 16"><path fill-rule="evenodd" d="M6.75 0A1.75 1.75 0 005 1.75V3H1.75A1.75 1.75 0 000 4.75v9.5C0 15.216.784 16 1.75 16h12.5A1.75 1.75 0 0016 14.25v-9.5A1.75 1.75 0 0014.25 3H11V1.75A1.75 1.75 0 009.25 0h-2.5zM9.5 3V1.75a.25.25 0 00-.25-.25h-2.5a.25.25 0 00-.25.25V3h3zM5 4.5H1.75a.25.25 0 00-.25.25V6a2 2 0 002 2h9a2 2 0 002-2V4.75a.25.25 0 00-.25-.25H5zm-1.5 5a3.484 3.484 0 01-2-.627v5.377c0 .138.112.25.25.25h12.5a.25.25 0 00.25-.25V8.873a3.484 3.484 0 01-2 .627h-9z"/></svg>