<svg xmlns="http://www.w3.org/2000/svg" width="16" height="16" viewBox="0 0 16 16">
  <defs/>
  <path d="M6.75,0 L9.25,0 C10.216,0 11,0.784 11,1.75 L11,3 L14.25,3 C15.216,3 16,3.784 16,4.75 L16,13.25 C16,14.216 15.216,15 14.25,15 L1.75,15 C0.784,15 0,14.216 0,13.25 L0,4.75 C0,3.784 0.784,3 1.75,3 L5,3 L5,1.75 C5,0.784 5.784,0 6.75,0 Z M3.5,9.5 C2.785,9.501 2.087,9.282 1.5,8.873 L1.5,13.25 C1.5,13.388 1.612,13.5 1.75,13.5 L14.25,13.5 C14.388,13.5 14.5,13.388 14.5,13.25 L14.5,8.873 C13.913,9.282 13.215,9.501 12.5,9.5 Z M1.75,4.5 C1.612,4.5 1.5,4.612 1.5,4.75 L1.5,6 C1.5,7.105 2.395,8 3.5,8 L12.5,8 C13.605,8 14.5,7.105 14.5,6 L14.5,4.75 C14.5,4.612 14.388,4.5 14.25,4.5 L1.75,4.5 Z M9.5,3 L9.5,1.75 C9.5,1.612 9.388,1.5 9.25,1.5 L6.75,1.5 C6.612,1.5 6.5,1.612 6.5,1.75 L6.5,3 Z"/>
</svg>

