<svg width="16" height="16" viewBox="0 0 16 16" fill="none" xmlns="http://www.w3.org/2000/svg">
<path fill-rule="evenodd" clip-rule="evenodd" d="M6.75 0C5.7835 0 5 0.783502 5 1.75V3H1.75C0.783502 3 0 3.7835 0 4.75V6V14.25C0 15.2165 0.783501 16 1.75 16H14.25C15.2165 16 16 15.2165 16 14.25V6V4.75C16 3.7835 15.2165 3 14.25 3H11V1.75C11 0.783502 10.2165 0 9.25 0H6.75ZM9.5 3V1.75C9.5 1.61193 9.38807 1.5 9.25 1.5H6.75C6.61193 1.5 6.5 1.61193 6.5 1.75V3H9.5ZM5 4.5H1.75C1.61193 4.5 1.5 4.61193 1.5 4.75V6C1.5 7.10457 2.39543 8 3.5 8H12.5C13.6046 8 14.5 7.10457 14.5 6V4.75C14.5 4.61193 14.3881 4.5 14.25 4.5H11H5ZM3.5 9.5C2.75638 9.5 2.06692 9.26809 1.5 8.87265V14.25C1.5 14.3881 1.61193 14.5 1.75 14.5H14.25C14.3881 14.5 14.5 14.3881 14.5 14.25V8.87266C13.9331 9.26809 13.2436 9.5 12.5 9.5H3.5Z" fill="black"/>
</svg>
