<svg xmlns="http://www.w3.org/2000/svg" width="24" height="24" viewBox="0 0 24 24">
  <defs/>
  <path d="M7.5,1.75 C7.5,0.784 8.284,0 9.25,0 L14.75,0 C15.716,0 16.5,0.784 16.5,1.75 L16.5,4 L21.25,4 C22.216,4 23,4.784 23,5.75 L23,20.25 C23,21.216 22.216,22 21.25,22 L2.75,22 C1.784,22 1,21.216 1,20.25 L1,5.75 C1,4.784 1.784,4 2.75,4 L7.5,4 Z M2.5,11.99 L2.5,20.25 C2.5,20.388 2.612,20.5 2.75,20.5 L21.25,20.5 C21.388,20.5 21.5,20.388 21.5,20.25 L21.5,11.99 C20.733,12.643 19.758,13.001 18.75,13 L5.25,13 C4.242,13.001 3.267,12.643 2.5,11.99 Z M21.5,8.75 L21.5,5.75 C21.5,5.612 21.388,5.5 21.25,5.5 L2.75,5.5 C2.612,5.5 2.5,5.612 2.5,5.75 L2.5,8.75 C2.5,10.269 3.731,11.5 5.25,11.5 L18.75,11.5 C20.269,11.5 21.5,10.269 21.5,8.75 Z M15,1.75 C15,1.612 14.888,1.5 14.75,1.5 L9.25,1.5 C9.112,1.5 9,1.612 9,1.75 L9,4 L15,4 Z"/>
</svg>

