<svg xmlns="http://www.w3.org/2000/svg" width="16" height="16" viewBox="0 0 16 16">
  <defs/>
  <path d="M8.75,8.582 L8.75,14.25 C8.75,14.664 8.414,15 8,15 C7.586,15 7.25,14.664 7.25,14.25 L7.25,8.582 C6.511,8.231 6.113,7.415 6.293,6.616 C6.472,5.818 7.182,5.251 8,5.251 C8.818,5.251 9.528,5.818 9.707,6.616 C9.887,7.415 9.489,8.231 8.75,8.582 Z M12.733,1.457 C13.033,1.172 13.507,1.183 13.793,1.483 C15.212,2.969 16.002,4.945 16,7 C16,9.139 15.16,11.083 13.793,12.517 C13.61,12.719 13.332,12.806 13.067,12.744 C12.801,12.682 12.59,12.482 12.516,12.22 C12.441,11.957 12.514,11.676 12.707,11.483 C13.86,10.276 14.503,8.67 14.5,7 C14.503,5.33 13.86,3.724 12.707,2.517 C12.422,2.217 12.433,1.743 12.733,1.457 Z M3.267,1.457 C3.567,1.743 3.579,2.217 3.293,2.517 C2.14,3.724 1.497,5.33 1.5,7 C1.497,8.67 2.139,10.276 3.293,11.483 C3.566,11.785 3.549,12.249 3.254,12.529 C2.959,12.81 2.495,12.804 2.207,12.517 C2.113,12.418 2.021,12.316 1.931,12.213 C0.683,10.763 -0.003,8.913 0,7 C0,4.861 0.84,2.917 2.207,1.483 C2.493,1.183 2.967,1.172 3.267,1.457 Z M11.823,3.778 C12.584,4.679 13.001,5.821 13,7 C13.001,8.179 12.584,9.321 11.823,10.222 C11.653,10.435 11.38,10.539 11.111,10.493 C10.843,10.447 10.62,10.259 10.529,10.002 C10.439,9.745 10.496,9.459 10.677,9.255 C11.19,8.646 11.5,7.86 11.5,7 C11.5,6.14 11.191,5.355 10.677,4.745 C10.423,4.428 10.469,3.966 10.779,3.704 C11.09,3.441 11.553,3.474 11.823,3.778 Z M5.331,4.736 C4.812,5.346 4.5,6.136 4.5,7 C4.498,7.825 4.79,8.625 5.323,9.255 C5.577,9.572 5.531,10.034 5.221,10.296 C4.91,10.559 4.447,10.526 4.177,10.222 C3.443,9.352 3,8.227 3,7 C2.998,5.814 3.42,4.667 4.188,3.764 C4.456,3.448 4.93,3.41 5.246,3.678 C5.561,3.947 5.599,4.42 5.331,4.736 Z"/>
</svg>

