<svg xmlns="http://www.w3.org/2000/svg" width="24" height="24" viewBox="0 0 24 24">
  <defs/>
  <path d="M20.485,2.515 A0.75 0.75 0 0 0 19.425,3.575 A10.465 10.465 0 0 1 22.5,11 C22.5,13.9 21.326,16.523 19.425,18.424 A0.75 0.75 0 0 0 20.485,19.485 A11.965 11.965 0 0 0 24,11 C24,7.686 22.656,4.685 20.485,2.515 Z M4.575,3.575 A0.75 0.75 0 0 0 3.515,2.515 A11.965 11.965 0 0 0 0,11 C0,14.313 1.344,17.314 3.515,19.485 A0.75 0.75 0 0 0 4.575,18.425 A10.465 10.465 0 0 1 1.5,11 C1.5,8.1 2.674,5.476 4.575,3.575 Z M8.11,7.11 A0.75 0.75 0 0 0 7.05,6.05 A6.98 6.98 0 0 0 5,11 A6.98 6.98 0 0 0 7.05,15.95 A0.75 0.75 0 0 0 8.11,14.889 A5.48 5.48 0 0 1 6.5,10.999 A5.48 5.48 0 0 1 8.11,7.111 Z M16.95,6.05 A0.75 0.75 0 1 0 15.89,7.11 A5.48 5.48 0 0 1 17.5,11 A5.48 5.48 0 0 1 15.89,14.889 A0.75 0.75 0 1 0 16.95,15.949 A6.98 6.98 0 0 0 19,11 A6.98 6.98 0 0 0 16.95,6.051 Z M14,11 A2 2 0 0 1 12.75,12.855 L12.75,21.25 A0.75 0.75 0 0 1 11.25,21.25 L11.25,12.855 A2 2 0 1 1 14,11 Z"/>
</svg>

