<svg xmlns="http://www.w3.org/2000/svg" width="16" height="16" viewBox="0 0 16 16"><path d="M8.75 8.582v5.668a.75.75 0 01-1.5 0V8.582a1.75 1.75 0 111.5 0zm3.983-7.125a.75.75 0 011.06.026A7.976 7.976 0 0116 7c0 2.139-.84 4.083-2.207 5.517a.75.75 0 11-1.086-1.034A6.474 6.474 0 0014.5 7a6.474 6.474 0 00-1.793-4.483.75.75 0 01.026-1.06zm-9.466 0c.3.286.312.76.026 1.06A6.474 6.474 0 001.5 7a6.47 6.47 0 001.793 4.483.75.75 0 01-1.086 1.034A7.973 7.973 0 010 7c0-2.139.84-4.083 2.207-5.517a.75.75 0 011.06-.026zm8.556 2.321A4.988 4.988 0 0113 7a4.988 4.988 0 01-1.177 3.222.75.75 0 11-1.146-.967A3.487 3.487 0 0011.5 7c0-.86-.309-1.645-.823-2.255a.75.75 0 011.146-.967zm-6.492.958A3.48 3.48 0 004.5 7a3.48 3.48 0 00.823 2.255.75.75 0 01-1.146.967A4.981 4.981 0 013 7a4.982 4.982 0 011.188-3.236.75.75 0 111.143.972z"/></svg>