<svg xmlns="http://www.w3.org/2000/svg" width="24" height="24" viewBox="0 0 24 24">
  <defs/>
  <path d="M0,3.75 C0,2.784 0.784,2 1.75,2 L22.25,2 C23.216,2 24,2.784 24,3.75 L24,20.25 C24,21.216 23.216,22 22.25,22 L1.75,22 C0.784,22 0,21.216 0,20.25 Z M22.5,7 L1.5,7 L1.5,20.25 C1.5,20.388 1.612,20.5 1.75,20.5 L22.25,20.5 C22.388,20.5 22.5,20.388 22.5,20.25 Z M12.5,3.5 L12.5,5.5 L22.5,5.5 L22.5,3.75 C22.5,3.612 22.388,3.5 22.25,3.5 Z M7,3.5 L7,5.5 L11,5.5 L11,3.5 Z M1.75,3.5 C1.612,3.5 1.5,3.612 1.5,3.75 L1.5,5.5 L5.5,5.5 L5.5,3.5 Z"/>
</svg>

