<svg width="16" height="16" viewBox="0 0 16 16" fill="none" xmlns="http://www.w3.org/2000/svg">
<path fill-rule="evenodd" clip-rule="evenodd" d="M0 2.75C0 1.7835 0.783502 1 1.75 1H14.25C15.2165 1 16 1.7835 16 2.75V13.25C16 14.2165 15.2165 15 14.25 15H1.75C0.783501 15 0 14.2165 0 13.25V2.75ZM1.75 2.5C1.61193 2.5 1.5 2.61193 1.5 2.75V4.5H3.5V2.5H1.75ZM5 2.5V4.5H7V2.5H5ZM8.5 2.5V4.5H14.5V2.75C14.5 2.61193 14.3881 2.5 14.25 2.5H8.5ZM14.5 6H1.5V13.25C1.5 13.3881 1.61193 13.5 1.75 13.5H14.25C14.3881 13.5 14.5 13.3881 14.5 13.25V6Z" fill="black"/>
</svg>
