<svg xmlns="http://www.w3.org/2000/svg" width="16" height="16" viewBox="0 0 16 16"><path fill-rule="evenodd" d="M4.72 1.22a.75.75 0 011.06 0l1 .999a3.492 3.492 0 012.441 0l.999-1a.75.75 0 111.06 1.061l-.775.776c.616.63.995 1.493.995 2.444v.327c0 .1-.009.197-.025.292.427.146.797.416 1.065.768l1.254-.358a.75.75 0 11.412 1.442L13 8.316V10h1.25a.75.75 0 010 1.5h-1.275a4.967 4.967 0 01-.418 1.562l1.43.477a.75.75 0 01-.474 1.422l-1.5-.5a.748.748 0 01-.264-.153A4.988 4.988 0 018 16a4.988 4.988 0 01-3.749-1.692.748.748 0 01-.264.153l-1.5.5a.75.75 0 11-.474-1.422l1.43-.477a4.968 4.968 0 01-.418-1.562H1.75a.75.75 0 010-1.5H3V8.316L1.794 7.97a.75.75 0 01.412-1.442l1.254.358a2.255 2.255 0 011.065-.768 1.684 1.684 0 01-.025-.292V5.5c0-.951.38-1.814.995-2.444L4.72 2.28a.75.75 0 010-1.06zM6.173 6h3.654A.173.173 0 0010 5.827V5.5a2 2 0 10-4 0v.327c0 .096.077.173.173.173zM5.25 7.5a.75.75 0 00-.75.75V11a3.5 3.5 0 107 0V8.25a.75.75 0 00-.75-.75h-5.5z"/></svg>