<svg xmlns="http://www.w3.org/2000/svg" width="32" height="32" viewBox="0 0 32 32"><path fill-rule="evenodd" d="M9.44.44a1.5 1.5 0 012.12 0l1.999 1.997A6.985 6.985 0 0116 2c.859 0 1.681.155 2.441.437L20.44.44a1.5 1.5 0 012.122 2.122L21.01 4.11A6.977 6.977 0 0123 9v.654c0 .2-.017.395-.05.584a4.509 4.509 0 012.058 1.443l3.935-1.574a1.5 1.5 0 111.114 2.786L26 14.516V18h3.5a1.5 1.5 0 010 3H26v1c0 .817-.098 1.611-.283 2.371l4.34 1.736a1.5 1.5 0 11-1.114 2.786l-4.367-1.747A9.995 9.995 0 0116 32a9.995 9.995 0 01-8.576-4.854l-4.367 1.747a1.5 1.5 0 11-1.114-2.786l4.34-1.736A10.024 10.024 0 016 22v-1H1.5a1.5 1.5 0 010-3H6v-3.485l-4.057-1.622a1.5 1.5 0 111.114-2.786l3.935 1.574a4.509 4.509 0 012.059-1.443A3.366 3.366 0 019 9.654V9a6.98 6.98 0 011.99-4.889l-1.55-1.55a1.5 1.5 0 010-2.122zM12.345 10h7.308A.346.346 0 0020 9.654V9a4 4 0 00-8 0v.654c0 .191.155.346.346.346zM10.5 13A1.5 1.5 0 009 14.5V22a7 7 0 1014 0v-7.5a1.5 1.5 0 00-1.5-1.5h-11z"/></svg>