<svg width="16" height="16" viewBox="0 0 16 16" fill="none" xmlns="http://www.w3.org/2000/svg">
<path fill-rule="evenodd" clip-rule="evenodd" d="M11.0001 10H14.0001V9H11.0001V8L14.1701 6.97L13.8301 6.03L11.0001 7V6C11.0001 5.45 10.5501 5 10.0001 5V4C10.0001 3.52 9.64008 3.12 9.17008 3.03L10.2001 2H12.0001V1H9.80008L7.80008 3H7.21008L5.20008 1H3.00008V2H4.80008L5.83008 3.03C5.36008 3.12 5.00008 3.51 5.00008 4V5C4.45008 5 4.00008 5.45 4.00008 6V7L1.17008 6.03L0.830078 6.97L4.00008 8V9H1.00008V10H4.00008V11L0.830078 12.03L1.17008 12.97L4.00008 12V13C4.00008 13.55 4.45008 14 5.00008 14H6.00008L7.00008 13V6H8.00008V13L9.00008 14H10.0001C10.5501 14 11.0001 13.55 11.0001 13V12L13.8301 12.97L14.1701 12.03L11.0001 11V10V10ZM9.00008 5H6.00008V4H9.00008V5V5Z" fill="#1B1F23"/>
</svg>
