<svg xmlns="http://www.w3.org/2000/svg" width="24" height="24" viewBox="0 0 24 24"><path fill-rule="evenodd" d="M7.72.22a.75.75 0 011.06 0l1.204 1.203A4.983 4.983 0 0112 1c.718 0 1.4.151 2.016.423L15.22.22a.75.75 0 111.06 1.06l-.97.972A4.988 4.988 0 0117 6v1.104a2.755 2.755 0 011.918 1.974l1.997-.999a.75.75 0 11.67 1.342L19 10.714V13.5l2.251.003a.75.75 0 01-.002 1.5L19 15.001V16c0 .58-.07 1.145-.204 1.684l2.79 1.395a.75.75 0 11-.671 1.342l-2.638-1.319A7 7 0 0112 23a7 7 0 01-6.197-3.742l-2.757 1.181a.75.75 0 01-.591-1.378l2.796-1.199A7.007 7.007 0 015 16v-.996H2.75a.75.75 0 010-1.5H5v-2.79L2.414 9.42a.75.75 0 01.67-1.342l1.998.999A2.755 2.755 0 017 7.104V6c0-1.493.654-2.832 1.691-3.748L7.72 1.28a.75.75 0 010-1.06zM8.5 7h7V6a3.5 3.5 0 10-7 0v1zm-2 3.266V9.75c0-.69.56-1.25 1.25-1.25h8.5c.69 0 1.25.56 1.25 1.25V16A5.5 5.5 0 017 18.292a.747.747 0 00-.229-.582 5.496 5.496 0 01-.27-1.71v-5.734z"/></svg>