<svg xmlns="http://www.w3.org/2000/svg" width="48" height="48" viewBox="0 0 48 48"><path fill-rule="evenodd" d="M15.44.44a1.5 1.5 0 012.12 0l2.408 2.406A9.966 9.966 0 0124 2c1.435 0 2.799.302 4.032.846L30.44.44a1.5 1.5 0 012.122 2.122l-1.943 1.942A9.976 9.976 0 0134 12v2.207a5.51 5.51 0 013.834 3.949l3.995-1.998a1.5 1.5 0 111.342 2.684L38 21.427v5.575l4.502.007a1.5 1.5 0 01-.004 3L38 30.002V32c0 1.162-.142 2.292-.409 3.371l.08.037 5.5 2.75a1.5 1.5 0 11-1.342 2.684l-5.275-2.638C34.266 42.824 29.504 46 24 46c-5.38 0-10.05-3.034-12.395-7.485L6.091 40.88a1.5 1.5 0 11-1.182-2.758l5.592-2.396A14.015 14.015 0 0110 32v-1.991H5.5a1.5 1.5 0 010-3H10v-5.582l-5.17-2.585a1.5 1.5 0 111.34-2.684l3.995 1.998A5.51 5.51 0 0114 14.207V12a9.976 9.976 0 013.382-7.497l-1.943-1.942a1.5 1.5 0 010-2.122zM17 14h14v-2a7 7 0 10-14 0v2zm-4 6.532V19.5a2.5 2.5 0 012.5-2.5h17a2.5 2.5 0 012.5 2.5V32c0 6.075-4.925 11-11 11s-11-4.925-11-11V20.532z"/></svg>