<svg xmlns="http://www.w3.org/2000/svg" width="16" height="16" viewBox="0 0 16 16">
  <defs/>
  <path d="M4.75,0 C5.164,0 5.5,0.336 5.5,0.75 L5.5,2 L10.5,2 L10.5,0.75 C10.5,0.336 10.836,0 11.25,0 C11.664,0 12,0.336 12,0.75 L12,2 L13.25,2 C14.216,2 15,2.784 15,3.75 L15,14.25 C15,15.216 14.216,16 13.25,16 L2.75,16 C1.784,16 1,15.216 1,14.25 L1,3.75 C1,2.784 1.784,2 2.75,2 L4,2 L4,0.75 C4,0.336 4.336,0 4.75,0 Z M2.5,7.5 L2.5,14.25 C2.5,14.388 2.612,14.5 2.75,14.5 L13.25,14.5 C13.388,14.5 13.5,14.388 13.5,14.25 L13.5,7.5 Z M13.25,3.5 L2.75,3.5 C2.612,3.5 2.5,3.612 2.5,3.75 L2.5,6 L13.5,6 L13.5,3.75 C13.5,3.612 13.388,3.5 13.25,3.5 Z"/>
</svg>

