<svg xmlns="http://www.w3.org/2000/svg" width="24" height="24" viewBox="0 0 24 24">
  <defs/>
  <path d="M6.75,0 C7.164,0 7.5,0.336 7.5,0.75 L7.5,3 L16.5,3 L16.5,0.75 C16.5,0.336 16.836,0 17.25,0 C17.664,0 18,0.336 18,0.75 L18,3 L20.75,3 C21.716,3 22.5,3.784 22.5,4.75 L22.5,20.75 C22.5,21.716 21.716,22.5 20.75,22.5 L3.25,22.5 C2.284,22.5 1.5,21.716 1.5,20.75 L1.5,4.75 C1.5,3.784 2.284,3 3.25,3 L6,3 L6,0.75 C6,0.336 6.336,0 6.75,0 Z M21,9.5 L3,9.5 L3,20.75 C3,20.888 3.112,21 3.25,21 L20.75,21 C20.888,21 21,20.888 21,20.75 Z M3.25,4.5 C3.112,4.5 3,4.612 3,4.75 L3,8 L21,8 L21,4.75 C21,4.612 20.888,4.5 20.75,4.5 Z"/>
</svg>

