<svg width="24" height="24" viewBox="0 0 24 24" xmlns="http://www.w3.org/2000/svg">
  <path d="M19.78 6.22C19.9205 6.36062 19.9993 6.55125 19.9993 6.75C19.9993 6.94875 19.9205 7.13937 19.78 7.28L10.03 17.03C9.88938 17.1704 9.69875 17.2493 9.5 17.2493C9.30125 17.2493 9.11063 17.1704 8.97 17.03L4.22 12.28C4.14631 12.2113 4.08721 12.1285 4.04622 12.0365C4.00523 11.9445 3.98319 11.8452 3.98141 11.7445C3.97963 11.6438 3.99816 11.5438 4.03588 11.4504C4.0736 11.357 4.12974 11.2722 4.20096 11.201C4.27218 11.1297 4.35702 11.0736 4.4504 11.0359C4.54379 10.9982 4.64382 10.9796 4.74452 10.9814C4.84523 10.9832 4.94454 11.0052 5.03654 11.0462C5.12854 11.0872 5.21134 11.1463 5.28 11.22L9.5 15.44L18.72 6.22C18.8606 6.07955 19.0513 6.00066 19.25 6.00066C19.4488 6.00066 19.6394 6.07955 19.78 6.22Z"/>
</svg>
