<svg xmlns="http://www.w3.org/2000/svg" width="16" height="16" viewBox="0 0 16 16"><path d="M2.5 1.75v11.5c0 .138.112.25.25.25h3.17a.75.75 0 010 1.5H2.75A1.75 1.75 0 011 13.25V1.75C1 .784 1.784 0 2.75 0h8.5C12.216 0 13 .784 13 1.75v7.736a.75.75 0 01-1.5 0V1.75a.25.25 0 00-.25-.25h-8.5a.25.25 0 00-.25.25zm13.274 9.537v-.001l-4.557 4.45a.75.75 0 01-1.055-.008l-1.943-1.95a.75.75 0 011.062-1.058l1.419 1.425 4.026-3.932a.75.75 0 111.048 1.074zM4.75 4h4.5a.75.75 0 010 1.5h-4.5a.75.75 0 010-1.5zM4 7.75A.75.75 0 014.75 7h2a.75.75 0 010 1.5h-2A.75.75 0 014 7.75z"/></svg>