<svg xmlns="http://www.w3.org/2000/svg" width="16" height="16" viewBox="0 0 16 16">
  <defs/>
  <path d="M0,8 C0,3.582 3.582,0 8,0 C12.418,0 16,3.582 16,8 C16,12.418 12.418,16 8,16 C3.582,16 0,12.418 0,8 Z M1.5,8 C1.5,11.59 4.41,14.5 8,14.5 C11.59,14.5 14.5,11.59 14.5,8 C14.5,4.41 11.59,1.5 8,1.5 C4.41,1.5 1.5,4.41 1.5,8 Z M11.78,6.28 L7.28,10.78 C6.987,11.072 6.513,11.072 6.22,10.78 L4.22,8.78 C3.945,8.484 3.953,8.024 4.238,7.738 C4.524,7.453 4.984,7.445 5.28,7.72 L6.75,9.19 L10.72,5.22 C11.016,4.945 11.476,4.953 11.762,5.238 C12.047,5.524 12.055,5.984 11.78,6.28 Z"/>
</svg>

