<svg xmlns="http://www.w3.org/2000/svg" width="16" height="16" viewBox="0 0 16 16">
  <defs/>
  <path d="M2.75,1 L13.25,1 C14.216,1 15,1.784 15,2.75 L15,13.25 C15,14.216 14.216,15 13.25,15 L2.75,15 C1.784,15 1,14.216 1,13.25 L1,2.75 C1,1.784 1.784,1 2.75,1 Z M2.5,2.75 L2.5,13.25 C2.5,13.388 2.612,13.5 2.75,13.5 L13.25,13.5 C13.388,13.5 13.5,13.388 13.5,13.25 L13.5,2.75 C13.5,2.612 13.388,2.5 13.25,2.5 L2.75,2.5 C2.612,2.5 2.5,2.612 2.5,2.75 Z M11.78,6.28 L7.28,10.78 C6.987,11.072 6.513,11.072 6.22,10.78 L4.22,8.78 C3.945,8.484 3.953,8.024 4.238,7.738 C4.524,7.453 4.984,7.445 5.28,7.72 L6.75,9.19 L10.72,5.22 C11.016,4.945 11.476,4.953 11.762,5.238 C12.047,5.524 12.055,5.984 11.78,6.28 Z"/>
</svg>

