<svg width="24" height="24" viewBox="0 0 24 24" xmlns="http://www.w3.org/2000/svg">
  <path fill-rule="evenodd" clip-rule="evenodd" d="M12 22C17.5228 22 22 17.5228 22 12C22 6.47715 17.5228 2 12 2C6.47715 2 2 6.47715 2 12C2 17.5228 6.47715 22 12 22ZM16.7803 9.78033C17.0732 9.48744 17.0732 9.01256 16.7803 8.71967C16.4874 8.42678 16.0126 8.42678 15.7197 8.71967L10.5 13.9393L8.28033 11.7197C7.98744 11.4268 7.51256 11.4268 7.21967 11.7197C6.92678 12.0126 6.92678 12.4874 7.21967 12.7803L9.96967 15.5303C10.2626 15.8232 10.7374 15.8232 11.0303 15.5303L16.7803 9.78033Z"/>
</svg>
