<svg width="24" height="24" viewBox="0 0 24 24" fill="none" xmlns="http://www.w3.org/2000/svg">
<path fill-rule="evenodd" clip-rule="evenodd" d="M1 12C1 5.92487 5.92487 1 12 1C18.0751 1 23 5.92487 23 12C23 18.0751 18.0751 23 12 23C5.92487 23 1 18.0751 1 12ZM12.575 7.24999C12.575 6.79435 12.2056 6.42499 11.75 6.42499C11.2944 6.42499 10.925 6.79435 10.925 7.24999V12.75C10.925 13.046 11.0836 13.3194 11.3407 13.4663L14.8407 15.4663C15.2363 15.6923 15.7402 15.5549 15.9663 15.1593C16.1923 14.7637 16.0549 14.2597 15.6593 14.0337L12.575 12.2712V7.24999Z" fill="black"/>
</svg>
