<svg xmlns="http://www.w3.org/2000/svg" width="16" height="16" viewBox="0 0 16 16">
  <defs/>
  <path d="M8,0 C12.418,0 16,3.582 16,8 C16,12.418 12.418,16 8,16 C3.582,16 0,12.418 0,8 C0,3.582 3.582,0 8,0 Z M1.5,8 C1.5,11.59 4.41,14.5 8,14.5 C11.59,14.5 14.5,11.59 14.5,8 C14.5,4.41 11.59,1.5 8,1.5 C4.41,1.5 1.5,4.41 1.5,8 Z M8.5,4.75 L8.5,7.742 L10.528,8.554 C10.9,8.716 11.075,9.144 10.925,9.52 C10.774,9.896 10.352,10.085 9.971,9.946 L7.471,8.946 C7.187,8.832 7,8.556 7,8.25 L7,4.75 C7,4.336 7.336,4 7.75,4 C8.164,4 8.5,4.336 8.5,4.75 Z"/>
</svg>

