<svg width="16" height="16" viewBox="0 0 16 16" fill="none" xmlns="http://www.w3.org/2000/svg">
<g clip-path="url(#clip0_8243_104254)">
<path fill-rule="evenodd" clip-rule="evenodd" d="M0 8C0 3.58172 3.58172 0 8 0C12.4183 0 16 3.58172 16 8C16 12.4183 12.4183 16 8 16C3.58172 16 0 12.4183 0 8ZM8.57499 4.74999C8.57499 4.29435 8.20562 3.92499 7.74999 3.92499C7.29435 3.92499 6.92499 4.29435 6.92499 4.74999V8.24999C6.92499 8.58733 7.13037 8.89069 7.44359 9.01598L9.94359 10.016C10.3666 10.1852 10.8468 9.97943 11.016 9.55639C11.1852 9.13334 10.9794 8.65321 10.5564 8.48399L8.57499 7.69144V4.74999Z" fill="black"/>
</g>
<defs>
<clipPath id="clip0_8243_104254">
<rect width="16" height="16" fill="white"/>
</clipPath>
</defs>
</svg>
