<svg xmlns="http://www.w3.org/2000/svg" width="24" height="24" viewBox="0 0 24 24"><path d="M0 0h24v24H0z"/><path fill-rule="evenodd" d="M10.836 4c-3.455 0-6.233 2.747-6.233 6.107 0 .26.027.567.06.776a.75.75 0 01-.556.848C2.586 12.114 1.5 13.443 1.5 15.06c0 1.917 1.532 3.44 3.517 3.44H6A.75.75 0 016 20h-.983C2.23 20 0 17.83 0 15.06a4.9 4.9 0 013.115-4.582 6.423 6.423 0 01-.012-.37c0-4.245 3.445-7.608 7.733-7.608 3.2 0 5.932 1.871 7.113 4.59 3.4.256 6.051 3.006 6.051 6.446 0 3.362-2.593 6.144-5.917 6.46a.75.75 0 01-.142-1.493c2.57-.244 4.559-2.395 4.559-4.967 0-2.759-2.226-4.965-5.069-4.965a.75.75 0 01-.707-.5C15.882 5.697 13.588 4 10.836 4z"/><path fill-rule="evenodd" d="M9.22 16.22a.75.75 0 011.06 0L12 17.94l1.72-1.72a.75.75 0 111.06 1.06L13.06 19l1.72 1.72a.75.75 0 11-1.06 1.06L12 20.06l-1.72 1.72a.75.75 0 11-1.06-1.06L10.94 19l-1.72-1.72a.75.75 0 010-1.06z"/></svg>