<svg xmlns="http://www.w3.org/2000/svg" width="16" height="16" viewBox="0 0 16 16"><path d="M0 0h16v16H0z"/><path d="M3.508 7a3.51 3.51 0 012.022.637.75.75 0 11-.865 1.226A2.008 2.008 0 003.5 8.5a2 2 0 100 4 .75.75 0 010 1.5A3.475 3.475 0 010 10.5c0-1.414.811-2.615 2-3.17v-.08A5.225 5.225 0 017.25 2a5.224 5.224 0 014.765 3.029A4.472 4.472 0 0116 9.5a4.502 4.502 0 01-3.3 4.338.75.75 0 01-.4-1.446 3.002 3.002 0 00.168-5.732 5.4 5.4 0 01-.095 1.753.75.75 0 01-1.464-.326c.06-.268.091-.548.091-.837A3.75 3.75 0 003.508 7z"/><path d="M5.97 11.47a.75.75 0 011.06 0l.97.97.97-.97a.75.75 0 111.06 1.06l-.97.97.97.97a.75.75 0 11-1.06 1.06L8 14.56l-.97.97a.75.75 0 01-1.06-1.06l.97-.97-.97-.97a.75.75 0 010-1.06z"/></svg>