<svg xmlns="http://www.w3.org/2000/svg" width="16" height="16" viewBox="0 0 16 16">
  <defs/>
  <path d="M7.25,2 C6.56,2 5.899,2.13 5.293,2.371 A0.75 0.75 0 1 0 5.847,3.765 C6.277,3.595 6.75,3.5 7.25,3.5 A3.72 3.72 0 0 1 10.791,5.996 A0.75 0.75 0 0 0 11.5,6.5 C13.176,6.5 14.5,7.824 14.5,9.5 A3 3 0 0 1 13.819,11.42 A0.75 0.75 0 0 0 14.975,12.375 A4.496 4.496 0 0 0 16,9.5 A4.472 4.472 0 0 0 12.017,5.029 A5.222 5.222 0 0 0 7.25,2 Z"/>
  <path d="M0.72,1.72 C1.013,1.428 1.487,1.428 1.78,1.72 L4.091,4.03 C4.121,4.055 4.147,4.082 4.171,4.11 L12.702,12.642 C12.714,12.653 12.726,12.664 12.737,12.676 L14.78,14.72 C14.981,14.907 15.063,15.189 14.995,15.454 C14.928,15.72 14.72,15.928 14.454,15.995 C14.189,16.063 13.907,15.981 13.72,15.78 L11.92,13.981 C11.78,13.994 11.64,14 11.5,14 L3.5,14 C2.57,14.007 1.676,13.64 1.018,12.982 C0.36,12.324 -0.007,11.43 0,10.5 C0,9.09 0.809,7.886 2.001,7.33 C1.983,6.414 2.205,5.51 2.647,4.708 L0.72,2.78 C0.428,2.487 0.428,2.013 0.72,1.72 Z M3.5,7.25 C3.504,7.411 3.518,7.572 3.541,7.731 C3.595,8.11 3.355,8.469 2.984,8.564 C2.124,8.784 1.5,9.55 1.5,10.5 C1.5,11.624 2.376,12.5 3.5,12.5 L10.44,12.5 L3.771,5.832 C3.596,6.267 3.5,6.745 3.5,7.25 Z"/>
</svg>

