<svg xmlns="http://www.w3.org/2000/svg" width="16" height="16" viewBox="0 0 16 16"><path d="M0 0h16v16H0z"/><path fill-rule="evenodd" d="M3.508 7a3.51 3.51 0 012.022.637.75.75 0 11-.865 1.226A2.008 2.008 0 003.5 8.5a2 2 0 100 4h8a3 3 0 00.968-5.84 5.4 5.4 0 01-.095 1.753.75.75 0 01-1.464-.326c.06-.268.091-.548.091-.837A3.75 3.75 0 003.508 7zm8.507-1.971A4.472 4.472 0 0116 9.5c0 2.505-1.995 4.5-4.5 4.5h-8A3.475 3.475 0 010 10.5c0-1.414.811-2.615 2-3.17v-.08A5.225 5.225 0 017.25 2a5.224 5.224 0 014.765 3.029z"/></svg>