<svg xmlns="http://www.w3.org/2000/svg" width="16" height="16" viewBox="0 0 16 16"><path d="M7.25 2c-.69 0-1.351.13-1.957.371a.75.75 0 10.554 1.394c.43-.17.903-.265 1.403-.265a3.72 3.72 0 013.541 2.496.75.75 0 00.709.504c1.676 0 3 1.324 3 3a3 3 0 01-.681 1.92.75.75 0 001.156.955A4.496 4.496 0 0016 9.5a4.472 4.472 0 00-3.983-4.471A5.222 5.222 0 007.25 2z"/><path fill-rule="evenodd" d="M.72 1.72a.75.75 0 011.06 0l2.311 2.31c.03.025.056.052.08.08l8.531 8.532a.785.785 0 01.035.034l2.043 2.044a.75.75 0 11-1.06 1.06l-1.8-1.799a4.64 4.64 0 01-.42.019h-8A3.475 3.475 0 010 10.5c0-1.41.809-2.614 2.001-3.17a5.218 5.218 0 01.646-2.622L.72 2.78a.75.75 0 010-1.06zM3.5 7.25c0-.505.096-.983.271-1.418L10.44 12.5H3.5c-1.124 0-2-.876-2-2 0-.95.624-1.716 1.484-1.936a.75.75 0 00.557-.833A4.1 4.1 0 013.5 7.25z"/></svg>