<svg xmlns="http://www.w3.org/2000/svg" width="24" height="24" viewBox="0 0 24 24"><path d="M0 0h24v24H0z"/><path d="M4.603 10.107C4.603 6.747 7.381 4 10.836 4c3.455 0 6.233 2.747 6.233 6.107 0 .469-.052.923-.15 1.358a.75.75 0 001.462.332 7.667 7.667 0 00.053-3.128c2.327.456 4.066 2.471 4.066 4.867 0 2.566-1.994 4.695-4.571 4.94a.75.75 0 00.142 1.494C21.388 19.654 24 16.904 24 13.536c0-3.44-2.651-6.19-6.052-6.445-1.18-2.716-3.91-4.591-7.112-4.591-4.288 0-7.733 3.363-7.733 7.607 0 .125.003.249.01.372A4.897 4.897 0 000 15.059C0 17.831 2.23 20 5.017 20H6a.75.75 0 000-1.5h-.983c-1.955 0-3.517-1.553-3.517-3.44 0-1.888 1.562-3.441 3.517-3.441a3.58 3.58 0 012.052.629.75.75 0 00.854-1.234 5.084 5.084 0 00-2.906-.895c-.14 0-.277.005-.413.016v-.028z"/><path d="M10.28 16.22a.75.75 0 10-1.06 1.06L10.94 19l-1.72 1.72a.75.75 0 101.06 1.06L12 20.06l1.72 1.72a.75.75 0 101.06-1.06L13.06 19l1.72-1.72a.75.75 0 10-1.06-1.06L12 17.94l-1.72-1.72z"/></svg>