<svg xmlns="http://www.w3.org/2000/svg" width="16" height="16" viewBox="0 0 16 16"><path d="M7.25 2C4.328 2 1.946 4.462 2.005 7.327A3.474 3.474 0 000 10.5C0 12.453 1.548 14 3.5 14a.75.75 0 000-1.5c-1.124 0-2-.876-2-2 0-.95.624-1.716 1.484-1.936a.75.75 0 00.557-.833C3.227 5.534 5.015 3.5 7.25 3.5a3.72 3.72 0 013.541 2.496.75.75 0 00.709.504c1.676 0 3 1.324 3 3 0 1.431-.952 2.69-2.196 3.026a.75.75 0 10.392 1.448C14.643 13.447 16 11.556 16 9.5a4.472 4.472 0 00-3.983-4.471A5.222 5.222 0 007.25 2z"/><path d="M7.03 11.47a.75.75 0 00-1.06 1.06l.97.97-.97.97a.75.75 0 101.06 1.06l.97-.97.97.97a.75.75 0 101.06-1.06l-.97-.97.97-.97a.75.75 0 10-1.06-1.06l-.97.97-.97-.97z"/></svg>