<svg xmlns="http://www.w3.org/2000/svg" width="24" height="24" viewBox="0 0 24 24">
  <defs/>
  <path d="M3.103,10.107 C3.103,5.863 6.548,2.5 10.836,2.5 C14.026,2.5 16.748,4.358 17.935,7.063 C17.938,7.07 17.942,7.078 17.945,7.085 L17.946,7.091 C21.348,7.345 24,10.095 24,13.536 C24,17.148 21.076,20 17.431,20 L5.017,20 C2.23,20 0,17.83 0,15.06 C-0.008,13.037 1.228,11.217 3.112,10.479 C3.106,10.355 3.103,10.231 3.103,10.107 Z M10.836,4 C7.351,4 4.603,6.717 4.603,10.107 C4.603,10.391 4.625,10.709 4.655,10.863 C4.73,11.253 4.488,11.634 4.103,11.732 C2.583,12.117 1.5,13.444 1.5,15.06 C1.5,16.977 3.032,18.5 5.017,18.5 L17.431,18.5 C20.274,18.5 22.5,16.294 22.5,13.536 C22.5,10.777 20.274,8.571 17.431,8.571 C17.125,8.571 16.849,8.385 16.735,8.101 L16.556,7.655 C15.606,5.5 13.424,4 10.836,4 Z"/>
</svg>

