<svg xmlns="http://www.w3.org/2000/svg" width="24" height="24" viewBox="0 0 24 24"><path d="M0 0h24v24H0z"/><path fill-rule="evenodd" d="M10.836 4c-3.455 0-6.233 2.747-6.233 6.107v.028c.137-.01.275-.016.414-.016a5.08 5.08 0 012.906.895.75.75 0 01-.854 1.234 3.584 3.584 0 00-2.052-.629c-1.955 0-3.517 1.553-3.517 3.44 0 1.888 1.562 3.441 3.517 3.441h12.414c2.812 0 5.069-2.235 5.069-4.964 0-2.396-1.739-4.411-4.066-4.868a7.667 7.667 0 01-.053 3.129.75.75 0 11-1.463-.332c.099-.435.151-.89.151-1.358 0-3.36-2.778-6.107-6.233-6.107zm7.112 3.09c3.4.255 6.052 3.005 6.052 6.446C24 17.148 21.076 20 17.431 20H5.017C2.23 20 0 17.83 0 15.06c0-2.1 1.28-3.854 3.113-4.581a7.594 7.594 0 01-.01-.372c0-4.244 3.445-7.607 7.733-7.607 3.201 0 5.933 1.875 7.112 4.59z"/></svg>