<svg xmlns="http://www.w3.org/2000/svg" width="24" height="24" viewBox="0 0 24 24">
  <defs/>
  <path d="M2.78,2.22 L22.28,21.72 C22.481,21.907 22.563,22.189 22.495,22.454 C22.428,22.72 22.22,22.928 21.954,22.995 C21.689,23.063 21.407,22.981 21.22,22.78 L18.375,19.935 C18.062,19.978 17.747,20 17.431,20 L5.017,20 C2.229,20 0,17.831 0,15.059 C-0.008,13.037 1.228,11.217 3.111,10.479 C3.027,8.865 3.465,7.267 4.36,5.922 L1.72,3.28 C1.445,2.984 1.453,2.524 1.738,2.238 C2.024,1.953 2.484,1.945 2.78,2.22 Z M16.94,18.5 L5.448,7.01 C4.76,8.169 4.48,9.526 4.654,10.863 C4.729,11.253 4.487,11.634 4.102,11.732 C2.582,12.117 1.499,13.444 1.499,15.06 C1.499,16.977 3.031,18.5 5.016,18.5 Z"/>
  <path d="M10.836,2.5 A7.865 7.865 0 0 0 7.198,3.38 A0.75 0.75 0 1 0 7.89,4.711 A6.365 6.365 0 0 1 10.836,4 C13.424,4 15.606,5.5 16.556,7.655 L16.735,8.1 A0.75 0.75 0 0 0 17.431,8.571 C20.274,8.571 22.5,10.777 22.5,13.536 A4.9 4.9 0 0 1 20.816,17.252 A0.75 0.75 0 0 0 21.802,18.382 A6.396 6.396 0 0 0 24,13.536 C24,10.096 21.348,7.345 17.946,7.091 L17.944,7.085 A0.634 0.634 0 0 0 17.934,7.063 C16.749,4.358 14.026,2.5 10.837,2.5 Z"/>
</svg>

