<svg width="24" height="24" viewBox="0 0 24 24" xmlns="http://www.w3.org/2000/svg">
  <path fill-rule="evenodd" clip-rule="evenodd" d="M7.71967 6.21967C8.01256 5.92678 8.48744 5.92678 8.78033 6.21967C9.07322 6.51256 9.07322 6.98744 8.78033 7.28033L4.06066 12L8.78033 16.7197C9.07322 17.0126 9.07322 17.4874 8.78033 17.7803C8.48744 18.0732 8.01256 18.0732 7.71967 17.7803L2.46967 12.5303C2.17678 12.2374 2.17678 11.7626 2.46967 11.4697L7.71967 6.21967ZM16.2803 6.21967C15.9874 5.92678 15.5126 5.92678 15.2197 6.21967C14.9268 6.51256 14.9268 6.98744 15.2197 7.28033L19.9393 12L15.2197 16.7197C14.9268 17.0126 14.9268 17.4874 15.2197 17.7803C15.5126 18.0732 15.9874 18.0732 16.2803 17.7803L21.5303 12.5303C21.8232 12.2374 21.8232 11.7626 21.5303 11.4697L16.2803 6.21967Z"/>
</svg>
