<svg xmlns="http://www.w3.org/2000/svg" width="16" height="16" viewBox="0 0 16 16"><path d="M0 1.75C0 .784.784 0 1.75 0h12.5C15.216 0 16 .784 16 1.75v12.5A1.75 1.75 0 0114.25 16H1.75A1.75 1.75 0 010 14.25zm1.75-.25a.25.25 0 00-.25.25v12.5c0 .138.112.25.25.25h12.5a.25.25 0 00.25-.25V1.75a.25.25 0 00-.25-.25zm7.47 3.97a.75.75 0 011.06 0l2 2a.75.75 0 010 1.06l-2 2a.749.749 0 01-1.275-.326.749.749 0 01.215-.734L10.69 8 9.22 6.53a.75.75 0 010-1.06zM6.78 6.53L5.31 8l1.47 1.47a.749.749 0 01-.326 1.275.749.749 0 01-.734-.215l-2-2a.75.75 0 010-1.06l2-2a.751.751 0 011.042.018.751.751 0 01.018 1.042z"/></svg>