<svg xmlns="http://www.w3.org/2000/svg" width="24" height="24" viewBox="0 0 24 24">
  <defs/>
  <path d="M3.5,3.75 C3.5,2.784 4.284,2 5.25,2 L18.75,2 C19.716,2 20.5,2.784 20.5,3.75 L20.5,11.25 C20.5,12.216 19.716,13 18.75,13 L5.25,13 C4.284,13 3.5,12.216 3.5,11.25 Z M1.5,15.75 C1.5,14.784 2.284,14 3.25,14 L20.75,14 C21.716,14 22.5,14.784 22.5,15.75 L22.5,19.75 C22.5,20.716 21.716,21.5 20.75,21.5 L3.25,21.5 C2.284,21.5 1.5,20.716 1.5,19.75 Z M5.25,3.5 C5.112,3.5 5,3.612 5,3.75 L5,11.25 C5,11.388 5.112,11.5 5.25,11.5 L18.75,11.5 C18.888,11.5 19,11.388 19,11.25 L19,3.75 C19,3.612 18.888,3.5 18.75,3.5 Z M3.25,15.5 C3.112,15.5 3,15.612 3,15.75 L3,19.75 C3,19.888 3.112,20 3.25,20 L20.75,20 C20.888,20 21,19.888 21,19.75 L21,15.75 C21,15.612 20.888,15.5 20.75,15.5 Z"/>
  <path d="M10,17.75 C10,17.336 10.336,17 10.75,17 L17.25,17 C17.664,17 18,17.336 18,17.75 C18,18.164 17.664,18.5 17.25,18.5 L10.75,18.5 C10.336,18.5 10,18.164 10,17.75 Z M6,17.75 C6,17.336 6.336,17 6.75,17 L7.25,17 C7.664,17 8,17.336 8,17.75 C8,18.164 7.664,18.5 7.25,18.5 L6.75,18.5 C6.336,18.5 6,18.164 6,17.75 Z"/>
</svg>

