<svg xmlns="http://www.w3.org/2000/svg" width="16" height="16" viewBox="0 0 16 16"><path fill-rule="evenodd" d="M0 1.75C0 .784.784 0 1.75 0h12.5C15.216 0 16 .784 16 1.75v2.5a.75.75 0 01-1.5 0v-2.5a.25.25 0 00-.25-.25H1.75a.25.25 0 00-.25.25v2.5a.75.75 0 01-1.5 0v-2.5zm5.28 3.22a.75.75 0 010 1.06L3.31 8l1.97 1.97a.75.75 0 11-1.06 1.06l-2.5-2.5a.75.75 0 010-1.06l2.5-2.5a.75.75 0 011.06 0zm5.44 0a.75.75 0 011.06 0l2.5 2.5a.75.75 0 010 1.06l-2.5 2.5a.75.75 0 11-1.06-1.06L12.69 8l-1.97-1.97a.75.75 0 010-1.06zM.75 11a.75.75 0 01.75.75v2.5c0 .138.112.25.25.25h12.5a.25.25 0 00.25-.25v-2.5a.75.75 0 011.5 0v2.5A1.75 1.75 0 0114.25 16H1.75A1.75 1.75 0 010 14.25v-2.5A.75.75 0 01.75 11z"/></svg>