<svg xmlns="http://www.w3.org/2000/svg" width="16" height="16" viewBox="0 0 16 16">
  <defs/>
  <path d="M1.75,1 L14.25,1 C15.216,1 16,1.784 16,2.75 L16,11.25 C16,12.216 15.216,13 14.25,13 L8.061,13 L5.487,15.573 C5.07,15.989 4.444,16.114 3.899,15.889 C3.355,15.663 3,15.132 3,14.543 L3,13 L1.75,13 C0.784,13 0,12.216 0,11.25 L0,2.75 C0,1.784 0.784,1 1.75,1 Z M1.5,2.75 L1.5,11.25 C1.5,11.388 1.612,11.5 1.75,11.5 L3.75,11.5 C4.164,11.5 4.5,11.836 4.5,12.25 L4.5,14.44 L7.22,11.72 C7.361,11.579 7.551,11.5 7.75,11.5 L14.25,11.5 C14.388,11.5 14.5,11.388 14.5,11.25 L14.5,2.75 C14.5,2.612 14.388,2.5 14.25,2.5 L1.75,2.5 C1.612,2.5 1.5,2.612 1.5,2.75 Z M6.78,4.47 C7.072,4.763 7.072,5.237 6.78,5.53 L5.31,7 L6.78,8.47 C7.055,8.766 7.047,9.226 6.762,9.512 C6.476,9.797 6.016,9.805 5.72,9.53 L3.72,7.53 C3.428,7.237 3.428,6.763 3.72,6.47 L5.72,4.47 C6.013,4.178 6.487,4.178 6.78,4.47 Z M9.22,4.47 C9.513,4.178 9.987,4.178 10.28,4.47 L12.28,6.47 C12.572,6.763 12.572,7.237 12.28,7.53 L10.28,9.53 C9.984,9.805 9.524,9.797 9.238,9.512 C8.953,9.226 8.945,8.766 9.22,8.47 L10.69,7 L9.22,5.53 C8.928,5.237 8.928,4.763 9.22,4.47 Z"/>
</svg>

