<svg xmlns="http://www.w3.org/2000/svg" width="16" height="16" viewBox="0 0 16 16"><path d="M8.47 4.97a.75.75 0 000 1.06L9.94 7.5 8.47 8.97a.75.75 0 101.06 1.06l2-2a.75.75 0 000-1.06l-2-2a.75.75 0 00-1.06 0zM6.53 6.03a.75.75 0 00-1.06-1.06l-2 2a.75.75 0 000 1.06l2 2a.75.75 0 101.06-1.06L5.06 7.5l1.47-1.47z"/><path d="M12.246 13.307a7.501 7.501 0 111.06-1.06l2.474 2.473a.749.749 0 01-.326 1.275.749.749 0 01-.734-.215zM1.5 7.5a6.002 6.002 0 003.608 5.504 6.002 6.002 0 006.486-1.117.748.748 0 01.292-.293A6 6 0 101.5 7.5z"/></svg>