<svg xmlns="http://www.w3.org/2000/svg" width="24" height="24" viewBox="0 0 24 24"><path fill-rule="evenodd" d="M7.72 3.97a.75.75 0 011.06 0L12 7.19l3.22-3.22a.75.75 0 011.063.002l7.432 7.5a.75.75 0 010 1.056l-7.432 7.5a.75.75 0 01-1.063.002L12 16.81l-3.22 3.22a.75.75 0 01-1.06 0l-7.5-7.5a.75.75 0 010-1.06l7.5-7.5zm5.34 11.78l2.688 2.687L22.126 12l-6.378-6.437L13.06 8.25l3.22 3.22a.75.75 0 010 1.06l-3.22 3.22zm-2.12-7.5l-3.22 3.22a.75.75 0 000 1.06l3.22 3.22-2.69 2.69L1.81 12l6.44-6.44 2.69 2.69zM12 9.31L14.69 12 12 14.69 9.31 12 12 9.31z"/></svg>