<svg xmlns="http://www.w3.org/2000/svg" width="16" height="16" viewBox="0 0 16 16"><path fill-rule="evenodd" d="M4.97 2.72a.75.75 0 011.06 0L8 4.69l1.97-1.97a.75.75 0 011.06 0l4.75 4.75a.75.75 0 010 1.06l-4.75 4.75a.75.75 0 01-1.06 0L8 11.31l-1.97 1.97a.75.75 0 01-1.06 0L.22 8.53a.75.75 0 010-1.06l4.75-4.75zm4.09 7.53l1.44 1.44L14.19 8 10.5 4.31 9.06 5.75l1.72 1.72a.75.75 0 010 1.06l-1.72 1.72zm-2.12-4.5L5.22 7.47a.75.75 0 000 1.06l1.72 1.72-1.44 1.44L1.81 8 5.5 4.31l1.44 1.44zM8 6.81L9.19 8 8 9.19 6.81 8 8 6.81z"/></svg>