<svg xmlns="http://www.w3.org/2000/svg" width="16" height="16" viewBox="0 0 16 16">
  <defs/>
  <path d="M10.28,6.28 A0.75 0.75 0 1 0 9.22,5.22 L6.25,8.19 L5.28,7.22 A0.75 0.75 0 0 0 4.22,8.28 L5.72,9.78 A0.75 0.75 0 0 0 6.78,9.78 L10.28,6.28 Z"/>
  <path d="M7.5,15 C3.992,15 0.953,12.569 0.183,9.147 C-0.588,5.725 1.117,2.226 4.286,0.723 C7.455,-0.78 11.243,0.115 13.405,2.877 C15.567,5.638 15.527,9.53 13.307,12.246 L15.78,14.72 C15.981,14.907 16.063,15.189 15.995,15.454 C15.928,15.72 15.72,15.928 15.454,15.995 C15.189,16.063 14.907,15.981 14.72,15.78 L12.246,13.307 C10.908,14.404 9.23,15.002 7.5,15 Z M7.5,1.5 C4.81,1.5 2.448,3.29 1.722,5.881 C0.996,8.471 2.083,11.228 4.381,12.626 C6.68,14.024 9.628,13.722 11.594,11.886 C11.662,11.763 11.764,11.662 11.887,11.594 C13.517,9.847 13.956,7.3 13.004,5.108 C12.051,2.917 9.889,1.5 7.5,1.5 Z"/>
</svg>

