<svg width="16" height="16" viewBox="0 0 16 16" fill="none" xmlns="http://www.w3.org/2000/svg">
<path fill-rule="evenodd" clip-rule="evenodd" d="M2 1.75C2 0.783502 2.7835 0 3.75 0H12.25C13.2165 0 14 0.783502 14 1.75V6.75C14 7.7165 13.2165 8.5 12.25 8.5H3.75C2.7835 8.5 2 7.7165 2 6.75V1.75ZM3.75 1.5C3.61193 1.5 3.5 1.61193 3.5 1.75V6.75C3.5 6.88807 3.61193 7 3.75 7H12.25C12.3881 7 12.5 6.88807 12.5 6.75V1.75C12.5 1.61193 12.3881 1.5 12.25 1.5H3.75Z" fill="#24292E"/>
<path fill-rule="evenodd" clip-rule="evenodd" d="M0 11.25C0 10.2835 0.783502 9.5 1.75 9.5H14.25C15.2165 9.5 16 10.2835 16 11.25V14.25C16 15.2165 15.2165 16 14.25 16H1.75C0.783501 16 0 15.2165 0 14.25V11.25ZM1.75 11C1.61193 11 1.5 11.1119 1.5 11.25V14.25C1.5 14.3881 1.61193 14.5 1.75 14.5H14.25C14.3881 14.5 14.5 14.3881 14.5 14.25V11.25C14.5 11.1119 14.3881 11 14.25 11H1.75Z" fill="#24292E"/>
<path fill-rule="evenodd" clip-rule="evenodd" d="M3 12.75C3 12.3358 3.33579 12 3.75 12H4.25C4.66421 12 5 12.3358 5 12.75C5 13.1642 4.66421 13.5 4.25 13.5H3.75C3.33579 13.5 3 13.1642 3 12.75ZM7 12.75C7 12.3358 7.33579 12 7.75 12H12.25C12.6642 12 13 12.3358 13 12.75C13 13.1642 12.6642 13.5 12.25 13.5H7.75C7.33579 13.5 7 13.1642 7 12.75Z" fill="#24292E"/>
</svg>
