<svg width="24" height="24" viewBox="0 0 24 24" xmlns="http://www.w3.org/2000/svg">
  <path fill-rule="evenodd" clip-rule="evenodd" d="M3.75 4.5C3.6837 4.5 3.62011 4.52634 3.57322 4.57322C3.52634 4.62011 3.5 4.6837 3.5 4.75V16.25C3.5 16.388 3.612 16.5 3.75 16.5H6.75C6.94891 16.5 7.13968 16.579 7.28033 16.7197C7.42098 16.8603 7.5 17.0511 7.5 17.25V20.44L11.22 16.72C11.3605 16.5793 11.5512 16.5002 11.75 16.5H20.25C20.3163 16.5 20.3799 16.4737 20.4268 16.4268C20.4737 16.3799 20.5 16.3163 20.5 16.25V4.75C20.5 4.6837 20.4737 4.62011 20.4268 4.57322C20.3799 4.52634 20.3163 4.5 20.25 4.5H3.75ZM2 4.75C2 3.784 2.784 3 3.75 3H20.25C21.216 3 22 3.784 22 4.75V16.25C22 16.7141 21.8156 17.1592 21.4874 17.4874C21.1592 17.8156 20.7141 18 20.25 18H12.06L8.487 21.573C8.28324 21.7767 8.02367 21.9153 7.74111 21.9715C7.45854 22.0277 7.16567 21.9988 6.8995 21.8886C6.63333 21.7784 6.40581 21.5917 6.24571 21.3522C6.08561 21.1127 6.0001 20.8311 6 20.543V18H3.75C3.28587 18 2.84075 17.8156 2.51256 17.4874C2.18437 17.1592 2 16.7141 2 16.25V4.75ZM10.303 7.243C10.3696 7.31561 10.4213 7.40063 10.455 7.4932C10.4887 7.58578 10.5039 7.68409 10.4996 7.78253C10.4954 7.88097 10.4717 7.9776 10.4301 8.06691C10.3885 8.15621 10.3296 8.23644 10.257 8.303L7.86 10.5L10.257 12.697C10.4037 12.8315 10.4909 13.0187 10.4995 13.2175C10.5082 13.4163 10.4375 13.6103 10.303 13.757C10.1685 13.9037 9.98132 13.9909 9.78253 13.9995C9.58374 14.0082 9.38966 13.9375 9.243 13.803L6.243 11.053C6.16631 10.9827 6.10507 10.8973 6.06318 10.8021C6.02128 10.7069 5.99965 10.604 5.99965 10.5C5.99965 10.396 6.02128 10.2931 6.06318 10.1979C6.10507 10.1027 6.16631 10.0173 6.243 9.947L9.243 7.197C9.31561 7.13039 9.40063 7.07874 9.4932 7.045C9.58578 7.01126 9.68409 6.9961 9.78253 7.00037C9.88097 7.00464 9.9776 7.02827 10.0669 7.0699C10.1562 7.11153 10.2364 7.17035 10.303 7.243V7.243ZM13.743 8.303C13.5963 8.16854 13.5091 7.98132 13.5005 7.78253C13.4918 7.58374 13.5625 7.38966 13.697 7.243C13.8315 7.09634 14.0187 7.00909 14.2175 7.00047C14.4163 6.99184 14.6103 7.06254 14.757 7.197L17.757 9.947C17.8337 10.0173 17.8949 10.1027 17.9368 10.1979C17.9787 10.2931 18.0004 10.396 18.0004 10.5C18.0004 10.604 17.9787 10.7069 17.9368 10.8021C17.8949 10.8973 17.8337 10.9827 17.757 11.053L14.757 13.803C14.6103 13.9375 14.4163 14.0082 14.2175 13.9995C14.0187 13.9909 13.8315 13.9037 13.697 13.757C13.5625 13.6103 13.4918 13.4163 13.5005 13.2175C13.5091 13.0187 13.5963 12.8315 13.743 12.697L16.14 10.5L13.743 8.303Z"/>
</svg>
