<svg xmlns="http://www.w3.org/2000/svg" width="24" height="24" viewBox="0 0 24 24">
  <defs/>
  <path d="M11.97,6.97 A0.75 0.75 0 0 0 11.97,8.03 L14.44,10.5 L11.97,12.97 A0.75 0.75 0 1 0 13.03,14.03 L16.03,11.03 A0.75 0.75 0 0 0 16.03,9.97 L13.03,6.97 A0.75 0.75 0 0 0 11.97,6.97 Z M9.03,8.03 A0.75 0.75 0 0 0 7.97,6.97 L4.97,9.97 A0.75 0.75 0 0 0 4.97,11.03 L7.97,14.03 A0.75 0.75 0 0 0 9.03,12.97 L6.56,10.5 L9.03,8.03 Z"/>
  <path d="M10.5,0 C16.299,0 21,4.701 21,10.5 C21.004,13.026 20.093,15.468 18.436,17.375 L22.78,21.72 C22.981,21.907 23.063,22.189 22.995,22.454 C22.928,22.72 22.72,22.928 22.454,22.995 C22.189,23.063 21.907,22.981 21.72,22.78 L17.375,18.436 C15.533,20.033 13.13,21 10.5,21 C4.701,21 0,16.299 0,10.5 C0,4.701 4.701,0 10.5,0 Z M1.5,10.5 C1.5,15.471 5.529,19.5 10.5,19.5 C15.471,19.5 19.5,15.471 19.5,10.5 C19.5,5.529 15.471,1.5 10.5,1.5 C5.529,1.5 1.5,5.529 1.5,10.5 Z"/>
</svg>

