<svg width="24" height="24" viewBox="0 0 24 24" xmlns="http://www.w3.org/2000/svg">
  <path fill-rule="evenodd" clip-rule="evenodd" d="M19.25 4.5H4.75C4.61193 4.5 4.5 4.61193 4.5 4.75V19.25C4.5 19.3881 4.61193 19.5 4.75 19.5H19.25C19.3881 19.5 19.5 19.3881 19.5 19.25V4.75C19.5 4.61193 19.3881 4.5 19.25 4.5ZM4.75 3C3.7835 3 3 3.7835 3 4.75V19.25C3 20.2165 3.7835 21 4.75 21H19.25C20.2165 21 21 20.2165 21 19.25V4.75C21 3.7835 20.2165 3 19.25 3H4.75ZM13.7197 8.71967C14.0126 8.42678 14.4874 8.42678 14.7803 8.71967L17.5303 11.4697C17.8232 11.7626 17.8232 12.2374 17.5303 12.5303L14.7803 15.2803C14.4874 15.5732 14.0126 15.5732 13.7197 15.2803C13.4268 14.9874 13.4268 14.5126 13.7197 14.2197L15.9393 12L13.7197 9.78033C13.4268 9.48744 13.4268 9.01256 13.7197 8.71967ZM9.21967 8.71967C9.51256 8.42678 9.98744 8.42678 10.2803 8.71967C10.5732 9.01256 10.5732 9.48744 10.2803 9.78033L8.06066 12L10.2803 14.2197C10.5732 14.5126 10.5732 14.9874 10.2803 15.2803C9.98744 15.5732 9.51256 15.5732 9.21967 15.2803L6.46967 12.5303C6.17678 12.2374 6.17678 11.7626 6.46967 11.4697L9.21967 8.71967Z"/>
</svg>
