<svg xmlns="http://www.w3.org/2000/svg" width="16" height="16" viewBox="0 0 16 16">
  <defs/>
  <path d="M0,1.75 C0,0.784 0.784,0 1.75,0 L14.25,0 C15.216,0 16,0.784 16,1.75 L16,14.25 C16,15.216 15.216,16 14.25,16 L1.75,16 C0.784,16 0,15.216 0,14.25 Z M1.75,1.5 C1.612,1.5 1.5,1.612 1.5,1.75 L1.5,14.25 C1.5,14.388 1.612,14.5 1.75,14.5 L14.25,14.5 C14.388,14.5 14.5,14.388 14.5,14.25 L14.5,1.75 C14.5,1.612 14.388,1.5 14.25,1.5 Z M9.22,5.47 C9.513,5.178 9.987,5.178 10.28,5.47 L12.28,7.47 C12.572,7.763 12.572,8.237 12.28,8.53 L10.28,10.53 C10.093,10.731 9.811,10.813 9.546,10.745 C9.28,10.678 9.072,10.47 9.005,10.204 C8.937,9.939 9.019,9.657 9.22,9.47 L10.69,8 L9.22,6.53 C8.928,6.237 8.928,5.763 9.22,5.47 Z M6.78,6.53 L5.31,8 L6.78,9.47 C6.981,9.657 7.063,9.939 6.995,10.204 C6.928,10.47 6.72,10.678 6.454,10.745 C6.189,10.813 5.907,10.731 5.72,10.53 L3.72,8.53 C3.428,8.237 3.428,7.763 3.72,7.47 L5.72,5.47 C6.016,5.195 6.476,5.203 6.762,5.488 C7.047,5.774 7.055,6.234 6.78,6.53 Z"/>
</svg>

