<svg xmlns="http://www.w3.org/2000/svg" width="16" height="16" viewBox="0 0 16 16"><path fill-rule="evenodd" d="M1.75 1.5a.25.25 0 00-.25.25v12.5c0 .138.112.25.25.25h3.5a.75.75 0 010 1.5h-3.5A1.75 1.75 0 010 14.25V1.75C0 .784.784 0 1.75 0h12.5C15.216 0 16 .784 16 1.75v7a.75.75 0 01-1.5 0v-7a.25.25 0 00-.25-.25H1.75zM3 3.75A.75.75 0 013.75 3h2.5a.75.75 0 010 1.5h-2.5A.75.75 0 013 3.75zm5 0A.75.75 0 018.75 3h3.5a.75.75 0 010 1.5h-3.5A.75.75 0 018 3.75zm-4 3A.75.75 0 014.75 6h4.5a.75.75 0 010 1.5h-4.5A.75.75 0 014 6.75zm-1 3A.75.75 0 013.75 9h1.5a.75.75 0 010 1.5h-1.5A.75.75 0 013 9.75zm7.28.97a.75.75 0 010 1.06l-1.47 1.47 1.47 1.47a.75.75 0 11-1.06 1.06l-2-2a.75.75 0 010-1.06l2-2a.75.75 0 011.06 0zm2.44 0a.75.75 0 011.06 0l2 2a.75.75 0 010 1.06l-2 2a.75.75 0 11-1.06-1.06l1.47-1.47-1.47-1.47a.75.75 0 010-1.06z"/></svg>