<svg xmlns="http://www.w3.org/2000/svg" width="16" height="16" viewBox="0 0 16 16"><path d="M2.75 0h2.5C6.216 0 7 .784 7 1.75v12.5A1.75 1.75 0 015.25 16h-2.5A1.75 1.75 0 011 14.25V1.75C1 .784 1.784 0 2.75 0zm8 0h2.5C14.216 0 15 .784 15 1.75v12.5A1.75 1.75 0 0113.25 16h-2.5A1.75 1.75 0 019 14.25V1.75C9 .784 9.784 0 10.75 0zM2.5 1.75v12.5c0 .138.112.25.25.25h2.5a.25.25 0 00.25-.25V1.75a.25.25 0 00-.25-.25h-2.5a.25.25 0 00-.25.25zm8 0v12.5c0 .138.112.25.25.25h2.5a.25.25 0 00.25-.25V1.75a.25.25 0 00-.25-.25h-2.5a.25.25 0 00-.25.25z"/></svg>