<svg xmlns="http://www.w3.org/2000/svg" width="16" height="17" viewBox="0 0 16 17"><path fill-rule="evenodd" d="M1.75.75A1.75 1.75 0 000 2.5V15c0 .966.784 1.75 1.75 1.75h4A1.75 1.75 0 007.5 15V2.5A1.75 1.75 0 005.75.75h-4zM1.5 2.5a.25.25 0 01.25-.25h4A.25.25 0 016 2.5V15a.25.25 0 01-.25.25h-4A.25.25 0 011.5 15V2.5zM10.25.75A1.75 1.75 0 008.5 2.5V15c0 .966.784 1.75 1.75 1.75h4A1.75 1.75 0 0016 15V2.5A1.75 1.75 0 0014.25.75h-4zM10 2.5a.25.25 0 01.25-.25h4a.25.25 0 01.25.25V15a.25.25 0 01-.25.25h-4A.25.25 0 0110 15V2.5z"/></svg>