<svg xmlns="http://www.w3.org/2000/svg" width="24" height="25" viewBox="0 0 24 25"><path fill-rule="evenodd" d="M2 4.25c0-.966.784-1.75 1.75-1.75h5.5c.966 0 1.75.784 1.75 1.75v16.5a1.75 1.75 0 01-1.75 1.75h-5.5A1.75 1.75 0 012 20.75V4.25zM3.75 4a.25.25 0 00-.25.25v16.5c0 .138.112.25.25.25h5.5a.25.25 0 00.25-.25V4.25A.25.25 0 009.25 4h-5.5zm9.25.25c0-.966.784-1.75 1.75-1.75h5.5c.966 0 1.75.784 1.75 1.75v16.5a1.75 1.75 0 01-1.75 1.75h-5.5A1.75 1.75 0 0113 20.75V4.25zM14.75 4a.25.25 0 00-.25.25v16.5c0 .138.112.25.25.25h5.5a.25.25 0 00.25-.25V4.25a.25.25 0 00-.25-.25h-5.5z"/></svg>