<svg xmlns="http://www.w3.org/2000/svg" width="16" height="17" viewBox="0 0 16 17"><path fill-rule="evenodd" d="M0 2.5C0 1.534.784.75 1.75.75h4c.966 0 1.75.784 1.75 1.75V15a1.75 1.75 0 01-1.75 1.75h-4A1.75 1.75 0 010 15V2.5zm1.75-.25a.25.25 0 00-.25.25V15c0 .138.112.25.25.25h4A.25.25 0 006 15V2.5a.25.25 0 00-.25-.25h-4zm6.75.25c0-.966.784-1.75 1.75-1.75h4c.966 0 1.75.784 1.75 1.75V15a1.75 1.75 0 01-1.75 1.75h-4A1.75 1.75 0 018.5 15V2.5zm1.75-.25a.25.25 0 00-.25.25V15c0 .138.112.25.25.25h4a.25.25 0 00.25-.25V2.5a.25.25 0 00-.25-.25h-4z"/></svg>