<svg xmlns="http://www.w3.org/2000/svg" width="24" height="24" viewBox="0 0 24 24">
  <defs/>
  <path d="M3.75,2 L9.25,2 C10.216,2 11,2.784 11,3.75 L11,20.25 C11,21.216 10.216,22 9.25,22 L3.75,22 C2.784,22 2,21.216 2,20.25 L2,3.75 C2,2.784 2.784,2 3.75,2 Z M14.75,2 L20.25,2 C21.216,2 22,2.784 22,3.75 L22,20.25 C22,21.216 21.216,22 20.25,22 L14.75,22 C13.784,22 13,21.216 13,20.25 L13,3.75 C13,2.784 13.784,2 14.75,2 Z M3.5,3.75 L3.5,20.25 C3.5,20.388 3.612,20.5 3.75,20.5 L9.25,20.5 C9.388,20.5 9.5,20.388 9.5,20.25 L9.5,3.75 C9.5,3.612 9.388,3.5 9.25,3.5 L3.75,3.5 C3.612,3.5 3.5,3.612 3.5,3.75 Z M14.5,3.75 L14.5,20.25 C14.5,20.388 14.612,20.5 14.75,20.5 L20.25,20.5 C20.388,20.5 20.5,20.388 20.5,20.25 L20.5,3.75 C20.5,3.612 20.388,3.5 20.25,3.5 L14.75,3.5 C14.612,3.5 14.5,3.612 14.5,3.75 Z"/>
</svg>

