<svg xmlns="http://www.w3.org/2000/svg" width="16" height="16" viewBox="0 0 16 16"><path fill-rule="evenodd" d="M2.75 0A1.75 1.75 0 001 1.75v12.5c0 .966.784 1.75 1.75 1.75h2.5A1.75 1.75 0 007 14.25V1.75A1.75 1.75 0 005.25 0h-2.5zM2.5 1.75a.25.25 0 01.25-.25h2.5a.25.25 0 01.25.25v12.5a.25.25 0 01-.25.25h-2.5a.25.25 0 01-.25-.25V1.75zM10.75 0A1.75 1.75 0 009 1.75v12.5c0 .966.784 1.75 1.75 1.75h2.5A1.75 1.75 0 0015 14.25V1.75A1.75 1.75 0 0013.25 0h-2.5zm-.25 1.75a.25.25 0 01.25-.25h2.5a.25.25 0 01.25.25v12.5a.25.25 0 01-.25.25h-2.5a.25.25 0 01-.25-.25V1.75z"/></svg>