<svg xmlns="http://www.w3.org/2000/svg" width="16" height="16" viewBox="0 0 16 16"><path fill-rule="evenodd" d="M1.75 0A1.75 1.75 0 000 1.75v12.5C0 15.216.784 16 1.75 16h4a1.75 1.75 0 001.75-1.75V1.75A1.75 1.75 0 005.75 0h-4zM1.5 1.75a.25.25 0 01.25-.25h4a.25.25 0 01.25.25v12.5a.25.25 0 01-.25.25h-4a.25.25 0 01-.25-.25V1.75zM10.25 0A1.75 1.75 0 008.5 1.75v12.5c0 .966.784 1.75 1.75 1.75h4A1.75 1.75 0 0016 14.25V1.75A1.75 1.75 0 0014.25 0h-4zM10 1.75a.25.25 0 01.25-.25h4a.25.25 0 01.25.25v12.5a.25.25 0 01-.25.25h-4a.25.25 0 01-.25-.25V1.75z"/></svg>