<svg xmlns="http://www.w3.org/2000/svg" width="24" height="25" viewBox="0 0 24 25"><path fill-rule="evenodd" d="M3.75 2.5A1.75 1.75 0 002 4.25v16.5c0 .966.784 1.75 1.75 1.75h5.5A1.75 1.75 0 0011 20.75V4.25A1.75 1.75 0 009.25 2.5h-5.5zM3.5 4.25A.25.25 0 013.75 4h5.5a.25.25 0 01.25.25v16.5a.25.25 0 01-.25.25h-5.5a.25.25 0 01-.25-.25V4.25zM14.75 2.5A1.75 1.75 0 0013 4.25v16.5c0 .966.784 1.75 1.75 1.75h5.5A1.75 1.75 0 0022 20.75V4.25a1.75 1.75 0 00-1.75-1.75h-5.5zm-.25 1.75a.25.25 0 01.25-.25h5.5a.25.25 0 01.25.25v16.5a.25.25 0 01-.25.25h-5.5a.25.25 0 01-.25-.25V4.25z"/></svg>