<svg xmlns="http://www.w3.org/2000/svg" width="24" height="24" viewBox="0 0 24 24"><path d="M11.25 2.5a.75.75 0 0 1 0 1.5h-8a.25.25 0 0 0-.25.25v12.5c0 .138.112.25.25.25h2.5c.199 0 .39.079.53.22.141.14.22.331.22.53v3.195l3.743-3.725a.75.75 0 0 1 .53-.22h9.977a.25.25 0 0 0 .25-.25v-4.5a.75.75 0 0 1 1.5 0v4.5c0 .464-.184.909-.513 1.237a1.746 1.746 0 0 1-1.237.513h-9.684l-3.579 3.57a1.45 1.45 0 0 1-1.588.316A1.456 1.456 0 0 1 5 21.04V18.5H3.25a1.75 1.75 0 0 1-1.75-1.75V4.25c0-.966.784-1.75 1.75-1.75h8ZM17.748 1a.33.33 0 0 1 .192.061.33.33 0 0 1 .124.161l.323.88a5.051 5.051 0 0 0 3.008 3.007l.879.323a.332.332 0 0 1 .221.316.336.336 0 0 1-.221.316l-.879.323a5.034 5.034 0 0 0-1.836 1.172 5.034 5.034 0 0 0-1.172 1.836l-.323.879a.334.334 0 0 1-.316.221.332.332 0 0 1-.316-.221l-.323-.879a5.045 5.045 0 0 0-3.007-3.008l-.88-.323a.337.337 0 0 1 0-.632l.88-.323a5.062 5.062 0 0 0 1.836-1.171 5.062 5.062 0 0 0 1.171-1.836l.323-.88A.333.333 0 0 1 17.748 1Z"/></svg>