<svg xmlns="http://www.w3.org/2000/svg" width="16" height="16" viewBox="0 0 16 16">
  <defs/>
  <path d="M1,2.75 C1,1.784 1.784,1 2.75,1 L13.25,1 C14.216,1 15,1.784 15,2.75 L15,10.25 C15,11.216 14.216,12 13.25,12 L9.06,12 L6.487,14.573 C6.07,14.989 5.444,15.114 4.899,14.889 C4.355,14.663 4,14.132 4,13.543 L4,12 L2.75,12 C1.784,12 1,11.216 1,10.25 Z M2.75,2.5 C2.612,2.5 2.5,2.612 2.5,2.75 L2.5,10.25 C2.5,10.388 2.612,10.5 2.75,10.5 L4.75,10.5 C5.164,10.5 5.5,10.836 5.5,11.25 L5.5,13.44 L8.22,10.72 C8.361,10.579 8.551,10.5 8.75,10.5 L13.25,10.5 C13.388,10.5 13.5,10.388 13.5,10.25 L13.5,2.75 C13.5,2.612 13.388,2.5 13.25,2.5 Z"/>
</svg>

