<svg width="16" height="16" viewBox="0 0 16 16" fill="none" xmlns="http://www.w3.org/2000/svg">
<path d="M6.35433 8.04001L1.58136 12.813C1.28847 13.1059 1.28847 13.5807 1.58137 13.8736C1.87426 14.1665 2.34913 14.1665 2.64202 13.8736L7.94532 8.57034C8.23822 8.27745 8.23822 7.80257 7.94532 7.50968L2.64202 2.20638C2.34913 1.91349 1.87426 1.91349 1.58136 2.20638C1.28847 2.49927 1.28847 2.97415 1.58136 3.26704L6.35433 8.04001Z" fill="black"/>
<path d="M8.75001 11.5C8.3358 11.5 8.00001 11.8358 8.00001 12.25C8.00001 12.6642 8.3358 13 8.75001 13H14.25C14.6642 13 15 12.6642 15 12.25C15 11.8358 14.6642 11.5 14.25 11.5H8.75001Z" fill="black"/>
</svg>
