<svg width="24" height="24" viewBox="0 0 24 24" xmlns="http://www.w3.org/2000/svg">
  <path fill-rule="evenodd" clip-rule="evenodd" d="M3.5 4.75C3.5 4.6837 3.52634 4.62011 3.57322 4.57322C3.62011 4.52634 3.6837 4.5 3.75 4.5H14.25C14.3163 4.5 14.3799 4.52634 14.4268 4.57322C14.4737 4.62011 14.5 4.6837 14.5 4.75V12.25C14.5 12.3163 14.4737 12.3799 14.4268 12.4268C14.3799 12.4737 14.3163 12.5 14.25 12.5H8.75C8.55115 12.5002 8.36052 12.5793 8.22 12.72L5.5 15.44V13.25C5.5 13.0511 5.42098 12.8603 5.28033 12.7197C5.13968 12.579 4.94891 12.5 4.75 12.5H3.75C3.6837 12.5 3.62011 12.4737 3.57322 12.4268C3.52634 12.3799 3.5 12.3163 3.5 12.25V4.75ZM3.75 3C3.28587 3 2.84075 3.18437 2.51256 3.51256C2.18437 3.84075 2 4.28587 2 4.75V12.25C2 13.216 2.784 14 3.75 14H4V15.543C4.0001 15.8311 4.08561 16.1127 4.24571 16.3522C4.40581 16.5917 4.63333 16.7784 4.8995 16.8886C5.16567 16.9988 5.45854 17.0277 5.74111 16.9715C6.02367 16.9153 6.28324 16.7767 6.487 16.573L9.061 14H14.25C14.7141 14 15.1592 13.8156 15.4874 13.4874C15.8156 13.1592 16 12.7141 16 12.25V4.75C16 4.28587 15.8156 3.84075 15.4874 3.51256C15.1592 3.18437 14.7141 3 14.25 3H3.75ZM20.5 8.75C20.5 8.6837 20.4737 8.62011 20.4268 8.57322C20.3799 8.52634 20.3163 8.5 20.25 8.5H17.75C17.5511 8.5 17.3603 8.42098 17.2197 8.28033C17.079 8.13968 17 7.94891 17 7.75C17 7.55109 17.079 7.36032 17.2197 7.21967C17.3603 7.07902 17.5511 7 17.75 7H20.25C21.216 7 22 7.784 22 8.75V16.25C22 16.7141 21.8156 17.1592 21.4874 17.4874C21.1592 17.8156 20.7141 18 20.25 18H20V19.543C19.9999 19.8311 19.9144 20.1127 19.7543 20.3522C19.5942 20.5917 19.3667 20.7784 19.1005 20.8886C18.8343 20.9988 18.5415 21.0277 18.2589 20.9715C17.9763 20.9153 17.7168 20.7767 17.513 20.573L14.939 18H10.75C10.2859 18 9.84075 17.8156 9.51256 17.4874C9.18437 17.1592 9 16.7141 9 16.25V15.786C9 15.5871 9.07902 15.3963 9.21967 15.2557C9.36032 15.115 9.55109 15.036 9.75 15.036C9.94891 15.036 10.1397 15.115 10.2803 15.2557C10.421 15.3963 10.5 15.5871 10.5 15.786V16.25C10.5 16.388 10.612 16.5 10.75 16.5H15.25C15.4488 16.5002 15.6395 16.5793 15.78 16.72L18.5 19.44V17.25C18.5 17.0511 18.579 16.8603 18.7197 16.7197C18.8603 16.579 19.0511 16.5 19.25 16.5H20.25C20.3163 16.5 20.3799 16.4737 20.4268 16.4268C20.4737 16.3799 20.5 16.3163 20.5 16.25V8.75Z"/>
</svg>
