<svg width="24" height="24" viewBox="0 0 24 24" fill="none" xmlns="http://www.w3.org/2000/svg">
<path d="M3.04505 18.8943L9.93934 12L3.04505 5.10571C2.75216 4.81282 2.75216 4.33794 3.04505 4.04505C3.33794 3.75216 3.81282 3.75215 4.10571 4.04505L11.5303 11.4697C11.8232 11.7626 11.8232 12.2374 11.5303 12.5303L4.10571 19.955C3.81282 20.2478 3.33794 20.2478 3.04505 19.955C2.75216 19.6621 2.75215 19.1872 3.04505 18.8943Z" fill="black"/>
<path d="M11.25 19.5C10.8358 19.5 10.5 19.8358 10.5 20.25C10.5 20.6642 10.8358 21 11.25 21H20.75C21.1642 21 21.5 20.6642 21.5 20.25C21.5 19.8358 21.1642 19.5 20.75 19.5L11.25 19.5Z" fill="black"/>
</svg>
