<svg xmlns="http://www.w3.org/2000/svg" width="16" height="16" viewBox="0 0 16 16" fill="none"><g clip-path="url(#a)"><path fill="#000" d="M14.515.456a1.555 1.555 0 0 0-2.2 0L6.58 6.19a1.556 1.556 0 0 0-.396.673l-.825 2.89a.667.667 0 0 0 .824.824l2.89-.826c.254-.072.485-.209.672-.396l5.735-5.734a1.556 1.556 0 0 0 0-2.2l-.965-.965Zm-1.257.942a.222.222 0 0 1 .314 0l.965.966a.221.221 0 0 1 0 .314L13.415 3.8l-1.28-1.28 1.123-1.122Zm-2.065 2.066 1.279 1.279-3.67 3.67a.221.221 0 0 1-.096.056l-1.736.496.496-1.736c.01-.036.03-.07.057-.096l3.67-3.669Z"/><path stroke="#000" stroke-linecap="round" stroke-width="1.5" d="M7 1.75H1.75a1 1 0 0 0-1 1v11.5a1 1 0 0 0 1 1h11.5a1 1 0 0 0 1-1V8.5"/></g><defs><clipPath id="a"><path fill="#fff" d="M0 0h16v16H0z"/></clipPath></defs></svg>