<svg width="16" height="16" viewBox="0 0 16 16" fill="none" xmlns="http://www.w3.org/2000/svg">
<g clip-path="url(#clip0_4_2)">
<path d="M14.515 0.45599C14.3706 0.31146 14.1991 0.196806 14.0104 0.11858C13.8216 0.0403549 13.6193 9.15527e-05 13.415 9.15527e-05C13.2107 9.15527e-05 13.0084 0.0403549 12.8196 0.11858C12.6309 0.196806 12.4594 0.31146 12.315 0.45599L6.58 6.18999C6.39294 6.37702 6.25665 6.60864 6.184 6.86299L5.359 9.75299C5.3265 9.86727 5.32512 9.98815 5.35499 10.1031C5.38487 10.2181 5.44492 10.3231 5.52892 10.4071C5.61293 10.4911 5.71786 10.5511 5.83285 10.581C5.94784 10.6109 6.06872 10.6095 6.183 10.577L9.073 9.75099C9.327 9.67899 9.558 9.54199 9.745 9.35499L15.48 3.62099C15.7716 3.3292 15.9355 2.93354 15.9355 2.52099C15.9355 2.10844 15.7716 1.71278 15.48 1.42099L14.515 0.45599ZM13.258 1.39799C13.2786 1.37737 13.3031 1.36101 13.33 1.34985C13.357 1.33869 13.3858 1.33294 13.415 1.33294C13.4442 1.33294 13.473 1.33869 13.5 1.34985C13.5269 1.36101 13.5514 1.37737 13.572 1.39799L14.537 2.36399C14.5577 2.38454 14.5742 2.40899 14.5854 2.43594C14.5967 2.46289 14.6025 2.49179 14.6025 2.52099C14.6025 2.55019 14.5967 2.57909 14.5854 2.60604C14.5742 2.63299 14.5577 2.65744 14.537 2.67799L13.415 3.79999L12.135 2.51999L13.258 1.39799ZM11.193 3.46399L12.472 4.74299L8.802 8.41299C8.77529 8.43953 8.74225 8.45881 8.706 8.46899L6.97 8.96499L7.466 7.22899C7.476 7.19299 7.496 7.15899 7.523 7.13299L11.193 3.46399Z" fill="black"/>
<path d="M0 14.25V2.75C0 2.28587 0.184507 1.84088 0.512695 1.5127C0.840884 1.18451 1.28587 1 1.75 1H7C7.41421 1 7.75 1.33579 7.75 1.75C7.75 2.16421 7.41421 2.5 7 2.5H1.75C1.6837 2.5 1.62013 2.52636 1.57324 2.57324C1.52636 2.62013 1.5 2.6837 1.5 2.75V14.25C1.5 14.3163 1.52636 14.3799 1.57324 14.4268C1.62013 14.4736 1.6837 14.5 1.75 14.5H13.25C13.3163 14.5 13.3799 14.4736 13.4268 14.4268C13.4736 14.3799 13.5 14.3163 13.5 14.25V8.5C13.5 8.08579 13.8358 7.75 14.25 7.75C14.6642 7.75 15 8.08579 15 8.5V14.25C15 14.7141 14.8155 15.1591 14.4873 15.4873C14.1591 15.8155 13.7141 16 13.25 16H1.75C1.28587 16 0.840884 15.8155 0.512695 15.4873C0.184507 15.1591 0 14.7141 0 14.25Z" fill="black"/>
</g>
<defs>
<clipPath id="clip0_4_2">
<rect width="16" height="16" fill="white"/>
</clipPath>
</defs>
</svg>
