<svg xmlns="http://www.w3.org/2000/svg" width="24" height="24" viewBox="0 0 24 24" fill="none"><path stroke="#000" stroke-linecap="round" stroke-width="1.5" d="M10.26 3H2.75a1 1 0 0 0-1 1v17.25a1 1 0 0 0 1 1H20a1 1 0 0 0 1-1V13"/><path fill="#000" fill-rule="evenodd" d="M19.013 1.427a1.75 1.75 0 0 1 2.474 0l1.086 1.086a1.75 1.75 0 0 1 0 2.474l-8.61 8.61c-.21.21-.47.364-.756.445l-3.25.929a.75.75 0 0 1-.928-.927l.929-3.25c.082-.287.235-.547.445-.758l8.61-8.61Zm-7.55 9.67a.25.25 0 0 0-.063.108l-.558 1.953 1.953-.558a.25.25 0 0 0 .108-.064L19.19 6.25 17.75 4.81l-6.286 6.287Zm8.964-8.61a.25.25 0 0 0-.354 0L18.811 3.75l1.439 1.44 1.263-1.263a.25.25 0 0 0 0-.354l-1.086-1.086Z" clip-rule="evenodd"/></svg>