<svg xmlns="http://www.w3.org/2000/svg" width="16" height="16" viewBox="0 0 16 16">
  <defs/>
  <path d="M10.41,0.24 L15.121,3.014 C15.665,3.33 15.999,3.911 16,4.54 L16,9.55 C16,10.18 15.665,10.763 15.12,11.08 L7.367,15.601 L7.365,15.602 C6.817,15.92 6.139,15.92 5.591,15.602 L5.59,15.602 L0.873,12.85 C0.332,12.534 -0.001,11.954 0,11.327 L0,6.292 C0,5.988 0.078,5.694 0.22,5.437 L0.224,5.432 L0.234,5.413 C0.384,5.151 0.603,4.927 0.874,4.77 L8.641,0.239 C9.186,-0.079 9.861,-0.079 10.406,0.239 L10.408,0.24 Z M9.397,1.534 L2.227,5.716 L6.343,8.104 C6.426,8.152 6.529,8.152 6.612,8.104 L13.764,3.956 L9.649,1.534 C9.571,1.489 9.475,1.489 9.397,1.534 Z M1.629,11.554 L5.729,13.947 L5.729,9.474 C5.682,9.452 5.636,9.428 5.591,9.402 L1.5,7.029 L1.5,11.327 C1.5,11.422 1.55,11.508 1.629,11.554 Z M10.229,12.196 L11.75,11.309 L11.75,6.859 L10.229,7.741 Z M7.365,9.402 L7.366,9.402 C7.322,9.428 7.276,9.451 7.23,9.473 L7.23,13.945 L8.73,13.07 L8.73,8.61 Z M13.25,10.434 L14.365,9.784 L14.367,9.784 C14.45,9.736 14.5,9.648 14.5,9.552 L14.5,5.264 L13.25,5.989 Z"/>
</svg>

