<svg width="24" height="24" viewBox="0 0 24 24" xmlns="http://www.w3.org/2000/svg">
  <path fill-rule="evenodd" clip-rule="evenodd" d="M4.75 3C3.7835 3 3 3.7835 3 4.75V14.25C3 15.2165 3.7835 16 4.75 16H6.25C6.66421 16 7 15.6642 7 15.25C7 14.8358 6.66421 14.5 6.25 14.5H4.75C4.61193 14.5 4.5 14.3881 4.5 14.25V4.75C4.5 4.61193 4.61193 4.5 4.75 4.5H14.25C14.3881 4.5 14.5 4.61193 14.5 4.75V6.25C14.5 6.66421 14.8358 7 15.25 7C15.6642 7 16 6.66421 16 6.25V4.75C16 3.7835 15.2165 3 14.25 3H4.75ZM9.75 8C8.7835 8 8 8.7835 8 9.75V19.25C8 20.2165 8.7835 21 9.75 21H19.25C20.2165 21 21 20.2165 21 19.25V9.75C21 8.7835 20.2165 8 19.25 8H9.75ZM9.5 9.75C9.5 9.61193 9.61193 9.5 9.75 9.5H19.25C19.3881 9.5 19.5 9.61193 19.5 9.75V19.25C19.5 19.3881 19.3881 19.5 19.25 19.5H9.75C9.61193 19.5 9.5 19.3881 9.5 19.25V9.75Z"/>
</svg>
