<svg xmlns="http://www.w3.org/2000/svg" width="24" height="24" viewBox="0 0 24 24">
  <defs/>
  <path d="M8.75,8 L15.25,8 C15.664,8 16,8.336 16,8.75 L16,15.25 C16,15.664 15.664,16 15.25,16 L8.75,16 C8.336,16 8,15.664 8,15.25 L8,8.75 C8,8.336 8.336,8 8.75,8 Z M9.5,14.5 L14.5,14.5 L14.5,9.5 L9.5,9.5 Z"/>
  <path d="M15.25,1 C15.664,1 16,1.336 16,1.75 L16,4 L18.25,4 C19.216,4 20,4.784 20,5.75 L20,8 L22.25,8 C22.664,8 23,8.336 23,8.75 C23,9.164 22.664,9.5 22.25,9.5 L20,9.5 L20,14.5 L22.25,14.5 C22.664,14.5 23,14.836 23,15.25 C23,15.664 22.664,16 22.25,16 L20,16 L20,18.25 C20,19.216 19.216,20 18.25,20 L16,20 L16,22.25 C16,22.664 15.664,23 15.25,23 C14.836,23 14.5,22.664 14.5,22.25 L14.5,20 L9.5,20 L9.5,22.25 C9.5,22.664 9.164,23 8.75,23 C8.336,23 8,22.664 8,22.25 L8,20 L5.75,20 C4.784,20 4,19.216 4,18.25 L4,16 L1.75,16 C1.336,16 1,15.664 1,15.25 C1,14.836 1.336,14.5 1.75,14.5 L4,14.5 L4,9.5 L1.75,9.5 C1.336,9.5 1,9.164 1,8.75 C1,8.336 1.336,8 1.75,8 L4,8 L4,5.75 C4,4.784 4.784,4 5.75,4 L8,4 L8,1.75 C8,1.336 8.336,1 8.75,1 C9.164,1 9.5,1.336 9.5,1.75 L9.5,4 L14.5,4 L14.5,1.75 C14.5,1.336 14.836,1 15.25,1 Z M18.25,18.5 C18.388,18.5 18.5,18.388 18.5,18.25 L18.5,5.75 C18.5,5.612 18.388,5.5 18.25,5.5 L5.75,5.5 C5.612,5.5 5.5,5.612 5.5,5.75 L5.5,18.25 C5.5,18.388 5.612,18.5 5.75,18.5 Z"/>
</svg>

