<svg xmlns="http://www.w3.org/2000/svg" width="16" height="16" viewBox="0 0 16 16"><path d="M6.5.75V2h3V.75a.75.75 0 011.5 0V2h1.25c.966 0 1.75.784 1.75 1.75V5h1.25a.75.75 0 010 1.5H14v3h1.25a.75.75 0 010 1.5H14v1.25A1.75 1.75 0 0112.25 14H11v1.25a.75.75 0 01-1.5 0V14h-3v1.25a.75.75 0 01-1.5 0V14H3.75A1.75 1.75 0 012 12.25V11H.75a.75.75 0 010-1.5H2v-3H.75a.75.75 0 010-1.5H2V3.75C2 2.784 2.784 2 3.75 2H5V.75a.75.75 0 011.5 0zm5.75 11.75a.25.25 0 00.25-.25v-8.5a.25.25 0 00-.25-.25h-8.5a.25.25 0 00-.25.25v8.5c0 .138.112.25.25.25zM5.75 5h4.5a.75.75 0 01.75.75v4.5a.75.75 0 01-.75.75h-4.5a.75.75 0 01-.75-.75v-4.5A.75.75 0 015.75 5zm.75 4.5h3v-3h-3z"/></svg>