<svg width="16" height="16" viewBox="0 0 16 16" xmlns="http://www.w3.org/2000/svg">
  <path fill-rule="evenodd" clip-rule="evenodd" d="M16 1.25V5.396C16.0001 5.44551 15.9855 5.49393 15.958 5.53513C15.9305 5.57632 15.8915 5.60843 15.8457 5.62739C15.8 5.64635 15.7497 5.6513 15.7011 5.64162C15.6525 5.63194 15.608 5.60805 15.573 5.573L14.03 4.03L10.28 7.78C10.2113 7.85369 10.1285 7.91279 10.0365 7.95378C9.94454 7.99477 9.84523 8.01682 9.74452 8.01859C9.64382 8.02037 9.54379 8.00184 9.4504 7.96412C9.35701 7.9264 9.27218 7.87026 9.20096 7.79904C9.12974 7.72782 9.0736 7.64299 9.03588 7.5496C8.99816 7.45621 8.97963 7.35618 8.98141 7.25548C8.98318 7.15478 9.00523 7.05546 9.04622 6.96346C9.08721 6.87146 9.14631 6.78866 9.22 6.72L12.97 2.97L11.427 1.427C11.3919 1.39204 11.3681 1.34745 11.3584 1.2989C11.3487 1.25034 11.3536 1.20001 11.3726 1.15427C11.3916 1.10853 11.4237 1.06945 11.4649 1.04199C11.5061 1.01453 11.5545 0.999912 11.604 1H15.75C15.8163 1 15.8799 1.02634 15.9268 1.07322C15.9737 1.12011 16 1.1837 16 1.25ZM2.75 3.5C2.6837 3.5 2.62011 3.52634 2.57322 3.57322C2.52634 3.62011 2.5 3.6837 2.5 3.75V11.25C2.5 11.388 2.612 11.5 2.75 11.5H4.75C4.94891 11.5 5.13968 11.579 5.28033 11.7197C5.42098 11.8603 5.5 12.0511 5.5 12.25V14.44L8.22 11.72C8.36052 11.5793 8.55115 11.5002 8.75 11.5H13.25C13.3163 11.5 13.3799 11.4737 13.4268 11.4268C13.4737 11.3799 13.5 11.3163 13.5 11.25V8.75C13.5 8.55109 13.579 8.36032 13.7197 8.21967C13.8603 8.07902 14.0511 8 14.25 8C14.4489 8 14.6397 8.07902 14.7803 8.21967C14.921 8.36032 15 8.55109 15 8.75V11.25C15 11.7141 14.8156 12.1592 14.4874 12.4874C14.1592 12.8156 13.7141 13 13.25 13H9.06L6.487 15.573C6.28324 15.7767 6.02367 15.9153 5.74111 15.9715C5.45854 16.0277 5.16567 15.9988 4.8995 15.8886C4.63333 15.7784 4.40581 15.5917 4.24571 15.3522C4.08561 15.1127 4.0001 14.8311 4 14.543V13H2.75C2.28587 13 1.84075 12.8156 1.51256 12.4874C1.18437 12.1592 1 11.7141 1 11.25V3.75C1 2.784 1.784 2 2.75 2H8.25C8.44891 2 8.63968 2.07902 8.78033 2.21967C8.92098 2.36032 9 2.55109 9 2.75C9 2.94891 8.92098 3.13968 8.78033 3.28033C8.63968 3.42098 8.44891 3.5 8.25 3.5H2.75Z"/>
</svg>
