<svg width="24" height="24" viewBox="0 0 24 24" xmlns="http://www.w3.org/2000/svg">
  <path d="M16 2.75C16 2.55109 16.079 2.36032 16.2197 2.21967C16.3603 2.07902 16.5511 2 16.75 2H21.25C21.4489 2 21.6397 2.07902 21.7803 2.21967C21.921 2.36032 22 2.55109 22 2.75V7.25C22 7.44891 21.921 7.63968 21.7803 7.78033C21.6397 7.92098 21.4489 8 21.25 8C21.0511 8 20.8603 7.92098 20.7197 7.78033C20.579 7.63968 20.5 7.44891 20.5 7.25V4.56L14.28 10.78C14.2113 10.8537 14.1285 10.9128 14.0365 10.9538C13.9445 10.9948 13.8452 11.0168 13.7445 11.0186C13.6438 11.0204 13.5438 11.0018 13.4504 10.9641C13.357 10.9264 13.2722 10.8703 13.201 10.799C13.1297 10.7278 13.0736 10.643 13.0359 10.5496C12.9982 10.4562 12.9796 10.3562 12.9814 10.2555C12.9832 10.1548 13.0052 10.0555 13.0462 9.96346C13.0872 9.87146 13.1463 9.78866 13.22 9.72L19.44 3.5H16.75C16.5511 3.5 16.3603 3.42098 16.2197 3.28033C16.079 3.13968 16 2.94891 16 2.75ZM4.75 4.5C4.6837 4.5 4.62011 4.52634 4.57322 4.57322C4.52634 4.62011 4.5 4.6837 4.5 4.75V15.25C4.5 15.388 4.612 15.5 4.75 15.5H7.75C7.94891 15.5 8.13968 15.579 8.28033 15.7197C8.42098 15.8603 8.5 16.0511 8.5 16.25V19.44L12.22 15.72C12.3605 15.5793 12.5512 15.5002 12.75 15.5H19.25C19.3163 15.5 19.3799 15.4737 19.4268 15.4268C19.4737 15.3799 19.5 15.3163 19.5 15.25V11.75C19.5 11.5511 19.579 11.3603 19.7197 11.2197C19.8603 11.079 20.0511 11 20.25 11C20.4489 11 20.6397 11.079 20.7803 11.2197C20.921 11.3603 21 11.5511 21 11.75V15.25C21 15.7141 20.8156 16.1592 20.4874 16.4874C20.1592 16.8156 19.7141 17 19.25 17H13.06L9.487 20.573C9.28324 20.7767 9.02367 20.9153 8.74111 20.9715C8.45854 21.0277 8.16567 20.9988 7.8995 20.8886C7.63333 20.7784 7.40582 20.5917 7.24571 20.3522C7.08561 20.1127 7.0001 19.8311 7 19.543V17H4.75C4.28587 17 3.84075 16.8156 3.51256 16.4874C3.18437 16.1592 3 15.7141 3 15.25V4.75C3 3.784 3.784 3 4.75 3H12.25C12.4489 3 12.6397 3.07902 12.7803 3.21967C12.921 3.36032 13 3.55109 13 3.75C13 3.94891 12.921 4.13968 12.7803 4.28033C12.6397 4.42098 12.4489 4.5 12.25 4.5H4.75Z"/>
</svg>
