<svg width="16" height="16" viewBox="0 0 16 16" fill="none" xmlns="http://www.w3.org/2000/svg">
<g clip-path="url(#clip0_28_46)">
<circle cx="8" cy="8" r="5.25" stroke="black" stroke-width="1.5"/>
<path d="M8 10.25C8.41421 10.25 8.75 10.5858 8.75 11V15C8.75 15.4142 8.41421 15.75 8 15.75C7.58579 15.75 7.25 15.4142 7.25 15V11C7.25 10.5858 7.58579 10.25 8 10.25ZM5 7.25C5.41421 7.25 5.75 7.58579 5.75 8C5.75 8.41421 5.41421 8.75 5 8.75H1C0.585786 8.75 0.25 8.41421 0.25 8C0.25 7.58579 0.585786 7.25 1 7.25H5ZM15 7.25C15.4142 7.25 15.75 7.58579 15.75 8C15.75 8.41421 15.4142 8.75 15 8.75H11C10.5858 8.75 10.25 8.41421 10.25 8C10.25 7.58579 10.5858 7.25 11 7.25H15ZM8 0.25C8.41421 0.25 8.75 0.585786 8.75 1V5C8.75 5.41421 8.41421 5.75 8 5.75C7.58579 5.75 7.25 5.41421 7.25 5V1C7.25 0.585786 7.58579 0.25 8 0.25Z" fill="black"/>
</g>
<defs>
<clipPath id="clip0_28_46">
<rect width="16" height="16" fill="white"/>
</clipPath>
</defs>
</svg>
