<svg xmlns="http://www.w3.org/2000/svg" width="24" height="24" viewBox="0 0 24 24">
  <defs/>
  <path d="M8.75,11 A0.75 0.75 0 0 1 9.5,11.75 L9.5,15.25 A0.75 0.75 0 0 1 8,15.25 L8,11.75 A0.75 0.75 0 0 1 8.75,11 Z M16,11.75 A0.75 0.75 0 0 0 14.5,11.75 L14.5,15.25 A0.75 0.75 0 0 0 16,15.25 L16,11.75 Z"/>
  <path d="M9.813,1 L12.25,1 C12.664,1 13,1.336 13,1.75 L13,5 L19.75,5 C20.993,5 22,6.007 22,7.25 L22,12.5 L23.25,12.5 C23.664,12.5 24,12.836 24,13.25 C24,13.664 23.664,14 23.25,14 L22,14 L22,19.75 C22,20.993 20.993,22 19.75,22 L4.25,22 C3.007,22 2,20.993 2,19.75 L2,14 L0.75,14 C0.336,14 0,13.664 0,13.25 C0,12.836 0.336,12.5 0.75,12.5 L2,12.5 L2,7.25 C2,6.007 3.007,5 4.25,5 L11.5,5 L11.5,2.5 L9.813,2.5 C9.399,2.5 9.063,2.164 9.063,1.75 C9.063,1.336 9.398,1.001 9.812,1 Z M3.5,7.25 L3.5,19.75 C3.5,20.164 3.836,20.5 4.25,20.5 L19.75,20.5 C20.164,20.5 20.5,20.164 20.5,19.75 L20.5,7.25 C20.5,6.836 20.164,6.5 19.75,6.5 L4.25,6.5 C3.836,6.5 3.5,6.836 3.5,7.25 Z"/>
</svg>

