<svg width="24" height="24" viewBox="0 0 24 24" fill="none" xmlns="http://www.w3.org/2000/svg">
<path d="M8.75 11C9.16421 11 9.5 11.3358 9.5 11.75V15.25C9.5 15.6642 9.16421 16 8.75 16C8.33579 16 8 15.6642 8 15.25V11.75C8 11.3358 8.33579 11 8.75 11Z" fill="black"/>
<path d="M16 11.75C16 11.3358 15.6642 11 15.25 11C14.8358 11 14.5 11.3358 14.5 11.75V15.25C14.5 15.6642 14.8358 16 15.25 16C15.6642 16 16 15.6642 16 15.25V11.75Z" fill="black"/>
<path fill-rule="evenodd" clip-rule="evenodd" d="M9.8125 1C9.39829 1 9.0625 1.33579 9.0625 1.75C9.0625 2.16421 9.39829 2.5 9.8125 2.5H11.5V5H4.25C3.00736 5 2 6.00736 2 7.25V12.5H0.75C0.335786 12.5 0 12.8358 0 13.25C0 13.6642 0.335786 14 0.75 14H2V19.75C2 20.9926 3.00736 22 4.25 22H19.75C20.9926 22 22 20.9926 22 19.75V14H23.25C23.6642 14 24 13.6642 24 13.25C24 12.8358 23.6642 12.5 23.25 12.5H22V7.25C22 6.00736 20.9926 5 19.75 5H13V1.75C13 1.33579 12.6642 1 12.25 1H9.8125ZM3.5 7.25C3.5 6.83579 3.83579 6.5 4.25 6.5H19.75C20.1642 6.5 20.5 6.83579 20.5 7.25V19.75C20.5 20.1642 20.1642 20.5 19.75 20.5H4.25C3.83579 20.5 3.5 20.1642 3.5 19.75V7.25Z" fill="black"/>
</svg>
