<svg width="16" height="16" viewBox="0 0 16 16" fill="none" xmlns="http://www.w3.org/2000/svg">
<path fill-rule="evenodd" clip-rule="evenodd" d="M15 3H7C7 2.45 6.55 2 6 2H2C1.45 2 1 2.45 1 3C0.45 3 0 3.45 0 4V13C0 13.55 0.45 14 1 14H15C15.55 14 16 13.55 16 13V4C16 3.45 15.55 3 15 3V3ZM6 5H2V4H6V5V5ZM10.5 12C8.56 12 7 10.44 7 8.5C7 6.56 8.56 5 10.5 5C12.44 5 14 6.56 14 8.5C14 10.44 12.44 12 10.5 12V12ZM13 8.5C13 9.88 11.87 11 10.5 11C9.13 11 8 9.87 8 8.5C8 7.13 9.13 6 10.5 6C11.87 6 13 7.13 13 8.5V8.5Z" fill="#1B1F23"/>
</svg>
