<svg xmlns="http://www.w3.org/2000/svg" width="24" height="24" viewBox="0 0 24 24">
  <defs/>
  <path d="M10.25,5.25 A0.75 0.75 0 0 1 11,4.5 L13,4.5 A0.75 0.75 0 0 1 13,6 L11,6 A0.75 0.75 0 0 1 10.25,5.25 Z M12,19.5 A1 1 0 1 0 12,17.5 A1 1 0 0 0 12,19.5 Z"/>
  <path d="M4,2.75 C4,1.784 4.784,1 5.75,1 L18.25,1 C19.216,1 20,1.784 20,2.75 L20,21.25 C20,22.216 19.216,23 18.25,23 L5.75,23 C4.784,23 4,22.216 4,21.25 Z M5.75,2.5 C5.612,2.5 5.5,2.612 5.5,2.75 L5.5,21.25 C5.5,21.388 5.612,21.5 5.75,21.5 L18.25,21.5 C18.388,21.5 18.5,21.388 18.5,21.25 L18.5,2.75 C18.5,2.612 18.388,2.5 18.25,2.5 Z"/>
</svg>

