<svg xmlns="http://www.w3.org/2000/svg" width="16" height="16" viewBox="0 0 16 16">
  <defs/>
  <path d="M14.25,1 C15.216,1 16,1.784 16,2.75 L16,10.25 C16,11.216 15.216,12 14.25,12 L10.523,12 C10.622,13.041 11.043,13.872 11.815,14.757 C12.008,14.979 12.054,15.293 11.933,15.56 C11.811,15.828 11.544,16 11.25,16 L4.75,16 C4.456,16 4.189,15.828 4.067,15.56 C3.946,15.293 3.992,14.979 4.185,14.757 C4.957,13.872 5.377,13.041 5.477,12 L1.75,12 C0.784,12 0,11.216 0,10.25 L0,2.75 C0,1.784 0.784,1 1.75,1 Z M1.75,2.5 C1.612,2.5 1.5,2.612 1.5,2.75 L1.5,10.25 C1.5,10.388 1.612,10.5 1.75,10.5 L14.25,10.5 C14.388,10.5 14.5,10.388 14.5,10.25 L14.5,2.75 C14.5,2.612 14.388,2.5 14.25,2.5 Z M9.018,12 L6.982,12 C6.923,12.881 6.662,13.737 6.217,14.5 L9.783,14.5 C9.338,13.737 9.077,12.881 9.018,12 Z"/>
</svg>

