<svg xmlns="http://www.w3.org/2000/svg" width="16" height="16" viewBox="0 0 16 16">
  <defs/>
  <path d="M16,3.75 L16,12.25 C16,12.52 15.855,12.77 15.619,12.903 C15.384,13.036 15.096,13.032 14.864,12.893 L11,10.575 L11,11.25 C11,12.216 10.216,13 9.25,13 L1.75,13 C0.784,13 0,12.216 0,11.25 L0,4.75 C0,3.784 0.784,3 1.75,3 L9.25,3 C10.216,3 11,3.784 11,4.75 L11,5.425 L14.864,3.107 C15.096,2.968 15.384,2.964 15.619,3.097 C15.855,3.23 16,3.48 16,3.75 Z M9.5,4.75 C9.5,4.612 9.388,4.5 9.25,4.5 L1.75,4.5 C1.612,4.5 1.5,4.612 1.5,4.75 L1.5,11.25 C1.5,11.388 1.612,11.5 1.75,11.5 L9.25,11.5 C9.388,11.5 9.5,11.388 9.5,11.25 L9.5,4.75 Z M11,8.825 L14.5,10.925 L14.5,5.075 L11,7.175 Z"/>
</svg>

