<svg xmlns="http://www.w3.org/2000/svg" width="24" height="24" viewBox="0 0 24 24">
  <defs/>
  <path d="M24,5.25 L24,18.25 C24,18.52 23.855,18.77 23.619,18.903 C23.384,19.036 23.096,19.032 22.864,18.893 L16.5,15.075 L16.5,17.25 C16.5,18.216 15.716,19 14.75,19 L1.75,19 C0.784,19 0,18.216 0,17.25 L0,6.25 C0,5.284 0.784,4.5 1.75,4.5 L14.75,4.5 C15.716,4.5 16.5,5.284 16.5,6.25 L16.5,8.425 L22.864,4.607 C23.096,4.468 23.384,4.464 23.619,4.597 C23.855,4.73 24,4.98 24,5.25 Z M15,6.25 C15,6.112 14.888,6 14.75,6 L1.75,6 C1.612,6 1.5,6.112 1.5,6.25 L1.5,17.25 C1.5,17.388 1.612,17.5 1.75,17.5 L14.75,17.5 C14.888,17.5 15,17.388 15,17.25 L15,6.25 Z M16.5,13.325 L22.5,16.925 L22.5,6.575 L16.5,10.175 Z"/>
</svg>

