<svg width="17" height="16" viewBox="0 0 17 16" fill="none" xmlns="http://www.w3.org/2000/svg">
<path fill-rule="evenodd" clip-rule="evenodd" d="M0.526744 9.23744C-0.156674 8.55402 -0.156674 7.44598 0.526743 6.76256L6.77757 0.511739C7.46098 -0.171678 8.56902 -0.171678 9.25244 0.511739L15.5033 6.76256C16.1867 7.44598 16.1867 8.55402 15.5033 9.23744L9.25244 15.4883C8.56902 16.1717 7.46098 16.1717 6.77757 15.4883L0.526744 9.23744ZM1.5874 7.82322C1.48977 7.92085 1.48977 8.07915 1.5874 8.17678L7.83823 14.4276C7.93586 14.5252 8.09415 14.5252 8.19178 14.4276L14.4426 8.17678C14.5402 8.07915 14.5402 7.92085 14.4426 7.82322L8.19178 1.5724C8.09415 1.47477 7.93586 1.47477 7.83823 1.5724L1.5874 7.82322Z" fill="black"/>
</svg>
