<svg xmlns="http://www.w3.org/2000/svg" width="16" height="16" viewBox="0 0 16 16">
  <defs/>
  <path d="M0.527,9.237 C-0.156,8.554 -0.156,7.446 0.527,6.763 L6.777,0.512 C7.46,-0.172 8.569,-0.172 9.252,0.512 L15.503,6.762 C16.186,7.446 16.186,8.553 15.503,9.237 L9.253,15.488 C8.569,16.171 7.462,16.171 6.778,15.488 L0.527,9.238 Z M1.587,7.823 C1.54,7.87 1.514,7.934 1.514,8 C1.514,8.066 1.54,8.13 1.587,8.177 L7.838,14.427 C7.885,14.474 7.949,14.5 8.015,14.5 C8.081,14.5 8.145,14.474 8.192,14.427 L14.442,8.177 C14.489,8.13 14.515,8.066 14.515,8 C14.515,7.934 14.489,7.87 14.442,7.823 L8.192,1.573 C8.145,1.526 8.081,1.5 8.015,1.5 C7.949,1.5 7.885,1.526 7.838,1.573 L1.588,7.823 Z"/>
</svg>

