<svg xmlns="http://www.w3.org/2000/svg" width="16" height="16" viewBox="0 0 16 16"><path d="M13.25 1c.966 0 1.75.784 1.75 1.75v10.5c0 .464-.184.909-.513 1.237A1.746 1.746 0 0 1 13.25 15H2.75c-.464 0-.909-.184-1.237-.513A1.746 1.746 0 0 1 1 13.25V2.75C1 1.784 1.784 1 2.75 1h10.5ZM2.75 2.5a.25.25 0 0 0-.25.25v10.5c0 .138.112.25.25.25h10.5a.25.25 0 0 0 .25-.25V2.75a.25.25 0 0 0-.25-.25H2.75Z"/><path d="M5 12a1 1 0 1 0 0-2 1 1 0 0 0 0 2Zm6-6a1 1 0 1 0 0-2 1 1 0 0 0 0 2ZM8 9a1 1 0 1 0 0-2 1 1 0 0 0 0 2Z"/></svg>