<svg width="16" height="16" viewBox="0 0 16 16" xmlns="http://www.w3.org/2000/svg">
  <path fill-rule="evenodd" clip-rule="evenodd" d="M2.75 2.5H13.25C13.3881 2.5 13.5 2.61193 13.5 2.75V13.25C13.5 13.3881 13.3881 13.5 13.25 13.5H2.75C2.61193 13.5 2.5 13.3881 2.5 13.25V2.75C2.5 2.61193 2.61193 2.5 2.75 2.5ZM13.25 1H2.75C1.7835 1 1 1.7835 1 2.75V13.25C1 14.2165 1.7835 15 2.75 15H13.25C14.2165 15 15 14.2165 15 13.25V2.75C15 1.7835 14.2165 1 13.25 1ZM11.7803 8.53033C11.921 8.38968 12 8.19891 12 8C12 7.80109 11.921 7.61032 11.7803 7.46967L8.53033 4.21967C8.23744 3.92678 7.76256 3.92678 7.46967 4.21967C7.17678 4.51256 7.17678 4.98744 7.46967 5.28033L9.43934 7.25H4.75C4.33579 7.25 4 7.58579 4 8C4 8.41421 4.33579 8.75 4.75 8.75L9.43934 8.75L7.46967 10.7197C7.17678 11.0126 7.17678 11.4874 7.46967 11.7803C7.76256 12.0732 8.23744 12.0732 8.53033 11.7803L11.7803 8.53033Z"/>
</svg>
