<svg xmlns="http://www.w3.org/2000/svg" width="16" height="16" viewBox="0 0 16 16">
  <defs/>
  <path d="M13.25,1 C14.216,1 15,1.784 15,2.75 L15,13.25 C15,14.216 14.216,15 13.25,15 L2.75,15 C1.784,15 1,14.216 1,13.25 L1,2.75 C1,1.784 1.784,1 2.75,1 Z M2.75,2.5 C2.612,2.5 2.5,2.612 2.5,2.75 L2.5,13.25 C2.5,13.388 2.612,13.5 2.75,13.5 L13.25,13.5 C13.388,13.5 13.5,13.388 13.5,13.25 L13.5,2.75 C13.5,2.612 13.388,2.5 13.25,2.5 Z M11.78,8.53 L8.53,11.78 C8.343,11.981 8.061,12.063 7.796,11.995 C7.53,11.928 7.322,11.72 7.255,11.454 C7.187,11.189 7.269,10.907 7.47,10.72 L9.44,8.75 L4.75,8.75 C4.336,8.75 4,8.414 4,8 C4,7.586 4.336,7.25 4.75,7.25 L9.44,7.25 L7.47,5.28 C7.195,4.984 7.203,4.524 7.488,4.238 C7.774,3.953 8.234,3.945 8.53,4.22 L11.78,7.47 C12.072,7.763 12.072,8.237 11.78,8.53 Z"/>
</svg>

