<svg xmlns="http://www.w3.org/2000/svg" width="16" height="16" viewBox="0 0 16 16">
  <defs/>
  <path d="M8.75,1.75 L8.75,5 L12,5 C12.414,5 12.75,5.336 12.75,5.75 C12.75,6.164 12.414,6.5 12,6.5 L8.75,6.5 L8.75,9.75 C8.75,10.164 8.414,10.5 8,10.5 C7.586,10.5 7.25,10.164 7.25,9.75 L7.25,6.5 L4,6.5 C3.586,6.5 3.25,6.164 3.25,5.75 C3.25,5.336 3.586,5 4,5 L7.25,5 L7.25,1.75 C7.25,1.336 7.586,1 8,1 C8.414,1 8.75,1.336 8.75,1.75 Z M4,13 L12,13 C12.414,13 12.75,13.336 12.75,13.75 C12.75,14.164 12.414,14.5 12,14.5 L4,14.5 C3.586,14.5 3.25,14.164 3.25,13.75 C3.25,13.336 3.586,13 4,13 Z"/>
</svg>

