<svg width="16" height="16" viewBox="0 0 16 16" xmlns="http://www.w3.org/2000/svg">
  <path fill-rule="evenodd" clip-rule="evenodd" d="M8.75001 1.75C8.75001 1.33579 8.41422 1 8.00001 1C7.58579 1 7.25 1.33579 7.25 1.75V4.9999H4.00001C3.5858 4.9999 3.25001 5.33569 3.25001 5.7499C3.25001 6.16412 3.5858 6.4999 4.00001 6.4999H7.25V9.75C7.25 10.1642 7.58579 10.5 8.00001 10.5C8.41422 10.5 8.75001 10.1642 8.75001 9.75V6.4999H12C12.4142 6.4999 12.75 6.16412 12.75 5.7499C12.75 5.33569 12.4142 4.9999 12 4.9999H8.75001V1.75ZM4 12.9999C3.58579 12.9999 3.25 13.3357 3.25 13.7499C3.25 14.1642 3.58579 14.4999 4 14.4999H12C12.4142 14.4999 12.75 14.1642 12.75 13.7499C12.75 13.3357 12.4142 12.9999 12 12.9999H4Z"/>
</svg>
