<svg xmlns="http://www.w3.org/2000/svg" width="17" height="16" viewBox="0 0 17 16"><path d="M3 3.805a.25.25 0 0 1 .25-.25h8.5a.25.25 0 0 1 .25.25V7.25a.75.75 0 0 0 1.5 0V3.805a1.75 1.75 0 0 0-1.75-1.75h-8.5a1.75 1.75 0 0 0-1.75 1.75v5.734c0 .967.784 1.75 1.75 1.75h.25v1.63a1.465 1.465 0 0 0 2.474 1.06l1.043-.995a.75.75 0 1 0-1.034-1.085L5 12.835v-2.296a.75.75 0 0 0-.75-.75h-1a.25.25 0 0 1-.25-.25V3.805Z"/><path d="M15.28 10.03a.749.749 0 1 0-1.06-1.06l-2.97 2.969-1.47-1.469a.749.749 0 1 0-1.06 1.06l2 2a.749.749 0 0 0 1.06 0l3.5-3.5Z"/></svg>