<svg xmlns="http://www.w3.org/2000/svg" width="24" height="24" viewBox="0 0 24 24"><path d="M3.75 5.75A.25.25 0 0 0 3.5 6v9.5c0 .138.112.25.25.25h2a.75.75 0 0 1 .75.75v2.189l2.72-2.719a.749.749 0 1 1 1.06 1.06l-2.793 2.793A1.456 1.456 0 0 1 5 18.793V17.25H3.75A1.75 1.75 0 0 1 2 15.5V6c0-.966.784-1.75 1.75-1.75h12.5c.966 0 1.75.784 1.75 1.75v3.25a.75.75 0 0 1-1.5 0V6a.25.25 0 0 0-.25-.25H3.75ZM18 15.25a.75.75 0 0 0-1.5 0v2.567c0 .259.134.5.354.636l1.5.934a.75.75 0 1 0 .792-1.274L18 17.4v-2.15Z"/><path d="M11.5 17.25a5.75 5.75 0 1 1 11.5 0 5.75 5.75 0 1 1-11.5 0ZM17.25 13a4.25 4.25 0 1 0 0 8.5 4.25 4.25 0 0 0 0-8.5Z"/></svg>