<svg xmlns="http://www.w3.org/2000/svg" width="17" height="16" viewBox="0 0 17 16"><path d="M3.25 3.555a.25.25 0 0 0-.25.25v5.734c0 .138.112.25.25.25h1a.75.75 0 0 1 .75.75v2.296l.983-.936a.75.75 0 1 1 1.034 1.085l-1.043.995a1.466 1.466 0 0 1-2.474-1.06v-1.63h-.25a1.75 1.75 0 0 1-1.75-1.75V3.805c0-.967.783-1.75 1.75-1.75h8.5c.967 0 1.75.783 1.75 1.75V6A.75.75 0 0 1 12 6V3.805a.25.25 0 0 0-.25-.25Z"/><path d="M8 11.75a4.25 4.25 0 1 1 8.5 0 4.25 4.25 0 0 1-8.5 0ZM12.25 9a2.75 2.75 0 1 0 0 5.5 2.75 2.75 0 0 0 0-5.5Z"/><path d="M12 9.75a.75.75 0 0 1 .75.75v.992l.778.312a.749.749 0 1 1-.556 1.392l-1.25-.5A.748.748 0 0 1 11.25 12v-1.5a.75.75 0 0 1 .75-.75Z"/></svg>