<svg width="24" height="24" viewBox="0 0 24 24" fill="none" xmlns="http://www.w3.org/2000/svg">
<path fill-rule="evenodd" clip-rule="evenodd" d="M1.75 2.5C1.61193 2.5 1.5 2.61193 1.5 2.75V12.25C1.5 12.3881 1.61193 12.5 1.75 12.5H3.75C4.16421 12.5 4.5 12.8358 4.5 13.25V15.4393L7.21967 12.7197C7.36032 12.579 7.55109 12.5 7.75 12.5H14.25C14.3881 12.5 14.5 12.3881 14.5 12.25V2.75C14.5 2.61193 14.3881 2.5 14.25 2.5H1.75ZM0 2.75C0 1.7835 0.783501 1 1.75 1H14.25C15.2165 1 16 1.7835 16 2.75V12.25C16 13.2165 15.2165 14 14.25 14H8.06066L5.48744 16.5732C5.21418 16.8465 4.84356 17 4.45711 17C3.65237 17 3 16.3476 3 15.5429V14H1.75C0.783502 14 0 13.2165 0 12.25V2.75ZM22.25 8.5C22.3881 8.5 22.5 8.61193 22.5 8.75V18.25C22.5 18.3881 22.3881 18.5 22.25 18.5H20.25C19.8358 18.5 19.5 18.8358 19.5 19.25V21.4393L16.7803 18.7197C16.6397 18.579 16.4489 18.5 16.25 18.5H10.75C10.6119 18.5 10.5 18.3881 10.5 18.25V16.7855C10.5 16.3713 10.1642 16.0355 9.75 16.0355C9.33579 16.0355 9 16.3713 9 16.7855V18.25C9 19.2165 9.7835 20 10.75 20H15.9393L18.5126 22.5732C18.7858 22.8465 19.1564 23 19.5429 23C20.3476 23 21 22.3476 21 21.5429V20H22.25C23.2165 20 24 19.2165 24 18.25V8.75C24 7.7835 23.2165 7 22.25 7H18.75C18.3358 7 18 7.33579 18 7.75C18 8.16421 18.3358 8.5 18.75 8.5H22.25ZM8.5 4.75C8.5 4.33579 8.16421 4 7.75 4C7.33579 4 7 4.33579 7 4.75V8.38636C7 8.68738 7.17997 8.95924 7.45709 9.0768L9.04559 9.75071L10.4203 10.4236C10.7923 10.6057 11.2415 10.4518 11.4236 10.0797C11.6057 9.70771 11.4518 9.25849 11.0797 9.07638L9.68689 8.39456C9.67476 8.38862 9.66248 8.38302 9.65005 8.37775L8.5 7.88984V4.75Z" fill="black"/>
</svg>
