<svg xmlns="http://www.w3.org/2000/svg" width="24" height="24" viewBox="0 0 24 24"><path d="M3.75 5.75A.25.25 0 0 0 3.5 6v9.5c0 .138.112.25.25.25h2a.75.75 0 0 1 .75.75v2.189l2.72-2.719a.749.749 0 1 1 1.06 1.06l-2.793 2.793A1.456 1.456 0 0 1 5 18.793V17.25H3.75A1.75 1.75 0 0 1 2 15.5V6c0-.966.784-1.75 1.75-1.75h12.5c.966 0 1.75.784 1.75 1.75v3.25a.75.75 0 0 1-1.5 0V6a.25.25 0 0 0-.25-.25H3.75Zm16.03 8.97a.749.749 0 0 1 0 1.06l-4 4a.749.749 0 1 1-1.06-1.06l4-4a.749.749 0 0 1 1.06 0Z"/><path d="M17.25 11.5a5.75 5.75 0 1 1 0 11.5 5.75 5.75 0 1 1 0-11.5ZM13 17.25a4.25 4.25 0 1 0 8.5 0 4.25 4.25 0 0 0-8.5 0Z"/></svg>