<svg xmlns="http://www.w3.org/2000/svg" width="24" height="24" viewBox="0 0 24 24"><path d="M3.5 6a.25.25 0 0 1 .25-.25h12.5a.25.25 0 0 1 .25.25v4.75a.75.75 0 0 0 1.5 0V6a1.75 1.75 0 0 0-1.75-1.75H3.75A1.75 1.75 0 0 0 2 6v9.5c0 .966.784 1.75 1.75 1.75H5v1.543a1.457 1.457 0 0 0 2.487 1.03l2.793-2.793a.749.749 0 1 0-1.06-1.06L6.5 18.689V16.5a.75.75 0 0 0-.75-.75h-2a.25.25 0 0 1-.25-.25V6Z"/><path d="M23.03 12.78a.749.749 0 1 0-1.06-1.06L16 17.689l-2.47-2.469a.749.749 0 1 0-1.06 1.06l3 3a.749.749 0 0 0 1.06 0l6.5-6.5Z"/></svg>