<svg xmlns="http://www.w3.org/2000/svg" width="16" height="16" viewBox="0 0 16 16"><path d="M2.5 3.805a.25.25 0 0 1 .25-.25h8.5a.25.25 0 0 1 .25.25V6A.75.75 0 0 0 13 6V3.805a1.75 1.75 0 0 0-1.75-1.75h-8.5A1.75 1.75 0 0 0 1 3.805v5.734c0 .967.784 1.75 1.75 1.75H3v1.63a1.465 1.465 0 0 0 2.474 1.06l1.043-.995a.75.75 0 1 0-1.034-1.085l-.983.936v-2.296a.75.75 0 0 0-.75-.75h-1a.25.25 0 0 1-.25-.25V3.805Zm10.624 6.571a.75.75 0 0 1 0 1.061l-1.687 1.687a.75.75 0 1 1-1.061-1.061l1.687-1.687a.75.75 0 0 1 1.061 0Z"/><path d="M7.5 11.75a4.25 4.25 0 1 1 8.5 0 4.25 4.25 0 0 1-8.5 0ZM11.75 9a2.75 2.75 0 1 0 0 5.5 2.75 2.75 0 0 0 0-5.5Z"/></svg>