<svg width="24" height="24" viewBox="0 0 24 24" fill="none" xmlns="http://www.w3.org/2000/svg">
<path fill-rule="evenodd" clip-rule="evenodd" d="M1.75 2.5C1.61193 2.5 1.5 2.61193 1.5 2.75V12.25C1.5 12.3881 1.61193 12.5 1.75 12.5H3.75C4.16421 12.5 4.5 12.8358 4.5 13.25V15.4393L7.21967 12.7197C7.36032 12.579 7.55109 12.5 7.75 12.5H14.25C14.3881 12.5 14.5 12.3881 14.5 12.25V2.75C14.5 2.61193 14.3881 2.5 14.25 2.5H1.75ZM0 2.75C0 1.7835 0.783501 1 1.75 1H14.25C15.2165 1 16 1.7835 16 2.75V12.25C16 13.2165 15.2165 14 14.25 14H8.06066L5.48744 16.5732C5.21418 16.8465 4.84356 17 4.45711 17C3.65237 17 3 16.3476 3 15.5429V14H1.75C0.783502 14 0 13.2165 0 12.25V2.75ZM22.25 8.5C22.3881 8.5 22.5 8.61193 22.5 8.75V18.25C22.5 18.3881 22.3881 18.5 22.25 18.5H20.25C19.8358 18.5 19.5 18.8358 19.5 19.25V21.4393L16.7803 18.7197C16.6397 18.579 16.4489 18.5 16.25 18.5H10.75C10.6119 18.5 10.5 18.3881 10.5 18.25V16.7855C10.5 16.3713 10.1642 16.0355 9.75 16.0355C9.33579 16.0355 9 16.3713 9 16.7855V18.25C9 19.2165 9.7835 20 10.75 20H15.9393L18.5126 22.5732C18.7858 22.8465 19.1564 23 19.5429 23C20.3476 23 21 22.3476 21 21.5429V20H22.25C23.2165 20 24 19.2165 24 18.25V8.75C24 7.7835 23.2165 7 22.25 7H18.75C18.3358 7 18 7.33579 18 7.75C18 8.16421 18.3358 8.5 18.75 8.5H22.25ZM12.5303 5.28033C12.8232 4.98744 12.8232 4.51256 12.5303 4.21967C12.2374 3.92678 11.7626 3.92678 11.4697 4.21967L7 8.68934L5.03033 6.71967C4.73744 6.42678 4.26256 6.42678 3.96967 6.71967C3.67678 7.01256 3.67678 7.48744 3.96967 7.78033L6.46967 10.2803C6.61032 10.421 6.80109 10.5 7 10.5C7.19891 10.5 7.38968 10.421 7.53033 10.2803L12.5303 5.28033Z" fill="black"/>
</svg>
