<svg width="16" height="16" viewBox="0 0 16 16" xmlns="http://www.w3.org/2000/svg">
  <path fill-rule="evenodd" clip-rule="evenodd" d="M8 11.5C8.92826 11.5 9.8185 11.1313 10.4749 10.4749C11.1313 9.8185 11.5 8.92826 11.5 8C11.5 7.07174 11.1313 6.1815 10.4749 5.52513C9.8185 4.86875 8.92826 4.5 8 4.5C7.07174 4.5 6.1815 4.86875 5.52513 5.52513C4.86875 6.1815 4.5 7.07174 4.5 8C4.5 8.92826 4.86875 9.8185 5.52513 10.4749C6.1815 11.1313 7.07174 11.5 8 11.5ZM8 13C9.32608 13 10.5979 12.4732 11.5355 11.5355C12.4732 10.5979 13 9.32608 13 8C13 6.67392 12.4732 5.40215 11.5355 4.46447C10.5979 3.52678 9.32608 3 8 3C6.67392 3 5.40215 3.52678 4.46447 4.46447C3.52678 5.40215 3 6.67392 3 8C3 9.32608 3.52678 10.5979 4.46447 11.5355C5.40215 12.4732 6.67392 13 8 13Z"/>
</svg>
