<svg width="24" height="24" viewBox="0 0 24 24" fill="none" xmlns="http://www.w3.org/2000/svg">
<path fill-rule="evenodd" clip-rule="evenodd" d="M4.75 17.25C5.16421 17.25 5.5 17.5858 5.5 18V20.25C5.5 20.3881 5.61193 20.5 5.75 20.5H18.25C18.3881 20.5 18.5 20.3881 18.5 20.25V18C18.5 17.5858 18.8358 17.25 19.25 17.25C19.6642 17.25 20 17.5858 20 18V20.25C20 21.2165 19.2165 22 18.25 22H5.75C4.7835 22 4 21.2165 4 20.25V18C4 17.5858 4.33579 17.25 4.75 17.25Z" fill="black"/>
<path fill-rule="evenodd" clip-rule="evenodd" d="M5.21967 9.96967C4.92678 10.2626 4.92678 10.7374 5.21967 11.0303L11.4697 17.2803C11.7626 17.5732 12.2374 17.5732 12.5303 17.2803L18.7803 11.0303C19.0732 10.7374 19.0732 10.2626 18.7803 9.96967C18.4874 9.67678 18.0126 9.67678 17.7197 9.96967L12.75 14.9393V2.75C12.75 2.33579 12.4142 2 12 2C11.5858 2 11.25 2.33579 11.25 2.75V14.9393L6.28033 9.96967C5.98744 9.67678 5.51256 9.67678 5.21967 9.96967Z" fill="black"/>
</svg>
