<svg xmlns="http://www.w3.org/2000/svg" width="16" height="16" viewBox="0 0 16 16">
  <defs/>
  <path d="M7.47,10.78 L3.72,7.03 C3.445,6.734 3.453,6.274 3.738,5.988 C4.024,5.703 4.484,5.695 4.78,5.97 L7.25,8.44 L7.25,1.75 C7.25,1.336 7.586,1 8,1 C8.414,1 8.75,1.336 8.75,1.75 L8.75,8.44 L11.22,5.97 C11.516,5.695 11.976,5.703 12.262,5.988 C12.547,6.274 12.555,6.734 12.28,7.03 L8.53,10.78 C8.237,11.072 7.763,11.072 7.47,10.78 Z M3.75,13 L12.25,13 C12.664,13 13,13.336 13,13.75 C13,14.164 12.664,14.5 12.25,14.5 L3.75,14.5 C3.336,14.5 3,14.164 3,13.75 C3,13.336 3.336,13 3.75,13 Z"/>
</svg>

