<svg xmlns="http://www.w3.org/2000/svg" width="16" height="16" viewBox="0 0 16 16"><path d="M10.5 3a.75.75 0 01.75.75v1h1a.75.75 0 010 1.5h-1v1a.75.75 0 01-1.5 0v-1h-1a.75.75 0 010-1.5h1v-1A.75.75 0 0110.5 3z"/><path fill-rule="evenodd" d="M6.75 0A1.75 1.75 0 005 1.75v7.5c0 .966.784 1.75 1.75 1.75h7.5A1.75 1.75 0 0016 9.25v-7.5A1.75 1.75 0 0014.25 0h-7.5zM6.5 1.75a.25.25 0 01.25-.25h7.5a.25.25 0 01.25.25v7.5a.25.25 0 01-.25.25h-7.5a.25.25 0 01-.25-.25v-7.5z"/><path d="M1.75 5A1.75 1.75 0 000 6.75v7.5C0 15.216.784 16 1.75 16h7.5A1.75 1.75 0 0011 14.25v-1.5a.75.75 0 00-1.5 0v1.5a.25.25 0 01-.25.25h-7.5a.25.25 0 01-.25-.25v-7.5a.25.25 0 01.25-.25h1.5a.75.75 0 000-1.5h-1.5z"/></svg>