<svg xmlns="http://www.w3.org/2000/svg" width="24" height="24" viewBox="0 0 24 24"><path fill-rule="evenodd" d="M2 9.75C2 8.784 2.784 8 3.75 8h2.5a.75.75 0 010 1.5h-2.5a.25.25 0 00-.25.25v10.5c0 .138.112.25.25.25h10.5a.25.25 0 00.25-.25v-2.5a.75.75 0 011.5 0v2.5A1.75 1.75 0 0114.25 22H3.75A1.75 1.75 0 012 20.25V9.75z"/><path fill-rule="evenodd" d="M8 3.75C8 2.784 8.784 2 9.75 2h10.5c.966 0 1.75.784 1.75 1.75v10.5A1.75 1.75 0 0120.25 16H9.75A1.75 1.75 0 018 14.25V3.75zm1.75-.25a.25.25 0 00-.25.25v10.5c0 .138.112.25.25.25h10.5a.25.25 0 00.25-.25V3.75a.25.25 0 00-.25-.25H9.75z"/></svg>