<svg xmlns="http://www.w3.org/2000/svg" width="16" height="16" viewBox="0 0 16 16">
  <defs/>
  <path d="M0,5.75 C0,4.784 0.784,4 1.75,4 L14.25,4 C15.216,4 16,4.784 16,5.75 L16,10.25 C16,11.216 15.216,12 14.25,12 L1.75,12 C0.784,12 0,11.216 0,10.25 Z M12,7 C11.448,7 11,7.448 11,8 C11,8.552 11.448,9 12,9 C12.552,9 13,8.552 13,8 C13,7.448 12.552,7 12,7 Z M7,8 C7,8.552 7.448,9 8,9 C8.552,9 9,8.552 9,8 C9,7.448 8.552,7 8,7 C7.448,7 7,7.448 7,8 Z M4,7 C3.448,7 3,7.448 3,8 C3,8.552 3.448,9 4,9 C4.552,9 5,8.552 5,8 C5,7.448 4.552,7 4,7 Z"/>
</svg>

