<svg width="24" height="24" viewBox="0 0 24 24">
  <path fill-rule="evenodd" clip-rule="evenodd"
    d="M22 9.75C22 8.7835 21.2165 8 20.25 8H3.75C2.7835 8 2 8.7835 2 9.75V15.25C2 16.2165 2.7835 17 3.75 17L20.25 17C21.2165 17 22 16.2165 22 15.25V9.75ZM6.75 13.75C7.44036 13.75 8 13.1904 8 12.5C8 11.8096 7.44036 11.25 6.75 11.25C6.05964 11.25 5.5 11.8096 5.5 12.5C5.5 13.1904 6.05964 13.75 6.75 13.75ZM13.25 12.5C13.25 13.1904 12.6904 13.75 12 13.75C11.3096 13.75 10.75 13.1904 10.75 12.5C10.75 11.8096 11.3096 11.25 12 11.25C12.6904 11.25 13.25 11.8096 13.25 12.5ZM17.25 13.75C17.9404 13.75 18.5 13.1904 18.5 12.5C18.5 11.8096 17.9404 11.25 17.25 11.25C16.5596 11.25 16 11.8096 16 12.5C16 13.1904 16.5596 13.75 17.25 13.75Z"
  />
</svg>