<svg width="16" height="16" viewBox="0 0 16 16" fill="none" xmlns="http://www.w3.org/2000/svg">
<path fill-rule="evenodd" clip-rule="evenodd" d="M0 5.75C0 4.7835 0.783502 4 1.75 4H14.25C15.2165 4 16 4.7835 16 5.75V10.25C16 11.2165 15.2165 12 14.25 12H1.75C0.783501 12 0 11.2165 0 10.25V5.75ZM4 7C3.44772 7 3 7.44772 3 8C3 8.55228 3.44772 9 4 9C4.55228 9 5 8.55228 5 8C5 7.44772 4.55228 7 4 7ZM7 8C7 7.44772 7.44772 7 8 7C8.55229 7 9 7.44772 9 8C9 8.55228 8.55229 9 8 9C7.44772 9 7 8.55228 7 8ZM12 7C11.4477 7 11 7.44772 11 8C11 8.55228 11.4477 9 12 9C12.5523 9 13 8.55228 13 8C13 7.44772 12.5523 7 12 7Z" fill="black"/>
</svg>
