<svg width="17" height="16" viewBox="0 0 17 16" fill="none" xmlns="http://www.w3.org/2000/svg">
<path fill-rule="evenodd" clip-rule="evenodd" d="M0.5 8C0.5 3.58172 4.08172 0 8.5 0C12.9183 0 16.5 3.58172 16.5 8C16.5 12.4183 12.9183 16 8.5 16C4.08172 16 0.5 12.4183 0.5 8ZM7.25 10.5C7.25 11.4665 6.4665 12.25 5.5 12.25C4.5335 12.25 3.75 11.4665 3.75 10.5C3.75 9.70726 4.27713 9.03762 5 8.82248V6.92754C4.27713 6.7124 3.75 6.04277 3.75 5.25001C3.75 4.28351 4.5335 3.50001 5.5 3.50001C6.4665 3.50001 7.25 4.28351 7.25 5.25001C7.25 6.04277 6.72287 6.7124 6 6.92754V8.82248C6.72287 9.03762 7.25 9.70726 7.25 10.5ZM10.5 5.50001V6.87133C10.5 7.09406 10.2307 7.2056 10.0732 7.04811L8.2019 5.17679C8.10427 5.07916 8.10427 4.92086 8.2019 4.82323L10.0732 2.95191C10.2307 2.79442 10.5 2.90596 10.5 3.12869V4.50001H10.75C11.5784 4.50001 12.25 5.17158 12.25 6.00001V8.82248C12.9729 9.03762 13.5 9.70725 13.5 10.5C13.5 11.4665 12.7165 12.25 11.75 12.25C10.7835 12.25 10 11.4665 10 10.5C10 9.70726 10.5271 9.03762 11.25 8.82248V6.00001C11.25 5.72387 11.0261 5.50001 10.75 5.50001H10.5Z" fill="black" style="fill:black;fill:black;fill-opacity:1;"/>
</svg>
