<svg xmlns="http://www.w3.org/2000/svg" width="16" height="16" viewBox="0 0 16 16">
  <defs/>
  <path d="M7.22,6.5 A0.72 0.72 0 1 1 5.78,6.5 A0.72 0.72 0 0 1 7.22,6.5 Z"/>
  <path d="M8,16 C3.582,16 0,12.418 0,8 C0,3.582 3.582,0 8,0 C12.418,0 16,3.582 16,8 C16,12.418 12.418,16 8,16 Z M4,5 L4,8.38 C4.001,8.777 4.159,9.158 4.44,9.439 L7.651,12.652 C7.876,12.877 8.182,13.004 8.5,13.004 C8.818,13.004 9.124,12.877 9.349,12.652 L12.652,9.349 C12.877,9.124 13.004,8.818 13.004,8.5 C13.004,8.182 12.877,7.876 12.652,7.651 L9.439,4.44 C9.158,4.159 8.777,4 8.379,4 L5,4 C4.448,4 4,4.448 4,5 Z"/>
</svg>

