<svg width="16" height="16" viewBox="0 0 16 16" fill="none" xmlns="http://www.w3.org/2000/svg">
<path fill-rule="evenodd" clip-rule="evenodd" d="M8 16C12.4183 16 16 12.4183 16 8C16 3.58172 12.4183 0 8 0C3.58172 0 0 3.58172 0 8C0 12.4183 3.58172 16 8 16ZM4 5C4 4.44772 4.44772 4 5 4H11C11.5523 4 12 4.44772 12 5V10C12 10.5523 11.5523 11 11 11H8.70711L6.85355 12.8536C6.71055 12.9966 6.4955 13.0393 6.30866 12.9619C6.12182 12.8845 6 12.7022 6 12.5V11H5C4.44772 11 4 10.5523 4 10V5Z" fill="#24292F"/>
</svg>
