<svg width="17" height="16" viewBox="0 0 17 16" fill="none" xmlns="http://www.w3.org/2000/svg">
<path fill-rule="evenodd" clip-rule="evenodd" d="M8.5 0C4.08172 0 0.5 3.58172 0.5 8C0.5 12.4183 4.08172 16 8.5 16C12.9183 16 16.5 12.4183 16.5 8C16.5 3.58172 12.9183 0 8.5 0ZM6 12.25C6.9665 12.25 7.75 11.4665 7.75 10.5C7.75 9.70725 7.22287 9.03761 6.5 8.82247V6.92754C7.22287 6.7124 7.75 6.04276 7.75 5.25C7.75 4.28351 6.9665 3.50001 6 3.50001C5.0335 3.50001 4.25 4.28351 4.25 5.25C4.25 6.04276 4.77713 6.7124 5.5 6.92754V8.82247C4.77713 9.03761 4.25 9.70725 4.25 10.5C4.25 11.4665 5.0335 12.25 6 12.25ZM11 7.25C11.2761 7.25 11.5 7.47386 11.5 7.75V8.8224C12.2229 9.03754 12.75 9.70725 12.75 10.5C12.75 11.4665 11.9665 12.25 11 12.25C10.0335 12.25 9.25 11.4665 9.25 10.5C9.25 9.70725 9.77713 9.03761 10.5 8.82247V7.75C10.5 7.47386 10.7239 7.25 11 7.25ZM12.2552 4.4874C12.4505 4.29214 12.4505 3.97556 12.2552 3.7803C12.0599 3.58504 11.7434 3.58504 11.5481 3.7803L11.0178 4.31063L10.4874 3.7803C10.2922 3.58504 9.97559 3.58504 9.78033 3.7803C9.58506 3.97556 9.58506 4.29214 9.78033 4.4874L10.3107 5.01774L9.78033 5.54806C9.58507 5.74333 9.58507 6.05991 9.78033 6.25517C9.97559 6.45043 10.2922 6.45043 10.4874 6.25517L11.0178 5.72484L11.5481 6.25517C11.7434 6.45043 12.0599 6.45043 12.2552 6.25517C12.4505 6.05991 12.4505 5.74333 12.2552 5.54806L11.7249 5.01774L12.2552 4.4874Z" fill="black" style="fill:black;fill:black;fill-opacity:1;"/>
</svg>
