<svg width="17" height="16" viewBox="0 0 17 16" fill="none" xmlns="http://www.w3.org/2000/svg">
<path fill-rule="evenodd" clip-rule="evenodd" d="M8.5 0C4.08172 0 0.5 3.58172 0.5 8C0.5 12.4183 4.08172 16 8.5 16C12.9183 16 16.5 12.4183 16.5 8C16.5 3.58172 12.9183 0 8.5 0ZM11.9571 6.95711C12.3476 6.56658 12.3476 5.93342 11.9571 5.54289C11.5666 5.15237 10.9334 5.15237 10.5429 5.54289L7.75 8.33579L6.45711 7.04289C6.06658 6.65237 5.43342 6.65237 5.04289 7.04289C4.65237 7.43342 4.65237 8.06658 5.04289 8.45711L7.04289 10.4571C7.43342 10.8476 8.06658 10.8476 8.45711 10.4571L11.9571 6.95711Z" fill="black" style="fill:black;fill:black;fill-opacity:1;"/>
</svg>
