<svg width="16" height="16" viewBox="0 0 16 16" fill="none" xmlns="http://www.w3.org/2000/svg">
<path fill-rule="evenodd" clip-rule="evenodd" d="M0 8C0 3.58172 3.58172 0 8 0C12.4183 0 16 3.58172 16 8C16 12.4183 12.4183 16 8 16C3.58172 16 0 12.4183 0 8ZM7.25 10.5C7.25 11.4665 6.4665 12.25 5.5 12.25C4.5335 12.25 3.75 11.4665 3.75 10.5C3.75 9.70724 4.27713 9.03761 5 8.82247V6.92753C4.27713 6.71239 3.75 6.04276 3.75 5.25C3.75 4.2835 4.5335 3.5 5.5 3.5C6.4665 3.5 7.25 4.2835 7.25 5.25C7.25 6.04276 6.72287 6.71239 6 6.92753V8.82247C6.72287 9.03761 7.25 9.70724 7.25 10.5ZM10.5 12.25C11.4665 12.25 12.25 11.4665 12.25 10.5C12.25 9.5335 11.4665 8.75 10.5 8.75C9.5335 8.75 8.75 9.5335 8.75 10.5C8.75 11.4665 9.5335 12.25 10.5 12.25ZM11.25 4.5C11.25 4.91421 10.9142 5.25 10.5 5.25C10.0858 5.25 9.75 4.91421 9.75 4.5C9.75 4.08579 10.0858 3.75 10.5 3.75C10.9142 3.75 11.25 4.08579 11.25 4.5ZM10.5 7.75C10.9142 7.75 11.25 7.41421 11.25 7C11.25 6.58579 10.9142 6.25 10.5 6.25C10.0858 6.25 9.75 6.58579 9.75 7C9.75 7.41421 10.0858 7.75 10.5 7.75Z" fill="black" style="fill:black;fill:black;fill-opacity:1;"/>
</svg>
