<svg width="16" height="16" viewBox="0 0 16 16" fill="none" xmlns="http://www.w3.org/2000/svg">
<path fill-rule="evenodd" clip-rule="evenodd" d="M8 0C3.58172 0 0 3.58172 0 8C0 12.4183 3.58172 16 8 16C12.4183 16 16 12.4183 16 8C16 3.58172 12.4183 0 8 0ZM8 2.25C7.69469 2.25 7.39444 2.27386 7.10113 2.31996C6.69194 2.38426 6.41236 2.76811 6.47666 3.1773C6.54097 3.58649 6.92481 3.86608 7.334 3.80177C7.55056 3.76774 7.77295 3.75 8 3.75C8.22705 3.75 8.44944 3.76774 8.666 3.80177C9.07519 3.86608 9.45903 3.58649 9.52334 3.1773C9.58764 2.76811 9.30806 2.38426 8.89887 2.31996C8.60556 2.27386 8.30531 2.25 8 2.25ZM5.50224 4.56101C5.83715 4.31727 5.91105 3.84818 5.66731 3.51327C5.42357 3.17836 4.95449 3.10445 4.61958 3.34819C4.13223 3.70287 3.70287 4.13223 3.34819 4.61958C3.10445 4.95449 3.17836 5.42357 3.51327 5.66731C3.84818 5.91105 4.31727 5.83715 4.56101 5.50224C4.82354 5.1415 5.1415 4.82354 5.50224 4.56101ZM11.3804 3.34819C11.0455 3.10445 10.5764 3.17836 10.3327 3.51327C10.0889 3.84818 10.1629 4.31727 10.4978 4.56101C10.8585 4.82354 11.1765 5.1415 11.439 5.50224C11.6827 5.83715 12.1518 5.91105 12.4867 5.66731C12.8216 5.42357 12.8955 4.95449 12.6518 4.61958C12.2971 4.13223 11.8678 3.70287 11.3804 3.34819ZM3.80177 7.334C3.86608 6.92481 3.58649 6.54097 3.1773 6.47666C2.76811 6.41235 2.38426 6.69194 2.31996 7.10113C2.27386 7.39444 2.25 7.69469 2.25 8C2.25 8.30531 2.27386 8.60556 2.31996 8.89887C2.38426 9.30806 2.76811 9.58764 3.1773 9.52334C3.58649 9.45903 3.86608 9.07519 3.80177 8.666C3.76774 8.44944 3.75 8.22705 3.75 8C3.75 7.77295 3.76774 7.55056 3.80177 7.334ZM13.68 7.10113C13.6157 6.69194 13.2319 6.41236 12.8227 6.47666C12.4135 6.54097 12.1339 6.92481 12.1982 7.334C12.2323 7.55056 12.25 7.77295 12.25 8C12.25 8.22705 12.2323 8.44944 12.1982 8.666C12.1339 9.07519 12.4135 9.45903 12.8227 9.52334C13.2319 9.58764 13.6157 9.30806 13.68 8.89887C13.7261 8.60556 13.75 8.30531 13.75 8C13.75 7.69469 13.7261 7.39444 13.68 7.10113ZM4.56101 10.4978C4.31727 10.1629 3.84818 10.0889 3.51327 10.3327C3.17836 10.5764 3.10445 11.0455 3.34819 11.3804C3.70287 11.8678 4.13223 12.2971 4.61958 12.6518C4.95449 12.8955 5.42357 12.8216 5.66731 12.4867C5.91105 12.1518 5.83715 11.6827 5.50224 11.439C5.1415 11.1765 4.82354 10.8585 4.56101 10.4978ZM12.6518 11.3804C12.8955 11.0455 12.8216 10.5764 12.4867 10.3327C12.1518 10.0889 11.6827 10.1629 11.439 10.4978C11.1765 10.8585 10.8585 11.1765 10.4978 11.439C10.1629 11.6827 10.0889 12.1518 10.3327 12.4867C10.5764 12.8216 11.0455 12.8955 11.3804 12.6518C11.8678 12.2971 12.2971 11.8678 12.6518 11.3804ZM7.334 12.1982C6.92481 12.1339 6.54097 12.4135 6.47666 12.8227C6.41235 13.2319 6.69194 13.6157 7.10113 13.68C7.39444 13.7261 7.69469 13.75 8 13.75C8.30531 13.75 8.60556 13.7261 8.89887 13.68C9.30806 13.6157 9.58764 13.2319 9.52334 12.8227C9.45903 12.4135 9.07519 12.1339 8.666 12.1982C8.44944 12.2323 8.22705 12.25 8 12.25C7.77295 12.25 7.55056 12.2323 7.334 12.1982Z" fill="black" style="fill:black;fill:black;fill-opacity:1;"/>
</svg>
