<svg width="17" height="16" viewBox="0 0 17 16" fill="none" xmlns="http://www.w3.org/2000/svg">
<path fill-rule="evenodd" clip-rule="evenodd" d="M0.5 8C0.5 3.58172 4.08172 0 8.5 0C12.9183 0 16.5 3.58172 16.5 8C16.5 12.4183 12.9183 16 8.5 16C4.08172 16 0.5 12.4183 0.5 8ZM5 8.25C5 7.69772 5.44772 7.25 6 7.25V5.75C6 4.09315 7.34315 2.75 9 2.75C9.71372 2.75 10.371 3.00018 10.8861 3.41697C11.2081 3.67753 11.2579 4.14979 10.9974 4.47178C10.7368 4.79378 10.2645 4.84359 9.94255 4.58303C9.68476 4.37442 9.35793 4.25 9 4.25C8.17157 4.25 7.5 4.92157 7.5 5.75V7.25H11C11.5523 7.25 12 7.69772 12 8.25V11.25C12 11.8023 11.5523 12.25 11 12.25H6C5.44772 12.25 5 11.8023 5 11.25V8.25Z" fill="black" style="fill:black;fill:black;fill-opacity:1;"/>
</svg>
