<svg width="16" height="16" viewBox="0 0 16 16" fill="none" xmlns="http://www.w3.org/2000/svg">
<path fill-rule="evenodd" clip-rule="evenodd" d="M8 16C12.4183 16 16 12.4183 16 8C16 3.58172 12.4183 0 8 0C3.58172 0 0 3.58172 0 8C0 12.4183 3.58172 16 8 16ZM8.25 4.75C8.25 5.52697 7.74366 6.18567 7.04295 6.41414C7.23377 7.31989 8.03783 8 9.00053 8H9.57247C9.78761 7.27713 10.4572 6.75 11.25 6.75C12.2165 6.75 13 7.5335 13 8.5C13 9.4665 12.2165 10.25 11.25 10.25C10.4572 10.25 9.78761 9.72287 9.57247 9H9.00053C8.23207 9 7.53094 8.71105 7 8.23585V9.57247C7.72287 9.78761 8.25 10.4572 8.25 11.25C8.25 12.2165 7.4665 13 6.5 13C5.5335 13 4.75 12.2165 4.75 11.25C4.75 10.4572 5.27713 9.78761 6 9.57247V6.42753C5.27713 6.21239 4.75 5.54276 4.75 4.75C4.75 3.7835 5.5335 3 6.5 3C7.4665 3 8.25 3.7835 8.25 4.75Z" fill="#24292F"/>
</svg>
