<svg width="17" height="16" viewBox="0 0 17 16" fill="none" xmlns="http://www.w3.org/2000/svg">
<path fill-rule="evenodd" clip-rule="evenodd" d="M0.5 8C0.5 3.58172 4.08172 0 8.5 0C12.9183 0 16.5 3.58172 16.5 8C16.5 12.4183 12.9183 16 8.5 16C4.08172 16 0.5 12.4183 0.5 8ZM10 8C10 8.82843 9.32843 9.5 8.5 9.5C7.67157 9.5 7 8.82843 7 8C7 7.17157 7.67157 6.5 8.5 6.5C9.32843 6.5 10 7.17157 10 8ZM3.92678 3.67678C3.76929 3.51929 3.5 3.63083 3.5 3.85355V6C3.5 6.13807 3.61193 6.25 3.75 6.25H5.89645C6.11917 6.25 6.23071 5.98071 6.07322 5.82322L5.54928 5.29928C6.28133 4.49981 7.33237 4 8.5 4C10.4194 4 12.0245 5.35259 12.4112 7.15714C12.498 7.56216 12.8967 7.82014 13.3017 7.73335C13.7067 7.64657 13.9647 7.24788 13.8779 6.84286C13.3461 4.36108 11.1413 2.5 8.5 2.5C6.91712 2.5 5.49066 3.16914 4.48795 4.23795L3.92678 3.67678ZM13.5 12.1464C13.5 12.3692 13.2307 12.4807 13.0732 12.3232L12.512 11.762C11.5093 12.8309 10.0829 13.5 8.5 13.5C5.85873 13.5 3.65388 11.6389 3.12209 9.15714C3.03531 8.75212 3.29329 8.35343 3.69831 8.26665C4.10333 8.17986 4.50202 8.43784 4.5888 8.84286C4.97547 10.6474 6.58065 12 8.5 12C9.66761 12 10.7187 11.5002 11.4507 10.7007L10.9268 10.1768C10.7693 10.0193 10.8808 9.75 11.1036 9.75H13.25C13.3881 9.75 13.5 9.86193 13.5 10V12.1464Z" fill="black" style="fill:black;fill:black;fill-opacity:1;"/>
</svg>
