<svg width="17" height="16" viewBox="0 0 17 16" fill="none" xmlns="http://www.w3.org/2000/svg">
<path fill-rule="evenodd" clip-rule="evenodd" d="M8.5 0C4.08172 0 0.5 3.58172 0.5 8C0.5 12.4183 4.08172 16 8.5 16C12.9183 16 16.5 12.4183 16.5 8C16.5 3.58172 12.9183 0 8.5 0ZM8.5 2.25C8.19469 2.25 7.89444 2.27386 7.60113 2.31996C7.19194 2.38426 6.91236 2.76811 6.97666 3.1773C7.04097 3.58649 7.42481 3.86608 7.834 3.80177C8.05056 3.76774 8.27295 3.75 8.5 3.75C8.72705 3.75 8.94944 3.76774 9.166 3.80177C9.57519 3.86608 9.95903 3.58649 10.0233 3.1773C10.0876 2.76811 9.80806 2.38426 9.39887 2.31996C9.10556 2.27386 8.80531 2.25 8.5 2.25ZM6.00224 4.56101C6.33715 4.31727 6.41105 3.84818 6.16731 3.51327C5.92357 3.17836 5.45449 3.10445 5.11958 3.34819C4.63223 3.70287 4.20287 4.13223 3.84819 4.61958C3.60445 4.95449 3.67836 5.42357 4.01327 5.66731C4.34818 5.91105 4.81727 5.83715 5.06101 5.50224C5.32354 5.1415 5.6415 4.82354 6.00224 4.56101ZM11.8804 3.34819C11.5455 3.10445 11.0764 3.17836 10.8327 3.51327C10.5889 3.84818 10.6629 4.31727 10.9978 4.56101C11.3585 4.82354 11.6765 5.1415 11.939 5.50224C12.1827 5.83715 12.6518 5.91105 12.9867 5.66731C13.3216 5.42357 13.3955 4.95449 13.1518 4.61958C12.7971 4.13223 12.3678 3.70287 11.8804 3.34819ZM4.30177 7.334C4.36608 6.92481 4.08649 6.54097 3.6773 6.47666C3.26811 6.41235 2.88426 6.69194 2.81996 7.10113C2.77386 7.39444 2.75 7.69469 2.75 8C2.75 8.30531 2.77386 8.60556 2.81996 8.89887C2.88426 9.30806 3.26811 9.58764 3.6773 9.52334C4.08649 9.45903 4.36608 9.07519 4.30177 8.666C4.26774 8.44944 4.25 8.22705 4.25 8C4.25 7.77295 4.26774 7.55056 4.30177 7.334ZM14.18 7.10113C14.1157 6.69194 13.7319 6.41236 13.3227 6.47666C12.9135 6.54097 12.6339 6.92481 12.6982 7.334C12.7323 7.55056 12.75 7.77295 12.75 8C12.75 8.22705 12.7323 8.44944 12.6982 8.666C12.6339 9.07519 12.9135 9.45903 13.3227 9.52334C13.7319 9.58764 14.1157 9.30806 14.18 8.89887C14.2261 8.60556 14.25 8.30531 14.25 8C14.25 7.69469 14.2261 7.39444 14.18 7.10113ZM5.06101 10.4978C4.81727 10.1629 4.34818 10.0889 4.01327 10.3327C3.67836 10.5764 3.60445 11.0455 3.84819 11.3804C4.20287 11.8678 4.63223 12.2971 5.11958 12.6518C5.45449 12.8955 5.92357 12.8216 6.16731 12.4867C6.41105 12.1518 6.33715 11.6827 6.00224 11.439C5.6415 11.1765 5.32354 10.8585 5.06101 10.4978ZM13.1518 11.3804C13.3955 11.0455 13.3216 10.5764 12.9867 10.3327C12.6518 10.0889 12.1827 10.1629 11.939 10.4978C11.6765 10.8585 11.3585 11.1765 10.9978 11.439C10.6629 11.6827 10.5889 12.1518 10.8327 12.4867C11.0764 12.8216 11.5455 12.8955 11.8804 12.6518C12.3678 12.2971 12.7971 11.8678 13.1518 11.3804ZM7.834 12.1982C7.42481 12.1339 7.04097 12.4135 6.97666 12.8227C6.91235 13.2319 7.19194 13.6157 7.60113 13.68C7.89444 13.7261 8.19469 13.75 8.5 13.75C8.80531 13.75 9.10556 13.7261 9.39887 13.68C9.80806 13.6157 10.0876 13.2319 10.0233 12.8227C9.95903 12.4135 9.57519 12.1339 9.166 12.1982C8.94944 12.2323 8.72705 12.25 8.5 12.25C8.27295 12.25 8.05056 12.2323 7.834 12.1982Z" fill="black" style="fill:black;fill:black;fill-opacity:1;"/>
</svg>
