<svg width="17" height="16" viewBox="0 0 17 16" fill="none" xmlns="http://www.w3.org/2000/svg">
<path fill-rule="evenodd" clip-rule="evenodd" d="M4.25 8C4.25 5.65279 6.15279 3.75 8.5 3.75C10.8472 3.75 12.75 5.65279 12.75 8C12.75 10.3472 10.8472 12.25 8.5 12.25C6.15279 12.25 4.25 10.3472 4.25 8ZM10 8C10 8.82843 9.32843 9.5 8.5 9.5C7.67157 9.5 7 8.82843 7 8C7 7.17157 7.67157 6.5 8.5 6.5C9.32843 6.5 10 7.17157 10 8Z" fill="black" style="fill:black;fill:black;fill-opacity:1;"/>
<path fill-rule="evenodd" clip-rule="evenodd" d="M0.5 8C0.5 3.58172 4.08172 0 8.5 0C12.9183 0 16.5 3.58172 16.5 8C16.5 12.4183 12.9183 16 8.5 16C4.08172 16 0.5 12.4183 0.5 8ZM8.5 2.25C5.32436 2.25 2.75 4.82436 2.75 8C2.75 11.1756 5.32436 13.75 8.5 13.75C11.6756 13.75 14.25 11.1756 14.25 8C14.25 4.82436 11.6756 2.25 8.5 2.25Z" fill="black" style="fill:black;fill:black;fill-opacity:1;"/>
</svg>
