<svg width="16" height="16" viewBox="0 0 16 16" fill="none" xmlns="http://www.w3.org/2000/svg">
<path fill-rule="evenodd" clip-rule="evenodd" d="M8 0C3.58172 0 0 3.58172 0 8C0 12.4183 3.58172 16 8 16C12.4183 16 16 12.4183 16 8C16 3.58172 12.4183 0 8 0ZM11.4571 6.95711C11.8476 6.56658 11.8476 5.93342 11.4571 5.54289C11.0666 5.15237 10.4334 5.15237 10.0429 5.54289L7.25 8.33579L5.95711 7.04289C5.56658 6.65237 4.93342 6.65237 4.54289 7.04289C4.15237 7.43342 4.15237 8.06658 4.54289 8.45711L6.54289 10.4571C6.93342 10.8476 7.56658 10.8476 7.95711 10.4571L11.4571 6.95711Z" fill="black" style="fill:black;fill:black;fill-opacity:1;"/>
</svg>
