<svg width="17" height="16" viewBox="0 0 17 16" fill="none" xmlns="http://www.w3.org/2000/svg">
<path fill-rule="evenodd" clip-rule="evenodd" d="M0.5 8C0.5 3.58172 4.08172 0 8.5 0C12.9183 0 16.5 3.58172 16.5 8C16.5 12.4183 12.9183 16 8.5 16C4.08172 16 0.5 12.4183 0.5 8ZM7.75 10.5C7.75 11.4665 6.9665 12.25 6 12.25C5.0335 12.25 4.25 11.4665 4.25 10.5C4.25 9.70724 4.77713 9.03761 5.5 8.82247V6.92753C4.77713 6.71239 4.25 6.04276 4.25 5.25C4.25 4.2835 5.0335 3.5 6 3.5C6.9665 3.5 7.75 4.2835 7.75 5.25C7.75 6.04276 7.22287 6.71239 6.5 6.92753V8.82247C7.22287 9.03761 7.75 9.70724 7.75 10.5ZM11 12.25C11.9665 12.25 12.75 11.4665 12.75 10.5C12.75 9.5335 11.9665 8.75 11 8.75C10.0335 8.75 9.25 9.5335 9.25 10.5C9.25 11.4665 10.0335 12.25 11 12.25ZM11.75 4.5C11.75 4.91421 11.4142 5.25 11 5.25C10.5858 5.25 10.25 4.91421 10.25 4.5C10.25 4.08579 10.5858 3.75 11 3.75C11.4142 3.75 11.75 4.08579 11.75 4.5ZM11 7.75C11.4142 7.75 11.75 7.41421 11.75 7C11.75 6.58579 11.4142 6.25 11 6.25C10.5858 6.25 10.25 6.58579 10.25 7C10.25 7.41421 10.5858 7.75 11 7.75Z" fill="black" style="fill:black;fill:black;fill-opacity:1;"/>
</svg>
