<svg width="16" height="16" viewBox="0 0 16 16" fill="none" xmlns="http://www.w3.org/2000/svg">
<path fill-rule="evenodd" clip-rule="evenodd" d="M8 16C12.4183 16 16 12.4183 16 8C16 3.58172 12.4183 0 8 0C3.58172 0 0 3.58172 0 8C0 12.4183 3.58172 16 8 16ZM5.5 4C4.67157 4 4 4.67157 4 5.5V10.5C4 11.3284 4.5 12 5 12V11C5 10.4477 5.44772 10 6 10H11V11H10V12H11.5C11.7761 12 12 11.7761 12 11.5V4.5C12 4.22386 11.7761 4 11.5 4H5.5ZM6 11.25C6 11.1119 6.11193 11 6.25 11H9V13.7642C9 13.9862 8.73217 14.098 8.57426 13.942L7.67574 13.0539C7.57835 12.9576 7.42165 12.9576 7.32426 13.0539L6.42574 13.942C6.26783 14.098 6 13.9862 6 13.7642V11.25Z" fill="#24292F"/>
</svg>
