<svg width="16" height="16" viewBox="0 0 16 16" fill="none" xmlns="http://www.w3.org/2000/svg">
<path fill-rule="evenodd" clip-rule="evenodd" d="M0 8C0 3.58172 3.58172 0 8 0C12.4183 0 16 3.58172 16 8C16 12.4183 12.4183 16 8 16C3.58172 16 0 12.4183 0 8ZM4.5 8.25C4.5 7.69772 4.94772 7.25 5.5 7.25V5.75C5.5 4.09315 6.84315 2.75 8.5 2.75C9.21372 2.75 9.87105 3.00018 10.3861 3.41697C10.7081 3.67753 10.7579 4.14979 10.4974 4.47178C10.2368 4.79378 9.76455 4.84359 9.44255 4.58303C9.18476 4.37442 8.85793 4.25 8.5 4.25C7.67157 4.25 7 4.92157 7 5.75V7.25H10.5C11.0523 7.25 11.5 7.69772 11.5 8.25V11.25C11.5 11.8023 11.0523 12.25 10.5 12.25H5.5C4.94772 12.25 4.5 11.8023 4.5 11.25V8.25Z" fill="black" style="fill:black;fill:black;fill-opacity:1;"/>
</svg>
