<svg xmlns="http://www.w3.org/2000/svg" width="16" height="16" viewBox="0 0 16 16"><path fill-rule="evenodd" d="M8 16A8 8 0 108 0a8 8 0 000 16zm3.031-12a4.38 4.38 0 00-3.097 1.283l-.23.229c-.156.157-.308.32-.452.49H5.65a.876.876 0 00-.746.417l-.856 1.388a.375.375 0 00.21.556l1.552.477 1.35 1.35.478 1.553a.375.375 0 00.555.21l1.389-.855a.876.876 0 00.416-.746V8.747c.17-.144.333-.295.49-.452l.23-.23A4.38 4.38 0 0012 4.969v-.093A.876.876 0 0011.124 4h-.093zm-5.107 7.144a.81.81 0 01-.188.263c-.394.394-1.258.563-1.62.619a.124.124 0 01-.143-.143c.056-.362.225-1.226.62-1.62a.808.808 0 011.33.881z"/></svg>