<svg width="16" height="16" viewBox="0 0 16 16" fill="none" xmlns="http://www.w3.org/2000/svg">
<path d="M7.21989 6.5C7.21989 6.89759 6.89758 7.2199 6.49999 7.2199C6.1024 7.2199 5.78009 6.89759 5.78009 6.5C5.78009 6.10241 6.1024 5.7801 6.49999 5.7801C6.89758 5.7801 7.21989 6.10241 7.21989 6.5Z" fill="#24292F"/>
<path fill-rule="evenodd" clip-rule="evenodd" d="M8 16C12.4183 16 16 12.4183 16 8C16 3.58172 12.4183 0 8 0C3.58172 0 0 3.58172 0 8C0 12.4183 3.58172 16 8 16ZM4 8.37868V5C4 4.44772 4.44772 4 5 4H8.37868C8.7765 4 9.15804 4.15803 9.43934 4.43934L12.6515 7.65147C13.1201 8.1201 13.1201 8.8799 12.6515 9.34853L9.34853 12.6515C8.8799 13.1201 8.1201 13.1201 7.65147 12.6515L4.43934 9.43934C4.15804 9.15804 4 8.7765 4 8.37868Z" fill="#24292F"/>
</svg>
