<svg width="16" height="16" viewBox="0 0 16 16" fill="none" xmlns="http://www.w3.org/2000/svg">
<path fill-rule="evenodd" clip-rule="evenodd" d="M8 16C12.4183 16 16 12.4183 16 8C16 3.58172 12.4183 0 8 0C3.58172 0 0 3.58172 0 8C0 12.4183 3.58172 16 8 16ZM8.84703 7.855C9.81145 7.50792 10.501 6.58501 10.501 5.50104C10.501 4.11975 9.38129 3 8 3C6.61872 3 5.49896 4.11975 5.49896 5.50104C5.49896 6.58502 6.18856 7.50793 7.15299 7.85501C5.47064 8.26064 4 9.77576 4 11C4 11.3945 4.14453 11.9945 5 11.9945H11C11.8555 11.9945 12 11.3945 12 11C12 9.77575 10.5294 8.26062 8.84703 7.855Z" fill="#24292F"/>
</svg>
