<svg xmlns="http://www.w3.org/2000/svg" width="16" height="16" viewBox="0 0 16 16">
  <defs/>
  <path d="M8,16 C3.582,16 0,12.418 0,8 C0,3.582 3.582,0 8,0 C12.418,0 16,3.582 16,8 C16,12.418 12.418,16 8,16 Z M6,6.928 C6.833,6.68 7.357,5.858 7.232,4.998 C7.106,4.138 6.369,3.501 5.5,3.501 C4.631,3.501 3.894,4.138 3.768,4.998 C3.643,5.858 4.167,6.68 5,6.928 L5,7.5 C5,8.328 5.672,9 6.5,9 L7.5,9 L7.5,10.072 C6.667,10.32 6.143,11.142 6.268,12.002 C6.394,12.862 7.131,13.499 8,13.499 C8.869,13.499 9.606,12.862 9.732,12.002 C9.857,11.142 9.333,10.32 8.5,10.072 L8.5,9 L9.5,9 C10.328,9 11,8.328 11,7.5 L11,6.928 C11.833,6.68 12.357,5.858 12.232,4.998 C12.106,4.138 11.369,3.501 10.5,3.501 C9.631,3.501 8.894,4.138 8.768,4.998 C8.643,5.858 9.167,6.68 10,6.928 L10,7.5 C10,7.776 9.776,8 9.5,8 L6.5,8 C6.224,8 6,7.776 6,7.5 Z"/>
</svg>

