<svg xmlns="http://www.w3.org/2000/svg" width="16" height="16" viewBox="0 0 16 16">
  <defs/>
  <path d="M8,16 C3.582,16 0,12.418 0,8 C0,3.582 3.582,0 8,0 C12.418,0 16,3.582 16,8 C16,12.418 12.418,16 8,16 Z M8.847,7.855 C9.991,7.443 10.674,6.269 10.465,5.071 C10.256,3.873 9.216,2.999 8,2.999 C6.784,2.999 5.744,3.873 5.535,5.071 C5.326,6.269 6.009,7.443 7.153,7.855 C5.471,8.261 4,9.775 4,11 C4,11.395 4.145,11.995 5,11.995 L11,11.995 C11.855,11.995 12,11.395 12,11 C12,9.776 10.53,8.26 8.847,7.855 Z"/>
</svg>

