<svg width="16" height="16" viewBox="0 0 16 16" fill="none" xmlns="http://www.w3.org/2000/svg">
<path fill-rule="evenodd" clip-rule="evenodd" d="M8 0C3.58172 0 0 3.58172 0 8C0 12.4183 3.58172 16 8 16C12.4183 16 16 12.4183 16 8C16 3.58172 12.4183 0 8 0ZM5.5 12.25C6.4665 12.25 7.25 11.4665 7.25 10.5C7.25 9.70725 6.72287 9.03761 6 8.82247V6.92754C6.72287 6.7124 7.25 6.04276 7.25 5.25C7.25 4.28351 6.4665 3.50001 5.5 3.50001C4.5335 3.50001 3.75 4.28351 3.75 5.25C3.75 6.04276 4.27713 6.7124 5 6.92754V8.82247C4.27713 9.03761 3.75 9.70725 3.75 10.5C3.75 11.4665 4.5335 12.25 5.5 12.25ZM10.5 7.25C10.7761 7.25 11 7.47386 11 7.75V8.8224C11.7229 9.03754 12.25 9.70725 12.25 10.5C12.25 11.4665 11.4665 12.25 10.5 12.25C9.5335 12.25 8.75 11.4665 8.75 10.5C8.75 9.70725 9.27713 9.03761 10 8.82247V7.75C10 7.47386 10.2239 7.25 10.5 7.25ZM11.7552 4.4874C11.9505 4.29214 11.9505 3.97556 11.7552 3.7803C11.5599 3.58504 11.2434 3.58504 11.0481 3.7803L10.5178 4.31063L9.98743 3.7803C9.79217 3.58504 9.47559 3.58504 9.28033 3.7803C9.08506 3.97556 9.08506 4.29214 9.28033 4.4874L9.81066 5.01774L9.28033 5.54806C9.08507 5.74333 9.08507 6.05991 9.28033 6.25517C9.47559 6.45043 9.79217 6.45043 9.98744 6.25517L10.5178 5.72484L11.0481 6.25517C11.2434 6.45043 11.5599 6.45043 11.7552 6.25517C11.9505 6.05991 11.9505 5.74333 11.7552 5.54806L11.2249 5.01774L11.7552 4.4874Z" fill="black" style="fill:black;fill:black;fill-opacity:1;"/>
</svg>
