<svg xmlns="http://www.w3.org/2000/svg" width="16" height="16" viewBox="0 0 16 16"><path d="M8 16A8 8 0 118 0a8 8 0 010 16zm3.031-12a4.38 4.38 0 00-3.097 1.283l-.23.229c-.156.157-.308.32-.452.49H5.65a.876.876 0 00-.746.417l-.856 1.388a.377.377 0 00.21.556l1.552.477 1.35 1.35.478 1.553a.374.374 0 00.555.21l1.389-.855a.876.876 0 00.416-.746V8.747c.17-.144.333-.295.49-.452l.23-.23A4.379 4.379 0 0012 4.969v-.093A.876.876 0 0011.124 4zm-5.107 7.144h-.001a.809.809 0 00-1.33-.881c-.395.394-.564 1.258-.62 1.62a.12.12 0 00.035.108.12.12 0 00.108.035c.362-.056 1.226-.225 1.62-.619a.803.803 0 00.188-.263z"/></svg>