<svg xmlns="http://www.w3.org/2000/svg" width="16" height="16" viewBox="0 0 16 16">
  <defs/>
  <path d="M8,16 C3.582,16 0,12.418 0,8 C0,3.582 3.582,0 8,0 C12.418,0 16,3.582 16,8 C16,12.418 12.418,16 8,16 Z M5.5,4 C4.672,4 4,4.672 4,5.5 L4,10.5 C4,11.328 4.5,12 5,12 L5,11 C5,10.448 5.448,10 6,10 L11,10 L11,11 L10,11 L10,12 L11.5,12 C11.776,12 12,11.776 12,11.5 L12,4.5 C12,4.224 11.776,4 11.5,4 Z M6,11.25 L6,13.764 C6,13.865 6.06,13.956 6.154,13.995 C6.247,14.034 6.354,14.013 6.426,13.942 L7.324,13.054 C7.421,12.957 7.579,12.957 7.676,13.054 L8.574,13.942 C8.646,14.013 8.753,14.034 8.846,13.995 C8.94,13.956 9,13.865 9,13.764 L9,11 L6.25,11 C6.112,11 6,11.112 6,11.25 Z"/>
</svg>

