<svg width="16" height="16" viewBox="0 0 16 16" fill="none" xmlns="http://www.w3.org/2000/svg">
<path fill-rule="evenodd" clip-rule="evenodd" d="M8 16C12.4183 16 16 12.4183 16 8C16 3.58172 12.4183 0 8 0C3.58172 0 0 3.58172 0 8C0 12.4183 3.58172 16 8 16ZM10.3309 4.5C9.11032 4.5 8.5 5 8.00667 5.63621C7.51335 5 6.90303 4.5 5.68241 4.5C4.65363 4.5 3.51335 5.28406 3.51335 7C3.51335 8.49859 5.00623 10.4334 6.75917 11.5171C7.27864 11.8382 7.64954 11.9959 8.00667 12.0008C8.36381 11.9959 8.73471 11.8382 9.25417 11.5171C11.0071 10.4334 12.5 8.49859 12.5 7C12.5 5.28406 11.3597 4.5 10.3309 4.5Z" fill="#24292F"/>
</svg>
