<svg width="16" height="16" viewBox="0 0 16 16" fill="none" xmlns="http://www.w3.org/2000/svg">
<path fill-rule="evenodd" clip-rule="evenodd" d="M0 8C0 3.58172 3.58172 0 8 0C12.4183 0 16 3.58172 16 8C16 12.4183 12.4183 16 8 16C3.58172 16 0 12.4183 0 8ZM6.75 10.5C6.75 11.4665 5.9665 12.25 5 12.25C4.0335 12.25 3.25 11.4665 3.25 10.5C3.25 9.70726 3.77713 9.03762 4.5 8.82248V6.92754C3.77713 6.7124 3.25 6.04277 3.25 5.25001C3.25 4.28351 4.0335 3.50001 5 3.50001C5.9665 3.50001 6.75 4.28351 6.75 5.25001C6.75 6.04277 6.22287 6.7124 5.5 6.92754V8.82248C6.22287 9.03762 6.75 9.70726 6.75 10.5ZM10 5.50001V6.87133C10 7.09406 9.73072 7.2056 9.57322 7.04811L7.7019 5.17679C7.60427 5.07916 7.60427 4.92086 7.7019 4.82323L9.57322 2.95191C9.73072 2.79442 10 2.90596 10 3.12869V4.50001H10.25C11.0784 4.50001 11.75 5.17158 11.75 6.00001V8.82248C12.4729 9.03762 13 9.70725 13 10.5C13 11.4665 12.2165 12.25 11.25 12.25C10.2835 12.25 9.5 11.4665 9.5 10.5C9.5 9.70726 10.0271 9.03762 10.75 8.82248V6.00001C10.75 5.72387 10.5261 5.50001 10.25 5.50001H10Z" fill="black" style="fill:black;fill:black;fill-opacity:1;"/>
</svg>
