<svg xmlns="http://www.w3.org/2000/svg" width="16" height="16" viewBox="0 0 16 16">
  <defs/>
  <path d="M8,16 C3.582,16 0,12.418 0,8 C0,3.582 3.582,0 8,0 C12.418,0 16,3.582 16,8 C16,12.418 12.418,16 8,16 Z M8.25,4.75 C8.25,3.849 7.565,3.096 6.668,3.009 C5.771,2.922 4.955,3.531 4.782,4.415 C4.61,5.3 5.137,6.171 6,6.428 L6,9.572 C5.167,9.82 4.643,10.642 4.768,11.502 C4.894,12.362 5.631,12.999 6.5,12.999 C7.369,12.999 8.106,12.362 8.232,11.502 C8.357,10.642 7.833,9.82 7,9.572 L7,8.236 C7.55,8.729 8.262,9.001 9,9 L9.571,9 C9.819,9.833 10.641,10.357 11.501,10.232 C12.361,10.106 12.998,9.369 12.998,8.5 C12.998,7.631 12.361,6.894 11.501,6.768 C10.641,6.643 9.819,7.167 9.571,8 L9,8 C8.055,8 7.239,7.339 7.043,6.414 C7.763,6.179 8.25,5.507 8.25,4.75 Z"/>
</svg>

