<svg width="24" height="24" viewBox="0 0 24 24" fill="none" xmlns="http://www.w3.org/2000/svg">
<path fill-rule="evenodd" clip-rule="evenodd" d="M5.67155 16C5.54875 16.0992 5.4307 16.2053 5.31802 16.318C4.47411 17.1619 4 18.3065 4 19.5C4 20.6935 4.47411 21.8381 5.31802 22.682C6.16193 23.5259 7.30653 24 8.5 24C9.69347 24 10.8381 23.5259 11.682 22.682C12.5259 21.8381 13 20.6935 13 19.5V16.2417C13.2445 16.405 13.505 16.5444 13.7779 16.6575C14.3239 16.8836 14.9091 17 15.5 17C16.0909 17 16.6761 16.8836 17.2221 16.6575C17.768 16.4313 18.2641 16.0998 18.682 15.682C19.0998 15.2641 19.4313 14.768 19.6575 14.2221C19.8836 13.6761 20 13.091 20 12.5C20 11.909 19.8836 11.3239 19.6575 10.7779C19.4313 10.232 19.0998 9.73588 18.682 9.31802C18.5696 9.20564 18.4516 9.09952 18.3284 9C18.4516 8.90049 18.5696 8.79436 18.682 8.68198C19.0998 8.26412 19.4313 7.76804 19.6575 7.22208C19.8836 6.67611 20 6.09095 20 5.5C20 4.90905 19.8836 4.32389 19.6575 3.77792C19.4313 3.23196 19.0998 2.73588 18.682 2.31802C18.2641 1.90016 17.768 1.56869 17.2221 1.34254C16.6761 1.1164 16.0909 1 15.5 1H8.5C7.30653 1 6.16193 1.47411 5.31802 2.31802C4.47411 3.16193 4 4.30653 4 5.5C4 6.69347 4.47411 7.83807 5.31802 8.68198C5.4307 8.79466 5.54875 8.90075 5.67155 9C5.54875 9.09925 5.4307 9.20534 5.31802 9.31802C4.47411 10.1619 4 11.3065 4 12.5C4 13.6935 4.47411 14.8381 5.31802 15.682C5.4307 15.7947 5.54875 15.9007 5.67155 16ZM8.5 3C7.83696 3 7.20107 3.26339 6.73223 3.73223C6.26339 4.20107 6 4.83696 6 5.5C6 6.16304 6.26339 6.79893 6.73223 7.26777C7.20107 7.73661 7.83696 8 8.5 8H11V3H8.5ZM11 17H8.5C7.83696 17 7.20107 17.2634 6.73223 17.7322C6.26339 18.2011 6 18.837 6 19.5C6 20.163 6.26339 20.7989 6.73223 21.2678C7.20107 21.7366 7.83696 22 8.5 22C9.16304 22 9.79893 21.7366 10.2678 21.2678C10.7366 20.7989 11 20.163 11 19.5V17ZM8.5 10C7.83696 10 7.20107 10.2634 6.73223 10.7322C6.26339 11.2011 6 11.837 6 12.5C6 13.163 6.26339 13.7989 6.73223 14.2678C7.20107 14.7366 7.83696 15 8.5 15H11V10H8.5ZM13 12.5C13 12.8283 13.0647 13.1534 13.1903 13.4567C13.3159 13.76 13.5001 14.0356 13.7322 14.2678C13.9644 14.4999 14.24 14.6841 14.5433 14.8097C14.8466 14.9353 15.1717 15 15.5 15C15.8283 15 16.1534 14.9353 16.4567 14.8097C16.76 14.6841 17.0356 14.4999 17.2678 14.2678C17.4999 14.0356 17.6841 13.76 17.8097 13.4567C17.9353 13.1534 18 12.8283 18 12.5C18 12.1717 17.9353 11.8466 17.8097 11.5433C17.6841 11.24 17.4999 10.9644 17.2678 10.7322C17.0356 10.5001 16.76 10.3159 16.4567 10.1903C16.1534 10.0647 15.8283 10 15.5 10C15.1717 10 14.8466 10.0647 14.5433 10.1903C14.24 10.3159 13.9644 10.5001 13.7322 10.7322C13.5001 10.9644 13.3159 11.24 13.1903 11.5433C13.0647 11.8466 13 12.1717 13 12.5ZM15.5 8C15.8283 8 16.1534 7.93534 16.4567 7.8097C16.76 7.68406 17.0356 7.49991 17.2678 7.26777C17.4999 7.03562 17.6841 6.76002 17.8097 6.45671C17.9353 6.15339 18 5.8283 18 5.5C18 5.1717 17.9353 4.84661 17.8097 4.54329C17.6841 4.23998 17.4999 3.96438 17.2678 3.73223C17.0356 3.50009 16.76 3.31594 16.4567 3.1903C16.1534 3.06466 15.8283 3 15.5 3H13V8H15.5Z" fill="black"/>
</svg>
