<svg xmlns="http://www.w3.org/2000/svg" width="16" height="16" viewBox="0 0 16 16">
  <defs/>
  <path d="M0,2.75 C0,1.784 0.784,1 1.75,1 L5,1 C5.55,1 6.07,1.26 6.4,1.7 L7.3,2.9 C7.347,2.963 7.421,3 7.5,3 L14.25,3 C15.216,3 16,3.784 16,4.75 L16,13.25 C16,14.216 15.216,15 14.25,15 L1.75,15 C0.784,15 0,14.216 0,13.25 Z M9.42,12.11 L12.303,9.433 C12.354,9.386 12.383,9.319 12.383,9.25 C12.383,9.181 12.354,9.114 12.303,9.067 L9.42,6.39 C9.347,6.322 9.241,6.304 9.15,6.344 C9.059,6.384 9,6.474 9,6.573 L9,8.5 L4.75,8.5 C4.336,8.5 4,8.836 4,9.25 C4,9.664 4.336,10 4.75,10 L9,10 L9,11.927 C9,12.145 9.26,12.258 9.42,12.11 Z"/>
</svg>

