<svg width="16" height="16" viewBox="0 0 16 16" xmlns="http://www.w3.org/2000/svg">
  <path fill-rule="evenodd" clip-rule="evenodd" d="M0 2.75C0 1.7835 0.783501 1 1.75 1H5C5.55083 1 6.0695 1.25934 6.4 1.7L7.3 2.9C7.34721 2.96295 7.42131 3 7.5 3H14.25C15.2165 3 16 3.7835 16 4.75V13.25C16 14.2165 15.2165 15 14.25 15H1.75C0.783502 15 0 14.2165 0 13.25V2.75ZM9.42012 12.1099L12.3027 9.43317C12.4092 9.33426 12.4092 9.16568 12.3027 9.06677L9.42011 6.3901C9.26015 6.24156 9 6.355 9 6.57329V8.5H4.75C4.33579 8.5 4 8.83578 4 9.25C4 9.66421 4.33579 10 4.75 10H9V11.9267C9 12.145 9.26015 12.2584 9.42012 12.1099Z"/>
</svg>
