<svg xmlns="http://www.w3.org/2000/svg" width="24" height="24" viewBox="0 0 24 24"><path d="M5 2.5a.5.5 0 00-.5.5v18a.5.5 0 00.5.5h1.75a.75.75 0 010 1.5H5a2 2 0 01-2-2V3a2 2 0 012-2h9.982a2 2 0 011.414.586l4.018 4.018A2 2 0 0121 7.018V21a2 2 0 01-2 2h-2.75a.75.75 0 010-1.5H19a.5.5 0 00.5-.5V7.018a.5.5 0 00-.146-.354l-4.018-4.018a.5.5 0 00-.354-.146H5z"/><path d="M11.5 15.75a.75.75 0 01.75-.75h1a.75.75 0 010 1.5h-1a.75.75 0 01-.75-.75zm.75-3.75a.75.75 0 000 1.5h1a.75.75 0 000-1.5h-1zm-.75-2.25a.75.75 0 01.75-.75h1a.75.75 0 010 1.5h-1a.75.75 0 01-.75-.75zM12.25 6a.75.75 0 000 1.5h1a.75.75 0 000-1.5h-1zm-.75-2.25a.75.75 0 01.75-.75h1a.75.75 0 010 1.5h-1a.75.75 0 01-.75-.75zM9.75 13.5a.75.75 0 000 1.5h1a.75.75 0 000-1.5h-1zM9 11.25a.75.75 0 01.75-.75h1a.75.75 0 010 1.5h-1a.75.75 0 01-.75-.75zm.75-3.75a.75.75 0 000 1.5h1a.75.75 0 000-1.5h-1zM9 5.25a.75.75 0 01.75-.75h1a.75.75 0 010 1.5h-1A.75.75 0 019 5.25zM11 17h1a2 2 0 012 2v4.25a.75.75 0 01-.75.75h-3.5a.75.75 0 01-.75-.75V19a2 2 0 012-2zm-.5 2v3.5h2V19a.5.5 0 00-.5-.5h-1a.5.5 0 00-.5.5z"/></svg>