<svg xmlns="http://www.w3.org/2000/svg" width="16" height="16" viewBox="0 0 16 16">
  <defs/>
  <path d="M2,1.75 C2,0.784 2.784,0 3.75,0 L10.336,0 C10.8,0 11.245,0.184 11.573,0.513 L14.487,3.427 C14.816,3.755 15,4.2 15,4.664 L15,14.25 C15,15.216 14.216,16 13.25,16 L3.75,16 C2.784,16 2,15.216 2,14.25 Z M3.75,1.5 C3.612,1.5 3.5,1.612 3.5,1.75 L3.5,14.25 C3.5,14.388 3.612,14.5 3.75,14.5 L13.25,14.5 C13.388,14.5 13.5,14.388 13.5,14.25 L13.5,6 L10.75,6 C9.784,6 9,5.216 9,4.25 L9,1.5 Z M10.5,1.562 L10.5,4.25 C10.5,4.388 10.612,4.5 10.75,4.5 L13.438,4.5 C13.434,4.496 13.431,4.491 13.427,4.487 L10.513,1.573 C10.509,1.569 10.504,1.566 10.5,1.562 Z"/>
</svg>

