<svg width="16" height="16" viewBox="0 0 16 16" xmlns="http://www.w3.org/2000/svg">
  <path fill-rule="evenodd" clip-rule="evenodd" d="M1.75 1C1.28587 1 0.840752 1.18437 0.512563 1.51256C0.184374 1.84075 0 2.28587 0 2.75L0 13.25C0 14.216 0.784 15 1.75 15H14.25C14.7141 15 15.1592 14.8156 15.4874 14.4874C15.8156 14.1592 16 13.7141 16 13.25V4.75C16 4.28587 15.8156 3.84075 15.4874 3.51256C15.1592 3.18437 14.7141 3 14.25 3H7.75C7.71119 3 7.67291 2.99096 7.6382 2.97361C7.60348 2.95625 7.57329 2.93105 7.55 2.9L6.65 1.7C6.32 1.26 5.8 1 5.25 1H1.75Z"/>
</svg>
