<svg xmlns="http://www.w3.org/2000/svg" width="16" height="16" viewBox="0 0 16 16"><path d="M2 1.75C2 .784 2.784 0 3.75 0h6.586c.464 0 .909.184 1.237.513l2.914 2.914c.329.328.513.773.513 1.237v9.586A1.75 1.75 0 0113.25 16h-3.5a.75.75 0 010-1.5h3.5a.25.25 0 00.25-.25V4.664a.25.25 0 00-.073-.177l-2.914-2.914a.25.25 0 00-.177-.073H3.75a.25.25 0 00-.25.25v6.5a.75.75 0 01-1.5 0v-6.5z"/><path d="M5.427 15.573l3.146-3.146a.25.25 0 000-.354L5.427 8.927A.25.25 0 005 9.104V11.5H.75a.75.75 0 000 1.5H5v2.396c0 .223.27.335.427.177z"/></svg>