<svg xmlns="http://www.w3.org/2000/svg" width="16" height="16" viewBox="0 0 16 16"><path d="M2 1.75C2 .784 2.784 0 3.75 0h5.586c.464 0 .909.184 1.237.513l2.914 2.914c.329.328.513.773.513 1.237v8.586A1.75 1.75 0 0112.25 15h-7a.75.75 0 010-1.5h7a.25.25 0 00.25-.25V6H9.75A1.75 1.75 0 018 4.25V1.5H3.75a.25.25 0 00-.25.25V4.5a.75.75 0 01-1.5 0zm-.5 10.487v1.013a.75.75 0 01-1.5 0v-1.012a3.748 3.748 0 013.77-3.749L4 8.49V6.573a.25.25 0 01.42-.183l2.883 2.678a.25.25 0 010 .366L4.42 12.111a.25.25 0 01-.42-.183V9.99l-.238-.003a2.25 2.25 0 00-2.262 2.25zm8-10.675V4.25c0 .138.112.25.25.25h2.688l-.011-.013-2.914-2.914-.013-.011z"/></svg>