<svg width="16" height="16" viewBox="0 0 16 16" fill="none" xmlns="http://www.w3.org/2000/svg">
<path fill-rule="evenodd" clip-rule="evenodd" d="M1.75 2.5C1.61193 2.5 1.5 2.61193 1.5 2.75V13.25C1.5 13.3881 1.61193 13.5 1.75 13.5H14.25C14.3881 13.5 14.5 13.3881 14.5 13.25V4.75C14.5 4.61193 14.3881 4.5 14.25 4.5H7.5C6.94917 4.5 6.4305 4.24066 6.1 3.8L5.2 2.6C5.15279 2.53705 5.07869 2.5 5 2.5H1.75ZM0 2.75C0 1.7835 0.783501 1 1.75 1H5C5.55083 1 6.0695 1.25934 6.4 1.7L7.3 2.9C7.34721 2.96295 7.42131 3 7.5 3H14.25C15.2165 3 16 3.7835 16 4.75V13.25C16 14.2165 15.2165 15 14.25 15H1.75C0.783502 15 0 14.2165 0 13.25V2.75Z" fill="black"/>
</svg>
