<svg xmlns="http://www.w3.org/2000/svg" width="16" height="16" viewBox="0 0 16 16"><path d="M3.5 1.75v11.5c0 .09.048.173.126.217a.75.75 0 01-.752 1.298A1.748 1.748 0 012 13.25V1.75C2 .784 2.784 0 3.75 0h5.586c.464 0 .909.185 1.237.513l2.914 2.914c.329.328.513.773.513 1.237v8.586A1.75 1.75 0 0112.25 15h-.5a.75.75 0 010-1.5h.5a.25.25 0 00.25-.25V4.664a.25.25 0 00-.073-.177L9.513 1.573a.25.25 0 00-.177-.073H7.25a.75.75 0 010 1.5h-.5a.75.75 0 010-1.5h-3a.25.25 0 00-.25.25zm3.75 8.75h.5c.966 0 1.75.784 1.75 1.75v3a.75.75 0 01-.75.75h-2.5a.75.75 0 01-.75-.75v-3c0-.966.784-1.75 1.75-1.75zM6 5.25a.75.75 0 01.75-.75h.5a.75.75 0 010 1.5h-.5A.75.75 0 016 5.25zm.75 2.25h.5a.75.75 0 010 1.5h-.5a.75.75 0 010-1.5zM8 6.75A.75.75 0 018.75 6h.5a.75.75 0 010 1.5h-.5A.75.75 0 018 6.75zM8.75 3h.5a.75.75 0 010 1.5h-.5a.75.75 0 010-1.5zM8 9.75A.75.75 0 018.75 9h.5a.75.75 0 010 1.5h-.5A.75.75 0 018 9.75zm-1 2.5v2.25h1v-2.25a.25.25 0 00-.25-.25h-.5a.25.25 0 00-.25.25z"/></svg>