<svg xmlns="http://www.w3.org/2000/svg" width="16" height="16" viewBox="0 0 16 16"><path d="M4 1.75C4 .784 4.784 0 5.75 0h5.586c.464 0 .909.184 1.237.513l2.914 2.914c.329.328.513.773.513 1.237v8.586A1.75 1.75 0 0114.25 15h-9a.75.75 0 010-1.5h9a.25.25 0 00.25-.25V6h-2.75A1.75 1.75 0 0110 4.25V1.5H5.75a.25.25 0 00-.25.25v2.5a.75.75 0 01-1.5 0zm1.72 4.97a.75.75 0 011.06 0l2 2a.75.75 0 010 1.06l-2 2a.749.749 0 01-1.275-.326.749.749 0 01.215-.734l1.47-1.47-1.47-1.47a.75.75 0 010-1.06zM3.28 7.78L1.81 9.25l1.47 1.47a.751.751 0 01-.018 1.042.751.751 0 01-1.042.018l-2-2a.75.75 0 010-1.06l2-2a.751.751 0 011.042.018.751.751 0 01.018 1.042zm8.22-6.218V4.25c0 .138.112.25.25.25h2.688l-.011-.013-2.914-2.914-.013-.011z"/></svg>