<svg width="16" height="16" viewBox="0 0 16 16" xmlns="http://www.w3.org/2000/svg">
  <path fill-rule="evenodd" clip-rule="evenodd" d="M3.75 1.5C3.6837 1.5 3.62011 1.52634 3.57322 1.57322C3.52634 1.62011 3.5 1.6837 3.5 1.75V13.25C3.5 13.388 3.612 13.5 3.75 13.5H12.25C12.3163 13.5 12.3799 13.4737 12.4268 13.4268C12.4737 13.3799 12.5 13.3163 12.5 13.25V6H9.75C9.28587 6 8.84075 5.81563 8.51256 5.48744C8.18437 5.15925 8 4.71413 8 4.25V1.5H3.75ZM9.5 2.06V4.25C9.5 4.388 9.612 4.5 9.75 4.5H11.94L9.5 2.06ZM2 1.75C2 0.784 2.784 0 3.75 0H8.836C9.3 0 9.745 0.184 10.073 0.513L13.487 3.927C13.816 4.255 14 4.7 14 5.164V13.25C14 13.7141 13.8156 14.1592 13.4874 14.4874C13.1592 14.8156 12.7141 15 12.25 15H3.75C3.28587 15 2.84075 14.8156 2.51256 14.4874C2.18437 14.1592 2 13.7141 2 13.25V1.75Z"/>
</svg>
