<svg xmlns="http://www.w3.org/2000/svg" width="16" height="16" fill="none"><g fill="#000" clip-path="url(#a)"><path fill-rule="evenodd" d="M10.336 0c.464 0 .91.184 1.237.513l2.914 2.914c.33.328.513.773.513 1.237v3.587a.75.75 0 0 1-1.5 0V6h-2.75A1.75 1.75 0 0 1 9 4.25V1.5H3.75a.25.25 0 0 0-.25.25v12.5c0 .138.112.25.25.25H7A.75.75 0 0 1 7 16H3.75A1.75 1.75 0 0 1 2 14.25V1.75C2 .784 2.784 0 3.75 0h6.586Zm.164 4.25c0 .138.112.25.25.25h2.688l-.011-.013-2.914-2.914-.013-.011V4.25Z" clip-rule="evenodd"/><path d="M15.259 10a.751.751 0 0 1 .515 1.287l-4.557 4.45a.751.751 0 0 1-1.055-.01L8.22 13.778A.751.751 0 0 1 9.28 12.72l1.42 1.425 4.025-3.932a.75.75 0 0 1 .533-.213Z"/></g><defs><clipPath id="a"><path fill="#fff" d="M0 0h16v16H0z"/></clipPath></defs></svg>