<svg width="16" height="16" viewBox="0 0 16 16" fill="none" xmlns="http://www.w3.org/2000/svg">
<path d="M2 1.75C2 0.783502 2.7835 0 3.75 0H10.3358C10.7999 0 11.245 0.184374 11.5732 0.512563L14.4874 3.42678C14.8156 3.75497 15 4.20008 15 4.66421V14.25C15 15.2165 14.2165 16 13.25 16H9.75C9.33579 16 9 15.6642 9 15.25C9 14.8358 9.33579 14.5 9.75 14.5H13.25C13.3881 14.5 13.5 14.3881 13.5 14.25V4.66421C13.5 4.59791 13.4737 4.53432 13.4268 4.48744L10.5126 1.57322C10.4657 1.52634 10.4021 1.5 10.3358 1.5H3.75C3.61193 1.5 3.5 1.61193 3.5 1.75V8.25C3.5 8.66421 3.16421 9 2.75 9C2.33579 9 2 8.66421 2 8.25V1.75Z" fill="#24292F"/>
<path d="M5.42679 15.5732L8.57323 12.4268C8.67086 12.3291 8.67086 12.1708 8.57323 12.0732L5.42679 8.92677C5.2693 8.76928 5.00001 8.88082 5.00001 9.10355V11.5H0.75C0.335786 11.5 0 11.8358 0 12.25C0 12.6642 0.335786 13 0.75 13H5.00001V15.3964C5.00001 15.6192 5.2693 15.7307 5.42679 15.5732Z" fill="#24292F"/>
</svg>
