<svg width="24" height="24" viewBox="0 0 24 24" xmlns="http://www.w3.org/2000/svg">
  <path fill-rule="evenodd" clip-rule="evenodd" d="M3 3C3 1.89543 3.89543 1 5 1H14.9822C15.5127 1 16.0214 1.21071 16.3964 1.58579L20.4142 5.60355C20.7893 5.97863 21 6.48733 21 7.01777V21C21 22.1046 20.1046 23 19 23H4.75C4.33579 23 4 22.6642 4 22.25C4 21.8358 4.33579 21.5 4.75 21.5H19C19.2761 21.5 19.5 21.2761 19.5 21V8.5H15.5C14.3954 8.5 13.5 7.60457 13.5 6.5V2.5H5C4.72386 2.5 4.5 2.72386 4.5 3V9.25C4.5 9.66421 4.16421 10 3.75 10C3.33579 10 3 9.66421 3 9.25V3ZM15 2.50032V6.5C15 6.77614 15.2239 7 15.5 7H19.4997C19.4952 6.87384 19.4431 6.75379 19.3536 6.66421L15.3358 2.64645C15.2462 2.55687 15.1262 2.5048 15 2.50032Z"/>
  <path fill-rule="evenodd" clip-rule="evenodd" d="M0 13.75C0 12.7835 0.783502 12 1.75 12H4.75C5.7165 12 6.5 12.7835 6.5 13.75V17.75C6.5 18.7165 5.7165 19.5 4.75 19.5H1.75C0.783502 19.5 0 18.7165 0 17.75V13.75ZM1.75 13.5C1.61193 13.5 1.5 13.6119 1.5 13.75V17.75C1.5 17.8881 1.61193 18 1.75 18H4.75C4.88807 18 5 17.8881 5 17.75V13.75C5 13.6119 4.88807 13.5 4.75 13.5H1.75Z"/>
  <path d="M9 12C8.58579 12 8.25 12.3358 8.25 12.75C8.25 13.1642 8.58579 13.5 9 13.5H10.5V18H9C8.58579 18 8.25 18.3358 8.25 18.75C8.25 19.1642 8.58579 19.5 9 19.5H13.5C13.9142 19.5 14.25 19.1642 14.25 18.75C14.25 18.3358 13.9142 18 13.5 18H12V12.75C12 12.3358 11.6642 12 11.25 12H9Z"/>
</svg>
