<svg width="24" height="24" viewBox="0 0 24 24" xmlns="http://www.w3.org/2000/svg">
  <path fill-rule="evenodd" clip-rule="evenodd" d="M2 4.75C2 3.7835 2.7835 3 3.75 3H8.71482C9.29993 3 9.84634 3.29243 10.1709 3.77927L11.5772 5.88867C11.6235 5.95822 11.7016 6 11.7852 6H20.25C21.2165 6 22 6.7835 22 7.75V19.25C22 20.2165 21.2165 21 20.25 21H3.75C2.7835 21 2 20.2165 2 19.25V4.75ZM14.7803 9.71967C14.4874 9.42678 14.0126 9.42678 13.7197 9.71967C13.4268 10.0126 13.4268 10.4874 13.7197 10.7803L15.4393 12.5H6.75C6.33579 12.5 6 12.8358 6 13.25C6 13.6642 6.33579 14 6.75 14H15.4393L13.7197 15.7197C13.4268 16.0126 13.4268 16.4874 13.7197 16.7803C14.0126 17.0732 14.4874 17.0732 14.7803 16.7803L17.7803 13.7803C17.921 13.6397 18 13.4489 18 13.25C18 13.0511 17.921 12.8603 17.7803 12.7197L14.7803 9.71967Z"/>
</svg>
