<svg xmlns="http://www.w3.org/2000/svg" width="16" height="16" viewBox="0 0 16 16">
  <defs/>
  <path d="M1,1.75 C1,0.784 1.784,0 2.75,0 L10.336,0 C10.8,0 11.245,0.184 11.573,0.513 L14.487,3.427 C14.816,3.755 15,4.2 15,4.664 L15,14.25 C15,15.216 14.216,16 13.25,16 L2.75,16 C1.784,16 1,15.216 1,14.25 Z M2.75,1.5 C2.612,1.5 2.5,1.612 2.5,1.75 L2.5,14.25 C2.5,14.388 2.612,14.5 2.75,14.5 L13.25,14.5 C13.388,14.5 13.5,14.388 13.5,14.25 L13.5,4.664 C13.5,4.598 13.474,4.534 13.427,4.487 L10.513,1.573 C10.466,1.526 10.402,1.5 10.336,1.5 Z M8,3.25 C8.414,3.25 8.75,3.586 8.75,4 L8.75,5.5 L10.25,5.5 C10.664,5.5 11,5.836 11,6.25 C11,6.664 10.664,7 10.25,7 L8.75,7 L8.75,8.5 C8.75,8.914 8.414,9.25 8,9.25 C7.586,9.25 7.25,8.914 7.25,8.5 L7.25,7 L5.75,7 C5.336,7 5,6.664 5,6.25 C5,5.836 5.336,5.5 5.75,5.5 L7.25,5.5 L7.25,4 C7.25,3.586 7.586,3.25 8,3.25 Z M5,11.25 C5,10.836 5.336,10.5 5.75,10.5 L10.25,10.5 C10.664,10.5 11,10.836 11,11.25 C11,11.664 10.664,12 10.25,12 L5.75,12 C5.336,12 5,11.664 5,11.25 Z"/>
</svg>

