<svg width="24" height="24" viewBox="0 0 24 24" xmlns="http://www.w3.org/2000/svg">
  <path fill-rule="evenodd" clip-rule="evenodd" d="M2 4.75C2 3.784 2.784 3 3.75 3H8.721C9.301 3 9.841 3.286 10.168 3.765L11.572 5.828C11.5949 5.86186 11.6257 5.88959 11.6618 5.90877C11.6979 5.92794 11.7381 5.93798 11.779 5.938H20.25C21.216 5.938 22 6.721 22 7.688V19.25C22 19.7141 21.8156 20.1592 21.4874 20.4874C21.1592 20.8156 20.7141 21 20.25 21H3.75C3.28587 21 2.84075 20.8156 2.51256 20.4874C2.18437 20.1592 2 19.7141 2 19.25V4.75Z"/>
</svg>
