<svg xmlns="http://www.w3.org/2000/svg" width="24" height="24" viewBox="0 0 24 24">
  <defs/>
  <path d="M21.75,21.5 L2.25,21.5 C1.284,21.5 0.5,20.716 0.5,19.75 L0.5,4.25 C0.5,3.284 1.284,2.5 2.25,2.5 L21.75,2.5 C22.716,2.5 23.5,3.284 23.5,4.25 L23.5,19.75 C23.5,20.716 22.716,21.5 21.75,21.5 Z M2.25,4 C2.112,4 2,4.112 2,4.25 L2,19.75 C2,19.888 2.112,20 2.25,20 L5.428,20 L14,10.977 C14.325,10.635 14.774,10.439 15.246,10.433 C15.718,10.427 16.172,10.611 16.506,10.945 L22,16.44 L22,4.25 C22,4.112 21.888,4 21.75,4 Z M22,19.75 L22,18.56 L15.445,12.006 C15.397,11.958 15.333,11.932 15.265,11.933 C15.198,11.933 15.134,11.961 15.087,12.01 L7.497,20 L21.75,20 C21.888,20 22,19.888 22,19.75 Z M10.5,9.25 C10.5,11.045 9.045,12.5 7.25,12.5 C5.455,12.5 4,11.045 4,9.25 C4,7.455 5.455,6 7.25,6 C9.045,6 10.5,7.455 10.5,9.25 Z M9,9.25 C9,8.284 8.216,7.5 7.25,7.5 C6.284,7.5 5.5,8.284 5.5,9.25 C5.5,10.216 6.284,11 7.25,11 C8.216,11 9,10.216 9,9.25 Z"/>
</svg>

