<svg width="32" height="32" viewBox="0 0 32 32" fill="none" xmlns="http://www.w3.org/2000/svg">
<path fill-rule="evenodd" clip-rule="evenodd" d="M3.5 5C3.22386 5 3 5.22386 3 5.5V26.5C3 26.7761 3.22386 27 3.5 27H28.5C28.7761 27 29 26.7761 29 26.5V9.5C29 9.22386 28.7761 9 28.5 9H15C13.8983 9 12.861 8.48132 12.2 7.6L10.4 5.2C10.3056 5.0741 10.1574 5 10 5H3.5ZM0 5.5C0 3.567 1.567 2 3.5 2H10C11.1017 2 12.139 2.51868 12.8 3.4L14.6 5.8C14.6944 5.9259 14.8426 6 15 6H28.5C30.433 6 32 7.567 32 9.5V26.5C32 28.433 30.433 30 28.5 30H3.5C1.567 30 0 28.433 0 26.5V5.5Z" fill="black"/>
</svg>
