<svg xmlns="http://www.w3.org/2000/svg" width="24" height="24" viewBox="0 0 24 24">
  <defs/>
  <path d="M3,3 C3,1.895 3.895,1 5,1 L14.982,1 C15.512,1 16.021,1.211 16.396,1.586 L20.414,5.604 C20.789,5.979 21,6.488 21,7.018 L21,21 C21,22.105 20.105,23 19,23 L5,23 C3.895,23 3,22.105 3,21 Z M5,2.5 C4.724,2.5 4.5,2.724 4.5,3 L4.5,21 C4.5,21.276 4.724,21.5 5,21.5 L19,21.5 C19.276,21.5 19.5,21.276 19.5,21 L19.5,8.5 L15.5,8.5 C14.395,8.5 13.5,7.605 13.5,6.5 L13.5,2.5 Z M15,2.5 L15,6.5 C15,6.776 15.224,7 15.5,7 L19.5,7 C19.496,6.874 19.443,6.753 19.354,6.664 L15.336,2.646 C15.247,2.557 15.126,2.504 15,2.5 Z"/>
</svg>

