<svg xmlns="http://www.w3.org/2000/svg" width="16" height="16" viewBox="0 0 16 16">
  <defs/>
  <path d="M0,2.75 C0,1.784 0.784,1 1.75,1 L5,1 C5.55,1 6.07,1.26 6.4,1.7 L7.3,2.9 C7.347,2.963 7.421,3 7.5,3 L14.25,3 C15.216,3 16,3.784 16,4.75 L16,13.25 C16,14.216 15.216,15 14.25,15 L1.75,15 C0.784,15 0,14.216 0,13.25 Z M1.75,2.5 C1.612,2.5 1.5,2.612 1.5,2.75 L1.5,13.25 C1.5,13.388 1.612,13.5 1.75,13.5 L14.25,13.5 C14.388,13.5 14.5,13.388 14.5,13.25 L14.5,4.75 C14.5,4.612 14.388,4.5 14.25,4.5 L7.5,4.5 C6.95,4.5 6.43,4.24 6.1,3.8 L5.2,2.6 C5.153,2.537 5.079,2.5 5,2.5 Z"/>
</svg>

