<svg xmlns="http://www.w3.org/2000/svg" width="24" height="24" fill="none"><path fill="#000" d="M14.982 1a2 2 0 0 1 1.415.586l4.017 4.018A2 2 0 0 1 21 7.018V11h-1.5V8.5h-4a2 2 0 0 1-2-2v-4H5a.5.5 0 0 0-.5.5v18a.5.5 0 0 0 .5.5h5V23H5a2 2 0 0 1-2-2V3a2 2 0 0 1 2-2h9.982ZM15 6.5a.5.5 0 0 0 .5.5h4a.5.5 0 0 0-.146-.336l-4.018-4.018A.5.5 0 0 0 15 2.5v4Z"/><path stroke="#000" stroke-linecap="round" stroke-width="1.5" d="m13.25 18.75 2.323 2.323a.25.25 0 0 0 .354 0l5.323-5.323M20.25 10v2.25M9 22.25h2.25"/></svg>