<svg xmlns="http://www.w3.org/2000/svg" width="24" height="24" viewBox="0 0 24 24">
  <defs/>
  <path d="M12.5,6.75 A0.75 0.75 0 0 0 11,6.75 L11,9 L8.75,9 A0.75 0.75 0 0 0 8.75,10.5 L11,10.5 L11,12.75 A0.75 0.75 0 0 0 12.5,12.75 L12.5,10.5 L14.75,10.5 A0.75 0.75 0 0 0 14.75,9 L12.5,9 L12.5,6.75 Z M8.75,16 A0.75 0.75 0 0 0 8.75,17.5 L14.75,17.5 A0.75 0.75 0 0 0 14.75,16 L8.75,16 Z"/>
  <path d="M5,1 L14.982,1 C15.512,1 16.021,1.211 16.396,1.586 L20.414,5.604 C20.789,5.979 21,6.488 21,7.018 L21,21 C21,22.105 20.105,23 19,23 L5,23 C3.895,23 3,22.105 3,21 L3,3 C3,1.895 3.895,1 5,1 Z M4.5,3 L4.5,21 C4.5,21.276 4.724,21.5 5,21.5 L19,21.5 C19.276,21.5 19.5,21.276 19.5,21 L19.5,7.018 C19.5,6.885 19.448,6.758 19.354,6.664 L15.336,2.646 C15.242,2.552 15.115,2.5 14.982,2.5 L5,2.5 C4.724,2.5 4.5,2.724 4.5,3 Z"/>
</svg>

