<svg width="24" height="24" viewBox="0 0 24 24" fill="none" xmlns="http://www.w3.org/2000/svg">
<path d="M14.9824 1C15.5128 1.00005 16.0215 1.21091 16.3965 1.58594L20.4141 5.60352C20.7891 5.97854 20.9999 6.48721 21 7.01758V11H19.5V8.5H15.5C14.3954 8.5 13.5 7.60457 13.5 6.5V2.5H5C4.72386 2.5 4.5 2.72386 4.5 3V21C4.5 21.2761 4.72386 21.5 5 21.5H10V23H5C3.89543 23 3 22.1046 3 21V3C3 1.89543 3.89543 1 5 1H14.9824ZM15 6.5C15 6.77614 15.2239 7 15.5 7H19.5C19.4955 6.87384 19.4431 6.75363 19.3535 6.66406L15.3359 2.64648C15.2464 2.55691 15.1262 2.50448 15 2.5V6.5Z" fill="black"/>
<path d="M13.25 18.75L15.5732 21.0732C15.6709 21.1709 15.8291 21.1709 15.9268 21.0732L21.25 15.75" stroke="black" stroke-width="1.5" stroke-linecap="round"/>
<path d="M20.25 10V12.25" stroke="black" stroke-width="1.5" stroke-linecap="round"/>
<path d="M9 22.25L11.25 22.25" stroke="black" stroke-width="1.5" stroke-linecap="round"/>
</svg>
