<svg xmlns="http://www.w3.org/2000/svg" width="16" height="16" viewBox="0 0 16 16"><path d="M4 1.75C4 .784 4.784 0 5.75 0h5.586c.464 0 .909.184 1.237.513l2.914 2.914c.329.328.513.773.513 1.237v8.586A1.75 1.75 0 0114.25 15h-9a.75.75 0 010-1.5h9a.25.25 0 00.25-.25V6h-2.75A1.75 1.75 0 0110 4.25V1.5H5.75a.25.25 0 00-.25.25v2a.75.75 0 01-1.5 0zm-4 6C0 6.784.784 6 1.75 6h1.5C4.216 6 5 6.784 5 7.75v2.5A1.75 1.75 0 013.25 12h-1.5A1.75 1.75 0 010 10.25zM6.75 6h1.5a.75.75 0 01.75.75v3.75h.75a.75.75 0 010 1.5h-3a.75.75 0 010-1.5h.75v-3h-.75a.75.75 0 010-1.5zm-5 1.5a.25.25 0 00-.25.25v2.5c0 .138.112.25.25.25h1.5a.25.25 0 00.25-.25v-2.5a.25.25 0 00-.25-.25zm9.75-5.938V4.25c0 .138.112.25.25.25h2.688l-.011-.013-2.914-2.914-.013-.011z"/></svg>