<svg xmlns="http://www.w3.org/2000/svg" width="16" height="16" viewBox="0 0 16 16">
  <defs/>
  <path d="M4,1.75 C4,0.784 4.784,0 5.75,0 L11.336,0 C11.8,0 12.245,0.184 12.573,0.513 L15.487,3.427 C15.816,3.755 16,4.2 16,4.664 L16,13.25 C16,14.216 15.216,15 14.25,15 L5.25,15 C4.836,15 4.5,14.664 4.5,14.25 C4.5,13.836 4.836,13.5 5.25,13.5 L14.25,13.5 C14.388,13.5 14.5,13.388 14.5,13.25 L14.5,6 L11.75,6 C10.784,6 10,5.216 10,4.25 L10,1.5 L5.75,1.5 C5.612,1.5 5.5,1.612 5.5,1.75 L5.5,3.75 C5.5,4.164 5.164,4.5 4.75,4.5 C4.336,4.5 4,4.164 4,3.75 Z M0,7.75 C0,6.784 0.784,6 1.75,6 L3.25,6 C4.216,6 5,6.784 5,7.75 L5,10.25 C5,11.216 4.216,12 3.25,12 L1.75,12 C0.784,12 0,11.216 0,10.25 Z M6.75,6 L8.25,6 C8.664,6 9,6.336 9,6.75 L9,10.5 L9.75,10.5 C10.164,10.5 10.5,10.836 10.5,11.25 C10.5,11.664 10.164,12 9.75,12 L6.75,12 C6.336,12 6,11.664 6,11.25 C6,10.836 6.336,10.5 6.75,10.5 L7.5,10.5 L7.5,7.5 L6.75,7.5 C6.336,7.5 6,7.164 6,6.75 C6,6.336 6.336,6 6.75,6 Z M1.75,7.5 C1.612,7.5 1.5,7.612 1.5,7.75 L1.5,10.25 C1.5,10.388 1.612,10.5 1.75,10.5 L3.25,10.5 C3.388,10.5 3.5,10.388 3.5,10.25 L3.5,7.75 C3.5,7.612 3.388,7.5 3.25,7.5 Z M11.5,1.562 L11.5,4.25 C11.5,4.388 11.612,4.5 11.75,4.5 L14.438,4.5 C14.434,4.496 14.431,4.491 14.427,4.487 L11.513,1.573 C11.509,1.569 11.504,1.566 11.5,1.562 Z"/>
</svg>

