<svg width="16" height="16" viewBox="0 0 16 16" fill="none" xmlns="http://www.w3.org/2000/svg">
<path d="M0.512563 1.51256C0.840752 1.18437 1.28587 1 1.75 1H5.25C5.8 1 6.32 1.26 6.65 1.7L7.55 2.9C7.57329 2.93105 7.60348 2.95625 7.6382 2.97361C7.67291 2.99096 7.71119 3 7.75 3H13C13.5523 3 14 3.44772 14 4V4.5H2.75C2.33579 4.5 2 4.83579 2 5.25C2 5.66421 2.33579 6 2.75 6H14.7284C15.327 6 15.7915 6.52235 15.7215 7.11684L15 13.25C15 13.7141 14.8156 14.1592 14.4874 14.4874C14.1592 14.8156 13.7141 15 13.25 15H1.75C0.784 15 0 14.216 0 13.25V2.75C0 2.28587 0.184374 1.84075 0.512563 1.51256Z" fill="#79B8FF"/>
</svg>
