<svg xmlns="http://www.w3.org/2000/svg" width="24" height="24" viewBox="0 0 24 24">
  <defs/>
  <path d="M2,4.75 C2,3.784 2.784,3 3.75,3 L8.721,3 C9.301,3 9.841,3.286 10.168,3.765 L11.572,5.828 C11.618,5.897 11.696,5.938 11.779,5.938 L20.25,5.938 C21.216,5.938 22,6.721 22,7.688 L22,19.25 C22,20.216 21.216,21 20.25,21 L3.75,21 C2.784,21 2,20.216 2,19.25 Z M3.75,4.5 C3.612,4.5 3.5,4.612 3.5,4.75 L3.5,19.25 C3.5,19.388 3.612,19.5 3.75,19.5 L20.25,19.5 C20.388,19.5 20.5,19.388 20.5,19.25 L20.5,7.687 C20.5,7.549 20.388,7.437 20.25,7.437 L11.779,7.437 C11.2,7.437 10.658,7.151 10.332,6.672 L8.928,4.61 C8.881,4.541 8.803,4.5 8.72,4.5 Z"/>
</svg>

