<svg xmlns="http://www.w3.org/2000/svg" width="24" height="24" viewBox="0 0 24 24"><path d="M.75 3a.75.75 0 0 0 0 1.5h6.5a.75.75 0 0 0 0-1.5H.75ZM3 7.75A.75.75 0 0 1 3.75 7h6.5a.75.75 0 0 1 0 1.5h-6.5A.75.75 0 0 1 3 7.75Zm3 4a.75.75 0 0 1 .75-.75h2.5a.75.75 0 0 1 0 1.5h-2.5a.75.75 0 0 1-.75-.75Zm8.914-9.414a.75.75 0 0 0-1.28-.53l-.884.884-.884-.884a.75.75 0 1 0-1.06 1.06l.883.884-.883.884a.75.75 0 1 0 1.06 1.061l.884-.884.884.884a.75.75 0 1 0 1.06-1.06l-.883-.885.883-.883a.75.75 0 0 0 .22-.53Z"/></svg>