<svg width="16" height="16" viewBox="0 0 16 16" fill="none" xmlns="http://www.w3.org/2000/svg">
<g clip-path="url(#clip0_13_220)">
<path fill-rule="evenodd" clip-rule="evenodd" d="M8.49789 14.5001C11.3304 14.5001 13.4971 12.5193 13.4971 10C13.4971 8.50943 12.7947 7.78771 11.5569 6.55451C10.5387 5.54008 9.27583 4.26633 8.74902 2.14559C8.46086 2.37499 8.17936 2.66031 7.9531 2.99475C7.46604 3.71469 7.24058 4.63293 7.83879 5.82933C8.31231 6.77636 8.50841 8.11293 7.56066 9.06068C6.99612 9.62522 6.03042 10.0225 4.98238 9.58341C4.51163 9.38618 4.12204 9.05722 3.79773 8.64532C3.61652 9.02494 3.50001 9.48834 3.5 10.0001C3.49994 12.5298 5.6636 14.5001 8.49789 14.5001ZM10.0143 0.499817C9.99819 0.224147 9.77398 0.00218037 9.50695 0.0725374C7.79801 0.522811 4.7625 3.03092 6.49715 6.50016C6.84142 7.18868 6.78164 7.71838 6.5 8.00002C6.03859 8.46144 5.15137 8.49704 4.4261 6.72386C4.31949 6.46323 4.02626 6.31678 3.78436 6.46093C2.68278 7.11735 2.00003 8.53551 2 10C1.99992 13.5121 4.99789 16.0001 8.49789 16.0001C11.9979 16.0001 14.9971 13.5 14.9971 10C14.9971 7.8628 13.8699 6.74063 12.6862 5.56221C11.4555 4.33695 10.1637 3.05088 10.0143 0.499817Z" fill="#24292F"/>
</g>
<defs>
<clipPath id="clip0_13_220">
<rect width="16" height="16" fill="white"/>
</clipPath>
</defs>
</svg>
