<svg xmlns="http://www.w3.org/2000/svg" width="16" height="16" viewBox="0 0 16 16"><path d="M10.014.5c.15 2.551 1.441 3.837 2.672 5.062C13.87 6.741 14.997 7.863 14.997 10c0 3.487-2.977 5.982-6.461 6H8.46C4.976 15.982 2 13.499 2 10c0-1.464.683-2.883 1.784-3.539.242-.144.535.002.642.263C5.151 8.497 6.039 8.461 6.5 8c.282-.282.341-.811-.003-1.5C4.762 3.031 7.798.523 9.507.073c.267-.071.491.151.507.427Zm-1.516 14c2.832 0 4.999-1.981 4.999-4.5 0-1.491-.702-2.212-1.94-3.445-1.018-1.015-2.281-2.289-2.808-4.409-.288.229-.57.514-.796.849-.487.72-.712 1.638-.114 2.834.473.947.669 2.284-.278 3.232-.565.564-1.531.962-2.579.522-.47-.197-.86-.526-1.184-.938A3.16 3.16 0 0 0 3.5 10c0 2.53 2.164 4.5 4.998 4.5Z"/></svg>