<svg width="24" height="24" viewBox="0 0 24 24" fill="none" xmlns="http://www.w3.org/2000/svg">
<path d="M3.8 1C3.36 1 3.01 1.36 3 1.8V22.21C3 22.65 3.36 23.01 3.8 23.01C4.24 23.01 4.6 22.65 4.6 22.21V16.66C5.41 17 6.28 17.17 7.16 17.16C8.83 17.07 10.46 16.71 12.02 16.09C14.56 15.23 17.35 14.42 19.68 16C19.93 16.16 20.24 16.18 20.5 16.04C20.76 15.9 20.92 15.63 20.92 15.34V3.39C20.92 3.13 20.79 2.88 20.57 2.73C17.59 0.72 14.17 1.73 11.51 2.64C9.1 3.45 6.81 4.22 4.6 2.95V1.8C4.6 1.36 4.24 1.01 3.8 1Z" fill="#1F2328"/>
</svg>
