<svg width="24" height="24" viewBox="0 0 24 24" fill="none" xmlns="http://www.w3.org/2000/svg">
<path d="M21.56 3.46001C19.96 2.38001 18.29 2.14001 16.62 2.14001C14.37 2.14001 12.14 2.69001 10.23 3.34001C8.36 3.97001 6.73 4.58001 5.09 4.58001C4.56 4.58001 4.03 4.51001 3.5 4.37001V2.76001C3.5 2.35001 3.16 2.01001 2.75 2.01001C2.34 2.01001 2 2.35001 2 2.76001V21.24C2 21.65 2.34 21.99 2.75 21.99C3.16 21.99 3.5 21.65 3.5 21.24V5.91001C4.02 6.02001 4.55 6.08001 5.09 6.08001C6.82 6.08001 8.47 5.52001 10.21 4.93001L10.71 4.76001C12.6 4.12001 14.61 3.50001 16.6 3.50001C18.08 3.50001 19.37 3.85001 20.5 4.56001V14.19C19.33 13.58 18.02 13.48 16.59 13.48C14.47 13.48 12.36 14.13 10.38 14.8C10.36 14.8 10.33 14.82 10.31 14.83C8.6 15.51 7.76 15.95 5.79 16.07H5.78C5.73 16.07 5.67 16.09 5.62 16.09V17.56C5.67 17.56 5.73 17.56 5.78 17.56C5.8 17.56 5.82 17.56 5.84 17.56C7.93 17.44 8.92 16.99 10.87 16.22C12.74 15.59 14.7 14.98 16.59 14.98C17.93 14.98 19.23 14.94 20.44 15.76C20.61 15.87 20.8 15.93 21 15.93C21.16 15.93 21.35 15.94 21.5 15.87C21.83 15.72 22 15.65 22 15.28V4.29001C22 3.96001 21.83 3.65001 21.56 3.46001Z" fill="#1F2328"/>
<path d="M5.75 17.56C6.16421 17.56 6.5 17.2242 6.5 16.81C6.5 16.3958 6.16421 16.06 5.75 16.06C5.33579 16.06 5 16.3958 5 16.81C5 17.2242 5.33579 17.56 5.75 17.56Z" fill="#1F2328"/>
</svg>
