<svg width="16" height="16" viewBox="0 0 16 16" fill="none" xmlns="http://www.w3.org/2000/svg">
<g clip-path="url(#clip0_8902_11)">
<path d="M15.65 1.17C14.37 0.31 13.02 0 11.68 0C9.88 0 8.11 0.55 6.58 1.07C5.09 1.57 3.78 2.06 2.47 2.06C2.15 2.06 1.82 2.02 1.5 1.95V0.61C1.5 0.28 1.23 0 0.9 0H0.6C0.27 0 0 0.28 0 0.61V15.35C0 15.68 0.27 15.95 0.6 15.95H0.9C1.23 15.95 1.5 15.68 1.5 15.35V3.49C1.82 3.54 2.14 3.56 2.47 3.56C3.9 3.56 5.24 3.11 6.66 2.62L7.06 2.48C8.55 1.98 10.13 1.49 11.68 1.49C12.75 1.49 13.68 1.73 14.5 2.21V9.43C13.64 9.06 12.69 8.87 11.67 8.87C9.93 8.87 8.93 9.4 7.32 9.95C7.3 9.95 7.27 9.97 7.25 9.98C5.91 10.51 5.3 10.82 3.76 10.92C3.76 10.92 3.75 10.92 3.74 10.92C4.15 10.92 4.49 11.26 4.49 11.67C4.49 12.08 4.15 12.42 3.74 12.42C3.74 12.42 3.76 12.42 3.77 12.42C3.79 12.42 3.8 12.42 3.82 12.42C5.49 12.32 6.25 12 7.81 11.38C9.3 10.87 10.16 10.38 11.67 10.38C12.74 10.38 13.78 10.62 14.75 11.28C14.88 11.37 15.04 11.41 15.2 11.41C15.33 11.41 15.46 11.38 15.58 11.32C15.84 11.18 16 10.91 16 10.62V1.83C16 1.56 15.87 1.32 15.65 1.17Z" fill="#1F2328"/>
<path d="M3 11.6701C3 12.0801 3.33 12.4101 3.74 12.4201V10.9301C3.33 10.9301 3 11.2701 3 11.6801V11.6701Z" fill="#1F2328"/>
<path d="M4.5 11.67C4.5 11.26 4.17 10.92 3.75 10.92V12.41C4.16 12.41 4.5 12.07 4.5 11.66V11.67Z" fill="#1F2328"/>
</g>
<defs>
<clipPath id="clip0_8902_11">
<rect width="16" height="16" fill="white"/>
</clipPath>
</defs>
</svg>
