<svg width="16" height="16" viewBox="0 0 16 16" fill="none" xmlns="http://www.w3.org/2000/svg">
<path d="M1.58036 0C1.26116 0 1.00725 0.261699 1 0.581554V15.4184C1 15.7383 1.26116 16 1.58036 16C1.89955 16 2.16071 15.7383 2.16071 15.4184V11.3839C2.74833 11.6311 3.37946 11.7547 4.01786 11.7474C5.22935 11.682 6.41183 11.4203 7.54353 10.9696C9.38616 10.3444 12.4102 9.75557 14.1004 10.9041C14.2818 11.0204 14.5067 11.035 14.6953 10.9332C14.8839 10.8314 15 10.6352 15 10.4244V1.73739C15 1.54839 14.9057 1.36665 14.7461 1.25761C12.5843 -0.203544 9.10324 0.530668 7.17355 1.19219C5.42522 1.78101 3.76395 2.34075 2.16071 1.41754V0.581554C2.16071 0.261699 1.89955 0.00726942 1.58036 0Z" fill="#1F2328"/>
</svg>
