<svg xmlns="http://www.w3.org/2000/svg" width="24" height="24" viewBox="0 0 24 24"><path d="M19.99 14.37V4.92c0-.08-.02-.15-.05-.23 0-.02 0-.04-.01-.06-.02-.05-.05-.08-.08-.12s-.05-.08-.08-.11c-.01-.01-.04-.02-.05-.03a.8.8 0 0 0-.19-.13c-3.23-1.29-5.73-.34-8.15.59-2.2.84-4.28 1.62-6.88.65V3.75c0-.41-.34-.75-.75-.75S3 3.34 3 3.75v16.56c0 .41.34.75.75.75s.75-.34.75-.75V7.06c.85.26 1.65.37 2.41.37 1.82 0 3.43-.61 5-1.21 2.11-.81 4.12-1.55 6.58-.75v7.89c-2.79-.74-5.15.14-7.25.93-1.62.61-3.14 1.18-4.79 1.08-.38-.02-.77.29-.8.7s.29.77.7.8c.17.01.33.02.49.02 1.77 0 3.37-.61 4.92-1.19 2.31-.87 4.49-1.7 7.2-.61.06.02.12.02.18.03.03 0 .07.02.1.02.09 0 .18-.02.26-.05h.03a.75.75 0 0 0 .29-.24c.04-.05.08-.1.11-.17.02-.05.02-.1.03-.15 0-.04.03-.08.03-.13z"/></svg>