<svg xmlns="http://www.w3.org/2000/svg" width="16" height="16" viewBox="0 0 16 16"><path d="M9.25 5c.199 0 .39-.079.53-.22a.747.747 0 0 0 0-1.06.747.747 0 0 0-.53-.22V5Zm-2-1.5a.747.747 0 0 0-.53.22.747.747 0 0 0 0 1.06c.14.141.331.22.53.22V3.5Zm7 8.75.53.53c.3-.3.3-.77 0-1.06l-.53.53Zm-1.47-2.53a.748.748 0 0 0-1.244.23.76.76 0 0 0 .184.83l.53-.53.53-.53Zm-1.06 4a.748.748 0 0 0 .23 1.244.76.76 0 0 0 .83-.184l-.53-.53-.53-.53Zm1.53-.72c.199 0 .39-.079.53-.22a.747.747 0 0 0 0-1.06.747.747 0 0 0-.53-.22V13Zm-6-1.5a.747.747 0 0 0-.53.22.747.747 0 0 0 0 1.06c.14.141.331.22.53.22v-1.5Zm3.53-4.72.53-.53-1.06-1.06-.53.53.53.53.53.53ZM5.72 9.72l-.53.53 1.06 1.06.53-.53-.53-.53-.53-.53Zm3.53-5.47V3.5h-2V5h2v-.75Zm5 8 .53-.53-2-2-.53.53-.53.53 2 2 .53-.53Zm0 0-.53-.53-2 2 .53.53.53.53 2-2-.53-.53Zm-1 0v-.75h-6V13h6v-.75Zm-3-6-.53-.53-4 4 .53.53.53.53 4-4-.53-.53ZM3.25 2v.75h2v-1.5h-2V2Zm2 0v.75c.28 0 .5.22.5.5h1.5a2 2 0 0 0-2-2V2ZM6.5 3.25h-.75v2h1.5v-2H6.5Zm0 2h-.75c0 .133-.053.26-.146.354a.504.504 0 0 1-.354.146v1.5a2 2 0 0 0 2-2H6.5ZM5.25 6.5v-.75h-2v1.5h2V6.5Zm-2 0v-.75a.504.504 0 0 1-.354-.146.504.504 0 0 1-.146-.354h-1.5c0 1.1.9 2 2 2V6.5ZM2 5.25h.75v-2h-1.5v2H2Zm0-2h.75c0-.28.22-.5.5-.5v-1.5a2 2 0 0 0-2 2H2ZM11.25 2v.75h2v-1.5h-2V2Zm2 0v.75c.28 0 .5.22.5.5h1.5a2 2 0 0 0-2-2V2Zm1.25 1.25h-.75v2h1.5v-2h-.75Zm0 2h-.75c0 .133-.053.26-.146.354a.504.504 0 0 1-.354.146v1.5a2 2 0 0 0 2-2h-.75ZM13.25 6.5v-.75h-2v1.5h2V6.5Zm-2 0v-.75a.504.504 0 0 1-.354-.146.504.504 0 0 1-.146-.354h-1.5c0 1.1.9 2 2 2V6.5ZM10 5.25h.75v-2h-1.5v2H10Zm0-2h.75c0-.28.22-.5.5-.5v-1.5a2 2 0 0 0-2 2H10ZM3.25 10v.75h2v-1.5h-2V10Zm2 0v.75c.28 0 .5.22.5.5h1.5a2 2 0 0 0-2-2V10Zm1.25 1.25h-.75v2h1.5v-2H6.5Zm0 2h-.75c0 .133-.053.26-.146.354a.504.504 0 0 1-.354.146v1.5a2 2 0 0 0 2-2H6.5ZM5.25 14.5v-.75h-2v1.5h2v-.75Zm-2 0v-.75a.504.504 0 0 1-.354-.146.504.504 0 0 1-.146-.354h-1.5c0 1.1.9 2 2 2v-.75ZM2 13.25h.75v-2h-1.5v2H2Zm0-2h.75c0-.28.22-.5.5-.5v-1.5a2 2 0 0 0-2 2H2Z"/></svg>