<svg xmlns="http://www.w3.org/2000/svg" width="24" height="24" viewBox="0 0 24 24">
  <defs/>
  <path d="M3.75,3.75 C3.75,1.679 5.429,0 7.5,0 C8.955,0 10.936,0.901 12,3.11 C13.064,0.901 15.044,0 16.5,0 C17.92,0 19.219,0.803 19.854,2.073 C20.489,3.343 20.352,4.864 19.5,6 L21.25,6 C22.216,6 23,6.784 23,7.75 L23,10.25 C23,10.948 22.591,11.551 22,11.832 L22,20.25 C22,21.216 21.216,22 20.25,22 L3.75,22 C2.784,22 2,21.216 2,20.25 L2,11.832 C1.409,11.55 1,10.948 1,10.25 L1,7.75 C1,6.784 1.784,6 2.75,6 L4.5,6 C4.029,5.373 3.75,4.594 3.75,3.75 Z M20.5,12 L12.75,12 L12.75,20.5 L20.25,20.5 C20.388,20.5 20.5,20.388 20.5,20.25 Z M11.25,20.5 L11.25,12 L3.5,12 L3.5,20.25 C3.5,20.388 3.612,20.5 3.75,20.5 Z M21.25,10.5 C21.388,10.5 21.5,10.388 21.5,10.25 L21.5,7.75 C21.5,7.612 21.388,7.5 21.25,7.5 L12.75,7.5 L12.75,10.5 Z M2.75,10.5 L11.25,10.5 L11.25,7.5 L2.75,7.5 C2.612,7.5 2.5,7.612 2.5,7.75 L2.5,10.25 C2.5,10.388 2.612,10.5 2.75,10.5 Z M18.75,3.75 C18.75,2.507 17.743,1.5 16.5,1.5 C15.35,1.5 13.067,2.507 12.78,6 L16.5,6 C17.743,6 18.75,4.993 18.75,3.75 Z M11.22,6 C10.933,2.507 8.65,1.5 7.5,1.5 C6.257,1.5 5.25,2.507 5.25,3.75 C5.25,4.993 6.257,6 7.5,6 Z"/>
</svg>

