<svg xmlns="http://www.w3.org/2000/svg" width="16" height="16" viewBox="0 0 16 16">
  <defs/>
  <path d="M2,2.75 C2,1.231 3.231,0 4.75,0 C5.733,0 6.623,0.42 7.32,1.232 C7.588,1.55 7.817,1.9 8,2.274 C8.183,1.899 8.411,1.549 8.68,1.23 C9.376,0.42 10.266,0 11.25,0 C12.207,0 13.096,0.497 13.596,1.314 C14.096,2.13 14.135,3.147 13.7,4 L14.25,4 C15.216,4 16,4.784 16,5.75 L16,7.75 C16,8.448 15.591,9.051 15,9.332 L15,14.25 C15,15.216 14.216,16 13.25,16 L2.75,16 C1.784,16 1,15.216 1,14.25 L1,9.332 C0.409,9.05 0,8.448 0,7.75 L0,5.75 C0,4.784 0.784,4 1.75,4 L2.3,4 C2.108,3.625 2,3.2 2,2.75 Z M7.25,9.5 L2.5,9.5 L2.5,14.25 C2.5,14.388 2.612,14.5 2.75,14.5 L7.25,14.5 Z M8.75,9.5 L8.75,14.5 L13.25,14.5 C13.388,14.5 13.5,14.388 13.5,14.25 L13.5,9.5 Z M8.75,5.5 L8.75,8 L14.25,8 C14.388,8 14.5,7.888 14.5,7.75 L14.5,5.75 C14.5,5.612 14.388,5.5 14.25,5.5 Z M1.75,5.5 C1.612,5.5 1.5,5.612 1.5,5.75 L1.5,7.75 C1.5,7.888 1.612,8 1.75,8 L7.25,8 L7.25,5.5 L1.75,5.5 Z M4.75,1.5 C4.06,1.5 3.5,2.06 3.5,2.75 C3.5,3.44 4.06,4 4.75,4 L7.059,4 C6.826,3.182 6.517,2.599 6.181,2.207 C5.751,1.705 5.266,1.5 4.75,1.5 Z M8.941,4 L11.25,4 C11.94,4 12.5,3.44 12.5,2.75 C12.5,2.06 11.94,1.5 11.25,1.5 C10.734,1.5 10.25,1.705 9.82,2.207 C9.483,2.599 9.174,3.182 8.941,4 Z"/>
</svg>

