<svg xmlns="http://www.w3.org/2000/svg" width="16" height="16" fill="none"><g fill="#000" clip-path="url(#a)"><path d="M15.26 10a.751.751 0 0 1 .514 1.287l-4.557 4.45a.751.751 0 0 1-1.055-.008l-1.943-1.95a.751.751 0 0 1 1.062-1.06l1.42 1.427 4.026-3.933A.751.751 0 0 1 15.26 10Z"/><path fill-rule="evenodd" d="M11.75 1a2.25 2.25 0 0 1 .75 4.372V6A2.5 2.5 0 0 1 10 8.5H6a1 1 0 0 0-1 1v1.128a2.251 2.251 0 1 1-1.5 0V5.372a2.251 2.251 0 1 1 1.5 0v1.836A2.492 2.492 0 0 1 6 7h4a1 1 0 0 0 1-1v-.628A2.251 2.251 0 0 1 11.75 1Zm-7.5 11a.75.75 0 1 0 0 1.5.75.75 0 0 0 0-1.5Zm0-9.5a.75.75 0 1 0 0 1.5.75.75 0 0 0 0-1.5Zm7.5 0a.75.75 0 1 0 0 1.5.75.75 0 0 0 0-1.5Z" clip-rule="evenodd"/></g><defs><clipPath id="a"><path fill="#fff" d="M0 0h16v16H0z"/></clipPath></defs></svg>