<svg xmlns="http://www.w3.org/2000/svg" width="16" height="16" viewBox="0 0 16 16"><path d="M15.26 10a.741.741 0 0 1 .414.133.75.75 0 0 1 .1 1.154l-4.557 4.45a.753.753 0 0 1-1.055-.008l-1.943-1.95a.755.755 0 0 1 .024-1.038.753.753 0 0 1 1.038-.022l1.42 1.427 4.026-3.933A.752.752 0 0 1 15.26 10Zm-3.51-9a2.252 2.252 0 0 1 1.942 3.389 2.252 2.252 0 0 1-1.192.983V6A2.5 2.5 0 0 1 10 8.5H6a.997.997 0 0 0-1 1v1.128a2.256 2.256 0 0 1 1.469 2.503A2.252 2.252 0 1 1 3.5 10.628V5.372a2.255 2.255 0 0 1-1.469-2.503A2.252 2.252 0 1 1 5 5.372v1.836A2.493 2.493 0 0 1 6 7h4a.997.997 0 0 0 1-1v-.628A2.252 2.252 0 0 1 11.75 1Zm-7.5 1.5a.747.747 0 0 0-.53.22.747.747 0 0 0 0 1.06.747.747 0 0 0 1.06 0 .747.747 0 0 0 0-1.06.747.747 0 0 0-.53-.22Zm0 9.5a.747.747 0 0 0-.53.22.747.747 0 0 0 0 1.06.747.747 0 0 0 1.06 0 .747.747 0 0 0 0-1.06.747.747 0 0 0-.53-.22Zm7.5-9.5a.747.747 0 0 0-.53.22.747.747 0 0 0 0 1.06.747.747 0 0 0 1.06 0 .747.747 0 0 0 0-1.06.747.747 0 0 0-.53-.22Z"/></svg>