<svg width="24" height="24" viewBox="0 0 24 24" xmlns="http://www.w3.org/2000/svg">
  <path fill-rule="evenodd" clip-rule="evenodd" d="M15.5 11.75C15.5 12.2096 15.4095 12.6648 15.2336 13.0894C15.0577 13.514 14.7999 13.8999 14.4749 14.2249C14.1499 14.5499 13.764 14.8077 13.3394 14.9836C12.9148 15.1595 12.4596 15.25 12 15.25C11.5404 15.25 11.0852 15.1595 10.6606 14.9836C10.236 14.8077 9.85013 14.5499 9.52513 14.2249C9.20012 13.8999 8.94231 13.514 8.76642 13.0894C8.59053 12.6648 8.5 12.2096 8.5 11.75C8.5 10.8217 8.86875 9.93151 9.52513 9.27513C10.1815 8.61875 11.0717 8.25 12 8.25C12.9283 8.25 13.8185 8.61875 14.4749 9.27513C15.1313 9.93151 15.5 10.8217 15.5 11.75ZM16.944 11C16.764 9.81776 16.1662 8.73917 15.2592 7.9598C14.3522 7.18044 13.1959 6.75191 12 6.75191C10.8041 6.75191 9.64784 7.18044 8.7408 7.9598C7.83377 8.73917 7.23604 9.81776 7.056 11H2.75C2.55109 11 2.36032 11.079 2.21967 11.2197C2.07902 11.3603 2 11.5511 2 11.75C2 11.9489 2.07902 12.1397 2.21967 12.2803C2.36032 12.421 2.55109 12.5 2.75 12.5H7.056C7.23604 13.6822 7.83377 14.7608 8.7408 15.5402C9.64784 16.3196 10.8041 16.7481 12 16.7481C13.1959 16.7481 14.3522 16.3196 15.2592 15.5402C16.1662 14.7608 16.764 13.6822 16.944 12.5H21.25C21.4489 12.5 21.6397 12.421 21.7803 12.2803C21.921 12.1397 22 11.9489 22 11.75C22 11.5511 21.921 11.3603 21.7803 11.2197C21.6397 11.079 21.4489 11 21.25 11H16.944Z"/>
</svg>
