<svg xmlns="http://www.w3.org/2000/svg" width="24" height="24" viewBox="0 0 24 24" fill="none"><path fill="#000" fill-rule="evenodd" d="M2.5 19.25a3.25 3.25 0 1 0 3.995-3.164A.757.757 0 0 0 6.5 16v-1.75c0-.966.784-1.75 1.75-1.75h7A3.75 3.75 0 0 0 19 8.75v-.837a3.251 3.251 0 0 0-.75-6.413 3.25 3.25 0 0 0-.75 6.413v.837A2.25 2.25 0 0 1 15.25 11h-7c-.644 0-1.245.188-1.75.51V8a.758.758 0 0 0-.005-.086A3.251 3.251 0 0 0 5.75 1.5a3.25 3.25 0 0 0-.745 6.414A.758.758 0 0 0 5 8v6.25s0-.001 0 0V16c0 .029.002.058.005.086A3.251 3.251 0 0 0 2.5 19.25ZM5.75 21a1.75 1.75 0 1 1 0-3.5 1.75 1.75 0 0 1 0 3.5Zm0-14.5a1.75 1.75 0 1 1 0-3.5 1.75 1.75 0 0 1 0 3.5ZM16.5 4.75a1.75 1.75 0 1 0 3.5 0 1.75 1.75 0 0 0-3.5 0Z" clip-rule="evenodd"/><path stroke="#000" stroke-linecap="round" stroke-width="1.5" d="m13.25 18.75 2.323 2.323a.25.25 0 0 0 .354 0l5.323-5.323"/></svg>