<svg xmlns="http://www.w3.org/2000/svg" width="16" height="16" viewBox="0 0 16 16">
  <defs/>
  <path d="M5.45,5.154 C6.171,6.592 7.641,7.5 9.25,7.5 L10.628,7.5 C10.993,6.466 12.05,5.846 13.131,6.031 C14.211,6.217 15.001,7.154 15.001,8.25 C15.001,9.346 14.211,10.283 13.131,10.469 C12.05,10.654 10.993,10.034 10.628,9 L9.25,9 C7.632,9.002 6.088,8.32 5,7.123 L5,10.628 C6.033,10.993 6.653,12.05 6.468,13.13 C6.282,14.21 5.346,14.999 4.25,14.999 C3.154,14.999 2.218,14.21 2.032,13.13 C1.847,12.05 2.467,10.993 3.5,10.628 L3.5,5.372 C2.511,5.022 1.895,4.036 2.015,2.994 C2.134,1.952 2.958,1.131 4,1.015 C5.042,0.898 6.027,1.517 6.374,2.507 C6.72,3.497 6.337,4.595 5.45,5.154 Z M4.25,13.5 C4.664,13.5 5,13.164 5,12.75 C5,12.336 4.664,12 4.25,12 C3.836,12 3.5,12.336 3.5,12.75 C3.5,13.164 3.836,13.5 4.25,13.5 Z M12.75,9 C13.164,9 13.5,8.664 13.5,8.25 C13.5,7.836 13.164,7.5 12.75,7.5 C12.336,7.5 12,7.836 12,8.25 C12,8.664 12.336,9 12.75,9 Z M5,3.25 C4.999,2.836 4.662,2.502 4.249,2.503 C3.835,2.503 3.5,2.839 3.5,3.253 C3.5,3.666 3.835,4.002 4.249,4.002 C4.662,4.003 4.999,3.669 5,3.255 L5,3.25 Z"/>
</svg>

