<svg width="16" height="16" viewBox="0 0 16 16" fill="none" xmlns="http://www.w3.org/2000/svg">
<path d="M3.75 4.5C4.44036 4.5 5 3.94036 5 3.25C5 2.55964 4.44036 2 3.75 2C3.05964 2 2.5 2.55964 2.5 3.25C2.5 3.94036 3.05964 4.5 3.75 4.5Z" fill="#24292F"/>
<path fill-rule="evenodd" clip-rule="evenodd" d="M3 7.75C3 7.33579 3.33579 7 3.75 7C4.16421 7 4.5 7.33579 4.5 7.75V10.628C5.37389 10.9369 6 11.7703 6 12.75C6 13.9926 4.99264 15 3.75 15C2.50736 15 1.5 13.9926 1.5 12.75C1.5 11.7703 2.12611 10.9369 3 10.628V7.75ZM3.75 13.5C4.16421 13.5 4.5 13.1642 4.5 12.75C4.5 12.3358 4.16421 12 3.75 12C3.33579 12 3 12.3358 3 12.75C3 13.1642 3.33579 13.5 3.75 13.5Z" fill="#24292F"/>
<path d="M8.75 5.75C8.75 6.44036 8.19036 7 7.5 7C6.80964 7 6.25 6.44036 6.25 5.75C6.25 5.05964 6.80964 4.5 7.5 4.5C8.19036 4.5 8.75 5.05964 8.75 5.75Z" fill="#24292F"/>
<path fill-rule="evenodd" clip-rule="evenodd" d="M14.5 8.25C14.5 9.49264 13.4926 10.5 12.25 10.5C11.0074 10.5 10 9.49264 10 8.25C10 7.00736 11.0074 6 12.25 6C13.4926 6 14.5 7.00736 14.5 8.25ZM13 8.25C13 8.66421 12.6642 9 12.25 9C11.8358 9 11.5 8.66421 11.5 8.25C11.5 7.83579 11.8358 7.5 12.25 7.5C12.6642 7.5 13 7.83579 13 8.25Z" fill="#24292F"/>
</svg>
