<svg width="16" height="16" viewBox="0 0 16 16" fill="none" xmlns="http://www.w3.org/2000/svg">
<path fill-rule="evenodd" clip-rule="evenodd" d="M2.5 3.25C2.5 2.83579 2.83579 2.5 3.25 2.5C3.66421 2.5 4 2.83579 4 3.25C4 3.66421 3.66421 4 3.25 4C2.83579 4 2.5 3.66421 2.5 3.25ZM3.25 1C2.00736 1 1 2.00736 1 3.25C1 4.22966 1.62611 5.06309 2.5 5.37197V10.628C1.62611 10.9369 1 11.7703 1 12.75C1 13.9926 2.00736 15 3.25 15C4.49264 15 5.5 13.9926 5.5 12.75C5.5 11.7703 4.87389 10.9369 4 10.628V5.37197C4.87389 5.06309 5.5 4.22966 5.5 3.25C5.5 2.00736 4.49264 1 3.25 1ZM3.25 12C2.83579 12 2.5 12.3358 2.5 12.75C2.5 13.1642 2.83579 13.5 3.25 13.5C3.66421 13.5 4 13.1642 4 12.75C4 12.3358 3.66421 12 3.25 12ZM12.75 15C13.9926 15 15 13.9926 15 12.75C15 11.5074 13.9926 10.5 12.75 10.5C11.5074 10.5 10.5 11.5074 10.5 12.75C10.5 13.9926 11.5074 15 12.75 15ZM12.75 12C12.3358 12 12 12.3358 12 12.75C12 13.1642 12.3358 13.5 12.75 13.5C13.1642 13.5 13.5 13.1642 13.5 12.75C13.5 12.3358 13.1642 12 12.75 12Z" fill="black"/>
<path d="M14 7.5C14 8.19036 13.4404 8.75 12.75 8.75C12.0596 8.75 11.5 8.19036 11.5 7.5C11.5 6.80964 12.0596 6.25 12.75 6.25C13.4404 6.25 14 6.80964 14 7.5Z" fill="black"/>
<path d="M14 3.25C14 3.94036 13.4404 4.5 12.75 4.5C12.0596 4.5 11.5 3.94036 11.5 3.25C11.5 2.55964 12.0596 2 12.75 2C13.4404 2 14 2.55964 14 3.25Z" fill="black"/>
</svg>
