<svg xmlns="http://www.w3.org/2000/svg" width="16" height="16" viewBox="0 0 16 16"><path d="M9.573.677A.25.25 0 0110 .854V2.5h1A2.5 2.5 0 0113.5 5v5.628a2.251 2.251 0 11-1.5 0V5a1 1 0 00-1-1h-1v1.646a.25.25 0 01-.427.177L7.177 3.427a.25.25 0 010-.354zM6 12v-1.646a.25.25 0 01.427-.177l2.396 2.396a.25.25 0 010 .354l-2.396 2.396A.25.25 0 016 15.146V13.5H5A2.5 2.5 0 012.5 11V5.372a2.25 2.25 0 111.5 0V11a1 1 0 001 1zM4 3.25a.75.75 0 10-1.5 0 .75.75 0 001.5 0zM12.75 12a.75.75 0 100 1.5.75.75 0 000-1.5z"/></svg>