<svg xmlns="http://www.w3.org/2000/svg" width="24" height="24" viewBox="0 0 24 24">
  <defs/>
  <path d="M15,13.25 C15,11.455 16.455,10 18.25,10 C20.045,10 21.5,11.455 21.5,13.25 C21.5,15.045 20.045,16.5 18.25,16.5 C16.455,16.5 15,15.045 15,13.25 Z M2.5,19.25 C2.5,17.455 3.955,16 5.75,16 C7.545,16 9,17.455 9,19.25 C9,21.045 7.545,22.5 5.75,22.5 C3.955,22.5 2.5,21.045 2.5,19.25 Z M2.5,4.75 C2.5,2.955 3.955,1.5 5.75,1.5 C7.545,1.5 9,2.955 9,4.75 C9,6.545 7.545,8 5.75,8 C3.955,8 2.5,6.545 2.5,4.75 Z M5.75,6.5 C6.716,6.5 7.5,5.716 7.5,4.75 C7.5,3.784 6.716,3 5.75,3 C4.784,3 4,3.784 4,4.75 C4,5.716 4.784,6.5 5.75,6.5 Z M5.75,21 C6.716,21 7.5,20.216 7.5,19.25 C7.5,18.284 6.716,17.5 5.75,17.5 C4.784,17.5 4,18.284 4,19.25 C4,20.216 4.784,21 5.75,21 Z M18.25,15 C19.216,15 20,14.216 20,13.25 C20,12.284 19.216,11.5 18.25,11.5 C17.284,11.5 16.5,12.284 16.5,13.25 C16.5,14.216 17.284,15 18.25,15 Z"/>
  <path d="M6.5,7.25 C6.5,10.15 8.85,12.5 11.75,12.5 L16.25,12.5 L16.25,14 L11.75,14 C8.022,14 5,10.978 5,7.25 Z"/>
  <path d="M5.75,16.75 C5.336,16.75 5,16.414 5,16 L5,8 C5,7.586 5.336,7.25 5.75,7.25 C6.164,7.25 6.5,7.586 6.5,8 L6.5,16 C6.5,16.414 6.164,16.75 5.75,16.75 Z"/>
</svg>

