<svg xmlns="http://www.w3.org/2000/svg" width="24" height="24" viewBox="0 0 24 24"><path d="M4.75 1.5a3.25 3.25 0 01.745 6.414A.827.827 0 015.5 8v8a.827.827 0 01-.005.086A3.25 3.25 0 014.75 22.5a3.25 3.25 0 01-.745-6.414A.827.827 0 014 16V8c0-.029.002-.057.005-.086A3.25 3.25 0 014.75 1.5zM16 19.25a3.25 3.25 0 116.5 0 3.25 3.25 0 01-6.5 0zM3 4.75a1.75 1.75 0 103.501-.001A1.75 1.75 0 003 4.75zm0 14.5a1.75 1.75 0 103.501-.001A1.75 1.75 0 003 19.25zm16.25-1.75a1.75 1.75 0 10.001 3.501 1.75 1.75 0 00-.001-3.501zm0-11.5a1.75 1.75 0 100-3.5 1.75 1.75 0 000 3.5zM21 11.25a1.75 1.75 0 11-3.5 0 1.75 1.75 0 013.5 0z"/></svg>