<svg xmlns="http://www.w3.org/2000/svg" width="16" height="16" viewBox="0 0 16 16">
  <defs/>
  <path d="M3.25,1 C4.347,0.999 5.284,1.789 5.47,2.87 C5.655,3.95 5.034,5.007 4,5.372 L4,10.628 C5.034,10.993 5.654,12.05 5.469,13.131 C5.283,14.211 4.346,15.001 3.25,15.001 C2.154,15.001 1.217,14.211 1.031,13.131 C0.846,12.05 1.466,10.993 2.5,10.628 L2.5,5.372 C1.466,5.007 0.845,3.95 1.03,2.87 C1.216,1.789 2.153,0.999 3.25,1 Z M12.75,15 C11.507,15 10.5,13.993 10.5,12.75 C10.5,11.507 11.507,10.5 12.75,10.5 C13.993,10.5 15,11.507 15,12.75 C15,13.993 13.993,15 12.75,15 Z M2.5,3.25 C2.5,3.664 2.836,4 3.25,4 C3.664,4 4,3.664 4,3.25 C4,2.836 3.664,2.5 3.25,2.5 C2.836,2.5 2.5,2.836 2.5,3.25 Z M3.25,12 C2.836,12 2.5,12.336 2.5,12.75 C2.5,13.164 2.836,13.5 3.25,13.5 C3.664,13.5 4,13.164 4,12.75 C4,12.336 3.664,12 3.25,12 Z M12.75,12 C12.336,12 12,12.336 12,12.75 C12,13.164 12.336,13.5 12.75,13.5 C13.164,13.5 13.5,13.164 13.5,12.75 C13.5,12.336 13.164,12 12.75,12 Z"/>
  <path d="M14,7.5 A1.25 1.25 0 1 1 11.5,7.5 A1.25 1.25 0 0 1 14,7.5 Z M14,3.25 A1.25 1.25 0 1 1 11.5,3.25 A1.25 1.25 0 0 1 14,3.25 Z"/>
</svg>

