<svg width="16" height="16" viewBox="0 0 16 16" xmlns="http://www.w3.org/2000/svg">
  <path fill-rule="evenodd" clip-rule="evenodd" d="M5 3.254V3.25V3.255C4.99934 3.45369 4.91985 3.64401 4.779 3.78415C4.63815 3.9243 4.44745 4.00283 4.24875 4.0025C4.05006 4.00217 3.85961 3.923 3.71923 3.78239C3.57885 3.64177 3.5 3.45119 3.5 3.2525C3.5 3.0538 3.57885 2.86323 3.71923 2.72261C3.85961 2.58199 4.05006 2.50283 4.24875 2.5025C4.44745 2.50217 4.63815 2.5807 4.779 2.72084C4.91985 2.86099 4.99934 3.0513 5 3.25V3.254ZM5.45 5.154C5.88079 4.8824 6.2067 4.47269 6.37445 3.99186C6.54221 3.51102 6.54188 2.9875 6.37353 2.50687C6.20517 2.02624 5.87875 1.61694 5.44762 1.34588C5.01649 1.07483 4.50616 0.95804 4.00005 1.01462C3.49394 1.0712 3.022 1.2978 2.66137 1.65737C2.30074 2.01695 2.07276 2.48822 2.0147 2.99416C1.95664 3.5001 2.07193 4.01077 2.34173 4.4427C2.61152 4.87462 3.01987 5.20224 3.5 5.372V10.628C2.99931 10.8049 2.57729 11.1532 2.30855 11.6112C2.0398 12.0692 1.94163 12.6075 2.03139 13.1309C2.12114 13.6542 2.39305 14.1291 2.79904 14.4713C3.20503 14.8136 3.71897 15.0014 4.25 15.0014C4.78103 15.0014 5.29496 14.8136 5.70095 14.4713C6.10695 14.1291 6.37885 13.6542 6.46861 13.1309C6.55837 12.6075 6.4602 12.0692 6.19145 11.6112C5.9227 11.1532 5.50069 10.8049 5 10.628V7.123C5.53827 7.71503 6.19447 8.18788 6.92641 8.51114C7.65836 8.8344 8.44985 9.00093 9.25 9H10.628C10.8049 9.50069 11.1532 9.9227 11.6112 10.1915C12.0692 10.4602 12.6075 10.5584 13.1309 10.4686C13.6542 10.3789 14.1291 10.1069 14.4713 9.70096C14.8136 9.29496 15.0014 8.78103 15.0014 8.25C15.0014 7.71897 14.8136 7.20503 14.4713 6.79904C14.1291 6.39305 13.6542 6.12114 13.1309 6.03139C12.6075 5.94163 12.0692 6.0398 11.6112 6.30855C11.1532 6.57729 10.8049 6.99931 10.628 7.5H9.25C8.4613 7.50006 7.68813 7.28066 7.01702 6.86634C6.34592 6.45202 5.80334 5.85912 5.45 5.154ZM12.75 9C12.9489 9 13.1397 8.92098 13.2803 8.78033C13.421 8.63968 13.5 8.44891 13.5 8.25C13.5 8.05109 13.421 7.86032 13.2803 7.71967C13.1397 7.57902 12.9489 7.5 12.75 7.5C12.5511 7.5 12.3603 7.57902 12.2197 7.71967C12.079 7.86032 12 8.05109 12 8.25C12 8.44891 12.079 8.63968 12.2197 8.78033C12.3603 8.92098 12.5511 9 12.75 9ZM4.25 13.5C4.44891 13.5 4.63968 13.421 4.78033 13.2803C4.92098 13.1397 5 12.9489 5 12.75C5 12.5511 4.92098 12.3603 4.78033 12.2197C4.63968 12.079 4.44891 12 4.25 12C4.05109 12 3.86032 12.079 3.71967 12.2197C3.57902 12.3603 3.5 12.5511 3.5 12.75C3.5 12.9489 3.57902 13.1397 3.71967 13.2803C3.86032 13.421 4.05109 13.5 4.25 13.5Z"/>
</svg>
