<svg xmlns="http://www.w3.org/2000/svg" width="24" height="24" viewBox="0 0 24 24"><path d="M2.5 19.25a3.248 3.248 0 0 1 2.505-3.164A.81.81 0 0 1 5 16V8c0-.029.002-.057.005-.086a3.247 3.247 0 0 1-2.486-3.539 3.25 3.25 0 1 1 3.976 3.539A.827.827 0 0 1 6.5 8v3.51A3.247 3.247 0 0 1 8.25 11h7a2.25 2.25 0 0 0 2.25-2.25v-.837a3.25 3.25 0 1 1 1.5 0v.837a3.752 3.752 0 0 1-3.75 3.75h-7a1.75 1.75 0 0 0-1.75 1.75V16a.81.81 0 0 1-.005.086A3.25 3.25 0 1 1 2.5 19.25ZM5.75 6.5c.464 0 .909-.184 1.237-.513a1.746 1.746 0 0 0 0-2.474 1.746 1.746 0 0 0-2.474 0A1.74 1.74 0 0 0 4 4.75a1.752 1.752 0 0 0 1.08 1.617c.213.088.44.133.67.133Zm0 14.5c.464 0 .909-.184 1.237-.513a1.746 1.746 0 0 0 0-2.474 1.746 1.746 0 0 0-2.474 0 1.746 1.746 0 0 0 0 2.474c.328.329.773.513 1.237.513ZM16.5 4.75a1.752 1.752 0 0 0 1.08 1.617A1.752 1.752 0 0 0 20 4.75c0-.464-.184-.909-.513-1.237a1.746 1.746 0 0 0-2.474 0A1.746 1.746 0 0 0 16.5 4.75Zm4.22 10.47a.749.749 0 1 1 1.06 1.06l-5.323 5.324a1.01 1.01 0 0 1-.707.292.991.991 0 0 1-.707-.292L12.72 19.28a.749.749 0 1 1 1.06-1.06l1.97 1.969 4.97-4.969Z"/></svg>