<svg xmlns="http://www.w3.org/2000/svg" width="16" height="16" viewBox="0 0 16 16"><path d="M3.25 1A2.25 2.25 0 014 5.372v5.256a2.251 2.251 0 11-1.5 0V5.372A2.251 2.251 0 013.25 1zm9.5 5.5a.75.75 0 01.75.75v3.378a2.251 2.251 0 11-1.5 0V7.25a.75.75 0 01.75-.75zm-2.03-5.273a.75.75 0 011.06 0l.97.97.97-.97a.748.748 0 011.265.332.75.75 0 01-.205.729l-.97.97.97.97a.751.751 0 01-.018 1.042.751.751 0 01-1.042.018l-.97-.97-.97.97a.749.749 0 01-1.275-.326.749.749 0 01.215-.734l.97-.97-.97-.97a.75.75 0 010-1.06zM2.5 3.25a.75.75 0 101.5 0 .75.75 0 00-1.5 0zM3.25 12a.75.75 0 100 1.5.75.75 0 000-1.5zm9.5 0a.75.75 0 100 1.5.75.75 0 000-1.5z"/></svg>