<svg width="24" height="24" viewBox="0 0 24 24" fill="none" xmlns="http://www.w3.org/2000/svg">
<path fill-rule="evenodd" clip-rule="evenodd" d="M2.5 19.25C2.5001 19.8608 2.67232 20.4592 2.99691 20.9766C3.3215 21.494 3.78532 21.9095 4.3352 22.1754C4.88508 22.4412 5.49876 22.5468 6.10588 22.4799C6.713 22.413 7.28898 22.1764 7.76779 21.7972C8.2466 21.418 8.60886 20.9115 8.81304 20.3359C9.01721 19.7602 9.05504 19.1387 8.92218 18.5425C8.78932 17.9463 8.49115 17.3997 8.06186 16.9652C7.63257 16.5307 7.08953 16.226 6.495 16.086C6.4983 16.0575 6.49997 16.0287 6.5 16V14.25C6.5 13.284 7.284 12.5 8.25 12.5H15.25C16.2446 12.5 17.1984 12.1049 17.9017 11.4017C18.6049 10.6984 19 9.74456 19 8.75V7.913C19.7741 7.72805 20.4535 7.26557 20.9093 6.61319C21.3652 5.96081 21.566 5.16386 21.4735 4.37337C21.3811 3.58287 21.0019 2.85375 20.4077 2.32416C19.8136 1.79458 19.0459 1.50134 18.25 1.5C17.4529 1.49925 16.6833 1.79147 16.0876 2.32108C15.4919 2.8507 15.1115 3.58077 15.0189 4.37249C14.9264 5.1642 15.1279 5.96233 15.5854 6.61511C16.0428 7.2679 16.7242 7.7298 17.5 7.913V8.75C17.5 9.34674 17.2629 9.91904 16.841 10.341C16.419 10.7629 15.8467 11 15.25 11H8.25C7.606 11 7.005 11.188 6.5 11.51V8C6.49996 7.97126 6.4983 7.94255 6.495 7.914C7.26964 7.73001 7.94983 7.26815 8.40658 6.61601C8.86333 5.96386 9.06489 5.16678 8.97303 4.37591C8.88117 3.58503 8.50227 2.85537 7.9082 2.32528C7.31413 1.79519 6.54619 1.50153 5.75 1.5C4.95258 1.49944 4.18278 1.79206 3.5871 2.32218C2.99141 2.85231 2.6114 3.58293 2.5194 4.37503C2.4274 5.16712 2.62981 5.9654 3.08813 6.61795C3.54645 7.2705 4.22868 7.73177 5.005 7.914C5.0017 7.94255 5.00004 7.97126 5 8V14.25V16C5 16.029 5.002 16.058 5.005 16.086C4.29207 16.2541 3.6568 16.658 3.20213 17.2323C2.74747 17.8065 2.50006 18.5175 2.5 19.25ZM5.75 21C5.28587 21 4.84075 20.8156 4.51256 20.4874C4.18437 20.1592 4 19.7141 4 19.25C4 18.7859 4.18437 18.3408 4.51256 18.0126C4.84075 17.6844 5.28587 17.5 5.75 17.5C6.21413 17.5 6.65925 17.6844 6.98744 18.0126C7.31563 18.3408 7.5 18.7859 7.5 19.25C7.5 19.7141 7.31563 20.1592 6.98744 20.4874C6.65925 20.8156 6.21413 21 5.75 21ZM5.75 6.5C5.52019 6.5 5.29262 6.45474 5.0803 6.36679C4.86798 6.27885 4.67507 6.14994 4.51256 5.98744C4.35006 5.82494 4.22116 5.63202 4.13321 5.4197C4.04526 5.20738 4 4.97981 4 4.75C4 4.52019 4.04526 4.29263 4.13321 4.08031C4.22116 3.86799 4.35006 3.67507 4.51256 3.51256C4.67507 3.35006 4.86798 3.22116 5.0803 3.13321C5.29262 3.04527 5.52019 3 5.75 3C6.21413 3 6.65925 3.18438 6.98744 3.51256C7.31563 3.84075 7.5 4.28587 7.5 4.75C7.5 5.21413 7.31563 5.65925 6.98744 5.98744C6.65925 6.31563 6.21413 6.5 5.75 6.5ZM16.5 4.75C16.5 4.97981 16.5453 5.20738 16.6332 5.4197C16.7212 5.63202 16.8501 5.82494 17.0126 5.98744C17.1751 6.14994 17.368 6.27885 17.5803 6.36679C17.7926 6.45474 18.0202 6.5 18.25 6.5C18.4798 6.5 18.7074 6.45474 18.9197 6.36679C19.132 6.27885 19.3249 6.14994 19.4874 5.98744C19.6499 5.82494 19.7788 5.63202 19.8668 5.4197C19.9547 5.20738 20 4.97981 20 4.75C20 4.28587 19.8156 3.84075 19.4874 3.51256C19.1592 3.18438 18.7141 3 18.25 3C17.7859 3 17.3408 3.18438 17.0126 3.51256C16.6844 3.84075 16.5 4.28587 16.5 4.75Z" fill="black"/>
<path d="M20.7197 15.2197C21.0126 14.9268 21.4874 14.9268 21.7803 15.2197C22.0732 15.5126 22.0732 15.9874 21.7803 16.2803L16.457 21.6035C16.3643 21.6962 16.2539 21.7701 16.1328 21.8203C16.0115 21.8706 15.8814 21.8965 15.75 21.8965C15.6186 21.8965 15.4885 21.8706 15.3672 21.8203C15.2461 21.7701 15.1357 21.6962 15.043 21.6035L12.7197 19.2803C12.4268 18.9874 12.4268 18.5126 12.7197 18.2197C13.0126 17.9268 13.4874 17.9268 13.7803 18.2197L15.75 20.1895L20.7197 15.2197Z" fill="black"/>
</svg>
