<svg width="24" height="24" viewBox="0 0 24 24" fill="none" xmlns="http://www.w3.org/2000/svg">
<path fill-rule="evenodd" clip-rule="evenodd" d="M4.75 1.5C2.95507 1.5 1.5 2.95507 1.5 4.75C1.5 6.28853 2.56906 7.57736 4.00486 7.91418C4.00165 7.94234 4 7.97098 4 8L4 16C4 16.029 4.00165 16.0577 4.00486 16.0858C2.56906 16.4226 1.5 17.7115 1.5 19.25C1.5 21.0449 2.95507 22.5 4.75 22.5C6.54493 22.5 8 21.0449 8 19.25C8 17.7115 6.93094 16.4226 5.49514 16.0858C5.49835 16.0577 5.5 16.029 5.5 16L5.5 8C5.5 7.97098 5.49835 7.94234 5.49514 7.91418C6.93094 7.57736 8 6.28853 8 4.75C8 2.95507 6.54493 1.5 4.75 1.5ZM3 4.75C3 3.7835 3.7835 3 4.75 3C5.7165 3 6.5 3.7835 6.5 4.75C6.5 5.7165 5.7165 6.5 4.75 6.5C3.7835 6.5 3 5.7165 3 4.75ZM3 19.25C3 18.2835 3.7835 17.5 4.75 17.5C5.7165 17.5 6.5 18.2835 6.5 19.25C6.5 20.2165 5.7165 21 4.75 21C3.7835 21 3 20.2165 3 19.25Z" fill="black"/>
<path fill-rule="evenodd" clip-rule="evenodd" d="M16 19.25C16 17.4551 17.4551 16 19.25 16C21.0449 16 22.5 17.4551 22.5 19.25C22.5 21.0449 21.0449 22.5 19.25 22.5C17.4551 22.5 16 21.0449 16 19.25ZM19.25 17.5C18.2835 17.5 17.5 18.2835 17.5 19.25C17.5 20.2165 18.2835 21 19.25 21C20.2165 21 21 20.2165 21 19.25C21 18.2835 20.2165 17.5 19.25 17.5Z" fill="black"/>
<path d="M19.25 6C20.2165 6 21 5.2165 21 4.25C21 3.2835 20.2165 2.5 19.25 2.5C18.2835 2.5 17.5 3.2835 17.5 4.25C17.5 5.2165 18.2835 6 19.25 6Z" fill="black"/>
<path d="M21 11.25C21 12.2165 20.2165 13 19.25 13C18.2835 13 17.5 12.2165 17.5 11.25C17.5 10.2835 18.2835 9.5 19.25 9.5C20.2165 9.5 21 10.2835 21 11.25Z" fill="black"/>
</svg>
