<svg xmlns="http://www.w3.org/2000/svg" width="24" height="24" viewBox="0 0 24 24"><path d="M22.266 2.711a.75.75 0 10-1.061-1.06l-1.983 1.983-1.984-1.983a.75.75 0 10-1.06 1.06l1.983 1.983-1.983 1.984a.75.75 0 001.06 1.06l1.984-1.983 1.983 1.983a.75.75 0 001.06-1.06l-1.983-1.984 1.984-1.983zM4.75 1.5a3.25 3.25 0 01.745 6.414A.827.827 0 015.5 8v8a.827.827 0 01-.005.086A3.25 3.25 0 014.75 22.5a3.25 3.25 0 01-.745-6.414A.827.827 0 014 16V8c0-.029.002-.057.005-.086A3.25 3.25 0 014.75 1.5zM16 19.25a3.252 3.252 0 012.5-3.163V9.625a.75.75 0 011.5 0v6.462a3.252 3.252 0 01-.75 6.413A3.25 3.25 0 0116 19.25zM3 4.75a1.75 1.75 0 103.501-.001A1.75 1.75 0 003 4.75zm0 14.5a1.75 1.75 0 103.501-.001A1.75 1.75 0 003 19.25zm16.25-1.75a1.75 1.75 0 10.001 3.501 1.75 1.75 0 00-.001-3.501z"/></svg>