<svg width="24" height="24" viewBox="0 0 24 24" xmlns="http://www.w3.org/2000/svg">
  <path fill-rule="evenodd" clip-rule="evenodd" d="M5.75 21C4.7835 21 4 20.2165 4 19.25C4 18.2835 4.7835 17.5 5.75 17.5C6.7165 17.5 7.5 18.2835 7.5 19.25C7.5 20.2165 6.7165 21 5.75 21ZM2.5 19.25C2.5 21.0449 3.95507 22.5 5.75 22.5C7.54493 22.5 9 21.0449 9 19.25C9 17.4551 7.54493 16 5.75 16C3.95507 16 2.5 17.4551 2.5 19.25Z"/>
  <path fill-rule="evenodd" clip-rule="evenodd" d="M5.75 6.5C4.7835 6.5 4 5.7165 4 4.75C4 3.7835 4.7835 3 5.75 3C6.7165 3 7.5 3.7835 7.5 4.75C7.5 5.7165 6.7165 6.5 5.75 6.5ZM2.5 4.75C2.5 6.54493 3.95507 8 5.75 8C7.54493 8 9 6.54493 9 4.75C9 2.95507 7.54493 1.5 5.75 1.5C3.95507 1.5 2.5 2.95507 2.5 4.75Z"/>
  <path fill-rule="evenodd" clip-rule="evenodd" d="M18.25 15C17.2835 15 16.5 14.2165 16.5 13.25C16.5 12.2835 17.2835 11.5 18.25 11.5C19.2165 11.5 20 12.2835 20 13.25C20 14.2165 19.2165 15 18.25 15ZM15 13.25C15 15.0449 16.4551 16.5 18.25 16.5C20.0449 16.5 21.5 15.0449 21.5 13.25C21.5 11.4551 20.0449 10 18.25 10C16.4551 10 15 11.4551 15 13.25Z"/>
  <path fill-rule="evenodd" clip-rule="evenodd" d="M6.5 7.25C6.5 10.1495 8.85051 12.5 11.75 12.5H16.25V14H11.75C8.02208 14 5 10.9779 5 7.25H6.5Z"/>
  <path fill-rule="evenodd" clip-rule="evenodd" d="M5.75 16.75C6.16421 16.75 6.5 16.4142 6.5 16L6.5 8C6.5 7.58579 6.16421 7.25 5.75 7.25C5.33579 7.25 5 7.58579 5 8L5 16C5 16.4142 5.33579 16.75 5.75 16.75Z"/>
</svg>
