<svg width="16" height="16" viewBox="0 0 16 16" xmlns="http://www.w3.org/2000/svg">
  <path fill-rule="evenodd" clip-rule="evenodd" d="M10.5 7.75C10.5 8.41305 10.2366 9.04893 9.76777 9.51777C9.29893 9.98661 8.66304 10.25 8 10.25C7.33696 10.25 6.70107 9.98661 6.23223 9.51777C5.76339 9.04893 5.5 8.41305 5.5 7.75C5.5 7.08696 5.76339 6.45108 6.23223 5.98224C6.70107 5.5134 7.33696 5.25 8 5.25C8.66304 5.25 9.29893 5.5134 9.76777 5.98224C10.2366 6.45108 10.5 7.08696 10.5 7.75ZM11.93 8.5C11.7554 9.41441 11.2674 10.2393 10.5501 10.8327C9.83272 11.426 8.93093 11.7506 8 11.7506C7.06907 11.7506 6.16728 11.426 5.44994 10.8327C4.73259 10.2393 4.2446 9.41441 4.07 8.5H0.75C0.551088 8.5 0.360322 8.42099 0.21967 8.28033C0.0790176 8.13968 0 7.94892 0 7.75C0 7.55109 0.0790176 7.36033 0.21967 7.21967C0.360322 7.07902 0.551088 7 0.75 7H4.07C4.2446 6.0856 4.73259 5.26069 5.44994 4.66736C6.16728 4.07403 7.06907 3.7494 8 3.7494C8.93093 3.7494 9.83272 4.07403 10.5501 4.66736C11.2674 5.26069 11.7554 6.0856 11.93 7H15.25C15.4489 7 15.6397 7.07902 15.7803 7.21967C15.921 7.36033 16 7.55109 16 7.75C16 7.94892 15.921 8.13968 15.7803 8.28033C15.6397 8.42099 15.4489 8.5 15.25 8.5H11.93Z"/>
</svg>
