<svg width="24" height="24" viewBox="0 0 24 24" fill="none" xmlns="http://www.w3.org/2000/svg">
<path d="M5.75 6.5C4.7835 6.5 4 5.7165 4 4.75C4 3.7835 4.7835 3 5.75 3C6.7165 3 7.5 3.7835 7.5 4.75C7.5 5.7165 6.7165 6.5 5.75 6.5Z" fill="black"/>
<path d="M9.5 8.75C9.5 7.7835 10.2835 7 11.25 7C12.2165 7 13 7.7835 13 8.75C13 9.7165 12.2165 10.5 11.25 10.5C10.2835 10.5 9.5 9.7165 9.5 8.75Z" fill="black"/>
<path fill-rule="evenodd" clip-rule="evenodd" d="M5.75 22.5C3.95507 22.5 2.5 21.0449 2.5 19.25C2.5 17.7115 3.56906 16.4226 5.00486 16.0858C5.00165 16.0577 5 16.029 5 16L5 11C5 10.5858 5.33579 10.25 5.75 10.25C6.16422 10.25 6.5 10.5858 6.5 11L6.5 16C6.5 16.029 6.49835 16.0577 6.49514 16.0858C7.93094 16.4226 9 17.7115 9 19.25C9 21.0449 7.54493 22.5 5.75 22.5ZM4 19.25C4 20.2165 4.7835 21 5.75 21C6.7165 21 7.5 20.2165 7.5 19.25C7.5 18.2835 6.7165 17.5 5.75 17.5C4.7835 17.5 4 18.2835 4 19.25Z" fill="black"/>
<path fill-rule="evenodd" clip-rule="evenodd" d="M15 12.75C15 14.5449 16.4551 16 18.25 16C20.0449 16 21.5 14.5449 21.5 12.75C21.5 10.9551 20.0449 9.5 18.25 9.5C16.4551 9.5 15 10.9551 15 12.75ZM18.25 14.5C17.2835 14.5 16.5 13.7165 16.5 12.75C16.5 11.7835 17.2835 11 18.25 11C19.2165 11 20 11.7835 20 12.75C20 13.7165 19.2165 14.5 18.25 14.5Z" fill="black"/>
</svg>
