<svg xmlns="http://www.w3.org/2000/svg" width="24" height="24" viewBox="0 0 24 24"><path d="M15 4.75a3.25 3.25 0 116.5 0 3.25 3.25 0 01-6.5 0zM2.5 19.25a3.25 3.25 0 116.5 0 3.25 3.25 0 01-6.5 0zm0-14.5a3.25 3.25 0 116.5 0 3.25 3.25 0 01-6.5 0zM5.75 6.5a1.75 1.75 0 10-.001-3.501A1.75 1.75 0 005.75 6.5zm0 14.5a1.75 1.75 0 10-.001-3.501A1.75 1.75 0 005.75 21zm12.5-14.5a1.75 1.75 0 10-.001-3.501A1.75 1.75 0 0018.25 6.5z"/><path d="M5.75 16.75A.75.75 0 015 16V8a.75.75 0 011.5 0v8a.75.75 0 01-.75.75z"/><path d="M17.5 8.75v-1H19v1a3.75 3.75 0 01-3.75 3.75h-7a1.75 1.75 0 00-1.75 1.75H5A3.25 3.25 0 018.25 11h7a2.25 2.25 0 002.25-2.25z"/></svg>