<svg xmlns="http://www.w3.org/2000/svg" width="24" height="24" viewBox="0 0 24 24">
  <defs/>
  <path d="M16,19.25 C16,17.455 17.455,16 19.25,16 C21.045,16 22.5,17.455 22.5,19.25 C22.5,21.045 21.045,22.5 19.25,22.5 C17.455,22.5 16,21.045 16,19.25 Z M1.5,19.25 C1.5,17.455 2.955,16 4.75,16 C6.545,16 8,17.455 8,19.25 C8,21.045 6.545,22.5 4.75,22.5 C2.955,22.5 1.5,21.045 1.5,19.25 Z M1.5,4.75 C1.5,2.955 2.955,1.5 4.75,1.5 C6.545,1.5 8,2.955 8,4.75 C8,6.545 6.545,8 4.75,8 C2.955,8 1.5,6.545 1.5,4.75 Z M4.75,3 C3.784,3 3,3.784 3,4.75 C3,5.716 3.784,6.5 4.75,6.5 C5.716,6.5 6.5,5.716 6.5,4.75 C6.5,3.784 5.716,3 4.75,3 Z M4.75,17.5 C3.784,17.5 3,18.284 3,19.25 C3,20.216 3.784,21 4.75,21 C5.716,21 6.5,20.216 6.5,19.25 C6.5,18.284 5.716,17.5 4.75,17.5 Z M19.25,17.5 C18.284,17.5 17.5,18.284 17.5,19.25 C17.5,20.216 18.284,21 19.25,21 C20.216,21 21,20.216 21,19.25 C21,18.284 20.216,17.5 19.25,17.5 Z"/>
  <path d="M13.405,1.72 C13.697,2.013 13.697,2.487 13.405,2.78 L12.185,4 L16.25,4 C18.321,4 20,5.679 20,7.75 L20,16.5 C20,16.914 19.664,17.25 19.25,17.25 C18.836,17.25 18.5,16.914 18.5,16.5 L18.5,7.75 C18.5,6.507 17.493,5.5 16.25,5.5 L12.186,5.5 L13.406,6.72 C13.69,7.014 13.686,7.482 13.396,7.771 C13.107,8.061 12.639,8.064 12.345,7.78 L9.845,5.28 C9.553,4.987 9.553,4.513 9.845,4.22 L12.345,1.72 C12.638,1.428 13.112,1.428 13.405,1.72 Z M4.75,7.25 C5.164,7.25 5.5,7.586 5.5,8 L5.5,16 C5.5,16.414 5.164,16.75 4.75,16.75 C4.336,16.75 4,16.414 4,16 L4,8 C4,7.586 4.336,7.25 4.75,7.25 Z"/>
</svg>

