<svg xmlns="http://www.w3.org/2000/svg" width="24" height="24" viewBox="0 0 24 24">
  <defs/>
  <path d="M16.944,11 L21.25,11 C21.664,11 22,11.336 22,11.75 C22,12.164 21.664,12.5 21.25,12.5 L16.944,12.5 C16.572,14.943 14.471,16.748 12,16.748 C9.529,16.748 7.428,14.943 7.056,12.5 L2.75,12.5 C2.336,12.5 2,12.164 2,11.75 C2,11.336 2.336,11 2.75,11 L7.056,11 C7.428,8.557 9.529,6.752 12,6.752 C14.471,6.752 16.572,8.557 16.944,11 Z M15.5,11.75 C15.5,9.817 13.933,8.25 12,8.25 C10.067,8.25 8.5,9.817 8.5,11.75 C8.5,13.683 10.067,15.25 12,15.25 C13.933,15.25 15.5,13.683 15.5,11.75 Z"/>
</svg>

