<svg xmlns="http://www.w3.org/2000/svg" width="16" height="16" viewBox="0 0 16 16">
  <defs/>
  <path d="M11.93,8.5 C11.568,10.384 9.919,11.746 8,11.746 C6.081,11.746 4.432,10.384 4.07,8.5 L0.75,8.5 C0.336,8.5 0,8.164 0,7.75 C0,7.336 0.336,7 0.75,7 L4.07,7 C4.43,5.114 6.08,3.749 8,3.749 C9.92,3.749 11.57,5.114 11.93,7 L15.25,7 C15.664,7 16,7.336 16,7.75 C16,8.164 15.664,8.5 15.25,8.5 Z M10.5,7.75 C10.5,6.369 9.381,5.25 8,5.25 C6.619,5.25 5.5,6.369 5.5,7.75 C5.5,9.131 6.619,10.25 8,10.25 C9.381,10.25 10.5,9.131 10.5,7.75 Z"/>
</svg>

