<svg xmlns="http://www.w3.org/2000/svg" width="24" height="24" viewBox="0 0 24 24">
  <defs/>
  <path d="M12,1 C18.075,1 23,5.925 23,12 C23,18.075 18.075,23 12,23 C5.925,23 1,18.075 1,12 C1,5.925 5.925,1 12,1 Z M15.241,11.5 L15.241,11.499 C15.141,8.791 14.249,6.595 13.351,5.047 C12.875,4.227 12.4,3.593 12.047,3.167 L12,3.11 L11.953,3.169 C11.599,3.594 11.125,4.229 10.649,5.049 C9.751,6.596 8.859,8.792 8.759,11.5 Z M2.513,11.5 L7.258,11.5 C7.358,8.463 8.358,6.01 9.351,4.296 C9.741,3.624 10.131,3.063 10.47,2.623 C6.11,3.329 2.746,7 2.513,11.5 Z M21.487,11.5 C21.254,7 17.89,3.329 13.53,2.623 C13.869,3.063 14.259,3.624 14.649,4.296 C15.642,6.01 16.642,8.463 16.742,11.5 Z M8.787,13 C8.969,15.478 9.807,17.5 10.649,18.953 C11.031,19.614 11.467,20.243 11.953,20.833 L12,20.89 L12.047,20.831 C12.401,20.406 12.875,19.771 13.351,18.951 C14.193,17.5 15.03,15.48 15.213,13 Z M7.283,13 L2.552,13 C3.004,17.257 6.245,20.686 10.47,21.377 C10.062,20.844 9.688,20.285 9.351,19.704 C8.413,18.085 7.47,15.807 7.283,13 Z M16.717,13 C16.531,15.807 15.587,18.085 14.649,19.704 C14.259,20.376 13.869,20.937 13.531,21.377 C17.755,20.685 20.995,17.256 21.447,13 Z"/>
</svg>

