<svg xmlns="http://www.w3.org/2000/svg" width="16" height="16" viewBox="0 0 16 16">
  <defs/>
  <path d="M8,0 C12.418,0 16,3.582 16,8 C16,12.418 12.418,16 8,16 C3.582,16 0,12.418 0,8 C0,3.582 3.582,0 8,0 Z M5.78,8.75 C5.907,10.229 6.373,11.658 7.143,12.927 C7.398,13.353 7.685,13.759 8,14.142 C8.245,13.846 8.551,13.437 8.857,12.927 C9.627,11.658 10.093,10.229 10.22,8.75 Z M10.22,7.25 C10.093,5.771 9.627,4.342 8.857,3.073 C8.55,2.563 8.245,2.154 8,1.858 C7.755,2.154 7.449,2.563 7.143,3.073 C6.373,4.342 5.907,5.771 5.78,7.25 Z M4.276,8.75 L1.543,8.75 C1.847,11.357 3.687,13.525 6.209,14.25 C6.086,14.069 5.969,13.885 5.857,13.698 C5.142,12.506 4.42,10.824 4.276,8.75 Z M1.543,7.25 L4.276,7.25 C4.42,5.176 5.142,3.494 5.856,2.302 C5.976,2.105 6.093,1.921 6.209,1.75 C3.687,2.475 1.847,4.643 1.543,7.25 Z M11.724,8.75 C11.58,10.824 10.858,12.506 10.144,13.698 C10.024,13.895 9.907,14.079 9.791,14.25 C12.313,13.525 14.153,11.357 14.457,8.75 Z M14.457,7.25 C14.153,4.643 12.313,2.475 9.791,1.75 C9.914,1.931 10.031,2.115 10.144,2.302 C10.858,3.494 11.58,5.176 11.724,7.25 Z"/>
</svg>

