<svg xmlns="http://www.w3.org/2000/svg" width="24" height="24" viewBox="0 0 24 24"><path fill-rule="evenodd" d="M20.172 6.75a.937.937 0 00.663-.275l1.731-1.73a.25.25 0 00-.128-.422l-2.3-.46-.46-2.301a.25.25 0 00-.423-.128l-1.73 1.73a.938.938 0 00-.275.664v1.861l-4.565 4.565a1.875 1.875 0 101.06 1.06l4.566-4.564h1.861z"/><path fill-rule="evenodd" d="M2.625 12A9.375 9.375 0 0112 2.625a9.38 9.38 0 012.587.361A.75.75 0 1015 1.544a10.887 10.887 0 00-3-.419C5.994 1.125 1.125 5.994 1.125 12S5.994 22.875 12 22.875 22.875 18.006 22.875 12c0-1.04-.146-2.046-.42-3a.75.75 0 00-1.441.413c.235.821.361 1.689.361 2.587a9.375 9.375 0 11-18.75 0z"/><path fill-rule="evenodd" d="M7.125 12a4.875 4.875 0 015.436-4.843.75.75 0 10.17-1.49 6.375 6.375 0 105.6 5.591.75.75 0 10-1.489.173A4.875 4.875 0 117.125 12z"/></svg>