<svg xmlns="http://www.w3.org/2000/svg" width="16" height="16" viewBox="0 0 16 16"><path d="M13.637 2.363h-.001l1.676.335c.09.018.164.084.19.173a.25.25 0 01-.062.249l-1.373 1.374a.876.876 0 01-.619.256H12.31L9.45 7.611A1.5 1.5 0 116.5 8a1.501 1.501 0 011.889-1.449l2.861-2.862V2.552c0-.232.092-.455.256-.619L12.88.559a.25.25 0 01.249-.062c.089.026.155.1.173.19z"/><path d="M2 8a6 6 0 1011.769-1.656.751.751 0 111.442-.413 7.502 7.502 0 01-12.513 7.371A7.501 7.501 0 0110.069.789a.75.75 0 01-.413 1.442A6.001 6.001 0 002 8z"/><path d="M5 8a3.002 3.002 0 004.699 2.476 3 3 0 001.28-2.827.748.748 0 011.045-.782.75.75 0 01.445.61A4.5 4.5 0 118.516 3.53a.75.75 0 11-.17 1.49A3 3 0 005 8z"/></svg>