<svg xmlns="http://www.w3.org/2000/svg" width="16" height="16" viewBox="0 0 16 16"><g fill-rule="evenodd"><path d="M13.637 2.363L13.302.687a.25.25 0 00-.422-.128l-1.374 1.374a.875.875 0 00-.256.619v1.137L8.389 6.551A1.502 1.502 0 006.5 8a1.5 1.5 0 102.95-.389l2.86-2.861h1.138a.875.875 0 00.619-.256L15.44 3.12a.25.25 0 00-.128-.422l-1.676-.335z"/><path d="M2 8a6 6 0 017.656-5.769.75.75 0 00.413-1.442 7.5 7.5 0 105.142 5.142.75.75 0 10-1.442.413A6 6 0 112 8z"/><path d="M5 8a3 3 0 013.346-2.98.75.75 0 10.17-1.49 4.5 4.5 0 103.953 3.947.75.75 0 10-1.49.172A3 3 0 115 8z"/></g></svg>