<svg width="24" height="24" viewBox="0 0 24 24" fill="none" xmlns="http://www.w3.org/2000/svg">
<g clip-path="url(#clip0_0_58)">
<path fill-rule="evenodd" clip-rule="evenodd" d="M20 12.25C20 14.3211 18.3211 16 16.25 16C14.1789 16 12.5 14.3211 12.5 12.25C12.5 10.1789 14.1789 8.5 16.25 8.5C18.3211 8.5 20 10.1789 20 12.25ZM16.25 14.5C17.4926 14.5 18.5 13.4926 18.5 12.25C18.5 11.0074 17.4926 10 16.25 10C15.0074 10 14 11.0074 14 12.25C14 13.4926 15.0074 14.5 16.25 14.5Z" fill="#1F2328"/>
<path d="M2.5 6.25H1.75V7V17.5V18.25H2.5H21C21.6904 18.25 22.25 17.6904 22.25 17V9.22801C22.25 8.86593 22.093 8.52163 21.8196 8.28422L19.8298 6.55621L19.3405 7.11963L19.8298 6.55621C19.6024 6.35873 19.3113 6.25 19.0102 6.25H2.5Z" stroke="#1F2328" stroke-width="1.5"/>
<path d="M9.25 8.5C9.66421 8.5 10 8.83579 10 9.25C10 9.66421 9.66421 10 9.25 10L4.75 10C4.33579 10 4 9.66421 4 9.25C4 8.83579 4.33579 8.5 4.75 8.5L9.25 8.5Z" fill="#1F2328"/>
<path d="M2.5 19.75C2.5 20.1642 2.16421 20.5 1.75 20.5C1.33579 20.5 1 20.1642 1 19.75L1 17.5L2.5 17.5L2.5 19.75Z" fill="#1F2328"/>
<path d="M9.25 11C9.66421 11 10 11.3358 10 11.75C10 12.1642 9.66421 12.5 9.25 12.5L4.75 12.5C4.33579 12.5 4 12.1642 4 11.75C4 11.3358 4.33579 11 4.75 11L9.25 11Z" fill="#1F2328"/>
<circle cx="4.75" cy="15.25" r="0.75" fill="#1F2328"/>
</g>
<defs>
<clipPath id="clip0_0_58">
<rect width="24" height="24" fill="white"/>
</clipPath>
</defs>
</svg>
