<svg xmlns="http://www.w3.org/2000/svg" width="24" height="24" viewBox="0 0 24 24"><path d="M20 12.25a3.75 3.75 0 1 1-7.5 0 3.75 3.75 0 0 1 7.5 0Zm-3.75 2.25a2.25 2.25 0 1 0 0-4.5 2.25 2.25 0 0 0 0 4.5Z"/><path d="M19.01 5.5q.346 0 .653.105l.092-.107.566.492h.001l1.989 1.728q.689.598.689 1.51V17q0 2-2 2H1V5.5ZM2.5 7v10.5H21q.5 0 .5-.5V9.228q0-.228-.172-.377l-1.99-1.729Q19.197 7 19.01 7Z"/><path d="M9.25 8.5a.75.75 0 0 1 0 1.5h-4.5a.75.75 0 0 1 0-1.5ZM2.5 19.75a.75.75 0 0 1-1.5 0V17.5h1.5ZM9.25 11a.75.75 0 0 1 0 1.5h-4.5a.75.75 0 0 1 0-1.5ZM5.5 15.25a.75.75 0 1 1-1.5 0 .75.75 0 0 1 1.5 0Z"/></svg>