<svg width="16" height="16" viewBox="0 0 16 16" fill="none" xmlns="http://www.w3.org/2000/svg">
<g clip-path="url(#clip0_0_66)">
<path fill-rule="evenodd" clip-rule="evenodd" d="M14 8.5C14 9.88071 12.8807 11 11.5 11C10.1193 11 9 9.88071 9 8.5C9 7.11929 10.1193 6 11.5 6C12.8807 6 14 7.11929 14 8.5ZM11.5 10C12.3284 10 13 9.32843 13 8.5C13 7.67157 12.3284 7 11.5 7C10.6716 7 10 7.67157 10 8.5C10 9.32843 10.6716 10 11.5 10Z" fill="#1F2328"/>
<path d="M1 4.5H0.5V5V12V12.5H1H14.6667C15.1269 12.5 15.5 12.1269 15.5 11.6667V6.49535C15.5 6.23963 15.3826 5.99807 15.1815 5.84008L14.8791 6.225L15.1815 5.84008L13.7026 4.67807C13.5558 4.56271 13.3745 4.5 13.1877 4.5H1Z" stroke="#1F2328"/>
<path d="M5.5 6C5.77614 6 6 6.22386 6 6.5C6 6.77614 5.77614 7 5.5 7L2.5 7C2.22386 7 2 6.77614 2 6.5C2 6.22386 2.22386 6 2.5 6L5.5 6Z" fill="#1F2328"/>
<path d="M1 13.5C1 13.7761 0.776142 14 0.5 14C0.223858 14 1.95703e-08 13.7761 4.37114e-08 13.5L1.74846e-07 12L1 12L1 13.5Z" fill="#1F2328"/>
<path d="M5.5 7.66663C5.77614 7.66663 6 7.89048 6 8.16663C6 8.44277 5.77614 8.66663 5.5 8.66663L2.5 8.66663C2.22386 8.66663 2 8.44277 2 8.16663C2 7.89048 2.22386 7.66663 2.5 7.66663L5.5 7.66663Z" fill="#1F2328"/>
<circle cx="2.5" cy="10.5" r="0.5" fill="#1F2328"/>
</g>
<defs>
<clipPath id="clip0_0_66">
<rect width="16" height="16" fill="white"/>
</clipPath>
</defs>
</svg>
