<svg xmlns="http://www.w3.org/2000/svg" width="16" height="16" viewBox="0 0 16 16"><path d="M14 8.5a2.5 2.5 0 1 1-5 0 2.5 2.5 0 0 1 5 0ZM11.5 10a1.5 1.5 0 1 0-.001-3.001A1.5 1.5 0 0 0 11.5 10Z"/><path d="M13.188 4q.461 0 .824.285l1.476 1.16.002.002h.001l.393.309-.056.07q.172.293.172.669v5.172Q16 13 14.667 13H0V4ZM1 5v7h13.667Q15 12 15 11.667V6.495q0-.162-.127-.262l.006-.008-.006.008-1.479-1.162Q13.303 5 13.188 5Z"/><path d="M5.5 6a.5.5 0 0 1 0 1h-3a.5.5 0 0 1 0-1ZM1 13.5a.5.5 0 0 1-1 0V12h1Zm4.5-5.833a.5.5 0 1 1 0 1h-3a.5.5 0 0 1 0-1ZM3 10.5a.5.5 0 1 1-1 0 .5.5 0 0 1 1 0Z"/></svg>