<svg width="16" height="16" viewBox="0 0 16 16" xmlns="http://www.w3.org/2000/svg">
  <path fill-rule="evenodd" clip-rule="evenodd" d="M10 13C10.5523 13 11 12.5523 11 12C11 11.4477 10.5523 11 10 11C9.44771 11 9 11.4477 9 12C9 12.5523 9.44772 13 10 13ZM6 13C6.55228 13 7 12.5523 7 12C7 11.4477 6.55228 11 6 11C5.44771 11 5 11.4477 5 12C5 12.5523 5.44771 13 6 13ZM7 8C7 8.55229 6.55228 9 6 9C5.44771 9 5 8.55229 5 8C5 7.44772 5.44771 7 6 7C6.55228 7 7 7.44772 7 8ZM10 9C10.5523 9 11 8.55228 11 8C11 7.44772 10.5523 7 10 7C9.44771 7 9 7.44772 9 8C9 8.55228 9.44771 9 10 9ZM11 4C11 4.55228 10.5523 5 10 5C9.44771 5 9 4.55228 9 4C9 3.44772 9.44771 3 10 3C10.5523 3 11 3.44772 11 4ZM6 5C6.55228 5 7 4.55228 7 4C7 3.44772 6.55228 3 6 3C5.44771 3 5 3.44772 5 4C5 4.55228 5.44771 5 6 5Z"/>
</svg>
