<svg xmlns="http://www.w3.org/2000/svg" width="24" height="24" viewBox="0 0 24 24">
  <defs/>
  <path d="M9,13 C8.448,13 8,12.552 8,12 C8,11.448 8.448,11 9,11 C9.552,11 10,11.448 10,12 C10,12.552 9.552,13 9,13 Z M16,12 C16,12.552 15.552,13 15,13 C14.448,13 14,12.552 14,12 C14,11.448 14.448,11 15,11 C15.552,11 16,11.448 16,12 Z M9,8 C8.448,8 8,7.552 8,7 C8,6.448 8.448,6 9,6 C9.552,6 10,6.448 10,7 C10,7.552 9.552,8 9,8 Z M16,7 C16,7.552 15.552,8 15,8 C14.448,8 14,7.552 14,7 C14,6.448 14.448,6 15,6 C15.552,6 16,6.448 16,7 Z M9,18 C8.448,18 8,17.552 8,17 C8,16.448 8.448,16 9,16 C9.552,16 10,16.448 10,17 C10,17.552 9.552,18 9,18 Z M15,18 C14.448,18 14,17.552 14,17 C14,16.448 14.448,16 15,16 C15.552,16 16,16.448 16,17 C16,17.552 15.552,18 15,18 Z"/>
</svg>

