<svg xmlns="http://www.w3.org/2000/svg" width="16" height="16" viewBox="0 0 16 16">
  <defs/>
  <path d="M10,13 C9.448,13 9,12.552 9,12 C9,11.448 9.448,11 10,11 C10.552,11 11,11.448 11,12 C11,12.552 10.552,13 10,13 Z M10,9 C9.448,9 9,8.552 9,8 C9,7.448 9.448,7 10,7 C10.552,7 11,7.448 11,8 C11,8.552 10.552,9 10,9 Z M6,13 C5.448,13 5,12.552 5,12 C5,11.448 5.448,11 6,11 C6.552,11 7,11.448 7,12 C7,12.552 6.552,13 6,13 Z M11,4 C11,4.552 10.552,5 10,5 C9.448,5 9,4.552 9,4 C9,3.448 9.448,3 10,3 C10.552,3 11,3.448 11,4 Z M7,8 C7,8.552 6.552,9 6,9 C5.448,9 5,8.552 5,8 C5,7.448 5.448,7 6,7 C6.552,7 7,7.448 7,8 Z M6,5 C5.448,5 5,4.552 5,4 C5,3.448 5.448,3 6,3 C6.552,3 7,3.448 7,4 C7,4.552 6.552,5 6,5 Z"/>
</svg>

