<svg xmlns="http://www.w3.org/2000/svg" width="16" height="16" viewBox="0 0 16 16">
  <defs/>
  <path d="M1.5,1.75 L1.5,13.5 L15.25,13.5 C15.664,13.5 16,13.836 16,14.25 C16,14.664 15.664,15 15.25,15 L0.75,15 C0.336,15 0,14.664 0,14.25 L0,1.75 C0,1.336 0.336,1 0.75,1 C1.164,1 1.5,1.336 1.5,1.75 Z M15.78,4.28 L10.53,9.53 C10.237,9.822 9.763,9.822 9.47,9.53 L7,7.06 L4.28,9.78 C3.984,10.055 3.524,10.047 3.238,9.762 C2.953,9.476 2.945,9.016 3.22,8.72 L6.47,5.47 C6.763,5.178 7.237,5.178 7.53,5.47 L10,7.94 L14.72,3.22 C15.016,2.945 15.476,2.953 15.762,3.238 C16.047,3.524 16.055,3.984 15.78,4.28 Z"/>
</svg>

