<svg xmlns="http://www.w3.org/2000/svg" width="24" height="24" viewBox="0 0 24 24"><path d="M21.523 8.68a.775.775 0 0 1 1.227.63v11.94A.75.75 0 0 1 22 22l-.016-.001-.015.001H2.03l-.02-.002-.046-.002-.018-.002a.74.74 0 0 1-.477-.214.75.75 0 0 1 0-1.06l8.482-8.483.059-.052a.775.775 0 0 1 1.037.052L14.5 15.69l6.927-6.927Zm-6.475 8.583a.775.775 0 0 1-1.096 0L10.5 13.81 3.81 20.5h17.44v-9.44ZM21.47 2.47a.75.75 0 1 1 1.06 1.06l-7.482 7.483a.775.775 0 0 1-1.096 0L10.5 7.56l-7.97 7.97a.75.75 0 1 1-1.06-1.061l8.482-8.483.059-.052a.775.775 0 0 1 1.037.052L14.5 9.44Z"/></svg>