<svg xmlns="http://www.w3.org/2000/svg" width="16" height="16" viewBox="0 0 16 16"><path d="M12 12.5a.5.5 0 1 1-1 0 .5.5 0 0 1 1 0ZM3.333 1h9.334C13.403 1 14 1.597 14 2.333V9a.5.5 0 0 1-1 0V2.333A.333.333 0 0 0 12.667 2H3.333A.333.333 0 0 0 3 2.333V9a.5.5 0 0 1-1 0V2.333C2 1.597 2.597 1 3.333 1Z"/><path d="M3.333 10h9.334c.736 0 1.333.597 1.333 1.333V13.5c0 .736-.597 1.333-1.333 1.333H3.333A1.333 1.333 0 0 1 2 13.5v-2.167C2 10.597 2.597 10 3.333 10Zm0 1a.333.333 0 0 0-.333.333V13.5c0 .184.149.333.333.333h9.334A.333.333 0 0 0 13 13.5v-2.167a.333.333 0 0 0-.333-.333Z"/></svg>