<svg width="24" height="24" viewBox="0 0 24 24" xmlns="http://www.w3.org/2000/svg">
  <path fill-rule="evenodd" clip-rule="evenodd" d="M11.6569 20.6669C11.6572 20.6671 11.6574 20.6672 12 20L11.6574 20.6672C11.8724 20.7776 12.1276 20.7776 12.3426 20.6672L12 20C12.3426 20.6672 12.3428 20.6671 12.3431 20.6669L12.3521 20.6623L12.3749 20.6504C12.3943 20.6402 12.4223 20.6254 12.4582 20.6062C12.5301 20.5676 12.6338 20.5112 12.7648 20.4376C13.0268 20.2904 13.3984 20.0744 13.8433 19.7958C14.7316 19.2397 15.9195 18.4294 17.1112 17.4148C19.4486 15.4249 22 12.4805 22 9C22 5.83579 19.4142 3.5 16.75 3.5C14.6927 3.5 13.0272 4.57857 12 6.23441C10.9728 4.57857 9.30732 3.5 7.25 3.5C4.58579 3.5 2 5.83579 2 9C2 12.4805 4.5514 15.4249 6.88882 17.4148C8.08049 18.4294 9.26844 19.2397 10.1567 19.7958C10.6016 20.0744 10.9732 20.2904 11.2352 20.4376C11.3662 20.5112 11.4699 20.5676 11.5418 20.6062C11.5777 20.6254 11.6057 20.6402 11.6251 20.6504L11.6479 20.6623L11.6569 20.6669Z"/>
</svg>
