<svg xmlns="http://www.w3.org/2000/svg" width="16" height="16" viewBox="0 0 16 16">
  <defs/>
  <path d="M0.427,1.927 L1.642,3.142 C3.973,0.092 8.142,-0.873 11.576,0.843 C15.011,2.559 16.742,6.472 15.702,10.168 C14.662,13.864 11.143,16.299 7.318,15.972 C3.492,15.644 0.439,12.646 0.042,8.827 C-0.001,8.415 0.299,8.046 0.711,8.003 C1.124,7.961 1.492,8.261 1.535,8.673 C1.86,11.794 4.369,14.237 7.497,14.48 C10.625,14.722 13.481,12.696 14.284,9.662 C15.086,6.629 13.608,3.455 10.769,2.118 C7.93,0.782 4.542,1.664 2.715,4.215 L4.073,5.573 C4.145,5.645 4.166,5.752 4.127,5.846 C4.089,5.939 3.997,6 3.896,6 L0.25,6 C0.112,6 0,5.888 0,5.75 L0,2.104 C0,2.003 0.061,1.911 0.154,1.873 C0.248,1.834 0.355,1.855 0.427,1.927 Z M7.75,4 C8.164,4 8.5,4.336 8.5,4.75 L8.5,7.742 L10.528,8.554 C10.9,8.716 11.075,9.144 10.925,9.52 C10.774,9.896 10.352,10.085 9.971,9.946 L7.471,8.946 C7.187,8.832 7,8.556 7,8.25 L7,4.75 C7,4.336 7.336,4 7.75,4 Z"/>
</svg>

