<svg xmlns="http://www.w3.org/2000/svg" width="24" height="24" viewBox="0 0 24 24">
  <defs/>
  <path d="M11.998,2.5 A9.503 9.503 0 0 0 3.378,8 L5.75,8 A0.75 0.75 0 0 1 5.75,9.5 L2,9.5 A1 1 0 0 1 1,8.5 L1,4.75 A0.75 0.75 0 0 1 2.5,4.75 L2.5,6.447 A10.997 10.997 0 0 1 11.998,1 C18.074,1 23,5.925 23,12 C23,18.075 18.074,23 11.998,23 C6.014,23 1.146,18.223 1,12.275 A0.75 0.75 0 0 1 2.5,12.238 A9.5 9.5 0 0 0 11.998,21.5 C17.246,21.5 21.5,17.247 21.5,12 C21.5,6.753 17.246,2.5 11.998,2.5 Z"/>
  <path d="M12.5,7.25 A0.75 0.75 0 0 0 11,7.25 L11,12.75 C11,13.02 11.144,13.268 11.378,13.401 L14.878,15.401 A0.75 0.75 0 0 0 15.622,14.099 L12.5,12.315 L12.5,7.25 Z"/>
</svg>

