<svg xmlns="http://www.w3.org/2000/svg" width="24" height="24" viewBox="0 0 24 24">
  <defs/>
  <path d="M11.03,2.59 C11.59,2.116 12.41,2.116 12.97,2.59 L20.47,8.953 C20.806,9.238 21,9.656 21,10.097 L21,19.5 C21,20.328 20.328,21 19.5,21 L13.75,21 C13.336,21 13,20.664 13,20.25 L13,14 L11,14 L11,20.25 C11,20.664 10.664,21 10.25,21 L4.5,21 C3.672,21 3,20.328 3,19.5 L3,10.097 C3,9.657 3.194,9.238 3.53,8.953 Z M12,3.734 L4.5,10.097 L4.5,19.5 L9.5,19.5 L9.5,13.25 C9.5,12.836 9.836,12.5 10.25,12.5 L13.75,12.5 C14.164,12.5 14.5,12.836 14.5,13.25 L14.5,19.5 L19.5,19.5 L19.5,10.097 Z"/>
</svg>

