<svg width="24" height="24" viewBox="0 0 24 24" xmlns="http://www.w3.org/2000/svg">
  <path fill-rule="evenodd" clip-rule="evenodd" d="M11.0295 2.58982C11.5893 2.11484 12.4107 2.11484 12.9705 2.58982L20.4705 8.95345C20.8064 9.23846 21 9.6567 21 10.0972V19.5C21 20.3284 20.3284 21 19.5 21H13.75C13.3358 21 13 20.6642 13 20.25V14H11V20.25C11 20.6642 10.6642 21 10.25 21H4.5C3.67157 21 3 20.3284 3 19.5V10.0972C3 9.6567 3.19364 9.23846 3.52953 8.95345L11.0295 2.58982ZM12 3.73358L4.5 10.0972L4.5 19.5H9.5V13.25C9.5 12.8358 9.83579 12.5 10.25 12.5H13.75C14.1642 12.5 14.5 12.8358 14.5 13.25V19.5H19.5V10.0972L12 3.73358Z"/>
</svg>
