<svg xmlns="http://www.w3.org/2000/svg" width="16" height="16" viewBox="0 0 16 16">
  <defs/>
  <path d="M2.75,1 L13.25,1 C13.664,1 14,1.336 14,1.75 C14,2.164 13.664,2.5 13.25,2.5 L12.5,2.5 L12.5,3.75 C12.5,5.245 11.796,6.653 10.6,7.55 L10.267,7.8 C10.204,7.847 10.167,7.921 10.167,8 C10.167,8.079 10.204,8.153 10.267,8.2 L10.6,8.45 C11.796,9.347 12.5,10.755 12.5,12.25 L12.5,13.5 L13.25,13.5 C13.664,13.5 14,13.836 14,14.25 C14,14.664 13.664,15 13.25,15 L2.75,15 C2.336,15 2,14.664 2,14.25 C2,13.836 2.336,13.5 2.75,13.5 L3.5,13.5 L3.5,12.25 C3.5,10.755 4.204,9.347 5.4,8.45 L5.733,8.2 C5.867,8.1 5.867,7.9 5.733,7.8 L5.4,7.55 C4.204,6.653 3.5,5.245 3.5,3.75 L3.5,2.5 L2.75,2.5 C2.336,2.5 2,2.164 2,1.75 C2,1.336 2.336,1 2.75,1 Z M11,2.5 L5,2.5 L5,3.75 C5,4.773 5.482,5.736 6.3,6.35 L6.633,6.6 C7.567,7.3 7.567,8.7 6.633,9.4 L6.3,9.65 C5.482,10.264 5,11.227 5,12.25 L5,13.5 L11,13.5 L11,12.25 C11,11.227 10.518,10.264 9.7,9.65 L9.367,9.4 C8.926,9.07 8.667,8.551 8.667,8 C8.667,7.449 8.926,6.93 9.367,6.6 L9.7,6.35 C10.518,5.736 11,4.773 11,3.75 Z"/>
</svg>

