<svg xmlns="http://www.w3.org/2000/svg" width="16" height="16" viewBox="0 0 16 16">
  <defs/>
  <path d="M0,8 C0,3.582 3.582,0 8,0 C12.418,0 16,3.582 16,8 L16,13.25 C16,13.664 15.664,14 15.25,14 C14.836,14 14.5,13.664 14.5,13.25 L14.5,8 C14.5,4.41 11.59,1.5 8,1.5 C4.41,1.5 1.5,4.41 1.5,8 L1.5,13.25 C1.5,13.664 1.164,14 0.75,14 C0.336,14 0,13.664 0,13.25 Z M3,6.75 C3,5.784 3.784,5 4.75,5 L11.25,5 C12.216,5 13,5.784 13,6.75 L13,8.25 C13,9.216 12.216,10 11.25,10 L4.75,10 C3.784,10 3,9.216 3,8.25 Z M4.47,6.22 C4.178,6.513 4.178,6.987 4.47,7.28 L5.97,8.78 C6.263,9.072 6.737,9.072 7.03,8.78 L8,7.81 L8.97,8.78 C9.263,9.072 9.737,9.072 10.03,8.78 L11.53,7.28 C11.731,7.093 11.813,6.811 11.745,6.546 C11.678,6.28 11.47,6.072 11.204,6.005 C10.939,5.937 10.657,6.019 10.47,6.22 L9.5,7.19 L8.53,6.22 C8.237,5.928 7.763,5.928 7.47,6.22 L6.5,7.19 L5.53,6.22 C5.237,5.928 4.763,5.928 4.47,6.22 Z M5.5,12.25 C5.5,11.836 5.836,11.5 6.25,11.5 L9.75,11.5 C10.164,11.5 10.5,11.836 10.5,12.25 C10.5,12.664 10.164,13 9.75,13 L6.25,13 C5.836,13 5.5,12.664 5.5,12.25 Z"/>
</svg>

