<svg xmlns="http://www.w3.org/2000/svg" width="16" height="16" viewBox="0 0 16 16">
  <defs/>
  <path d="M16,13.25 C16,14.216 15.216,15 14.25,15 L1.75,15 C0.784,15 0,14.216 0,13.25 L0,2.75 C0,1.784 0.784,1 1.75,1 L14.25,1 C15.216,1 16,1.784 16,2.75 Z M1.75,2.5 C1.612,2.5 1.5,2.612 1.5,2.75 L1.5,13.25 C1.5,13.388 1.612,13.5 1.75,13.5 L2.69,13.5 C2.7,13.49 2.71,13.48 2.72,13.47 L8.797,7.392 C9.457,6.732 10.517,6.706 11.209,7.332 L14.5,10.31 L14.5,2.75 C14.5,2.612 14.388,2.5 14.25,2.5 Z M14.25,13.5 C14.388,13.5 14.5,13.388 14.5,13.25 L14.5,12.333 L10.202,8.444 C10.103,8.355 9.952,8.359 9.858,8.453 L4.81,13.5 Z M7,6 C7,7.105 6.105,8 5,8 C3.895,8 3,7.105 3,6 C3,4.895 3.895,4 5,4 C6.105,4 7,4.895 7,6 Z M5.5,6 C5.5,5.724 5.276,5.5 5,5.5 C4.724,5.5 4.5,5.724 4.5,6 C4.5,6.276 4.724,6.5 5,6.5 C5.276,6.5 5.5,6.276 5.5,6 Z"/>
</svg>

