<svg xmlns="http://www.w3.org/2000/svg" width="24" height="24" viewBox="0 0 24 24">
  <defs/>
  <path d="M4.75,3 L19.25,3 C20.216,3 21,3.784 21,4.75 L21,19.25 C21,20.216 20.216,21 19.25,21 L4.75,21 C3.784,21 3,20.216 3,19.25 L3,4.75 C3,3.784 3.784,3 4.75,3 Z M19.25,4.5 L4.75,4.5 C4.612,4.5 4.5,4.612 4.5,4.75 L4.5,19.25 C4.5,19.388 4.612,19.5 4.75,19.5 L4.94,19.5 L14.763,9.677 C15.446,8.993 16.555,8.993 17.238,9.677 L19.5,11.939 L19.5,4.75 C19.5,4.612 19.388,4.5 19.25,4.5 Z M19.5,14.06 L16.177,10.737 C16.13,10.69 16.066,10.664 16,10.664 C15.934,10.664 15.87,10.69 15.823,10.737 L7.061,19.5 L19.25,19.5 C19.388,19.5 19.5,19.388 19.5,19.25 Z M8.5,11 C7.119,11 6,9.881 6,8.5 C6,7.119 7.119,6 8.5,6 C9.881,6 11,7.119 11,8.5 C11,9.881 9.881,11 8.5,11 Z M8.5,9.5 C9.052,9.5 9.5,9.052 9.5,8.5 C9.5,7.948 9.052,7.5 8.5,7.5 C7.948,7.5 7.5,7.948 7.5,8.5 C7.5,9.052 7.948,9.5 8.5,9.5 Z"/>
</svg>

