<svg xmlns="http://www.w3.org/2000/svg" width="24" height="24" viewBox="0 0 24 24">
  <defs/>
  <path d="M4.801,3.57 C5.075,2.921 5.71,2.5 6.414,2.5 L17.588,2.5 C18.29,2.5 18.925,2.92 19.199,3.567 L22.94,12.395 C22.98,12.487 23,12.587 23,12.688 L23,20.25 C23,21.216 22.216,22 21.25,22 L2.75,22 C1.784,22 1,21.216 1,20.25 L1,12.75 C1,12.65 1.02,12.551 1.059,12.459 L4.8,3.571 Z M6.414,4 C6.314,4 6.223,4.06 6.184,4.153 L2.88,12 L8,12 C8.267,12 8.514,12.142 8.648,12.372 L10.18,15 L13.818,15 L15.351,12.372 C15.484,12.144 15.727,12.003 15.991,12 L21.121,11.949 L17.817,4.152 C17.778,4.06 17.687,4 17.587,4 Z M21.5,13.445 L16.433,13.495 L14.898,16.128 C14.764,16.358 14.517,16.5 14.25,16.5 L9.75,16.5 C9.483,16.5 9.236,16.358 9.102,16.128 L7.57,13.5 L2.5,13.5 L2.5,20.25 C2.5,20.388 2.612,20.5 2.75,20.5 L21.25,20.5 C21.388,20.5 21.5,20.388 21.5,20.25 Z"/>
</svg>

