<svg width="16" height="16" viewBox="0 0 16 16" xmlns="http://www.w3.org/2000/svg">
  <path fill-rule="evenodd" clip-rule="evenodd" d="M2.80089 2.06064C3.07666 1.41719 3.70935 1 4.4094 1H11.5906C12.2907 1 12.9233 1.4172 13.1991 2.06064L15.9394 8.45456C15.9794 8.54792 16 8.64843 16 8.75V13.25C16 14.2165 15.2165 15 14.25 15H1.75C0.783502 15 0 14.2165 0 13.25V8.75C0 8.64843 0.0206308 8.54792 0.0606412 8.45456L2.80089 2.06064ZM4.4094 2.5C4.30939 2.5 4.219 2.5596 4.17961 2.65152L1.8874 8H4.75C4.98607 8 5.20836 8.11115 5.35 8.3L6.625 10H9.375L10.65 8.3C10.7916 8.11115 11.0139 8 11.25 8H14.1126L11.8204 2.65152C11.781 2.5596 11.6906 2.5 11.5906 2.5H4.4094ZM14.5 9.5H11.625L10.35 11.2C10.2084 11.3889 9.98607 11.5 9.75 11.5H6.25C6.01393 11.5 5.79164 11.3889 5.65 11.2L4.375 9.5H1.5V13.25C1.5 13.3881 1.61193 13.5 1.75 13.5H14.25C14.3881 13.5 14.5 13.3881 14.5 13.25V9.5Z"/>
</svg>
