<svg xmlns="http://www.w3.org/2000/svg" width="16" height="16" viewBox="0 0 16 16">
  <defs/>
  <path d="M0,8 C0,3.582 3.582,0 8,0 C12.418,0 16,3.582 16,8 C16,12.418 12.418,16 8,16 C3.582,16 0,12.418 0,8 Z M8,1.5 C4.41,1.5 1.5,4.41 1.5,8 C1.5,11.59 4.41,14.5 8,14.5 C11.59,14.5 14.5,11.59 14.5,8 C14.5,4.41 11.59,1.5 8,1.5 Z M6.5,7.75 C6.5,7.336 6.836,7 7.25,7 L8.25,7 C8.664,7 9,7.336 9,7.75 L9,10.5 L9.25,10.5 C9.664,10.5 10,10.836 10,11.25 C10,11.664 9.664,12 9.25,12 L7.25,12 C6.836,12 6.5,11.664 6.5,11.25 C6.5,10.836 6.836,10.5 7.25,10.5 L7.5,10.5 L7.5,8.5 L7.25,8.5 C6.836,8.5 6.5,8.164 6.5,7.75 Z M8,6 C7.448,6 7,5.552 7,5 C7,4.448 7.448,4 8,4 C8.552,4 9,4.448 9,5 C9,5.552 8.552,6 8,6 Z"/>
</svg>

