<svg width="24" height="24" viewBox="0 0 24 24" fill="none" xmlns="http://www.w3.org/2000/svg">
<path d="M2.5 12C2.5 6.75329 6.75329 2.5 12 2.5C17.2467 2.5 21.5 6.75329 21.5 12C21.5 12.4142 21.8358 12.75 22.25 12.75C22.6642 12.75 23 12.4142 23 12C23 5.92487 18.0751 1 12 1C5.92487 1 1 5.92487 1 12C1 18.0751 5.92487 23 12 23C12.4142 23 12.75 22.6642 12.75 22.25C12.75 21.8358 12.4142 21.5 12 21.5C6.75329 21.5 2.5 17.2467 2.5 12Z" fill="black"/>
<path d="M12 14C13.1046 14 14 13.1046 14 12C14 10.8954 13.1046 10 12 10C10.8954 10 10 10.8954 10 12C10 13.1046 10.8954 14 12 14Z" fill="black"/>
<path d="M14.5 16.75C14.5 16.3358 14.8358 16 15.25 16H22.25C22.6642 16 23 16.3358 23 16.75C23 17.1642 22.6642 17.5 22.25 17.5H15.25C14.8358 17.5 14.5 17.1642 14.5 16.75Z" fill="black"/>
<path d="M18.25 19.5C17.8358 19.5 17.5 19.8358 17.5 20.25C17.5 20.6642 17.8358 21 18.25 21H22.25C22.6642 21 23 20.6642 23 20.25C23 19.8358 22.6642 19.5 22.25 19.5H18.25Z" fill="black"/>
</svg>
