<svg width="24" height="24" viewBox="0 0 24 24" xmlns="http://www.w3.org/2000/svg">
  <path fill-rule="evenodd" clip-rule="evenodd" d="M3.5 12C3.49999 10.2606 4.03362 8.56301 5.02888 7.13645C6.02414 5.70988 7.43311 4.623 9.0656 4.02251C10.6981 3.42202 12.4755 3.33683 14.158 3.77843C15.8404 4.22003 17.3469 5.16717 18.474 6.492C18.5379 6.56699 18.6159 6.62866 18.7036 6.67348C18.7914 6.71831 18.8871 6.74542 18.9852 6.75327C19.0834 6.76112 19.1822 6.74954 19.276 6.71922C19.3697 6.68889 19.4565 6.64039 19.5315 6.5765C19.6065 6.51262 19.6682 6.43459 19.713 6.34686C19.7578 6.25914 19.7849 6.16345 19.7928 6.06526C19.8006 5.96706 19.789 5.86828 19.7587 5.77455C19.7284 5.68082 19.6799 5.59399 19.616 5.519C18.6781 4.41479 17.5109 3.52803 16.1957 2.92034C14.8805 2.31265 13.4488 1.9986 12 2C6.477 2 2 6.47701 2 12C2 17.523 6.477 22 12 22C16.822 22 20.845 18.588 21.79 14.046C21.8133 13.9484 21.8168 13.8471 21.8002 13.7481C21.7837 13.6492 21.7474 13.5545 21.6936 13.4698C21.6398 13.3851 21.5696 13.312 21.487 13.255C21.4045 13.1979 21.3113 13.158 21.2131 13.1376C21.1148 13.1171 21.0135 13.1167 20.915 13.1361C20.8166 13.1556 20.723 13.1946 20.6399 13.2509C20.5569 13.3072 20.4859 13.3795 20.4313 13.4637C20.3767 13.5479 20.3395 13.6422 20.322 13.741C19.8935 15.8016 18.7158 17.63 17.0169 18.8722C15.3179 20.1144 13.2184 20.6821 11.125 20.4655C9.03147 20.2488 7.0928 19.2632 5.68423 17.6993C4.27567 16.1355 3.49737 14.1047 3.5 12V12ZM12 17C12.2652 17 12.5196 16.8946 12.7071 16.7071C12.8946 16.5196 13 16.2652 13 16C13 15.7348 12.8946 15.4804 12.7071 15.2929C12.5196 15.1054 12.2652 15 12 15C11.7348 15 11.4804 15.1054 11.2929 15.2929C11.1054 15.4804 11 15.7348 11 16C11 16.2652 11.1054 16.5196 11.2929 16.7071C11.4804 16.8946 11.7348 17 12 17V17ZM12 7C12.1989 7 12.3897 7.07902 12.5303 7.21967C12.671 7.36033 12.75 7.55109 12.75 7.75V12.25C12.75 12.4489 12.671 12.6397 12.5303 12.7803C12.3897 12.921 12.1989 13 12 13C11.8011 13 11.6103 12.921 11.4697 12.7803C11.329 12.6397 11.25 12.4489 11.25 12.25V7.75C11.25 7.55109 11.329 7.36033 11.4697 7.21967C11.6103 7.07902 11.8011 7 12 7V7ZM18.78 12.28L22.78 8.28C22.9125 8.13783 22.9846 7.94978 22.9812 7.75548C22.9777 7.56118 22.899 7.3758 22.7616 7.23838C22.6242 7.10097 22.4388 7.02226 22.2445 7.01883C22.0502 7.0154 21.8622 7.08752 21.72 7.22L18.25 10.69L16.78 9.22001C16.7113 9.14632 16.6285 9.08722 16.5365 9.04622C16.4445 9.00523 16.3452 8.98319 16.2445 8.98141C16.1438 8.97964 16.0438 8.99816 15.9504 9.03588C15.857 9.0736 15.7722 9.12975 15.701 9.20097C15.6297 9.27219 15.5736 9.35702 15.5359 9.45041C15.4982 9.5438 15.4796 9.64382 15.4814 9.74453C15.4832 9.84523 15.5052 9.94454 15.5462 10.0365C15.5872 10.1285 15.6463 10.2113 15.72 10.28L17.72 12.28C17.8606 12.4205 18.0512 12.4993 18.25 12.4993C18.4488 12.4993 18.6394 12.4205 18.78 12.28V12.28Z"/>
</svg>
