<svg width="16" height="16" viewBox="0 0 16 16" fill="none" xmlns="http://www.w3.org/2000/svg">
<path d="M1.5 8C1.5 4.41015 4.41015 1.5 8 1.5C11.5899 1.5 14.5 4.41015 14.5 8C14.5 8.41421 14.8358 8.75 15.25 8.75C15.6642 8.75 16 8.41421 16 8C16 3.58172 12.4183 0 8 0C3.58172 0 0 3.58172 0 8C0 12.4183 3.58172 16 8 16C8.41421 16 8.75 15.6642 8.75 15.25C8.75 14.8358 8.41421 14.5 8 14.5C4.41015 14.5 1.5 11.5899 1.5 8Z" fill="black"/>
<path d="M8 9.5C8.82843 9.5 9.5 8.82843 9.5 8C9.5 7.17157 8.82843 6.5 8 6.5C7.17157 6.5 6.5 7.17157 6.5 8C6.5 8.82843 7.17157 9.5 8 9.5Z" fill="black"/>
<path d="M11.5732 15.3232L8.67677 12.4268C8.57914 12.3292 8.57914 12.1709 8.67677 12.0732L11.5732 9.1768C11.7307 9.01931 12 9.13085 12 9.35358V11.5H15.25C15.6642 11.5 16 11.8358 16 12.25C16 12.6642 15.6642 13 15.25 13H12V15.1465C12 15.3692 11.7307 15.4807 11.5732 15.3232Z" fill="black"/>
</svg>
