<svg width="16" height="16" viewBox="0 0 16 16" fill="none" xmlns="http://www.w3.org/2000/svg">
<path d="M11.2803 6.78033C11.5732 6.48744 11.5732 6.01256 11.2803 5.71967C10.9874 5.42678 10.5126 5.42678 10.2197 5.71967L7.25 8.68934L5.78033 7.21967C5.48744 6.92678 5.01256 6.92678 4.71967 7.21967C4.42678 7.51256 4.42678 7.98744 4.71967 8.28033L6.71967 10.2803C7.01256 10.5732 7.48744 10.5732 7.78033 10.2803L11.2803 6.78033Z" fill="black"/>
<path fill-rule="evenodd" clip-rule="evenodd" d="M16 8C16 12.4183 12.4183 16 8 16C3.58172 16 0 12.4183 0 8C0 3.58172 3.58172 0 8 0C12.4183 0 16 3.58172 16 8ZM14.5 8C14.5 11.5899 11.5899 14.5 8 14.5C4.41015 14.5 1.5 11.5899 1.5 8C1.5 4.41015 4.41015 1.5 8 1.5C11.5899 1.5 14.5 4.41015 14.5 8Z" fill="black"/>
</svg>
