<svg xmlns="http://www.w3.org/2000/svg" width="24" height="24" viewBox="0 0 24 24"><path d="M7.875 8.198a.75.75 0 011.06 0l3.536 3.536a.75.75 0 010 1.06l-3.31 3.311a.75.75 0 01-1.061-1.06l2.78-2.781-3.005-3.005a.75.75 0 010-1.06z"/><path d="M13.469 8.198a.75.75 0 00-1.061 1.06l3.005 3.006-2.78 2.78a.75.75 0 101.06 1.061l3.311-3.31a.75.75 0 000-1.061L13.47 8.198z"/><path fill-rule="evenodd" d="M1 12C1 5.925 5.925 1 12 1s11 4.925 11 11-4.925 11-11 11S1 18.075 1 12zm11-9.5a9.5 9.5 0 100 19 9.5 9.5 0 000-19z"/></svg>