<svg width="16" height="16" viewBox="0 0 16 16" xmlns="http://www.w3.org/2000/svg">
  <path fill-rule="evenodd" clip-rule="evenodd" d="M8 1.5C6.96656 1.49915 5.94786 1.74507 5.02862 2.2173C4.10938 2.68953 3.31618 3.37442 2.715 4.215L4.073 5.573C4.10805 5.60797 4.13194 5.65255 4.14162 5.70111C4.1513 5.74966 4.14635 5.8 4.12739 5.84573C4.10843 5.89147 4.07632 5.93055 4.03513 5.95801C3.99393 5.98547 3.94551 6.00009 3.896 6H0.25C0.183696 6 0.120108 5.97366 0.0732237 5.92678C0.0263396 5.87989 4.00326e-07 5.8163 4.00326e-07 5.75V2.104C-8.81823e-05 2.05449 0.014526 2.00607 0.0419903 1.96487C0.0694546 1.92368 0.108532 1.89157 0.154269 1.87261C0.200005 1.85365 0.250342 1.8487 0.298896 1.85838C0.34745 1.86806 0.392036 1.89195 0.427 1.927L1.643 3.143C2.61569 1.86946 3.94844 0.917386 5.46856 0.410156C6.98868 -0.0970748 8.6261 -0.136086 10.1687 0.298177C11.7112 0.73244 13.0878 1.61996 14.12 2.84574C15.1523 4.07152 15.7926 5.57905 15.958 7.173C15.9692 7.27149 15.9607 7.37121 15.933 7.46639C15.9054 7.56158 15.8592 7.65035 15.7971 7.72757C15.7349 7.80479 15.6581 7.86893 15.571 7.91627C15.484 7.96362 15.3884 7.99324 15.2898 8.00341C15.1912 8.01359 15.0915 8.00412 14.9966 7.97556C14.9017 7.947 14.8134 7.89991 14.7368 7.83701C14.6602 7.77411 14.5968 7.69665 14.5504 7.60911C14.5039 7.52157 14.4752 7.42569 14.466 7.327C14.2993 5.72818 13.5462 4.24779 12.3521 3.17167C11.158 2.09554 9.60748 1.49999 8 1.5V1.5ZM0.712 8.004C0.909844 7.98388 1.10758 8.04316 1.26173 8.1688C1.41587 8.29444 1.51381 8.47616 1.534 8.674C1.67087 9.98583 2.20351 11.225 3.06121 12.227C3.91892 13.2289 5.06111 13.9463 6.33613 14.2839C7.61115 14.6214 8.95868 14.5632 10.1998 14.1169C11.4409 13.6705 12.517 12.8573 13.285 11.785L11.927 10.427C11.8919 10.392 11.8681 10.3475 11.8584 10.2989C11.8487 10.2503 11.8536 10.2 11.8726 10.1543C11.8916 10.1085 11.9237 10.0695 11.9649 10.042C12.0061 10.0145 12.0545 9.99991 12.104 10H15.75C15.8163 10 15.8799 10.0263 15.9268 10.0732C15.9737 10.1201 16 10.1837 16 10.25V13.896C16.0001 13.9455 15.9855 13.9939 15.958 14.0351C15.9305 14.0763 15.8915 14.1084 15.8457 14.1274C15.8 14.1464 15.7497 14.1513 15.7011 14.1416C15.6525 14.1319 15.608 14.1081 15.573 14.073L14.357 12.857C13.384 14.1301 12.0513 15.0817 10.5313 15.5886C9.01131 16.0955 7.37414 16.1344 5.83181 15.7002C4.28948 15.266 2.91305 14.3787 1.88076 13.1533C0.848479 11.9278 0.207905 10.4207 0.0420004 8.827C0.0318992 8.72896 0.0412212 8.62989 0.0694335 8.53545C0.0976458 8.44102 0.144195 8.35307 0.20642 8.27663C0.268645 8.2002 0.345325 8.13678 0.432076 8.09C0.518827 8.04322 0.613948 8.01399 0.712 8.004V8.004ZM9 11C9 11.2652 8.89464 11.5196 8.70711 11.7071C8.51957 11.8946 8.26522 12 8 12C7.73478 12 7.48043 11.8946 7.29289 11.7071C7.10536 11.5196 7 11.2652 7 11C7 10.7348 7.10536 10.4804 7.29289 10.2929C7.48043 10.1054 7.73478 10 8 10C8.26522 10 8.51957 10.1054 8.70711 10.2929C8.89464 10.4804 9 10.7348 9 11V11ZM8.75 4.75C8.75 4.55109 8.67098 4.36032 8.53033 4.21967C8.38968 4.07902 8.19891 4 8 4C7.80109 4 7.61032 4.07902 7.46967 4.21967C7.32902 4.36032 7.25 4.55109 7.25 4.75V8.25C7.25 8.44891 7.32902 8.63968 7.46967 8.78033C7.61032 8.92098 7.80109 9 8 9C8.19891 9 8.38968 8.92098 8.53033 8.78033C8.67098 8.63968 8.75 8.44891 8.75 8.25V4.75Z"/>
</svg>
