<svg xmlns="http://www.w3.org/2000/svg" width="16" height="16" viewBox="0 0 16 16"><path d="M.427 1.927l1.216 1.216a8.001 8.001 0 0114.315 4.03.75.75 0 01-1.493.154 6.5 6.5 0 00-11.75-3.112l1.358 1.359A.25.25 0 013.896 6H.25A.25.25 0 010 5.75V2.104a.25.25 0 01.427-.177zm1.107 6.746a.75.75 0 10-1.492.154 8.001 8.001 0 0014.315 4.03l1.216 1.216a.25.25 0 00.427-.177V10.25a.25.25 0 00-.25-.25h-3.646a.25.25 0 00-.177.427l1.358 1.358a6.501 6.501 0 01-11.75-3.112z"/><path d="M8 9.5a1.5 1.5 0 100-3 1.5 1.5 0 000 3z"/></svg>