<svg xmlns="http://www.w3.org/2000/svg" width="24" height="24" viewBox="0 0 24 24">
  <defs/>
  <path d="M3.38,8 A9.502 9.502 0 0 1 12,2.5 A9.502 9.502 0 0 1 21.215,9.682 A0.75 0.75 0 1 0 22.671,9.318 C21.473,4.539 17.15,1 12,1 A10.995 10.995 0 0 0 2.5,6.452 L2.5,4.75 A0.75 0.75 0 0 0 1,4.75 L1,8.5 A1 1 0 0 0 2,9.5 L5.75,9.5 A0.75 0.75 0 0 0 5.75,8 L3.38,8 Z M2.785,14.318 A0.75 0.75 0 0 0 1.33,14.682 C2.527,19.461 6.85,23 12,23 C16.052,23 19.592,20.809 21.5,17.549 L21.5,19.25 A0.75 0.75 0 0 0 23,19.25 L23,15.5 A1 1 0 0 0 22,14.5 L18.25,14.5 A0.75 0.75 0 0 0 18.25,16 L20.62,16 A9.502 9.502 0 0 1 12,21.5 C7.554,21.5 3.819,18.445 2.785,14.318 Z"/>
  <path d="M13.414,13.414 A2 2 0 1 1 10.586,10.586 A2 2 0 0 1 13.414,13.414 Z"/>
</svg>

