<svg width="16" height="16" viewBox="0 0 16 16" fill="none" xmlns="http://www.w3.org/2000/svg">
<g clip-path="url(#clip0)">
<path d="M5.02862 2.21736C5.94786 1.74513 6.96656 1.49921 8 1.50006C9.60748 1.50005 11.158 2.0956 12.3521 3.17173C13.5462 4.24785 14.2993 5.72824 14.466 7.32706C14.4752 7.42576 14.5039 7.52163 14.5504 7.60917C14.5968 7.69671 14.6602 7.77417 14.7368 7.83707C14.8134 7.89997 14.9017 7.94706 14.9966 7.97563C15.0915 8.00418 15.1912 8.01366 15.2898 8.00348C15.3884 7.99331 15.484 7.96368 15.571 7.91633C15.6581 7.86899 15.7349 7.80485 15.7971 7.72763C15.8592 7.65041 15.9054 7.56165 15.933 7.46645C15.9607 7.37127 15.9692 7.27155 15.958 7.17306C15.7926 5.57911 15.1523 4.07158 14.12 2.8458C13.0878 1.62002 11.7112 0.732505 10.1687 0.298242C8.6261 -0.136021 6.98868 -0.09701 5.46856 0.410221C3.94844 0.917451 2.61569 1.86952 1.643 3.14306L0.427 1.92706C0.392036 1.89201 0.34745 1.86812 0.298896 1.85844C0.250342 1.84876 0.200005 1.85371 0.154269 1.87267C0.108532 1.89163 0.069455 1.92374 0.0419907 1.96493C0.0145264 2.00613 -8.77856e-05 2.05455 3.96727e-07 2.10406V5.75006C3.96727e-07 5.81636 0.02634 5.87996 0.0732241 5.92685C0.120108 5.97372 0.183696 6.00006 0.25 6.00006H3.896C3.94551 6.00015 3.99393 5.98554 4.03513 5.95808C4.07632 5.93061 4.10843 5.89153 4.12739 5.84579C4.14635 5.80006 4.1513 5.74972 4.14162 5.70117C4.13194 5.65261 4.10805 5.60803 4.073 5.57306L2.715 4.21507C3.31618 3.37449 4.10938 2.68959 5.02862 2.21736Z" fill="#24292E"/>
<path d="M1.26173 8.16887C1.10758 8.04323 0.909844 7.98394 0.712 8.00406C0.613948 8.01405 0.518827 8.04329 0.432076 8.09007C0.345325 8.13684 0.268645 8.20026 0.20642 8.2767C0.144195 8.35314 0.0976462 8.44108 0.0694339 8.53551C0.0412216 8.62996 0.0318996 8.72902 0.0420008 8.82706C0.207905 10.4208 0.848479 11.9279 1.88076 13.1534C2.91305 14.3788 4.28948 15.2661 5.83181 15.7003C7.37414 16.1345 9.01131 16.0956 10.5313 15.5887C12.0513 15.0818 13.384 14.1302 14.357 12.8571L15.573 14.0731C15.608 14.1082 15.6525 14.132 15.7011 14.1417C15.7497 14.1514 15.8 14.1465 15.8457 14.1275C15.8915 14.1085 15.9305 14.0764 15.958 14.0352C15.9855 13.994 16.0001 13.9456 16 13.8961V10.2501C16 10.1838 15.9737 10.1202 15.9268 10.0733C15.8799 10.0264 15.8163 10.0001 15.75 10.0001H12.104C12.0545 9.99998 12.0061 10.0146 11.9649 10.0421C11.9237 10.0696 11.8916 10.1086 11.8726 10.1544C11.8536 10.2001 11.8487 10.2504 11.8584 10.299C11.8681 10.3476 11.8919 10.3921 11.927 10.4271L13.285 11.7851C12.517 12.8574 11.4409 13.6706 10.1998 14.117C8.95868 14.5633 7.61115 14.6215 6.33613 14.284C5.06111 13.9464 3.91892 13.229 3.06121 12.2271C2.20351 11.2251 1.67087 9.9859 1.534 8.67406C1.51381 8.47622 1.41587 8.29451 1.26173 8.16887Z" fill="#24292E"/>
<path d="M9.06066 9.06072C8.77936 9.34203 8.39782 9.50006 8 9.50006C7.60218 9.50006 7.22064 9.34203 6.93934 9.06072C6.65804 8.77942 6.5 8.39789 6.5 8.00006C6.5 7.60224 6.65804 7.22071 6.93934 6.9394C7.22064 6.6581 7.60218 6.50006 8 6.50006C8.39782 6.50006 8.77936 6.6581 9.06066 6.9394C9.34196 7.22071 9.5 7.60224 9.5 8.00006C9.5 8.39789 9.34196 8.77942 9.06066 9.06072Z" fill="#24292E"/>
</g>
<defs>
<clipPath id="clip0">
<rect width="16" height="16" fill="white"/>
</clipPath>
</defs>
</svg>
