<svg xmlns="http://www.w3.org/2000/svg" width="16" height="16" viewBox="0 0 16 16"><path d="M12.001 6a3 3 0 0 1 3 3v1.168c.591.281 1 .884 1 1.582v2.5a1.75 1.75 0 0 1-1.75 1.75h-4.5a1.75 1.75 0 0 1-1.75-1.75v-2.5c0-.698.409-1.301 1-1.582V9a3 3 0 0 1 3-3Zm0 1.5a1.5 1.5 0 0 0-1.5 1.5v1h3V9a1.5 1.5 0 0 0-1.5-1.5Z"/><path d="M5.095.546a8.004 8.004 0 0 1 3.847-.49l.259.035a8.007 8.007 0 0 1 3.58 1.494l.207.16a7.997 7.997 0 0 1 2.148 2.639c.187.369-.005.807-.391.959-.386.152-.817-.04-1.013-.406a6.516 6.516 0 0 0-1.242-1.635l-.11-.105-.052-.046a5.601 5.601 0 0 0-.226-.193l-.049-.04-.042-.031a5.773 5.773 0 0 0-.249-.187l-.082-.057a6.275 6.275 0 0 0-.683-.411l-.028-.014a6.448 6.448 0 0 0-1.146-.458l-.039-.011a6.667 6.667 0 0 0-.376-.095l-.018-.005a6.137 6.137 0 0 0-.409-.075l-.003-.001h-.003l-.015-.002a7.553 7.553 0 0 0-.479-.051 5.582 5.582 0 0 0-.26-.015l-.155-.004L8 1.5c-.056 0-.112.003-.168.004-.054.001-.108.001-.162.004a6.436 6.436 0 0 0-.37.029l-.069.009c-.11.013-.218.029-.325.047l-.079.014a7.31 7.31 0 0 0-.383.082c-.27.066-.533.15-.788.249l-.016.005a6.598 6.598 0 0 0-1.096.553l-.083.053a6.974 6.974 0 0 0-.288.197l-.022.017a6.438 6.438 0 0 0-.609.509l-.064.061c-.082.079-.161.16-.238.243l-.038.039a7.194 7.194 0 0 0-.254.296l-.015.019c-.012.014-.022.029-.033.044a5.793 5.793 0 0 0-.188.249c-.018.025-.037.05-.054.076a6.468 6.468 0 0 0-.89 1.854l-.014.048a7.116 7.116 0 0 0-.084.327l-.02.089a6.429 6.429 0 0 0-.145 1.159l-.003.129L1.5 8c0 .066.003.131.005.196l.003.102a6.898 6.898 0 0 0 .034.434c.014.123.032.245.052.366l.007.034c.148.84.456 1.625.893 2.321l.034.052c.058.09.118.179.18.266l.054.076c.077.104.156.207.239.306l.024.029c.075.089.153.175.232.259l.073.077c.064.065.128.13.195.193.029.028.058.057.088.084a6.601 6.601 0 0 0 .299.259c.062.049.124.098.187.145l.072.052.146.104a6.46 6.46 0 0 0 1.929.904c.399.112.68.492.615.901-.065.409-.45.691-.851.588a8.005 8.005 0 0 1-3.041-1.528l-.202-.169A8.009 8.009 0 0 1 .059 7.03l.036-.259a8.007 8.007 0 0 1 1.507-3.574l.161-.207A8.005 8.005 0 0 1 5.095.546Z"/><path d="M8.001 6.5c.259 0 .511.068.733.192A3.984 3.984 0 0 0 8.001 9v.5a1.503 1.503 0 0 1-1.5-1.5 1.503 1.503 0 0 1 1.5-1.5Z"/></svg>