<svg width="16" height="16" viewBox="0 0 16 16" xmlns="http://www.w3.org/2000/svg">
  <path fill-rule="evenodd" clip-rule="evenodd" d="M1.50001 8C1.49997 6.76578 1.85131 5.55706 2.51296 4.51518C3.1746 3.47331 4.1192 2.64134 5.2363 2.11656C6.35339 1.59179 7.59681 1.39591 8.82113 1.55182C10.0455 1.70774 11.2001 2.209 12.15 2.997C12.3034 3.11947 12.4987 3.1769 12.694 3.15698C12.8893 3.13706 13.069 3.04137 13.1945 2.89045C13.3201 2.73953 13.3814 2.54541 13.3654 2.34976C13.3494 2.15412 13.2574 1.97254 13.109 1.844C11.7815 0.74289 10.1337 0.100288 8.41121 0.0119901C6.68873 -0.0763082 4.98384 0.394426 3.5507 1.35402C2.11755 2.31361 1.0329 3.71067 0.458436 5.33693C-0.116025 6.96318 -0.149533 8.73155 0.36291 10.3784C0.875352 12.0253 1.9063 13.4624 3.30207 14.4756C4.69783 15.4888 6.38366 16.0238 8.10825 16.0008C9.83284 15.9778 11.5038 15.3981 12.8721 14.3481C14.2404 13.298 15.2326 11.8339 15.701 10.174C15.755 9.98251 15.7307 9.77743 15.6334 9.60386C15.5362 9.4303 15.374 9.30247 15.1825 9.2485C14.991 9.19453 14.7859 9.21883 14.6124 9.31607C14.4388 9.41331 14.311 9.57551 14.257 9.767C13.8316 11.2788 12.8732 12.5854 11.5591 13.4454C10.2449 14.3053 8.66385 14.6603 7.1082 14.4449C5.55254 14.2294 4.12751 13.458 3.09656 12.2732C2.06562 11.0885 1.49848 9.57051 1.50001 8V8ZM8.00001 12C8.26523 12 8.51958 11.8946 8.70712 11.7071C8.89466 11.5196 9.00001 11.2652 9.00001 11C9.00001 10.7348 8.89466 10.4804 8.70712 10.2929C8.51958 10.1054 8.26523 10 8.00001 10C7.7348 10 7.48044 10.1054 7.29291 10.2929C7.10537 10.4804 7.00001 10.7348 7.00001 11C7.00001 11.2652 7.10537 11.5196 7.29291 11.7071C7.48044 11.8946 7.7348 12 8.00001 12ZM8.00001 4C8.19893 4 8.38969 4.07902 8.53034 4.21967C8.671 4.36032 8.75001 4.55109 8.75001 4.75V8.25C8.75001 8.44891 8.671 8.63968 8.53034 8.78033C8.38969 8.92098 8.19893 9 8.00001 9C7.8011 9 7.61034 8.92098 7.46968 8.78033C7.32903 8.63968 7.25001 8.44891 7.25001 8.25V4.75C7.25001 4.55109 7.32903 4.36032 7.46968 4.21967C7.61034 4.07902 7.8011 4 8.00001 4ZM12.78 8.28L15.78 5.28C15.9125 5.13782 15.9846 4.94978 15.9812 4.75548C15.9778 4.56118 15.899 4.37579 15.7616 4.23838C15.6242 4.10096 15.4388 4.02225 15.2445 4.01882C15.0502 4.0154 14.8622 4.08752 14.72 4.22L12.25 6.69L11.28 5.72C11.2114 5.64631 11.1286 5.58721 11.0366 5.54622C10.9446 5.50523 10.8452 5.48318 10.7445 5.48141C10.6438 5.47963 10.5438 5.49816 10.4504 5.53588C10.357 5.5736 10.2722 5.62974 10.201 5.70096C10.1298 5.77218 10.0736 5.85701 10.0359 5.9504C9.99817 6.04379 9.97965 6.14382 9.98142 6.24452C9.9832 6.34522 10.0052 6.44454 10.0462 6.53654C10.0872 6.62854 10.1463 6.71134 10.22 6.78L11.72 8.28C11.8606 8.42045 12.0513 8.49934 12.25 8.49934C12.4488 8.49934 12.6394 8.42045 12.78 8.28V8.28Z"/>
</svg>
