<svg xmlns="http://www.w3.org/2000/svg" width="16" height="16" viewBox="0 0 16 16"><path d="M14.307 11.655a.75.75 0 01.165 1.048 8.05 8.05 0 01-1.769 1.77.75.75 0 01-.883-1.214 6.552 6.552 0 001.44-1.439.75.75 0 011.047-.165zm-2.652-9.962a.75.75 0 011.048-.165 8.05 8.05 0 011.77 1.769.75.75 0 01-1.214.883 6.552 6.552 0 00-1.439-1.44.75.75 0 01-.165-1.047zM6.749.097a8.074 8.074 0 012.502 0 .75.75 0 11-.233 1.482 6.558 6.558 0 00-2.036 0A.751.751 0 016.749.097zM.955 6.125a.75.75 0 01.624.857 6.558 6.558 0 000 2.036.75.75 0 11-1.482.233 8.074 8.074 0 010-2.502.75.75 0 01.858-.624zm14.09 0a.75.75 0 01.858.624c.13.829.13 1.673 0 2.502a.75.75 0 11-1.482-.233 6.558 6.558 0 000-2.036.75.75 0 01.624-.857zm-8.92 8.92a.75.75 0 01.857-.624 6.558 6.558 0 002.036 0 .75.75 0 11.233 1.482c-.829.13-1.673.13-2.502 0a.75.75 0 01-.624-.858zm-4.432-3.39a.75.75 0 011.048.165 6.552 6.552 0 001.439 1.44.751.751 0 01-.883 1.212 8.05 8.05 0 01-1.77-1.769.75.75 0 01.166-1.048zm2.652-9.962A.75.75 0 014.18 2.74a6.556 6.556 0 00-1.44 1.44.751.751 0 01-1.212-.883 8.05 8.05 0 011.769-1.77.75.75 0 011.048.166z"/></svg>