<svg width="16" height="16" viewBox="0 0 16 16" fill="none" xmlns="http://www.w3.org/2000/svg">
<path d="M1.5 8C1.5 4.41015 4.41015 1.5 8 1.5C11.5899 1.5 14.5 4.41015 14.5 8C14.5 8.41421 14.8358 8.75 15.25 8.75C15.6642 8.75 16 8.41421 16 8C16 3.58172 12.4183 0 8 0C3.58172 0 0 3.58172 0 8C0 12.4183 3.58172 16 8 16C8.41421 16 8.75 15.6642 8.75 15.25C8.75 14.8358 8.41421 14.5 8 14.5C4.41015 14.5 1.5 11.5899 1.5 8Z" fill="black"/>
<path d="M8 9.5C8.82843 9.5 9.5 8.82843 9.5 8C9.5 7.17157 8.82843 6.5 8 6.5C7.17157 6.5 6.5 7.17157 6.5 8C6.5 8.82843 7.17157 9.5 8 9.5Z" fill="black"/>
<path d="M9.5 11.25C9.5 10.8358 9.83579 10.5 10.25 10.5L15.25 10.5C15.6642 10.5 16 10.8358 16 11.25C16 11.6642 15.6642 12 15.25 12L10.25 12C9.83579 12 9.5 11.6642 9.5 11.25Z" fill="black"/>
<path d="M12.25 13.5C11.8358 13.5 11.5 13.8358 11.5 14.25C11.5 14.6642 11.8358 15 12.25 15H15.25C15.6642 15 16 14.6642 16 14.25C16 13.8358 15.6642 13.5 15.25 13.5H12.25Z" fill="black"/>
</svg>
