<svg xmlns="http://www.w3.org/2000/svg" width="24" height="24" viewBox="0 0 24 24"><path d="M17.32 3.205a.75.75 0 011.046-.177 11.056 11.056 0 012.605 2.606.75.75 0 11-1.222.869 9.554 9.554 0 00-2.252-2.252.75.75 0 01-.177-1.046zm3.475 14.115a.75.75 0 01.176 1.046 11.07 11.07 0 01-2.605 2.605.75.75 0 11-.869-1.222 9.554 9.554 0 002.252-2.252.75.75 0 011.046-.177zM2.018 9.543a.75.75 0 01.615.864 9.571 9.571 0 000 3.186.75.75 0 11-1.48.25 11.07 11.07 0 010-3.686.75.75 0 01.865-.614zm7.525 12.439a.75.75 0 01.864-.615 9.571 9.571 0 003.186 0 .75.75 0 11.25 1.48 11.07 11.07 0 01-3.686 0 .75.75 0 01-.614-.865zM6.68 3.205a.75.75 0 01-.177 1.046A9.558 9.558 0 004.25 6.503a.75.75 0 11-1.223-.87 11.056 11.056 0 012.606-2.605.75.75 0 011.046.177zM3.205 17.32a.75.75 0 011.046.177 9.554 9.554 0 002.252 2.252.75.75 0 11-.87 1.223 11.056 11.056 0 01-2.605-2.606.75.75 0 01.177-1.046zm6.952-16.166a11.07 11.07 0 013.686 0 .75.75 0 01-.25 1.479 9.571 9.571 0 00-3.186 0 .75.75 0 11-.25-1.48zm11.825 8.389a.75.75 0 01.864.614 11.07 11.07 0 010 3.686.75.75 0 01-1.479-.25 9.571 9.571 0 000-3.186.75.75 0 01.615-.864z"/></svg>