<svg width="16" height="16" viewBox="0 0 16 16" fill="none" xmlns="http://www.w3.org/2000/svg">
<path fill-rule="evenodd" clip-rule="evenodd" d="M6.74904 0.0973445C7.15706 0.033222 7.57491 0 8 0C8.42509 0 8.84294 0.0332221 9.25096 0.0973447C9.66016 0.161651 9.93974 0.545496 9.87543 0.954688C9.81113 1.36388 9.42728 1.64346 9.01809 1.57916C8.68682 1.5271 8.34683 1.5 8 1.5C7.65317 1.5 7.31318 1.5271 6.98191 1.57916C6.57272 1.64346 6.18887 1.36388 6.12457 0.954688C6.06026 0.545496 6.33985 0.161651 6.74904 0.0973445ZM4.34472 1.69284C4.58846 2.02775 4.51455 2.49684 4.17965 2.74058C3.62809 3.14199 3.14199 3.62809 2.74058 4.17965C2.49684 4.51455 2.02775 4.58846 1.69284 4.34472C1.35793 4.10098 1.28402 3.63189 1.52776 3.29699C2.02132 2.61882 2.61882 2.02132 3.29699 1.52776C3.63189 1.28402 4.10098 1.35793 4.34472 1.69284ZM11.6553 1.69284C11.899 1.35793 12.3681 1.28402 12.703 1.52776C13.3812 2.02132 13.9787 2.61882 14.4722 3.29699C14.716 3.63189 14.6421 4.10098 14.3072 4.34472C13.9723 4.58846 13.5032 4.51455 13.2594 4.17965C12.858 3.62809 12.3719 3.14199 11.8204 2.74058C11.4854 2.49684 11.4115 2.02775 11.6553 1.69284ZM0.954688 6.12457C1.36388 6.18887 1.64346 6.57272 1.57916 6.98191C1.5271 7.31318 1.5 7.65317 1.5 8C1.5 8.34683 1.5271 8.68682 1.57916 9.01809C1.64346 9.42728 1.36388 9.81113 0.954688 9.87543C0.545496 9.93974 0.161651 9.66015 0.0973445 9.25096C0.033222 8.84294 0 8.42509 0 8C0 7.57491 0.0332221 7.15706 0.0973447 6.74904C0.161651 6.33984 0.545496 6.06026 0.954688 6.12457ZM15.0453 6.12457C15.4545 6.06026 15.8383 6.33985 15.9027 6.74904C15.9668 7.15706 16 7.57491 16 8C16 8.42509 15.9668 8.84294 15.9027 9.25096C15.8383 9.66016 15.4545 9.93974 15.0453 9.87543C14.6361 9.81113 14.3565 9.42728 14.4208 9.01809C14.4729 8.68682 14.5 8.34683 14.5 8C14.5 7.65317 14.4729 7.31318 14.4208 6.98191C14.3565 6.57272 14.6361 6.18887 15.0453 6.12457ZM1.69284 11.6553C2.02775 11.4115 2.49684 11.4854 2.74058 11.8204C3.14199 12.3719 3.62809 12.858 4.17965 13.2594C4.51455 13.5032 4.58846 13.9723 4.34472 14.3072C4.10098 14.6421 3.63189 14.716 3.29699 14.4722C2.61882 13.9787 2.02132 13.3812 1.52776 12.703C1.28402 12.3681 1.35793 11.899 1.69284 11.6553ZM14.3072 11.6553C14.6421 11.899 14.716 12.3681 14.4722 12.703C13.9787 13.3812 13.3812 13.9787 12.703 14.4722C12.3681 14.716 11.899 14.6421 11.6553 14.3072C11.4115 13.9723 11.4854 13.5032 11.8204 13.2594C12.3719 12.858 12.858 12.3719 13.2594 11.8204C13.5032 11.4854 13.9723 11.4115 14.3072 11.6553ZM6.12457 15.0453C6.18887 14.6361 6.57272 14.3565 6.98191 14.4208C7.31318 14.4729 7.65317 14.5 8 14.5C8.34683 14.5 8.68682 14.4729 9.01809 14.4208C9.42728 14.3565 9.81113 14.6361 9.87543 15.0453C9.93974 15.4545 9.66015 15.8383 9.25096 15.9027C8.84294 15.9668 8.42509 16 8 16C7.57491 16 7.15706 15.9668 6.74904 15.9027C6.33984 15.8383 6.06026 15.4545 6.12457 15.0453Z" fill="black"/>
</svg>
