<svg width="24" height="24" viewBox="0 0 24 24" fill="none" xmlns="http://www.w3.org/2000/svg">
<path d="M2.5 10.5C2.5 6.08172 6.08172 2.5 10.5 2.5C14.9183 2.5 18.5 6.08172 18.5 10.5C18.5 10.9142 18.8358 11.25 19.25 11.25C19.6642 11.25 20 10.9142 20 10.5C20 5.25329 15.7467 1 10.5 1C5.25329 1 1 5.25329 1 10.5C1 15.7467 5.25329 20 10.5 20H21.4394L18.7197 22.7197C18.4268 23.0126 18.4268 23.4874 18.7197 23.7803C19.0126 24.0732 19.4875 24.0732 19.7804 23.7803L23.5152 20.0455C23.9546 19.6062 23.9546 18.8938 23.5152 18.4545L19.7804 14.7197C19.4875 14.4268 19.0126 14.4268 18.7197 14.7197C18.4268 15.0126 18.4268 15.4874 18.7197 15.7803L21.4394 18.5H10.5C6.08172 18.5 2.5 14.9183 2.5 10.5Z" fill="black"/>
</svg>
