<svg xmlns="http://www.w3.org/2000/svg" width="16" height="16" viewBox="0 0 16 16"><path d="M10.5 0a5.499 5.499 0 11-1.288 10.848l-.932.932a.749.749 0 01-.53.22H7v.75a.749.749 0 01-.22.53l-.5.5a.749.749 0 01-.53.22H5v.75a.749.749 0 01-.22.53l-.5.5a.749.749 0 01-.53.22h-2A1.75 1.75 0 010 14.25v-2c0-.199.079-.389.22-.53l4.932-4.932A5.5 5.5 0 0110.5 0zm-4 5.5c-.001.431.069.86.205 1.269a.75.75 0 01-.181.768L1.5 12.56v1.69c0 .138.112.25.25.25h1.69l.06-.06v-1.19a.75.75 0 01.75-.75h1.19l.06-.06v-1.19a.75.75 0 01.75-.75h1.19l1.023-1.025a.75.75 0 01.768-.18A4 4 0 106.5 5.5zM11 6a1 1 0 110-2 1 1 0 010 2z"/></svg>