<svg xmlns="http://www.w3.org/2000/svg" width="16" height="16" viewBox="0 0 16 16"><path fill-rule="evenodd" d="M0 2.75A2.75 2.75 0 012.75 0h10.5A2.75 2.75 0 0116 2.75v10.5A2.75 2.75 0 0113.25 16H2.75A2.75 2.75 0 010 13.25V2.75zM2.75 1.5c-.69 0-1.25.56-1.25 1.25v10.5c0 .69.56 1.25 1.25 1.25h10.5c.69 0 1.25-.56 1.25-1.25V2.75c0-.69-.56-1.25-1.25-1.25H2.75z"/><path d="M8 4a.75.75 0 01.75.75V6.7l1.69-.975a.75.75 0 01.75 1.3L9.5 8l1.69.976a.75.75 0 01-.75 1.298L8.75 9.3v1.951a.75.75 0 01-1.5 0V9.299l-1.69.976a.75.75 0 01-.75-1.3L6.5 8l-1.69-.975a.75.75 0 01.75-1.3l1.69.976V4.75A.75.75 0 018 4z"/></svg>