<svg xmlns="http://www.w3.org/2000/svg" width="16" height="16" viewBox="0 0 16 16"><path d="M10.5 0a5.5 5.5 0 1 1-1.288 10.848l-.932.932a.747.747 0 0 1-.53.22H7v.75c0 .199-.079.39-.22.53l-.5.5a.747.747 0 0 1-.53.22H5v.75c0 .199-.079.39-.22.53l-.5.5a.747.747 0 0 1-.53.22h-2A1.75 1.75 0 0 1 0 14.25v-2c0-.199.079-.39.22-.53l4.932-4.932A5.5 5.5 0 0 1 10.5 0Zm-4 5.5c0 .445.072.871.205 1.269a.75.75 0 0 1-.181.768L1.5 12.561v1.689c0 .138.112.25.25.25h1.689l.061-.061V13.25a.75.75 0 0 1 .75-.75h1.189l.061-.061V11.25a.75.75 0 0 1 .75-.75h1.189l1.024-1.024a.75.75 0 0 1 .768-.181A4 4 0 1 0 6.5 5.5ZM11 6a1 1 0 1 1 0-2 1 1 0 0 1 0 2Z"/></svg>