<svg width="24" height="24" viewBox="0 0 24 24" xmlns="http://www.w3.org/2000/svg">
  <path fill-rule="evenodd" clip-rule="evenodd" d="M9.5 9C9.5 5.96243 11.9624 3.5 15 3.5C18.0376 3.5 20.5 5.96243 20.5 9C20.5 12.0376 18.0376 14.5 15 14.5C14.3411 14.5 13.7108 14.3845 13.1272 14.1732C12.8536 14.0741 12.5474 14.1422 12.3416 14.348L11.2626 15.427C11.2157 15.4739 11.1521 15.5002 11.0858 15.5002H10.25C9.2835 15.5002 8.5 16.2837 8.5 17.2502V18.0002H7.25C6.2835 18.0002 5.5 18.7837 5.5 19.7502V20.2502C5.5 20.3883 5.38807 20.5002 5.25 20.5002H3.75C3.61193 20.5002 3.5 20.3883 3.5 20.2502V17.9145C3.5 17.8482 3.52634 17.7846 3.57322 17.7377L3.04289 17.2074L3.57322 17.7377L9.65211 11.6588C9.85791 11.453 9.92607 11.1467 9.82696 10.8731C9.61559 10.2894 9.5 9.65905 9.5 9ZM15 2C11.134 2 8 5.13401 8 9C8 9.66571 8.09314 10.3107 8.26741 10.9222L2.51256 16.677C2.18437 17.0052 2 17.4503 2 17.9145V20.2502C2 21.2167 2.7835 22.0002 3.75 22.0002H5.25C6.2165 22.0002 7 21.2167 7 20.2502V19.7502C7 19.6122 7.11193 19.5002 7.25 19.5002H8.82322C9.13532 19.5002 9.43464 19.3763 9.65533 19.1556C9.87602 18.9349 10 18.6356 10 18.3235V17.2502C10 17.1122 10.1119 17.0002 10.25 17.0002H11.0858C11.5499 17.0002 11.995 16.8159 12.3232 16.4877L13.0782 15.7327C13.6895 15.9069 14.3344 16 15 16C18.866 16 22 12.866 22 9C22 5.13401 18.866 2 15 2ZM16 9C16.5523 9 17 8.55228 17 8C17 7.44772 16.5523 7 16 7C15.4477 7 15 7.44772 15 8C15 8.55228 15.4477 9 16 9Z"/>
</svg>
