<svg width="24" height="24" viewBox="0 0 24 24" xmlns="http://www.w3.org/2000/svg">
  <path fill-rule="evenodd" clip-rule="evenodd" d="M12.75 3.25C12.75 2.83579 12.4142 2.5 12 2.5C11.5858 2.5 11.25 2.83579 11.25 3.25V5H9.58333C9.20468 5 8.83624 5.12281 8.53333 5.35L7.06666 6.45C7.02339 6.48246 6.97075 6.5 6.91666 6.5H3.24999C2.83578 6.5 2.49999 6.83579 2.49999 7.25C2.49999 7.66421 2.83578 8 3.24999 8H4.67808L1.56561 14.9432C1.42441 15.2582 1.51643 15.6289 1.78854 15.8412L2.24953 15.2506C1.78854 15.8412 1.78876 15.8414 1.78898 15.8416L1.78946 15.842L1.7905 15.8428L1.79295 15.8447L1.7993 15.8495L1.81777 15.8634C1.83263 15.8744 1.85256 15.8889 1.87744 15.9064C1.92716 15.9414 1.99677 15.9884 2.08512 16.0433C2.26155 16.1529 2.51428 16.2951 2.83386 16.4361C3.47188 16.7177 4.38812 17 5.49999 17C6.61186 17 7.5281 16.7177 8.16612 16.4361C8.4857 16.2951 8.73843 16.1529 8.91486 16.0433C9.00321 15.9884 9.07282 15.9414 9.12255 15.9064C9.14742 15.8889 9.16736 15.8744 9.18221 15.8634L9.20068 15.8495L9.20703 15.8447L9.20948 15.8428L9.21052 15.842L9.211 15.8416C9.21122 15.8414 9.21144 15.8412 8.74999 15.25L9.21144 15.8412C9.48355 15.6289 9.57557 15.2582 9.43437 14.9432L6.3219 8H6.91666C7.29531 8 7.66374 7.87719 7.96666 7.65L9.43333 6.55C9.4766 6.51754 9.52923 6.5 9.58333 6.5H11.25V19.5H7.24999C6.83578 19.5 6.49999 19.8358 6.49999 20.25C6.49999 20.6642 6.83578 21 7.24999 21H16.75C17.1642 21 17.5 20.6642 17.5 20.25C17.5 19.8358 17.1642 19.5 16.75 19.5H12.75V6.5H14.4167C14.4708 6.5 14.5234 6.51754 14.5667 6.55L16.0333 7.65C16.3362 7.87719 16.7047 8 17.0833 8H17.6781L14.5656 14.9432C14.4244 15.2582 14.5164 15.6289 14.7885 15.8412L15.25 15.25C14.7885 15.8412 14.7888 15.8414 14.789 15.8416L14.7905 15.8428L14.793 15.8447L14.7993 15.8495L14.8178 15.8634C14.8326 15.8744 14.8526 15.8889 14.8774 15.9064C14.9272 15.9414 14.9968 15.9884 15.0851 16.0433C15.2615 16.1529 15.5143 16.2951 15.8339 16.4361C16.4719 16.7177 17.3881 17 18.5 17C19.6119 17 20.5281 16.7177 21.1661 16.4361C21.4857 16.2951 21.7384 16.1529 21.9149 16.0433C22.0032 15.9884 22.0728 15.9414 22.1225 15.9064C22.1474 15.8889 22.1674 15.8744 22.1822 15.8634L22.2007 15.8495L22.207 15.8447L22.2095 15.8428L22.211 15.8416C22.2112 15.8414 22.2114 15.8412 21.75 15.25L22.2114 15.8412C22.4836 15.6289 22.5756 15.2582 22.4344 14.9432L19.3219 8H20.75C21.1642 8 21.5 7.66421 21.5 7.25C21.5 6.83579 21.1642 6.5 20.75 6.5H17.0833C17.0292 6.5 16.9766 6.48246 16.9333 6.45L15.4667 5.35C15.1637 5.12281 14.7953 5 14.4167 5H12.75V3.25ZM3.20506 14.953C3.27632 14.989 3.35461 15.0264 3.43956 15.0639C3.93435 15.2823 4.64311 15.5 5.49999 15.5C6.35687 15.5 7.06563 15.2823 7.56043 15.0639C7.64537 15.0264 7.72366 14.989 7.79492 14.953L5.49999 9.83349L3.20506 14.953ZM16.2051 14.953C16.2763 14.989 16.3546 15.0264 16.4396 15.0639C16.9344 15.2823 17.6431 15.5 18.5 15.5C19.3569 15.5 20.0656 15.2823 20.5604 15.0639C20.6454 15.0264 20.7237 14.989 20.7949 14.953L18.5 9.83349L16.2051 14.953Z"/>
</svg>
