<svg width="16" height="16" viewBox="0 0 16 16" xmlns="http://www.w3.org/2000/svg">
  <path fill-rule="evenodd" clip-rule="evenodd" d="M4 5.5C4 3.35458 5.4649 1.5 8 1.5C10.5351 1.5 12 3.35458 12 5.5C12 6.75902 11.4901 7.59845 10.8897 8.43907C10.8299 8.52285 10.7669 8.60887 10.7022 8.69728C10.2423 9.32592 9.69393 10.0754 9.54123 11H6.45877C6.30607 10.0754 5.75773 9.32592 5.29777 8.69728L5.29766 8.69713C5.23301 8.60878 5.17011 8.52281 5.1103 8.43907C4.50986 7.59845 4 6.75902 4 5.5ZM6.5 12.5V13C6.5 13.8284 7.17156 14.5 8 14.5C8.82843 14.5 9.5 13.8284 9.5 13V12.5H6.5ZM8 0C4.5351 0 2.5 2.6313 2.5 5.5C2.5 7.24098 3.24014 8.40155 3.8897 9.31093C3.94693 9.39105 4.00229 9.4681 4.05572 9.54245C4.64684 10.3651 5 10.8566 5 11.5V13C5 14.6569 6.34316 16 8 16C9.65685 16 11 14.6569 11 13V11.5C11 10.8566 11.3532 10.3651 11.9443 9.54245L11.9444 9.54232C11.9978 9.46801 12.0531 9.391 12.1103 9.31093C12.7599 8.40155 13.5 7.24098 13.5 5.5C13.5 2.6313 11.4649 0 8 0Z"/>
</svg>
