<svg width="24" height="24" viewBox="0 0 24 24" xmlns="http://www.w3.org/2000/svg">
  <path fill-rule="evenodd" clip-rule="evenodd" d="M11.8502 0.75C6.90098 0.75 4 4.49108 4 8.60024C4 11.109 5.19257 12.8056 6.26419 14.1685C6.37933 14.3149 6.49142 14.4556 6.60005 14.5919C7.01124 15.1078 7.37273 15.5613 7.66115 16.0306C8.01366 16.6042 8.20755 17.1285 8.20755 17.6886V18.8599C8.20755 20.8725 9.8393 22.5 11.8502 22.5C13.8612 22.5 15.4929 20.8725 15.4929 18.8599V17.6886C15.4929 17.1291 15.6868 16.6049 16.0393 16.0314C16.3276 15.5623 16.689 15.1089 17.1 14.5932C17.2087 14.4567 17.321 14.3158 17.4363 14.1691C18.508 12.806 19.7005 11.109 19.7005 8.60024C19.7005 4.49108 16.7995 0.75 11.8502 0.75ZM5.5 8.60024C5.5 5.21436 7.83078 2.25 11.8502 2.25C15.8697 2.25 18.2005 5.21436 18.2005 8.60024C18.2005 10.5758 17.2892 11.9292 16.2571 13.2421C16.159 13.3669 16.0582 13.4932 15.9564 13.6208C15.5383 14.1448 15.1026 14.6909 14.7614 15.2459C14.5224 15.6348 14.3146 16.0502 14.1756 16.5H9.52503C9.38603 16.0499 9.17823 15.6343 8.93909 15.2452C8.59778 14.6898 8.16186 14.1436 7.74365 13.6195C7.64201 13.4921 7.54129 13.3659 7.44336 13.2414C6.41121 11.9286 5.5 10.5758 5.5 8.60024ZM9.70755 18V18.8599C9.70755 20.0424 10.666 21 11.8502 21C13.0345 21 13.9929 20.0424 13.9929 18.8599V18H9.70755Z"/>
</svg>
