<svg xmlns="http://www.w3.org/2000/svg" width="24" height="24" viewBox="0 0 24 24">
  <defs/>
  <path d="M15.5,2.25 A0.75 0.75 0 0 1 16.25,1.5 L21.75,1.5 A0.75 0.75 0 0 1 22.5,2.25 L22.5,7.75 A0.75 0.75 0 0 1 21,7.75 L21,4.06 L14.78,10.28 A0.75 0.75 0 1 1 13.72,9.22 L19.94,3 L16.25,3 A0.75 0.75 0 0 1 15.5,2.25 Z"/>
  <path d="M2.5,4.25 C2.5,3.284 3.284,2.5 4.25,2.5 L12.75,2.5 A0.75 0.75 0 0 1 12.75,4 L4.25,4 A0.25 0.25 0 0 0 4,4.25 L4,19.75 C4,19.888 4.112,20 4.25,20 L19.75,20 A0.25 0.25 0 0 0 20,19.75 L20,11.25 A0.75 0.75 0 0 1 21.5,11.25 L21.5,19.75 A1.75 1.75 0 0 1 19.75,21.5 L4.25,21.5 A1.75 1.75 0 0 1 2.5,19.75 L2.5,4.25 Z"/>
</svg>

