<svg xmlns="http://www.w3.org/2000/svg" width="24" height="24" viewBox="0 0 24 24">
  <defs/>
  <path d="M14.78,3.653 A3.936 3.936 0 1 1 20.347,9.22 L16.72,12.847 A3.936 3.936 0 0 1 10.84,12.494 A0.75 0.75 0 0 0 9.66,13.422 A5.436 5.436 0 0 0 17.78,13.908 L21.408,10.28 A5.436 5.436 0 1 0 13.72,2.592 L10.72,5.592 A0.75 0.75 0 0 0 11.78,6.653 L14.78,3.653 Z"/>
  <path d="M7.28,11.153 A3.936 3.936 0 0 1 13.16,11.506 A0.75 0.75 0 0 0 14.34,10.578 A5.436 5.436 0 0 0 6.22,10.092 L2.592,13.72 A5.436 5.436 0 1 0 10.28,21.408 L13.28,18.408 A0.75 0.75 0 1 0 12.22,17.348 L9.22,20.348 A3.936 3.936 0 0 1 3.653,14.78 L7.28,11.153 Z"/>
</svg>

