<svg width="24" height="24" viewBox="0 0 24 24" xmlns="http://www.w3.org/2000/svg">
  <path d="M14.7804 3.65291C16.3176 2.1157 18.8099 2.1157 20.3471 3.65291C21.8843 5.19013 21.8843 7.68245 20.3471 9.21967L16.7197 12.8471C15.1825 14.3843 12.6902 14.3843 11.1529 12.8471C11.0399 12.7341 10.9354 12.6162 10.8394 12.4941C10.5831 12.1686 10.1116 12.1125 9.78613 12.3687C9.46066 12.6249 9.40451 13.0964 9.66071 13.4219C9.79339 13.5904 9.93727 13.7527 10.0923 13.9077C12.2153 16.0308 15.6574 16.0308 17.7804 13.9077L21.4078 10.2803C23.5308 8.15733 23.5308 4.71526 21.4078 2.59225C19.2848 0.469249 15.8427 0.469249 13.7197 2.59225L10.7197 5.59229C10.4268 5.88518 10.4268 6.36006 10.7197 6.65295C11.0126 6.94584 11.4874 6.94584 11.7803 6.65295L14.7804 3.65291Z"/>
  <path d="M7.28033 11.1529C8.81755 9.6157 11.3099 9.6157 12.8471 11.1529C12.9601 11.266 13.0647 11.3839 13.1607 11.5059C13.4169 11.8313 13.8884 11.8875 14.2139 11.6313C14.5394 11.3751 14.5955 10.9035 14.3393 10.578C14.2066 10.4095 14.0627 10.2472 13.9077 10.0923C11.7847 7.96925 8.34267 7.96925 6.21967 10.0923L2.59225 13.7197C0.469249 15.8427 0.469249 19.2847 2.59225 21.4077C4.71526 23.5308 8.15733 23.5308 10.2803 21.4077L13.2803 18.4077C13.5732 18.1149 13.5732 17.64 13.2803 17.3471C12.9874 17.0542 12.5126 17.0542 12.2197 17.3471L9.21967 20.3471C7.68245 21.8843 5.19013 21.8843 3.65291 20.3471C2.1157 18.8099 2.1157 16.3175 3.65291 14.7803L7.28033 11.1529Z"/>
</svg>
