<svg width="16" height="16" viewBox="0 0 16 16" xmlns="http://www.w3.org/2000/svg">
  <path fill-rule="evenodd" clip-rule="evenodd" d="M10.6036 1H14.75C14.8881 1 15 1.11193 15 1.25V5.39645C15 5.61917 14.7307 5.73072 14.5732 5.57322L13.0303 4.03033L9.28033 7.78033C8.98744 8.07322 8.51256 8.07322 8.21967 7.78033C7.92678 7.48744 7.92678 7.01256 8.21967 6.71967L11.9697 2.96967L10.4268 1.42678C10.2693 1.26929 10.3808 1 10.6036 1ZM3.75 2C2.7835 2 2 2.7835 2 3.75V12.25C2 13.2165 2.7835 14 3.75 14H12.25C13.2165 14 14 13.2165 14 12.25V8.75C14 8.33579 13.6642 8 13.25 8C12.8358 8 12.5 8.33579 12.5 8.75V12.25C12.5 12.3881 12.3881 12.5 12.25 12.5H3.75C3.61193 12.5 3.5 12.3881 3.5 12.25V3.75C3.5 3.61193 3.61193 3.5 3.75 3.5H7.25C7.66421 3.5 8 3.16421 8 2.75C8 2.33579 7.66421 2 7.25 2H3.75Z"/>
</svg>
