<svg xmlns="http://www.w3.org/2000/svg" width="16" height="16" viewBox="0 0 16 16"><path fill-rule="evenodd" d="M9.6036 1H13.75C13.8881 1 14 1.11193 14 1.25V5.39645C14 5.61917 13.7307 5.73072 13.5732 5.57322L12.0303 4.03033L8.28033 7.78033C7.98744 8.07322 7.51256 8.07322 7.21967 7.78033C6.92678 7.48744 6.92678 7.01256 7.21967 6.71967L10.9697 2.96967L9.4268 1.42678C9.2693 1.26929 9.3808 1 9.6036 1ZM2.75 2C1.7835 2 1 2.7835 1 3.75V12.25C1 13.2165 1.7835 14 2.75 14H11.25C12.2165 14 13 13.2165 13 12.25V8.75C13 8.33579 12.6642 8 12.25 8C11.8358 8 11.5 8.33579 11.5 8.75V12.25C11.5 12.3881 11.3881 12.5 11.25 12.5H2.75C2.61193 12.5 2.5 12.3881 2.5 12.25V3.75C2.5 3.61193 2.61193 3.5 2.75 3.5H6.25C6.66421 3.5 7 3.16421 7 2.75C7 2.33579 6.66421 2 6.25 2H2.75Z"/></svg>
