<svg xmlns="http://www.w3.org/2000/svg" width="24" height="24" viewBox="0 0 24 24">
  <defs/>
  <path d="M8.75,5.5 L20.25,5.5 C20.664,5.5 21,5.836 21,6.25 C21,6.664 20.664,7 20.25,7 L8.75,7 C8.336,7 8,6.664 8,6.25 C8,5.836 8.336,5.5 8.75,5.5 Z M8.75,11.5 L20.25,11.5 C20.664,11.5 21,11.836 21,12.25 C21,12.664 20.664,13 20.25,13 L8.75,13 C8.336,13 8,12.664 8,12.25 C8,11.836 8.336,11.5 8.75,11.5 Z M8.75,17.5 L20.25,17.5 C20.664,17.5 21,17.836 21,18.25 C21,18.664 20.664,19 20.25,19 L8.75,19 C8.336,19 8,18.664 8,18.25 C8,17.836 8.336,17.5 8.75,17.5 Z M5,12 C5,12.552 4.552,13 4,13 C3.448,13 3,12.552 3,12 C3,11.448 3.448,11 4,11 C4.552,11 5,11.448 5,12 Z M4,7 C3.448,7 3,6.552 3,6 C3,5.448 3.448,5 4,5 C4.552,5 5,5.448 5,6 C5,6.552 4.552,7 4,7 Z M4,19 C3.448,19 3,18.552 3,18 C3,17.448 3.448,17 4,17 C4.552,17 5,17.448 5,18 C5,18.552 4.552,19 4,19 Z"/>
</svg>

