<svg xmlns="http://www.w3.org/2000/svg" width="16" height="16" viewBox="0 0 16 16">
  <defs/>
  <path d="M5.75,2.5 L14.25,2.5 C14.664,2.5 15,2.836 15,3.25 C15,3.664 14.664,4 14.25,4 L5.75,4 C5.336,4 5,3.664 5,3.25 C5,2.836 5.336,2.5 5.75,2.5 Z M5.75,7.5 L14.25,7.5 C14.664,7.5 15,7.836 15,8.25 C15,8.664 14.664,9 14.25,9 L5.75,9 C5.336,9 5,8.664 5,8.25 C5,7.836 5.336,7.5 5.75,7.5 Z M5.75,12.5 L14.25,12.5 C14.664,12.5 15,12.836 15,13.25 C15,13.664 14.664,14 14.25,14 L5.75,14 C5.336,14 5,13.664 5,13.25 C5,12.836 5.336,12.5 5.75,12.5 Z M2,14 C1.448,14 1,13.552 1,13 C1,12.448 1.448,12 2,12 C2.552,12 3,12.448 3,13 C3,13.552 2.552,14 2,14 Z M3,8 C3,8.552 2.552,9 2,9 C1.448,9 1,8.552 1,8 C1,7.448 1.448,7 2,7 C2.552,7 3,7.448 3,8 Z M2,4 C1.448,4 1,3.552 1,3 C1,2.448 1.448,2 2,2 C2.552,2 3,2.448 3,3 C3,3.552 2.552,4 2,4 Z"/>
</svg>

