<svg width="16" height="16" viewBox="0 0 16 16" xmlns="http://www.w3.org/2000/svg">
  <path fill-rule="evenodd" clip-rule="evenodd" d="M2 4C2.55228 4 3 3.55228 3 3C3 2.44772 2.55228 2 2 2C1.44772 2 1 2.44772 1 3C1 3.55228 1.44772 4 2 4ZM5.75 2.5C5.33579 2.5 5 2.83579 5 3.25C5 3.66421 5.33579 4 5.75 4H14.25C14.6642 4 15 3.66421 15 3.25C15 2.83579 14.6642 2.5 14.25 2.5H5.75ZM5.75 7.5C5.33579 7.5 5 7.83579 5 8.25C5 8.66421 5.33579 9 5.75 9H14.25C14.6642 9 15 8.66421 15 8.25C15 7.83579 14.6642 7.5 14.25 7.5H5.75ZM5.75 12.5C5.33579 12.5 5 12.8358 5 13.25C5 13.6642 5.33579 14 5.75 14H14.25C14.6642 14 15 13.6642 15 13.25C15 12.8358 14.6642 12.5 14.25 12.5H5.75ZM3 8C3 8.55228 2.55228 9 2 9C1.44772 9 1 8.55228 1 8C1 7.44772 1.44772 7 2 7C2.55228 7 3 7.44772 3 8ZM2 14C2.55228 14 3 13.5523 3 13C3 12.4477 2.55228 12 2 12C1.44772 12 1 12.4477 1 13C1 13.5523 1.44772 14 2 14Z"/>
</svg>
