<svg xmlns="http://www.w3.org/2000/svg" width="68" height="16" viewBox="0 0 68 16"><path d="M24.606 2.058c2.796 0 4.485 1.194 5.024 3.204l-2.505.597c-.305-1.092-1.179-1.689-2.519-1.689-1.995 0-3.072 1.31-3.072 3.8s1.048 3.83 3.014 3.83c1.656 0 2.699-.931 2.861-2.534h-3.065V7.169h5.592v1.326c0 3.48-2.024 5.417-5.432 5.417-3.378 0-5.504-2.316-5.504-5.942s2.17-5.912 5.606-5.912m28.553 8.373c0 1.005.452 1.558 1.311 1.558.99 0 1.747-.917 1.747-2.169V5.509h2.316v8.184h-2.316V12.31c-.436.888-1.485 1.529-2.606 1.529-1.791 0-2.767-.99-2.767-2.796V5.509h2.315zm8.896-3.422c.472-.99 1.535-1.689 2.607-1.689 2.233 0 3.413 1.544 3.334 4.267.079 2.694-1.145 4.252-3.334 4.252-1.116 0-2.135-.641-2.621-1.558v1.412H59.74V2.277h2.315Zm1.791.248c-.956 0-1.713.932-1.791 2.213v.131c.078 1.325.835 2.301 1.791 2.301 1.2 0 1.855-.888 1.777-2.315.078-1.442-.577-2.33-1.777-2.33M33.11 13.693h-2.3V5.509h2.3zm4.636-8.184h1.703v1.923h-1.703v3.713c0 .451.204.626.655.626h1.048v1.922h-1.878c-1.529 0-2.126-.655-2.126-2.039V7.432h-1.456V5.509h1.456v-1.63l2.301-.539zm5.15-3.232v4.63h4.339v-4.63h2.476v11.416h-2.476V9.121h-4.339v4.572H40.42V2.277zM31.96 2a1.35 1.35 0 0 1 1.369 1.369 1.35 1.35 0 0 1-1.369 1.369 1.35 1.35 0 0 1-1.369-1.369A1.35 1.35 0 0 1 31.96 2M6.766 11.328c-2.063-.25-3.516-1.734-3.516-3.656 0-.781.281-1.625.75-2.188-.203-.515-.172-1.609.062-2.062.626-.078 1.469.25 1.969.703.594-.187 1.219-.281 1.985-.281.765 0 1.39.094 1.953.265.484-.437 1.343-.765 1.969-.687.218.422.25 1.516.046 2.047.5.593.766 1.39.766 2.203 0 1.922-1.453 3.375-3.547 3.64.531.344.891 1.094.891 1.954v1.625c0 .468.39.734.859.547C13.781 14.359 16 11.531 16 8.031 16 3.609 12.406 0 7.984 0S0 3.609 0 8.031a7.88 7.88 0 0 0 5.172 7.422c.422.156.828-.125.828-.547v-1.25c-.219.094-.5.156-.75.156-1.031 0-1.641-.562-2.078-1.609-.172-.422-.36-.672-.719-.719-.187-.015-.25-.093-.25-.187 0-.188.313-.328.625-.328.453 0 .844.281 1.25.859.313.453.641.656 1.031.656.391 0 .641-.14 1-.5.266-.265.469-.5.657-.656"/></svg>