<svg xmlns="http://www.w3.org/2000/svg" width="103" height="24" viewBox="0 0 103 24"><path d="M36.472 3.088c4.225 0 6.777 1.805 7.591 4.841l-3.784.902c-.462-1.65-1.783-2.552-3.807-2.552-3.015 0-4.643 1.98-4.643 5.743s1.584 5.787 4.555 5.787c2.502 0 4.079-1.406 4.323-3.829h-4.631v-3.168h8.45v2.002c0 5.26-3.059 8.186-8.208 8.186C31.213 21 28 17.501 28 12.022c0-5.48 3.279-8.934 8.472-8.934M79.62 15.741c0 1.518.682 2.355 1.98 2.355 1.497 0 2.64-1.387 2.64-3.28V8.304h3.5V20.67h-3.5v-2.09c-.66 1.342-2.244 2.31-3.938 2.31-2.707 0-4.181-1.496-4.181-4.225V8.303h3.499Zm13.443-5.171C93.775 9.073 95.38 8.017 97 8.017c3.375 0 5.158 2.333 5.039 6.448.119 4.07-1.73 6.425-5.039 6.425-1.686 0-3.226-.968-3.96-2.355v2.135h-3.477V3.418h3.499Zm2.706.374c-1.444 0-2.588 1.408-2.707 3.345v.198c.119 2.002 1.263 3.476 2.707 3.476 1.813 0 2.803-1.342 2.685-3.498.118-2.179-.872-3.521-2.685-3.521M49.323 20.67h-3.477V8.303h3.477Zm7.004-12.367h2.575v2.905h-2.575v5.611c0 .682.308.946.99.946h1.585v2.905h-2.839c-2.31 0-3.212-.99-3.212-3.08v-6.382H50.65V8.303h2.2V5.84l3.477-.814Zm7.783-4.885v6.998h6.558V3.418h3.74V20.67h-3.74v-6.91H64.11v6.91h-3.74V3.418ZM47.584 3c1.167 0 2.069.902 2.069 2.069a2.04 2.04 0 0 1-2.069 2.068 2.04 2.04 0 0 1-2.068-2.068c0-1.167.902-2.069 2.068-2.069M10.226 17.284c-2.965-.36-5.054-2.493-5.054-5.256 0-1.123.404-2.336 1.078-3.144-.292-.741-.247-2.314.09-2.965.898-.112 2.111.36 2.83 1.01.853-.269 1.752-.404 2.853-.404 1.1 0 1.999.135 2.807.382.696-.629 1.932-1.1 2.83-.988.315.606.36 2.179.067 2.942.72.854 1.101 2 1.101 3.167 0 2.763-2.089 4.852-5.098 5.234.763.494 1.28 1.572 1.28 2.807v2.336c0 .674.561 1.056 1.235.786 4.066-1.55 7.255-5.615 7.255-10.646C23.5 6.188 18.334 1 11.978 1 5.62 1 .5 6.188.5 12.545c0 4.986 3.167 9.12 7.435 10.669.606.225 1.19-.18 1.19-.786V20.63a2.9 2.9 0 0 1-1.078.224c-1.483 0-2.359-.808-2.987-2.313-.247-.607-.517-.966-1.034-1.033-.27-.023-.359-.135-.359-.27 0-.27.45-.471.898-.471.652 0 1.213.404 1.797 1.235.45.651.921.943 1.483.943.561 0 .92-.202 1.437-.719.382-.381.674-.718.944-.943"/></svg>