<svg xmlns="http://www.w3.org/2000/svg" width="103" height="24" viewBox="0 0 103 24"><path d="M36.472 3.088c4.225 0 6.777 1.805 7.591 4.841l-3.784.902c-.462-1.65-1.783-2.552-3.807-2.552-3.015 0-4.643 1.98-4.643 5.743s1.584 5.787 4.555 5.787c2.502 0 4.079-1.406 4.323-3.829h-4.631v-3.168h8.45v2.002c0 5.259-3.059 8.186-8.208 8.186C31.213 21 28 17.501 28 12.022s3.279-8.934 8.472-8.934M79.62 15.741c0 1.518.682 2.355 1.98 2.355 1.497 0 2.641-1.387 2.641-3.279V8.303h3.499V20.67h-3.499v-2.091c-.66 1.343-2.245 2.311-3.939 2.311-2.707 0-4.181-1.496-4.181-4.225V8.303h3.499zm13.442-5.171c.713-1.497 2.319-2.553 3.94-2.553 3.374 0 5.157 2.333 5.038 6.448.119 4.07-1.73 6.425-5.038 6.425-1.687 0-3.227-.968-3.961-2.355v2.135h-3.477V3.418h3.498Zm2.707.374c-1.444 0-2.588 1.408-2.707 3.345v.198c.119 2.002 1.263 3.476 2.707 3.476 1.813 0 2.803-1.342 2.685-3.498.118-2.179-.872-3.521-2.685-3.521M49.323 20.67h-3.477V8.303h3.477zm7.004-12.367h2.575v2.905h-2.575v5.611c0 .682.308.946.991.946h1.584v2.905h-2.839c-2.31 0-3.212-.99-3.212-3.081v-6.381H50.65V8.303h2.201V5.839l3.476-.814zm7.783-4.885v6.998h6.558V3.418h3.74V20.67h-3.74v-6.909H64.11v6.909h-3.741V3.418zM47.584 3c1.167 0 2.069.902 2.069 2.069a2.04 2.04 0 0 1-2.069 2.068 2.04 2.04 0 0 1-2.068-2.068c0-1.167.902-2.069 2.068-2.069M10.226 17.284c-2.965-.359-5.054-2.493-5.054-5.256 0-1.123.404-2.336 1.078-3.144-.292-.741-.247-2.314.09-2.965.898-.112 2.111.359 2.83 1.011.853-.27 1.752-.405 2.853-.405 1.1 0 1.998.135 2.807.382.696-.629 1.932-1.1 2.83-.988.315.606.36 2.179.067 2.942.719.854 1.101 1.999 1.101 3.167 0 2.763-2.089 4.852-5.099 5.234.764.494 1.281 1.572 1.281 2.807v2.336c0 .674.561 1.056 1.235.786 4.066-1.549 7.255-5.615 7.255-10.646C23.5 6.188 18.334 1 11.977 1S.5 6.188.5 12.545c0 4.986 3.167 9.119 7.435 10.669.606.225 1.19-.18 1.19-.786v-1.797a2.9 2.9 0 0 1-1.078.224c-1.483 0-2.359-.808-2.987-2.313-.248-.606-.517-.966-1.034-1.033-.269-.023-.359-.135-.359-.27 0-.269.449-.471.898-.471.652 0 1.213.404 1.797 1.235.45.651.921.943 1.483.943.561 0 .921-.202 1.437-.719.382-.381.674-.718.944-.943"/></svg>