<svg xmlns="http://www.w3.org/2000/svg" width="25" height="16" viewBox="0 0 25 16">
  <defs/>
  <path d="M4.7,8.73 L4.7,7.73 L8.22,7.73 L8.22,13.42 C7.44,13.79 6.27,14.06 4.63,14.06 C1.11,14.06 0,11.37 0,8.03 C0,4.69 1.13,2 4.63,2 C6.25,2 7.27,2.33 7.91,2.66 L7.91,3.71 C6.69,3.21 5.91,2.98 4.63,2.98 C2.06,2.98 1.15,5.19 1.15,8.04 C1.15,10.89 2.06,13.09 4.62,13.09 C5.51,13.09 6.6,13.02 7.15,12.75 L7.15,8.73 Z M15.68,9.42 L15.71,9.42 C17.93,9.62 18.46,10.37 18.46,11.65 C18.46,12.86 17.7,14.06 15.32,14.06 C14.57,14.06 13.49,13.87 12.99,13.67 L12.99,12.73 C13.46,12.9 14.21,13.09 15.32,13.09 C16.94,13.09 17.38,12.4 17.38,11.67 C17.38,10.96 17.16,10.46 15.61,10.33 C13.35,10.13 12.88,9.33 12.88,8.25 C12.88,7.14 13.6,5.94 15.8,5.94 C16.53,5.94 17.36,6.03 18.05,6.33 L18.05,7.27 C17.44,7.07 16.83,6.91 15.78,6.91 C14.23,6.91 13.9,7.48 13.9,8.25 C13.9,8.94 14.18,9.29 15.68,9.42 Z M24.26,6.09 L24.26,6.94 L21.84,6.94 L21.84,11.81 C21.84,12.76 22.37,13.15 23.34,13.15 C23.54,13.15 23.76,13.15 23.95,13.12 L23.95,14.01 C23.78,14.04 23.45,14.06 23.26,14.06 C21.95,14.06 20.76,13.46 20.76,11.93 L20.76,6.93 L19.2,6.93 L19.2,6.45 L20.76,6.01 L20.76,3.9 L21.84,3.59 L21.84,6.09 L24.26,6.09 Z M11.09,6.06 L11.09,12.47 C11.09,13.01 11.28,13.17 11.76,13.17 L11.76,14.06 C10.62,14.06 10.04,13.59 10.04,12.34 L10.04,6.06 L11.09,6.06 Z M11.34,3.73 C11.34,4.17 11,4.51 10.56,4.51 C10.12,4.51 9.79,4.17 9.79,3.73 C9.79,3.29 10.11,2.95 10.56,2.95 C11.01,2.95 11.34,3.29 11.34,3.73 Z"/>
</svg>

