<svg width="25" height="16" viewBox="0 0 25 16" fill="none" xmlns="http://www.w3.org/2000/svg">
<path fill-rule="evenodd" clip-rule="evenodd" d="M4.7 8.73H7.15V12.75C6.6 13.02 5.51 13.09 4.62 13.09C2.06 13.09 1.15 10.89 1.15 8.04C1.15 5.19 2.06 2.98 4.63 2.98C5.91 2.98 6.69 3.21 7.91 3.71V2.66C7.27 2.33 6.25 2 4.63 2C1.13 2 0 4.69 0 8.03C0 11.37 1.11 14.06 4.63 14.06C6.27 14.06 7.44 13.79 8.22 13.42V7.73H4.7V8.73ZM11.09 12.45V6.06H10.04V12.34C10.04 13.59 10.62 14.06 11.76 14.06V13.17C11.28 13.17 11.09 13.01 11.09 12.47V12.45ZM11.34 3.73001C11.34 3.29001 11.01 2.95001 10.56 2.95001C10.11 2.95001 9.79 3.29001 9.79 3.73001C9.79 4.17001 10.12 4.51001 10.56 4.51001C11 4.51001 11.34 4.17001 11.34 3.73001ZM15.68 9.42C14.18 9.29 13.9 8.94 13.9 8.25C13.9 7.48 14.23 6.91 15.78 6.91C16.83 6.91 17.44 7.07 18.05 7.27V6.33C17.36 6.03 16.53 5.94 15.8 5.94C13.6 5.94 12.88 7.14 12.88 8.25C12.88 9.33 13.35 10.13 15.61 10.33C17.16 10.46 17.38 10.96 17.38 11.67C17.38 12.4 16.94 13.09 15.32 13.09C14.21 13.09 13.46 12.9 12.99 12.73V13.67C13.49 13.87 14.57 14.06 15.32 14.06C17.7 14.06 18.46 12.86 18.46 11.65C18.46 10.37 17.93 9.62 15.71 9.42H15.69H15.68ZM24.26 6.95003V6.09003H21.84V3.59003L20.76 3.90003V6.01003L19.2 6.45003V6.93003H20.76V11.93C20.76 13.46 21.95 14.06 23.26 14.06C23.45 14.06 23.78 14.04 23.95 14.01V13.12C23.76 13.15 23.54 13.15 23.34 13.15C22.37 13.15 21.84 12.76 21.84 11.81V6.94003H24.26V6.96003V6.95003Z" fill="#1B1F23"/>
</svg>
