<svg xmlns="http://www.w3.org/2000/svg" width="49" height="16" viewBox="0 0 49 16"><path d="M5.606 2.058c2.796 0 4.485 1.194 5.024 3.204l-2.505.597C7.82 4.767 6.946 4.17 5.606 4.17c-1.995 0-3.072 1.31-3.072 3.8s1.048 3.83 3.014 3.83c1.656 0 2.699-.931 2.861-2.534H5.344V7.169h5.592v1.326c0 3.48-2.024 5.417-5.432 5.417C2.126 13.912 0 11.596 0 7.97s2.17-5.912 5.606-5.912m28.553 8.373c0 1.005.452 1.558 1.311 1.558.99 0 1.747-.917 1.747-2.169V5.509h2.316v8.184h-2.316V12.31c-.436.888-1.485 1.529-2.606 1.529-1.791 0-2.767-.99-2.767-2.796V5.509h2.315zm8.896-3.422c.472-.99 1.535-1.689 2.607-1.689 2.233 0 3.413 1.544 3.334 4.267.079 2.694-1.145 4.252-3.334 4.252-1.116 0-2.135-.641-2.621-1.558v1.412H40.74V2.277h2.315Zm1.791.248c-.956 0-1.713.932-1.791 2.213v.131c.078 1.325.835 2.301 1.791 2.301 1.2 0 1.855-.888 1.777-2.315.078-1.442-.577-2.33-1.777-2.33M14.11 13.693h-2.3V5.509h2.3zm4.636-8.184h1.703v1.923h-1.703v3.713c0 .451.204.626.655.626h1.048v1.922h-1.878c-1.529 0-2.126-.655-2.126-2.039V7.432h-1.456V5.509h1.456v-1.63l2.301-.539zm5.15-3.232v4.63h4.339v-4.63h2.476v11.416h-2.476V9.121h-4.339v4.572H21.42V2.277zM12.96 2a1.35 1.35 0 0 1 1.369 1.369 1.35 1.35 0 0 1-1.369 1.369 1.35 1.35 0 0 1-1.369-1.369A1.35 1.35 0 0 1 12.96 2"/></svg>