<svg xmlns="http://www.w3.org/2000/svg" width="68" height="24" viewBox="0 0 68 24"><path d="M16.442 19.707V8.714h3.204v10.993h-3.204Zm9.469 0c-2.129 0-2.96-.881-2.96-2.739v-5.672h-2.028V8.714h2.028V6.523l3.203-.723v2.914h2.372v2.582h-2.372v4.988c0 .606.284.841.912.841h1.46v2.582h-2.615Zm22.18.195c-2.494 0-3.852-1.33-3.852-3.755V8.714h3.223v6.611c0 1.35.629 2.093 1.825 2.093 1.379 0 2.433-1.232 2.433-2.914v-5.79h3.223v10.993H51.72v-1.859c-.609 1.194-2.068 2.054-3.629 2.054Zm15.266 0c-1.662 0-3.081-.86-3.649-2.093v1.898h-3.203V4.372h3.223v6.357c.548-1.33 2.027-2.269 3.629-2.269 3.001 0 4.643 2.073 4.643 5.731 0 3.618-1.703 5.711-4.643 5.711Zm-1.135-2.601c1.561 0 2.473-1.193 2.473-3.11 0-1.937-.912-3.13-2.473-3.13-1.44 0-2.494 1.252-2.494 2.973v.176c0 1.78 1.054 3.091 2.494 3.091ZM39.312 4.372v6.22H33.27v-6.22h-3.447v15.335h3.447v-6.142h6.042v6.142h3.446V4.372h-3.446ZM7.664 20C2.96 20 0 16.89 0 12.02c0-4.871 3.021-7.942 7.806-7.942 3.892 0 6.244 1.604 6.994 4.303l-3.487.802c-.426-1.467-1.642-2.269-3.507-2.269-2.778 0-4.278 1.761-4.278 5.106 0 3.344 1.459 5.144 4.197 5.144 2.514 0 4.014-1.487 4.014-4.01v-.587l.892 1.193h-5.19v-2.816h7.785v1.78c0 4.674-2.818 7.276-7.562 7.276Zm10.38-12.323c1.075 0 1.906-.802 1.906-1.838C19.95 4.802 19.119 4 18.044 4c-1.074 0-1.906.802-1.906 1.839 0 1.036.832 1.838 1.906 1.838Z"/></svg>