<svg width="16" height="16" viewBox="0 0 16 16" xmlns="http://www.w3.org/2000/svg">
  <path fill-rule="evenodd" clip-rule="evenodd" d="M1.75 2C0.783502 2 4.3447e-09 2.7835 4.3447e-09 3.75V4.48577C-0.000162957 4.49479 -0.000162567 4.50381 4.3447e-09 4.51282V12.25C4.3447e-09 13.2165 0.783501 14 1.75 14H14.25C15.2165 14 16 13.2165 16 12.25V4.51265C16.0002 4.50376 16.0002 4.49485 16 4.48594V3.75C16 2.7835 15.2165 2 14.25 2H1.75ZM14.5 4.07029V3.75C14.5 3.61193 14.3881 3.5 14.25 3.5H1.75C1.61193 3.5 1.5 3.61193 1.5 3.75V4.07029L8 7.88063L14.5 4.07029ZM1.5 5.80902V12.25C1.5 12.3881 1.61193 12.5 1.75 12.5H14.25C14.3881 12.5 14.5 12.3881 14.5 12.25V5.80902L8.37929 9.39702C8.14507 9.53432 7.85493 9.53432 7.62071 9.39702L1.5 5.80902Z"/>
</svg>
