<svg xmlns="http://www.w3.org/2000/svg" width="16" height="16" viewBox="0 0 16 16">
  <defs/>
  <path d="M1.75,2 L14.25,2 C15.216,2 16,2.784 16,3.75 L16,12.25 C16,13.216 15.216,14 14.25,14 L1.75,14 C0.784,14 0,13.216 0,12.25 L0,4.513 C0,4.504 0,4.495 0,4.486 L0,3.75 C0,2.784 0.784,2 1.75,2 Z M1.5,12.251 C1.5,12.389 1.612,12.501 1.75,12.501 L14.25,12.501 C14.388,12.501 14.5,12.389 14.5,12.251 L14.5,5.809 L8.38,9.397 C8.145,9.535 7.855,9.535 7.62,9.397 L1.5,5.809 L1.5,12.251 Z M14.5,4.07 L14.5,3.75 C14.5,3.612 14.388,3.5 14.25,3.5 L1.75,3.5 C1.612,3.5 1.5,3.612 1.5,3.75 L1.5,4.07 L8,7.88 Z"/>
</svg>

