<svg xmlns="http://www.w3.org/2000/svg" width="16" height="16" viewBox="0 0 16 16"><path d="M6.766 11.328c-2.063-.25-3.516-1.734-3.516-3.656 0-.781.281-1.625.75-2.188-.203-.515-.172-1.609.062-2.062.626-.078 1.469.25 1.969.703.594-.187 1.219-.281 1.985-.281.765 0 1.39.094 1.953.265.484-.437 1.343-.765 1.969-.687.218.422.25 1.516.046 2.047.5.593.766 1.39.766 2.203 0 1.922-1.453 3.375-3.547 3.64.531.344.891 1.094.891 1.954v1.625c0 .468.39.734.859.547C13.781 14.359 16 11.531 16 8.031 16 3.609 12.406 0 7.984 0S0 3.609 0 8.031a7.88 7.88 0 0 0 5.172 7.422c.422.156.828-.125.828-.547v-1.25c-.219.094-.5.156-.75.156-1.031 0-1.641-.562-2.078-1.609-.172-.422-.36-.672-.719-.719-.187-.015-.25-.093-.25-.187 0-.188.313-.328.625-.328.453 0 .844.281 1.25.859.313.453.641.656 1.031.656.391 0 .641-.14 1-.5.266-.265.469-.5.657-.656"/></svg>