<svg width="25" height="24" viewBox="0 0 25 24" fill="none" xmlns="http://www.w3.org/2000/svg">
<path fill-rule="evenodd" clip-rule="evenodd" d="M22.7887 4.5H2.22606C1.28048 4.5 0.5 5.28048 0.5 6.22606V17.7682C0.5 18.7288 1.28048 19.5092 2.22606 19.5092H22.7737C23.7343 19.5092 24.4998 18.7288 24.4998 17.7832V6.22606C24.5148 5.28048 23.7343 4.5 22.7887 4.5ZM14.008 16.507H11.0062V12.0042L8.75476 14.886L6.50338 12.0042V16.507H3.50153V7.50143H6.50338L8.75476 10.5033L11.0062 7.50143H14.008V16.507ZM18.4966 17.2574L14.7593 12.0042H17.0107V7.50143H20.0126V12.0042H22.264L18.4966 17.2574Z" fill="#1F2328"/>
</svg>
