<svg xmlns="http://www.w3.org/2000/svg" width="16" height="16" viewBox="0 0 16 16">
  <defs/>
  <path d="M8,0 C12.42,0 16,3.58 16,8 C15.999,11.437 13.806,14.491 10.55,15.59 C10.15,15.67 10,15.42 10,15.21 C10,14.94 10.01,14.08 10.01,13.01 C10.01,12.26 9.76,11.78 9.47,11.53 C11.25,11.33 13.12,10.65 13.12,7.58 C13.12,6.7 12.81,5.99 12.3,5.43 C12.38,5.23 12.66,4.41 12.22,3.31 C12.22,3.31 11.55,3.09 10.02,4.13 C9.38,3.95 8.7,3.86 8.02,3.86 C7.34,3.86 6.66,3.95 6.02,4.13 C4.49,3.1 3.82,3.31 3.82,3.31 C3.38,4.41 3.66,5.23 3.74,5.43 C3.23,5.99 2.92,6.71 2.92,7.58 C2.92,10.64 4.78,11.33 6.56,11.53 C6.33,11.73 6.12,12.08 6.05,12.6 C5.59,12.81 4.44,13.15 3.72,11.94 C3.57,11.7 3.12,11.11 2.49,11.12 C1.82,11.13 2.22,11.5 2.5,11.65 C2.84,11.84 3.23,12.55 3.32,12.78 C3.48,13.23 4,14.09 6.01,13.72 C6.01,14.39 6.02,15.02 6.02,15.21 C6.02,15.42 5.87,15.66 5.47,15.59 C2.29,14.53 0,11.54 0,8 C0,3.58 3.58,0 8,0 Z"/>
</svg>

