<svg xmlns="http://www.w3.org/2000/svg" width="24" height="24" viewBox="0 0 24 24"><path d="M10.226 17.284c-2.965-.359-5.054-2.493-5.054-5.256 0-1.123.404-2.336 1.078-3.144-.292-.741-.247-2.314.09-2.965.898-.112 2.111.359 2.83 1.011.853-.27 1.752-.405 2.853-.405 1.1 0 1.998.135 2.807.382.696-.629 1.932-1.1 2.83-.988.315.606.36 2.179.067 2.942.719.854 1.101 1.999 1.101 3.167 0 2.763-2.089 4.852-5.099 5.234.764.494 1.281 1.572 1.281 2.807v2.336c0 .674.561 1.056 1.235.786 4.066-1.549 7.255-5.615 7.255-10.646C23.5 6.188 18.334 1 11.977 1S.5 6.188.5 12.545c0 4.986 3.167 9.119 7.435 10.669.606.225 1.19-.18 1.19-.786v-1.797a2.9 2.9 0 0 1-1.078.224c-1.483 0-2.359-.808-2.987-2.313-.248-.606-.517-.966-1.034-1.033-.269-.023-.359-.135-.359-.27 0-.269.449-.471.898-.471.652 0 1.213.404 1.797 1.235.45.651.921.943 1.483.943.561 0 .921-.202 1.437-.719.382-.381.674-.718.944-.943"/></svg>