<svg xmlns="http://www.w3.org/2000/svg" width="24" height="24" viewBox="0 0 24 24">
  <path fill-rule="evenodd"
    d="M22.289 4.5H1.726C0.78 4.5 0 5.28 0 6.226V17.768C0 18.728 0.78 19.509 1.726 19.509H22.274C23.234 19.509 24 18.729 24 17.783V6.226C24.0016 6.00016 23.9585 5.77623 23.8733 5.56709C23.788 5.35795 23.6623 5.16771 23.5033 5.00732C23.3443 4.84692 23.1552 4.71954 22.9468 4.63247C22.7384 4.54541 22.5148 4.50039 22.289 4.5ZM13.508 16.507H10.506V12.004L8.255 14.886L6.003 12.004V16.507H3.002V7.501H6.003L8.255 10.503L10.506 7.501H13.508V16.507ZM17.997 17.257L14.259 12.004H16.511V7.501H19.513V12.004H21.764L17.997 17.257Z" />
</svg>