<svg width="16" height="16" viewBox="0 0 16 16" fill="none" xmlns="http://www.w3.org/2000/svg">
<path d="M6.13672 8.80273C6.42964 8.51017 6.90448 8.50995 7.19727 8.80273C7.49005 9.09552 7.48983 9.57036 7.19727 9.86328L3.81055 13.25H6C6.41421 13.25 6.75 13.5858 6.75 14C6.75 14.4142 6.41421 14.75 6 14.75H2C1.58579 14.75 1.25 14.4142 1.25 14V10C1.25 9.58579 1.58579 9.25 2 9.25C2.41421 9.25 2.75 9.58579 2.75 10V12.1895L6.13672 8.80273ZM14.75 6C14.75 6.41421 14.4142 6.75 14 6.75C13.5858 6.75 13.25 6.41421 13.25 6V3.81055L9.86328 7.19727C9.57036 7.48983 9.09552 7.49005 8.80273 7.19727C8.50995 6.90448 8.51017 6.42964 8.80273 6.13672L12.1895 2.75H10C9.58579 2.75 9.25 2.41421 9.25 2C9.25 1.58579 9.58579 1.25 10 1.25H14C14.4142 1.25 14.75 1.58579 14.75 2V6Z" fill="black"/>
</svg>
