<svg width="24" height="24" viewBox="0 0 24 24" xmlns="http://www.w3.org/2000/svg">
  <path fill-rule="evenodd" clip-rule="evenodd" d="M7.75 4.639C5.81364 5.77418 4.40489 7.62918 3.83118 9.79919C3.25746 11.9692 3.56535 14.2781 4.68766 16.2219C5.80998 18.1657 7.65559 19.5868 9.82175 20.1749C11.9879 20.763 14.2988 20.4704 16.25 19.361C16.3354 19.3118 16.4296 19.2798 16.5273 19.267C16.625 19.2541 16.7243 19.2607 16.8195 19.2862C16.9146 19.3117 17.0039 19.3558 17.082 19.4158C17.1602 19.4758 17.2258 19.5506 17.275 19.636C17.3242 19.7214 17.3562 19.8156 17.369 19.9133C17.3819 20.011 17.3753 20.1103 17.3498 20.2055C17.3242 20.3006 17.2802 20.3899 17.2202 20.468C17.1602 20.5462 17.0854 20.6118 17 20.661C12.217 23.42 6.101 21.782 3.34 17C0.577998 12.217 2.217 6.101 7 3.34C11.783 0.577998 17.899 2.217 20.66 7C21.4981 8.44584 21.9589 10.0793 22 11.75V11.815C22.0009 11.893 22.0009 11.971 22 12.049V13.75C22.0004 14.4827 21.7532 15.194 21.2986 15.7686C20.8439 16.3431 20.2084 16.7472 19.4953 16.9152C18.7821 17.0832 18.0331 17.0053 17.3698 16.6941C16.7064 16.383 16.1677 15.8568 15.841 15.201C15.088 16.1046 14.0405 16.7138 12.8827 16.9214C11.7249 17.1291 10.531 16.9219 9.51091 16.3364C8.49078 15.7508 7.70974 14.8244 7.30513 13.7199C6.90052 12.6154 6.89823 11.4037 7.29868 10.2977C7.69912 9.19175 8.47666 8.26235 9.49457 7.67296C10.5125 7.08356 11.7056 6.8719 12.8641 7.07519C14.0227 7.27848 15.0725 7.8837 15.8289 8.78443C16.5853 9.68517 17 10.8238 17 12V13.75C17 14.2141 17.1844 14.6592 17.5126 14.9874C17.8408 15.3156 18.2859 15.5 18.75 15.5C19.2141 15.5 19.6592 15.3156 19.9874 14.9874C20.3156 14.6592 20.5 14.2141 20.5 13.75V11.829C20.4724 10.3947 20.0805 8.99106 19.361 7.75C18.2338 5.79778 16.3773 4.37328 14.1998 3.78986C12.0223 3.20643 9.70227 3.51188 7.75 4.639ZM15.5 12C15.5003 11.5404 15.4101 11.0852 15.2345 10.6604C15.0589 10.2357 14.8014 9.84963 14.4766 9.52439C14.1519 9.19915 13.7662 8.94107 13.3417 8.76488C12.9172 8.58868 12.4621 8.49783 12.0025 8.4975C11.5429 8.49717 11.0877 8.58737 10.6629 8.76296C10.2382 8.93855 9.85213 9.19608 9.52689 9.52086C9.20165 9.84563 8.94357 10.2313 8.76738 10.6558C8.59118 11.0803 8.50033 11.5354 8.5 11.995C8.49894 12.9233 8.86667 13.8139 9.5223 14.471C10.1779 15.1282 11.0677 15.4979 11.996 15.499C12.9243 15.5001 13.8149 15.1323 14.472 14.4767C15.1292 13.8211 15.4989 12.9313 15.5 12.003V12Z"/>
</svg>
