<svg xmlns="http://www.w3.org/2000/svg" width="24" height="24" viewBox="0 0 24 24">
  <defs/>
  <path d="M20.226,7.25 C17.603,2.708 11.794,1.152 7.252,3.775 C2.709,6.397 1.153,12.206 3.775,16.749 C6.398,21.291 12.206,22.848 16.749,20.226 C17.107,20.022 17.563,20.146 17.769,20.503 C17.975,20.86 17.855,21.316 17.499,21.525 C12.239,24.562 5.512,22.76 2.475,17.499 C-0.562,12.24 1.24,5.512 6.501,2.475 C11.76,-0.562 18.488,1.24 21.525,6.501 C22.378,7.975 22.877,9.627 22.98,11.327 C22.993,11.383 23,11.44 23,11.5 L23,13.75 C23,15.37 21.889,16.779 20.313,17.155 C18.737,17.531 17.109,16.777 16.377,15.331 C14.766,17.448 11.87,18.109 9.5,16.899 C7.13,15.69 5.966,12.957 6.735,10.41 C7.504,7.863 9.986,6.232 12.63,6.536 C15.273,6.841 17.319,8.994 17.489,11.649 C17.496,11.692 17.5,11.735 17.5,11.778 L17.5,13.75 C17.5,14.855 18.395,15.75 19.5,15.75 C20.605,15.75 21.5,14.855 21.5,13.75 L21.5,11.984 C21.499,10.322 21.059,8.689 20.226,7.251 Z M16,12 C16,9.791 14.209,8 12,8 C9.791,8 8,9.791 8,12 C8,14.209 9.791,16 12,16 C14.209,16 16,14.209 16,12 Z"/>
</svg>

