<svg xmlns="http://www.w3.org/2000/svg" width="16" height="16" viewBox="0 0 16 16">
  <defs/>
  <path d="M4.75,2.37 C1.641,4.165 0.575,8.141 2.37,11.25 C4.165,14.359 8.141,15.425 11.25,13.63 C11.607,13.44 12.05,13.567 12.252,13.917 C12.454,14.267 12.343,14.714 12,14.928 C8.892,16.722 4.969,16.226 2.405,13.715 C-0.16,11.205 -0.738,7.294 0.989,4.148 C2.717,1.003 6.327,-0.608 9.822,0.209 C13.317,1.026 15.84,4.07 15.994,7.655 C15.998,7.687 16,7.718 16,7.75 L16,9.25 C16.001,10.474 15.193,11.551 14.018,11.892 C12.843,12.234 11.584,11.758 10.928,10.725 C9.619,12.132 7.494,12.409 5.868,11.384 C4.242,10.36 3.574,8.324 4.278,6.535 C4.981,4.747 6.857,3.712 8.745,4.07 C10.633,4.428 12,6.078 12,8 L12,9.25 C12,9.94 12.56,10.5 13.25,10.5 C13.94,10.5 14.5,9.94 14.5,9.25 L14.5,7.867 C14.453,5.569 13.196,3.466 11.193,2.337 C9.191,1.208 6.741,1.221 4.75,2.371 Z M10.5,8 C10.5,6.619 9.381,5.5 8,5.5 C6.619,5.5 5.5,6.619 5.5,8 C5.5,9.381 6.619,10.5 8,10.5 C9.381,10.5 10.5,9.381 10.5,8 Z"/>
</svg>

