<svg width="16" height="16" viewBox="0 0 16 16" xmlns="http://www.w3.org/2000/svg">
  <path fill-rule="evenodd" clip-rule="evenodd" d="M4.75 2.37C4.01066 2.7968 3.36262 3.36504 2.84288 4.04228C2.32315 4.71952 1.9419 5.4925 1.72089 6.31709C1.27456 7.98241 1.50805 9.75683 2.37 11.25C3.23195 12.7432 4.65176 13.8328 6.31709 14.2791C7.98241 14.7254 9.75683 14.492 11.25 13.63C11.4216 13.5386 11.622 13.5174 11.8089 13.5709C11.9958 13.6244 12.1546 13.7484 12.2519 13.9168C12.3492 14.0851 12.3773 14.2846 12.3303 14.4733C12.2833 14.6619 12.1649 14.825 12 14.928C10.4875 15.8008 8.73095 16.1548 6.99845 15.9359C5.26594 15.7169 3.65266 14.9371 2.40483 13.7155C1.15701 12.4939 0.343178 10.8975 0.0875661 9.16999C-0.168046 7.44252 0.148599 5.67886 0.98917 4.14819C1.82974 2.61753 3.14807 1.40394 4.74293 0.692668C6.33779 -0.0186079 8.12158 -0.188503 9.82203 0.208914C11.5225 0.606331 13.0462 1.54923 14.1606 2.89369C15.275 4.23816 15.9189 5.91034 15.994 7.655C15.998 7.68651 16 7.71824 16 7.75V7.854C16.0007 7.91733 16.0007 7.98067 16 8.044V9.25C16.0004 9.84567 15.8073 10.4253 15.4498 10.9018C15.0924 11.3783 14.5899 11.7259 14.0179 11.8922C13.4459 12.0586 12.8354 12.0347 12.2782 11.8242C11.721 11.6137 11.2471 11.228 10.928 10.725C10.2933 11.4069 9.4405 11.8459 8.51672 11.9663C7.59293 12.0866 6.65612 11.8807 5.8679 11.3842C5.07969 10.8876 4.48951 10.1315 4.19919 9.24632C3.90888 8.36113 3.93664 7.40236 4.27768 6.53544C4.61872 5.66852 5.25165 4.94783 6.06727 4.4977C6.8829 4.04758 7.83005 3.89625 8.74533 4.06984C9.6606 4.24342 10.4866 4.73103 11.0808 5.44852C11.6749 6.16602 12.0001 7.06841 12 8V9.25C12 9.58152 12.1317 9.89946 12.3661 10.1339C12.6005 10.3683 12.9185 10.5 13.25 10.5C13.5815 10.5 13.8995 10.3683 14.1339 10.1339C14.3683 9.89946 14.5 9.58152 14.5 9.25V7.867C14.477 6.73734 14.1599 5.63318 13.58 4.66344C13.0001 3.6937 12.1775 2.89187 11.1932 2.33703C10.2089 1.7822 9.09696 1.49352 7.96708 1.49948C6.8372 1.50543 5.72839 1.80582 4.75 2.371V2.37ZM10.5 8C10.5 7.33696 10.2366 6.70108 9.76777 6.23223C9.29893 5.76339 8.66304 5.5 8 5.5C7.33696 5.5 6.70107 5.76339 6.23223 6.23223C5.76339 6.70108 5.5 7.33696 5.5 8C5.5 8.66304 5.76339 9.29893 6.23223 9.76777C6.70107 10.2366 7.33696 10.5 8 10.5C8.66304 10.5 9.29893 10.2366 9.76777 9.76777C10.2366 9.29893 10.5 8.66304 10.5 8Z"/>
</svg>
