<svg width="16" height="16" viewBox="0 0 16 16" fill="none" xmlns="http://www.w3.org/2000/svg">
<g clip-path="url(#clip0_10038_1152)">
<path fill-rule="evenodd" clip-rule="evenodd" d="M8 0.5C12.1294 0.500007 15.4785 3.83732 15.499 7.96191C15.4997 7.97454 15.501 7.98722 15.501 8V9.16406C15.5008 10.6063 14.3309 11.775 12.8887 11.7754C11.9844 11.7754 11.1867 11.3162 10.7178 10.6182C10.0309 11.331 9.06783 11.7762 8 11.7764C5.91502 11.7761 4.22486 10.085 4.22461 8C4.22486 5.91502 5.91502 4.22486 8 4.22461C10.085 4.22487 11.7761 5.91503 11.7764 8V9.16406C11.7765 9.77811 12.2746 10.2754 12.8887 10.2754C13.5024 10.275 14.0008 9.77787 14.001 9.16406L14 8C14 4.68631 11.3137 2.00001 8 2C4.6863 2 2.00001 4.6863 2 8C2.00001 11.3137 4.6863 14 8 14C8.96838 14 9.88142 13.7711 10.6895 13.3652C11.0595 13.1795 11.5104 13.3292 11.6963 13.6992C11.8819 14.0693 11.7323 14.5202 11.3623 14.7061C10.3502 15.2144 9.20732 15.5 8 15.5C3.85788 15.5 0.500007 12.1421 0.5 8C0.500006 3.85788 3.85788 0.5 8 0.5ZM8 5.72461C6.74345 5.72486 5.72486 6.74345 5.72461 8C5.72486 9.25655 6.74345 10.2761 8 10.2764C9.25654 10.2761 10.2761 9.25655 10.2764 8C10.2761 6.74346 9.25654 5.72487 8 5.72461Z" fill="#59636E"/>
</g>
<defs>
<clipPath id="clip0_10038_1152">
<rect width="16" height="16" fill="white"/>
</clipPath>
</defs>
</svg>
