<svg xmlns="http://www.w3.org/2000/svg" width="16" height="16" viewBox="0 0 16 16">
  <defs/>
  <path d="M8,1.5 C5.139,1.501 2.615,3.372 1.783,6.108 C0.95,8.845 2.005,11.805 4.381,13.398 C6.757,14.992 9.895,14.845 12.111,13.036 C14.328,11.227 15.101,8.182 14.016,5.535 C13.859,5.152 14.042,4.713 14.425,4.556 C14.808,4.399 15.247,4.582 15.404,4.965 C16.849,8.491 15.605,12.547 12.433,14.658 C9.26,16.769 5.039,16.349 2.344,13.655 C-0.35,10.96 -0.77,6.739 1.341,3.566 C3.452,0.394 7.508,-0.85 11.034,0.595 C11.418,0.752 11.601,1.19 11.444,1.574 C11.287,1.958 10.849,2.141 10.465,1.984 C9.683,1.663 8.845,1.499 8,1.5 Z M14.28,1.72 C14.572,2.013 14.572,2.487 14.28,2.78 L10.217,6.844 C10.788,7.938 10.475,9.286 9.48,10.016 C8.485,10.746 7.106,10.641 6.233,9.768 C5.36,8.895 5.255,7.516 5.985,6.521 C6.715,5.526 8.063,5.213 9.157,5.784 L13.22,1.72 C13.513,1.428 13.987,1.428 14.28,1.72 Z M7,8 C7,8.552 7.448,9 8,9 C8.552,9 9,8.552 9,8 C9,7.448 8.552,7 8,7 C7.448,7 7,7.448 7,8 Z"/>
</svg>

