<svg width="16" height="16" viewBox="0 0 16 16" fill="none" xmlns="http://www.w3.org/2000/svg">
<rect width="16" height="16" fill="white"/>
<path fill-rule="evenodd" clip-rule="evenodd" d="M8 1.5C4.41015 1.5 1.5 4.41015 1.5 8C1.5 11.5899 4.41015 14.5 8 14.5C11.5899 14.5 14.5 11.5899 14.5 8C14.5 7.12593 14.3279 6.29394 14.0164 5.53467C13.8592 5.15145 14.0424 4.71334 14.4256 4.55612C14.8088 4.39891 15.2469 4.58212 15.4041 4.96533C15.7885 5.90214 16 6.9273 16 8C16 12.4183 12.4183 16 8 16C3.58172 16 0 12.4183 0 8C0 3.58172 3.58172 0 8 0C9.0727 0 10.0979 0.211531 11.0347 0.595858C11.4179 0.753074 11.6011 1.19118 11.4439 1.5744C11.2867 1.95762 10.8486 2.14083 10.4653 1.98361C9.70607 1.67212 8.87407 1.5 8 1.5ZM14.2803 1.71967C14.5732 2.01256 14.5732 2.48744 14.2803 2.78033L10.217 6.84357C10.3978 7.18939 10.5 7.58276 10.5 8C10.5 9.38071 9.38071 10.5 8 10.5C6.61929 10.5 5.5 9.38071 5.5 8C5.5 6.61929 6.61929 5.5 8 5.5C8.41721 5.5 8.81055 5.6022 9.15635 5.78293L13.2196 1.71967C13.5125 1.42678 13.9874 1.42678 14.2803 1.71967ZM7 8C7 7.44772 7.44772 7 8 7C8.55228 7 9 7.44772 9 8C9 8.55228 8.55228 9 8 9C7.44772 9 7 8.55228 7 8Z" fill="black"/>
</svg>
