<svg xmlns="http://www.w3.org/2000/svg" width="24" height="24" viewBox="0 0 24 24"><path d="M10 13.25a.71.71 0 0 1 .149.015c.013.002.026.008.039.011.033.009.066.017.098.031a.753.753 0 0 1 .363.323c.015.027.031.054.043.083a.731.731 0 0 1 .058.287v6a.75.75 0 0 1-1.5 0v-4.189L3.53 21.53a.749.749 0 1 1-1.06-1.06l5.72-5.72H4a.75.75 0 0 1 0-1.5h6ZM20.47 2.47a.749.749 0 1 1 1.06 1.06l-5.719 5.72H20a.75.75 0 0 1 0 1.5h-6a.731.731 0 0 1-.133-.013c-.005-.001-.011-.001-.016-.003-.014-.002-.026-.008-.039-.011-.034-.009-.067-.017-.099-.031-.029-.012-.056-.028-.083-.043a.731.731 0 0 1-.38-.649V4a.75.75 0 0 1 1.5 0v4.19l5.72-5.72Z"/></svg>