<svg xmlns="http://www.w3.org/2000/svg" width="16" height="16" viewBox="0 0 16 16"><path d="M6.668 8.583a.69.69 0 0 1 .13.012l.017.003c.01.002.02.007.031.01.036.009.073.017.108.032a.727.727 0 0 1 .243.163.711.711 0 0 1 .126.176.62.62 0 0 1 .036.067.822.822 0 0 1 .058.287l-.001 4a.75.75 0 0 1-1.5 0v-2.188L2.53 14.53a.749.749 0 1 1-1.06-1.06l3.387-3.387H2.666a.75.75 0 0 1 0-1.5h4.002ZM13.47 1.47a.749.749 0 1 1 1.06 1.06l-3.385 3.386h2.188a.75.75 0 0 1 0 1.5l-4 .001a.738.738 0 0 1-.231-.041c-.019-.006-.038-.01-.056-.017a.62.62 0 0 1-.067-.036.711.711 0 0 1-.384-.525.72.72 0 0 1-.012-.132v-4a.75.75 0 0 1 1.5 0v2.191L13.47 1.47Z"/></svg>