<svg xmlns="http://www.w3.org/2000/svg" width="16" height="16" viewBox="0 0 16 16">
  <defs/>
  <path d="M15.547,3.061 C15.822,3.18 16,3.45 16,3.75 L16,12.25 C16,12.549 15.822,12.82 15.547,12.939 C15.272,13.057 14.953,13.001 14.735,12.795 L10.235,8.545 C10.085,8.403 10,8.206 10,8 C10,7.794 10.085,7.597 10.235,7.455 L14.735,3.205 C14.953,2.999 15.272,2.943 15.547,3.061 Z M0,12.25 L0,3.75 C0,3.451 0.178,3.18 0.453,3.061 C0.728,2.943 1.047,2.999 1.265,3.205 L5.765,7.455 C5.915,7.597 6,7.794 6,8 C6,8.206 5.915,8.403 5.765,8.545 L1.265,12.795 C1.047,13.001 0.728,13.057 0.453,12.939 C0.178,12.82 0,12.549 0,12.25 Z M1.5,5.49 L1.5,10.51 L4.158,8 Z M11.842,8 L14.5,10.51 L14.5,5.49 Z M8,4 C8.414,4 8.75,4.336 8.75,4.75 L8.75,5.25 C8.75,5.664 8.414,6 8,6 C7.586,6 7.25,5.664 7.25,5.25 L7.25,4.75 C7.25,4.336 7.586,4 8,4 Z M8.75,1.75 L8.75,2.25 C8.75,2.664 8.414,3 8,3 C7.586,3 7.25,2.664 7.25,2.25 L7.25,1.75 C7.25,1.336 7.586,1 8,1 C8.414,1 8.75,1.336 8.75,1.75 Z M8.75,7.75 L8.75,8.25 C8.75,8.664 8.414,9 8,9 C7.586,9 7.25,8.664 7.25,8.25 L7.25,7.75 C7.25,7.336 7.586,7 8,7 C8.414,7 8.75,7.336 8.75,7.75 Z M8,10 C8.414,10 8.75,10.336 8.75,10.75 L8.75,11.25 C8.75,11.664 8.414,12 8,12 C7.586,12 7.25,11.664 7.25,11.25 L7.25,10.75 C7.25,10.336 7.586,10 8,10 Z M8,13 C8.414,13 8.75,13.336 8.75,13.75 L8.75,14.25 C8.75,14.664 8.414,15 8,15 C7.586,15 7.25,14.664 7.25,14.25 L7.25,13.75 C7.25,13.336 7.586,13 8,13 Z"/>
</svg>

