<svg xmlns="http://www.w3.org/2000/svg" width="24" height="24" viewBox="0 0 24 24"><path d="M21.553 6.064A.75.75 0 0122 6.75v10.5a.75.75 0 01-1.256.554l-5.75-5.25a.748.748 0 010-1.108l5.75-5.25a.75.75 0 01.809-.132zM2.447 17.936A.75.75 0 012 17.25V6.75a.75.75 0 011.256-.554l5.75 5.25a.748.748 0 010 1.108l-5.75 5.25a.75.75 0 01-.809.132zM7.387 12L3.5 8.45v7.1L7.388 12zm9.226 0l3.887 3.55v-7.1L16.612 12zM12 2.75a.75.75 0 01.75.75v1a.75.75 0 01-1.5 0v-1a.75.75 0 01.75-.75zm0 4a.75.75 0 01.75.75v1a.75.75 0 01-1.5 0v-1a.75.75 0 01.75-.75zm0 8a.75.75 0 01.75.75v1a.75.75 0 01-1.5 0v-1a.75.75 0 01.75-.75zm0 4a.75.75 0 01.75.75v1a.75.75 0 01-1.5 0v-1a.75.75 0 01.75-.75zm0-8a.75.75 0 01.75.75v1a.75.75 0 01-1.5 0v-1a.75.75 0 01.75-.75z"/></svg>