<svg xmlns="http://www.w3.org/2000/svg" width="16" height="16" viewBox="0 0 16 16">
  <defs/>
  <path d="M9.598,1.591 C9.804,1.385 10.11,1.317 10.383,1.416 C13.435,2.523 15.325,5.582 14.95,8.807 C14.574,12.031 12.031,14.574 8.807,14.95 C5.582,15.325 2.523,13.435 1.416,10.383 C1.317,10.109 1.385,9.803 1.591,9.597 C1.797,9.392 2.103,9.324 2.377,9.423 C4.384,10.151 6.632,9.652 8.142,8.142 C9.652,6.632 10.151,4.384 9.423,2.377 C9.324,2.103 9.392,1.797 9.598,1.591 Z M11.214,3.536 C11.429,5.631 10.689,7.711 9.2,9.2 C7.711,10.689 5.631,11.429 3.536,11.214 C4.809,12.98 7.004,13.828 9.134,13.378 C11.264,12.928 12.928,11.264 13.378,9.134 C13.828,7.004 12.98,4.809 11.214,3.536 Z"/>
</svg>

