<svg width="16" height="16" viewBox="0 0 16 16" fill="none" xmlns="http://www.w3.org/2000/svg">
<path fill-rule="evenodd" clip-rule="evenodd" d="M9.59784 1.59127C9.80363 1.38548 10.1099 1.31732 10.3835 1.41642C13.0749 2.39105 14.9999 4.96971 14.9999 7.99988C14.9999 11.8659 11.8659 14.9999 7.99988 14.9999C4.96971 14.9999 2.39105 13.0749 1.41642 10.3835C1.31732 10.1099 1.38548 9.80363 1.59127 9.59784C1.79706 9.39205 2.10333 9.32389 2.37697 9.42298C2.96056 9.63432 3.5909 9.74988 4.24988 9.74988C7.28745 9.74988 9.74988 7.28745 9.74988 4.24988C9.74988 3.5909 9.63432 2.96056 9.42298 2.37697C9.32389 2.10333 9.39205 1.79706 9.59784 1.59127ZM11.2139 3.53595C11.2377 3.77081 11.2499 4.009 11.2499 4.24988C11.2499 8.11588 8.11588 11.2499 4.24988 11.2499C4.009 11.2499 3.77082 11.2377 3.53596 11.2139C4.5351 12.599 6.16286 13.4999 7.99988 13.4999C11.0375 13.4999 13.4999 11.0375 13.4999 7.99988C13.4999 6.16286 12.599 4.53509 11.2139 3.53595Z" fill="black"/>
</svg>
