<svg xmlns="http://www.w3.org/2000/svg" width="24" height="24" viewBox="0 0 24 24"><path d="M12.292 2.06v-.001l11.25 4.75a.749.749 0 010 1.382L19 10.108V15a.75.75 0 01-.11.391h-.001a2.84 2.84 0 01-.392.482c-.249.256-.625.58-1.163.896-1.08.638-2.776 1.23-5.334 1.23-.673 0-1.286-.041-1.846-.113a.75.75 0 01.192-1.487c.492.063 1.042.1 1.654.1 2.317 0 3.746-.533 4.572-1.021.31-.178.596-.397.849-.65l.079-.085V10.74l-5.208 2.2a.75.75 0 01-.584 0L5.75 10.424v3.17c.502.129.96.391 1.327.758.579.578.923 1.41.923 2.428v4.5a.761.761 0 01-.345.634 2.157 2.157 0 01-.21.117 3.923 3.923 0 01-.52.213A6.121 6.121 0 015 22.532a6.092 6.092 0 01-1.925-.288 4.065 4.065 0 01-.52-.213 1.816 1.816 0 01-.22-.124.757.757 0 01-.335-.624v-4.5c0-1.02.344-1.85.923-2.43a2.904 2.904 0 011.327-.757V9.793L.458 8.19a.75.75 0 010-1.38l11.25-4.75a.75.75 0 01.584 0zM12 11.436L21.322 7.5 12 3.564 2.678 7.5zM5 15c-.377 0-.745.141-1.017.413-.265.265-.483.7-.483 1.368v4.022c.299.105.797.228 1.5.228s1.201-.123 1.5-.228V16.78c0-.669-.218-1.103-.483-1.368A1.433 1.433 0 005 15z"/></svg>