<svg width="24" height="24" viewBox="0 0 24 24" xmlns="http://www.w3.org/2000/svg">
  <path fill-rule="evenodd" clip-rule="evenodd" d="M12.2917 2.05906C12.1052 1.98031 11.8948 1.98031 11.7083 2.05906L0.458271 6.80906C0.180526 6.92633 0 7.19851 0 7.5C0 7.80149 0.180526 8.07367 0.458271 8.19094L4.25 9.79189V13.5955C3.76381 13.7216 3.30237 13.9729 2.9228 14.3524C2.34402 14.9312 2 15.7627 2 16.7811V21.2811C2 21.5319 2.1253 21.766 2.33393 21.9051L2.75 21.2811C2.33393 21.9051 2.33421 21.9053 2.3345 21.9055L2.33509 21.9059L2.33632 21.9067L2.33901 21.9085L2.34525 21.9126L2.36124 21.9227C2.37345 21.9304 2.38877 21.9397 2.4072 21.9504C2.44407 21.9719 2.49339 21.9992 2.55517 22.0301C2.67876 22.0919 2.85216 22.1683 3.07529 22.2427C3.52261 22.3918 4.1651 22.5312 5 22.5312C5.83487 22.5312 6.47733 22.3919 6.92463 22.2428C7.14776 22.1684 7.32115 22.0921 7.44474 22.0303C7.50652 21.9994 7.55584 21.9722 7.5927 21.9507C7.61113 21.9399 7.62645 21.9306 7.63866 21.923L7.65465 21.9128L7.66089 21.9087L7.66358 21.907L7.66481 21.9062L7.6654 21.9058C7.66569 21.9056 7.66598 21.9054 7.25 21.2813L7.66598 21.9054C7.87465 21.7663 8 21.5321 8 21.2813V16.7813C8 15.7629 7.65599 14.9313 7.07721 14.3525C6.69764 13.9729 6.2362 13.7216 5.75 13.5955V10.4252L11.7083 12.9409C11.8948 13.0197 12.1052 13.0197 12.2917 12.9409L17.5001 10.7419V14.7441C17.4774 14.7696 17.4512 14.798 17.4213 14.8288C17.2598 14.9949 16.9876 15.2338 16.572 15.4791C15.7458 15.9667 14.3175 16.5 12.0001 16.5C11.388 16.5 10.8384 16.4628 10.3461 16.3992C9.93529 16.3462 9.55928 16.6362 9.50625 17.047C9.45323 17.4578 9.74327 17.8339 10.1541 17.8869C10.7133 17.9591 11.3271 18 12.0001 18C14.5577 18 16.2543 17.4083 17.3344 16.7709C17.8719 16.4537 18.2482 16.1301 18.4968 15.8744C18.6209 15.7467 18.7128 15.6364 18.7769 15.5527C18.8089 15.5109 18.834 15.4757 18.8527 15.4484C18.862 15.4348 18.8698 15.423 18.876 15.4134L18.8841 15.4006L18.8874 15.3954L18.8888 15.3932L18.8894 15.3921C18.8897 15.3916 18.89 15.3911 18.2501 15L18.89 15.3911C18.962 15.2733 19.0001 15.138 19.0001 15V10.1085L23.5417 8.19094C23.8195 8.07367 24 7.80149 24 7.5C24 7.19851 23.8195 6.92633 23.5417 6.80906L12.2917 2.05906ZM12 11.4359L2.67816 7.5L12 3.56411L21.3218 7.5L12 11.4359ZM4.99999 15H4.99993C4.62297 15 4.25546 15.1411 3.98345 15.4131C3.71848 15.6781 3.5 16.1121 3.5 16.7811V20.8027C3.51601 20.8083 3.53258 20.814 3.54971 20.8197C3.85239 20.9206 4.3349 21.0312 5 21.0312C5.66513 21.0312 6.14767 20.9206 6.45037 20.8197C6.46747 20.8141 6.48401 20.8084 6.5 20.8027V16.7813C6.5 16.1122 6.28151 15.6781 6.01654 15.4132C5.74451 15.1411 5.37697 15 4.99999 15Z"/>
</svg>
