<svg xmlns="http://www.w3.org/2000/svg" width="16" height="16" viewBox="0 0 16 16"><path d="M7.693 1.066a.747.747 0 0 1 .614 0l7.25 3.25a.75.75 0 0 1 0 1.368L13 6.831v2.794c0 1.024-.811 1.749-1.659 2.173-.894.447-2.076.702-3.341.702a9.1 9.1 0 0 1-.817-.036.75.75 0 1 1 .134-1.494c.221.02.449.03.683.03 1.082 0 2.025-.221 2.67-.543.689-.345.83-.682.83-.832V7.503L8.307 8.934a.747.747 0 0 1-.614 0L4 7.279v1.663c.296.105.575.275.812.512.438.438.688 1.059.688 1.796v3c0 .199-.079.39-.22.53a.747.747 0 0 1-.53.22h-3a.75.75 0 0 1-.75-.75v-3c0-.737.25-1.358.688-1.796.237-.237.516-.407.812-.512V6.606L.443 5.684a.75.75 0 0 1 0-1.368ZM2.583 5 8 7.428 13.417 5 8 2.572ZM2.5 11.25v2.25H4v-2.25c0-.388-.125-.611-.249-.735a.703.703 0 0 0-.501-.203.703.703 0 0 0-.501.203c-.124.124-.249.347-.249.735Z"/></svg>