<svg width="16" height="16" viewBox="0 0 16 16" fill="none" xmlns="http://www.w3.org/2000/svg">
<path fill-rule="evenodd" clip-rule="evenodd" d="M10.7803 8.53033C11.0732 8.23744 11.0732 7.76256 10.7803 7.46967L7.03027 3.71967C6.73738 3.42678 6.2625 3.42678 5.96961 3.71967C5.67672 4.01256 5.67672 4.48744 5.96961 4.78033L8.43928 7.25L1.74994 7.25C1.33573 7.25 0.999939 7.58579 0.999939 8C0.999939 8.41421 1.33573 8.75 1.74994 8.75L8.43928 8.75L5.96961 11.2197C5.67672 11.5126 5.67671 11.9874 5.96961 12.2803C6.2625 12.5732 6.73737 12.5732 7.03027 12.2803L10.7803 8.53033ZM13 12.25C13 12.6642 13.3358 13 13.75 13C14.1642 13 14.5 12.6642 14.5 12.25V3.75C14.5 3.33579 14.1642 3 13.75 3C13.3358 3 13 3.33579 13 3.75V12.25Z" fill="black"/>
</svg>
