<svg width="24" height="24" viewBox="0 0 24 24" fill="none" xmlns="http://www.w3.org/2000/svg">
<path fill-rule="evenodd" clip-rule="evenodd" d="M12.7803 18.7803C12.4874 19.0732 12.0126 19.0732 11.7197 18.7803L5.46967 12.5303C5.17678 12.2374 5.17678 11.7626 5.46967 11.4697L11.7197 5.21967C12.0126 4.92678 12.4874 4.92678 12.7803 5.21967C13.0732 5.51256 13.0732 5.98744 12.7803 6.28033L7.81066 11.25H22.25C22.6642 11.25 23 11.5858 23 12C23 12.4142 22.6642 12.75 22.25 12.75H7.81066L12.7803 17.7197C13.0732 18.0126 13.0732 18.4874 12.7803 18.7803Z" fill="black"/>
<path fill-rule="evenodd" clip-rule="evenodd" d="M2.75 3.75C2.33579 3.75 2 4.08579 2 4.5V19.5C2 19.9142 2.33579 20.25 2.75 20.25C3.16421 20.25 3.5 19.9142 3.5 19.5V4.5C3.5 4.08579 3.16421 3.75 2.75 3.75Z" fill="black"/>
</svg>
