<svg width="16" height="16" viewBox="0 0 16 16" fill="none" xmlns="http://www.w3.org/2000/svg">
<path d="M7.46967 10.7803C7.76256 11.0732 8.23744 11.0732 8.53033 10.7803L12.2803 7.03027C12.5732 6.73738 12.5732 6.2625 12.2803 5.96961C11.9874 5.67672 11.5126 5.67672 11.2197 5.96961L8.75 8.43928L8.75 1.74994C8.75 1.33573 8.41421 0.999939 8 0.999939C7.58579 0.999939 7.25 1.33573 7.25 1.74994L7.25 8.43928L4.78033 5.96961C4.48744 5.67672 4.01256 5.67671 3.71967 5.96961C3.42678 6.2625 3.42678 6.73737 3.71967 7.03027L7.46967 10.7803Z" fill="black"/>
<path d="M3.75 13C3.33579 13 3 13.3358 3 13.75C3 14.1642 3.33579 14.5 3.75 14.5H12.25C12.6642 14.5 13 14.1642 13 13.75C13 13.3358 12.6642 13 12.25 13H3.75Z" fill="black"/>
</svg>
