<svg width="24" height="24" viewBox="0 0 24 24" fill="none" xmlns="http://www.w3.org/2000/svg">
<path fill-rule="evenodd" clip-rule="evenodd" d="M4 21.25C4 20.8358 4.33579 20.5 4.75 20.5H19.25C19.6642 20.5 20 20.8358 20 21.25C20 21.6642 19.6642 22 19.25 22H4.75C4.33579 22 4 21.6642 4 21.25Z" fill="black"/>
<path fill-rule="evenodd" clip-rule="evenodd" d="M5.21967 9.96967C4.92678 10.2626 4.92678 10.7374 5.21967 11.0303L11.4697 17.2803C11.7626 17.5732 12.2374 17.5732 12.5303 17.2803L18.7803 11.0303C19.0732 10.7374 19.0732 10.2626 18.7803 9.96967C18.4874 9.67678 18.0126 9.67678 17.7197 9.96967L12.75 14.9393V2.75C12.75 2.33579 12.4142 2 12 2C11.5858 2 11.25 2.33579 11.25 2.75V14.9393L6.28033 9.96967C5.98744 9.67678 5.51256 9.67678 5.21967 9.96967Z" fill="black"/>
</svg>
