<svg width="24" height="24" viewBox="0 0 24 24" fill="none" xmlns="http://www.w3.org/2000/svg">
<path d="M4.75 3.5C4.33579 3.5 4 3.16421 4 2.75C4 2.33579 4.33579 2 4.75 2H19.25C19.6642 2 20 2.33579 20 2.75C20 3.16421 19.6642 3.5 19.25 3.5H4.75Z" fill="black"/>
<path d="M5.21967 12.9697C4.92678 13.2626 4.92678 13.7374 5.21967 14.0303C5.51256 14.3232 5.98744 14.3232 6.28033 14.0303L11.25 9.06066V21.25C11.25 21.6642 11.5858 22 12 22C12.4142 22 12.75 21.6642 12.75 21.25V9.06066L17.7197 14.0303C18.0126 14.3232 18.4874 14.3232 18.7803 14.0303C19.0732 13.7374 19.0732 13.2626 18.7803 12.9697L12.5303 6.71967C12.2374 6.42678 11.7626 6.42678 11.4697 6.71967L5.21967 12.9697Z" fill="black"/>
</svg>
