<svg width="24" height="24" viewBox="0 0 24 24" fill="none" xmlns="http://www.w3.org/2000/svg">
<path fill-rule="evenodd" clip-rule="evenodd" d="M4 21.25C4 21.6642 4.33579 22 4.75 22H19.25C19.6642 22 20 21.6642 20 21.25C20 20.8358 19.6642 20.5 19.25 20.5H4.75C4.33579 20.5 4 20.8358 4 21.25Z" fill="black"/>
<path fill-rule="evenodd" clip-rule="evenodd" d="M5.21967 9.53033C4.92678 9.23744 4.92678 8.76256 5.21967 8.46967L11.4697 2.21967C11.7626 1.92678 12.2374 1.92678 12.5303 2.21967L18.7803 8.46967C19.0732 8.76256 19.0732 9.23744 18.7803 9.53033C18.4874 9.82322 18.0126 9.82322 17.7197 9.53033L12.75 4.56066V16.75C12.75 17.1642 12.4142 17.5 12 17.5C11.5858 17.5 11.25 17.1642 11.25 16.75V4.56066L6.28033 9.53033C5.98744 9.82322 5.51256 9.82322 5.21967 9.53033Z" fill="black"/>
</svg>
