<svg width="16" height="16" viewBox="0 0 16 16" fill="none" xmlns="http://www.w3.org/2000/svg">
<path d="M5.21973 7.46967C4.92684 7.76256 4.92684 8.23744 5.21973 8.53033L8.96973 12.2803C9.26262 12.5732 9.7375 12.5732 10.0304 12.2803C10.3233 11.9874 10.3233 11.5126 10.0304 11.2197L7.56072 8.75L14.2501 8.75C14.6643 8.75 15.0001 8.41421 15.0001 8C15.0001 7.58579 14.6643 7.25 14.2501 7.25L7.56072 7.25L10.0304 4.78033C10.3233 4.48744 10.3233 4.01256 10.0304 3.71967C9.7375 3.42678 9.26263 3.42678 8.96973 3.71967L5.21973 7.46967Z" fill="black"/>
<path d="M3 3.75C3 3.33579 2.66421 3 2.25 3C1.83579 3 1.5 3.33579 1.5 3.75V12.25C1.5 12.6642 1.83579 13 2.25 13C2.66421 13 3 12.6642 3 12.25V3.75Z" fill="black"/>
</svg>
