<svg width="16" height="16" viewBox="0 0 16 16" fill="none" xmlns="http://www.w3.org/2000/svg">
<path fill-rule="evenodd" clip-rule="evenodd" d="M3 2.24994C3 2.66415 3.33579 2.99994 3.75 2.99994H12.25C12.6642 2.99994 13 2.66415 13 2.24994C13 1.83573 12.6642 1.49994 12.25 1.49994H3.75C3.33579 1.49994 3 1.83573 3 2.24994Z" fill="black"/>
<path fill-rule="evenodd" clip-rule="evenodd" d="M8.53033 5.21967C8.23744 4.92678 7.76256 4.92678 7.46967 5.21967L3.71967 8.96967C3.42678 9.26256 3.42678 9.73744 3.71967 10.0303C4.01256 10.3232 4.48744 10.3232 4.78033 10.0303L7.25 7.56066L7.25 14.25C7.25 14.6642 7.58579 15 8 15C8.41421 15 8.75 14.6642 8.75 14.25L8.75 7.56066L11.2197 10.0303C11.5126 10.3232 11.9874 10.3232 12.2803 10.0303C12.5732 9.73744 12.5732 9.26256 12.2803 8.96967L8.53033 5.21967Z" fill="black"/>
</svg>
