<svg width="24" height="24" viewBox="0 0 24 24" fill="none" xmlns="http://www.w3.org/2000/svg">
<path fill-rule="evenodd" clip-rule="evenodd" d="M4 21.25C4 20.8358 4.33579 20.5 4.75 20.5H19.25C19.6642 20.5 20 20.8358 20 21.25C20 21.6642 19.6642 22 19.25 22H4.75C4.33579 22 4 21.6642 4 21.25Z" fill="black"/>
<path fill-rule="evenodd" clip-rule="evenodd" d="M4.96967 9.96967C4.67678 10.2626 4.67678 10.7374 4.96967 11.0303L11.2197 17.2803C11.5126 17.5732 11.9874 17.5732 12.2803 17.2803L18.5303 11.0303C18.8232 10.7374 18.8232 10.2626 18.5303 9.96967C18.2374 9.67678 17.7626 9.67678 17.4697 9.96967L12.5 14.9393V2.75C12.5 2.33579 12.1642 2 11.75 2C11.3358 2 11 2.33579 11 2.75V14.9393L6.03033 9.96967C5.73744 9.67678 5.26256 9.67678 4.96967 9.96967Z" fill="black"/>
</svg>
