<svg width="16" height="16" viewBox="0 0 16 16" fill="none" xmlns="http://www.w3.org/2000/svg">
<path fill-rule="evenodd" clip-rule="evenodd" d="M1.75 2.5C1.33579 2.5 1 2.83579 1 3.25C1 3.66421 1.33579 4 1.75 4H8.25C8.6642 4 9 3.66421 9 3.25C9 2.83579 8.6642 2.5 8.25 2.5H1.75ZM5.75 7.5C5.33579 7.5 5 7.83579 5 8.25C5 8.66421 5.33579 9 5.75 9H13.25C13.6642 9 14 8.66421 14 8.25C14 7.83579 13.6642 7.5 13.25 7.5H5.75ZM5.75 12.5C5.33579 12.5 5 12.8358 5 13.25C5 13.6642 5.33579 14 5.75 14H13.25C13.6642 14 14 13.6642 14 13.25C14 12.8358 13.6642 12.5 13.25 12.5H5.75ZM3 8C3 8.55228 2.55228 9 2 9C1.44772 9 1 8.55228 1 8C1 7.44772 1.44772 7 2 7C2.55228 7 3 7.44772 3 8ZM2 14C2.55228 14 3 13.5523 3 13C3 12.4477 2.55228 12 2 12C1.44772 12 1 12.4477 1 13C1 13.5523 1.44772 14 2 14Z" fill="#24292E"/>
<path d="M13.3139 4.9177L11.0696 2.41698C10.9251 2.25603 11.0393 2 11.2556 2H15.7444C15.9607 2 16.0749 2.25603 15.9304 2.41698L13.6861 4.9177C13.5867 5.02838 13.4133 5.02838 13.3139 4.9177Z" fill="#24292E"/>
</svg>
