<svg width="24" height="24" viewBox="0 0 24 24" xmlns="http://www.w3.org/2000/svg">
  <path fill-rule="evenodd" clip-rule="evenodd" d="M12 3.75C12.0001 3.6046 11.9579 3.46231 11.8786 3.34045C11.7993 3.21858 11.6863 3.12239 11.5533 3.06358C11.4204 3.00478 11.2732 2.98589 11.1296 3.00922C10.9861 3.03256 10.8525 3.0971 10.745 3.195L5.46 8H2.75C2.28587 8 1.84075 8.18437 1.51256 8.51256C1.18437 8.84075 1 9.28587 1 9.75V14.25C1 15.216 1.784 16 2.75 16H5.46L10.745 20.805C10.8525 20.9029 10.9861 20.9674 11.1296 20.9908C11.2732 21.0141 11.4204 20.9952 11.5533 20.9364C11.6863 20.8776 11.7993 20.7814 11.8786 20.6596C11.9579 20.5377 12.0001 20.3954 12 20.25V3.75ZM6.255 9.305L10.5 5.445V18.555L6.255 14.695C6.11681 14.5694 5.93674 14.4999 5.75 14.5H2.75C2.6837 14.5 2.62011 14.4737 2.57322 14.4268C2.52634 14.3799 2.5 14.3163 2.5 14.25V9.75C2.5 9.6837 2.52634 9.62011 2.57322 9.57322C2.62011 9.52634 2.6837 9.5 2.75 9.5H5.75C5.93674 9.50014 6.11681 9.4306 6.255 9.305ZM16.28 8.22C16.2113 8.14631 16.1285 8.08721 16.0365 8.04622C15.9445 8.00523 15.8452 7.98319 15.7445 7.98141C15.6438 7.97963 15.5438 7.99816 15.4504 8.03588C15.357 8.0736 15.2722 8.12974 15.201 8.20096C15.1297 8.27218 15.0736 8.35701 15.0359 8.4504C14.9982 8.54379 14.9796 8.64382 14.9814 8.74452C14.9832 8.84523 15.0052 8.94454 15.0462 9.03654C15.0872 9.12854 15.1463 9.21134 15.22 9.28L17.94 12L15.22 14.72C15.1463 14.7887 15.0872 14.8715 15.0462 14.9635C15.0052 15.0555 14.9832 15.1548 14.9814 15.2555C14.9796 15.3562 14.9982 15.4562 15.0359 15.5496C15.0736 15.643 15.1297 15.7278 15.201 15.799C15.2722 15.8703 15.357 15.9264 15.4504 15.9641C15.5438 16.0018 15.6438 16.0204 15.7445 16.0186C15.8452 16.0168 15.9445 15.9948 16.0365 15.9538C16.1285 15.9128 16.2113 15.8537 16.28 15.78L19 13.06L21.72 15.78C21.7887 15.8537 21.8715 15.9128 21.9635 15.9538C22.0555 15.9948 22.1548 16.0168 22.2555 16.0186C22.3562 16.0204 22.4562 16.0018 22.5496 15.9641C22.643 15.9264 22.7278 15.8703 22.799 15.799C22.8703 15.7278 22.9264 15.643 22.9641 15.5496C23.0018 15.4562 23.0204 15.3562 23.0186 15.2555C23.0168 15.1548 22.9948 15.0555 22.9538 14.9635C22.9128 14.8715 22.8537 14.7887 22.78 14.72L20.06 12L22.78 9.28C22.9125 9.13783 22.9846 8.94978 22.9812 8.75548C22.9777 8.56118 22.899 8.37579 22.7616 8.23838C22.6242 8.10097 22.4388 8.02225 22.2445 8.01883C22.0502 8.0154 21.8622 8.08752 21.72 8.22L19 10.94L16.28 8.22Z"/>
</svg>
