<svg xmlns="http://www.w3.org/2000/svg" width="24" height="24" viewBox="0 0 24 24"><path d="M12 3.75v16.5a.75.75 0 01-1.255.555L5.46 16H2.75A1.75 1.75 0 011 14.25v-4.5C1 8.784 1.784 8 2.75 8h2.71l5.285-4.805A.75.75 0 0112 3.75zM6.255 9.305a.748.748 0 01-.505.195h-3a.25.25 0 00-.25.25v4.5c0 .138.112.25.25.25h3c.187 0 .367.069.505.195l4.245 3.86V5.445zM16.28 8.22a.75.75 0 10-1.06 1.06L17.94 12l-2.72 2.72a.75.75 0 101.06 1.06L19 13.06l2.72 2.72a.75.75 0 101.06-1.06L20.06 12l2.72-2.72a.75.75 0 00-1.06-1.06L19 10.94l-2.72-2.72z"/></svg>