<svg xmlns="http://www.w3.org/2000/svg" width="24" height="24" viewBox="0 0 24 24">
  <defs/>
  <path d="M12,3.75 L12,20.25 C12,20.547 11.825,20.816 11.553,20.936 C11.282,21.057 10.965,21.005 10.745,20.805 L5.46,16 L2.75,16 C1.784,16 1,15.216 1,14.25 L1,9.75 C1,8.784 1.784,8 2.75,8 L5.46,8 L10.745,3.195 C10.965,2.995 11.282,2.943 11.553,3.064 C11.825,3.184 12,3.453 12,3.75 Z M6.255,9.305 C6.117,9.431 5.937,9.5 5.75,9.5 L2.75,9.5 C2.612,9.5 2.5,9.612 2.5,9.75 L2.5,14.25 C2.5,14.388 2.612,14.5 2.75,14.5 L5.75,14.5 C5.937,14.5 6.117,14.569 6.255,14.695 L10.5,18.555 L10.5,5.445 Z"/>
  <path d="M16.28,8.22 A0.75 0.75 0 1 0 15.22,9.28 L17.94,12 L15.22,14.72 A0.75 0.75 0 1 0 16.28,15.78 L19,13.06 L21.72,15.78 A0.75 0.75 0 1 0 22.78,14.72 L20.06,12 L22.78,9.28 A0.75 0.75 0 0 0 21.72,8.22 L19,10.94 L16.28,8.22 Z"/>
</svg>

