<svg width="24" height="24" viewBox="0 0 24 24" fill="none" xmlns="http://www.w3.org/2000/svg">
<path fill-rule="evenodd" clip-rule="evenodd" d="M2.5 12C2.5 6.75329 6.75329 2.5 12 2.5C17.2467 2.5 21.5 6.75329 21.5 12C21.5 17.2467 17.2467 21.5 12 21.5C6.75329 21.5 2.5 17.2467 2.5 12ZM12 1C5.92487 1 1 5.92487 1 12C1 18.0751 5.92487 23 12 23C18.0751 23 23 18.0751 23 12C23 5.92487 18.0751 1 12 1ZM18.25 12.75C18.6642 12.75 19 12.4142 19 12C19 11.5858 18.6642 11.25 18.25 11.25H5.75C5.33579 11.25 5 11.5858 5 12C5 12.4142 5.33579 12.75 5.75 12.75H18.25Z" fill="black"/>
</svg>
