<svg width="16" height="16" viewBox="0 0 16 16" fill="none" xmlns="http://www.w3.org/2000/svg">
<path fill-rule="evenodd" clip-rule="evenodd" d="M2.5 8C2.5 4.96243 4.96243 2.5 8 2.5C11.0376 2.5 13.5 4.96243 13.5 8C13.5 11.0376 11.0376 13.5 8 13.5C4.96243 13.5 2.5 11.0376 2.5 8ZM8 1C4.13401 1 1 4.13401 1 8C1 11.866 4.13401 15 8 15C11.866 15 15 11.866 15 8C15 4.13401 11.866 1 8 1ZM11.25 8.75011C11.6642 8.75011 12 8.41433 12 8.00011C12 7.5859 11.6642 7.25011 11.25 7.25011L4.75 7.25011C4.33579 7.25011 4 7.5859 4 8.00011C4 8.41433 4.33579 8.75011 4.75 8.75011L11.25 8.75011Z" fill="black"/>
</svg>
