<svg width="16" height="16" viewBox="0 0 16 16" fill="none" xmlns="http://www.w3.org/2000/svg">
<path d="M4.25 7.25C3.83579 7.25 3.5 7.58579 3.5 8C3.5 8.41421 3.83579 8.75 4.25 8.75H11.75C12.1642 8.75 12.5 8.41421 12.5 8C12.5 7.58579 12.1642 7.25 11.75 7.25H4.25Z" fill="#24292F"/>
<path fill-rule="evenodd" clip-rule="evenodd" d="M16 8C16 12.4183 12.4183 16 8 16C3.58172 16 0 12.4183 0 8C0 3.58172 3.58172 0 8 0C12.4183 0 16 3.58172 16 8ZM14.5 8C14.5 11.5899 11.5899 14.5 8 14.5C4.41015 14.5 1.5 11.5899 1.5 8C1.5 4.41015 4.41015 1.5 8 1.5C11.5899 1.5 14.5 4.41015 14.5 8Z" fill="#24292F"/>
</svg>
