<svg xmlns="http://www.w3.org/2000/svg" width="24" height="24" viewBox="0 0 24 24">
  <defs/>
  <path d="M12,1 C18.075,1 23,5.925 23,12 C23,18.075 18.075,23 12,23 C5.925,23 1,18.075 1,12 C1,5.925 5.925,1 12,1 Z M2.5,12 C2.5,17.247 6.753,21.5 12,21.5 C17.247,21.5 21.5,17.247 21.5,12 C21.5,6.753 17.247,2.5 12,2.5 C6.753,2.5 2.5,6.753 2.5,12 Z M18.25,12.75 L5.75,12.75 C5.336,12.75 5,12.414 5,12 C5,11.586 5.336,11.25 5.75,11.25 L18.25,11.25 C18.664,11.25 19,11.586 19,12 C19,12.414 18.664,12.75 18.25,12.75 Z"/>
</svg>

