<svg width="24" height="24" viewBox="0 0 24 24" fill="none" xmlns="http://www.w3.org/2000/svg">
<path d="M12 7C13.1046 7 14 6.10458 14 5C14 3.89542 13.1046 3 12 3C10.8954 3 10 3.89542 10 5C10 6.10458 10.8954 7 12 7Z" fill="black"/>
<path d="M12 21C13.1046 21 14 20.1046 14 19C14 17.8954 13.1046 17 12 17C10.8954 17 10 17.8954 10 19C10 20.1046 10.8954 21 12 21Z" fill="black"/>
<path d="M7.5 19H3.75C3.19772 19 2.75 18.5523 2.75 18V6C2.75 5.44772 3.19772 5 3.75 5H7.5" stroke="black" stroke-width="1.5" stroke-linecap="round"/>
<path d="M16.5 19H20.25C20.8023 19 21.25 18.5523 21.25 18V6C21.25 5.44772 20.8023 5 20.25 5H16.5" stroke="black" stroke-width="1.5" stroke-linecap="round"/>
</svg>
