<svg xmlns="http://www.w3.org/2000/svg" width="16" height="16" viewBox="0 0 16 16">
  <defs/>
  <path d="M8.5,0.75 A0.75 0.75 0 0 0 7,0.75 L7,5.94 L4.391,3.33 A0.75 0.75 0 1 0 3.331,4.391 L5.939,7 L0.75,7 A0.75 0.75 0 0 0 0.75,8.5 L5.94,8.5 L3.33,11.109 A0.75 0.75 0 1 0 4.391,12.169 L7,9.561 L7,14.75 A0.75 0.75 0 0 0 8.5,14.75 L8.5,9.56 L11.109,12.17 A0.75 0.75 0 1 0 12.169,11.109 L9.561,8.5 L14.75,8.5 A0.75 0.75 0 0 0 14.75,7 L9.56,7 L12.17,4.391 A0.75 0.75 0 0 0 11.109,3.331 L8.5,5.939 L8.5,0.75 Z"/>
</svg>

