<svg xmlns="http://www.w3.org/2000/svg" width="24" height="24" viewBox="0 0 24 24">
  <defs/>
  <path d="M12.5,1.25 A0.75 0.75 0 0 0 11,1.25 L11,9.94 L6.447,5.385 A0.75 0.75 0 1 0 5.386,6.445 L9.94,11 L1.25,11 A0.75 0.75 0 0 0 1.25,12.5 L9.94,12.5 L5.386,17.053 A0.75 0.75 0 0 0 6.446,18.114 L11,13.561 L11,22.25 A0.75 0.75 0 0 0 12.5,22.25 L12.5,13.56 L17.053,18.114 A0.75 0.75 0 0 0 18.114,17.054 L13.561,12.5 L22.25,12.5 A0.75 0.75 0 0 0 22.25,11 L13.56,11 L18.114,6.447 A0.75 0.75 0 1 0 17.054,5.386 L12.5,9.939 L12.5,1.25 Z"/>
</svg>

