<svg xmlns="http://www.w3.org/2000/svg" width="16" height="16" viewBox="0 0 16 16">
  <defs/>
  <path d="M0,3.75 C0,2.784 0.784,2 1.75,2 L14.25,2 C15.216,2 16,2.784 16,3.75 L16,12.25 C16,13.216 15.216,14 14.25,14 L1.75,14 C0.784,14 0,13.216 0,12.25 Z M1.75,3.5 C1.612,3.5 1.5,3.612 1.5,3.75 L1.5,12.25 C1.5,12.388 1.612,12.5 1.75,12.5 L14.25,12.5 C14.388,12.5 14.5,12.388 14.5,12.25 L14.5,3.75 C14.5,3.612 14.388,3.5 14.25,3.5 Z M3.5,6.25 C3.5,5.836 3.836,5.5 4.25,5.5 L11.25,5.5 C11.664,5.5 12,5.836 12,6.25 C12,6.664 11.664,7 11.25,7 L4.25,7 C3.836,7 3.5,6.664 3.5,6.25 Z M4.25,8.5 L8.25,8.5 C8.664,8.5 9,8.836 9,9.25 C9,9.664 8.664,10 8.25,10 L4.25,10 C3.836,10 3.5,9.664 3.5,9.25 C3.5,8.836 3.836,8.5 4.25,8.5 Z"/>
</svg>

