<svg xmlns="http://www.w3.org/2000/svg" width="16" height="16" viewBox="0 0 16 16"><path fill-rule="evenodd" d="M1 5.5a.75.75 0 01.75-.75h12.5a.75.75 0 110 1.5H1.75A.75.75 0 011 5.5zm0 5a.75.75 0 01.75-.75h12.5a.75.75 0 110 1.5H1.75A.75.75 0 011 10.5z"/><path fill-rule="evenodd" d="M10.5 1a.75.75 0 01.75.75v12.5a.75.75 0 11-1.5 0V1.75A.75.75 0 0110.5 1zm-5 0a.75.75 0 01.75.75v12.5a.75.75 0 11-1.5 0V1.75A.75.75 0 015.5 1z"/><path d="M0 0h16v16H0z"/><path fill-rule="evenodd" d="M1 5.25a.75.75 0 01.75-.75h12.5a.75.75 0 010 1.5H1.75A.75.75 0 011 5.25zm0 5.5a.75.75 0 01.75-.75h12.5a.75.75 0 010 1.5H1.75a.75.75 0 01-.75-.75z"/><path fill-rule="evenodd" d="M6.368 1.01a.75.75 0 01.623.859l-2 12.5a.75.75 0 01-1.482-.237l2-12.5a.75.75 0 01.86-.622zm5.5 0a.75.75 0 01.623.859l-2 12.5a.75.75 0 01-1.482-.237l2-12.5a.75.75 0 01.86-.622z"/></svg>