<svg width="16" height="16" viewBox="0 0 16 16" fill="none" xmlns="http://www.w3.org/2000/svg">
<path fill-rule="evenodd" clip-rule="evenodd" d="M14.7 5.34C14.83 5.02 15.25 3.75 14.57 2.03C14.57 2.03 13.52 1.7 11.13 3.33C10.13 3.05 9.06 3.01 8 3.01C6.94 3.01 5.87 3.05 4.87 3.33C2.48 1.69 1.43 2.03 1.43 2.03C0.75 3.75 1.17 5.02 1.3 5.34C0.49 6.21 0 7.33 0 8.69C0 13.84 3.33 15 7.98 15C12.63 15 16 13.84 16 8.69C16 7.33 15.51 6.21 14.7 5.34ZM8 14.02C4.7 14.02 2.02 13.87 2.02 10.67C2.02 9.90997 2.4 9.18997 3.04 8.59997C4.11 7.61997 5.94 8.13997 8 8.13997C10.07 8.13997 11.88 7.61997 12.96 8.59997C13.61 9.18997 13.98 9.89997 13.98 10.67C13.98 13.86 11.3 14.02 8 14.02ZM5.49 9.01001C4.83 9.01001 4.29 9.81001 4.29 10.79C4.29 11.77 4.83 12.58 5.49 12.58C6.15 12.58 6.69 11.78 6.69 10.79C6.69 9.80001 6.15 9.01001 5.49 9.01001ZM10.51 9.01001C9.85 9.01001 9.31 9.80001 9.31 10.79C9.31 11.78 9.85 12.58 10.51 12.58C11.17 12.58 11.71 11.78 11.71 10.79C11.71 9.80001 11.18 9.01001 10.51 9.01001Z" fill="#1B1F23"/>
</svg>
