<svg xmlns="http://www.w3.org/2000/svg" width="16" height="16" viewBox="0 0 16 16"><path d="M5 7a1 1 0 00-1 1v1a1 1 0 002 0V8a1 1 0 00-1-1zm5 3c0 1-1 2-2 2s-2-1-2-2h4zm1-3a1 1 0 00-1 1v1a1 1 0 102 0V8a1 1 0 00-1-1z"/><path fill-rule="evenodd" d="M1.326 1.973a1.2 1.2 0 011.49-.832c.387.112.977.307 1.575.602.586.291 1.243.71 1.7 1.296.022.028.042.056.061.084C6.721 3.043 7.336 3 8 3c.67 0 1.289.037 1.861.108l.051-.07c.457-.586 1.114-1.004 1.7-1.295a9.654 9.654 0 011.576-.602 1.2 1.2 0 011.49.832c.14.493.356 1.347.479 2.29.079.604.123 1.28.07 1.936.541.977.773 2.11.773 3.301C16 13 14.5 15 8 15s-8-2-8-5.5c0-1.034.238-2.128.795-3.117-.08-.712-.034-1.46.052-2.12.122-.943.34-1.797.479-2.29zM14 8.796c.5 2.27 0 4.27-6 4.27s-6.5-2-6-4.27C2.637 5.904 4.75 5 8 5s5.363.904 6 3.796z"/></svg>