<svg xmlns="http://www.w3.org/2000/svg" width="16" height="16" viewBox="0 0 16 16"><path d="M2.832 12.991c.478.585 1.341.62 1.915-.025l5.628-6.317a.381.381 0 0 0 0-.535c-.146-.164-.331-.164-.477 0l-4.655 5.225a.651.651 0 0 1-.488.219.655.655 0 0 1-.486-.228.826.826 0 0 1-.203-.545.828.828 0 0 1 .195-.548l4.655-5.226c.159-.183.348-.329.558-.429a1.55 1.55 0 0 1 1.325 0c.21.1.4.246.558.429.164.178.293.391.382.626.089.236.134.489.134.744 0 .256-.045.509-.134.744a1.924 1.924 0 0 1-.382.627L5.73 14.069c-1.089 1.223-2.86 1.263-3.912-.011-1.078-1.224-1.11-3.201.021-4.378L8.43 2.281c1.521-1.708 3.907-1.708 5.429 0 1.521 1.708 1.521 4.387 0 6.095a.66.66 0 0 1-.489.219.66.66 0 0 1-.485-.229.83.83 0 0 1-.204-.545.839.839 0 0 1 .195-.548 2.94 2.94 0 0 0 0-3.889c-.979-1.1-2.484-1.1-3.464 0l-6.601 7.409-.021.024c-.521.536-.553 1.504.021 2.149l.021.025Z"/><path d="M12.25 9.5a.75.75 0 0 1 .75.75v1.25h1.25a.75.75 0 0 1 0 1.5H13v1.25a.75.75 0 0 1-1.5 0V13h-1.25a.75.75 0 0 1 0-1.5h1.25v-1.25a.75.75 0 0 1 .75-.75Z"/></svg>