<svg xmlns="http://www.w3.org/2000/svg" width="24" height="24" viewBox="0 0 24 24"><path d="M16.542 3.448a2.57 2.57 0 0 1 1.822.759 2.605 2.605 0 0 1 0 3.667L9.75 16.541a1.058 1.058 0 0 1-.748.321c-.267 0-.53-.11-.736-.313l-.005-.006-.014-.024a1.27 1.27 0 0 1-.137-.554c.002-.284.115-.556.315-.757l7.62-7.667a.718.718 0 0 0 .201-.693.7.7 0 0 0-.507-.511.701.701 0 0 0-.688.204l-7.62 7.667a2.502 2.502 0 0 0-.727 1.757c.002.305.055.606.158.892.086.242.219.5.403.685a2.46 2.46 0 0 0 1.737.734 2.462 2.462 0 0 0 1.741-.734l8.615-8.668a4.005 4.005 0 0 0 1.056-1.799 4.016 4.016 0 0 0-1.023-3.901 3.97 3.97 0 0 0-3.877-1.029 3.968 3.968 0 0 0-1.788 1.062l-9.111 9.168A5.673 5.673 0 0 0 3 16.366a5.674 5.674 0 0 0 1.647 3.977A5.607 5.607 0 0 0 8.6 22a5.604 5.604 0 0 0 3.966-1.625l1.557-1.568a.707.707 0 0 0-.5-1.198.703.703 0 0 0-.494.199l-1.557 1.567a4.203 4.203 0 0 1-5.964 0 4.256 4.256 0 0 1-1.235-3c0-1.126.444-2.205 1.235-3.001l9.112-9.167a2.568 2.568 0 0 1 1.822-.759Z"/><path d="M18.2 13.7a.7.7 0 1 0-1.4 0v2.1h-2.1a.7.7 0 1 0 0 1.4h2.1v2.1a.7.7 0 1 0 1.4 0v-2.1h2.1a.7.7 0 1 0 0-1.4h-2.1v-2.1Z"/></svg>