<svg xmlns="http://www.w3.org/2000/svg" width="24" height="24" viewBox="0 0 24 24"><path d="M4.219 12.683c-.031-.033-.031-.066-.063-.099 0 0-.031-.033-.031-.066s-.031-.033-.031-.066v-.033c0-.032-.032-.065-.032-.065 0-.033-.031-.066-.031-.099v-.099c0-.033 0-.033-.031-.065v-.198c.031-.033.031-.066.031-.099v-.065c0-.033.031-.066.031-.099s.032-.066.032-.066v-.033c0-.033.031-.066.031-.066 0-.033.031-.066.031-.066.032-.032.032-.065.063-.098 0-.033.031-.033.031-.066l.062-.066.032-.033 5.468-5.791c.469-.46 1.219-.46 1.657 0 .469.494.469 1.284 0 1.744L8 10.774h10.844c.406 0 .75.198.968.527.126.197.188.428.188.691 0 .329-.125.658-.344.855-.218.231-.5.362-.812.362H8l3.469 3.685c.469.461.469 1.251 0 1.744-.219.23-.5.362-.813.362-.312 0-.594-.132-.844-.362l-5.468-5.791-.032-.033c0-.033-.031-.033-.062-.066 0-.032-.031-.032-.031-.065Z"/></svg>