<svg xmlns="http://www.w3.org/2000/svg" width="24" height="24" viewBox="0 0 24 24"><path d="M18.803 17.594c-.274-.438-1.216-.75-2.159-1.156-.942-.407-1.155-.532-1.155-.532v-.968s.334-.282.456-1.157c.213.063.456-.343.456-.562 0-.219-.03-.781-.304-.719a8.92 8.92 0 0 0 .091-1.031c-.091-.781-.79-1.563-1.885-1.563-1.094 0-1.793.782-1.854 1.563-.031.187 0 .593.061 1.031-.274-.062-.304.5-.304.719.03.219.243.625.456.562.121.875.486 1.157.486 1.157l-.03.968s-.213.125-1.156.532c-.942.406-1.885.718-2.158 1.156C9.56 18 9.621 20 9.621 20h9.364s.092-1.969-.182-2.406Zm-6.05-12.156 3.192 3.281 1.003-1L13.361 4H5v16h3.071v-1.438H6.399V5.438h6.354Z"/></svg>