<svg xmlns="http://www.w3.org/2000/svg" width="24" height="24" viewBox="0 0 24 24"><path d="M12 4c-4.412 0-8 3.588-8 8s3.588 8 8 8 8-3.588 8-8-3.588-8-8-8Zm0 14.749c-3.687 0-6.749-3.062-6.749-6.749S8.313 5.251 12 5.251 18.749 8.313 18.749 12 15.687 18.749 12 18.749Zm0-12.115a5.367 5.367 0 1 0 .001 10.733A5.367 5.367 0 0 0 12 6.634Zm0 1.053c.329 0 .527.099.724.297.231.23.329.428.329.757 0 .625-.427 1.053-1.053 1.053-.626 0-1.053-.428-1.053-1.053 0-.329.098-.527.329-.757A.917.917 0 0 1 12 7.687Zm1.679 8.428c-.197.099-.428 0-.626-.23v-.099c-.427-.625-.724-1.481-1.053-2.304-.329.823-.626 1.679-1.053 2.403v.132c-.198.197-.429.296-.626.197-.099-.099-.23-.329-.099-.527 0-.099 0-.099.099-.197.428-.856.823-1.811 1.053-2.766v-1.58c-.856 0-1.679-.099-2.534-.197-.198 0-.428-.198-.428-.429 0-.197.23-.427.428-.427 2.107.23 4.115.23 6.222 0 .197 0 .428.131.526.427 0 .231-.23.429-.427.429-.856.098-1.679.098-2.535.098v1.482c.23 1.053.625 1.909 1.053 2.732 0 .099.099.099.099.231.131.296.131.527-.099.625Z"/></svg>