<svg xmlns="http://www.w3.org/2000/svg" width="24" height="24" viewBox="0 0 24 24"><path d="M7.111 20c-.626 0-1.252-.298-1.815-.928l-.094-.066c-.595-.63-2.378-3.216 0-5.868 1.173-1.34 2.801-3.034 4.526-4.829l.075-.078 2.879-3.05c1.753-1.856 3.036-1.425 5.039.597 2.347 2.354 2.785 4.708 1.753 5.934-.286.352-.742.874-1.284 1.478l-1.054-1.054c.529-.587.97-1.088 1.242-1.418.313-.398.345-1.79-1.658-3.813a15.247 15.247 0 0 1-.49-.534c-.804-.906-1.247-1.406-2.515-.062-.97 1.027-1.94 2.055-2.879 3.016-1.753 1.824-3.38 3.548-4.57 4.874-1.377 1.558-.688 3.016-.031 3.679l.094.1c.532.563.97.729 1.752-.1.085-.089.206-.212.355-.364.239-.244.55-.561.897-.929 1.597-1.624 4.538-4.674 5.133-5.469.188-.233.47-.862.188-1.094-.344-.332-1.033.331-1.221.563-1.916 2.122-4.371 4.644-4.741 5.024l-.047.048a.707.707 0 0 1-1.033 0c-.282-.331-.282-.795 0-1.094l.047-.049c.371-.38 2.823-2.899 4.71-4.99 1.346-1.492 2.567-1.326 3.255-.663.876.796.657 2.354 0 3.249-.524.666-2.234 2.449-4.136 4.432l-1.122 1.171a30.9 30.9 0 0 0-1.252 1.259C8.457 19.669 7.8 20 7.111 20Z"/><path d="M16.75 14h-1.5v2.25H13v1.5h2.25V20h1.5v-2.25H19v-1.5h-2.25V14Z"/></svg>