<svg xmlns="http://www.w3.org/2000/svg" width="24" height="24" viewBox="0 0 24 24"><path d="M14.485 7.507c0 1.937-1.483 3.507-3.313 3.507-1.829 0-3.312-1.57-3.312-3.507S9.343 4 11.172 4c1.83 0 3.313 1.57 3.313 3.507Zm-5.968 7.597a1.498 1.498 0 0 0-.258.792 1.508 1.508 0 0 0 .36 1.055l1.493 1.7H5.944a.946.946 0 0 1-.669-.313A1.057 1.057 0 0 1 5 17.621v-2.776a.538.538 0 0 1 .097-.314 7.889 7.889 0 0 1 2.746-2.117 7.466 7.466 0 0 1 3.334-.689 7.846 7.846 0 0 1 4.645 1.452l-3.327 3.929-1.877-2.137a1.347 1.347 0 0 0-.683-.422 1.292 1.292 0 0 0-.789.051 1.363 1.363 0 0 0-.629.506Zm7.894 3.547a.946.946 0 0 0 .669-.313c.176-.192.275-.449.275-.717v-1.936l-2.496 2.966h1.552Z"/><path d="M18.683 11.657a.485.485 0 0 1 .316.452.528.528 0 0 1-.117.362L12.539 20 9.29 16.292a.536.536 0 0 1 0-.731.483.483 0 0 1 .354-.122.472.472 0 0 1 .332.179l2.529 2.878 5.652-6.694a.464.464 0 0 1 .526-.145Z"/></svg>