<svg xmlns="http://www.w3.org/2000/svg" width="24" height="24" viewBox="0 0 24 24"><path d="M7.111 20c-.626 0-1.252-.298-1.815-.928l-.094-.066c-.595-.63-2.378-3.216 0-5.868 1.189-1.359 2.848-3.083 4.601-4.907l2.879-3.05c1.753-1.856 3.036-1.425 5.039.597 2.347 2.354 2.785 4.708 1.753 5.934-1.346 1.658-6.447 7.061-6.667 7.294a.707.707 0 0 1-1.032 0 .813.813 0 0 1 0-1.094c.062-.034 5.289-5.603 6.603-7.194.313-.398.345-1.79-1.658-3.813-1.158-1.193-1.503-2.188-3.005-.596-.97 1.027-1.94 2.055-2.879 3.016-1.753 1.824-3.38 3.548-4.57 4.874-1.377 1.558-.688 3.016-.031 3.679l.094.1c.532.563.97.729 1.752-.1.22-.232.689-.696 1.252-1.293 1.597-1.624 4.538-4.674 5.133-5.469.188-.233.47-.862.188-1.094-.344-.332-1.033.331-1.221.563-2.065 2.288-4.757 5.039-4.788 5.072a.707.707 0 0 1-1.033 0c-.282-.331-.282-.795 0-1.094.031-.033 2.723-2.784 4.757-5.039 1.346-1.492 2.567-1.326 3.255-.663.876.796.657 2.354 0 3.249-.626.796-2.942 3.183-5.258 5.603a30.9 30.9 0 0 0-1.252 1.259C8.457 19.669 7.8 20 7.111 20Z"/></svg>