<svg width="16" height="16" viewBox="0 0 16 16" fill="none" xmlns="http://www.w3.org/2000/svg">
<path fill-rule="evenodd" clip-rule="evenodd" d="M9.46967 13.7803C9.17678 13.4874 9.17678 13.0126 9.46967 12.7197L12.4393 9.75H6C3.3767 9.75 1.25 7.62337 1.25 5V2.5C1.25 2.0858 1.5858 1.75 2 1.75C2.4142 1.75 2.75 2.0858 2.75 2.5V5C2.75 6.79493 4.2051 8.25 6 8.25H12.4393L9.46967 5.2803C9.17678 4.9874 9.17678 4.5126 9.46967 4.2197C9.76256 3.9268 10.2374 3.9268 10.5303 4.2197L14.7803 8.46967C15.0732 8.76256 15.0732 9.23744 14.7803 9.53033L10.5303 13.7803C10.2374 14.0732 9.76256 14.0732 9.46967 13.7803Z" fill="#24292F"/>
</svg>
