<svg xmlns="http://www.w3.org/2000/svg" width="16" height="16" viewBox="0 0 16 16"><path d="M4.75 0a.75.75 0 0 1 .75.75V2h5V.75a.75.75 0 0 1 1.5 0V2h1.25c.967 0 1.75.783 1.75 1.75v10.5A1.75 1.75 0 0 1 13.25 16H10v-1.5h3.25a.25.25 0 0 0 .25-.25V7.5h-11V10H1V3.75C1 2.783 1.783 2 2.75 2H4V.75A.75.75 0 0 1 4.75 0Zm8.5 3.5H2.75a.25.25 0 0 0-.25.25V6h11V3.75a.25.25 0 0 0-.25-.25Zm-8.2 11.542a.687.687 0 0 1 .163-.224l1.226-1.13H1.75a.782.782 0 0 1-.53-.203.664.664 0 0 1-.22-.489c0-.184.079-.36.22-.49a.786.786 0 0 1 .53-.202h4.688l-1.225-1.131a.668.668 0 0 1-.211-.487.666.666 0 0 1 .22-.483.786.786 0 0 1 .525-.203.783.783 0 0 1 .527.195l2.506 2.311c.07.064.125.14.163.224a.645.645 0 0 1 0 .53.69.69 0 0 1-.163.225l-2.506 2.312a.802.802 0 0 1-1.061 0 .697.697 0 0 1-.163-.224.646.646 0 0 1 0-.531Z"/></svg>