<svg xmlns="http://www.w3.org/2000/svg" width="24" height="24" viewBox="0 0 24 24"><path d="M12.526 4.018a8.027 8.027 0 0 1 5.485 2.758 8.054 8.054 0 0 1 1.975 5.804A8.01 8.01 0 0 1 11.993 20h-.564c-2.351-.19-4.514-1.364-5.893-3.266l1.285-.983a6.387 6.387 0 0 0 4.702 2.568c3.51.254 6.582-2.378 6.801-5.866a6.22 6.22 0 0 0-1.536-4.598C15.66 6.586 14.124 5.793 12.4 5.698a6.365 6.365 0 0 0-5.61 2.601l1.034.507-3.354 2.695L4 6.872l1.348.666a7.989 7.989 0 0 1 7.178-3.52Zm-1.232 8.755A.623.623 0 0 1 11 12.24V9.618c0-.354.283-.673.673-.673.355 0 .638.319.638.673v2.288l3.047 2.425a.67.67 0 0 1 .107.921.639.639 0 0 1-.532.248.531.531 0 0 1-.39-.142Z"/></svg>