<svg xmlns="http://www.w3.org/2000/svg" width="24" height="24" viewBox="0 0 24 24"><path d="M12.157 17.773c-.69 0-1.224-.565-1.224-1.224 0-.69.534-1.224 1.224-1.224.659 0 1.223.534 1.223 1.224 0 .659-.564 1.224-1.223 1.224Zm.69-4.267c-.031.251-.063.282-.282.282h-.847c-.189 0-.251-.031-.283-.282l-.313-5.679c-.032-.251-.032-.188-.032-.282 0-.188.157-.188.251-.188h1.569c.094 0 .282 0 .282.188v.282l-.345 5.679ZM12 4c-4.424 0-8 3.576-8 8 0 4.424 3.576 8 8 8 4.424 0 8-3.576 8-8 0-4.424-3.576-8-8-8Zm0 14.808A6.802 6.802 0 0 1 5.192 12 6.802 6.802 0 0 1 12 5.192 6.802 6.802 0 0 1 18.808 12 6.802 6.802 0 0 1 12 18.808Z"/></svg>