<svg xmlns="http://www.w3.org/2000/svg" width="24" height="24" viewBox="0 0 24 24"><path d="M6 20V4h5.694c1.102 0 1.99.095 2.755.286.735.222 1.347.508 1.837.889.459.349.826.825 1.04 1.333.215.54.307 1.143.307 1.809 0 .35-.031.699-.153 1.016a2.72 2.72 0 0 1-.46.953 4.076 4.076 0 0 1-.826.793 4.942 4.942 0 0 1-1.225.603c1.041.255 1.807.699 2.296 1.27.49.572.735 1.334.735 2.223 0 .698-.122 1.333-.367 1.904a4.672 4.672 0 0 1-1.133 1.556 5.735 5.735 0 0 1-1.837 1.016c-.704.254-1.53.349-2.479.349H6Zm3.582-9.333h1.898c.367 0 .734-.032 1.071-.064.306-.063.582-.19.827-.317.214-.159.397-.349.489-.603.123-.254.184-.54.184-.953 0-.349-.031-.667-.122-.92a1.43 1.43 0 0 0-.429-.604 2.577 2.577 0 0 0-.735-.317 5.15 5.15 0 0 0-1.071-.095H9.582v3.873Zm0 6.539h2.54c.46 0 .858-.063 1.164-.19a2.35 2.35 0 0 0 .704-.476c.153-.191.275-.413.336-.667.062-.254.092-.508.092-.762 0-.286-.03-.571-.122-.793a1.237 1.237 0 0 0-.367-.604 2.065 2.065 0 0 0-.735-.381 4.858 4.858 0 0 0-1.102-.127h-2.51v4Z"/></svg>