<svg xmlns="http://www.w3.org/2000/svg" width="24" height="24" viewBox="0 0 24 24"><path d="M6.087 5v4.2H4.696V5h1.391ZM4.696 19v-4.2h1.391V19H4.696Zm2.087-7a1.392 1.392 0 1 1-2.756-.273 1.39 1.39 0 0 1 1.897-1.02A1.406 1.406 0 0 1 6.783 12Zm7.652-5.6C17.51 6.4 20 8.906 20 12s-2.49 5.6-5.565 5.6c-2.505 0-4.619-1.666-5.322-3.955L7.478 12l1.635-1.645C9.816 8.066 11.93 6.4 14.435 6.4Zm0 1.4c-2.303 0-4.174 1.883-4.174 4.2s1.871 4.2 4.174 4.2c2.302 0 4.174-1.883 4.174-4.2s-1.872-4.2-4.174-4.2Zm-.696 4.9V9.2h1.044v2.94l2.087 1.26-.571.882-2.56-1.582Z"/></svg>