<svg xmlns="http://www.w3.org/2000/svg" width="16" height="16" viewBox="0 0 16 16"><path d="M0 1.778C0 1.348.336 1 .75 1h4.253c1.227 0 2.317.611 3.001 1.557C8.688 1.611 9.778 1 11.005 1h4.245c.414 0 .75.348.75.778V8c0 .43-.336.778-.75.778A.764.764 0 0 1 14.5 8V2.556h-3.495c-1.243 0-2.25 1.044-2.25 2.333l-.004 7.594c.105-.068.213-.131.323-.188.454-.234.926.163.926.689 0 .354-.225.658-.509.855-.121.084-.235.18-.339.289l-.622.644a.73.73 0 0 1-1.06 0l-.622-.644a2.209 2.209 0 0 0-1.591-.684H.75a.764.764 0 0 1-.75-.777Zm7.255 5.445-.002-2.336c-.001-1.288-1.008-2.331-2.25-2.331H1.5v9.333h3.757a3.65 3.65 0 0 1 1.994.595Z"/><path d="M14.41 9.504a.665.665 0 0 1 .966 0l.424.44a.727.727 0 0 1 0 1.002l-3.362 3.486a.68.68 0 0 1-.295.18l-1.27.376a.283.283 0 0 1-.287-.077.312.312 0 0 1-.075-.298l.363-1.316a.717.717 0 0 1 .174-.307Zm.552.429a.096.096 0 0 0-.138 0l-.493.512.562.582.493-.511a.104.104 0 0 0 0-.143Z"/></svg>