<svg xmlns="http://www.w3.org/2000/svg" width="16" height="16" viewBox="0 0 16 16"><path d="M8.966 3.788a8.806 8.806 0 0 1 1.562 3.14c.384 1.453.334 2.617.217 3.381.165-.033.303-.067.411-.096.31-.083.576-.234.792-.449.198-.199.347-.443.456-.71a26.774 26.774 0 0 0-.538-2.496 25.863 25.863 0 0 0-.785-2.481c-.13-.342-.271-.681-.421-1-.272-.575-.575-1.082-.898-1.405l-.088-.086a5.752 5.752 0 0 0-.625-.519l-.016-.011a5.73 5.73 0 0 0-7.36.617 5.731 5.731 0 0 0-.648 7.318c.02-.093.042-.186.067-.279.192-.715.775-1.588 1.435-2.406.194-1.05.893-2.053 1.309-2.47.454-.454 1.459-1.151 2.504-1.329a2.51 2.51 0 0 1 1.064.03c.337.088.658.261.946.549a8.104 8.104 0 0 1 .616.702Z"/><path d="M10.326 10.718a8.804 8.804 0 0 1-3.5-.217c-1.45-.394-2.433-1.019-3.036-1.503a6.497 6.497 0 0 0-.123.404c-.083.31-.085.616-.006.91.072.272.209.522.386.75.93.356 1.875.631 2.43.782.564.154 1.538.399 2.541.561.361.059.725.106 1.077.135.634.053 1.224.044 1.665-.074l.12-.034c.263-.077.517-.171.761-.282l.076-.034a5.733 5.733 0 0 0 3.088-6.657 5.73 5.73 0 0 0-6.013-4.22c.07.064.139.13.207.197.524.524.988 1.465 1.366 2.446.813.693 1.332 1.8 1.484 2.369.167.62.268 1.839-.1 2.833-.126.34-.307.653-.558.907a2.06 2.06 0 0 1-.949.544 8.137 8.137 0 0 1-.916.183Z"/><path d="M5.582 5.507a8.783 8.783 0 0 0-2.178 3.6 5.24 5.24 0 0 0-.059.208 2.061 2.061 0 0 0-.004 1.094c.095.345.276.657.507.936.676.816 1.783 1.338 2.403 1.504.569.152 1.787.256 2.793-.101 1.039.163 2.086.231 2.801.04.093-.025.185-.052.275-.081a5.73 5.73 0 0 1-6.661 3.097 5.73 5.73 0 0 1-4.221-6.001l.007-.072.001-.012a5.87 5.87 0 0 1 .168-.921c.118-.441.405-.956.768-1.48.2-.289.424-.581.655-.864a25.826 25.826 0 0 1 1.756-1.921A26.887 26.887 0 0 1 6.486 2.82c.285-.039.571-.032.842.04.294.079.558.234.785.461.079.079.178.182.289.309-.721.28-1.753.819-2.82 1.877Z"/></svg>