<svg xmlns="http://www.w3.org/2000/svg" width="24" height="24" viewBox="0 0 24 24"><path d="M18.549 8.4a1 1 0 0 0-1-1H6.451a1 1 0 0 0-1 1v3.04a1 1 0 0 0 1 1h3.829a5.185 5.185 0 0 0-.187 1.4H5a1 1 0 0 1-1-1V7a1 1 0 0 1 1-1h14a1 1 0 0 1 1 1v3.433a5.538 5.538 0 0 0-1.451-1.219V8.4Z"/><path d="M13.262 10.344a4.446 4.446 0 0 1 2.406-.704c1.149 0 2.251.44 3.063 1.224A4.105 4.105 0 0 1 20 13.82c0 .827-.254 1.635-.73 2.322a4.3 4.3 0 0 1-1.944 1.54 4.484 4.484 0 0 1-2.503.238 4.388 4.388 0 0 1-2.217-1.144 4.138 4.138 0 0 1-1.186-2.141 4.045 4.045 0 0 1 .247-2.415 4.22 4.22 0 0 1 1.595-1.876Zm2.124 3.204H13.38l.019.562 1.987-.018-.018 1.918.582.018v-1.936h2.006l-.019-.562-1.987.018.019-1.918-.583-.018Z"/></svg>