<svg xmlns="http://www.w3.org/2000/svg" width="16" height="16" viewBox="0 0 16 16"><path d="M1 1.724c0-.4.324-.724.724-.724h2.897a.724.724 0 1 1 0 1.448H1.724A.724.724 0 0 1 1 1.724Zm4.828 0c0-.4.324-.724.724-.724h2.896a.724.724 0 1 1 0 1.448H6.552a.724.724 0 0 1-.724-.724Zm4.827 0c0-.4.324-.724.724-.724h2.897a.724.724 0 1 1 0 1.448h-2.897a.724.724 0 0 1-.724-.724ZM1 4.621c0-.933.756-1.69 1.69-1.69h.965c.933 0 1.69.757 1.69 1.69v8.689A1.69 1.69 0 0 1 3.655 15H2.69A1.69 1.69 0 0 1 1 13.31Zm1.69-.242a.242.242 0 0 0-.242.242v8.689c0 .134.108.242.242.242h.965a.242.242 0 0 0 .242-.242V4.621a.242.242 0 0 0-.242-.242Zm3.138.242c0-.933.756-1.69 1.689-1.69h.966a1.69 1.69 0 0 1 1.689 1.69v2.896a1.69 1.69 0 0 1-1.689 1.69h-.966a1.69 1.69 0 0 1-1.689-1.69Zm1.689-.242a.241.241 0 0 0-.241.242v2.896c0 .134.108.242.241.242h.966a.241.241 0 0 0 .241-.242V4.621a.241.241 0 0 0-.241-.242Zm3.138.242c0-.933.757-1.69 1.69-1.69h.965c.933 0 1.69.757 1.69 1.69v5.827a1.69 1.69 0 0 1-1.69 1.69h-.965a1.69 1.69 0 0 1-1.69-1.69Zm1.69-.242a.241.241 0 0 0-.241.242v5.827c0 .134.108.242.241.242h.965a.242.242 0 0 0 .242-.242V4.621a.242.242 0 0 0-.242-.242Z"/></svg>