<svg xmlns="http://www.w3.org/2000/svg" width="24" height="24" viewBox="0 0 24 24"><path d="M17 5V4h-1v1h-2V4h-1v1h-2V4h-1v1H8V4H7v1H4v15h16V5h-3Zm1 13H6V7h1v1h1V7h2v1h1V7h2v1h1V7h2v1h1V7h1v11Zm-6.406-1.312v-.844c-.594-.032-1.188-.188-1.5-.375l.25-1.063c.375.219.906.406 1.5.406.5 0 .875-.218.875-.562 0-.344-.313-.562-.969-.781-.969-.344-1.625-.781-1.625-1.657 0-.781.563-1.406 1.531-1.593v-.875h.875v.812c.594.032 1 .156 1.313.282l-.25 1.031c-.25-.094-.656-.313-1.313-.313-.593 0-.781.25-.781.5 0 .313.312.5 1.094.782 1.062.374 1.5.874 1.5 1.687 0 .781-.563 1.469-1.594 1.656v.907h-.906Z"/></svg>