<svg xmlns="http://www.w3.org/2000/svg" width="16" height="16" viewBox="0 0 16 16"><path d="M3.636 1.308c1.424-.411 3.156-.411 4.58 0 .715.207 1.344.514 1.811.919.467.404.825.958.825 1.625s-.358 1.221-.825 1.625c-.467.404-1.096.712-1.811.918-1.424.412-3.156.412-4.58 0a5.679 5.679 0 0 1-1.08-.427v1.341c0 .042.003.097.123.207.143.133.393.284.799.466a.776.776 0 1 1-.635 1.419 8.387 8.387 0 0 1-.287-.134v1.498c0 .042.003.098.123.208.143.133.393.284.799.465a.778.778 0 0 1-.635 1.42c-.443-.198-.885-.432-1.22-.742-.36-.333-.623-.779-.623-1.351V3.852c0-.667.358-1.221.825-1.625.467-.405 1.096-.712 1.811-.919Zm-.793 2.993c.249.216.656.436 1.225.6 1.142.33 2.574.33 3.716 0 .569-.164.976-.384 1.225-.6.25-.216.287-.375.287-.449 0-.074-.037-.233-.287-.449-.249-.216-.656-.436-1.225-.6-1.142-.33-2.574-.33-3.716 0-.569.164-.976.384-1.225.6-.25.216-.287.375-.287.449 0 .074.037.233.287.449Z"/><path d="M6.793 7.22c.88-.44 2.041-.689 3.281-.689 1.24 0 2.401.249 3.281.689C14.189 7.637 15 8.357 15 9.383v2.765c0 1.026-.812 1.745-1.645 2.162-.88.44-2.041.69-3.281.69-1.24 0-2.401-.25-3.281-.69-.833-.417-1.645-1.136-1.645-2.162V9.376c.004-1.022.813-1.74 1.645-2.156Zm6.651 2.161c-.001-.121-.12-.437-.784-.769-.622-.311-1.535-.526-2.586-.526s-1.964.215-2.585.526c-.668.334-.785.651-.785.771 0 .119.117.437.785.771.621.31 1.534.525 2.585.525s1.964-.215 2.586-.525c.663-.332.783-.648.784-.769v-.004Zm0 2.767v-.649l-.089.046c-.88.44-2.041.69-3.281.69-1.24 0-2.401-.25-3.281-.69l-.089-.046v.649c0 .119.117.437.785.771.621.311 1.534.525 2.585.525s1.964-.214 2.585-.525c.669-.334.785-.652.785-.771Z"/></svg>