<svg xmlns="http://www.w3.org/2000/svg" width="16" height="16" viewBox="0 0 16 16"><path d="M1 .5a.75.75 0 0 1 .75.75v4a.75.75 0 0 1-1.5 0v-4A.75.75 0 0 1 1 .5Zm0 10a.75.75 0 0 1 .75.75v4a.75.75 0 0 1-1.5 0v-4A.75.75 0 0 1 1 10.5Zm1-2.25a1 1 0 1 1-2 0 1 1 0 0 1 2 0Zm8 6a6 6 0 1 1 0-12 6 6 0 0 1 0 12Zm0-1.5a4.5 4.5 0 1 0 0-9 4.5 4.5 0 0 0 0 9Z"/><path d="M10.28 5.47c.141.14.22.331.22.53v1.992l1.028.812a.747.747 0 0 1 .397.966.75.75 0 0 1-.954.426l-1.5-1A.753.753 0 0 1 9 8.5V6c0-.199.079-.39.22-.53a.747.747 0 0 1 1.06 0Z"/></svg>