<svg xmlns="http://www.w3.org/2000/svg" width="24" height="24" viewBox="0 0 24 24"><path d="M10.651 19v-1.286H9.333V19h1.318Zm-1.318-1.286v-1.257H7.984v1.257h1.349ZM6.667 5v1.286h1.317V5H6.667Zm6.682 14h1.318v-1.286h-1.318V19Zm1.318-1.286h1.349v-1.257h-1.349v1.257Zm4.015-5.086v-1.256h-1.349V7.543h-1.317V6.286h-1.349v1.257H9.333V6.286H7.984v1.257H6.667v3.829H5.318v1.256H4v3.829h1.318v-2.542h1.349v2.542h1.317v-1.286h8.032v1.286h1.317v-2.542h1.349v2.542H20v-3.829h-1.318Zm-10.698 0v-2.543h1.349v2.543H7.984Zm6.683 0v-2.543h1.349v2.543h-1.349ZM17.333 5h-1.317v1.286h1.317V5Z"/></svg>