<svg xmlns="http://www.w3.org/2000/svg" width="24" height="24" viewBox="0 0 24 24"><path d="m20 16.677-4.016-2.294v1.132h-1.349c.188-.298.377-.596.502-.953.22-.537.314-1.073.251-1.668 0-.685-.157-1.311-.439-1.847a5.079 5.079 0 0 0-1.098-1.37c-.502-.477-1.098-.775-1.725-.983a4.896 4.896 0 0 0-1.757-.209c-.095-.119-.22-.268-.283-.417a1.628 1.628 0 0 1-.094-.536c0-.209.063-.417.157-.596.063-.179.157-.298.314-.447a1.32 1.32 0 0 1 .564-.327c.157-.06.346-.09.565-.09.439.03.785.149 1.098.447.157.179.283.328.345.507l-.909.327 2.007.864.91-1.847-.91.298c-.125-.328-.345-.625-.596-.894A2.752 2.752 0 0 0 11.592 5c-.345 0-.659.03-.972.119a2.734 2.734 0 0 0-.973.596 2.16 2.16 0 0 0-.565.745c-.157.327-.251.655-.219 1.042-.032.328.031.626.157.924a.583.583 0 0 0 .125.238c-.847.238-1.6.655-2.227 1.281a4.513 4.513 0 0 0-1.067 1.638l-1.631-.536 1.694 3.306 3.545-1.638-1.632-.536a2.38 2.38 0 0 1 .597-.894c.564-.536 1.192-.834 1.976-.864.377-.029.722.03 1.035.119.377.12.691.328.973.566.314.268.502.507.659.805.156.298.251.685.251 1.042a2.51 2.51 0 0 1-.126.983 4.582 4.582 0 0 1-.627.953 3.05 3.05 0 0 1-1.004.656H4v2.293h11.984V19L20 16.677Z"/></svg>