<svg xmlns="http://www.w3.org/2000/svg" width="24" height="24" viewBox="0 0 24 24"><path d="M6 19.5V6a2 2 0 0 1 2-2h8a2 2 0 0 1 2 2v13.5a.502.502 0 0 1-.245.43.492.492 0 0 1-.495.009L12 17.069l-5.26 2.87a.492.492 0 0 1-.495-.009A.499.499 0 0 1 6 19.5Zm6.16-11.4a.179.179 0 0 0-.32 0l-.634 1.285a.176.176 0 0 1-.134.098l-1.42.206a.185.185 0 0 0-.089.04.178.178 0 0 0-.057.178.172.172 0 0 0 .048.085l1.026 1.001c.042.041.061.1.051.158l-.241 1.414a.179.179 0 0 0 .163.207.183.183 0 0 0 .095-.02l1.27-.668a.18.18 0 0 1 .165 0l1.27.668a.173.173 0 0 0 .095.019.177.177 0 0 0 .162-.206l-.242-1.415a.188.188 0 0 1 .005-.085.183.183 0 0 1 .045-.073l1.028-1.001a.172.172 0 0 0 .048-.085.178.178 0 0 0-.003-.097.178.178 0 0 0-.143-.121l-1.42-.206a.172.172 0 0 1-.079-.032.184.184 0 0 1-.055-.066Z"/></svg>