<svg xmlns="http://www.w3.org/2000/svg" width="16" height="16" viewBox="0 0 16 16"><path d="M12.084 6.306a.652.652 0 0 0 .943 0 .704.704 0 0 0 0-.973l-.862-.89h1.279c.123 0 .223.102.223.229v7.344c0 .127-.1.23-.223.23h-1.777a.678.678 0 0 0-.667.688c0 .381.299.689.667.689h1.777c.86 0 1.556-.719 1.556-1.607V4.672c0-.887-.696-1.606-1.556-1.606h-1.279l.862-.891a.704.704 0 0 0 0-.973.652.652 0 0 0-.943 0l-2 2.065a.706.706 0 0 0 0 .974l2 2.065Zm-4.64-4.388c.86 0 1.556.719 1.556 1.607v.459c0 .887-.696 1.606-1.556 1.606H2.556C1.696 5.59 1 4.871 1 3.984v-.459c0-.888.696-1.607 1.556-1.607Zm.223 1.607c0-.127-.1-.23-.223-.23H2.556a.227.227 0 0 0-.223.23v.459c0 .126.1.229.223.229h4.888a.226.226 0 0 0 .223-.229Z"/><path d="M11.667 8.115v.459c0 .887-.697 1.606-1.556 1.606H4.333c-.859 0-1.555-.719-1.555-1.606v-.459c0-.888.696-1.607 1.555-1.607h5.778c.859 0 1.556.719 1.556 1.607Zm-1.556-.23H4.333a.227.227 0 0 0-.222.23v.459c0 .127.1.229.222.229h5.778a.225.225 0 0 0 .222-.229v-.459a.226.226 0 0 0-.222-.23Zm-.222 5.049v.459c0 .888-.697 1.607-1.556 1.607H2.556C1.696 15 1 14.281 1 13.393v-.459c0-.887.696-1.606 1.556-1.606h5.777c.859 0 1.556.719 1.556 1.606Zm-1.556-.229H2.556a.226.226 0 0 0-.223.229v.459c0 .127.1.23.223.23h5.777a.227.227 0 0 0 .223-.23v-.459c0-.126-.1-.229-.223-.229Z"/></svg>