<svg xmlns="http://www.w3.org/2000/svg" width="24" height="24" viewBox="0 0 24 24"><path d="M14.72 4.993a.749.749 0 0 0 0 1.06l2.773 2.773a.749.749 0 1 0 1.06-1.06l-1.492-1.493H20.5v12.5h-3.75a.75.75 0 0 0 0 1.5h4.5a.75.75 0 0 0 .75-.75v-14a.75.75 0 0 0-.75-.75h-4.189l1.492-1.493a.749.749 0 1 0-1.06-1.06L14.72 4.993ZM10.667 3C11.955 3 13 3.956 13 5.287v.688c0 1.331-1.045 2.024-2.333 2.024H4.333C3.045 7.999 2 7.306 2 5.975v-.688C2 3.956 3.045 3 4.333 3Zm.833 1.943a.339.339 0 0 0-.333-.345H3.833a.339.339 0 0 0-.333.345v1.213c0 .19.149.344.333.344h7.334a.339.339 0 0 0 .333-.344Z"/><path d="M13.667 10c1.288 0 2.333.956 2.333 2.287v.688c0 1.331-1.045 2.024-2.333 2.024H7.333C6.045 14.999 5 14.306 5 12.975v-.688C5 10.956 6.045 10 7.333 10Zm.833 1.943a.339.339 0 0 0-.333-.345H6.833a.339.339 0 0 0-.333.345v1.213c0 .19.149.344.333.344h7.334a.339.339 0 0 0 .333-.344Zm0 7.344v.688c0 1.331-1.045 2.024-2.333 2.024H5.833c-1.288 0-2.333-.693-2.333-2.024v-.688C3.5 17.956 4.545 17 5.833 17h6.334c1.288 0 2.333.956 2.333 2.287Zm-1.833-.689H5.333a.34.34 0 0 0-.333.345v1.213c0 .19.149.344.333.344h7.334a.339.339 0 0 0 .333-.344v-1.213a.34.34 0 0 0-.333-.345Z"/></svg>