<svg xmlns="http://www.w3.org/2000/svg" width="24" height="24" viewBox="0 0 24 24"><path d="M18.651 14.394 20 7.685 6.98 5.921l-1.035-.693c0-.063.031-.157.031-.22A.993.993 0 0 0 4.973 4C4.439 4 4 4.441 4 5.008c0 .535.439 1.008.973 1.008.094 0 .156-.032.219-.063l1.224.819 2.039 8.063.596-.032-.533 1.764h-.063c-.973 0-1.726.756-1.726 1.701 0 .976.753 1.732 1.726 1.732.69 0 1.286-.409 1.569-1.039h5.396A1.687 1.687 0 0 0 16.957 20a1.684 1.684 0 1 0 0-3.37c-.784 0-1.443.567-1.6 1.291h-5.239a1.793 1.793 0 0 0-.628-1.008l.659-2.141 8.502-.378Z"/></svg>