<svg width="16" height="16" viewBox="0 0 16 16" fill="none" xmlns="http://www.w3.org/2000/svg">
  <path fill-rule="evenodd" clip-rule="evenodd" d="M5.5 0.75C5.5 0.335786 5.16421 0 4.75 0C4.33579 0 4 0.335786 4 0.75V2H2.75C1.7835 2 1 2.7835 1 3.75V14.25C1 15.2165 1.7835 16 2.75 16H13.25C14.2165 16 15 15.2165 15 14.25V3.75C15 2.7835 14.2165 2 13.25 2H12V0.75C12 0.335786 11.6642 0 11.25 0C10.8358 0 10.5 0.335786 10.5 0.75V2H5.5V0.75ZM13.5 3.75C13.5 3.61193 13.3881 3.5 13.25 3.5H2.75C2.61193 3.5 2.5 3.61193 2.5 3.75V6H13.5V3.75ZM2.5 14.25V7.5H13.5V14.25C13.5 14.3881 13.3881 14.5 13.25 14.5H2.75C2.61193 14.5 2.5 14.3881 2.5 14.25ZM4 8.5C3.72386 8.5 3.5 8.72386 3.5 9V10C3.5 10.2761 3.72386 10.5 4 10.5H12C12.2761 10.5 12.5 10.2761 12.5 10V9C12.5 8.72386 12.2761 8.5 12 8.5H4Z" fill="#636C76"/>
</svg>

