<svg xmlns="http://www.w3.org/2000/svg" width="24" height="24" viewBox="0 0 24 24"><path d="M19.24 19.465a.554.554 0 0 1-.54.535H4.54a.554.554 0 0 1-.54-.535v-1.072c0-.315.254-.567.54-.567H18.7c.286 0 .54.252.54.567v1.072Zm-9.811-2.709c.286 0 .699-.189.858-.41l.127-.157c.19-.252.19-.599-.032-.819l-1.651-1.702c-.223-.22-.54-.22-.731 0l-.095.126c-.19.221-.54.599-.73.82l-1.683 1.764c-.19.22-.127.378.191.378h3.746ZM19.621 6.739c.54-.662.508-1.638-.127-2.237-.603-.63-1.587-.661-2.254-.126v-.031l-.159.157-7.938 7.875 2.413 2.394 7.938-7.875.159-.157h-.032Z"/></svg>