<svg xmlns="http://www.w3.org/2000/svg" width="24" height="24" viewBox="0 0 24 24"><path d="M8.652 4.593c0-.328.273-.593.609-.593h5.478c.336 0 .609.265.609.593v.592h3.043c.337 0 .609.266.609.593v13.629a.6.6 0 0 1-.609.593H5.609A.601.601 0 0 1 5 19.407V5.778c0-.327.273-.593.609-.593h3.043Zm6.696 4.148a.6.6 0 0 1-.609.592H9.261a.6.6 0 0 1-.609-.592V6.37H6.217v12.445h11.566V6.37h-2.435ZM9.87 5.185v2.963h4.26V5.185ZM9 12.25h6a.75.75 0 0 1 0 1.5H9a.75.75 0 0 1 0-1.5Zm0 3h6a.75.75 0 0 1 0 1.5H9a.75.75 0 0 1 0-1.5Z"/></svg>