<svg xmlns="http://www.w3.org/2000/svg" width="16" height="16" viewBox="0 0 16 16"><path d="M3.75 2a.75.75 0 0 1 .75.75V4h3V2.75a.75.75 0 0 1 1.5 0V4h1.25c.967 0 1.75.784 1.75 1.75v8.5A1.75 1.75 0 0 1 10.25 16h-8.5A1.75 1.75 0 0 1 0 14.25v-8.5C0 4.784.784 4 1.75 4H3V2.75A.75.75 0 0 1 3.75 2ZM1.5 9.5v4.75c0 .138.112.25.25.25h8.5a.25.25 0 0 0 .25-.25V9.5Zm8.75-4h-8.5a.25.25 0 0 0-.25.25V8h9V5.75a.25.25 0 0 0-.25-.25Zm5.5-4.75v2.5a.75.75 0 0 1-1.5 0V.75a.75.75 0 0 1 1.5 0ZM16 6a1 1 0 1 1-2 0 1 1 0 0 1 2 0Z"/></svg>