<svg xmlns="http://www.w3.org/2000/svg" width="24" height="24" viewBox="0 0 24 24"><path d="M17.657 8.139H20v1.069h-2.343c-.286 1.23-1.428 2.139-2.8 2.139-1.371 0-2.514-.909-2.8-2.139H4V8.139h8.057C12.343 6.909 13.486 6 14.857 6c1.372 0 2.514.909 2.8 2.139Zm-4.514.534c0 .909.743 1.604 1.714 1.604.972 0 1.714-.695 1.714-1.604 0-.909-.742-1.604-1.714-1.604-.971 0-1.714.695-1.714 1.604Zm-6.8 7.188H4v-1.069h2.343c.286-1.23 1.428-2.139 2.8-2.139 1.371 0 2.514.909 2.8 2.139H20v1.069h-8.057c-.286 1.23-1.429 2.139-2.8 2.139-1.372 0-2.514-.909-2.8-2.139Zm4.514-.534c0-.909-.743-1.604-1.714-1.604-.972 0-1.714.695-1.714 1.604 0 .909.742 1.604 1.714 1.604.971 0 1.714-.695 1.714-1.604Z"/></svg>