<svg xmlns="http://www.w3.org/2000/svg" width="16" height="16" viewBox="0 0 16 16"><path d="M4.173 13.689c0-.722.593-1.312 1.33-1.312.737 0 1.329.59 1.329 1.312A1.32 1.32 0 0 1 5.503 15c-.737 0-1.33-.59-1.33-1.311Zm7.053 0a1.32 1.32 0 0 1 1.329-1.312c.737 0 1.329.59 1.329 1.312A1.32 1.32 0 0 1 12.555 15a1.32 1.32 0 0 1-1.329-1.311ZM1 1.677C1 1.303 1.308 1 1.688 1H2.97c.325 0 .606.224.674.536l.57 2.633h9.179c1.027 0 1.79.935 1.569 1.922l-.811 3.61a1.948 1.948 0 0 1-.688 1.097c-.349.278-.784.43-1.234.431H5.965a1.988 1.988 0 0 1-1.258-.42 1.94 1.94 0 0 1-.704-1.118L2.99 5.018a.56.56 0 0 1-.012-.059l-.564-2.604h-.726A.683.683 0 0 1 1 1.677Zm3.508 3.847.841 3.884a.592.592 0 0 0 .594.466h6.284a.6.6 0 0 0 .579-.463l.811-3.612a.227.227 0 0 0-.224-.275Z"/></svg>