<svg width="24" height="24" viewBox="0 0 24 24" fill="none" xmlns="http://www.w3.org/2000/svg">
<path fill-rule="evenodd" clip-rule="evenodd" d="M8.46066 10.5443C8.46066 10.842 8.63352 10.9939 8.87961 10.9939C9.12863 10.9939 9.30441 10.839 9.30441 10.5443V10.3711H9.32199C9.49777 10.7509 9.84641 10.9818 10.3064 10.9818C11.1003 10.9818 11.5808 10.3498 11.5808 9.30165C11.5808 8.25043 11.0974 7.62153 10.3034 7.62153C9.85812 7.62153 9.50656 7.85243 9.33371 8.23828H9.31613V6.94401C9.31613 6.64019 9.14035 6.47917 8.8884 6.47917C8.63937 6.47917 8.46066 6.64019 8.46066 6.94401V10.5443ZM10.7048 9.30165C10.7048 9.89713 10.4382 10.2678 10.0134 10.2678C9.59738 10.2678 9.3132 9.89106 9.3132 9.30165C9.3132 8.71832 9.59738 8.33247 10.0134 8.33247C10.4382 8.33247 10.7048 8.7092 10.7048 9.30165Z" fill="#636C76"/>
<path fill-rule="evenodd" clip-rule="evenodd" d="M5 9.99436C5 10.5807 5.4541 10.9818 6.05176 10.9818C6.44434 10.9818 6.83691 10.7782 7.0127 10.4319H7.03027V10.599C7.04785 10.8602 7.20898 10.9939 7.44043 10.9939C7.68359 10.9939 7.85645 10.842 7.85645 10.5473V8.69097C7.85645 8.03472 7.33203 7.6033 6.52637 7.6033C5.87598 7.6033 5.37207 7.84332 5.22559 8.23221C5.19629 8.29905 5.18164 8.36285 5.18164 8.43272C5.18164 8.63325 5.33105 8.773 5.53906 8.773C5.67676 8.773 5.78516 8.71832 5.87891 8.60894C6.06934 8.35373 6.22754 8.26562 6.48828 8.26562C6.81055 8.26562 7.01562 8.44184 7.01562 8.74566V8.96137L6.22461 9.00998C5.43945 9.05859 5 9.40191 5 9.99436ZM7.01562 9.73611C7.01562 10.0885 6.70801 10.3407 6.33301 10.3407C6.0459 10.3407 5.85254 10.1888 5.85254 9.94575C5.85254 9.71484 6.03418 9.56597 6.35352 9.54167L7.01562 9.49913V9.73611Z" fill="#636C76"/>
<path d="M11.9418 9.30165C11.9418 10.3559 12.5424 11 13.4887 11C14.0893 11 14.6254 10.6901 14.8129 10.2465C14.851 10.1584 14.8686 10.0855 14.8686 10.0156C14.8686 9.79688 14.7075 9.66016 14.5082 9.66016C14.3266 9.66016 14.2329 9.73611 14.1186 9.92144C13.9868 10.1523 13.8022 10.3043 13.5034 10.3043C13.0756 10.3043 12.809 9.93967 12.809 9.29861C12.809 8.6697 13.0756 8.29904 13.5092 8.29904C13.7817 8.29904 13.9721 8.42969 14.1274 8.71528C14.2153 8.8763 14.3178 8.94618 14.4877 8.94618C14.6899 8.94618 14.8539 8.81858 14.8539 8.59983C14.8539 8.53602 14.8364 8.45703 14.8071 8.38108C14.6371 7.91927 14.1127 7.6033 13.4829 7.6033C12.5395 7.6033 11.9418 8.25955 11.9418 9.30165Z" fill="#636C76"/>
<path fill-rule="evenodd" clip-rule="evenodd" d="M3.5 2C2.67157 2 2 2.69645 2 3.55556V12.4444C2 13.3036 2.67157 14 3.5 14H20.5C21.3284 14 22 13.3036 22 12.4444V3.55556C22 2.69645 21.3284 2 20.5 2H3.5ZM3.33334 12.4444V3.55556H20.5V12.4444H3.33334Z" fill="#636C76"/>
<path d="M12.766 16.8182C12.766 16.3663 12.423 16 12 16C11.577 16 11.234 16.3663 11.234 16.8182V21.1818C11.234 21.6337 11.577 22 12 22C12.423 22 12.766 21.6337 12.766 21.1818V19.8182L21.234 19.8182C21.6571 19.8182 22 19.4519 22 19C22 18.5481 21.6571 18.1818 21.234 18.1818L12.766 18.1818V16.8182Z" fill="#636C76"/>
<path d="M2.76596 18.1818C2.34293 18.1818 2 18.5481 2 19C2 19.4519 2.34293 19.8182 2.76596 19.8182H8.93617C9.3592 19.8182 9.70213 19.4519 9.70213 19C9.70213 18.5481 9.3592 18.1818 8.93617 18.1818H2.76596Z" fill="#636C76"/>
</svg>
