<svg width="16" height="16" viewBox="0 0 16 16" fill="none" xmlns="http://www.w3.org/2000/svg">
<path fill-rule="evenodd" clip-rule="evenodd" d="M12.25 16C13.2165 16 14 15.2165 14 14.25L14 1.75C14 0.783502 13.2165 0 12.25 0H9.75C8.7835 0 8 0.7835 8 1.75V14.25C8 15.2165 8.7835 16 9.75 16H12.25ZM12.5 14.25C12.5 14.3881 12.3881 14.5 12.25 14.5H9.75C9.61193 14.5 9.5 14.3881 9.5 14.25L9.5 1.75C9.5 1.61193 9.61193 1.5 9.75 1.5L12.25 1.5C12.3881 1.5 12.5 1.61193 12.5 1.75L12.5 14.25Z" fill="#24292F"/>
<path d="M5.09983 5.13429L2.15444 7.67806C1.94852 7.85589 1.94852 8.14423 2.15444 8.32207L5.09983 10.8657C5.43203 11.1526 6 10.9495 6 10.5438L6 5.4563C6 5.05059 5.43201 4.84741 5.09983 5.13429Z" fill="#24292F"/>
</svg>
