<svg xmlns="http://www.w3.org/2000/svg" width="16" height="16" viewBox="0 0 16 16"><path d="M8.889 14.333v.834a.78.78 0 0 1-.256.594.888.888 0 0 1-.627.239H8q-.378 0-.634-.24a.782.782 0 0 1-.255-.593v-3.334a.78.78 0 0 1 .256-.594A.886.886 0 0 1 8 11q.378 0 .634.24c.17.16.255.358.255.593v.834h6.222c.252 0 .463.08.634.24a.78.78 0 0 1 .255.588v.005a.78.78 0 0 1-.256.594.886.886 0 0 1-.633.239Zm-8 0a.892.892 0 0 1-.634-.24.776.776 0 0 1-.255-.59V13.5a.78.78 0 0 1 .256-.594.886.886 0 0 1 .633-.239h3.555a.89.89 0 0 1 .634.24c.171.16.256.357.255.593a.78.78 0 0 1-.256.594.883.883 0 0 1-.633.239ZM1 0h14a1 1 0 0 1 1 1v7a1 1 0 0 1-1 1H1a1 1 0 0 1-1-1V1a1 1 0 0 1 1-1Zm.5 1.5v6h13v-6Z"/><path d="M3.701 5.895C3.303 5.895 3 5.637 3 5.26c0-.381.293-.602.816-.633l.528-.031v-.139c0-.195-.137-.309-.352-.309-.174 0-.279.057-.406.221a.29.29 0 0 1-.227.106c-.138 0-.238-.09-.238-.219a.31.31 0 0 1 .029-.129c.098-.25.434-.404.868-.404.537 0 .886.277.886.699v1.193c0 .19-.115.287-.277.287-.154 0-.262-.086-.273-.254v-.107h-.012c-.117.223-.379.354-.641.354Zm.188-.413c.25 0 .455-.162.455-.388v-.153l-.442.028c-.213.015-.334.111-.334.26 0 .156.129.253.321.253Zm1.697.42c-.164 0-.279-.097-.279-.289V3.299c0-.195.119-.299.285-.299.168 0 .285.104.285.299v.832h.012a.684.684 0 0 1 .647-.397c.529 0 .851.405.851 1.08 0 .674-.32 1.081-.849 1.081-.307 0-.539-.149-.657-.393H5.87v.111c0 .19-.118.289-.284.289Zm.756-.466c.283 0 .461-.239.461-.622 0-.38-.178-.623-.461-.623-.277 0-.467.248-.467.623 0 .379.19.622.467.622Zm2.317.47c-.631 0-1.031-.414-1.031-1.092 0-.669.398-1.091 1.027-1.091.42 0 .77.203.883.5.02.048.031.099.031.14 0 .141-.109.223-.244.223-.113 0-.181-.045-.24-.148-.104-.184-.231-.268-.412-.268-.289 0-.467.238-.467.642 0 .413.178.647.463.647.199 0 .322-.098.41-.246.076-.119.139-.168.26-.168.133 0 .24.088.24.228a.369.369 0 0 1-.037.149c-.125.285-.482.484-.883.484Z"/></svg>