<svg xmlns="http://www.w3.org/2000/svg" width="24" height="24" viewBox="0 0 24 24"><path d="M12 8.645c-1.989 0-3.481 1.549-3.481 3.516 0 1.226.591 2.258 1.585 2.968V17h3.885v-1.871c.994-.613 1.585-1.742 1.585-2.968-.093-1.871-1.585-3.516-3.574-3.516Zm1.305 5.968v1.774h-2.704v-1.774c-.901-.516-1.398-1.323-1.398-2.355 0-1.548 1.305-2.806 2.797-2.806 1.492 0 2.797 1.258 2.797 2.806 0 1.032-.622 1.839-1.492 2.355ZM12 7.516c.093 0 .311-.129.311-.322V4.29c0-.193-.124-.29-.311-.29-.093 0-.311.097-.311.29v2.807c0 .29.218.419.311.419Zm2.579.387 1.492-2.355c.093-.096.093-.322 0-.419-.093-.097-.28 0-.404.097l-1.492 2.387c-.093.097-.093.29 0 .419.125.097.311 0 .404-.129Zm4.382.226c-.093-.097-.186-.226-.404-.097l-2.393 1.323c-.093.097-.186.322-.093.419.093.097.218.194.404.097l2.393-1.323c.093-.129.187-.225.093-.419Zm-9.54-.226c.093.129.279.226.404.129.093-.129.093-.322 0-.419L8.333 5.226c-.124-.194-.311-.194-.404-.097-.093.097-.093.323 0 .419l1.492 2.355Zm-3.978.226c-.218-.097-.404-.097-.404 0-.094.194 0 .29.093.419l2.393 1.323c.186.097.311.097.404-.097.093-.097 0-.322-.093-.419L5.443 8.129Zm8.546 9.194h-3.978v1.129c0 .612.497 1.032.994 1.032V20h1.99v-.516c.497 0 .901-.42.901-.936v-1.225h.093Z"/></svg>