<svg xmlns="http://www.w3.org/2000/svg" width="24" height="24" viewBox="0 0 24 24"><path d="M6.857 4c-.758 0-1.484.326-2.02.907A3.227 3.227 0 0 0 4 7.095v6.191c0 .407.074.809.217 1.185.144.376.355.717.62 1.004a2.748 2.748 0 0 0 2.02.907h.572v2.404c0 .233.061.462.178.658.116.196.283.351.478.447.196.097.414.13.627.096.212-.034.412-.133.574-.287l3.5-3.318h4.357c.375 0 .747-.08 1.093-.236a2.83 2.83 0 0 0 .927-.671c.265-.287.476-.628.619-1.004.144-.376.218-.778.218-1.185V7.095c0-.821-.301-1.608-.837-2.188A2.748 2.748 0 0 0 17.143 4H6.857Z"/></svg>