<svg width="16" height="16" viewBox="0 0 16 16" fill="none" xmlns="http://www.w3.org/2000/svg">
<path fill-rule="evenodd" clip-rule="evenodd" d="M6.25 16C7.2165 16 8 15.2165 8 14.25L8 1.75C8 0.783502 7.2165 0 6.25 0H3.75C2.7835 0 2 0.7835 2 1.75V14.25C2 15.2165 2.7835 16 3.75 16H6.25ZM6.5 14.25C6.5 14.3881 6.38807 14.5 6.25 14.5H3.75C3.61193 14.5 3.5 14.3881 3.5 14.25L3.5 1.75C3.5 1.61193 3.61193 1.5 3.75 1.5L6.25 1.5C6.38807 1.5 6.5 1.61193 6.5 1.75L6.5 14.25Z" fill="#24292F"/>
<path d="M10.9002 10.8657L13.8456 8.32194C14.0515 8.1441 14.0515 7.85576 13.8456 7.67792L10.9002 5.13432C10.568 4.84743 10 5.05053 10 5.45619V10.5437C10 10.9494 10.568 11.1526 10.9002 10.8657Z" fill="#24292F"/>
</svg>
