<svg xmlns="http://www.w3.org/2000/svg" width="24" height="24" viewBox="0 0 24 24"><path d="M20 6.842 19.907 6H5.632v6.966l.998-1.037v-4.05h12.373v7.776H9.528l-.997 1.037H20v-9.85ZM8.624 6.648c.125 0 .312.097.312.292a.316.316 0 0 1-.312.324c-.093 0-.28-.098-.28-.324 0-.195.093-.292.28-.292Zm-.872 0c.187 0 .28.097.28.292 0 .226-.093.324-.28.324-.218 0-.312-.098-.312-.324 0-.195.094-.292.312-.292Zm-.904 0c.187 0 .28.097.28.292 0 .226-.093.324-.28.324-.218 0-.312-.098-.312-.324 0-.195.218-.292.312-.292Zm6.483 2.786h3.49v.713h-3.49v-.713Zm0 1.134h4.674v.745h-4.674v-.745Zm0 1.264h4.082v.713h-4.082v-.713Zm0 1.037h3.49v.712h-3.49v-.712Zm-3.896.81c.093 0 .093 0 0 0h.498c1.091 0 2.088-.94 2.088-2.171 0-.195 0-.421-.093-.519l-.997 1.232-1.185-.292-.311-1.264 1.09-1.133c-.187 0-.28-.098-.498-.098-1.184 0-2.088.94-2.088 2.171 0 .227 0 .518.093.745l-3.677 3.823c-.406.422-.499 1.134-.094 1.556.374.421 1.091.323 1.496-.098l.686-.745 2.992-3.207Z"/></svg>