<svg xmlns="http://www.w3.org/2000/svg" width="24" height="24" viewBox="0 0 24 24"><path d="M6.188 13.007c0-.252.124-.448.312-.587.219-.112.531-.196.969-.196l.469-.028v-.14c0-.14-.032-.252-.126-.336-.062-.084-.187-.112-.374-.112-.126 0-.282 0-.407.056-.125.028-.25.084-.375.112l-.187-.363c.156-.084.312-.112.5-.168.187-.028.343-.056.5-.056.343 0 .625.084.812.224.157.139.25.335.25.643v1.678h-.406L8 13.371h-.031a.815.815 0 0 1-.407.307 1.306 1.306 0 0 1-.5.084c-.281 0-.5-.056-.656-.196a.787.787 0 0 1-.218-.559Zm.593 0c0 .112.063.196.125.28.063.056.188.084.344.084a.758.758 0 0 0 .5-.168.56.56 0 0 0 .188-.448v-.224l-.344.028a1.72 1.72 0 0 0-.625.112.388.388 0 0 0-.188.336Zm2.594.727v-3.496h.594v.811c0 .084 0 .168-.031.28v.251h.031c.187-.251.437-.391.812-.391.344 0 .625.112.813.335.187.224.281.56.281.952 0 .419-.094.727-.281.951-.188.223-.469.335-.813.335-.343 0-.625-.112-.812-.335h-.063l-.094.307h-.437Zm.594-1.258c0 .307.031.531.156.671.094.112.281.196.531.196a.615.615 0 0 0 .469-.224c.094-.14.156-.364.156-.643 0-.56-.219-.84-.656-.84-.219 0-.406.056-.5.168-.094.14-.156.336-.156.644v.028Zm2.437.028c0-.42.125-.756.344-.98.219-.223.531-.335.969-.335.312 0 .562.056.812.168l-.187.419c-.25-.084-.469-.14-.625-.14-.469 0-.719.28-.719.868 0 .279.062.475.188.615.124.14.281.196.531.196s.5-.056.719-.168v.475c-.094.056-.219.084-.313.112-.125.028-.281.028-.437.028-.438 0-.75-.112-.969-.308-.219-.223-.313-.559-.313-.95ZM20 16H4V8h16v8Zm-14.969-.923h13.938V8.923H5.031v6.154Z"/></svg>