<svg xmlns="http://www.w3.org/2000/svg" width="24" height="24" viewBox="0 0 24 24"><path d="M17.765 14.062c-.841-.906-1.712-1.374-2.583-1.374-.9 0-1.591.468-2.041.937l-.181-.219.391-.562 1.892-1.219 2.702-4.563V4l-5.885 8.125L6.174 4v3.062l2.673 4.563 1.831 1.219.421.594-.181.218c-.45-.468-1.141-.968-2.041-.968-.901 0-1.772.468-2.613 1.374-1.441 1.594-1.441 3.376-1.021 4.438.391.938 1.291 1.5 2.102 1.5.391 0 1.682-.938 1.742-1.031l.69-1.063 2.253-3.187L14.372 18l.69 1.062c.061.032 1.262.938 1.682.938.811 0 1.622-.562 1.982-1.5.45-1.062.48-2.844-.961-4.438Zm-9.909 3.969c-.481.594-.991.5-1.262-.125-.24-.625-.21-1.75.751-2.781.541-.594 1.051-.906 1.502-.906.51 0 .9.343 1.141.625l-.691 1.062-.27.375v.031l-1.171 1.719Zm9.579-.125c-.15.344-.361.563-.601.563-.18 0-.42-.157-.601-.375l-1.171-1.719v-.094l-.84-1.125-.181-.312c.241-.282.661-.625 1.141-.625.451 0 .961.312 1.502.906.961 1.031 1.021 2.156.751 2.781Z"/></svg>