<svg xmlns="http://www.w3.org/2000/svg" width="24" height="24" viewBox="0 0 24 24"><path d="M6 4s1.031 0 0 0v16h.031C5 20 4 19 4 17.906V6c0-1.188.969-2 2-2Zm14 7h-2V8h1c1 0 1 1.094 1 1.094V11Zm0 5h-2v3h1c1 0 1-.969 1-.969V16Zm0-1h-2v-3h2v3ZM14.969 4H7v16h8c1.031 0 2-.812 2-2V6.094C17 5 16 4 14.969 4ZM15 14H9s-.062-.625.125-.875c.156-.281.781-.469 1.375-.719s.75-.344.75-.344V11.5s-.219-.188-.312-.719c-.126.031-.282-.219-.282-.343 0-.126.032-.469.188-.438-.032-.281-.063-.5-.032-.656.032-.438.5-.938 1.188-.938s1.156.5 1.188.938c.031.156 0 .375-.032.656.156-.031.188.312.188.438 0 .124-.156.374-.313.343-.062.531-.281.719-.281.719v.562s.156.094.75.344c.594.25 1.188.438 1.375.719.156.25.125.875.125.875Z"/></svg>