<svg xmlns="http://www.w3.org/2000/svg" width="16" height="16" viewBox="0 0 16 16"><path d="M1.5 1.75V13.5h13.75a.75.75 0 0 1 0 1.5H.75a.75.75 0 0 1-.75-.75V1.75a.75.75 0 0 1 1.5 0Z"/><path d="M3 6.25a.75.75 0 0 1 .75.75v5a.75.75 0 0 1-1.5 0V7A.75.75 0 0 1 3 6.25Zm3-1a.75.75 0 0 1 .75.75v6a.75.75 0 0 1-1.5 0V6A.75.75 0 0 1 6 5.25Zm3 1a.75.75 0 0 1 .75.75v5a.75.75 0 0 1-1.5 0V7A.75.75 0 0 1 9 6.25Zm3-4a.75.75 0 0 1 .75.75v9a.75.75 0 0 1-1.5 0V3a.75.75 0 0 1 .75-.75Zm3 2a.75.75 0 0 1 .75.75v7a.75.75 0 0 1-1.5 0V5a.75.75 0 0 1 .75-.75Z"/></svg>