<svg xmlns="http://www.w3.org/2000/svg" width="24" height="24" viewBox="0 0 24 24"><path d="M12.968 6.207V5H4v1.655h8.968v-.448Zm0 1.759v-.449H4v1.655h7.839c.419-.31.742-.655 1.129-.862v-.344ZM4 9.966v1.655h6.387c.226-.552.516-1.104.839-1.655H4Zm6.194 2.413H4v1.655h6.097v-.448c0-.31 0-.758.097-1.207ZM4 14.931v1.655h6.71c-.194-.551-.42-1.103-.516-1.655H4Zm7.226 2.414H4V19h8.968c-.71-.448-1.226-1-1.742-1.655Zm4.322-8.724c-2.451 0-4.419 2.207-4.419 4.965 0 2.759 1.968 4.966 4.419 4.966 2.484 0 4.452-2.207 4.452-4.966 0-2.758-1.968-4.965-4.452-4.965Zm.226 7.827v.897h-.516v-.897c-.516 0-1.032-.207-1.355-.413l.226-.552c.29.207.71.414 1.226.414.613 0 1.032-.311 1.032-.863 0-.551-.323-.793-.935-1.103-.807-.345-1.452-.793-1.452-1.552 0-.758.516-1.31 1.258-1.448v-.965h.516v.862c.516 0 .807.103 1.129.344l-.193.552c-.226-.103-.516-.345-1.033-.345-.645 0-.935.449-.935.793 0 .414.29.656 1.032.966.807.345 1.323.896 1.323 1.655 0 .793-.516 1.448-1.323 1.655Z"/></svg>