<svg xmlns="http://www.w3.org/2000/svg" width="24" height="24" viewBox="0 0 24 24"><path d="M2.75 1.75a.75.75 0 0 1 .75.75v17.75h17.75a.75.75 0 0 1 0 1.5H3a.736.736 0 0 1-.125-.01A.75.75 0 0 1 2 21V2.5a.75.75 0 0 1 .75-.75Z"/><path d="M5.75 9.25a.75.75 0 0 1 .75.75v8A.75.75 0 0 1 5 18v-8a.75.75 0 0 1 .75-.75Zm7.75.75a.75.75 0 0 0-1.5 0v8a.75.75 0 0 0 1.5 0v-8Zm2.75-6.75A.75.75 0 0 1 17 4v14a.75.75 0 0 1-1.5 0V4a.75.75 0 0 1 .75-.75ZM20.5 6A.75.75 0 0 0 19 6v12a.75.75 0 0 0 1.5 0V6ZM9.25 7.25A.75.75 0 0 1 10 8v10a.75.75 0 0 1-1.5 0V8a.75.75 0 0 1 .75-.75Z"/></svg>