<svg xmlns="http://www.w3.org/2000/svg" width="24" height="24" viewBox="0 0 24 24"><path d="M8.461 10.544v-3.6c0-.304.178-.465.427-.465.252 0 .428.161.428.465v1.294h.018a1.02 1.02 0 0 1 .969-.616c.794 0 1.278.628 1.278 1.68 0 1.048-.481 1.68-1.275 1.68-.46 0-.808-.231-.984-.611h-.018v.173c0 .295-.175.45-.424.45-.246 0-.419-.152-.419-.45Zm2.244-1.242c0-.593-.267-.97-.692-.97-.416 0-.7.386-.7.97 0 .589.284.966.7.966.425 0 .692-.371.692-.966ZM5 9.994c0-.592.439-.935 1.225-.984l.791-.049v-.215c0-.304-.205-.48-.528-.48-.26 0-.419.088-.609.343a.427.427 0 0 1-.34.164c-.208 0-.357-.14-.357-.34 0-.07.014-.134.044-.201.146-.389.65-.629 1.3-.629.806 0 1.33.432 1.33 1.088v1.856c0 .295-.172.447-.416.447-.231 0-.392-.134-.41-.395v-.167h-.017c-.176.346-.569.55-.961.55-.598 0-1.052-.401-1.052-.988Zm2.016-.258v-.237l-.662.043c-.32.024-.501.173-.501.404 0 .243.193.395.48.395.375 0 .683-.252.683-.605Zm4.926-.434c0 1.054.6 1.698 1.547 1.698.6 0 1.136-.31 1.324-.754a.578.578 0 0 0 .056-.23c0-.219-.162-.356-.361-.356-.181 0-.275.076-.389.261-.132.231-.317.383-.616.383-.427 0-.694-.364-.694-1.005 0-.629.267-1 .7-1 .273 0 .463.131.618.416.088.161.191.231.361.231.202 0 .366-.127.366-.346a.65.65 0 0 0-.047-.219c-.17-.462-.694-.778-1.324-.778-.943 0-1.541.657-1.541 1.699Z"/><path d="M3.5 2h17c.828 0 1.5.696 1.5 1.556v8.888c0 .86-.672 1.556-1.5 1.556h-17c-.828 0-1.5-.696-1.5-1.556V3.556C2 2.696 2.672 2 3.5 2Zm-.167 10.444H20.5V3.556H3.333Zm9.433 4.374c0-.452-.343-.818-.766-.818s-.766.366-.766.818v4.364c0 .452.343.818.766.818s.766-.366.766-.818v-1.364h8.468c.423 0 .766-.366.766-.818 0-.452-.343-.818-.766-.818h-8.468v-1.364Zm-10 1.364c-.423 0-.766.366-.766.818 0 .452.343.818.766.818h6.17c.423 0 .766-.366.766-.818 0-.452-.343-.818-.766-.818h-6.17Z"/></svg>