<svg xmlns="http://www.w3.org/2000/svg" width="24" height="24" viewBox="0 0 24 24"><path d="M18.628 5H5.324c-.788.097-1.335.664-1.324 1.418l.001 11.234c.093.802.652 1.359 1.395 1.348l13.273-.001c.79-.089 1.342-.664 1.331-1.417l-.001-11.234C19.908 5.557 19.362 5 18.628 5ZM5.36 6.224l13.294.001c.184.045.137.215.14.356v11.052c-.045.187-.212.139-.351.143l-13.097-.001c-.183-.045-.137-.212-.14-.353V6.367c0-.071.056-.136.127-.141l.027-.002Zm1.121 1.997 2.783 3.687-2.733 3.611.938.769 3.343-4.379L7.42 7.454l-.939.767Zm4.738 8.179h5.689v-1.224h-5.689V16.4Z"/></svg>