<svg xmlns="http://www.w3.org/2000/svg" width="24" height="24" viewBox="0 0 24 24"><path d="M17.079 14.25c-.635 0-1.206.219-1.682.531l-5.556-2.812 5.492-2.813a2.8 2.8 0 0 0 1.746.594C18.698 9.75 20 8.438 20 6.875 20 5.281 18.698 4 17.079 4c-1.619 0-2.92 1.281-2.92 2.875v.094L8.667 9.781a2.802 2.802 0 0 0-1.746-.593C5.302 9.188 4 10.469 4 12.062c0 1.594 1.302 2.876 2.921 2.876.73 0 1.396-.282 1.904-.719l5.334 2.75v.156c0 1.594 1.301 2.875 2.92 2.875S20 18.719 20 17.125c0-1.563-1.302-2.875-2.921-2.875Z"/></svg>