<svg xmlns="http://www.w3.org/2000/svg" width="24" height="24" viewBox="0 0 24 24"><path d="M13.927 5.038a3.572 3.572 0 0 1 5.035 0 3.572 3.572 0 0 1 0 5.035 3.572 3.572 0 0 1-5.035 0 3.572 3.572 0 0 1 0-5.035Zm2.942 0h-.741c-.21 0-.238.126-.238.196v.07l.154 2.783c.028.196.112.238.265.238h.392c.154 0 .238-.042.252-.252l.154-2.685.014-.084v-.07c0-.07-.028-.196-.252-.196Zm-1.063 4.489a.69.69 0 0 0 .699.686.692.692 0 1 0 0-1.385.693.693 0 0 0-.699.699Z"/><path d="M12.889 10.222H4.948v8.889h12.326v-7.188c.33-.063.648-.162.948-.293V20H4V7.556h1.896V5.778h2.845v1.778H12c0 1 .331 1.923.889 2.666ZM6.844 6.667v1.777h.949V6.667Z"/><path d="M16.326 11.998a4.411 4.411 0 0 1-1.896-.48v1.371h1.896v-.891Zm-5.689.891H8.741v-1.778h1.896v1.778Zm2.845 0h-1.897v-1.778h1.897v1.778Zm-7.586 2.667v-1.778h1.897v1.778H5.896Zm4.741 0H8.741v-1.778h1.896v1.778Zm2.845 0h-1.897v-1.778h1.897v1.778Zm.948 0v-1.778h1.896v1.778H14.43Zm-8.534 2.666v-1.778h1.897v1.778H5.896Zm4.741 0H8.741v-1.778h1.896v1.778Zm2.845 0h-1.897v-1.778h1.897v1.778Z"/></svg>