<svg xmlns="http://www.w3.org/2000/svg" width="24" height="24" viewBox="0 0 24 24"><path d="M13.153 11.17 6.337 5.32c-.531-.427-1.438-.427-1.938 0a1.08 1.08 0 0 0 0 1.676l5.878 4.996-5.878 4.997c-.532.457-.532 1.188 0 1.645.25.244.594.366.969.366.344 0 .688-.122.969-.366l6.816-5.819c.281-.213.406-.518.406-.823 0-.304-.125-.609-.406-.822Zm6.441 0-6.848-5.85c-.5-.427-1.407-.427-1.907 0-.562.457-.562 1.219 0 1.676l5.847 4.996-5.847 4.997c-.562.457-.562 1.188 0 1.645.25.244.594.366.97.366.343 0 .687-.122.937-.366l6.848-5.819c.25-.213.406-.518.406-.823 0-.304-.156-.609-.406-.822Z"/></svg>