<svg xmlns="http://www.w3.org/2000/svg" width="24" height="24" viewBox="0 0 24 24"><path d="M16.598 7.219H7.402c0 .031-.028.062-.028.093v11.626c0 .593.344 1.062.747 1.062h7.73c.431 0 .775-.469.775-1.062V7.312c0-.031-.028-.062-.028-.093ZM9.759 18.188c0 .406-.23.75-.518.75-.287 0-.517-.344-.517-.75V9.344c0-.406.23-.75.517-.75.288 0 .518.344.518.75v8.844Zm2.787 0c0 .406-.23.75-.489.75-.287 0-.517-.344-.517-.75V9.344c0-.406.23-.75.517-.75.259 0 .489.344.489.75v8.844Zm2.73 0c0 .406-.23.75-.517.75-.288 0-.518-.344-.518-.75V9.344c0-.406.23-.75.518-.75.287 0 .517.344.517.75v8.844ZM17 6.156c0-.406-.287-.718-.661-.718H7.661c-.374 0-.661.312-.661.718 0 .188.086.344.172.5h9.656c.086-.156.172-.312.172-.5ZM11.483 4.75h1.034c.201 0 .345-.156.345-.375S12.718 4 12.517 4h-1.034c-.201 0-.345.156-.345.375s.144.375.345.375Z"/></svg>