<svg xmlns="http://www.w3.org/2000/svg" width="24" height="24" viewBox="0 0 24 24"><path d="M17.954 6.336c-3.147-3.115-8.213-3.115-11.328 0s-3.115 8.181 0 11.328a8.034 8.034 0 0 0 11.328 0c3.115-3.115 3.115-8.213 0-11.328Zm-6.377 0h1.668c.503 0 .566.283.566.441v.157l-.031.189-.346 6.041c-.032.472-.221.567-.567.567h-.881c-.346 0-.535-.095-.598-.535l-.346-6.262v-.157c0-.158.063-.441.535-.441Zm.85 11.642c-.881 0-1.573-.692-1.573-1.541 0-.881.692-1.574 1.573-1.574S14 15.556 14 16.437c0 .849-.724 1.541-1.573 1.541Z"/></svg>