<svg xmlns="http://www.w3.org/2000/svg" width="24" height="24" viewBox="0 0 24 24"><path d="M11.916 8.813c0-2.106 1.81-3.813 4.042-3.813C18.19 5 20 6.707 20 8.813c0 2.105-1.81 3.812-4.042 3.812-2.232 0-4.042-1.707-4.042-3.812Zm3.826-1.907c-.04 0-.073.031-.073.069v2.314c0 .038.033.068.073.068h.432c.04 0 .073-.03.073-.068V6.975c0-.038-.033-.069-.073-.069Zm-.085 3.691a.45.45 0 0 0 .301.122.45.45 0 0 0 .301-.122.4.4 0 0 0 .123-.286.4.4 0 0 0-.123-.287.45.45 0 0 0-.301-.122.45.45 0 0 0-.301.122.4.4 0 0 0-.123.287.4.4 0 0 0 .123.286Z"/><path d="M5.131 8.733h5.796v.04c0 .338.038.669.111.987H6.375l5.541 3.48 1.073-.674a5.1 5.1 0 0 0 1.087.567l-1.838 1.155a.609.609 0 0 1-.644 0l-6.463-4.061v7.746h13.57v-5.235a5.003 5.003 0 0 0 1.131-.92v6.155a.98.98 0 0 1-.331.726c-.213.193-.5.301-.8.301H5.131c-.3 0-.588-.108-.8-.301A.98.98 0 0 1 4 17.973V9.76c0-.272.119-.533.331-.726.212-.192.5-.301.8-.301Z"/></svg>