<svg xmlns="http://www.w3.org/2000/svg" width="24" height="24" viewBox="0 0 24 24"><path d="m8.68 17.562.944-1.5-.883-1.406h.518c.03 0 .061 0 .061.032.03 0 .03 0 .061.031l.639 1.062v-.062c.031 0 .031-.031.031-.031l.609-.969c.03-.031.061-.063.091-.063h.518l-.914 1.375.945 1.531h-.549c-.03 0-.061-.031-.061-.031l-.061-.062-.67-1.125v.062l-.03.032-.609 1.031c-.031 0-.031.031-.061.062-.031 0-.061.031-.091.031H8.68Zm2.924 0v-2.906h.518v2.438h1.127v.468h-1.645Zm1.797-.374.152-.25s.031-.032.061-.032c0-.031.031-.031.061-.031.031 0 .061 0 .092.031.03.032.091.063.152.094a.5.5 0 0 0 .182.094.587.587 0 0 0 .244.031.532.532 0 0 0 .335-.094c.092-.062.122-.187.122-.312 0-.063 0-.125-.061-.188-.03-.062-.091-.093-.122-.125a1.379 1.379 0 0 1-.213-.094.57.57 0 0 1-.244-.062c-.091-.031-.152-.062-.243-.094-.092-.031-.152-.094-.213-.156s-.092-.125-.153-.219c-.03-.093-.061-.187-.061-.312s.031-.219.061-.313c.061-.125.122-.187.183-.281.091-.063.183-.125.305-.187.121-.032.243-.063.396-.063.152 0 .304.031.456.094a.721.721 0 0 1 .366.219l-.122.25-.061.062h-.061c-.03 0-.061 0-.091-.031a.222.222 0 0 1-.122-.063c-.03-.031-.091-.031-.152-.062-.061-.032-.122-.032-.213-.032-.061 0-.122 0-.183.032-.061.031-.092.031-.153.062a.244.244 0 0 0-.06.125c-.031.031-.031.094-.031.157 0 .062 0 .124.061.156a.24.24 0 0 0 .122.125c.061.031.152.062.213.093.092 0 .152.032.244.063.091.031.152.063.243.094.061.062.153.093.214.156s.091.125.152.219c.03.062.061.187.061.312s-.031.25-.092.344a.645.645 0 0 1-.182.312.63.63 0 0 1-.305.188.959.959 0 0 1-.426.094c-.092 0-.183-.032-.244-.032l-.274-.093c-.061-.031-.152-.063-.213-.125-.061-.032-.122-.094-.183-.156Zm-4.264-5.282h5.635v.969H9.137v-.969ZM9.168 10h5.634v1H9.168v-1Zm0-1.906h5.634v1H9.168v-1Zm8.802-.406L14.376 4H6v16h12V7.688h-.03ZM7.401 18.562V5.438h6.396l2.802 2.874v10.25H7.401Z"/></svg>