<svg xmlns="http://www.w3.org/2000/svg" width="24" height="24" viewBox="0 0 24 24"><path d="M10.254 5.536H20V7.04h-9.746V5.536Zm0 6.112H20v1.504h-9.746v-1.504Zm0 5.728H20v1.472h-9.746v-1.472ZM5.568 20 4.1 18.336c-.156-.16-.125-.416.062-.576a.508.508 0 0 1 .625.064l.75.864 2.218-2.784c.125-.16.406-.192.593-.064.188.128.25.384.094.544L5.568 20Zm0-5.472L4.1 12.832a.355.355 0 0 1 .062-.544.508.508 0 0 1 .625.064l.75.864 2.218-2.784c.125-.16.406-.224.593-.096.188.128.25.384.094.576l-2.874 3.616Zm.719-5.92c-1.219 0-2.249-1.024-2.249-2.304C4.038 5.024 5.068 4 6.287 4a2.294 2.294 0 0 1 2.28 2.304 2.294 2.294 0 0 1-2.28 2.304Zm0-3.904c-.844 0-1.531.704-1.531 1.6 0 .864.687 1.568 1.531 1.568.874 0 1.562-.704 1.562-1.568 0-.896-.688-1.6-1.562-1.6Z"/></svg>