<svg xmlns="http://www.w3.org/2000/svg" width="16" height="16" viewBox="0 0 16 16"><path d="M8 16A8 8 0 1 1 8 0a8 8 0 0 1 0 16ZM6.343 7.14c-.109 0-.186.114-.152.226L7.84 12.88c.048.16.258.16.306 0l1.649-5.514c.034-.112-.043-.226-.152-.226Zm-3.182 0c-.133 0-.208.163-.128.277l3.684 5.224c.108.153.332.031.281-.153L5.569 7.264a.161.161 0 0 0-.153-.124Zm7.383 0a.162.162 0 0 0-.154.124l-1.429 5.224c-.05.184.174.306.281.153l3.684-5.224c.081-.114.005-.277-.127-.277ZM6.96 4a.162.162 0 0 0-.152.119l-.616 2.016c-.034.112.043.227.153.227h3.291c.111 0 .188-.118.151-.231l-.661-2.016A.162.162 0 0 0 8.975 4ZM4.345 4a.157.157 0 0 0-.138.086L3.112 6.102c-.062.115.015.26.138.26h2.171a.161.161 0 0 0 .151-.117l.639-2.016C6.246 4.117 6.169 4 6.059 4Zm5.664 0c-.11 0-.188.118-.151.23l.662 2.017a.16.16 0 0 0 .151.115h2.169c.124 0 .201-.146.137-.262L11.86 4.084A.16.16 0 0 0 11.722 4Z"/></svg>