<svg xmlns="http://www.w3.org/2000/svg" width="24" height="24" viewBox="0 0 24 24"><path d="M11.269 14.656h-.487c-.061 0-.092.032-.122.063l-.579.969c-.03 0-.03.031-.03.031 0 .031-.031.031-.031.062l-.639-1.062c0-.031-.031-.031-.031-.031-.03-.032-.061-.032-.091-.032h-.518l.883 1.406-.913 1.5h.487c.03 0 .061-.031.061-.031l.061-.062.639-1.031v-.032c.031-.031.031-.031.031-.062l.639 1.125c.031 0 .031.031.061.062.031 0 .061.031.092.031h.518l-.945-1.531.914-1.375Zm.853 0h-.518v2.906h1.645v-.468h-1.127v-2.438Zm3.137 1.688a.567.567 0 0 0-.152-.219c-.061-.063-.122-.094-.214-.156a2.08 2.08 0 0 0-.243-.094c-.061-.031-.152-.031-.213-.063-.092-.031-.153-.062-.214-.093s-.122-.063-.152-.125a.247.247 0 0 1-.061-.156c0-.063.031-.126.031-.157.03-.031.06-.093.091-.125.03-.031.091-.031.122-.062.061-.032.122-.032.213-.032a.37.37 0 0 1 .183.032.514.514 0 0 0 .152.062c.061.032.091.063.122.063.03.031.061.031.091.031h.061c.031-.031.061-.031.061-.062l.122-.25a.721.721 0 0 0-.366-.219.985.985 0 0 0-.456-.094c-.153 0-.275.031-.396.063-.092.062-.214.124-.274.187a.727.727 0 0 0-.183.281.936.936 0 0 0-.061.313c0 .125.03.219.061.312a.55.55 0 0 0 .152.219c.061.062.122.125.183.156.091.032.182.063.243.094.092.031.183.062.244.062.092.032.152.063.213.094.061.032.122.094.153.125.03.063.06.125.06.188a.48.48 0 0 1-.121.312.635.635 0 0 1-.366.094c-.091 0-.183 0-.244-.031L13.919 17a.4.4 0 0 1-.122-.094c-.061-.031-.091-.031-.122-.031-.03 0-.03 0-.061.031-.03 0-.03.032-.061.032l-.152.25a.845.845 0 0 0 .183.156.907.907 0 0 0 .243.125c.061.031.153.062.244.093.091 0 .183.032.274.032a.83.83 0 0 0 .396-.094.715.715 0 0 0 .335-.188c.061-.093.122-.187.183-.312.03-.094.061-.219.061-.344 0-.125-.031-.218-.061-.312ZM18 7.688 14.376 4H6v16h12V7.688ZM7.401 18.562V5.438h6.396l2.802 2.874v10.25H7.401Z"/></svg>