<svg xmlns="http://www.w3.org/2000/svg" width="24" height="24" viewBox="0 0 24 24"><path d="m18 14.125-2.459 4.563-1.258-2.282-1.229-2.281h.936v-3.687h3.015v3.687H18Z"/><path d="m16.566 8.719-3.103-3.281H7.346v13.124h5.298V20H6V4h8.049l3.453 3.719-.936 1Z"/><path d="M9.254 6.707c.099.05.197.1.271.151a.53.53 0 0 1 .147.252c.049.075.049.176.049.302 0 .101 0 .202-.049.303a.403.403 0 0 1-.172.227.732.732 0 0 1-.27.176c-.098.025-.246.05-.393.05h-.295V9H8.1V6.656h.737c.172 0 .295.025.417.051Zm-.049 1.008c.025-.025.049-.076.074-.126.024-.076.024-.126.024-.202 0-.05 0-.101-.024-.151-.025-.051-.049-.101-.074-.126-.049-.051-.098-.076-.147-.101a.474.474 0 0 1-.094-.011.621.621 0 0 0-.127-.014h-.295v.857h.295c.081 0 .129-.018.185-.038l.036-.013c.033 0 .065-.022.098-.044a.332.332 0 0 1 .049-.031Zm2.186-.983c.148.075.27.151.369.252.098.101.172.227.245.378.049.126.074.302.074.454 0 .176-.025.327-.074.478a1.379 1.379 0 0 1-.245.378.918.918 0 0 1-.369.227 1.384 1.384 0 0 1-.466.101h-.86V6.656h.86c.172 0 .319.025.466.076Zm.197 1.436v-.68a.603.603 0 0 0-.148-.277.497.497 0 0 0-.221-.152c-.073-.05-.196-.05-.294-.05h-.442v1.638h.442a.897.897 0 0 0 .294-.05.534.534 0 0 0 .221-.177.524.524 0 0 0 .148-.252Zm2.26-1.159v-.353h-1.45V9h.442v-.958h.835V7.69h-.835v-.681h1.008Z"/></svg>