<svg width="16" height="16" viewBox="0 0 16 16" fill="none" xmlns="http://www.w3.org/2000/svg">
  <path fill-rule="evenodd" clip-rule="evenodd"
        d="M0.515595 8.75112C0.18546 9.06412 0 9.48859 0 9.93117C0 10.3738 0.18546 10.7982 0.515595 11.1112L3.91255 14.3309H1.03157C0.798043 14.3309 0.574086 14.4188 0.408961 14.5753C0.243836 14.7318 0.151069 14.9441 0.151069 15.1655C0.151069 15.3868 0.243836 15.5991 0.408961 15.7556C0.574086 15.9121 0.798043 16 1.03157 16H15.1195C15.353 16 15.577 15.9121 15.7421 15.7556C15.9072 15.5991 16 15.3868 16 15.1655C16 14.9441 15.9072 14.7318 15.7421 14.5753C15.577 14.4188 15.353 14.3309 15.1195 14.3309H7.08057L15.4585 6.39019C15.7886 6.07719 15.9741 5.65272 15.9741 5.21014C15.9741 4.76755 15.7886 4.34309 15.4585 4.03009L11.7226 0.489106C11.559 0.334044 11.3649 0.211039 11.1512 0.127117C10.9375 0.0431948 10.7084 0 10.4771 0C10.2458 0 10.0167 0.0431948 9.80302 0.127117C9.58932 0.211039 9.39516 0.334044 9.23163 0.489106L0.515595 8.75112ZM4.32462 7.50097L1.76062 9.93117L5.49656 13.4713L8.05969 11.042L4.32462 7.50097ZM5.56964 6.32092L9.30559 9.86191L14.2126 5.21014L10.4775 1.66916L5.56964 6.32092Z"
        fill="black"/>
</svg>
