<svg xmlns="http://www.w3.org/2000/svg" width="24" height="24" viewBox="0 0 24 24"><path d="M9.114 11.906h5.68v.969h-5.68v-.969ZM9.145 10h5.679v1H9.145v-1Zm0-1.906h5.679v1H9.145v-1ZM18 7.688 14.397 4H6v16h12V7.688ZM7.405 18.562V5.438h6.412l2.778 2.874v10.25h-9.19Zm2.809-3.656a3.372 3.372 0 0 0-.336-.187c-.153-.031-.305-.063-.489-.063h-.916v2.906h.519v-1.031h.397c.184 0 .336-.031.458-.062.153-.063.275-.125.367-.219a.458.458 0 0 0 .183-.281.85.85 0 0 0 .092-.375c0-.156-.031-.282-.061-.375a1.164 1.164 0 0 0-.214-.313Zm-.306.906a.678.678 0 0 1-.091.157c-.061.031-.122.093-.183.093a.556.556 0 0 1-.245.063h-.397v-1.063h.397c.092 0 .184.032.245.032a.622.622 0 0 1 .183.125c.03.031.061.093.091.156.031.063.031.125.031.187 0 .094 0 .157-.031.25Zm3.084-.75a1.722 1.722 0 0 0-.458-.312 1.625 1.625 0 0 0-.58-.094h-1.068v2.906h1.068c.214 0 .428-.062.58-.124.184-.063.336-.157.458-.282.122-.125.245-.281.306-.468.061-.188.091-.376.091-.594 0-.188-.03-.406-.091-.563a1.253 1.253 0 0 0-.306-.469Zm-.213 1.469c-.031.125-.092.219-.153.313a1.086 1.086 0 0 1-.305.218 1.099 1.099 0 0 1-.367.063h-.549v-2.031h.549c.153 0 .275 0 .367.062.122.032.213.125.305.188.061.094.122.218.153.344a.88.88 0 0 1 .091.406c0 .156-.03.312-.091.437Zm2.809-1.437v-.438h-1.771v2.906h.519v-1.187h1.069v-.437h-1.069v-.844h1.252Z"/></svg>