<svg xmlns="http://www.w3.org/2000/svg" width="24" height="24" viewBox="0 0 24 24"><path d="M18 7.688 14.376 4H6v16h12V7.688ZM7.401 18.562V5.438h6.396l2.802 2.874v10.25H7.401Zm2.832-3.656a3.241 3.241 0 0 0-.335-.187c-.152-.031-.304-.063-.517-.063h-.914v2.906h.548v-1.031h.366c.182 0 .365-.031.487-.062a.908.908 0 0 0 .335-.219.494.494 0 0 0 .213-.281c.061-.125.061-.25.061-.375 0-.156 0-.282-.061-.375a.646.646 0 0 0-.183-.313Zm-.304.906c-.031.063-.061.126-.091.157-.061.031-.122.093-.183.093-.092.032-.152.063-.274.063h-.366v-1.063h.366c.122 0 .182.032.274.032a.622.622 0 0 1 .183.125c.03.031.06.093.091.156.03.063.03.125.03.187 0 .094 0 .157-.03.25Zm3.076-.75a1.733 1.733 0 0 0-.457-.312 1.739 1.739 0 0 0-.578-.094h-1.066v2.906h1.066c.213 0 .396-.062.578-.124.183-.063.335-.157.457-.282a1.77 1.77 0 0 0 .305-.468c.061-.188.091-.376.091-.594 0-.188-.03-.406-.091-.563a1.793 1.793 0 0 0-.305-.469Zm-.213 1.469a.662.662 0 0 1-.183.313.658.658 0 0 1-.274.218 1.086 1.086 0 0 1-.365.063h-.549v-2.031h.549c.121 0 .274 0 .365.062a.62.62 0 0 1 .274.188.757.757 0 0 1 .183.344c.061.124.061.25.061.406 0 .156 0 .312-.061.437Zm2.802-1.437v-.438h-1.797v2.906h.548v-1.187h1.036v-.437h-1.036v-.844h1.249Z"/></svg>