<svg xmlns="http://www.w3.org/2000/svg" width="24" height="24" viewBox="0 0 24 24"><path d="M10.519 16.594a.864.864 0 0 1-.855.875c-.458 0-.855-.407-.855-.875 0-.469.397-.875.855-.875.489 0 .855.406.855.875ZM8.87 13.188v1.156c.794 0 1.558.344 2.107.906a3.04 3.04 0 0 1 .886 2.156h1.129c-.03-2.312-1.862-4.187-4.122-4.218Zm0-2.219v1.125c2.84.031 5.16 2.406 5.191 5.312h1.099c-.03-3.531-2.809-6.406-6.29-6.437ZM18 7.688 14.366 4H6v16h12V7.688ZM7.374 18.562V5.438h6.412l2.809 2.874v10.25H7.374Z"/></svg>