<svg width="16" height="16" viewBox="0 0 16 16" fill="none" xmlns="http://www.w3.org/2000/svg">
<path fill-rule="evenodd" clip-rule="evenodd" d="M8 16C12.4183 16 16 12.4183 16 8C16 3.58172 12.4183 0 8 0C3.58172 0 0 3.58172 0 8C0 12.4183 3.58172 16 8 16ZM4.34505 4H6.05927C6.16916 4 6.24646 4.11653 6.21095 4.22867L5.57244 6.24495C5.55028 6.31491 5.48932 6.36193 5.42076 6.36193H3.25046C3.12665 6.36193 3.04959 6.21701 3.11214 6.1018L4.20673 4.08552C4.23548 4.03255 4.28813 4 4.34505 4ZM10.0095 4H11.7221C11.7785 4 11.8307 4.03197 11.8597 4.08417L12.9771 6.10046C13.0409 6.21565 12.9639 6.36193 12.8395 6.36193H10.6708C10.6029 6.36193 10.5424 6.31577 10.5197 6.24673L9.85839 4.23045C9.8215 4.11799 9.89887 4 10.0095 4ZM6.96031 4H8.97494C9.04285 4 9.1034 4.04616 9.12604 4.1152L9.78736 6.13148C9.82425 6.24394 9.74688 6.36193 9.63625 6.36193H6.3446C6.23545 6.36193 6.15823 6.24685 6.19237 6.13506L6.80807 4.11877C6.82972 4.04789 6.89111 4 6.96031 4ZM10.5438 7.13964H12.7987C12.9313 7.13964 13.0066 7.30329 12.9263 7.41707L9.24244 12.6411C9.13469 12.7939 8.91076 12.6718 8.96112 12.4876L10.39 7.26358C10.4101 7.19009 10.4727 7.13964 10.5438 7.13964ZM6.3432 7.13964H9.64283C9.75158 7.13964 9.82875 7.25393 9.79537 7.36552L8.14555 12.8802C8.09778 13.0399 7.88825 13.0399 7.84048 12.8802L6.19066 7.36552C6.15728 7.25393 6.23445 7.13964 6.3432 7.13964ZM3.16057 7.13964H5.41556C5.48662 7.13964 5.54919 7.19009 5.56929 7.26358L6.99819 12.4876C7.04855 12.6718 6.82463 12.7939 6.71687 12.6411L3.03299 7.41707C2.95275 7.30329 3.02801 7.13964 3.16057 7.13964Z" fill="#1F2328"/>
</svg>
