<svg xmlns="http://www.w3.org/2000/svg" width="16" height="16" viewBox="0 0 16 16"><path d="M.516 8.751 9.232.489c.163-.155.357-.278.571-.362a1.846 1.846 0 0 1 1.348 0c.214.084.408.207.572.362l3.735 3.541c.331.313.516.738.516 1.18 0 .443-.185.867-.516 1.18l-8.377 7.941h8.039c.233 0 .457.088.622.244a.815.815 0 0 1 .258.59.815.815 0 0 1-.258.591.907.907 0 0 1-.622.244H1.032a.908.908 0 0 1-.623-.244.815.815 0 0 1-.258-.591c0-.221.093-.433.258-.59a.908.908 0 0 1 .623-.244h2.881l-3.397-3.22A1.622 1.622 0 0 1 0 9.931c0-.442.185-.867.516-1.18Zm5.054-2.43 3.736 3.541 4.907-4.652-3.736-3.541Zm-1.245 1.18-2.564 2.43 3.736 3.54 2.563-2.429Z"/></svg>