<svg xmlns="http://www.w3.org/2000/svg" width="24" height="24" viewBox="0 0 24 24"><path d="M18 7.688 14.376 4H6v16h12V7.688ZM7.401 18.562V5.438h6.396l2.802 2.874v10.25H7.401Z"/><path d="M8.7 14.537h.979c.194 0 .338.01.433.03a.568.568 0 0 1 .256.121.77.77 0 0 1 .264.591.781.781 0 0 1-.094.38.614.614 0 0 1-.25.259.648.648 0 0 1 .344.268.81.81 0 0 1 .12.444c0 .134-.026.265-.078.392a.775.775 0 0 1-.213.304.633.633 0 0 1-.331.139c-.082.01-.281.017-.596.02H8.7v-2.948Zm.495.49v.682h.324c.193 0 .312-.003.359-.01a.305.305 0 0 0 .199-.104.352.352 0 0 0 .073-.232.36.36 0 0 0-.063-.221.265.265 0 0 0-.185-.105 5.158 5.158 0 0 0-.423-.01h-.284Zm0 1.173v.788h.458c.178 0 .291-.006.339-.018a.296.296 0 0 0 .179-.117.417.417 0 0 0 .07-.251.438.438 0 0 0-.054-.225.307.307 0 0 0-.155-.135c-.067-.028-.213-.042-.438-.042h-.399Zm3.544.201.48.183c-.074.322-.196.561-.368.718a.928.928 0 0 1-.65.233.975.975 0 0 1-.802-.4c-.21-.268-.314-.634-.314-1.098 0-.491.105-.872.315-1.142.211-.272.488-.409.831-.409.3 0 .543.107.73.32.112.126.195.307.251.543l-.49.141a.648.648 0 0 0-.182-.362.46.46 0 0 0-.334-.133.526.526 0 0 0-.443.235c-.112.157-.169.411-.169.763 0 .372.056.638.167.796a.512.512 0 0 0 .435.237c.131 0 .245-.05.339-.151.095-.1.163-.258.204-.474Zm.909 1.084v-2.948h1.68v.498h-1.185v.698h1.022v.499h-1.022v1.253h-.495Z"/></svg>