<svg xmlns="http://www.w3.org/2000/svg" width="24" height="24" viewBox="0 0 24 24"><path d="M10.081 16.844c-.03 0-.091 0-.122.031a.423.423 0 0 1-.121.094c-.031.031-.092.062-.153.093a.845.845 0 0 1-.274.063.5.5 0 0 1-.304-.094c-.092-.031-.153-.093-.214-.187a.839.839 0 0 1-.152-.282 1.903 1.903 0 0 1-.061-.437c0-.156.031-.281.061-.406a.965.965 0 0 1 .122-.313c.061-.062.152-.156.244-.187.091-.031.182-.063.304-.063s.183 0 .244.032c.061.031.122.031.183.062.03.031.091.062.121.094.031 0 .061.031.092.031.03 0 .061-.031.091-.031.031 0 .031-.032.061-.063l.183-.25a1.006 1.006 0 0 0-.427-.312c-.182-.063-.365-.125-.578-.125-.213 0-.427.062-.609.125a1.517 1.517 0 0 0-.427.312 1.608 1.608 0 0 0-.274.5 1.863 1.863 0 0 0-.091.594c0 .25.03.469.091.656.091.188.183.344.274.469.122.125.274.219.427.312.152.063.335.094.517.094.092 0 .183 0 .305-.031a.85.85 0 0 0 .274-.063c.122-.062.213-.093.305-.156.091-.062.152-.156.243-.25l-.213-.25c-.03-.031-.061-.062-.122-.062Zm2.467-.688a.665.665 0 0 0-.243-.156c-.061-.031-.153-.094-.244-.125s-.183-.063-.274-.063a1.396 1.396 0 0 1-.213-.093c-.061-.031-.122-.063-.153-.125-.061-.032-.061-.094-.061-.156 0-.094.031-.157.092-.219a.597.597 0 0 1 .335-.094c.091 0 .152 0 .243.031.061 0 .122.032.153.063.061.031.091.031.152.062.031.031.061.031.091.031.031 0 .061 0 .092-.031.03 0 .03-.031.061-.062l.152-.25a1.234 1.234 0 0 0-.396-.25c-.183-.063-.365-.125-.548-.125-.183 0-.335.031-.487.094a.72.72 0 0 0-.336.187 1.735 1.735 0 0 0-.213.281c-.061.094-.061.219-.061.344 0 .125 0 .25.061.344a.558.558 0 0 0 .153.218c.06.063.152.126.243.157.061.031.153.093.244.125a.875.875 0 0 0 .274.062c.091.032.152.063.213.094a.622.622 0 0 1 .183.125c.03.031.03.094.03.156v.157l-.091.093a.648.648 0 0 1-.152.094c-.061 0-.122.031-.214.031-.091 0-.182-.031-.243-.031a.5.5 0 0 1-.183-.094.65.65 0 0 1-.152-.093c-.031 0-.061-.032-.122-.032-.03 0-.061 0-.091.032-.031.031-.061.031-.092.062l-.152.281c.061.063.122.094.183.157.091.031.182.062.243.124.092.032.183.032.275.063.121.031.213.031.304.031.183 0 .366-.031.487-.062.153-.063.275-.125.366-.219a.775.775 0 0 0 .243-.313c.061-.124.061-.25.061-.406 0-.125 0-.218-.061-.312-.03-.063-.091-.125-.152-.188Zm2.802-1.5c-.061 0-.091 0-.122.032-.06.031-.06.062-.091.093l-.548 1.594c-.031.094-.061.187-.091.25-.031.094-.031.187-.061.281-.031-.094-.031-.187-.061-.281-.031-.063-.061-.156-.092-.25l-.548-1.594c0-.031-.03-.062-.061-.093-.03-.032-.091-.032-.122-.032h-.578l1.126 2.969h.64l1.158-2.969h-.549ZM18 7.719 14.376 4H6v16h12V7.719h-.03.03ZM7.401 18.562V5.438h6.396l2.802 2.874v10.25H7.401Z"/></svg>