<svg xmlns="http://www.w3.org/2000/svg" width="24" height="24" viewBox="0 0 24 24"><path d="m8.68 17.562.944-1.5-.883-1.406h.518c.03 0 .061 0 .061.032.013 0 .02 0 .027.002.009.003.016.011.034.029l.639 1.062v-.062c.031 0 .031-.031.031-.031l.609-.969c.03-.031.061-.063.091-.063h.518l-.914 1.375.945 1.531h-.549c-.03 0-.061-.031-.061-.031l-.061-.062-.67-1.125v.062l-.03.032-.609 1.031c-.019 0-.026.012-.036.028-.006.01-.013.022-.025.034a.106.106 0 0 0-.046.016.1.1 0 0 1-.045.015H8.68Zm2.924 0v-2.906h.518v2.438h1.127v.468h-1.645Zm1.797-.374.152-.25s.031-.032.061-.032c0-.031.031-.031.061-.031.031 0 .061 0 .092.031.03.032.091.063.152.094a.5.5 0 0 0 .182.094.587.587 0 0 0 .244.031.532.532 0 0 0 .335-.094c.092-.062.122-.187.122-.312 0-.063 0-.125-.061-.188a.278.278 0 0 0-.087-.095.383.383 0 0 1-.035-.03 1.379 1.379 0 0 1-.213-.094.57.57 0 0 1-.244-.062 2.213 2.213 0 0 1-.121-.047c-.039-.015-.077-.031-.122-.047-.092-.031-.152-.094-.213-.156a.794.794 0 0 1-.109-.149 1.271 1.271 0 0 0-.044-.07c-.03-.093-.061-.187-.061-.312s.031-.219.061-.313a1.17 1.17 0 0 1 .122-.194c.02-.028.041-.056.061-.087.091-.063.183-.125.305-.187.121-.032.243-.063.396-.063.152 0 .304.031.456.094a.721.721 0 0 1 .366.219l-.122.25-.061.062h-.061c-.03 0-.061 0-.091-.031a.222.222 0 0 1-.122-.063.174.174 0 0 0-.075-.034.485.485 0 0 1-.077-.028c-.061-.032-.122-.032-.213-.032-.061 0-.122 0-.183.032-.031.015-.054.023-.076.031a.65.65 0 0 0-.077.031.244.244 0 0 0-.06.125c-.031.031-.031.094-.031.157 0 .062 0 .124.061.156a.24.24 0 0 0 .122.125c.03.015.068.031.107.047.038.015.076.031.106.046.072 0 .126.02.19.044l.054.019c.045.016.083.031.122.047.038.016.076.031.121.047.031.031.069.054.107.078a.554.554 0 0 1 .107.078.79.79 0 0 1 .108.149l.044.07c.03.062.061.187.061.312s-.031.25-.092.344a.645.645 0 0 1-.182.312.63.63 0 0 1-.305.188.959.959 0 0 1-.426.094c-.051 0-.101-.01-.146-.018-.037-.007-.071-.014-.098-.014l-.274-.093c-.014-.008-.03-.015-.048-.023-.054-.025-.119-.054-.165-.102-.061-.032-.122-.094-.183-.156Zm-.599-8.775H8.904v3.254h3.898V8.413Zm2.755 1.581c-.487.35-1.087.947-1.462 1.581v-1.306h-.755l.003-.656.752-.007V8.413c.375.631.975 1.231 1.462 1.581Z"/><path d="M17.969 7.688H18V20H6V4h8.376ZM7.401 18.562h9.198V8.312l-2.802-2.874H7.401Z"/></svg>