<svg width="16" height="16" viewBox="0 0 16 16" fill="none" xmlns="http://www.w3.org/2000/svg">
<path d="M1.5 1.75C1.5 1.61193 1.61193 1.5 1.75 1.5H8.33579C8.40209 1.5 8.46568 1.52634 8.51256 1.57322L11.4268 4.48744C11.4737 4.53432 11.5 4.59791 11.5 4.66421V5.70711C11.5 6.12132 11.8358 6.45711 12.25 6.45711C12.6642 6.45711 13 6.12132 13 5.70711V4.66421C13 4.20008 12.8156 3.75497 12.4874 3.42678L9.57322 0.512563C9.24503 0.184374 8.79991 0 8.33579 0H1.75C0.783501 0 0 0.783502 0 1.75V13.25C0 14.2165 0.783502 15 1.75 15H4.75C5.16421 15 5.5 14.6642 5.5 14.25C5.5 13.8358 5.16421 13.5 4.75 13.5H1.75C1.61193 13.5 1.5 13.3881 1.5 13.25V1.75Z" fill="#1F2328"/>
<path fill-rule="evenodd" clip-rule="evenodd" d="M7.75 8C6.784 8 6 8.784 6 9.75V12.25C6 12.7141 6.18437 13.1592 6.51256 13.4874C6.84075 13.8156 7.28587 14 7.75 14H8V14.543C8.0001 14.8311 8.08561 15.1127 8.24571 15.3522C8.40581 15.5917 8.63333 15.7784 8.8995 15.8886C9.16567 15.9988 9.45854 16.0277 9.74111 15.9715C10.0237 15.9153 10.2832 15.7767 10.487 15.573L12.06 14H13.25C13.7141 14 14.1592 13.8156 14.4874 13.4874C14.8156 13.1592 15 12.7141 15 12.25V9.75C15 8.784 14.216 8 13.25 8H7.75ZM7.57322 9.57322C7.62011 9.52634 7.6837 9.5 7.75 9.5H13.25C13.3163 9.5 13.3799 9.52634 13.4268 9.57322C13.4737 9.62011 13.5 9.6837 13.5 9.75V12.25C13.5 12.3163 13.4737 12.3799 13.4268 12.4268C13.3799 12.4737 13.3163 12.5 13.25 12.5H11.75C11.5512 12.5002 11.3605 12.5793 11.22 12.72L9.5 14.44V13.25C9.5 13.0511 9.42098 12.8603 9.28033 12.7197C9.13968 12.579 8.94891 12.5 8.75 12.5H7.75C7.612 12.5 7.5 12.388 7.5 12.25V9.75C7.5 9.6837 7.52634 9.62011 7.57322 9.57322Z" fill="#1F2328"/>
</svg>
