<svg xmlns="http://www.w3.org/2000/svg" width="16" height="16" viewBox="0 0 16 16"><path d="M2 1.75C2 .784 2.783 0 3.75 0h6.586c.464 0 .909.184 1.237.513l2.914 2.914c.329.328.513.773.513 1.237v9.586A1.75 1.75 0 0 1 13.25 16h-9.5A1.75 1.75 0 0 1 2 14.25Zm1.75-.25a.25.25 0 0 0-.25.25v12.5c0 .138.112.25.25.25h9.5a.25.25 0 0 0 .25-.25V4.664a.25.25 0 0 0-.073-.177l-2.914-2.914a.25.25 0 0 0-.177-.073Z"/><path d="M4.25 11.5c0-.967.784-1.75 1.75-1.75h5c.967 0 1.75.783 1.75 1.75v.5A1.75 1.75 0 0 1 11 13.75H6A1.75 1.75 0 0 1 4.25 12Zm0-4.75C4.25 5.784 5.034 5 6 5h5c.967 0 1.75.784 1.75 1.75v.5A1.75 1.75 0 0 1 11 9H6a1.75 1.75 0 0 1-1.75-1.75ZM6 11.25a.25.25 0 0 0-.25.25v.5c0 .138.112.25.25.25h5a.25.25 0 0 0 .25-.25v-.5a.25.25 0 0 0-.25-.25ZM6 6.5a.25.25 0 0 0-.25.25v.5c0 .138.112.25.25.25h5a.25.25 0 0 0 .25-.25v-.5A.25.25 0 0 0 11 6.5Z"/></svg>