<svg xmlns="http://www.w3.org/2000/svg" width="16" height="16" viewBox="0 0 16 16"><path d="M1.5 1.75a.25.25 0 0 1 .25-.25h6.586a.25.25 0 0 1 .177.073l2.914 2.914a.25.25 0 0 1 .073.177v1.043a.75.75 0 0 0 1.5 0V4.664c0-.464-.184-.909-.513-1.237L9.573.513A1.746 1.746 0 0 0 8.336 0H1.75A1.75 1.75 0 0 0 0 1.75v11.5C0 14.216.784 15 1.75 15h3a.75.75 0 0 0 0-1.5h-3a.25.25 0 0 1-.25-.25V1.75Z"/><path d="M7.75 8h5.5c.966 0 1.75.784 1.75 1.75v2.5c0 .464-.184.909-.513 1.237A1.746 1.746 0 0 1 13.25 14h-1.19l-1.573 1.573a1.46 1.46 0 0 1-1.588.316A1.458 1.458 0 0 1 8 14.543V14h-.25c-.464 0-.909-.184-1.237-.513A1.746 1.746 0 0 1 6 12.25v-2.5C6 8.784 6.784 8 7.75 8Zm-.177 1.573a.25.25 0 0 0-.073.177v2.5c0 .138.112.25.25.25h1c.199 0 .39.079.53.22.141.14.22.331.22.53v1.19l1.72-1.72a.749.749 0 0 1 .53-.22h1.5a.25.25 0 0 0 .25-.25v-2.5a.25.25 0 0 0-.25-.25h-5.5a.25.25 0 0 0-.177.073Z"/></svg>