<svg xmlns="http://www.w3.org/2000/svg" width="16" height="16" viewBox="0 0 16 16"><path d="M1.75 1.5a.25.25 0 0 0-.25.25v11.5c0 .138.112.25.25.25h3a.75.75 0 0 1 0 1.5h-3A1.75 1.75 0 0 1 0 13.25V1.75C0 .784.784 0 1.75 0h6.586c.464 0 .909.184 1.237.513l2.914 2.914c.329.328.513.773.513 1.237v2.043a.75.75 0 0 1-1.5 0V4.664a.25.25 0 0 0-.073-.177L8.513 1.573a.25.25 0 0 0-.177-.073H1.75Z"/><path d="M10.4 9.6v2.151l-.776-.775a.595.595 0 0 0-.653-.13.595.595 0 0 0-.371.554.605.605 0 0 0 .176.424l1.8 1.8a.595.595 0 0 0 .653.13.595.595 0 0 0 .195-.13l1.8-1.8a.602.602 0 0 0 0-.848.602.602 0 0 0-.848 0l-.776.775V9.6A.597.597 0 0 0 11 9a.597.597 0 0 0-.6.6Z"/><path d="M7.41 15.59c.263.262.619.41.99.41h5.2a1.404 1.404 0 0 0 1.4-1.4v-.4a.597.597 0 0 0-.6-.6.597.597 0 0 0-.6.6v.4a.197.197 0 0 1-.059.141.197.197 0 0 1-.141.059H8.4a.2.2 0 0 1-.2-.2v-.4a.597.597 0 0 0-.6-.6.597.597 0 0 0-.6.6v.4c0 .371.147.727.41.99Z"/></svg>