<svg xmlns="http://www.w3.org/2000/svg" width="24" height="24" viewBox="0 0 24 24"><path d="M8.016 14.219v-2.594C5.731 11.312 4 9.719 4 7.844 4 5.719 6.155 4 8.8 4H12c2.678 0 4.833 1.719 4.833 3.844 0 2.031-2.025 3.718-4.539 3.812l-4.278 2.563ZM8.8 5.281c-1.763 0-3.2 1.157-3.2 2.563 0 1.406 1.437 2.562 3.2 2.562h.816v1.25l2.123-1.25H12c1.796 0 3.233-1.156 3.233-2.562S13.796 5.281 12 5.281H8.8Zm5.224 12.875c-1.795-.094-3.265-1.281-3.265-2.75 0-1.531 1.567-2.781 3.461-2.781h2.319c1.926 0 3.461 1.25 3.461 2.781 0 1.344-1.241 2.5-2.873 2.719V20l-3.103-1.844Zm.196-4.594c-1.273 0-2.285.813-2.285 1.844 0 1 1.012 1.813 2.285 1.813h.196l1.568.937v-.937h.555c1.273 0 2.318-.813 2.318-1.813 0-1.031-1.045-1.844-2.318-1.844H14.22Zm-4.898-7.5a2.567 2.567 0 0 1 1.274-.312c.392 0 .686.094.914.25.261.188.359.438.359.75 0 .156-.032.281-.065.375a.649.649 0 0 1-.196.313c-.098.093-.261.218-.49.406-.163.125-.293.25-.359.312a.648.648 0 0 0-.098.375v.125h-.555v-.187c0-.188.033-.375.098-.5a2.56 2.56 0 0 1 .425-.438c.228-.156.391-.312.457-.406a.614.614 0 0 0 .098-.344.508.508 0 0 0-.164-.375c-.13-.062-.261-.125-.489-.125-.164 0-.36.031-.49.094a1.592 1.592 0 0 0-.49.187l-.229-.5Zm.654 3.5c0-.281.163-.437.424-.437.163 0 .261.031.326.125a.404.404 0 0 1 .131.312c0 .126-.065.219-.131.313A.442.442 0 0 1 10.4 10a.419.419 0 0 1-.294-.125c-.098-.063-.13-.187-.13-.313Zm5.028 6.813a.28.28 0 0 1 .098-.219c.033-.031.131-.062.229-.062s.163.031.228.062a.436.436 0 0 1 .065.219.436.436 0 0 1-.065.219c-.065.031-.13.062-.228.062s-.196-.031-.229-.062a.28.28 0 0 1-.098-.219Zm0-2.219h.62l-.097 1.656h-.425l-.098-1.656Z"/></svg>