<svg xmlns="http://www.w3.org/2000/svg" width="16" height="16" viewBox="0 0 16 16"><path d="M9 6c0 1.004-.423 1.91-1.101 2.548a5.528 5.528 0 0 1 3.1 4.659.751.751 0 0 1-1.498.086A4.009 4.009 0 0 0 5.5 9.5a4.009 4.009 0 0 0-4.001 3.793A.75.75 0 0 1 0 13.257v-.013l.001-.037a5.528 5.528 0 0 1 3.1-4.659A3.5 3.5 0 1 1 9 6ZM3.5 6a2 2 0 1 0 3.999.001A2 2 0 0 0 3.5 6ZM16 2.3v3.4a.302.302 0 0 1-.143.261.265.265 0 0 1-.283-.004l-1.449-.927v.27c0 .387-.294.7-.656.7h-2.813C10.294 6 10 5.687 10 5.3V2.7c0-.387.294-.7.656-.7h2.813c.362 0 .656.313.656.7v.27l1.449-.927a.265.265 0 0 1 .283-.004A.302.302 0 0 1 16 2.3Z"/></svg>