<svg xmlns="http://www.w3.org/2000/svg" width="16" height="16" viewBox="0 0 16 16"><path d="M1.75 1.5a.25.25 0 0 0-.25.25v11.5c0 .138.112.25.25.25h4a.75.75 0 0 1 0 1.5h-4A1.75 1.75 0 0 1 0 13.25V1.75C0 .784.784 0 1.75 0h6.586c.464 0 .909.184 1.237.513l2.914 2.914c.329.328.513.773.513 1.237v2.043a.75.75 0 0 1-1.5 0V4.664a.25.25 0 0 0-.073-.177L8.513 1.573a.25.25 0 0 0-.177-.073H1.75Zm11.226 7.755a.87.87 0 0 1 1.23 0l.539.539a.87.87 0 0 1 0 1.23l-4.278 4.279a.882.882 0 0 1-.376.221l-1.616.462a.373.373 0 0 1-.461-.461l.462-1.616a.882.882 0 0 1 .221-.376Zm.703.527a.124.124 0 0 0-.176 0l-.628.627.716.716.627-.628a.124.124 0 0 0 0-.176Z"/></svg>