<svg width="16" height="16" viewBox="0 0 16 16" fill="none" xmlns="http://www.w3.org/2000/svg">
<g clip-path="url(#clip0_255_6535)">
<path fill-rule="evenodd" clip-rule="evenodd" d="M8.99999 6C8.99999 7.00439 8.57692 7.90996 7.89927 8.54824C9.65282 9.39897 10.8812 11.1545 10.9988 13.2071C11.0224 13.6207 10.7064 13.9751 10.2929 13.9988C9.87934 14.0225 9.5249 13.7064 9.50122 13.2929C9.37987 11.1742 7.64161 9.5 5.49999 9.5C3.35837 9.5 1.62011 11.1742 1.49876 13.2929C1.47508 13.7064 1.12064 14.0225 0.707107 13.9988C0.293572 13.9751 -0.0224658 13.6207 0.00121831 13.2071C0.118776 11.1545 1.34716 9.39897 3.10071 8.54824C2.42306 7.90996 1.99999 7.00439 1.99999 6C1.99999 4.067 3.56699 2.5 5.49999 2.5C7.43299 2.5 8.99999 4.067 8.99999 6ZM3.49999 6C3.49999 4.89543 4.39542 4 5.49999 4C6.60456 4 7.49999 4.89543 7.49999 6C7.49999 7.10457 6.60456 8 5.49999 8C4.39542 8 3.49999 7.10457 3.49999 6Z" fill="#1F2328"/>
<path fill-rule="evenodd" clip-rule="evenodd" d="M16 2.3C16 2.19192 15.9455 2.09219 15.8573 2.03894C15.7692 1.98569 15.6609 1.98714 15.574 2.04275L14.125 2.97014V2.7C14.125 2.3134 13.8312 2 13.4688 2H10.6562C10.2938 2 10 2.3134 10 2.7V5.3C10 5.6866 10.2938 6 10.6562 6H13.4688C13.8312 6 14.125 5.6866 14.125 5.3V5.02984L15.574 5.95724C15.6609 6.01284 15.7692 6.01432 15.8573 5.96104C15.9455 5.9078 16 5.80808 16 5.7V2.3Z" fill="#1F2328"/>
</g>
<defs>
<clipPath id="clip0_255_6535">
<rect width="16" height="16" fill="white"/>
</clipPath>
</defs>
</svg>
