<svg xmlns="http://www.w3.org/2000/svg" width="16" height="16" viewBox="0 0 16 16"><path d="M2 1.75C2 .784 2.783 0 3.75 0h6.586c.464 0 .909.184 1.237.513l2.914 2.914c.329.328.513.773.513 1.237v9.586A1.75 1.75 0 0 1 13.25 16h-9.5A1.75 1.75 0 0 1 2 14.25Zm1.75-.25a.25.25 0 0 0-.25.25v12.5c0 .138.112.25.25.25h9.5a.25.25 0 0 0 .25-.25V4.664a.25.25 0 0 0-.073-.177l-2.914-2.914a.25.25 0 0 0-.177-.073Z"/><path d="M6.196 13.5C5.452 13.5 5 12.937 5 12c0-.935.461-1.5 1.182-1.5.469 0 .832.241 1.004.659a.556.556 0 0 1 .053.228c0 .159-.093.261-.232.261-.118 0-.192-.06-.25-.201-.115-.295-.32-.444-.57-.444-.396 0-.652.384-.652.995 0 .619.252 1.001.654 1.001.264 0 .462-.138.575-.43.054-.137.12-.191.231-.191.148 0 .245.109.245.27a.577.577 0 0 1-.04.203c-.156.402-.53.649-1.004.649Zm2.355 0c-.518 0-.85-.239-.95-.557a.503.503 0 0 1-.028-.163c0-.161.095-.267.231-.267.108 0 .179.048.242.177.081.221.278.321.517.321.282 0 .473-.156.473-.37 0-.191-.118-.299-.433-.374l-.266-.06c-.5-.115-.745-.392-.745-.824 0-.531.4-.883.958-.883.458 0 .804.223.915.601.013.04.02.083.02.135 0 .145-.091.243-.225.243-.118 0-.191-.054-.25-.179-.083-.219-.245-.309-.46-.309-.259 0-.432.14-.432.354 0 .179.12.289.418.357l.264.063c.532.122.761.37.761.81 0 .567-.384.925-1.01.925Zm2.319-.01c-.205 0-.327-.105-.403-.352l-.699-2.169a.591.591 0 0 1-.026-.171c0-.171.112-.288.277-.288.14 0 .224.074.267.239l.588 2.077h.012l.586-2.083c.043-.163.121-.233.259-.233.159 0 .269.115.269.28a.538.538 0 0 1-.026.162l-.702 2.188c-.077.245-.198.35-.402.35Z"/></svg>