<svg xmlns="http://www.w3.org/2000/svg" width="16" height="16" viewBox="0 0 16 16"><path d="M6 6.75h5c.967 0 1.75.784 1.75 1.75V12A1.75 1.75 0 0 1 11 13.75H6A1.75 1.75 0 0 1 4.25 12V8.5c0-.966.784-1.75 1.75-1.75Zm3.25 5.5H11a.25.25 0 0 0 .25-.25v-1h-2Zm0-2.75h2v-1a.25.25 0 0 0-.25-.25H9.25ZM7.75 11h-2v1c0 .138.112.25.25.25h1.75Zm0-2.75H6a.25.25 0 0 0-.25.25v1h2Z"/><path d="M3.75 0h6.586c.464 0 .909.184 1.237.513l2.914 2.914c.329.328.513.773.513 1.237v9.586A1.75 1.75 0 0 1 13.25 16h-9.5A1.75 1.75 0 0 1 2 14.25V1.75C2 .784 2.783 0 3.75 0ZM3.5 1.75v12.5c0 .138.112.25.25.25h9.5a.25.25 0 0 0 .25-.25V4.664a.25.25 0 0 0-.073-.177l-2.914-2.914a.25.25 0 0 0-.177-.073H3.75a.25.25 0 0 0-.25.25Z"/></svg>