<svg width="16" height="16" viewBox="0 0 16 16" fill="none" xmlns="http://www.w3.org/2000/svg">
<path fill-rule="evenodd" clip-rule="evenodd" d="M6 6.75C5.0335 6.75 4.25 7.5335 4.25 8.5V12C4.25 12.9665 5.0335 13.75 6 13.75H8.49829L8.5 13.75L8.50171 13.75H11C11.9665 13.75 12.75 12.9665 12.75 12V8.5C12.75 7.5335 11.9665 6.75 11 6.75H6ZM7.75 8.25H6C5.86193 8.25 5.75 8.36193 5.75 8.5V9.5H7.75V8.25ZM9.25 9.5V8.25H11C11.1381 8.25 11.25 8.36193 11.25 8.5V9.5H9.25ZM7.75 11H5.75V12C5.75 12.1381 5.86193 12.25 6 12.25H7.75V11ZM9.25 12.25V11H11.25V12C11.25 12.1381 11.1381 12.25 11 12.25H9.25Z" fill="#1F2328"/>
<path fill-rule="evenodd" clip-rule="evenodd" d="M3.75 0C2.7835 0 2 0.783502 2 1.75V14.25C2 15.2165 2.7835 16 3.75 16H13.25C14.2165 16 15 15.2165 15 14.25V4.66421C15 4.20008 14.8156 3.75497 14.4874 3.42678L11.5732 0.512563C11.245 0.184374 10.7999 0 10.3358 0H3.75ZM3.5 1.75C3.5 1.61193 3.61193 1.5 3.75 1.5H10.3358C10.4021 1.5 10.4657 1.52634 10.5126 1.57322L13.4268 4.48744C13.4737 4.53432 13.5 4.59791 13.5 4.66421V14.25C13.5 14.3881 13.3881 14.5 13.25 14.5H3.75C3.61193 14.5 3.5 14.3881 3.5 14.25V1.75Z" fill="#1F2328"/>
</svg>
