<svg width="16" height="16" viewBox="0 0 16 16" fill="none" xmlns="http://www.w3.org/2000/svg">
<path fill-rule="evenodd" clip-rule="evenodd" d="M3.75 1.5C3.61193 1.5 3.5 1.61193 3.5 1.75V14.25C3.5 14.3881 3.61193 14.5 3.75 14.5H13.25C13.3881 14.5 13.5 14.3881 13.5 14.25V4.66421C13.5 4.59791 13.4737 4.53432 13.4268 4.48744L10.5126 1.57322C10.4657 1.52634 10.4021 1.5 10.3358 1.5H3.75ZM2 1.75C2 0.783502 2.7835 0 3.75 0H10.3358C10.7999 0 11.245 0.184374 11.5732 0.512563L14.4874 3.42678C14.8156 3.75497 15 4.20008 15 4.66421V14.25C15 15.2165 14.2165 16 13.25 16H3.75C2.7835 16 2 15.2165 2 14.25V1.75Z" fill="#24292F"/>
<path fill-rule="evenodd" clip-rule="evenodd" d="M4.25 8.5C4.25 7.5335 5.0335 6.75 6 6.75H11C11.9665 6.75 12.75 7.5335 12.75 8.5V12C12.75 12.9665 11.9665 13.75 11 13.75H6C5.0335 13.75 4.25 12.9665 4.25 12V8.5ZM6 8.25C5.86193 8.25 5.75 8.36193 5.75 8.5V12C5.75 12.1381 5.86193 12.25 6 12.25H11C11.1381 12.25 11.25 12.1381 11.25 12V8.5C11.25 8.36193 11.1381 8.25 11 8.25H6Z" fill="#1F2328"/>
</svg>
