<svg xmlns="http://www.w3.org/2000/svg" width="16" height="16" viewBox="0 0 16 16"><path d="M8.661 13.5c-.798 0-1.283-.563-1.283-1.5 0-.935.494-1.5 1.268-1.5.504 0 .894.241 1.078.659a.517.517 0 0 1 .056.228c0 .159-.099.261-.248.261-.127 0-.207-.06-.268-.201-.123-.295-.343-.444-.612-.444-.425 0-.699.384-.699.995 0 .619.27 1.001.701 1.001.283 0 .496-.138.617-.43.058-.137.129-.191.248-.191.159 0 .263.109.263.27a.54.54 0 0 1-.043.203c-.168.402-.569.649-1.078.649Zm-3.379-.048c-.178 0-.282-.117-.282-.318v-2.268c0-.199.104-.316.282-.316h.889c.506 0 .823.28.823.724 0 .318-.22.583-.506.629v.017a.68.68 0 0 1 .634.701c0 .511-.356.831-.93.831Zm.281-.453h.485c.325 0 .5-.148.5-.426 0-.271-.181-.416-.513-.416h-.472Zm0-1.242h.405c.3 0 .472-.143.472-.388 0-.234-.151-.366-.414-.366h-.463Zm4.641 1.417c0 .199.105.316.282.316s.281-.117.281-.316v-.864h.886c.147 0 .241-.091.241-.242 0-.148-.095-.239-.241-.239h-.886v-.776h.978c.152 0 .255-.095.255-.251 0-.157-.101-.252-.255-.252h-1.259c-.177 0-.282.117-.282.316v2.308Z"/><path d="M3.75 0h6.586c.464 0 .909.184 1.237.513l2.914 2.914c.329.328.513.773.513 1.237v9.586A1.75 1.75 0 0 1 13.25 16h-9.5A1.75 1.75 0 0 1 2 14.25V1.75C2 .784 2.783 0 3.75 0ZM3.5 1.75v12.5c0 .138.112.25.25.25h9.5a.25.25 0 0 0 .25-.25V4.664a.25.25 0 0 0-.073-.177l-2.914-2.914a.25.25 0 0 0-.177-.073H3.75a.25.25 0 0 0-.25.25Z"/></svg>