<svg xmlns="http://www.w3.org/2000/svg" width="16" height="16" viewBox="0 0 16 16"><path d="M1.75 1.5a.25.25 0 0 0-.25.25v11.5c0 .138.112.25.25.25h3a.75.75 0 0 1 0 1.5h-3A1.75 1.75 0 0 1 0 13.25V1.75C0 .784.784 0 1.75 0h6.586c.464 0 .909.184 1.237.513l2.914 2.914c.329.328.513.773.513 1.237v2.043a.75.75 0 0 1-1.5 0V4.664a.25.25 0 0 0-.073-.177L8.513 1.573a.25.25 0 0 0-.177-.073H1.75Z"/><path d="M13.498 9.439a.75.75 0 0 1 .063 1.059l-4.529 5.095L6.97 13.53a.749.749 0 1 1 1.06-1.06l.938.937 3.471-3.905a.75.75 0 0 1 1.059-.063Z"/></svg>