<svg xmlns="http://www.w3.org/2000/svg" width="16" height="16" viewBox="0 0 16 16"><path d="M2 1.75C2 .784 2.783 0 3.75 0h6.586c.464 0 .909.184 1.237.513l2.914 2.914c.329.328.513.773.513 1.237v9.586A1.75 1.75 0 0 1 13.25 16h-9.5A1.75 1.75 0 0 1 2 14.25Zm1.75-.25a.25.25 0 0 0-.25.25v12.5c0 .138.112.25.25.25h9.5a.25.25 0 0 0 .25-.25V4.664a.25.25 0 0 0-.073-.177l-2.914-2.914a.25.25 0 0 0-.177-.073Z"/><path d="M5.273 13.49A.266.266 0 0 1 5 13.226c0-.074.023-.138.078-.219l.688-1.009v-.016l-.665-.953a.375.375 0 0 1-.084-.233.28.28 0 0 1 .292-.286c.109 0 .186.05.26.169l.59.917h.015l.61-.937c.067-.105.124-.149.235-.149.15 0 .28.115.28.259a.343.343 0 0 1-.076.218l-.716 1.007v.014l.695.987a.357.357 0 0 1 .076.221.266.266 0 0 1-.277.274c-.105 0-.175-.044-.25-.151l-.615-.903h-.015l-.605.905c-.073.111-.134.149-.243.149Zm2.754-.038c-.181 0-.288-.117-.288-.318v-2.306c0-.201.107-.318.288-.318.182 0 .289.117.289.318v2.121h.977c.157 0 .262.095.262.251 0 .157-.103.252-.262.252H8.027Zm2.863.048c-.569 0-.933-.239-1.044-.557a.48.48 0 0 1-.031-.163c0-.161.105-.267.254-.267.119 0 .197.048.266.177.09.221.305.321.569.321.309 0 .519-.156.519-.37 0-.191-.13-.299-.475-.374l-.292-.06c-.55-.115-.82-.392-.82-.824 0-.531.439-.883 1.053-.883.504 0 .884.223 1.006.601.013.04.021.083.021.135 0 .145-.099.243-.246.243-.13 0-.21-.054-.275-.179-.092-.219-.27-.309-.506-.309-.285 0-.474.14-.474.354 0 .179.132.289.458.357l.291.063c.584.122.836.37.836.81 0 .567-.422.925-1.11.925ZM5 5.75A.75.75 0 0 1 5.75 5h5.5a.75.75 0 0 1 0 1.5h-5.5A.75.75 0 0 1 5 5.75Zm.75 1.75a.75.75 0 0 0 0 1.5h5.5a.75.75 0 0 0 0-1.5h-5.5Z"/></svg>