<svg xmlns="http://www.w3.org/2000/svg" width="16" height="16" viewBox="0 0 16 16"><path d="M5.701 5.172c-.398 0-.701-.258-.701-.635 0-.381.293-.601.816-.633l.528-.031v-.139c0-.195-.137-.308-.352-.308-.174 0-.279.056-.406.22a.287.287 0 0 1-.227.106c-.138 0-.238-.09-.238-.219a.31.31 0 0 1 .029-.129c.098-.25.434-.404.868-.404.537 0 .886.277.886.699v1.194c0 .189-.115.287-.277.287-.154 0-.262-.086-.273-.254v-.108h-.012c-.117.223-.379.354-.641.354Zm.188-.412c.25 0 .455-.162.455-.389v-.152l-.442.027c-.213.016-.334.111-.334.26 0 .156.129.254.321.254Zm1.695-.518c-.154 0-.269-.092-.269-.25s.115-.248.269-.248h.815c.154 0 .269.09.269.248s-.115.25-.269.25h-.815Zm1.427.67c0 .137.095.227.246.227h1.285c.145 0 .23-.08.23-.219s-.085-.219-.23-.219h-.805v-.01l.891-1.166c.066-.084.092-.148.092-.23 0-.154-.104-.25-.272-.25H9.229c-.146 0-.23.08-.23.217 0 .138.086.218.23.218h.827v.012l-.965 1.223c-.059.07-.08.123-.08.197Z"/><path d="M2.732.732A2.5 2.5 0 0 1 4.5 0h8.75c.199 0 .39.079.53.22.141.14.22.331.22.53v12.5c0 .199-.079.39-.22.53a.747.747 0 0 1-.53.22h-2.5a.747.747 0 0 1-.53-.22.747.747 0 0 1 0-1.06.747.747 0 0 1 .53-.22h1.75v-2h-8a.998.998 0 0 0-.982 1.188c.037.193.13.371.268.512a.752.752 0 0 1-.544 1.275.75.75 0 0 1-.528-.225A2.495 2.495 0 0 1 2 11.5v-9A2.5 2.5 0 0 1 2.732.732ZM12.5 9V1.5h-8a.997.997 0 0 0-1 1v6.708A2.486 2.486 0 0 1 4.5 9Z"/><path d="M5 15.5v-3.25a.25.25 0 0 1 .25-.25h3.5a.25.25 0 0 1 .25.25v3.25a.252.252 0 0 1-.138.224.26.26 0 0 1-.134.025.246.246 0 0 1-.128-.049l-1.45-1.087a.253.253 0 0 0-.3 0L5.4 15.7a.246.246 0 0 1-.128.049.26.26 0 0 1-.134-.025A.252.252 0 0 1 5 15.5Z"/></svg>