<svg xmlns="http://www.w3.org/2000/svg" width="16" height="16" viewBox="0 0 16 16"><path d="M2.343 2.343a8 8 0 1 1 11.314 11.315A8 8 0 0 1 2.343 2.343Zm11.992 3.033a6.846 6.846 0 0 0-3.711-3.711 6.851 6.851 0 0 0-5.248 0 6.862 6.862 0 0 0-3.711 3.711 6.857 6.857 0 1 0 12.67 0Z"/><path d="M8 6.822 6.399 5.221a.332.332 0 0 0-.472.004l-.702.702a.335.335 0 0 0-.004.472L6.821 8l-1.6 1.601a.332.332 0 0 0 .004.472l.702.702c.129.13.343.134.472.004L8 9.179l1.601 1.6a.332.332 0 0 0 .472-.004l.702-.702a.335.335 0 0 0 .004-.472L9.179 8l1.6-1.601a.332.332 0 0 0-.004-.472l-.702-.702a.335.335 0 0 0-.472-.004L8 6.822Z"/></svg>