<svg xmlns="http://www.w3.org/2000/svg" width="24" height="24" viewBox="0 0 24 24"><path d="M12 4a8 8 0 1 1 0 16 8 8 0 0 1 0-16Zm-6.667 8a6.67 6.67 0 0 0 5.013 6.46c.002-.366.018-.876.048-1.527-.69.023-1.127-.024-1.309-.144-.21-.139-.421-.5-.618-.837-.058-.1-.115-.197-.171-.287-.189-.304-.558-.409-.814-.481-.073-.021-.136-.039-.184-.058-.217-.087-.272-.443.599-.174.581.18.793.565.952.853.079.143.145.263.236.32.275.171.932.096 1.23-.041.227-.105.268-.426.298-.663.01-.074.018-.139.031-.187.064-.181-.15-.227-.173-.232l-.002-.001c-.29 0-1.818-.332-2.237-1.811-.42-1.479.121-2.445.409-2.861.192-.277.175-.867-.051-1.771.821-.105 1.455.153 1.901.775l.012-.005c.086-.046.648-.342 1.497-.342.685 0 1.042.157 1.284.263.085.037.155.068.221.084.073.018.142-.066.241-.187.243-.295.667-.81 1.776-.588-.326.641-.599 1.442-.391 1.771l.058.088c.268.404.931 1.401.467 2.773-.335.99-.994 1.594-1.977 1.811-.112.036-.169.094-.169.174 0 .048.024.078.067.133.065.084.173.223.305.563.126.321.151 1.156.077 2.503A6.669 6.669 0 0 0 12 5.333 6.667 6.667 0 0 0 5.333 12Z"/></svg>