<svg xmlns="http://www.w3.org/2000/svg" width="16" height="16" viewBox="0 0 16 16">
<path fill-rule="evenodd" clip-rule="evenodd" d="M6.427.512A1.75 1.75 0 0 1 7.664 0H13v3h3v5.335c0 .465-.185.91-.513 1.239L9.573 15.48a1.75 1.75 0 0 1-2.473 0l-2.293-2.293-1.293-1.293-3-3a1.75 1.75 0 0 1 0-2.475L6.428.512zM11.5 1.5V3h-.836a1.75 1.75 0 0 0-1.237.512L3.514 9.419c-.06.06-.115.123-.165.19L1.574 7.833a.25.25 0 0 1 0-.353l5.913-5.907a.25.25 0 0 1 .177-.073H11.5zM5.866 12.126l-1.292-1.293a.25.25 0 0 1 0-.353l5.913-5.907a.25.25 0 0 1 .177-.073H14.5v3.835a.25.25 0 0 1-.073.177L8.513 14.42a.25.25 0 0 1-.353 0l-2.294-2.293zM12 8a1 1 0 1 0 0-2 1 1 0 0 0 0 2z"/>
</svg>
