<svg width="16" height="16" viewBox="0 0 16 16" fill="none" xmlns="http://www.w3.org/2000/svg">

<path fill-rule="evenodd" clip-rule="evenodd" d="M2.34315 2.34315C0.842855 3.84344 0 5.87827 0 8C0 10.1217 0.842855 12.1566 2.34315 13.6569C3.84344 15.1571 5.87827 16 8 16C10.1217 16 12.1566 15.1571 13.6569 13.6569C15.1571 12.1566 16 10.1217 16 8C16 5.87827 15.1571 3.84344 13.6569 2.34315C12.1566 0.842855 10.1217 0 8 0C5.87827 0 3.84344 0.842855 2.34315 2.34315ZM14.3352 5.37589C14.6798 6.20783 14.8571 7.09951 14.8571 8C14.8571 9.81863 14.1347 11.5628 12.8487 12.8487C11.5628 14.1347 9.81863 14.8571 8 14.8571C6.18137 14.8571 4.43723 14.1347 3.15127 12.8487C1.8653 11.5628 1.14286 9.81863 1.14286 8C1.14286 7.09951 1.32022 6.20783 1.66483 5.37589C2.00943 4.54394 2.51452 3.78801 3.15127 3.15127C3.78801 2.51452 4.54394 2.00943 5.37589 1.66483C6.20783 1.32022 7.09951 1.14286 8 1.14286C8.90049 1.14286 9.79217 1.32022 10.6241 1.66483C11.4561 2.00943 12.212 2.51452 12.8487 3.15127C13.4855 3.78801 13.9906 4.54394 14.3352 5.37589Z" fill="black"/>
<path d="M7.17486 8.79657L5.76571 7.38743C5.73442 7.35563 5.69715 7.33033 5.65604 7.31299C5.61494 7.29565 5.5708 7.28662 5.52619 7.2864C5.48158 7.28619 5.43736 7.29481 5.39609 7.31175C5.35482 7.3287 5.31731 7.35364 5.28571 7.38514L4.58514 8.08686C4.52208 8.15096 4.48692 8.2374 4.48735 8.32733C4.48778 8.41725 4.52375 8.50336 4.58743 8.56686L6.77029 10.7486C6.8765 10.8551 7.02042 10.9154 7.17083 10.9165C7.32123 10.9175 7.466 10.8593 7.57371 10.7543L11.4251 6.90286C11.4849 6.83932 11.5174 6.75483 11.5154 6.66761C11.5135 6.58039 11.4774 6.49741 11.4149 6.43657L10.7131 5.73486C10.6525 5.67205 10.5694 5.63574 10.4821 5.63381C10.3948 5.63189 10.3103 5.6645 10.2469 5.72457L7.17486 8.79657Z" fill="black"/>

</svg>
