<svg xmlns="http://www.w3.org/2000/svg" width="16" height="16" viewBox="0 0 16 16"><path d="m2.001 7.997 2 .003a.668.668 0 0 1 .508 1.095.668.668 0 0 1-.432.234L4 9.333l-1.333-.002v3.335L4 12.667a.67.67 0 0 1 .662.588l.005.078a.663.663 0 0 1-.589.662L4 14H2a.67.67 0 0 1-.662-.589l-.005-.078V8.664a.666.666 0 0 1 .59-.663l.078-.004ZM14 11.333a.666.666 0 0 1 .078 1.329l-.078.005H6a.67.67 0 0 1-.51-1.095.666.666 0 0 1 .432-.234L6 11.333h8Zm0-2a.666.666 0 0 1 .078 1.329l-.078.005H6a.67.67 0 0 1-.51-1.095.666.666 0 0 1 .432-.234L6 9.333h8Zm-10-8a.67.67 0 0 1 .51 1.095.666.666 0 0 1-.432.234L4 2.667H2.667v3.33H4a.67.67 0 0 1 .662.588l.005.078a.663.663 0 0 1-.589.662L4 7.33H2a.67.67 0 0 1-.662-.589l-.005-.078V2a.665.665 0 0 1 .589-.662L2 1.333h2Zm10 3.334a.665.665 0 0 1 .078 1.328L14 6H6a.665.665 0 0 1-.51-1.095.666.666 0 0 1 .432-.234L6 4.667h8Zm0-2a.665.665 0 0 1 .078 1.328L14 4H6a.665.665 0 0 1-.51-1.095.666.666 0 0 1 .432-.234L6 2.667h8Z"/></svg>