<svg xmlns="http://www.w3.org/2000/svg" width="24" height="24" viewBox="0 0 24 24"><path d="m20 15.14-3.281-1.89v1.037H4v1.707h12.719V17L20 15.14ZM6.375 7.945c.063-.061.125-.091.156-.152 0 .213-.031.457-.031.792v2.805h.719V7.061h-.594L5.312 8.067l.376.427c.374-.305.624-.488.687-.549Zm3.281 2.805-.062-.061h-.688c-.062.457-.094.945-.218 1.494h.5c.25-.579.374-1.067.468-1.433Zm3.719.03H11.25v-.03l.781-.732c.344-.305.594-.579.75-.762a1.64 1.64 0 0 0 .313-.549c.094-.152.125-.366.125-.548 0-.366-.125-.641-.375-.854-.25-.214-.594-.305-1-.305-.25 0-.5.03-.75.122a2.592 2.592 0 0 0-.719.427l.406.457c.188-.152.375-.274.531-.335.157-.061.344-.092.5-.092.219 0 .376.061.5.183.126.092.188.275.188.458a.822.822 0 0 1-.094.396 1.261 1.261 0 0 1-.218.396 9.406 9.406 0 0 1-.688.732l-1.156 1.128v.518h3.031v-.61Zm1.5-.03-.031-.061h-.688c-.062.457-.125.945-.25 1.494h.532c.25-.579.343-1.067.437-1.433Zm3.219.366c.312-.214.437-.549.437-.976 0-.274-.093-.518-.25-.67-.156-.183-.437-.305-.781-.336v-.03c.281-.061.531-.183.688-.366.156-.183.25-.427.25-.701a.92.92 0 0 0-.376-.763C17.812 7.091 17.438 7 17 7c-.531 0-1 .122-1.406.427l.344.488c.218-.122.406-.214.562-.275.156-.03.312-.061.469-.061.25 0 .437.031.562.153.125.091.188.244.188.427 0 .487-.375.701-1.063.701h-.406v.579h.375c.406 0 .719.061.906.183.188.091.281.274.281.488 0 .274-.093.457-.25.579-.187.122-.437.183-.781.183-.187 0-.406 0-.593-.061a3.802 3.802 0 0 1-.626-.213v.64c.344.152.75.213 1.25.213.563 0 1-.122 1.282-.335Z"/></svg>