<svg width="16" height="16" viewBox="0 0 16 16" fill="none" xmlns="http://www.w3.org/2000/svg">

<path fill-rule="evenodd" clip-rule="evenodd" d="M2.34315 2.34315C0.842855 3.84344 0 5.87827 0 8C0 10.1217 0.842855 12.1566 2.34315 13.6569C3.84344 15.1571 5.87827 16 8 16C10.1217 16 12.1566 15.1571 13.6569 13.6569C15.1571 12.1566 16 10.1217 16 8C16 5.87827 15.1571 3.84344 13.6569 2.34315C12.1566 0.842855 10.1217 0 8 0C5.87827 0 3.84344 0.842855 2.34315 2.34315ZM14.3352 5.37589C14.6798 6.20783 14.8571 7.09951 14.8571 8C14.8571 9.81863 14.1347 11.5628 12.8487 12.8487C11.5628 14.1347 9.81863 14.8571 8 14.8571C6.18137 14.8571 4.43723 14.1347 3.15127 12.8487C1.8653 11.5628 1.14286 9.81863 1.14286 8C1.14286 7.09951 1.32022 6.20783 1.66483 5.37589C2.00943 4.54394 2.51452 3.78801 3.15127 3.15127C3.78801 2.51452 4.54394 2.00943 5.37589 1.66483C6.20783 1.32022 7.09951 1.14286 8 1.14286C8.90049 1.14286 9.79217 1.32022 10.6241 1.66483C11.4561 2.00943 12.212 2.51452 12.8487 3.15127C13.4855 3.78801 13.9906 4.54394 14.3352 5.37589Z" fill="black"/>
<path d="M6.85714 8C6.85714 8.3031 6.97755 8.59379 7.19188 8.80812C7.40621 9.02245 7.6969 9.14286 8 9.14286C8.3031 9.14286 8.59379 9.02245 8.80812 8.80812C9.02245 8.59379 9.14286 8.3031 9.14286 8C9.14286 7.6969 9.02245 7.40621 8.80812 7.19188C8.59379 6.97755 8.3031 6.85714 8 6.85714C7.6969 6.85714 7.40621 6.97755 7.19188 7.19188C6.97755 7.40621 6.85714 7.6969 6.85714 8Z" fill="black"/>
<path d="M10.2857 8C10.2857 8.3031 10.4061 8.59379 10.6205 8.80812C10.8348 9.02245 11.1255 9.14286 11.4286 9.14286C11.7317 9.14286 12.0224 9.02245 12.2367 8.80812C12.451 8.59379 12.5714 8.3031 12.5714 8C12.5714 7.6969 12.451 7.40621 12.2367 7.19188C12.0224 6.97755 11.7317 6.85714 11.4286 6.85714C11.1255 6.85714 10.8348 6.97755 10.6205 7.19188C10.4061 7.40621 10.2857 7.6969 10.2857 8Z" fill="black"/>
<path d="M3.42857 8C3.42857 8.3031 3.54898 8.59379 3.76331 8.80812C3.97763 9.02245 4.26832 9.14286 4.57143 9.14286C4.87453 9.14286 5.16522 9.02245 5.37955 8.80812C5.59388 8.59379 5.71429 8.3031 5.71429 8C5.71429 7.6969 5.59388 7.40621 5.37955 7.19188C5.16522 6.97755 4.87453 6.85714 4.57143 6.85714C4.26832 6.85714 3.97763 6.97755 3.76331 7.19188C3.54898 7.40621 3.42857 7.6969 3.42857 8Z" fill="black"/>

</svg>
