<svg xmlns="http://www.w3.org/2000/svg" width="24" height="24" viewBox="0 0 24 24"><path d="M19.806 14.984c-.312-.471-.312-.754-1.28-1.162-1-.408-1.218-.565-1.218-.565l-.032-.943s.375-.283.5-1.162c.219.063.468-.346.468-.566.032-.219-.031-.816-.312-.754.063-.439.125-.816.094-1.036-.063-.754-.812-1.571-1.967-1.571-1.156 0-1.905.817-1.967 1.571-.032.22 0 .597.062 1.036-.281-.062-.312.535-.312.754.031.22.25.629.499.566.094.879.469 1.162.469 1.162l-.812.66c.468.251 1.655.094 1.905.502.156.22.53.849.437 4.524h3.653s.062-2.607-.187-3.016Zm-5.028-.345c-.343-.503-1.436-.817-2.529-1.288-1.093-.471-1.374-.628-1.374-.628v-1.037s.406-.314.531-1.319c.25.062.531-.377.562-.629 0-.251-.062-.879-.374-.817.062-.502.125-.942.093-1.162C11.625 6.911 10.782 6 9.501 6c-1.28 0-2.123.911-2.185 1.759-.031.22.031.66.093 1.162-.312-.062-.374.566-.374.817.031.252.281.691.562.629.125.973.531 1.319.531 1.319v1.037s-.281.157-1.374.628-2.186.785-2.53 1.288C3.943 15.11 4.006 18 4.006 18h10.991s.062-2.89-.219-3.361Z"/></svg>