<svg width="16" height="16" viewBox="0 0 16 16" fill="none" xmlns="http://www.w3.org/2000/svg">
<path fill-rule="evenodd" clip-rule="evenodd" d="M0.999992 12.4C0.999992 11.6268 1.62679 11 2.39999 11L3.59999 11C4.37319 11 4.99999 11.6268 4.99999 12.4L4.99999 13.6C4.99999 14.3732 4.37319 15 3.59999 15L2.39999 15C1.62679 15 0.999993 14.3732 0.999992 13.6L0.999992 12.4ZM2.39999 12.2C2.28954 12.2 2.19999 12.2895 2.19999 12.4L2.19999 13.6C2.19999 13.7105 2.28954 13.8 2.39999 13.8H3.59999C3.71045 13.8 3.79999 13.7105 3.79999 13.6V12.4C3.79999 12.2895 3.71045 12.2 3.59999 12.2L2.39999 12.2Z" fill="#24292F"/>
<path fill-rule="evenodd" clip-rule="evenodd" d="M2.39999 6C1.6268 6 0.999994 6.6268 0.999994 7.4L0.999994 8.6C0.999994 9.3732 1.62679 10 2.39999 10H3.59999C4.37319 10 4.99999 9.3732 4.99999 8.6L4.99999 7.4C4.99999 6.6268 4.37319 6 3.59999 6H2.39999ZM2.19999 7.4C2.19999 7.28954 2.28954 7.2 2.39999 7.2H3.59999C3.71045 7.2 3.79999 7.28954 3.79999 7.4L3.79999 8.6C3.79999 8.71045 3.71045 8.8 3.59999 8.8L2.39999 8.8C2.28954 8.8 2.19999 8.71045 2.19999 8.6L2.19999 7.4Z" fill="#24292F"/>
<path fill-rule="evenodd" clip-rule="evenodd" d="M2.39999 1C1.62679 1 0.999993 1.6268 0.999993 2.4L0.999994 3.6C0.999994 4.3732 1.62679 5 2.39999 5H3.59999C4.37319 5 4.99999 4.3732 4.99999 3.6L4.99999 2.4C4.99999 1.6268 4.37319 1 3.59999 1L2.39999 1ZM2.19999 2.4C2.19999 2.28954 2.28954 2.2 2.39999 2.2L3.59999 2.2C3.71045 2.2 3.79999 2.28954 3.79999 2.4L3.79999 3.6C3.79999 3.71046 3.71045 3.8 3.59999 3.8H2.39999C2.28954 3.8 2.19999 3.71046 2.19999 3.6L2.19999 2.4Z" fill="#24292F"/>
<path fill-rule="evenodd" clip-rule="evenodd" d="M7.39999 1C6.62679 1 5.99999 1.6268 5.99999 2.4V3.6C5.99999 4.3732 6.62679 5 7.39999 5H8.59999C9.37319 5 9.99999 4.3732 9.99999 3.6V2.4C9.99999 1.6268 9.37319 1 8.59999 1L7.39999 1ZM7.19999 2.4C7.19999 2.28954 7.28954 2.2 7.39999 2.2L8.59999 2.2C8.71045 2.2 8.79999 2.28954 8.79999 2.4L8.79999 3.6C8.79999 3.71046 8.71045 3.8 8.59999 3.8H7.39999C7.28954 3.8 7.19999 3.71046 7.19999 3.6L7.19999 2.4Z" fill="#24292F"/>
<path fill-rule="evenodd" clip-rule="evenodd" d="M5.99999 7.4C5.99999 6.6268 6.6268 6 7.39999 6H8.59999C9.37319 6 9.99999 6.6268 9.99999 7.4L9.99999 8.6C9.99999 9.3732 9.37319 10 8.59999 10H7.39999C6.62679 10 5.99999 9.3732 5.99999 8.6V7.4ZM7.39999 7.2C7.28954 7.2 7.19999 7.28954 7.19999 7.4L7.19999 8.6C7.19999 8.71045 7.28954 8.8 7.39999 8.8L8.59999 8.8C8.71045 8.8 8.79999 8.71045 8.79999 8.6L8.79999 7.4C8.79999 7.28954 8.71045 7.2 8.59999 7.2H7.39999Z" fill="#24292F"/>
<path fill-rule="evenodd" clip-rule="evenodd" d="M7.39999 11C6.62679 11 5.99999 11.6268 5.99999 12.4V13.6C5.99999 14.3732 6.62679 15 7.39999 15H8.59999C9.37319 15 9.99999 14.3732 9.99999 13.6V12.4C9.99999 11.6268 9.37319 11 8.59999 11L7.39999 11ZM7.19999 12.4C7.19999 12.2895 7.28954 12.2 7.39999 12.2H8.59999C8.71045 12.2 8.79999 12.2895 8.79999 12.4L8.79999 13.6C8.79999 13.7105 8.71045 13.8 8.59999 13.8L7.39999 13.8C7.28954 13.8 7.19999 13.7105 7.19999 13.6L7.19999 12.4Z" fill="#24292F"/>
<path fill-rule="evenodd" clip-rule="evenodd" d="M11 2.4C11 1.6268 11.6268 1 12.4 1L13.6 1C14.3732 1 15 1.6268 15 2.4V3.6C15 4.3732 14.3732 5 13.6 5H12.4C11.6268 5 11 4.3732 11 3.6V2.4ZM12.4 2.2C12.2895 2.2 12.2 2.28954 12.2 2.4V3.6C12.2 3.71046 12.2895 3.8 12.4 3.8L13.6 3.8C13.7105 3.8 13.8 3.71046 13.8 3.6V2.4C13.8 2.28954 13.7105 2.2 13.6 2.2L12.4 2.2Z" fill="#24292F"/>
<path fill-rule="evenodd" clip-rule="evenodd" d="M12.4 6C11.6268 6 11 6.6268 11 7.4V8.6C11 9.3732 11.6268 10 12.4 10L13.6 10C14.3732 10 15 9.3732 15 8.6V7.4C15 6.6268 14.3732 6 13.6 6H12.4ZM12.2 7.4C12.2 7.28954 12.2895 7.2 12.4 7.2H13.6C13.7105 7.2 13.8 7.28954 13.8 7.4V8.6C13.8 8.71045 13.7105 8.8 13.6 8.8L12.4 8.8C12.2895 8.8 12.2 8.71045 12.2 8.6V7.4Z" fill="#24292F"/>
<path fill-rule="evenodd" clip-rule="evenodd" d="M11 12.4C11 11.6268 11.6268 11 12.4 11H13.6C14.3732 11 15 11.6268 15 12.4V13.6C15 14.3732 14.3732 15 13.6 15H12.4C11.6268 15 11 14.3732 11 13.6V12.4ZM12.4 12.2C12.2895 12.2 12.2 12.2895 12.2 12.4V13.6C12.2 13.7105 12.2895 13.8 12.4 13.8H13.6C13.7105 13.8 13.8 13.7105 13.8 13.6V12.4C13.8 12.2895 13.7104 12.2 13.6 12.2L12.4 12.2Z" fill="#24292F"/>
</svg>
