<svg xmlns="http://www.w3.org/2000/svg" width="16" height="16" viewBox="0 0 16 16"><path d="M13.657 13.657A8 8 0 1 1 2.343 2.342a8 8 0 0 1 11.314 11.315Zm-3.033.678a6.846 6.846 0 0 0 3.711-3.711 6.851 6.851 0 0 0 0-5.248 6.846 6.846 0 0 0-3.711-3.711 6.857 6.857 0 1 0 0 12.67Z"/><path d="M7.994 12.16a4.164 4.164 0 1 1 0-8.331 4.163 4.163 0 0 1 4.166 4.165 4.167 4.167 0 0 1-4.166 4.166Zm0-1.191a2.975 2.975 0 1 0 .001-5.95 2.975 2.975 0 0 0-.001 5.95Z"/><path d="M8.038 5.623h-.075a.558.558 0 0 0-.557.558V8.04c0 .309.249.558.557.558h.075a.557.557 0 0 0 .557-.558V6.181a.558.558 0 0 0-.557-.558Z"/><path d="M9.229 7.406H7.963a.557.557 0 0 0-.557.557v.075c0 .308.249.557.557.557h1.266a.557.557 0 0 0 .557-.557v-.075a.557.557 0 0 0-.557-.557Z"/></svg>