<svg width="16" height="16" viewBox="0 0 16 16" fill="none" xmlns="http://www.w3.org/2000/svg">

<path fill-rule="evenodd" clip-rule="evenodd" d="M13.6569 13.6569C12.1566 15.1571 10.1217 16 8 16C5.87827 16 3.84344 15.1571 2.34315 13.6569C0.842855 12.1566 0 10.1217 0 8C0 5.87827 0.842855 3.84344 2.34315 2.34315C3.84344 0.842855 5.87827 0 8 0C10.1217 0 12.1566 0.842855 13.6569 2.34315C15.1571 3.84344 16 5.87827 16 8C16 10.1217 15.1571 12.1566 13.6569 13.6569ZM10.6241 14.3352C9.79217 14.6798 8.90049 14.8571 8 14.8571C6.18137 14.8571 4.43723 14.1347 3.15127 12.8487C1.8653 11.5628 1.14286 9.81863 1.14286 8C1.14286 6.18137 1.8653 4.43723 3.15127 3.15127C4.43723 1.8653 6.18137 1.14286 8 1.14286C8.90049 1.14286 9.79217 1.32022 10.6241 1.66483C11.4561 2.00943 12.212 2.51452 12.8487 3.15127C13.4855 3.78801 13.9906 4.54394 14.3352 5.37589C14.6798 6.20783 14.8571 7.09951 14.8571 8C14.8571 8.90049 14.6798 9.79217 14.3352 10.6241C13.9906 11.4561 13.4855 12.212 12.8487 12.8487C12.212 13.4855 11.4561 13.9906 10.6241 14.3352Z" fill="black"/>
<path d="M7.99429 12.16C6.88947 12.16 5.8299 11.7211 5.04868 10.9399C4.26746 10.1587 3.82857 9.0991 3.82857 7.99429C3.82857 6.88947 4.26746 5.8299 5.04868 5.04868C5.8299 4.26746 6.88947 3.82857 7.99429 3.82857C9.0991 3.82857 10.1587 4.26746 10.9399 5.04868C11.7211 5.8299 12.16 6.88947 12.16 7.99429C12.16 9.0991 11.7211 10.1587 10.9399 10.9399C10.1587 11.7211 9.0991 12.16 7.99429 12.16ZM7.99429 10.9691C8.78327 10.9691 9.53993 10.6557 10.0978 10.0978C10.6557 9.53993 10.9691 8.78327 10.9691 7.99429C10.9691 7.2053 10.6557 6.44864 10.0978 5.89074C9.53993 5.33285 8.78327 5.01943 7.99429 5.01943C7.2053 5.01943 6.44864 5.33285 5.89074 5.89074C5.33285 6.44864 5.01943 7.2053 5.01943 7.99429C5.01943 8.78327 5.33285 9.53993 5.89074 10.0978C6.44864 10.6557 7.2053 10.9691 7.99429 10.9691Z" fill="black"/>
<path d="M8.03771 5.62286H7.96343C7.81551 5.62286 7.67366 5.68162 7.56907 5.78621C7.46447 5.8908 7.40571 6.03266 7.40571 6.18057V8.04C7.40571 8.34857 7.65486 8.59771 7.96343 8.59771H8.03771C8.34629 8.59771 8.59543 8.34857 8.59543 8.04V6.18057C8.59543 6.03266 8.53667 5.8908 8.43208 5.78621C8.32749 5.68162 8.18563 5.62286 8.03771 5.62286Z" fill="black"/>
<path d="M9.22857 7.40571H7.96343C7.81551 7.40571 7.67366 7.46447 7.56907 7.56907C7.46447 7.67366 7.40571 7.81551 7.40571 7.96343V8.03771C7.40571 8.34629 7.65486 8.59543 7.96343 8.59543H9.22857C9.53714 8.59543 9.78629 8.34629 9.78629 8.03771V7.96343C9.78629 7.81551 9.72753 7.67366 9.62294 7.56907C9.51834 7.46447 9.37649 7.40571 9.22857 7.40571Z" fill="black"/>

</svg>
