<svg xmlns="http://www.w3.org/2000/svg" width="16" height="16" viewBox="0 0 16 16"><path d="M2.343 2.343a8 8 0 1 1 11.314 11.315A8 8 0 0 1 2.343 2.343Zm11.992 3.033a6.846 6.846 0 0 0-3.711-3.711 6.851 6.851 0 0 0-5.248 0 6.862 6.862 0 0 0-3.711 3.711 6.857 6.857 0 1 0 12.67 0Z"/><path d="M12 8.72V7.28l-.899-.149c-.051-.2-.151-.398-.301-.697l.55-.745-1.049-1.043-.751.546a2.668 2.668 0 0 0-.7-.297L8.75 4H7.301l-.151.895c-.251.049-.451.148-.7.297l-.751-.546L4.65 5.689l.5.745c-.15.249-.2.448-.3.697L4 7.23v1.441l.899.148c.051.25.151.448.301.698l-.501.744 1.052 1.043.748-.496c.2.098.451.198.701.297l.15.895h1.5l.15-.895c.25-.049.45-.148.701-.297l.749.546 1.049-1.043-.548-.745c.148-.249.249-.497.299-.697L12 8.72Zm-4 .746a1.46 1.46 0 0 1-1.067-.426 1.476 1.476 0 0 1-.434-1.065c0-.845.652-1.49 1.501-1.49.85 0 1.501.645 1.501 1.49 0 .846-.652 1.491-1.501 1.491Z"/></svg>