<svg xmlns="http://www.w3.org/2000/svg" width="16" height="16" viewBox="0 0 16 16"><path d="M2.343 2.343a8 8 0 1 1 11.314 11.315A8 8 0 0 1 2.343 2.343Zm11.992 3.033a6.846 6.846 0 0 0-3.711-3.711 6.851 6.851 0 0 0-5.248 0 6.862 6.862 0 0 0-3.711 3.711 6.857 6.857 0 1 0 12.67 0Z"/><path d="m7.175 8.797-1.409-1.41a.355.355 0 0 0-.24-.101.343.343 0 0 0-.24.099l-.701.702a.341.341 0 0 0 .002.48l2.183 2.182a.574.574 0 0 0 .804.005l3.851-3.851a.332.332 0 0 0-.01-.466l-.702-.702a.332.332 0 0 0-.466-.01L7.175 8.797Z"/></svg>