<svg xmlns="http://www.w3.org/2000/svg" width="16" height="16" viewBox="0 0 16 16"><path d="M6 12.5a2.5 2.5 0 1 1-3.25-2.386V5.886a2.501 2.501 0 1 1 1.5 0v4.228A2.501 2.501 0 0 1 6 12.5Zm4.34-11.28a.75.75 0 0 1 0 1.06l-.47.47h.63a2.75 2.75 0 0 1 2.75 2.75v4.614a2.501 2.501 0 1 1-1.5 0V5.5c0-.69-.56-1.25-1.25-1.25h-.63l.47.47a.749.749 0 0 1-.326 1.275.749.749 0 0 1-.734-.215L7.53 4.03 7 3.5l.53-.53 1.75-1.75a.75.75 0 0 1 1.06 0ZM13.5 12.5a1 1 0 1 0-2 0 1 1 0 0 0 2 0Zm-9 0a1 1 0 1 0-2 0 1 1 0 0 0 2 0Zm0-9a1 1 0 1 0-2 0 1 1 0 0 0 2 0Z"/></svg>