<svg xmlns="http://www.w3.org/2000/svg" width="16" height="16" viewBox="0 0 16 16"><path d="M6.427.512A1.75 1.75 0 0 1 7.664 0H13v3h3v5.335c0 .465-.185.91-.513 1.239L9.573 15.48a1.75 1.75 0 0 1-2.473 0l-2.293-2.293L.514 8.894a1.75 1.75 0 0 1 0-2.475L6.428.512Zm-.561 11.614v.001L8.16 14.42a.25.25 0 0 0 .353 0l5.914-5.908a.25.25 0 0 0 .073-.177V4.5h-3.836a.25.25 0 0 0-.177.073L4.574 10.48a.25.25 0 0 0 0 .353ZM11.5 1.5H7.664a.25.25 0 0 0-.177.073L1.574 7.48a.25.25 0 0 0 0 .353l1.775 1.776c.05-.067.105-.13.165-.19l5.913-5.907A1.75 1.75 0 0 1 10.664 3h.836ZM12 8a1 1 0 1 1 0-2 1 1 0 0 1 0 2Z"/></svg>