<svg xmlns="http://www.w3.org/2000/svg" width="16" height="16" viewBox="0 0 16 16"><path d="M3 1h6a2 2 0 0 1 1.971 1.658l2.912 1.516a1.75 1.75 0 0 1 .744 2.361l-3.878 7.45a.754.754 0 0 1-.098.145A2 2 0 0 1 9 15H3a2 2 0 0 1-2-2V3a2 2 0 0 1 2-2Zm6 1.5H3a.5.5 0 0 0-.5.5v10a.5.5 0 0 0 .5.5h6a.5.5 0 0 0 .5-.5V3a.5.5 0 0 0-.5-.5Zm-.72 4.781V7.28l-2.5 2.5a.75.75 0 0 1-1.06 0l-1-1a.751.751 0 0 1 .018-1.042.751.751 0 0 1 1.042-.018l.47.47 1.97-1.97a.75.75 0 0 1 1.06 1.061Zm5.017-1.44a.25.25 0 0 0-.107-.337L11 4.364v5.89Z"/></svg>