<svg width="16" height="16" viewBox="0 0 16 16" fill="none" xmlns="http://www.w3.org/2000/svg">
<path fill-rule="evenodd" clip-rule="evenodd" d="M4.36497 8.74997C4.44206 8.90169 4.54403 9.044 4.67088 9.17086L6.69308 11.1931C7.33974 11.8397 8.38818 11.8397 9.03484 11.1931L11.057 9.17086C11.1839 9.044 11.2859 8.90169 11.363 8.74997H15C15.4142 8.74997 15.75 8.41419 15.75 7.99997C15.75 7.58576 15.4142 7.24997 15 7.24997H11.3629C11.2859 7.09826 11.1839 6.95595 11.057 6.82909L9.03484 4.80689C8.38818 4.16023 7.33974 4.16023 6.69308 4.80689L4.67088 6.82909C4.54403 6.95595 4.44206 7.09826 4.36497 7.24997H1C0.585786 7.24997 0.25 7.58576 0.25 7.99997C0.25 8.41419 0.585786 8.74997 1 8.74997H4.36497ZM5.92515 8.16724C5.83277 8.07486 5.83277 7.92509 5.92515 7.83271L7.66546 5.99997C7.75784 5.90759 7.90762 5.90759 8 5.99997L9.94156 7.8327C10.0339 7.92508 10.0339 8.07486 9.94156 8.16724L8 9.99997C7.90762 10.0924 7.75784 10.0924 7.66546 9.99997L5.92515 8.16724Z" fill="#000000"/>
</svg>
