<svg xmlns="http://www.w3.org/2000/svg" width="24" height="24" viewBox="0 0 24 24"><path d="M12.437 16.867c0-.134-.034-.269-.067-.404-.034-.135-.034-.236-.067-.337a1.534 1.534 0 0 0-.169-.336c-.1-.135-.168-.203-.201-.304l-.269-.269c-.101-.135-.202-.202-.269-.27-.067-.033-.168-.134-.303-.235a2.336 2.336 0 0 0-.302-.203c-.034-.067-.168-.134-.303-.235a2.22 2.22 0 0 1-.302-.202c-.101 0-.269-.034-.471-.034-.369 0-.706.034-1.042.067-.302.068-.672.135-1.008.27-.37.101-.672.236-.941.438a1.94 1.94 0 0 0-.673.707c-.168.303-.268.64-.268 1.044 0 .438.134.809.336 1.145.235.371.537.64.907.809.37.202.74.37 1.143.438.403.101.807.168 1.244.168.37 0 .739-.034 1.075-.135.336-.067.639-.202.942-.37.302-.168.537-.404.739-.707.168-.304.269-.64.269-1.045Zm-1.176-8.32c0-.37-.034-.774-.135-1.212-.134-.438-.269-.842-.471-1.247a2.969 2.969 0 0 0-.806-1.01 1.754 1.754 0 0 0-1.143-.404c-.605 0-1.042.235-1.378.673-.336.438-.504.977-.504 1.584 0 .303.033.606.134.943.067.337.168.673.336 1.01.135.337.336.64.538.91.202.269.437.471.739.64.303.168.605.235.942.235.605 0 1.075-.168 1.344-.572.269-.371.404-.91.404-1.55ZM10.017 4h4.202l-1.311.741H11.63c.437.303.807.707 1.042 1.213.236.539.37 1.078.37 1.617 0 .505-.067.909-.202 1.28-.168.37-.336.673-.537.875l-.639.64a2.17 2.17 0 0 0-.538.573 1.031 1.031 0 0 0-.235.674c0 .168.067.303.168.471.101.169.235.303.403.472.168.135.37.303.572.471.201.135.403.337.605.506.201.202.403.437.571.64.168.235.303.505.403.842.101.303.168.64.168 1.01 0 1.011-.436 1.92-1.344 2.729-.975.842-2.319 1.246-4.034 1.246-.369 0-.773-.034-1.142-.101a7.571 7.571 0 0 1-1.177-.303c-.403-.169-.739-.337-1.042-.573a2.947 2.947 0 0 1-.739-.842A2.363 2.363 0 0 1 4 17.002c0-.404.134-.842.37-1.314.201-.404.504-.741.907-1.044a4.63 4.63 0 0 1 1.412-.707c.504-.135 1.008-.27 1.479-.337.471-.067.941-.101 1.445-.135-.403-.539-.605-1.01-.605-1.415v-.235c.034-.068.034-.135.068-.202 0-.034.033-.101.067-.202.033-.068.033-.135.067-.203-.269.034-.471.068-.672.068a3.542 3.542 0 0 1-2.454-.943c-.672-.64-1.042-1.449-1.042-2.392 0-.876.303-1.684.941-2.392.605-.707 1.345-1.178 2.219-1.381C8.807 4.034 9.412 4 10.017 4ZM20 6.459v1.213h-2.454v2.458h-1.244V7.672h-2.453V6.459h2.453V4h1.244v2.459H20Z"/></svg>