<svg xmlns="http://www.w3.org/2000/svg" width="16" height="16" viewBox="0 0 16 16"><path d="M4.365 8.75H1a.75.75 0 0 1 0-1.5h3.365c.077-.152.179-.294.306-.421l2.022-2.022a1.656 1.656 0 0 1 2.342 0l2.022 2.022c.127.127.229.269.306.421H15a.75.75 0 0 1 0 1.5h-3.637a1.647 1.647 0 0 1-.306.421l-2.022 2.022a1.656 1.656 0 0 1-2.342 0L4.671 9.171a1.647 1.647 0 0 1-.306-.421Zm1.56-.583L7.665 10A.238.238 0 0 0 8 10l1.942-1.833a.237.237 0 0 0 0-.334L8 6a.238.238 0 0 0-.335 0l-1.74 1.833a.237.237 0 0 0 0 .334Z"/></svg>