<svg xmlns="http://www.w3.org/2000/svg" width="16" height="16" viewBox="0 0 16 16"><path d="M2.343 2.343a8 8 0 1 1 11.314 11.315A8 8 0 0 1 2.343 2.343Zm11.992 3.033a6.846 6.846 0 0 0-3.711-3.711 6.851 6.851 0 0 0-5.248 0 6.862 6.862 0 0 0-3.711 3.711 6.857 6.857 0 1 0 12.67 0Z"/><path d="M5.371 6.057c0-.228.115-.343.343-.343h1.029c.228 0 .343.115.343.343v3.886c0 .228-.115.343-.343.343H5.714c-.228 0-.343-.115-.343-.343V6.057Zm3.429 0c0-.228.114-.343.343-.343h1.028c.229 0 .343.115.343.343v3.886c0 .228-.114.343-.343.343H9.143c-.229 0-.343-.115-.343-.343V6.057Z"/></svg>