<svg xmlns="http://www.w3.org/2000/svg" width="16" height="16" viewBox="0 0 16 16"><path d="M1 12.4A1.4 1.4 0 0 1 2.4 11h1.2A1.4 1.4 0 0 1 5 12.4v1.2A1.4 1.4 0 0 1 3.6 15H2.4A1.4 1.4 0 0 1 1 13.6Zm1.4-.2a.2.2 0 0 0-.2.2v1.2c0 .11.09.2.2.2h1.2a.2.2 0 0 0 .2-.2v-1.2a.2.2 0 0 0-.2-.2Zm0-6.2h1.2A1.4 1.4 0 0 1 5 7.4v1.2A1.4 1.4 0 0 1 3.6 10H2.4A1.4 1.4 0 0 1 1 8.6V7.4A1.4 1.4 0 0 1 2.4 6Zm-.2 1.4v1.2c0 .11.09.2.2.2h1.2a.2.2 0 0 0 .2-.2V7.4a.2.2 0 0 0-.2-.2H2.4a.2.2 0 0 0-.2.2ZM2.4 1h1.2A1.4 1.4 0 0 1 5 2.4v1.2A1.4 1.4 0 0 1 3.6 5H2.4A1.4 1.4 0 0 1 1 3.6V2.4A1.4 1.4 0 0 1 2.4 1Zm-.2 1.4v1.2c0 .11.09.2.2.2h1.2a.2.2 0 0 0 .2-.2V2.4a.2.2 0 0 0-.2-.2H2.4a.2.2 0 0 0-.2.2ZM7.4 1h1.2A1.4 1.4 0 0 1 10 2.4v1.2A1.4 1.4 0 0 1 8.6 5H7.4A1.4 1.4 0 0 1 6 3.6V2.4A1.4 1.4 0 0 1 7.4 1Zm-.2 1.4v1.2c0 .11.09.2.2.2h1.2a.2.2 0 0 0 .2-.2V2.4a.2.2 0 0 0-.2-.2H7.4a.2.2 0 0 0-.2.2ZM6 7.4A1.4 1.4 0 0 1 7.4 6h1.2A1.4 1.4 0 0 1 10 7.4v1.2A1.4 1.4 0 0 1 8.6 10H7.4A1.4 1.4 0 0 1 6 8.6Zm1.4-.2a.2.2 0 0 0-.2.2v1.2c0 .11.09.2.2.2h1.2a.2.2 0 0 0 .2-.2V7.4a.2.2 0 0 0-.2-.2Zm0 3.8h1.2a1.4 1.4 0 0 1 1.4 1.4v1.2A1.4 1.4 0 0 1 8.6 15H7.4A1.4 1.4 0 0 1 6 13.6v-1.2A1.4 1.4 0 0 1 7.4 11Zm-.2 1.4v1.2c0 .11.09.2.2.2h1.2a.2.2 0 0 0 .2-.2v-1.2a.2.2 0 0 0-.2-.2H7.4a.2.2 0 0 0-.2.2Zm3.8-10A1.4 1.4 0 0 1 12.4 1h1.2A1.4 1.4 0 0 1 15 2.4v1.2A1.4 1.4 0 0 1 13.6 5h-1.2A1.4 1.4 0 0 1 11 3.6Zm1.4-.2a.2.2 0 0 0-.2.2v1.2c0 .11.09.2.2.2h1.2a.2.2 0 0 0 .2-.2V2.4a.2.2 0 0 0-.2-.2Zm0 3.8h1.2A1.4 1.4 0 0 1 15 7.4v1.2a1.4 1.4 0 0 1-1.4 1.4h-1.2A1.4 1.4 0 0 1 11 8.6V7.4A1.4 1.4 0 0 1 12.4 6Zm-.2 1.4v1.2c0 .11.09.2.2.2h1.2a.2.2 0 0 0 .2-.2V7.4a.2.2 0 0 0-.2-.2h-1.2a.2.2 0 0 0-.2.2Zm-1.2 5a1.4 1.4 0 0 1 1.4-1.4h1.2a1.4 1.4 0 0 1 1.4 1.4v1.2a1.4 1.4 0 0 1-1.4 1.4h-1.2a1.4 1.4 0 0 1-1.4-1.4Zm1.4-.2a.2.2 0 0 0-.2.2v1.2c0 .11.09.2.2.2h1.2a.2.2 0 0 0 .2-.2v-1.2a.2.2 0 0 0-.2-.2Z"/></svg>