<svg xmlns="http://www.w3.org/2000/svg" width="24" height="24" viewBox="0 0 24 24"><path d="M17.673 6.348a8.027 8.027 0 0 0-11.346 0c-3.103 3.1-3.103 8.173 0 11.304a8.027 8.027 0 0 0 11.346 0c3.103-3.131 3.103-8.204 0-11.304Zm-6.018 12.086a1.57 1.57 0 0 1-1.567-1.565c0-.877.69-1.566 1.567-1.566.878 0 1.567.689 1.567 1.566a1.59 1.59 0 0 1-1.567 1.565Zm1.097-5.479v.845c0 .439-.157.595-.564.595h-1.16c-.407 0-.564-.156-.564-.595v-1.91c0-.501.502-.657.941-.782.093-.032.219-.063.313-.094.595-.22.94-.47.94-1.096 0-.219 0-.846-1.034-.846-.627 0-1.191.251-1.536.376-.188.094-.282.125-.407.125a.434.434 0 0 1-.408-.344l-.407-1.033c-.032-.094-.032-.188-.032-.251 0-.751 2.351-1.19 3.135-1.19 1.974 0 3.322 1.284 3.322 3.163 0 2.066-1.567 2.693-2.539 3.037Z"/></svg>