<svg xmlns="http://www.w3.org/2000/svg" width="24" height="24" viewBox="0 0 24 24"><path d="M4 16.872V7.128h1.281v4.359h5.125V7.128h1.313v9.744h-1.313v-4.423H5.281v4.423H4Zm9.625-2.436.5-.225c.094-.031.187-.064.281-.064.063 0 .156.033.219.064a.328.328 0 0 1 .156.193s.031.032.031.064c0 0 .032.032.032.064l.218.449c.094.16.219.288.344.449.156.16.344.256.563.352.25.128.5.16.843.16.344 0 .626-.064.876-.16s.468-.256.624-.417a2.42 2.42 0 0 0 .376-.609c.093-.224.124-.448.124-.641 0-.256-.031-.512-.093-.737a1.238 1.238 0 0 0-.375-.545 1.932 1.932 0 0 0-.719-.384c-.313-.096-.719-.129-1.219-.129v-.865c.406-.032.75-.064 1.032-.16.281-.064.5-.192.687-.353.187-.16.313-.32.375-.545.094-.192.125-.416.125-.673 0-.288-.031-.545-.125-.737-.094-.224-.188-.384-.344-.513a1.322 1.322 0 0 0-.531-.32 2.381 2.381 0 0 0-1.344 0 2.145 2.145 0 0 0-.531.32 1.84 1.84 0 0 0-.406.449 4.494 4.494 0 0 0-.25.577c-.032.128-.063.224-.156.288a.349.349 0 0 1-.25.097h-.094s-.032 0-.063-.032l-.625-.097c.063-.448.188-.833.344-1.185.188-.321.406-.609.688-.866a3.37 3.37 0 0 1 .937-.513A3.202 3.202 0 0 1 17 7c.406 0 .781.064 1.125.192.344.096.656.289.906.513.25.192.438.481.563.769.156.321.218.673.218 1.026 0 .321-.031.609-.124.833-.063.257-.188.449-.313.641a1.922 1.922 0 0 1-.531.481 2.25 2.25 0 0 1-.688.289c.625.192 1.094.448 1.375.865.313.385.469.865.469 1.474 0 .449-.094.834-.25 1.218-.156.353-.406.641-.688.898a2.85 2.85 0 0 1-1 .577c-.374.16-.781.224-1.218.224-.532 0-.938-.064-1.313-.192a2.885 2.885 0 0 1-.906-.545c-.25-.225-.437-.513-.594-.802a5.818 5.818 0 0 1-.406-1.025Z"/></svg>