<svg xmlns="http://www.w3.org/2000/svg" width="24" height="24" viewBox="0 0 24 24"><path d="M20 14.713c0 .925-.312 1.691-.938 2.33-.624.638-1.374.957-2.25.957H7.719c-1 0-1.907-.383-2.625-1.117C4.375 16.117 4 15.223 4 14.17c0-.734.188-1.436.594-2.042a3.714 3.714 0 0 1 1.562-1.405c-.031-.159-.031-.287-.031-.351 0-1.212.437-2.234 1.25-3.095C8.219 6.447 9.219 6 10.406 6c.875 0 1.656.255 2.375.766a4.121 4.121 0 0 1 1.563 1.947c.406-.351.844-.543 1.375-.543.593 0 1.093.224 1.531.639.406.446.625.957.625 1.563 0 .415-.125.798-.344 1.181.719.16 1.313.543 1.781 1.117A3.22 3.22 0 0 1 20 14.713Z"/></svg>