<svg xmlns="http://www.w3.org/2000/svg" width="24" height="24" viewBox="0 0 24 24"><path d="m6.3 4.929 13.258 13.258a.625.625 0 0 1-.884.884l-2.895-2.895C11.72 18.035 6.628 16.749 4 12.318v-.636c.959-1.617 2.246-2.815 3.691-3.594L5.416 5.813a.625.625 0 0 1 .884-.884Zm8.132 9.9-1.325-1.325a1.83 1.83 0 0 1-1.107.375 1.875 1.875 0 0 1-1.493-2.975L9.183 9.58A3.719 3.719 0 0 0 8.298 12c0 2.07 1.663 3.758 3.702 3.758.93 0 1.781-.351 2.432-.929ZM20 12.319a9.859 9.859 0 0 1-2.235 2.618l-2.146-2.146c.054-.255.083-.52.083-.791a3.71 3.71 0 0 0-4.511-3.637l-1.149-1.149c3.663-.809 7.712.68 9.958 4.467v.638Z"/></svg>