<svg xmlns="http://www.w3.org/2000/svg" width="24" height="24" viewBox="0 0 24 24"><path d="M12.7 13.422c0 .25-.063.282-.314.282H11.32c-.251 0-.283-.032-.283-.282v-1.82c0-.345.502-.408 1.035-.596.503-.157 1.004-.471 1.004-1.255 0-.659-.407-1.035-1.192-1.035-.909 0-1.662.502-1.819.502-.063 0-.126-.094-.157-.157l-.377-.973C9.5 8.025 9.5 7.963 9.5 7.931c0-.376 1.726-.878 2.698-.878 1.757 0 2.855 1.129 2.855 2.729 0 1.851-1.506 2.353-2.353 2.636v1.004Zm-.784 4.078c-.69 0-1.224-.565-1.224-1.224 0-.69.534-1.254 1.224-1.254s1.223.564 1.223 1.254c0 .659-.564 1.224-1.223 1.224ZM12 4c-4.424 0-8 3.576-8 8 0 4.424 3.576 8 8 8 4.424 0 8-3.576 8-8 0-4.424-3.576-8-8-8Zm0 14.839c-3.765 0-6.839-3.074-6.839-6.839 0-3.765 3.074-6.839 6.839-6.839 3.765 0 6.839 3.074 6.839 6.839 0 3.765-3.074 6.839-6.839 6.839Z"/></svg>