<svg xmlns="http://www.w3.org/2000/svg" width="24" height="24" viewBox="0 0 24 24"><path d="M4 17V7.129h1.281v4.387h5.157V7.129h1.281V17h-1.281v-4.516H5.281V17H4Zm9.625 0v-.419c0-.097 0-.194.063-.258.031-.097.062-.194.156-.259l3.062-3.193c.25-.258.469-.516.688-.774.218-.226.375-.484.531-.742.156-.226.281-.484.344-.742a2.31 2.31 0 0 0 .125-.807c0-.29-.063-.548-.156-.774-.063-.226-.188-.387-.344-.548a2.382 2.382 0 0 0-.563-.323 2.167 2.167 0 0 0-.656-.096c-.25 0-.469.032-.687.129a1.704 1.704 0 0 0-.532.29 2.77 2.77 0 0 0-.406.451c-.094.194-.188.388-.219.613a.627.627 0 0 1-.156.291.613.613 0 0 1-.281.064h-.156l-.626-.097c.063-.451.188-.871.344-1.193.188-.355.406-.645.688-.871.281-.258.594-.419.937-.548.375-.129.75-.194 1.157-.194.406 0 .781.065 1.124.194.344.129.657.322.907.548.281.226.469.516.625.871.156.322.218.71.218 1.161a3.438 3.438 0 0 1-.593 1.903 8.343 8.343 0 0 1-.625.839c-.25.258-.5.549-.75.807L15.312 16c.188-.032.376-.097.532-.129.187-.032.375-.032.531-.032h3.219c.125 0 .218.032.281.096a.422.422 0 0 1 .125.323V17h-6.375Z"/></svg>