<svg xmlns="http://www.w3.org/2000/svg" width="24" height="24" viewBox="0 0 24 24"><path d="M8 5.537c.21-.219.479-.408.749-.596.3-.188.599-.345.929-.502.3-.125.659-.251 1.049-.314A5.113 5.113 0 0 1 11.955 4c.599 0 1.169.094 1.648.251.509.188.929.408 1.288.722.36.313.63.721.809 1.16.21.44.3.942.3 1.506 0 .534-.06 1.036-.24 1.443-.149.408-.329.753-.569 1.036-.24.313-.509.564-.779.784-.3.22-.539.408-.809.627-.24.189-.449.377-.629.534-.15.188-.24.408-.27.659l-.24 1.6h-1.737l-.18-1.789v-.188c0-.345.06-.596.21-.847.149-.22.359-.439.569-.659a7.12 7.12 0 0 1 .749-.596c.24-.219.479-.408.719-.659.21-.219.39-.47.539-.753.15-.313.21-.658.21-1.035 0-.282-.03-.502-.12-.721-.12-.189-.239-.377-.389-.534-.15-.157-.36-.251-.57-.345a2.873 2.873 0 0 0-.749-.094c-.389 0-.719.031-.988.125-.27.095-.51.189-.69.283a4.552 4.552 0 0 0-.479.314c-.15.094-.27.156-.36.156-.239 0-.419-.125-.539-.345L8 5.537Zm2.157 12.832c0-.22.06-.44.12-.628.06-.219.15-.376.27-.533.12-.126.269-.251.449-.345a.953.953 0 0 1 .51-.126c.209 0 .419.032.599.126s.329.219.479.345c.12.157.24.314.33.533.06.188.12.408.12.628 0 .251-.06.47-.12.658-.09.189-.21.377-.33.502-.15.157-.299.283-.479.346-.18.094-.39.125-.599.125a.952.952 0 0 1-.51-.125.985.985 0 0 1-.449-.346 1.316 1.316 0 0 1-.27-.502 2.127 2.127 0 0 1-.12-.658Z"/></svg>