<svg xmlns="http://www.w3.org/2000/svg" width="24" height="24" viewBox="0 0 24 24"><path d="M18.988 9.752C18.166 6.42 15.352 4 12 4 8.648 4 5.834 6.42 5.012 9.627 4.411 9.847 4 10.35 4 10.947v1.697c0 .818.601 1.415 1.423 1.415h1.613V9.627H6.024C6.846 6.923 9.154 5.006 12 5.006s5.154 1.917 5.976 4.621h-1.012v4.432h.696c-.79 1.917-2.308 3.332-4.332 3.835-.221-.503-.727-.912-1.328-.912-.822 0-1.518.692-1.518 1.509 0 .409.095.692.316.912.285.408.696.597 1.202.597.696 0 1.202-.503 1.423-1.1 2.53-.503 4.553-2.421 5.344-4.841A1.402 1.402 0 0 0 20 12.644v-1.603c0-.597-.411-1.194-1.012-1.289ZM12 16.291c2.34 0 4.142-1.823 4.142-3.93v-1.508c0-2.232-1.802-3.93-4.142-3.93-2.34 0-4.142 1.698-4.142 3.93v1.508c0 2.107 1.802 3.93 4.142 3.93Z"/></svg>