<svg xmlns="http://www.w3.org/2000/svg" width="24" height="24" viewBox="0 0 24 24"><path d="M15.101 8.181 18.741 5 20 6.155l-2.318 2.026h2.283v7.943H8.594L5.303 19l-1.259-1.155 1.969-1.721H4V8.181Zm-4.939 6.572h5.395v-1.428h-3.761Zm7.686-1.383h-1.481v1.428h1.481Zm-6.155-4.239h-1.481v1.428h1.481Zm-4.095 0H6.117v1.428h1.481Zm2.082 0H8.2v1.428h1.48Zm6.803 2.107h-1.481v1.427h1.481Zm-8.168-.045H6.834v1.428h1.481Zm-.717 3.545v-1.413H6.117v1.428h1.464Zm8.769-5.408v1.274h1.481V9.176h-1.304Zm-5.969 2.962v-1.099H8.917v1.428h1.104Zm2.614-.03v.359h1.481v-1.428h-.257Zm.764-2.923v-.208h-1.481v1.428h.085Zm-4.561 3.986H8.2v.888Zm5.695-2.721h.856v-.748Zm-3.255.589h-.725v.633Z"/></svg>