<svg xmlns="http://www.w3.org/2000/svg" width="16" height="16" viewBox="0 0 16 16"><path d="M8 5.013c-.13 0-.259.005-.386.016-.024.003-.073.025-.092.099l-.195.747a1.264 1.264 0 0 1-.674.802c-.117.058-.23.123-.338.196a1.263 1.263 0 0 1-1.032.182l-.745-.204c-.073-.02-.118.011-.132.03-.147.21-.277.434-.386.668-.01.022-.015.075.039.129l.551.544c.277.274.379.646.358.983a3.215 3.215 0 0 0 0 .393c.021.337-.081.609-.358.884H3.277l.621-.621c.033-.033.065-.099.059-.199a4.486 4.486 0 0 1 0-.521c.006-.099-.026-.166-.059-.199l-.55-.543a1.128 1.128 0 0 1-.246-1.278c.135-.289.294-.564.476-.822a1.13 1.13 0 0 1 1.228-.425l.745.205c.045.012.119.007.202-.049.144-.096.295-.183.451-.261.09-.044.131-.106.143-.151l.195-.746a1.13 1.13 0 0 1 .985-.852 5.699 5.699 0 0 1 .946 0c.502.044.871.416.985.852l.195.746c.012.045.053.107.143.151.156.078.307.165.451.261.083.056.157.061.202.049l.745-.205a1.13 1.13 0 0 1 1.228.425c.182.258.341.533.476.822.213.456.075.961-.246 1.278l-.55.543c-.033.033-.065.099-.059.199a4.494 4.494 0 0 1 0 .521c-.006.1.026.166.059.199l.621.621H11.39c-.277-.275-.379-.547-.358-.884a3.182 3.182 0 0 0 0-.393 1.265 1.265 0 0 1 .358-.983l.551-.544c.054-.054.049-.107.039-.129a4.426 4.426 0 0 0-.386-.668c-.014-.019-.059-.05-.132-.03l-.745.204a1.263 1.263 0 0 1-1.032-.182 2.913 2.913 0 0 0-.338-.196 1.263 1.263 0 0 1-.674-.803l-.195-.746c-.019-.074-.068-.096-.092-.099A4.478 4.478 0 0 0 8 5.013Z"/><path d="M8 7.376a2.026 2.026 0 0 1 1.714 3.106H6.286A2.026 2.026 0 0 1 8 7.376Zm1.013 2.026a1.013 1.013 0 1 0-2.026 0 1.013 1.013 0 0 0 2.026 0Z"/><path d="M16 2.75v7.5A1.75 1.75 0 0 1 14.25 12h-3.727c.099 1.041.52 1.872 1.292 2.757A.75.75 0 0 1 11.25 16h-6.5a.75.75 0 0 1-.565-1.243c.772-.885 1.193-1.716 1.292-2.757H1.75A1.75 1.75 0 0 1 0 10.25v-7.5C0 1.783.784 1 1.75 1h12.5c.967 0 1.75.783 1.75 1.75Zm-1.5 7.5v-7.5a.25.25 0 0 0-.25-.25H1.75a.25.25 0 0 0-.25.25v7.5c0 .138.112.25.25.25h12.5a.25.25 0 0 0 .25-.25ZM6.982 12a5.712 5.712 0 0 1-.765 2.5h3.566a5.712 5.712 0 0 1-.765-2.5Z"/></svg>