<svg xmlns="http://www.w3.org/2000/svg" width="16" height="16" viewBox="0 0 16 16"><path d="M.22 12.22A.747.747 0 0 1 .75 12h14.5c.199 0 .39.079.53.22a.747.747 0 0 1 0 1.06.747.747 0 0 1-.53.22H.75a.747.747 0 0 1-.53-.22.747.747 0 0 1 0-1.06Zm6-6A.747.747 0 0 1 6.75 6h8.5c.199 0 .39.079.53.22a.747.747 0 0 1 0 1.06.747.747 0 0 1-.53.22h-8.5a.747.747 0 0 1-.53-.22.747.747 0 0 1 0-1.06Zm0 3A.747.747 0 0 1 6.75 9h8.5c.199 0 .39.079.53.22a.747.747 0 0 1 0 1.06.747.747 0 0 1-.53.22h-8.5a.747.747 0 0 1-.53-.22.747.747 0 0 1 0-1.06Zm-6-6A.747.747 0 0 1 .75 3h14.5c.199 0 .39.079.53.22a.747.747 0 0 1 0 1.06.747.747 0 0 1-.53.22H.75a.747.747 0 0 1-.53-.22.747.747 0 0 1 0-1.06Zm2.31 6.353 1.397-1.396a.252.252 0 0 0 0-.354L2.53 6.427a.25.25 0 0 0-.426.177v2.792a.25.25 0 0 0 .426.177Z"/></svg>