<svg xmlns="http://www.w3.org/2000/svg" width="24" height="24" viewBox="0 0 24 24"><path d="M14.102 15.671c0 .125-.031.157-.188.157h-3.137c-.157 0-.157-.032-.157-.157v-.816c0-.126 0-.157.157-.157h.784v-3.796h-.784c-.157 0-.189-.031-.189-.188v-.785c0-.156.032-.188.189-.188h2.196c.125 0 .156.032.156.188v4.769h.785c.157 0 .188.031.188.157v.816Zm-1.757-6.714a1.044 1.044 0 0 1-1.035-1.035c0-.565.47-1.004 1.035-1.004a.99.99 0 0 1 1.004 1.004c0 .564-.439 1.035-1.004 1.035ZM12 4c-4.424 0-8 3.576-8 8 0 4.424 3.576 8 8 8 4.424 0 8-3.576 8-8 0-4.424-3.576-8-8-8Zm0 14.808c-3.765 0-6.839-3.043-6.839-6.808 0-3.765 3.074-6.839 6.839-6.839 3.765 0 6.839 3.074 6.839 6.839 0 3.765-3.074 6.808-6.839 6.808Z"/></svg>