<svg xmlns="http://www.w3.org/2000/svg" width="16" height="16" viewBox="0 0 16 16"><path d="M0 1.75C0 .784.784 0 1.75 0h12.5C15.217 0 16 .784 16 1.75v7.5a.75.75 0 0 1-1.5 0v-7.5a.25.25 0 0 0-.25-.25H1.75a.25.25 0 0 0-.25.25v12.5c0 .138.112.25.25.25h7.5a.75.75 0 0 1 0 1.5h-7.5A1.75 1.75 0 0 1 0 14.25Z"/><path d="M13 10c.452 0 .818.366.818.818v1.364h1.364c.446 0 .808.356.818.8v.036a.818.818 0 0 1-.818.8h-1.364v1.364a.818.818 0 0 1-.8.818h-.036a.818.818 0 0 1-.8-.818v-1.364h-1.364a.818.818 0 1 1 0-1.636h1.364v-1.364c0-.452.366-.818.818-.818Zm-2-6.25a.75.75 0 0 1 1.5 0v4.5a.75.75 0 0 1-1.5 0ZM4.25 3a.75.75 0 0 1 .75.75v5.5a.75.75 0 0 1-1.5 0v-5.5A.75.75 0 0 1 4.25 3Zm3 .75a.75.75 0 0 1 1.5 0v3.5a.75.75 0 0 1-1.5 0Z"/></svg>