<svg xmlns="http://www.w3.org/2000/svg" width="24" height="24" viewBox="0 0 24 24"><path d="m14.373 6.078 3.411 3.397-4.064 4.037a1.613 1.613 0 0 0 1.255.666 1.62 1.62 0 0 0 1.297-.581 77.475 77.475 0 0 1 2.153-2.175h.001c.291-.286.582-.572.871-.86a1.535 1.535 0 0 0 .381-1.775 1.545 1.545 0 0 0-.381-.518l-1.655-1.647-.852-.852c-.427-.428-.855-.858-1.285-1.283a1.473 1.473 0 0 0-2.007-.169c-.511.482-.997.99-1.455 1.522l1.307 1.297 1.023-1.059Zm-4.689 11.85-3.411-3.397 4.075-4.054c-.705-.827-1.682-.929-2.37-.261a109.734 109.734 0 0 0-3.314 3.341 1.483 1.483 0 0 0 0 2.066 330.896 330.896 0 0 0 3.979 3.964 1.459 1.459 0 0 0 1.95.073 14.21 14.21 0 0 0 1.018-1.021c.14-.151.28-.3.42-.445l-1.341-1.336-1.006 1.07Z"/><path d="M13.509 10.313 9.462 6.288 6.051 9.685l1.086 1.019-1.268 1.256a18.86 18.86 0 0 1-1.563-1.455 1.416 1.416 0 0 1 .125-1.896A391.7 391.7 0 0 1 8.41 4.646a1.505 1.505 0 0 1 2.098 0c1.099 1.102 2.196 2.204 3.291 3.306a1.52 1.52 0 0 1 .418 1.249 1.529 1.529 0 0 1-.708 1.112Zm1.12 7.428-4.07-4.048c-.2.127-.368.298-.49.501a1.526 1.526 0 0 0-.118 1.357c.087.22.223.417.398.576l3.109 3.097a1.518 1.518 0 0 0 1.761.377c.196-.088.371-.216.513-.377l1.78-1.772.003-.004c.676-.666 1.351-1.333 2.015-2.006a1.44 1.44 0 0 0 .176-1.936c-.473-.5-.972-.974-1.495-1.421l-1.251 1.229c.14.128.274.262.408.396.148.149.298.298.456.442.176.158.165.26 0 .424-1.012.996-2.018 1.999-3.024 3.001l-.171.164Z"/><path d="m10.252 7.499 3.024 3.007-1.318 1.307-.069-.071a11.793 11.793 0 0 0-.5-.495l-1.268-1.268a1.549 1.549 0 0 1-.354-1.956 1.56 1.56 0 0 1 .485-.524Zm2.346 5.25-.544-.528-1.268 1.234 3.013 2.995a1.523 1.523 0 0 0 .567-1.712 1.533 1.533 0 0 0-.322-.553 51.468 51.468 0 0 0-1.446-1.436Zm-5.08.983 3.007-2.989 1.302 1.274-.182.193-1.706 1.698a1.552 1.552 0 0 1-1.916.297 1.534 1.534 0 0 1-.505-.473Zm6.031-.52 2.956-2.938a1.505 1.505 0 0 0-1.792-.561 1.514 1.514 0 0 0-.556.374c-.396.39-.797.792-1.19 1.184l-.572.571c-.034.034-.066.07-.096.107l1.25 1.263Z"/></svg>