<svg xmlns="http://www.w3.org/2000/svg" width="16" height="16" viewBox="0 0 16 16"><path d="M2.801 2.061A1.75 1.75 0 0 1 4.409 1h1.046a.75.75 0 0 1 0 1.5H4.409c-.1 0-.19.06-.229.152L1.887 8H4.75a.75.75 0 0 1 .6.3L6.625 10h2.75l1.275-1.7a.75.75 0 0 1 .6-.3h2.863L11.82 2.652a.249.249 0 0 0-.229-.152h-1.046a.75.75 0 0 1 0-1.5h1.046c.7 0 1.332.417 1.608 1.061l2.74 6.394c.04.093.061.193.061.295v4.5A1.75 1.75 0 0 1 14.25 15H1.75A1.75 1.75 0 0 1 0 13.25v-4.5c0-.102.021-.202.061-.295ZM11.625 9.5l-1.275 1.7a.75.75 0 0 1-.6.3h-3.5a.75.75 0 0 1-.6-.3L4.375 9.5H1.5v3.75c0 .138.112.25.25.25h12.5a.25.25 0 0 0 .25-.25V9.5Z"/><path d="M8.647 3.5V.75a.75.75 0 0 0-1.5 0V3.5H5a.25.25 0 0 0-.176.427L7.72 6.823a.25.25 0 0 0 .354 0l2.896-2.896a.25.25 0 0 0-.177-.427H8.647Z"/></svg>