<svg xmlns="http://www.w3.org/2000/svg" width="24" height="24" viewBox="0 0 24 24"><path d="M17.647 6.333c-3.106-3.111-8.188-3.111-11.294 0-3.137 3.11-3.137 8.2 0 11.311 3.106 3.141 8.188 3.141 11.294 0 3.137-3.111 3.137-8.201 0-11.311Zm-5.594-.584a1.54 1.54 0 0 1 0 3.079 1.54 1.54 0 0 1-1.537-1.539c0-.848.659-1.54 1.537-1.54Zm2.447 11.28c0 .314-.157.471-.471.471h-3.953c-.313 0-.47-.157-.47-.471v-1.006c0-.314.157-.471.47-.471h.722v-4.273h-.722c-.345 0-.501-.157-.501-.471V9.802c0-.314.156-.471.501-.471h2.761c.314 0 .471.157.471.471v5.75h.721c.314 0 .471.157.471.471v1.006Z"/></svg>