<svg xmlns="http://www.w3.org/2000/svg" width="24" height="24" viewBox="0 0 24 24"><path d="M730.623 170.667h-76.166c-67.702 0-122.71 52.204-122.71 116.455v184.721H397.752c-4.231 0-7.052 1.339-9.873 1.339-5.642 0-11.284-1.339-18.336-1.339h-76.166c-67.702 0-122.71 52.204-122.71 116.455v148.58c0 64.251 55.008 116.455 122.71 116.455h76.166c67.702 0 122.71-52.204 122.71-116.455v-148.58c0-13.386-2.821-25.433-7.052-37.48h46.546v135.195c0 21.417 18.336 37.48 40.903 37.48 22.568 0 40.904-16.063 40.904-37.48V550.818h23.978c5.642 0 11.283 1.339 16.925 1.339h76.166c67.702 0 122.71-52.204 122.71-116.455v-148.58c0-64.251-55.008-116.455-122.71-116.455ZM410.446 736.878c0 20.079-18.336 37.48-40.903 37.48h-76.166c-22.567 0-39.493-16.063-39.493-37.48v-148.58c0-21.417 16.926-37.48 39.493-37.48h76.166c22.567 0 40.903 16.063 40.903 37.48v148.58Zm359.67-301.176c0 21.417-16.926 37.48-39.493 37.48h-76.166c-2.821 0-5.642 0-8.463-1.339h4.232-4.232c-18.336-4.016-32.44-17.401-32.44-36.141v-148.58c0-20.079 18.336-37.48 40.903-37.48h76.166c21.157 0 39.493 16.063 39.493 37.48v148.58Z"/></svg>