<svg xmlns="http://www.w3.org/2000/svg" width="16" height="16" viewBox="0 0 16 16"><path d="M4.667 8a.666.666 0 1 1-1.332-.002A.666.666 0 0 1 4.667 8Z"/><path d="m2.53 1.47 12 12a.749.749 0 1 1-1.06 1.06l-1.138-1.138c-.469.025-1.007.025-1.613.025H5.281c-.898 0-1.647 0-2.242-.08-.628-.085-1.195-.27-1.65-.726-.456-.455-.641-1.022-.726-1.65-.08-.595-.08-1.344-.08-2.242V7.281c0-.898 0-1.647.08-2.242.085-.628.27-1.195.726-1.65.166-.166.347-.296.54-.399l-.459-.46a.749.749 0 1 1 1.06-1.06Zm8.326 10.447-.5-.501a.177.177 0 0 1-.023.001H4.667a.75.75 0 1 1 0-1.5h4.189L6.51 7.571a.663.663 0 0 1-.039.9.666.666 0 1 1-.042-.981L4.51 5.571a.663.663 0 0 1-.039.9.666.666 0 1 1-.042-.981l-1.32-1.32c-.37.063-.542.162-.659.279-.13.13-.238.328-.3.79-.065.483-.067 1.13-.067 2.094v1.334c0 .964.002 1.611.067 2.094.062.462.169.659.299.789.13.13.328.238.79.3.483.065 1.13.067 2.094.067h5.523Zm2.694-.366c.13-.13.238-.328.3-.79.065-.483.067-1.13.067-2.094V7.333c0-.964-.002-1.611-.067-2.094-.062-.462-.169-.659-.299-.789-.13-.13-.328-.238-.79-.3-.483-.065-1.13-.067-2.094-.067H6.235l-1.527-1.5c.205-.005.222-.004.272-.003.041.001.102.003.301.003h5.438c.898 0 1.647 0 2.242.08.628.085 1.195.27 1.65.726.456.455.641 1.022.726 1.65.08.595.08 1.344.08 2.242v1.438c0 .898 0 1.647-.08 2.242-.085.628-.27 1.195-.726 1.65l-1.061-1.06Z"/><path d="M10.667 6a.666.666 0 1 1-1.332-.002.666.666 0 0 1 1.332.002Zm2 0a.666.666 0 1 1-1.332-.002.666.666 0 0 1 1.332.002Zm0 2a.666.666 0 1 1-1.332-.002.666.666 0 0 1 1.332.002ZM8.471 6.471a.666.666 0 1 0-.942-.942l.942.942Zm2 2a.666.666 0 1 0-.942-.942l.942.942Z"/></svg>