<svg xmlns="http://www.w3.org/2000/svg" width="24" height="24" viewBox="0 0 24 24"><path d="M17.907 7.712c.21 1.242.06 2.421-.42 3.505-.481 1.084-1.262 1.721-2.314 1.912a5.89 5.89 0 0 1-1.982.032l-1.833 3.155-1.081.191-1.593 2.709c-.15.319-.36.478-.691.542l-1.171.223c-.121.032-.241.032-.361-.064a.772.772 0 0 1-.18-.35l-.24-1.626c-.091-.318-.03-.605.18-.892l3.965-6.31c-.24-.542-.42-1.179-.57-1.944-.181-1.179.09-2.167.811-3.059.721-.893 1.682-1.434 2.854-1.657 1.081-.224 2.073.031 3.004.732.901.702 1.442 1.69 1.622 2.901Zm-1.922 1.242c.3-.478.42-1.019.33-1.593-.09-.574-.361-1.02-.811-1.339-.421-.35-.901-.478-1.412-.382-.511.128-.901.414-1.232.892l-.18.383a.574.574 0 0 0 0 .319c.03.095.06.191.06.254.03.096.09.16.21.287.12.096.211.191.271.255.09.032.18.128.33.255.18.128.3.191.361.255.06.064.18.159.33.287.18.127.301.223.361.255.09.032.18.095.3.191s.21.128.3.128h.241a.56.56 0 0 0 .3-.16c.06-.064.15-.159.241-.287Z"/></svg>