<svg xmlns="http://www.w3.org/2000/svg" width="16" height="16" viewBox="0 0 16 16"><path d="M13.124 0h-1.785C9.752 0 8.463 1.224 8.463 2.729v4.33H2.876C1.289 7.059 0 8.282 0 9.788v3.483C0 14.777 1.289 16 2.876 16h1.785c1.587 0 2.876-1.223 2.876-2.729V9.788c0-.313-.066-.596-.165-.878h1.091v3.168c0 .502.43.879.958.879.529 0 .959-.377.959-.879V8.941h2.744C14.711 8.941 16 7.718 16 6.212V2.729C16 1.224 14.711 0 13.124 0ZM5.62 13.271c0 .47-.43.878-.959.878H2.876c-.529 0-.926-.376-.926-.878V9.788c0-.502.397-.878.926-.878h1.785c.529 0 .959.376.959.878v3.483Zm8.43-7.059c0 .502-.397.878-.926.878h-1.785c-.066 0-.132 0-.199-.031-.429-.094-.76-.408-.76-.847V2.729c0-.47.43-.878.959-.878h1.785c.496 0 .926.376.926.878v3.483Z"/></svg>