<svg xmlns="http://www.w3.org/2000/svg" width="16" height="16" viewBox="0 0 16 16"><path d="M5.889 3.362a1.685 1.685 0 0 1-1.681-1.681C4.208.756 4.964 0 5.889 0S7.57.756 7.57 1.681v1.681H5.889Zm-4.208 8.429c.925 0 1.681-.755 1.681-1.68V8.43H1.681C.756 8.43 0 9.186 0 10.111s.756 1.68 1.681 1.68ZM5.889 8.43c-.925 0-1.681.756-1.681 1.681v4.208c0 .925.756 1.681 1.681 1.681s1.681-.756 1.681-1.681v-4.208c0-.925-.756-1.681-1.681-1.681ZM7.57 5.889c0-.925-.756-1.681-1.681-1.681H1.681C.756 4.208 0 4.964 0 5.889S.756 7.57 1.681 7.57h4.208c.925 0 1.681-.756 1.681-1.681Zm5.068 0c0-.925.756-1.681 1.681-1.681S16 4.964 16 5.889s-.756 1.681-1.681 1.681h-1.681V5.889ZM10.111 7.57c.925 0 1.68-.756 1.68-1.681V1.681c0-.925-.755-1.681-1.68-1.681C9.186 0 8.43.756 8.43 1.681v4.208c0 .925.756 1.681 1.681 1.681Zm0 5.068c.925 0 1.68.756 1.68 1.681S11.036 16 10.111 16a1.685 1.685 0 0 1-1.681-1.681v-1.681h1.681ZM8.43 10.111c0 .925.756 1.68 1.681 1.68h4.208c.925 0 1.681-.755 1.681-1.68 0-.925-.756-1.681-1.681-1.681h-4.208c-.925 0-1.681.756-1.681 1.681Z"/></svg>