<svg xmlns="http://www.w3.org/2000/svg" width="24" height="24" viewBox="0 0 24 24"><path d="M17.124 5.594H18V4H6v1.594h1.038c.13 3 1.297 4.968 3.275 5.625v1.656c-1.978.656-3.113 2.594-3.275 5.531H6V20h12v-1.594h-.876c-.129-2.937-1.297-4.875-3.243-5.531v-1.656c1.979-.657 3.114-2.625 3.243-5.625Zm-3.762 7.968c2.206.532 2.854 2.813 2.952 4.844h-.811l-1.492-1.656-1.849-2.094-1.849 2.094-1.491 1.656h-.941c.097-2.031.746-4.312 2.951-4.844l.292-.062v-2.906l-.292-.063C8.595 10 7.978 7.656 7.881 5.594h8.433c-.098 2.062-.714 4.406-2.952 4.937l-.324.063V13.5l.324.062Zm.584-4.718h-3.438l.876.968.843.938.843-.938.876-.968Z"/></svg>