<svg xmlns="http://www.w3.org/2000/svg" width="24" height="24" viewBox="0 0 24 24"><path d="M9.5 13.546h-3c-.562 0-1-.455-1-.97v-1.152c0-.515.438-.97 1-.97h3c.375 0 .656.213.844.485h1.594C11.719 9.848 10.719 9 9.5 9h-3C5.125 9 4 10.091 4 11.424v1.152C4 13.909 5.125 15 6.5 15h3c1.25 0 2.312-.939 2.469-2.121h-1.531c-.157.394-.5.667-.938.667ZM17.5 9h-3c-1.219 0-2.219.848-2.438 1.939h1.594c.188-.272.469-.485.844-.485h3c.562 0 1 .455 1 .97v.97c0 .545-.438.97-1 .97h-3c-.375 0-.656-.182-.844-.485h-1.594c.219 1.121 1.219 1.939 2.438 1.939h3c1.375 0 2.5-1.091 2.5-2.424v-.97C20 10.091 18.875 9 17.5 9Zm-2.938 3.879c.532 0 .938-.425.938-.97 0-.515-.406-.97-.938-.97H9.406c-.5 0-.906.455-.906.97 0 .545.438.97.969.97h5.093Z"/></svg>