<svg width="16" height="16" viewBox="0 0 16 16" fill="none" xmlns="http://www.w3.org/2000/svg">
<path d="M0.925182 6.38744L8.00002 15L0.251516 9.65247C0.14729 9.58056 0.0697058 9.47916 0.0298866 9.36279C-0.00993247 9.24643 -0.0099421 9.12107 0.0298591 9.0047L0.925182 6.38744Z" fill="black"/>
<path d="M8.00002 15L5.05419 6.38745H10.946L8.00002 15Z" fill="black"/>
<path d="M0.925182 6.38744L2.69955 1.20017C2.7908 0.933277 3.18831 0.933277 3.27956 1.20017L5.05419 6.38745L0.925182 6.38744Z" fill="black"/>
<path d="M15.0748 6.38744L15.9702 9.00469C16.01 9.12107 16.01 9.24642 15.9701 9.36279C15.9303 9.47915 15.8527 9.58056 15.7485 9.65246L8.00002 15L15.0748 6.38744Z" fill="black"/>
<path d="M15.0748 6.38744L10.946 6.38745L12.7205 1.20017C12.8118 0.933277 13.2093 0.933277 13.3005 1.20017L15.0748 6.38744Z" fill="black"/>
</svg>
