<svg xmlns="http://www.w3.org/2000/svg" width="24" height="24" viewBox="0 0 24 24"><path d="M20 12.502c0-3.043-1.975-5.647-4.753-6.808v2.73c1.339.941 2.209 2.415 2.209 4.078 0 2.823-2.443 5.145-5.456 5.145-3.013 0-5.456-2.322-5.456-5.145 0-1.663.87-3.137 2.209-4.078V5.663C5.975 6.855 4 9.459 4 12.502 4 16.643 7.582 20 12 20s8-3.357 8-7.498Zm-6.36.627c0 .597-.502 1.067-1.138 1.067h-1.004c-.636 0-1.138-.47-1.138-1.067V5.067c0-.596.502-1.067 1.138-1.067h1.004c.636 0 1.138.471 1.138 1.067v8.062Z"/></svg>