<svg xmlns="http://www.w3.org/2000/svg" width="16" height="16" viewBox="0 0 16 16"><path d="M8 0a7.996 7.996 0 0 1 8 8 7.995 7.995 0 0 1-.609 3.061l-.16.36a7.996 7.996 0 0 1-1.574 2.236l-.285.271a8 8 0 0 1-2.311 1.463l-.367.141a7.995 7.995 0 0 1-8.066-1.604l-.285-.271a7.996 7.996 0 0 1-1.574-2.236l-.16-.36a7.995 7.995 0 0 1 1.734-8.718A7.996 7.996 0 0 1 8 0Zm2.006 11.066a3.716 3.716 0 0 1-4.013 0l-2.028 2.029a6.488 6.488 0 0 0 8.069 0Zm1.06-5.073a3.718 3.718 0 0 1 0 4.013l2.029 2.028A6.488 6.488 0 0 0 14.5 8a6.5 6.5 0 0 0-1.405-4.035ZM8 1.5c-1.472 0-2.892.5-4.035 1.404l2.028 2.029a3.718 3.718 0 0 1 4.013 0l2.028-2.029A6.5 6.5 0 0 0 8 1.5ZM2.904 3.965a6.505 6.505 0 0 0-.909 6.522 6.49 6.49 0 0 0 .909 1.546l2.029-2.027a3.718 3.718 0 0 1 0-4.013Zm6.628 2.503c-.778-.779-2.06-.827-2.902-.146l-.162.146c-.831.831-.83 2.234 0 3.064.83.831 2.233.831 3.064 0l.146-.162a2.206 2.206 0 0 0 0-2.74Z"/></svg>