<svg width="16" height="16" viewBox="0 0 16 16" fill="none" xmlns="http://www.w3.org/2000/svg">
<g clip-path="url(#clip0_35_1847)">
<path d="M3.64369 2.24934C3.64369 2.05059 3.5648 1.85997 3.42435 1.71934C3.28372 1.57889 3.0931 1.5 2.89435 1.5C2.69559 1.5 2.50497 1.57889 2.36435 1.71934L1.26956 2.81413C1.18292 2.73109 1.07742 2.66994 0.961857 2.63609C0.832693 2.59825 0.695721 2.59592 0.565345 2.62934C0.434735 2.66237 0.315452 2.73003 0.220065 2.82516C0.124678 2.9203 0.0567178 3.03941 0.0233445 3.16994C-0.0100287 3.30046 -0.00757916 3.43757 0.030435 3.56682C0.0684491 3.69606 0.14062 3.81267 0.239345 3.90434L0.739345 4.40434C0.87997 4.54479 1.07059 4.62368 1.26935 4.62368C1.4681 4.62368 1.65872 4.54479 1.79935 4.40434L3.42435 2.77934C3.5648 2.63871 3.64369 2.44809 3.64369 2.24934Z" fill="#1F2328"/>
<path d="M5 3.25C5 2.83579 5.33579 2.5 5.75 2.5H14.25C14.6642 2.5 15 2.83579 15 3.25C15 3.66421 14.6642 4 14.25 4H5.75C5.33579 4 5 3.66421 5 3.25Z" fill="#1F2328"/>
<path d="M5 8.25C5 7.83579 5.33579 7.5 5.75 7.5H14.25C14.6642 7.5 15 7.83579 15 8.25C15 8.66421 14.6642 9 14.25 9H5.75C5.33579 9 5 8.66421 5 8.25Z" fill="#1F2328"/>
<path d="M5 13.25C5 12.8358 5.33579 12.5 5.75 12.5H14.25C14.6642 12.5 15 12.8358 15 13.25C15 13.6642 14.6642 14 14.25 14H5.75C5.33579 14 5 13.6642 5 13.25Z" fill="#1F2328"/>
<path d="M3.64369 12.2493C3.64369 12.0506 3.5648 11.86 3.42435 11.7193C3.28372 11.5789 3.0931 11.5 2.89435 11.5C2.69559 11.5 2.50497 11.5789 2.36435 11.7193L1.26956 12.8141C1.18292 12.7311 1.07742 12.6699 0.961857 12.6361C0.832693 12.5983 0.695721 12.5959 0.565345 12.6293C0.434735 12.6624 0.315452 12.73 0.220065 12.8252C0.124678 12.9203 0.0567178 13.0394 0.0233445 13.1699C-0.0100287 13.3005 -0.00757916 13.4376 0.030435 13.5668C0.0684491 13.6961 0.14062 13.8127 0.239345 13.9043L0.739345 14.4043C0.87997 14.5448 1.07059 14.6237 1.26935 14.6237C1.4681 14.6237 1.65872 14.5448 1.79935 14.4043L3.42435 12.7793C3.5648 12.6387 3.64369 12.4481 3.64369 12.2493Z" fill="#1F2328"/>
<path d="M3.42435 6.71934C3.5648 6.85997 3.64369 7.05059 3.64369 7.24934C3.64369 7.44809 3.5648 7.63871 3.42435 7.77934L1.79935 9.40434C1.65872 9.54479 1.4681 9.62368 1.26935 9.62368C1.07059 9.62368 0.87997 9.54479 0.739345 9.40434L0.239345 8.90434C0.14062 8.81267 0.0684491 8.69606 0.030435 8.56682C-0.00757916 8.43757 -0.0100287 8.30046 0.0233445 8.16994C0.0567178 8.03941 0.124678 7.9203 0.220065 7.82516C0.315452 7.73002 0.434735 7.66237 0.565345 7.62934C0.695721 7.59592 0.832693 7.59825 0.961857 7.63609C1.07742 7.66994 1.18292 7.73109 1.26956 7.81413L2.36435 6.71934C2.50497 6.57889 2.69559 6.5 2.89435 6.5C3.0931 6.5 3.28372 6.57889 3.42435 6.71934Z" fill="#1F2328"/>
</g>
<defs>
<clipPath id="clip0_35_1847">
<rect width="16" height="16" fill="white"/>
</clipPath>
</defs>
</svg>
