<svg xmlns="http://www.w3.org/2000/svg" width="16" height="16" viewBox="0 0 16 16"><path d="M8.012 4a3.654 3.654 0 0 0-3.5 2.648 2.376 2.376 0 0 0-2.144-1.374A2.378 2.378 0 0 0 0 7.642a2.379 2.379 0 0 0 2.368 2.368c.945 0 1.766-.566 2.144-1.374a3.655 3.655 0 0 0 3.5 2.648 3.657 3.657 0 0 0 3.492-2.614 2.375 2.375 0 0 0 2.127 1.34A2.38 2.38 0 0 0 16 7.642c0-1.3-1.069-2.368-2.369-2.368-.931 0-1.742.55-2.127 1.34A3.655 3.655 0 0 0 8.012 4Zm0 1.39c1.252 0 2.252 1 2.252 2.252 0 1.252-1 2.252-2.252 2.252a2.24 2.24 0 0 1-2.251-2.252A2.24 2.24 0 0 1 8.012 5.39ZM2.368 6.664c.549 0 .979.429.979.978 0 .548-.43.978-.979.978a.968.968 0 0 1-.978-.978c0-.549.43-.978.978-.978Zm11.263 0c.549 0 .979.429.979.978 0 .548-.43.978-.979.978a.968.968 0 0 1-.978-.978c0-.549.43-.978.978-.978Z"/></svg>