<svg xmlns="http://www.w3.org/2000/svg" width="16" height="16" viewBox="0 0 16 16"><path d="M8.437 12.867c0-.134-.034-.269-.067-.404-.034-.135-.034-.236-.067-.337a1.534 1.534 0 0 0-.169-.336c-.1-.135-.168-.203-.201-.304l-.269-.269c-.101-.135-.202-.202-.269-.27-.067-.033-.168-.134-.303-.235a2.336 2.336 0 0 0-.302-.203c-.034-.067-.168-.134-.303-.235a2.15 2.15 0 0 1-.302-.202c-.101 0-.269-.034-.471-.034-.369 0-.706.034-1.042.067-.302.068-.672.135-1.008.27-.37.101-.672.236-.941.438a1.94 1.94 0 0 0-.673.707c-.168.303-.268.64-.268 1.044 0 .438.134.809.336 1.146.235.37.537.64.907.808.37.202.74.37 1.143.438.403.101.807.168 1.244.168.37 0 .739-.033 1.075-.135.337-.067.639-.202.942-.37.302-.169.537-.404.739-.707.168-.304.269-.64.269-1.045Zm-1.176-8.32c0-.37-.034-.774-.135-1.212-.134-.438-.269-.842-.471-1.247a2.969 2.969 0 0 0-.806-1.01A1.754 1.754 0 0 0 4.706.674c-.605 0-1.042.235-1.378.673-.336.438-.504.977-.504 1.584 0 .303.033.606.134.943.067.337.168.673.336 1.01.135.337.336.64.538.91.202.269.437.471.739.64.303.168.605.235.942.235.605 0 1.075-.168 1.344-.572.269-.371.404-.91.404-1.55ZM6.017 0h4.202L8.908.741H7.63c.437.303.807.707 1.042 1.213.236.539.37 1.078.37 1.617 0 .505-.067.909-.202 1.28-.168.37-.336.673-.537.875l-.639.64a2.17 2.17 0 0 0-.538.573 1.031 1.031 0 0 0-.235.674c0 .168.067.303.168.471.101.169.235.303.403.472.168.135.37.303.572.471.201.135.403.337.605.506.201.202.403.438.571.64.168.235.303.505.403.842.101.303.169.64.169 1.01 0 1.011-.437 1.92-1.345 2.729C7.462 15.596 6.118 16 4.403 16c-.369 0-.773-.034-1.143-.101a7.588 7.588 0 0 1-1.176-.303c-.403-.169-.739-.337-1.042-.573a2.947 2.947 0 0 1-.739-.842A2.366 2.366 0 0 1 0 13.002c0-.404.134-.842.37-1.314.201-.404.504-.741.907-1.044a4.63 4.63 0 0 1 1.412-.707c.504-.135 1.008-.27 1.479-.337.471-.067.941-.101 1.445-.135-.403-.539-.605-1.01-.605-1.414v-.236c.034-.068.034-.135.068-.202 0-.034.033-.101.067-.202.033-.068.033-.135.067-.203-.269.034-.471.068-.672.068a3.542 3.542 0 0 1-2.454-.943c-.672-.64-1.042-1.449-1.042-2.392 0-.876.303-1.684.941-2.392C2.588.842 3.328.371 4.202.168 4.807.034 5.412 0 6.017 0ZM16 2.459v1.213h-2.454v2.459h-1.243V3.672H9.849V2.459h2.454V0h1.243v2.459H16Z"/></svg>