<svg xmlns="http://www.w3.org/2000/svg" width="16" height="16" viewBox="0 0 16 16"><path d="M3.644 2.249c0 .199-.079.39-.22.53L1.799 4.404a.747.747 0 0 1-1.06 0l-.5-.5A.751.751 0 0 1 0 3.356v-.001a.756.756 0 0 1 .565-.726.753.753 0 0 1 .705.185l1.094-1.095a.754.754 0 0 1 1.06 0 .75.75 0 0 1 .22.53ZM5 3.25a.75.75 0 0 1 .75-.75h8.5a.75.75 0 0 1 0 1.5h-8.5A.75.75 0 0 1 5 3.25Zm0 5a.75.75 0 0 1 .75-.75h8.5a.75.75 0 0 1 0 1.5h-8.5A.75.75 0 0 1 5 8.25Zm0 5a.75.75 0 0 1 .75-.75h8.5a.75.75 0 0 1 0 1.5h-8.5a.75.75 0 0 1-.75-.75Zm-1.356-1.001c0 .199-.079.39-.22.53l-1.625 1.625a.747.747 0 0 1-1.06 0l-.5-.5A.751.751 0 0 1 0 13.356v-.001a.756.756 0 0 1 .565-.726.753.753 0 0 1 .705.185l1.094-1.095a.754.754 0 0 1 1.06 0 .75.75 0 0 1 .22.53Zm-.22-5.53a.75.75 0 0 1 0 1.06L1.799 9.404a.747.747 0 0 1-1.06 0l-.5-.5A.751.751 0 0 1 0 8.356v-.001a.756.756 0 0 1 .565-.726.753.753 0 0 1 .705.185l1.094-1.095a.754.754 0 0 1 1.06 0Z"/></svg>