<svg width="16" height="16" viewBox="0 0 16 16" fill="none" xmlns="http://www.w3.org/2000/svg">
<path d="M5.88927 3.36156C4.96419 3.36156 4.20848 2.60586 4.20848 1.68078C4.20848 0.755696 4.96419 0 5.88927 0C6.81435 0 7.57004 0.755696 7.57004 1.68078V3.36156H5.88927Z" fill="black"/>
<path d="M1.68079 11.7915C2.60587 11.7915 3.36158 11.0358 3.36158 10.1107V8.42997H1.68079C0.755711 8.42997 1.52588e-05 9.18567 1.52588e-05 10.1107C1.52588e-05 11.0358 0.755711 11.7915 1.68079 11.7915Z" fill="black"/>
<path d="M5.88927 8.42997C4.96419 8.42997 4.20848 9.18567 4.20848 10.1107V14.3192C4.20848 15.2443 4.96419 16 5.88927 16C6.81435 16 7.57004 15.2443 7.57004 14.3192V10.1107C7.57004 9.18567 6.81435 8.42997 5.88927 8.42997Z" fill="black"/>
<path d="M7.57005 5.88925C7.57005 4.96417 6.81435 4.20847 5.88927 4.20847H1.68079C0.755711 4.20847 1.52588e-05 4.96417 1.52588e-05 5.88925C1.52588e-05 6.81434 0.755711 7.57003 1.68079 7.57003H5.88927C6.81435 7.57003 7.57005 6.81434 7.57005 5.88925Z" fill="black"/>
<path d="M12.6384 5.88925C12.6384 4.96417 13.3941 4.20847 14.3192 4.20847C15.2443 4.20847 16 4.96417 16 5.88925C16 6.81434 15.2443 7.57003 14.3192 7.57003H12.6384V5.88925Z" fill="black"/>
<path d="M10.1108 7.57003C11.0358 7.57003 11.7915 6.81433 11.7915 5.88925V1.68078C11.7915 0.755696 11.0358 0 10.1108 0C9.18568 0 8.42998 0.755696 8.42998 1.68078V5.88925C8.42998 6.81433 9.18568 7.57003 10.1108 7.57003Z" fill="black"/>
<path d="M10.1108 12.6384C11.0358 12.6384 11.7915 13.3941 11.7915 14.3192C11.7915 15.2443 11.0358 16 10.1108 16C9.18568 16 8.42998 15.2443 8.42998 14.3192V12.6384H10.1108Z" fill="black"/>
<path d="M8.42998 10.1107C8.42998 11.0358 9.18568 11.7915 10.1108 11.7915H14.3192C15.2443 11.7915 16 11.0358 16 10.1107C16 9.18567 15.2443 8.42997 14.3192 8.42997H10.1108C9.18568 8.42997 8.42998 9.18567 8.42998 10.1107Z" fill="black"/>
</svg>
