<svg xmlns="http://www.w3.org/2000/svg" width="24" height="24" viewBox="0 0 24 24"><path d="M13.004 5.976c0 .314-.251.565-.533.565-.283 0-.534-.251-.534-.565V4.565c0-.314.251-.565.534-.565.282 0 .533.251.533.565v1.411Zm-3.357.314c.157.251.063.596-.188.753a.6.6 0 0 1-.753-.219L8.016 5.6c-.157-.282-.094-.596.188-.753.251-.157.565-.063.721.22l.722 1.223ZM7.263 8.11a.582.582 0 0 1 .251.753.59.59 0 0 1-.785.188l-1.192-.69c-.282-.157-.376-.502-.219-.753.125-.251.47-.345.753-.188l1.192.69Zm-1.287 2.886c.314 0 .565.251.565.533 0 .283-.251.534-.565.534H4.565c-.314 0-.565-.22-.565-.534 0-.282.251-.533.565-.533h1.411Zm.314 3.169c.251-.157.596-.094.753.157a.601.601 0 0 1-.219.753l-1.224.69c-.282.157-.596.094-.753-.157-.157-.283-.031-.596.22-.753l1.223-.69Zm1.82 2.572a.582.582 0 0 1 .753-.251.59.59 0 0 1 .188.785l-.69 1.192c-.157.282-.502.376-.753.219-.251-.125-.345-.47-.188-.753l.69-1.192Zm2.886 1.286c0-.313.251-.564.533-.564.283 0 .534.251.534.564v1.412c0 .314-.251.565-.534.565-.282 0-.533-.251-.533-.565v-1.412Zm3.169-.313c-.157-.251-.094-.596.157-.753a.6.6 0 0 1 .753.22l.69 1.223c.157.282.094.596-.157.753a.534.534 0 0 1-.753-.22l-.69-1.223Zm2.572-1.82a.582.582 0 0 1-.251-.753.59.59 0 0 1 .785-.188l1.192.722a.5.5 0 0 1 .219.721c-.125.251-.47.345-.753.188l-1.192-.69Zm1.286-2.886c-.313 0-.564-.251-.564-.533 0-.314.251-.534.564-.534h1.412c.314 0 .565.22.565.534 0 .282-.251.533-.565.533h-1.412Zm-.313-3.169c-.251.157-.596.094-.753-.157a.6.6 0 0 1 .22-.753l1.223-.69c.282-.157.596-.094.753.157a.534.534 0 0 1-.22.753l-1.223.69Zm-1.82-2.572a.582.582 0 0 1-.753.251.59.59 0 0 1-.188-.785l.69-1.192c.157-.282.502-.376.753-.219.251.125.345.47.188.753l-.69 1.192Z"/></svg>