<svg width="16" height="16" viewBox="0 0 16 16" fill="none" xmlns="http://www.w3.org/2000/svg">
<path fill-rule="evenodd" clip-rule="evenodd" d="M7.77518 3.27518C7.6427 3.41735 7.57057 3.6054 7.574 3.7997C7.57743 3.994 7.65614 4.17938 7.79355 4.3168C7.93097 4.45421 8.11635 4.53292 8.31065 4.53635C8.50495 4.53978 8.693 4.46766 8.83518 4.33518L10.0852 3.08518C10.271 2.89936 10.4916 2.75195 10.7344 2.65139C10.9772 2.55082 11.2374 2.49906 11.5002 2.49906C11.763 2.49906 12.0232 2.55082 12.266 2.65139C12.5088 2.75195 12.7294 2.89936 12.9152 3.08518C13.101 3.271 13.2484 3.4916 13.349 3.73438C13.4495 3.97717 13.5013 4.23739 13.5013 4.50018C13.5013 4.76297 13.4495 5.02318 13.349 5.26597C13.2484 5.50875 13.101 5.72935 12.9152 5.91518L10.4152 8.41518C10.2294 8.60113 10.0089 8.74865 9.76606 8.84929C9.52326 8.94994 9.26301 9.00175 9.00018 9.00175C8.73734 9.00175 8.47709 8.94994 8.23429 8.84929C7.9915 8.74865 7.77092 8.60113 7.58518 8.41518C7.443 8.2827 7.25495 8.21057 7.06065 8.214C6.86635 8.21743 6.68097 8.29614 6.54355 8.43355C6.40614 8.57097 6.32743 8.75635 6.324 8.95065C6.32057 9.14495 6.3927 9.333 6.52518 9.47518C6.85019 9.80022 7.23604 10.0581 7.6607 10.234C8.08536 10.4099 8.54052 10.5004 9.00018 10.5004C9.45983 10.5004 9.91499 10.4099 10.3397 10.234C10.7643 10.0581 11.1502 9.80022 11.4752 9.47518L13.9752 6.97518C14.6316 6.31876 15.0004 5.42848 15.0004 4.50018C15.0004 3.57187 14.6316 2.68159 13.9752 2.02518C13.3188 1.36876 12.4285 1 11.5002 1C10.5719 1 9.68159 1.36876 9.02517 2.02518L7.77518 3.27518ZM3.08518 12.9152C2.89922 12.7294 2.7517 12.5089 2.65106 12.2661C2.55041 12.0233 2.4986 11.763 2.4986 11.5002C2.4986 11.2374 2.55041 10.9771 2.65106 10.7343C2.7517 10.4915 2.89922 10.2709 3.08518 10.0852L5.58518 7.58518C5.77092 7.39922 5.9915 7.2517 6.23429 7.15106C6.47709 7.05041 6.73734 6.9986 7.00018 6.9986C7.26301 6.9986 7.52326 7.05041 7.76606 7.15106C8.00885 7.2517 8.22943 7.39922 8.41518 7.58518C8.55735 7.71766 8.7454 7.78978 8.9397 7.78635C9.134 7.78292 9.31938 7.70421 9.4568 7.5668C9.59421 7.42938 9.67292 7.244 9.67635 7.0497C9.67978 6.8554 9.60766 6.66735 9.47518 6.52518C9.15017 6.20013 8.76431 5.94229 8.33965 5.76638C7.91499 5.59047 7.45983 5.49992 7.00018 5.49992C6.54052 5.49992 6.08536 5.59047 5.6607 5.76638C5.23604 5.94229 4.85019 6.20013 4.52518 6.52518L2.02518 9.02517C1.36876 9.68159 1 10.5719 1 11.5002C1 12.4285 1.36876 13.3188 2.02518 13.9752C2.68159 14.6316 3.57187 15.0004 4.50018 15.0004C5.42848 15.0004 6.31876 14.6316 6.97518 13.9752L8.22518 12.7252C8.35766 12.583 8.42978 12.395 8.42635 12.2007C8.42292 12.0064 8.34421 11.821 8.2068 11.6836C8.06938 11.5462 7.884 11.4674 7.6897 11.464C7.4954 11.4606 7.30735 11.5327 7.16518 11.6652L5.91518 12.9152C5.72943 13.1011 5.50885 13.2487 5.26606 13.3493C5.02326 13.45 4.76301 13.5018 4.50018 13.5018C4.23734 13.5018 3.97709 13.45 3.73429 13.3493C3.4915 13.2487 3.27092 13.1011 3.08518 12.9152Z" fill="#24292F"/>
<path d="M12.7502 10.0002C13.1644 10.0002 13.5002 10.336 13.5002 10.7502V12.0002H14.7502C15.1644 12.0002 15.5002 12.336 15.5002 12.7502C15.5002 13.1644 15.1644 13.5002 14.7502 13.5002H13.5002V14.7502C13.5002 15.1644 13.1644 15.5002 12.7502 15.5002C12.336 15.5002 12.0002 15.1644 12.0002 14.7502V13.5002H10.7502C10.336 13.5002 10.0002 13.1644 10.0002 12.7502C10.0002 12.336 10.336 12.0002 10.7502 12.0002H12.0002V10.7502C12.0002 10.336 12.336 10.0002 12.7502 10.0002Z" fill="#1F2328"/>
</svg>
