<svg xmlns="http://www.w3.org/2000/svg" width="16" height="16" viewBox="0 0 16 16"><path d="M8 3a3.5 3.5 0 0 1 3.5 3.5c0 .03-.003.059-.008.087a.494.494 0 0 1 .008.087c0 .236-.059.587-.253.895-.21.333-.575.605-1.117.605-.449 0-.778-.188-.997-.442a1.675 1.675 0 1 1-.305-2.687.455.455 0 0 1 .846.238v1.391a.84.84 0 0 0 .112.409c.064.102.155.178.344.178.19 0 .28-.076.345-.178a.84.84 0 0 0 .112-.409c0-.03.003-.059.008-.087a.494.494 0 0 1-.008-.087 2.587 2.587 0 1 0-1.035 2.07.456.456 0 1 1 .549.73A3.5 3.5 0 1 1 8 3Zm0 2.739a.761.761 0 1 0 0 1.523.761.761 0 0 0 0-1.523Z"/><path d="M1.75 0h12.5C15.217 0 16 .784 16 1.75v9.5A1.75 1.75 0 0 1 14.25 13H8.061l-2.574 2.573A1.457 1.457 0 0 1 3 14.543V13H1.75A1.75 1.75 0 0 1 0 11.25v-9.5C0 .784.784 0 1.75 0ZM1.5 1.75v9.5c0 .138.112.25.25.25h2a.75.75 0 0 1 .75.75v2.189l2.72-2.719a.747.747 0 0 1 .53-.22h6.5a.25.25 0 0 0 .25-.25v-9.5a.25.25 0 0 0-.25-.25H1.75a.25.25 0 0 0-.25.25Z"/></svg>