<svg xmlns="http://www.w3.org/2000/svg" width="24" height="24" viewBox="0 0 24 24"><path d="M13.645 4.68a4.126 4.126 0 0 1 5.158.502A4.007 4.007 0 0 1 20 8.034a4 4 0 0 1-.732 2.303A2.28 2.28 0 0 1 20 12v3.765a4.11 4.11 0 0 1-1.318 2.994A4.645 4.645 0 0 1 15.5 20h-7c-.514-.056-.887-.139-1.118-.248a2.464 2.464 0 0 1-.882-.693h9c.928 0 1.818-.347 2.475-.965A3.201 3.201 0 0 0 19 15.765v-5.087a4.075 4.075 0 0 1-1.522 1.082 4.132 4.132 0 0 1-2.36.23 4.107 4.107 0 0 1-2.092-1.104 4.024 4.024 0 0 1-1.118-2.065 3.986 3.986 0 0 1 .233-2.331 4.04 4.04 0 0 1 1.504-1.81Zm.227 3.524 1.459 1.44 2.628-2.594-.466-.457-2.162 2.135-.995-.982Z"/><path d="M17.617 15.934c0 .558-.216 1.095-.604 1.5a2.22 2.22 0 0 1-1.483.681l-.077.001-.049.001H6.213a2.228 2.228 0 0 1-1.52-.596 2.178 2.178 0 0 1-.69-1.464l-.001-.051L4 15.933v-5.141c0-.495.245-.957.652-1.239l.058-.036.039-.024 1.611-.946 4.188-2.459a.508.508 0 0 1 .45-.035l.039.019.032.016.041.023.067.039c-.131.32-.229.655-.291 1.003l-.006-.003a2.018 2.018 0 0 1-.071-.042l-5.51 3.234 5.51 2.837 2.089-1.077c.327.237.683.435 1.062.591l-2.915 1.502a.513.513 0 0 1-.397.032l-.015-.007a1.772 1.772 0 0 1-.061-.025l-5.551-2.861v4.599c0 .295.113.579.315.797.203.217.481.351.779.375l.047.002.051.002h9.191c.3 0 .588-.111.808-.311a1.174 1.174 0 0 0 .384-.865v-2.902a5.083 5.083 0 0 0 1.021-.242v3.145Z"/></svg>