<svg xmlns="http://www.w3.org/2000/svg" width="24" height="24" viewBox="0 0 24 24"><path d="M4 18V6h3.125v1.2H5.562v9.6h1.563V18H4Zm3.812-3.032c0-.315.094-.568.25-.726.188-.189.407-.284.75-.284.313 0 .563.095.719.284.188.19.25.442.25.726 0 .348-.062.6-.25.758-.156.19-.406.285-.719.285-.343 0-.562-.095-.75-.253-.156-.19-.25-.442-.25-.79Zm3.219 0c0-.315.063-.568.25-.726.157-.189.407-.284.719-.284s.562.095.75.284c.156.19.25.442.25.726 0 .348-.094.6-.25.758-.188.19-.438.285-.75.285s-.562-.095-.719-.253c-.187-.19-.25-.442-.25-.79Zm3.188 0c0-.315.093-.568.25-.726.187-.189.406-.284.719-.284.343 0 .593.095.75.284.187.19.25.442.25.726 0 .348-.094.6-.25.758-.157.19-.407.285-.75.285-.313 0-.532-.095-.719-.253-.157-.19-.25-.442-.25-.79Zm2.656 1.832h1.563V7.2h-1.563V6H20v12h-3.125v-1.2Z"/></svg>