<svg xmlns="http://www.w3.org/2000/svg" width="16" height="16" viewBox="0 0 16 16"><path d="M3.916 8.694a.652.652 0 0 0-.943 0 .704.704 0 0 0 0 .973l.862.89H2.556a.226.226 0 0 1-.223-.229V4.607c0-.127.1-.23.223-.23h2.777A.677.677 0 0 0 6 3.689.678.678 0 0 0 5.333 3H2.556C1.696 3 1 3.719 1 4.607v5.721c0 .887.696 1.606 1.556 1.606h1.279l-.862.891a.704.704 0 0 0 0 .973c.26.269.682.269.943 0l2-2.065a.706.706 0 0 0 0-.974l-2-2.065Zm4.64 5.388c-.86 0-1.556-.719-1.556-1.607v-2.459c0-.887.696-1.606 1.556-1.606h4.888c.86 0 1.556.719 1.556 1.606v2.459c0 .888-.696 1.607-1.556 1.607Zm-.223-1.607c0 .127.1.23.223.23h4.888a.227.227 0 0 0 .223-.23v-2.459c0-.126-.1-.229-.223-.229H8.556a.226.226 0 0 0-.223.229ZM7.111 5.066V2.607C7.111 1.719 7.808 1 8.667 1h4.777C14.304 1 15 1.719 15 2.607v2.459c0 .887-.696 1.606-1.556 1.606H8.667c-.859 0-1.556-.719-1.556-1.606Zm1.556.229h4.777a.226.226 0 0 0 .223-.229V2.607c0-.127-.1-.23-.223-.23H8.667a.227.227 0 0 0-.223.23v2.459c0 .126.1.229.223.229Z"/></svg>