<svg xmlns="http://www.w3.org/2000/svg" width="16" height="16" viewBox="0 0 16 16"><path d="M0 2.75C0 1.783.784 1 1.75 1h12.5c.967 0 1.75.783 1.75 1.75v5.5a.75.75 0 0 1-1.5 0V4.809L8.379 8.397a.75.75 0 0 1-.758 0L1.5 4.809v6.441c0 .138.112.25.25.25h5.5a.75.75 0 0 1 0 1.5h-5.5A1.75 1.75 0 0 1 0 11.25Zm14.5.32v-.32a.25.25 0 0 0-.25-.25H1.75a.25.25 0 0 0-.25.25v.32L8 6.881Z"/><path d="M15.931 11.831a.24.24 0 0 1 .051.26.24.24 0 0 1-.051.078L13.19 14.93a.238.238 0 0 1-.365-.036.233.233 0 0 1-.039-.133v-2.046H9.71a.708.708 0 0 1-.502-.209.718.718 0 0 1 0-1.012.708.708 0 0 1 .502-.209h3.076V9.239a.233.233 0 0 1 .146-.221.238.238 0 0 1 .258.052Z"/></svg>