<svg xmlns="http://www.w3.org/2000/svg" width="24" height="24" viewBox="0 0 24 24"><path d="M12.141 7.469a4.024 4.024 0 0 1 1.504-1.795 4.153 4.153 0 0 1 5.158.498A3.954 3.954 0 0 1 20 9c0 .791-.24 1.564-.688 2.222a4.06 4.06 0 0 1-1.834 1.473 4.166 4.166 0 0 1-2.36.228 4.108 4.108 0 0 1-2.092-1.095 3.978 3.978 0 0 1-1.118-2.048 3.93 3.93 0 0 1 .233-2.311Zm2.195 1.245-.464.455 1.459 1.428 2.628-2.573-.466-.453-2.162 2.118Z"/><path d="M17.012 18.322a2.14 2.14 0 0 0 .605-1.488v-3.119a5.15 5.15 0 0 1-1.021.241v2.878l-.005.094c-.024.293-.16.565-.379.763-.22.199-.509.309-.808.309H6.213a1.665 1.665 0 0 0-.079-.003l-.019-.001a1.201 1.201 0 0 1-.779-.373 1.154 1.154 0 0 1-.315-.789v-4.561l5.551 2.837.076.031a.532.532 0 0 0 .397-.031l1.456-.744 1.459-.746a5.12 5.12 0 0 1-1.062-.585l-1.037.53-1.053.538-5.509-2.814 5.509-3.207.073.042.005.003a4.85 4.85 0 0 1 .291-.995l-.021-.011a4.231 4.231 0 0 0-.087-.051l-.071-.034a.54.54 0 0 0-.229-.035.535.535 0 0 0-.221.069l-5.799 3.377-.07.044-.027.016c-.407.28-.652.737-.652 1.228v5.099l.003.097v.025c.032.552.279 1.072.69 1.452.411.38.954.592 1.52.592h9.191l.126-.003a2.23 2.23 0 0 0 1.482-.675Z"/></svg>