<svg xmlns="http://www.w3.org/2000/svg" width="24" height="24" viewBox="0 0 24 24"><path d="M14.276 13.752H4.813V7.085c0-.186.228-.403.423-.403h12.162c.228 0 .423.217.423.403v1.892h.846V7.085c0-.589-.521-1.085-1.138-1.085H5.138C4.52 6 4 6.496 4 7.085v7.442c0 .589.52 1.085 1.138 1.085h9.138v-1.86Zm-1.138 2.481H9.496c-.293 0-.52.186-.52.496 0 .279.227.496.52.496h3.642c.325 0 .521-.217.521-.496 0-.31-.293-.496-.521-.496Zm6.667-6.171c-.098-.093-.195-.093-.325-.186h-3.643c-.195 0-.292.093-.52.186a.781.781 0 0 0-.195.496v6.76c0 .403.325.682.715.682h3.448c.422 0 .715-.279.715-.682v-6.76a.781.781 0 0 0-.195-.496Zm-.325 6.667h-3.74v-5.954h3.74v5.954Zm-2.472-6.45.098-.124h.813c.13 0 .13 0 .13.124 0 .093-.13.093-.13.093h-.716c-.097 0-.195 0-.195-.093Zm.618 7.442c-.097 0-.228 0-.228-.124-.097-.093-.097-.186-.097-.279 0-.217.228-.403.423-.403.195 0 .422.186.422.403 0 .093-.097.186-.097.279-.228 0-.325.124-.423.124Zm.423-7.349c.097 0 .097 0 .097-.093 0-.124-.097-.124-.097-.124h-.846c-.097 0-.097 0-.097.124 0 .093.097.093.097.093"/></svg>