<svg width="16" height="16" viewBox="0 0 16 16" fill="none" xmlns="http://www.w3.org/2000/svg">
<g clip-path="url(#clip0_35_1844)">
<path fill-rule="evenodd" clip-rule="evenodd" d="M8 3C6.06696 3 4.5 4.56696 4.5 6.5C4.5 8.43304 6.06696 10 8 10C8.78761 10 9.51569 9.73942 10.1007 9.29971C10.3022 9.14822 10.3428 8.86203 10.1913 8.66049C10.0398 8.45894 9.75364 8.41836 9.55209 8.56985C9.11996 8.89466 8.58317 9.08696 8 9.08696C6.57122 9.08696 5.41304 7.92878 5.41304 6.5C5.41304 5.07122 6.57122 3.91304 8 3.91304C9.42878 3.91304 10.587 5.07122 10.587 6.5C10.587 6.52973 10.5898 6.55881 10.5952 6.58696C10.5898 6.61511 10.587 6.64418 10.587 6.67391C10.587 6.78601 10.5542 6.95636 10.4746 7.08274C10.4104 7.18459 10.3196 7.26087 10.1304 7.26087C9.94128 7.26087 9.85042 7.18459 9.78626 7.08274C9.70664 6.95636 9.67391 6.78601 9.67391 6.67391V5.28261C9.67391 5.03048 9.46952 4.82609 9.21739 4.82609C9.05243 4.82609 8.9079 4.91358 8.82768 5.0447C8.58358 4.90557 8.30107 4.82609 8 4.82609C7.07552 4.82609 6.32609 5.57552 6.32609 6.5C6.32609 7.42448 7.07552 8.17391 8 8.17391C8.43721 8.17391 8.83527 8.0063 9.13342 7.73182C9.35198 7.98633 9.68055 8.17391 10.1304 8.17391C10.6717 8.17391 11.0374 7.90237 11.2471 7.56943C11.4414 7.26103 11.5 6.90964 11.5 6.67391C11.5 6.64418 11.4972 6.61511 11.4917 6.58696C11.4972 6.55881 11.5 6.52973 11.5 6.5C11.5 4.56696 9.93304 3 8 3ZM8 5.73913C8.42022 5.73913 8.76087 6.07978 8.76087 6.5C8.76087 6.92022 8.42022 7.26087 8 7.26087C7.57978 7.26087 7.23913 6.92022 7.23913 6.5C7.23913 6.07978 7.57978 5.73913 8 5.73913Z" fill="#1F2328"/>
<path fill-rule="evenodd" clip-rule="evenodd" d="M1.75 0C0.783501 0 0 0.783502 0 1.75V11.25C0 12.2165 0.783502 13 1.75 13H3V14.5429C3 15.3476 3.65237 16 4.45711 16C4.84355 16 5.21418 15.8465 5.48744 15.5732L8.06066 13H14.25C15.2165 13 16 12.2165 16 11.25V1.75C16 0.783502 15.2165 0 14.25 0H1.75ZM1.5 1.75C1.5 1.61193 1.61193 1.5 1.75 1.5H14.25C14.3881 1.5 14.5 1.61193 14.5 1.75V11.25C14.5 11.3881 14.3881 11.5 14.25 11.5H7.75C7.55109 11.5 7.36032 11.579 7.21967 11.7197L4.5 14.4393V12.25C4.5 11.8358 4.16421 11.5 3.75 11.5H1.75C1.61193 11.5 1.5 11.3881 1.5 11.25V1.75Z" fill="#1F2328"/>
</g>
<defs>
<clipPath id="clip0_35_1844">
<rect width="16" height="16" fill="white"/>
</clipPath>
</defs>
</svg>
