<svg xmlns="http://www.w3.org/2000/svg" width="24" height="24" viewBox="0 0 24 24"><path d="M8.713 19.224c-.096 0-.096-.132-.192-.132-.321.231-.834.33-1.218.33-1.443 0-2.694-1.255-2.694-2.741 0-.528.128-1.057.417-1.486l-.096-.099c0-.099 0-.099-.096-.231 0-.099 0-.099-.097-.198-.416.528-.737 1.255-.737 2.014 0 1.783 1.443 3.27 3.174 3.27.738 0 1.347-.199 1.86-.628-.096 0-.192-.099-.321-.099Zm10.389-3.699c-.128.099 0 0 0 0 .096.397.193.826.193 1.156 0 1.486-1.219 2.741-2.662 2.741-.417 0-.833-.099-1.122-.33-.128.132-.321.132-.417.231-.096 0-.096 0-.224.099.513.33 1.026.529 1.763.529 1.732 0 3.175-1.487 3.175-3.27 0-.627-.193-1.156-.513-1.684-.097.198-.193.396-.193.528ZM4.93 8.954c.096-.1.096-.1.096-.199-.096-.429-.192-.759-.192-1.155 0-1.486 1.218-2.774 2.661-2.774.321 0 .705.132 1.026.231.096 0 .192-.099.192-.099.129 0 .225-.132.321-.132a2.414 2.414 0 0 0-1.539-.529c-1.731 0-3.174 1.486-3.174 3.303 0 .627.192 1.254.513 1.783 0-.099 0-.099.096-.198v-.231Zm10.581-4.128c.096 0 .192.132.192.132.321-.132.61-.231 1.027-.231 1.442 0 2.661 1.287 2.661 2.74 0 .43-.096.859-.289 1.189.096.198.096.198.193.298 0 .099 0 .099.096.231 0 .099 0 .099.096.198A3.482 3.482 0 0 0 20 7.6c0-1.817-1.411-3.303-3.174-3.303-.61 0-1.123.231-1.539.43 0 0 .096.099.224.099Zm4.2 8.685c.097-.429.097-.958.097-1.486 0-.529-.097-1.057-.097-1.486a7.7 7.7 0 0 1 0 2.972Zm-.224.825c-.096.232-.096.331-.192.529.096-.198.192-.396.192-.529ZM14.261 4.297c-.706-.099-1.443-.198-2.149-.198-.705 0-1.443.099-2.148.33C11.407 4 12.818 4 14.261 4.297Zm5.354 5.614c.096.198.096.43.096.628 0-.198-.096-.43-.096-.628Zm-8.946 9.94c.417.1.93.1 1.443.1s1.026-.1 1.443-.1a7.085 7.085 0 0 1-2.886 0ZM4.609 9.812c-.096.727-.192 1.486-.192 2.213 0 .726.096 1.486.32 2.212-.416-1.486-.416-2.939-.128-4.425Zm9.748-5.383c.224.099.417.099.513.198-.193-.099-.385-.198-.513-.198Zm-.193 15.323c-.192.099-.416.099-.609.099.193 0 .417-.099.609-.099ZM9.355 4.627c.192-.099.288-.099.513-.198-.129 0-.321.099-.513.198Zm5.515 14.795c-.193.099-.289.099-.513.198.128 0 .32-.099.513-.198Zm-5.002.198c-.225-.099-.321-.099-.513-.198.192.099.384.198.513.198Zm-5.131-5.284c0 .133.097.232.097.331s0 .099.096.198c-.096-.198-.193-.396-.193-.529Zm3.976 4.888c.129.099.225.099.417.198h.096c-.192-.099-.384-.099-.513-.198Zm10.582-4.128c-.097.099-.097.297-.193.429 0-.132.096-.33.193-.429ZM4.93 9.185c0 .099 0 .099-.096.198 0 .099-.097.198-.097.33 0-.132.097-.33.193-.528Zm4.2-4.558-.096.1c-.096 0-.192.099-.321.099.129 0 .321-.099.417-.199Zm6.381.199c-.128 0-.224-.099-.321-.099-.096 0-.096 0-.192-.1.192.1.385.199.513.199Zm3.976 4.887c0-.132-.096-.231-.096-.33s0-.099-.096-.198c.096.198.192.396.192.528Zm0 4.623v-.099c.128-.198.128-.429.128-.627.193-.958.193-2.015 0-3.071 0-.198-.128-.43-.128-.628v-.099c-.096-.231-.096-.33-.192-.528 0-.099 0-.099-.097-.231a11.498 11.498 0 0 0-1.635-2.642c-.513-.529-1.154-1.057-1.86-1.354-.096 0-.192-.099-.192-.099-.128-.132-.321-.231-.417-.331-.096 0-.096 0-.224-.099-.193-.099-.385-.099-.513-.231h-.096c-1.443-.396-2.854-.396-4.201 0h-.096c-.225.132-.417.231-.609.33H9.13c-.096.1-.288.199-.417.199-.096 0-.192.132-.192.132-.705.396-1.347.825-1.86 1.453-.801.759-1.314 1.585-1.731 2.543v.231c-.096.198-.193.396-.193.528v.099c-.416 1.486-.416 2.939 0 4.326v.099c.097.232.097.43.193.529 0 .099 0 .099.096.231.417.925.93 1.783 1.635 2.642a8.91 8.91 0 0 0 1.956 1.453c.096 0 .096.132.225.132 0 .099.192.099.288.198.096 0 .096 0 .225.099.192.099.288.099.513.231h.096c.192.099.417.099.609.099.93.198 1.956.198 2.982 0 .193 0 .417-.099.609-.099h.097c.224-.132.32-.132.513-.231.096 0 .096 0 .224-.099a11.098 11.098 0 0 0 2.565-1.684c.609-.628 1.026-1.288 1.411-2.015v-.099c.128-.099.128-.33.224-.429 0-.099 0-.099.097-.198.096-.33.192-.528.192-.661Zm-2.565 2.642c-.609.661-1.411 1.189-2.245 1.586l-.705-1.784c1.218-.528 2.148-1.486 2.661-2.741l1.732.727c-.289.759-.802 1.486-1.443 2.212Zm-.289-6.869c-.224-.627-.609-1.155-1.026-1.684-.513-.528-1.026-.825-1.635-1.057l.705-1.783a5.056 5.056 0 0 1 2.245 1.585c.641.628 1.154 1.486 1.539 2.312l-1.828.627ZM9.547 5.585l.705 1.783c-1.122.529-2.148 1.586-2.661 2.741L5.86 9.383c.609-1.684 2.052-3.17 3.687-3.798ZM7.591 13.94c.225.628.609 1.156 1.026 1.684.513.529 1.026.826 1.635 1.057l-.705 1.783a5.046 5.046 0 0 1-2.244-1.585c-.642-.627-1.155-1.486-1.539-2.311l1.827-.628Zm1.764.925c-1.539-1.585-1.539-4.095 0-5.581 1.539-1.585 3.976-1.585 5.419 0 1.539 1.585 1.539 4.128 0 5.581-1.443 1.486-3.88 1.486-5.419 0Z"/></svg>