<svg xmlns="http://www.w3.org/2000/svg" width="24" height="24" viewBox="0 0 24 24"><path d="m11.169 6.763 3.548 2.761-.015-2.126c.815.026 1.303.384 1.374 1.159.07.774.166 7.145.166 7.145-1.035.355-1.681.961-1.676 2.119.004 1.159 1.078 2.121 2.257 2.127 1.18.005 2.153-1.036 2.176-2.061.023-1.025-.45-1.797-1.547-2.155 0 0-.042-7.056-.276-8.085-.235-1.028-1.414-1.505-2.485-1.533L14.675 4l-3.506 2.763Zm-6.157-.045c.006 1.033.612 1.958 1.664 2.251l-.045 6.702c-1.032.363-1.638.937-1.631 2.211.007 1.274 1.293 2.126 2.311 2.118 1.017-.008 2.098-1 2.112-2.093.014-1.092-.439-1.838-1.557-2.209.014-2.244.012-4.488.024-6.732.794-.251 1.539-1.077 1.548-2.185.009-1.107-1.023-2.122-2.217-2.137-1.194-.015-2.214 1.041-2.209 2.074Zm2.298-.872c.529.016.926.478.925.976-.002.499-.352 1.024-.959 1.023A1.016 1.016 0 0 1 6.24 6.827c-.001-.55.54-.998 1.07-.981Zm.897 12.029c-.018.524-.493.933-.978.93-.486-.002-1.022-.388-1.022-.945.001-.558.415-1.053 1.019-1.055.603-.001 1 .546.981 1.07Zm9.647-.026a.989.989 0 0 1-1.02.989c-.55-.008-1.031-.48-1.022-1.031.01-.551.481-.966 1.052-.966.572 0 .997.426.99 1.008Z"/></svg>