<svg xmlns="http://www.w3.org/2000/svg" width="24" height="24" viewBox="0 0 24 24"><path d="M4 12a8 8 0 0 1 16 0v.01a3.275 3.275 0 0 1-.594 1.843c-.485.673-1.285 1.169-2.428 1.169-.874 0-1.548-.29-2.033-.727a3.733 3.733 0 1 1-.936-5.443.888.888 0 0 1 1.724.304V12c0 .213.072.553.26.814.155.216.421.43.985.43.563 0 .83-.214.985-.43.188-.261.259-.601.259-.814v-.007a6.222 6.222 0 1 0-2.489 4.985.889.889 0 0 1 1.069 1.421A8 8 0 0 1 4 12Zm8-1.956a1.956 1.956 0 1 0 0 3.913 1.956 1.956 0 0 0 0-3.913Z"/></svg>