<svg xmlns="http://www.w3.org/2000/svg" width="24" height="24" viewBox="0 0 24 24"><path d="M13.977 5.99a2.884 2.884 0 0 0 0 4.066 2.85 2.85 0 0 0 2.021.842c.336 0 .644-.059.949-.17a.568.568 0 0 1 .747.339.593.593 0 0 1-.024.447.567.567 0 0 1-.335.294 3.862 3.862 0 0 1-1.337.239 3.977 3.977 0 0 1-2.222-.679 4.038 4.038 0 0 1-.605-6.19 3.984 3.984 0 0 1 6.154.609c.44.662.675 1.44.675 2.235 0 .334-.095.66-.275.939a1.714 1.714 0 0 1-1.705.766 1.703 1.703 0 0 1-.879-.42 1.709 1.709 0 0 1-2.839-1.04 1.735 1.735 0 0 1 .681-1.634 1.712 1.712 0 0 1 1.753-.167.564.564 0 0 1 .882.085.571.571 0 0 1 .094.321v1.149a.576.576 0 0 0 .79.535.571.571 0 0 0 .355-.53v-.002a2.866 2.866 0 0 0-.837-2.034 2.84 2.84 0 0 0-2.022-.842 2.85 2.85 0 0 0-2.021.842Zm1.617 2.44a.57.57 0 0 0 .808 0 .578.578 0 0 0 0-.813.567.567 0 0 0-.808 0 .578.578 0 0 0 0 .813Z"/><path d="M11.722 5.15H6.857c-.758 0-1.485.303-2.02.842A2.882 2.882 0 0 0 4 8.024v5.746c0 .761.301 1.492.837 2.031a2.851 2.851 0 0 0 2.02.841h.571v2.233a1.125 1.125 0 0 0 1.283 1.113c.213-.032.412-.124.574-.266l3.5-3.08h4.356c.758 0 1.484-.303 2.02-.842a2.88 2.88 0 0 0 .837-2.031v-2.494a5.125 5.125 0 0 1-7.052.921 5.18 5.18 0 0 1-2.018-3.276 5.2 5.2 0 0 1 .794-3.77Z"/></svg>