<svg xmlns="http://www.w3.org/2000/svg" width="16" height="16" viewBox="0 0 16 16"><path d="M9.698 8.001a1.68 1.68 0 0 0-1.689-1.688A1.68 1.68 0 0 0 6.32 8.001c0 .939.75 1.689 1.689 1.689.939 0 1.689-.75 1.689-1.689Zm-5.188 0a.726.726 0 0 0-.734-.733.725.725 0 0 0-.733.733c0 .412.322.734.733.734a.726.726 0 0 0 .734-.734Zm8.447 0a.725.725 0 0 0-.734-.733.725.725 0 0 0-.733.733c0 .412.322.734.733.734a.726.726 0 0 0 .734-.734Z"/><path d="M8 0a8 8 0 1 1 0 16A8 8 0 0 1 8 0ZM5.384 7.256a1.783 1.783 0 0 0-1.608-1.031C2.801 6.225 2 7.027 2 8.001c0 .975.801 1.777 1.776 1.777.709 0 1.324-.425 1.608-1.031a2.741 2.741 0 0 0 2.625 1.986 2.742 2.742 0 0 0 2.619-1.961 1.782 1.782 0 0 0 1.596 1.006c.974 0 1.776-.802 1.776-1.777 0-.974-.802-1.776-1.776-1.776-.699 0-1.307.413-1.596 1.005a2.742 2.742 0 0 0-2.619-1.96 2.74 2.74 0 0 0-2.625 1.986Z"/></svg>