<svg xmlns="http://www.w3.org/2000/svg" width="24" height="24" viewBox="0 0 24 24"><path d="M12.014 7.9c-1.866 0-3.447 1.265-3.938 2.979a2.675 2.675 0 0 0-2.412-1.546A2.676 2.676 0 0 0 3 11.997a2.677 2.677 0 0 0 2.664 2.665 2.676 2.676 0 0 0 2.412-1.547c.491 1.714 2.072 2.979 3.938 2.979 1.852 0 3.425-1.246 3.928-2.94a2.673 2.673 0 0 0 2.393 1.508A2.678 2.678 0 0 0 21 11.997a2.677 2.677 0 0 0-2.665-2.664c-1.048 0-1.96.619-2.393 1.507-.503-1.694-2.076-2.94-3.928-2.94Zm0 1.564a2.52 2.52 0 0 1 2.533 2.533 2.521 2.521 0 0 1-2.533 2.533 2.52 2.52 0 0 1-2.533-2.533 2.52 2.52 0 0 1 2.533-2.533Zm-6.35 1.433c.617 0 1.101.483 1.101 1.1a1.09 1.09 0 0 1-1.101 1.101c-.617 0-1.1-.484-1.1-1.101s.483-1.1 1.1-1.1Zm12.671 0c.617 0 1.101.483 1.101 1.1a1.09 1.09 0 0 1-1.101 1.101c-.617 0-1.1-.484-1.1-1.101s.483-1.1 1.1-1.1Z"/></svg>