<svg xmlns="http://www.w3.org/2000/svg" width="24" height="24" viewBox="0 0 24 24"><path d="M18.442 5s-2.674 2.761-5.537 3.188c-.284.854-.472 1.774-.472 2.727 0 .953.188 1.874.472 2.761 2.863.394 5.537 3.188 5.537 3.188 2.077-3.254 2.077-8.643 0-11.864Zm-7.236 11.864c-.535-.559-.787-2.005-.756-3.254h.756V8.221H6.045C4.912 8.221 4 9.437 4 10.915c0 1.479.912 2.695 2.045 2.695h1.511c.283.69.566 1.578.566 2.169C8.122 16.864 9.16 19 10.199 19c1.007 0 2.045-1.084 1.007-2.136Zm-5.161-4.338c-.566 0-1.007-.592-1.007-1.348 0-.723.441-1.347 1.007-1.347v2.695Z"/></svg>