<svg xmlns="http://www.w3.org/2000/svg" width="24" height="24" viewBox="0 0 24 24"><path d="M18.817 5.182a.8.8 0 0 0-1.131 0L5.184 17.686a.802.802 0 0 0 .253 1.316.802.802 0 0 0 .878-.185L18.816 6.314a.8.8 0 0 0 0-1.132h.001ZM6.486 14.798l2.048-2.048a3.374 3.374 0 0 1-.09-.75c0-1.903 1.592-3.447 3.556-3.447.229 0 .451.025.668.065l.962-.961A10.119 10.119 0 0 0 12 7.521C6.752 7.52 4 11.385 4 12c0 .338.846 1.672 2.486 2.798Zm11.03-5.594-2.05 2.048a3.3 3.3 0 0 1 .089.748c0 1.903-1.591 3.446-3.555 3.446-.227 0-.448-.026-.663-.065l-.963.962c.513.083 1.052.136 1.626.136 5.248 0 8-3.866 8-4.479 0-.339-.845-1.672-2.484-2.796Z"/></svg>