<svg xmlns="http://www.w3.org/2000/svg" width="24" height="24" viewBox="0 0 24 24"><path d="M13.698 12.001a1.68 1.68 0 0 0-1.689-1.688 1.68 1.68 0 0 0-1.689 1.688c0 .939.75 1.689 1.689 1.689.939 0 1.689-.75 1.689-1.689Zm-5.188 0a.726.726 0 0 0-.734-.733.725.725 0 0 0-.733.733c0 .412.322.734.733.734a.726.726 0 0 0 .734-.734Zm8.447 0a.725.725 0 0 0-.733-.733.725.725 0 0 0-.734.733c0 .412.322.734.734.734a.725.725 0 0 0 .733-.734Z"/><path d="M12 4a8 8 0 1 1 0 16 8 8 0 0 1 0-16Zm-2.616 7.256a1.783 1.783 0 0 0-1.608-1.031c-.975 0-1.776.801-1.776 1.776s.801 1.777 1.776 1.777c.709 0 1.324-.425 1.608-1.031a2.741 2.741 0 0 0 2.625 1.986 2.742 2.742 0 0 0 2.619-1.96 1.782 1.782 0 0 0 1.595 1.005c.975 0 1.777-.802 1.777-1.777 0-.975-.802-1.776-1.777-1.776-.698 0-1.306.413-1.595 1.005a2.742 2.742 0 0 0-2.619-1.96 2.74 2.74 0 0 0-2.625 1.986Z"/></svg>