<svg xmlns="http://www.w3.org/2000/svg" width="24" height="24" viewBox="0 0 24 24"><path d="M18.094 10.406h-4.782V6c0-1.094-.906-2-2-2H6c-1.094 0-2 .906-2 2v5.281c0 1.125.906 2.031 2 2.031h4.406v4.782c0 1.031.875 1.906 1.938 1.906h5.75A1.914 1.914 0 0 0 20 18.094v-5.75c0-1.063-.844-1.938-1.906-1.938ZM4.5 6c0-.812.688-1.5 1.5-1.5h5.312c.813 0 1.5.688 1.5 1.5v4.406h-.468a1.947 1.947 0 0 0-1.938 1.938v.468H6c-.812 0-1.5-.687-1.5-1.531V6Zm13.188 9.75h-1.969v1.906h-1.157V15.75h-1.968v-1.156h1.968v-2.032h1.157v2.032h1.969v1.156ZM6.125 8.094h5.063v1.125H6.125V8.094Z"/></svg>