<svg xmlns="http://www.w3.org/2000/svg" width="24" height="24" viewBox="0 0 24 24"><path d="M8.599 5.607H20v2.159H8.599V5.607Zm0 5.398H20v2.159H8.599v-2.159Zm0 5.397H20v2.159H8.599v-2.159ZM4.065 5.81 4.972 5h.421v2.733h.55v.404H4.292v-.404h.582V5.911c0-.068.033-.135.033-.203l-.454.372s-.032 0-.032.033h-.065c-.032 0-.064 0-.064-.033-.033 0-.065 0-.065-.034l-.162-.236ZM4 13.535v-.304c.032-.033.032-.067.065-.101l.907-.945c.097-.067.162-.168.226-.236.033-.067.098-.134.13-.202.065-.067.065-.135.097-.236.032-.068.032-.135.032-.236 0-.068 0-.135-.032-.203 0-.033-.032-.101-.097-.135-.032-.033-.065-.067-.13-.067-.032-.034-.097-.034-.162-.034a.533.533 0 0 0-.323.101c-.065.068-.13.135-.162.237 0 .067-.033.101-.065.134-.033.034-.065.034-.13.034h-.064l-.26-.067c.033-.135.065-.27.13-.371.065-.135.13-.236.227-.304a.624.624 0 0 1 .291-.169c.13-.033.227-.067.356-.067.162 0 .292.034.389.067.13.068.227.102.292.203a.517.517 0 0 1 .194.27c.065.101.065.236.065.371 0 .101 0 .202-.033.303a1.186 1.186 0 0 1-.129.304c-.065.067-.13.169-.195.236-.064.101-.162.169-.226.27l-.68.708c.064 0 .129-.033.194-.033s.129-.034.194-.034h.745c.065 0 .097.034.13.067.032.034.064.068.064.135v.304H4Zm.065 4.655.227-.101c.032 0 .097-.034.129-.034s.065.034.097.034c.033 0 .033.034.065.068.032.067.032.101.065.168a.452.452 0 0 0 .129.102c.033.067.065.067.13.101a.403.403 0 0 0 .194.033c.097 0 .162 0 .227-.033.065-.034.129-.068.162-.135.065-.034.097-.101.097-.135.032-.068.032-.135.032-.169v-.202a.706.706 0 0 0-.097-.169 1.555 1.555 0 0 0-.226-.101c-.065-.034-.195-.034-.357-.034v-.405c.13 0 .227 0 .324-.033a.44.44 0 0 0 .194-.068c.033-.067.098-.101.098-.169.032-.067.032-.101.032-.168 0-.169-.032-.27-.13-.338-.064-.101-.161-.135-.291-.135a.528.528 0 0 0-.324.102.735.735 0 0 0-.162.27c0 .033-.032.101-.065.101-.032.033-.064.033-.129.033h-.065l-.259-.033c.032-.169.065-.304.13-.405a.898.898 0 0 1 .226-.27c.065-.101.195-.135.292-.169.129-.067.226-.067.388-.067.13 0 .259.034.357.067.097.034.194.102.291.169.065.068.13.135.162.236.065.101.065.203.065.338 0 .101 0 .168-.033.269a.186.186 0 0 1-.097.169c-.032.068-.064.101-.129.169l-.195.101a.645.645 0 0 1 .389.27c.097.101.13.27.13.438 0 .169-.033.304-.065.405-.065.135-.13.236-.227.304-.097.101-.194.135-.324.202-.129.034-.259.034-.388.034-.162 0-.292 0-.421-.034-.098-.033-.195-.101-.292-.168a.936.936 0 0 1-.194-.27c-.065-.101-.097-.203-.162-.338Z"/></svg>