<svg xmlns="http://www.w3.org/2000/svg" width="24" height="24" viewBox="0 0 24 24"><path d="M17.124 4h-1.785c-1.587 0-2.876 1.224-2.876 2.729v4.33H6.876C5.289 11.059 4 12.282 4 13.788v3.483C4 18.776 5.289 20 6.876 20h1.785c1.587 0 2.876-1.224 2.876-2.729v-3.483c0-.313-.066-.596-.165-.878h1.091v3.168c0 .502.43.879.958.879.529 0 .959-.377.959-.879v-3.137h2.744c1.587 0 2.876-1.223 2.876-2.729V6.729C20 5.224 18.711 4 17.124 4ZM9.62 17.271c0 .47-.43.878-.959.878H6.876c-.529 0-.926-.376-.926-.878v-3.483c0-.502.397-.878.926-.878h1.785c.529 0 .959.376.959.878v3.483Zm8.43-7.059c0 .502-.397.878-.926.878h-1.785c-.066 0-.132 0-.199-.031-.429-.094-.76-.408-.76-.847V6.729c0-.47.43-.878.959-.878h1.785c.496 0 .926.376.926.878v3.483Z"/></svg>