<svg xmlns="http://www.w3.org/2000/svg" width="24" height="24" viewBox="0 0 24 24"><path d="M13.818 5v12.976L11.271 19v-1.435l.002-11.199Zm-3.273 3.756v2.049a8.678 8.678 0 0 0-.92.205 7.683 7.683 0 0 0-.837.292 7.133 7.133 0 0 0-.743.366 5.502 5.502 0 0 0-.91.65 3.876 3.876 0 0 0-.453.48 3.03 3.03 0 0 0-.175.248 2.298 2.298 0 0 0-.24.503c-.028.084-.05.168-.062.25a1.418 1.418 0 0 0-.023.25 1.769 1.769 0 0 0 .018.241 1.787 1.787 0 0 0 .272.705 2.836 2.836 0 0 0 .579.649l.01.009.01.008a4.011 4.011 0 0 0 .548.386 5.986 5.986 0 0 0 1.077.492 7.371 7.371 0 0 0 .868.246 9.577 9.577 0 0 0 .981.166V19l-.096-.009-.095-.008-.094-.01-.095-.01-.094-.011-.092-.011-.093-.013-.091-.012-.092-.013-.089-.015-.091-.015-.09-.013-.176-.032-.173-.035-.085-.017-.086-.02-.085-.019-.167-.04-.083-.02-.082-.021-.081-.023-.08-.022-.081-.022-.079-.024-.078-.024-.079-.025-.076-.024-.078-.026-.226-.08-.074-.028-.073-.028-.072-.029-.072-.028-.07-.031-.071-.029-.07-.029-.069-.032-.068-.032-.067-.032-.068-.032-.066-.032-.065-.034-.057-.03-.007-.004h-.001a.057.057 0 0 0-.007-.004l-.057-.03-.064-.036-.063-.034-.122-.073-.119-.071-.06-.038-.116-.077-.057-.039-.056-.039-.055-.04-.054-.038-.054-.042-.045-.034-.007-.006H5.73a.032.032 0 0 0-.006-.005l-.045-.036-.153-.124-.097-.085-.048-.044-.046-.044-.047-.044-.045-.045-.044-.045-.044-.044-.044-.047-.043-.045-.04-.046-.041-.047-.04-.046-.039-.048-.039-.046-.074-.096-.035-.048-.036-.05-.068-.098-.031-.05-.033-.049-.031-.052-.03-.05-.03-.052-.029-.049-.054-.104-.077-.156-.068-.16-.022-.053-.039-.107-.019-.055-.051-.164-.014-.055-.029-.111-.012-.057-.013-.054-.01-.058-.01-.056-.01-.057-.007-.056-.009-.057-.017-.172-.004-.058-.003-.057-.001-.059L4 14.156v-.115l.003-.056.001-.058.005-.056.002-.057.006-.055.006-.057.008-.057.026-.168.011-.058.012-.056.014-.056.013-.057.014-.055.015-.057.017-.055.017-.057.018-.055.039-.112.02-.055.023-.056.023-.054.022-.056.026-.056.024-.054.026-.054.027-.057.028-.054.028-.054.029-.054.062-.107.032-.055.032-.053.033-.052.071-.107.035-.052.037-.053.037-.052.039-.052.079-.104.04-.049.043-.052.085-.102.044-.049.044-.051.091-.099.048-.049.047-.049.048-.048.1-.096.049-.047.052-.047.105-.093.054-.047.054-.045.11-.091.171-.132.06-.044.058-.043.059-.042.062-.042.061-.042.061-.04.125-.083.064-.039.065-.041.065-.039.066-.037.066-.039.134-.075.068-.037.139-.072.071-.035.07-.036.145-.066.071-.034.074-.033.074-.032.065-.027.008-.004v-.001c.005 0 .008-.001.01-.003l.066-.028.075-.029.075-.031.078-.028.077-.029.078-.028.08-.028.078-.027.079-.026.081-.026.08-.025.081-.024.082-.025.081-.022.084-.022.082-.023.084-.021.256-.06.085-.019.087-.019.086-.017.089-.016.086-.016.179-.03.088-.013.09-.013Zm4 0 .079.009.075.01.077.009.075.011.075.012.148.024.072.012.073.013.071.012.072.015.07.013.069.015.14.032.068.016.133.032.067.017.067.019.064.017.064.019.065.019.064.02.062.018.125.04.062.022.059.021.061.02.06.023.06.021.174.068.057.024.057.023.057.025.055.023.054.025.056.025.053.024.055.026.105.053.054.025.102.054.051.028.051.026.05.027.048.028.051.029.047.029.05.028.047.029.048.028.047.029.045.03.047.029.046.029.045.031.046.029.044.031L20 9.098v4.097l-5.091-.683 1.455-1.024a3.5 3.5 0 0 0-.357-.202 6.265 6.265 0 0 0-.962-.369 4.369 4.369 0 0 0-.5-.112Z"/></svg>