<svg width="16" height="16" viewBox="0 0 16 16" fill="none" xmlns="http://www.w3.org/2000/svg">
<g clip-path="url(#clip0_253_6442)">
<path d="M7.1519 0.35134C7.29087 0.0185807 7.73541 -0.0984159 8.14482 0.0900211C8.55423 0.278458 8.77347 0.700971 8.63451 1.03373L7.4784 6.65732C7.33944 6.99008 6.89489 7.10707 6.48548 6.91864C6.07607 6.7302 5.85683 6.30769 5.99579 5.97493L7.1519 0.35134Z" fill="#1F2328"/>
<path d="M5.26332 7.06941C5.16022 6.96118 5.01658 6.91223 4.88725 6.94134C4.75796 6.97042 4.663 7.07303 4.63869 7.20993L4.23324 9.49306L3.97554 9.22252C3.60676 8.83537 3.04623 8.79613 2.72354 9.1349L0.219542 11.7637C-0.10314 12.1025 -0.0657712 12.6909 0.303009 13.0781L2.78316 15.6819C3.15194 16.069 3.71248 16.1082 4.03516 15.7695L6.53916 13.1407C6.86185 12.8019 6.82448 12.2134 6.4557 11.8263L6.19799 11.5557L8.37274 11.1301C8.50313 11.1046 8.6009 11.0049 8.62857 10.8691C8.65631 10.7334 8.60969 10.5826 8.50659 10.4743L5.26332 7.06941Z" fill="#1F2328"/>
<path d="M15.9957 8.19495C16.0361 7.72757 15.7895 7.32203 15.4448 7.28914L9.88787 8.19494C9.5432 8.16206 9.231 8.51429 9.19054 8.98167C9.15008 9.44905 9.3967 9.85459 9.74136 9.88748L15.2983 8.98168C15.643 9.01456 15.9552 8.66233 15.9957 8.19495Z" fill="#1F2328"/>
</g>
<defs>
<clipPath id="clip0_253_6442">
<rect width="16" height="16" fill="white"/>
</clipPath>
</defs>
</svg>
