<svg xmlns="http://www.w3.org/2000/svg" width="24" height="24" viewBox="0 0 24 24"><path d="M12 7.5c-1.443 0-2.623 1.125-2.623 2.5s1.18 2.5 2.623 2.5c1.443 0 2.623-1.125 2.623-2.5S13.443 7.5 12 7.5Zm5.246 2.5c0-.344-.033-.656-.098-.969L18 8.156l-1.246-.25a4.742 4.742 0 0 0-1.213-1.562l.164-1.188-1.148.5a5.158 5.158 0 0 0-1.934-.594L12 4l-.623 1.062a5.158 5.158 0 0 0-1.934.594l-1.148-.5.164 1.188a4.742 4.742 0 0 0-1.213 1.562L6 8.156l.852.875a4.675 4.675 0 0 0-.098.969c0 .344.033.656.098.969L6 11.844l1.246.25a4.742 4.742 0 0 0 1.213 1.562l.164.156L7.803 20 12 16l4.197 4-.82-6.188.164-.156a4.742 4.742 0 0 0 1.213-1.562l1.246-.25-.852-.875c.065-.313.098-.625.098-.969ZM12 13.5c-2.033 0-3.672-1.562-3.672-3.5S9.967 6.5 12 6.5c2.033 0 3.672 1.562 3.672 3.5S14.033 13.5 12 13.5Z"/></svg>