<svg width="16" height="16" viewBox="0 0 16 16" fill="none" xmlns="http://www.w3.org/2000/svg">
<g clip-path="url(#clip0_35_1863)">
<path d="M15.9993 2.74934C15.9993 2.55059 15.9204 2.35996 15.78 2.21934C15.6394 2.07889 15.4487 2 15.25 2C15.0512 2 14.8606 2.07889 14.72 2.21934L12.47 4.41L11.28 3.21934C11.1378 3.08686 10.9498 3.01473 10.7555 3.01816C10.5612 3.02159 10.3758 3.1003 10.2384 3.23771C10.101 3.37513 10.0223 3.56051 10.0188 3.75481C10.0154 3.94912 10.0875 4.13716 10.22 4.27934L11.94 6C12.0806 6.1404 12.2713 6.2193 12.47 6.2193C12.6687 6.2193 12.8594 6.1404 13 6L15.78 3.27934C15.9204 3.13871 15.9993 2.94809 15.9993 2.74934Z" fill="#1F2328"/>
<path fill-rule="evenodd" clip-rule="evenodd" d="M7.89927 8.54824C8.57692 7.90996 8.99999 7.00439 8.99999 6C8.99999 4.067 7.43299 2.5 5.49999 2.5C3.56699 2.5 1.99999 4.067 1.99999 6C1.99999 7.00439 2.42306 7.90996 3.10071 8.54824C1.34716 9.39897 0.118776 11.1545 0.00121831 13.2071C-0.0224658 13.6207 0.293572 13.9751 0.707107 13.9988C1.12064 14.0225 1.47508 13.7064 1.49876 13.2929C1.62011 11.1742 3.35837 9.5 5.49999 9.5C7.64161 9.5 9.37987 11.1742 9.50122 13.2929C9.5249 13.7064 9.87934 14.0225 10.2929 13.9988C10.7064 13.9751 11.0224 13.6207 10.9988 13.2071C10.8812 11.1545 9.65282 9.39897 7.89927 8.54824ZM5.49999 4C4.39542 4 3.49999 4.89543 3.49999 6C3.49999 7.10457 4.39542 8 5.49999 8C6.60456 8 7.49999 7.10457 7.49999 6C7.49999 4.89543 6.60456 4 5.49999 4Z" fill="#1F2328"/>
</g>
<defs>
<clipPath id="clip0_35_1863">
<rect width="16" height="16" fill="white"/>
</clipPath>
</defs>
</svg>
