<svg xmlns="http://www.w3.org/2000/svg" width="16" height="16" viewBox="0 0 16 16"><path d="M13.6 5C14.928 5 16 6.072 16 7.4v3.8a1 1 0 0 1-1 1h-1.2a1 1 0 0 0-1 1v1.2a1 1 0 0 1-1 1H4.2a1 1 0 0 1-1-1v-1.2a1 1 0 0 0-1-1H1a1 1 0 0 1-1-1V7.4C0 6.072 1.072 5 2.4 5a.8.8 0 0 0 .8-.8V2a1 1 0 0 1 1-1h7.6a1 1 0 0 1 1 1v2.2a.8.8 0 0 0 .8.8ZM5.8 2.6a1 1 0 0 0-1 1V4a1 1 0 0 0 1 1h4.4a1 1 0 0 0 1-1v-.4a1 1 0 0 0-1-1H5.8Zm4.4 11.2a1 1 0 0 0 1-1v-1.2a1 1 0 0 0-1-1H5.8a1 1 0 0 0-1 1v1.2a1 1 0 0 0 1 1h4.4Zm2.6-4a.8.8 0 1 0 1.6 0V7.4c0-.44-.36-.8-.8-.8H2.4c-.44 0-.8.36-.8.8v2.4a.8.8 0 1 0 1.6 0A.8.8 0 0 1 4 9h8a.8.8 0 0 1 .8.8Zm.8-2c0 .44-.36.8-.8.8-.44 0-.8-.36-.8-.8 0-.44.36-.8.8-.8.44 0 .8.36.8.8Z"/></svg>