<svg xmlns="http://www.w3.org/2000/svg" width="24" height="24" viewBox="0 0 24 24"><path d="M4 16V8.094h.63c.126 0 .22.094.252.218L4.976 9c.252-.312.567-.531.882-.719C6.173 8.094 6.551 8 6.992 8c.315 0 .63.062.914.188.283.124.503.343.724.593.189.25.346.563.441.938.094.375.157.812.157 1.281 0 .438-.063.844-.189 1.219a2.363 2.363 0 0 1-.504.969c-.22.281-.472.5-.787.656a2.49 2.49 0 0 1-1.102.25 2.07 2.07 0 0 1-.914-.188 1.654 1.654 0 0 1-.693-.531V16H4Zm1.039-3.406c.189.25.41.437.63.531.221.094.473.156.756.156.567 0 .977-.187 1.292-.593.283-.376.44-.938.44-1.688 0-.375-.031-.719-.094-.969-.095-.281-.189-.531-.315-.687a1.163 1.163 0 0 0-.472-.406 2.04 2.04 0 0 0-.63-.126c-.347 0-.662.094-.914.25-.252.157-.472.376-.693.657v2.875ZM10.457 14V8.094h.598c.126 0 .189.031.221.062a.283.283 0 0 1 .094.219l.095.906c.188-.406.44-.719.755-.937A1.66 1.66 0 0 1 13.26 8c.157 0 .315.031.441.062.157.032.252.094.378.157l-.126.719c-.032.093-.095.156-.189.156-.063 0-.126-.032-.252-.063a1.94 1.94 0 0 0-.473-.062c-.378 0-.661.125-.913.312-.252.219-.441.531-.63.938V14h-1.039Zm4.315-3.062c0-.407.063-.813.189-1.157.126-.343.315-.656.535-.937.252-.25.536-.469.882-.594.346-.156.756-.25 1.165-.25.378 0 .693.062.977.188.315.124.567.281.787.531.221.219.409.5.504.812.126.344.189.688.189 1.125 0 .156 0 .282-.032.313-.031.062-.125.093-.22.093h-3.937c0 .376.063.688.158.969.094.281.22.5.377.688.158.187.378.312.599.406.22.094.472.125.756.125.252 0 .504-.031.693-.094a3.68 3.68 0 0 0 .472-.187c.126-.063.252-.125.347-.188.094-.062.157-.093.22-.093.095 0 .158.031.221.093l.283.375a2.118 2.118 0 0 1-.472.438c-.158.094-.378.187-.567.281-.221.063-.41.125-.63.156-.221.031-.441.063-.662.063-.409 0-.787-.063-1.134-.219a2.564 2.564 0 0 1-.913-.594 2.594 2.594 0 0 1-.567-1c-.157-.375-.22-.843-.22-1.343Zm1.07-.532h3.245c0-.25-.032-.468-.095-.656a2.136 2.136 0 0 0-.315-.531c-.126-.157-.283-.25-.472-.344a1.865 1.865 0 0 0-.63-.125c-.504 0-.914.156-1.197.438-.283.312-.473.718-.536 1.218Z"/></svg>