<svg width="16" height="16" viewBox="0 0 16 16" fill="none" xmlns="http://www.w3.org/2000/svg">
<path fill-rule="evenodd" clip-rule="evenodd" d="M10 7.49998C10 8.50436 9.57695 9.40994 8.8993 10.0482C10.6529 10.8989 11.8812 12.6545 11.9988 14.7071C12.0225 15.1206 11.7064 15.4751 11.2929 15.4987C10.8794 15.5224 10.5249 15.2064 10.5012 14.7929C10.3799 12.6741 8.64164 11 6.50002 11C4.3584 11 2.62014 12.6741 2.49879 14.7929C2.47511 15.2064 2.12067 15.5224 1.70714 15.4987C1.2936 15.4751 0.977565 15.1206 1.00125 14.7071C1.11881 12.6545 2.34719 10.8989 4.10074 10.0482C3.42309 9.40994 3.00002 8.50436 3.00002 7.49998C3.00002 5.56698 4.56703 3.99998 6.50002 3.99998C8.43302 3.99998 10 5.56698 10 7.49998ZM4.50002 7.49998C4.50002 6.39541 5.39545 5.49998 6.50002 5.49998C7.60459 5.49998 8.50002 6.39541 8.50002 7.49998C8.50002 8.60455 7.60459 9.49998 6.50002 9.49998C5.39545 9.49998 4.50002 8.60455 4.50002 7.49998Z" fill="#1F2328"/>
<path fill-rule="evenodd" clip-rule="evenodd" d="M15 7C15 7.5523 14.5523 8 14 8C13.4478 8 13 7.5523 13 7C13 6.4477 13.4478 6 14 6C14.5523 6 15 6.4477 15 7ZM14.75 1.75C14.75 1.33579 14.4142 1 14 1C13.5858 1 13.25 1.33579 13.25 1.75V4.25C13.25 4.66421 13.5858 5 14 5C14.4142 5 14.75 4.66421 14.75 4.25V1.75Z" fill="#1F2328"/>
</svg>
