<svg width="16" height="16" viewBox="0 0 16 16" fill="none" xmlns="http://www.w3.org/2000/svg">
<g clip-path="url(#clip0_35_1867)">
<path d="M16 2.75C16 2.33579 15.6642 2 15.25 2H11.25C10.8358 2 10.5 2.33579 10.5 2.75C10.5 3.16421 10.8358 3.5 11.25 3.5L15.25 3.5C15.6642 3.5 16 3.16421 16 2.75Z" fill="#1F2328"/>
<path fill-rule="evenodd" clip-rule="evenodd" d="M8.99999 6C8.99999 7.00439 8.57692 7.90996 7.89927 8.54824C9.65282 9.39897 10.8812 11.1545 10.9988 13.2071C11.0224 13.6207 10.7064 13.9751 10.2929 13.9988C9.87934 14.0225 9.5249 13.7064 9.50122 13.2929C9.37987 11.1742 7.64161 9.5 5.49999 9.5C3.35837 9.5 1.62011 11.1742 1.49876 13.2929C1.47508 13.7064 1.12064 14.0225 0.707107 13.9988C0.293572 13.9751 -0.0224658 13.6207 0.00121831 13.2071C0.118776 11.1545 1.34716 9.39897 3.10071 8.54824C2.42306 7.90996 1.99999 7.00439 1.99999 6C1.99999 4.067 3.56699 2.5 5.49999 2.5C7.43299 2.5 8.99999 4.067 8.99999 6ZM3.49999 6C3.49999 4.89543 4.39542 4 5.49999 4C6.60456 4 7.49999 4.89543 7.49999 6C7.49999 7.10457 6.60456 8 5.49999 8C4.39542 8 3.49999 7.10457 3.49999 6Z" fill="#1F2328"/>
<path d="M15.25 4C15.6642 4 16 4.33579 16 4.75C16 5.16421 15.6642 5.5 15.25 5.5H11.25C10.8358 5.5 10.5 5.16421 10.5 4.75C10.5 4.33579 10.8358 4 11.25 4H15.25Z" fill="#1F2328"/>
<path d="M16 6.75C16 6.33579 15.6642 6 15.25 6H11.25C10.8358 6 10.5 6.33579 10.5 6.75C10.5 7.16421 10.8358 7.5 11.25 7.5H15.25C15.6642 7.5 16 7.16421 16 6.75Z" fill="#1F2328"/>
</g>
<defs>
<clipPath id="clip0_35_1867">
<rect width="16" height="16" fill="white"/>
</clipPath>
</defs>
</svg>
