<svg xmlns="http://www.w3.org/2000/svg" width="16" height="16" viewBox="0 0 16 16"><path d="M11.223 0c.626 0 1.227.249 1.67.691.442.443.691 1.044.691 1.67v.862h.056c.626 0 1.227.249 1.67.691.442.443.691 1.044.691 1.67v4.833a2.361 2.361 0 0 1-2.361 2.361h-.862v.862a2.361 2.361 0 0 1-2.361 2.361H5.584a2.366 2.366 0 0 1-1.67-.691 2.366 2.366 0 0 1-.691-1.67v-.862h-.862A2.361 2.361 0 0 1 0 10.417V5.584a2.361 2.361 0 0 1 2.361-2.361h.056v-.862c0-.626.249-1.227.691-1.67A2.366 2.366 0 0 1 4.778 0h6.445ZM5.584 9.556a.86.86 0 0 0-.861.861v3.223a.859.859 0 0 0 .861.861h4.833a.859.859 0 0 0 .861-.861v-3.223a.86.86 0 0 0-.861-.861H5.584ZM2.361 4.723a.859.859 0 0 0-.861.861v4.833a.863.863 0 0 0 .861.861h.862v-.861a2.363 2.363 0 0 1 2.361-2.361h4.833a2.36 2.36 0 0 1 2.361 2.361v.861h.862a.859.859 0 0 0 .861-.861V5.584a.863.863 0 0 0-.861-.861H2.361Zm2.417.917a.75.75 0 0 1 0 1.5h-.805a.75.75 0 0 1 0-1.5h.805Zm0-4.14a.863.863 0 0 0-.861.861v.862h8.167v-.862a.863.863 0 0 0-.861-.861H4.778Z"/></svg>