<svg xmlns="http://www.w3.org/2000/svg" width="24" height="24" viewBox="0 0 24 24"><path d="M11.617 14.133a3.846 3.846 0 0 1-1.818-.475l-.314 1.3c.408.222 1.129.444 1.85.476v1.046H12.4v-1.142c1.254-.221 1.944-1.046 1.944-2.029 0-.983-.533-1.586-1.818-2.061-.941-.349-1.317-.571-1.317-.952 0-.317.22-.602.94-.602.784 0 1.286.254 1.568.349l.313-1.237c-.345-.159-.846-.317-1.567-.349v-.983h-1.066v1.047c-1.191.222-1.849.983-1.849 1.966 0 1.078.784 1.617 1.943 2.029.815.254 1.16.539 1.16.951 0 .445-.408.666-1.034.666Zm6.394-7.357a8.027 8.027 0 0 0-5.485-2.758 7.989 7.989 0 0 0-7.178 3.52L4 6.872l.47 4.629 3.354-2.695-1.034-.507a6.365 6.365 0 0 1 5.61-2.601c1.724.095 3.26.888 4.388 2.157a6.22 6.22 0 0 1 1.536 4.598c-.219 3.488-3.291 6.12-6.801 5.866a6.387 6.387 0 0 1-4.702-2.568l-1.285.983C6.915 18.636 9.078 19.81 11.429 20h.564a8.01 8.01 0 0 0 7.992-7.42 8.049 8.049 0 0 0-1.974-5.804Z"/></svg>