<svg xmlns="http://www.w3.org/2000/svg" width="24" height="24" viewBox="0 0 24 24"><path d="M12 4c-4.424 0-8 3.591-8 8s3.576 8 8 8c4.424 0 8-3.591 8-8s-3.576-8-8-8Zm3.2 11.528c0 .063 0 .157-.063.22v-.032c-.376.284-.376 1.103-.847 1.292-.251.126-.219-.221-.125-.347.157-.189-.063-.315.031-.504-.094-.031-.188-.252-.188-.346.094-.031.157-.095.157-.063.031-.032.157-.252.157-.283.031.188-.22.535-.126.692.031 0 .031 0 .094-.062 0 .094 0 .189.063.283-.126-.441.314-.441.533-.725.063-.094.189-.377.283-.409.062.063.062.158.031.252.031-.063 0 0 0 .032Zm2.227-5.166c-.156-.283-.282-.724-.533-.913.063.063.063.126.031.22a.572.572 0 0 1-.313-.22c0-.063.125.063.062-.095-.219.032-.376-.189-.533-.315-.282-.031-.596.221-.91.063-.062-.063-.125-.283-.251-.157-.062.063-.125.063-.188.063-.345-.126-.502-.41-.784-.41 0 .126.219.315.314.378.125.063.219.41.25.126.189.095.032.347.314.252.22.095.157-.252.22-.346.063.031.094.189.125.252.126.094.283.063.377.157.125.126.22.347.188.504-.125-.031-.031.126-.125.252-.063.126-.063.158-.126.284-.125.031-.314.094-.282.283-.094.126-.973.756-1.098.567-.126-.189-.157-.504-.283-.724-.188-.063-.533-.504-.596-.662.032-.315-.753-.882-.878-.913.094.409.439.63.596.945.157.283.408.913.596.976.376-.031.565.599.753.724.251.189.753-.377.972-.314 0 .283 0 .377-.094.692-.156.662-.47.945-.847 1.449-.219.315-.376.536-.533.851-.125.283.251.819.157.976.063.409-.063.662-.439.882-.251.157-.502.315-.408.598.094.315-.283.347-.314.536-.125.252-.282.409-.47.504-.126.031-.251.031-.377.031-.22 0-.471-.031-.69-.031-.314-.378-.628-.788-.941-1.166-.189-.22-.471-.629-.157-.913.031-.189-.188-.63-.314-.787-.157-.284-.941-.882-.627-1.229.031-.189-.157-.409-.157-.598-.157-.126-.314.189-.471-.095-.188-.283-.502-.22-.753-.031-.063.031-.784.157-.847.094-.533-.472-.69-1.26-.502-1.889.063-.284.063-.756.283-.945.094-.284.407-.567.564-.788.094-.126.251-.126.345-.252.189-.189.251-.409.471-.598.188-.158.659-.441.282-.504.126-.22.377-.472.471-.724.125-.095.376-.063.533-.126.126-.284.157-.252.126-.441.031-.095.345-.189.439-.189.125-.063.251-.189.376-.284.502-.126 1.036-.22 1.569-.22a5.85 5.85 0 0 1 5.773 4.913c-.126-.252-.251-.567-.346-.693Zm-5.521-3.527c.031 0 .031-.032.063-.063-.189.063-.095-.126-.251.063.031.157-.157.283-.063.441.157.157.345-.095.533-.126 0 .126.377.094.439.126-.094-.032.032-.032 0 0 .346-.221-.721-.441-.721-.441Zm-.283 1.039c0-.094-.094-.094-.156-.22.156-.158-.094-.063.031-.252-.063-.032-.125-.032-.22 0-.031.126.063.094-.094.063-.031.126.126.189.094.315 0-.032-.031-.032-.062-.032-.032.095 0 .063 0 .189-.251-.031-.126-.22-.314-.472.188-.158-.377-.441-.314-.536-.376.126.314.536.22.63-.188-.094-.063.032-.157.158-.188.189-.157.251-.408.157 0-.189.471 0 .251-.409-.125-.158-.22-.41-.408-.252-.219.126-.564.189-.721.472-.094.095-.722.598-.722.63.251.189 1.224-.598 1.443-.347 0 .158-.188.284-.188.441.063.032.094.095.157.095.314-.063.251.157.47.22.408.095.095.032.346-.22.062-.063.502-.063.533.063 0-.095.188-.032 0 0 .188-.032.376.157.533.031.094-.126.157-.094.251-.031.345.252.22-.724.22-.787-.094.094-.816.157-.785.094Zm-1.537-.157c-.062.031-.094.031-.125.031.031-.094.157-.472.251-.472 0 .126-.126.315-.126.441Zm0 0c-.062 0 0-.095 0 0Zm3.075-.882c.031-.032.031-.126.094-.126-.063-.252-.314-.032-.314.126.094.126.502.315.534.441-.095.031.031.315.188.315.094.094.219.094.345.063-.032-.252-.659-.725-.847-.819Zm.502.756c-.126 0 .063.063 0 0Zm.282-.725c-.094-.031-.188-.252-.282-.283-.032.063-.032.063-.032.094 0-.031.032.063 0 0 .032.063.22.284.314.189Zm-4.361.347c-.031.031-.062.031-.094.063h-.031c.063 0 .094-.095.125-.063Z"/></svg>