<svg width="16" height="16" viewBox="0 0 16 16" xmlns="http://www.w3.org/2000/svg">
    <path d="M13.9948 14.2513L14.8102 14.841C15.1457 15.0838 15.6146 15.0088 15.8575 14.6738C16.1005 14.3387 16.0254 13.8703 15.6899 13.6276L1.18994 3.14039C0.854447 2.89775 0.385538 2.97267 0.142598 3.30776C-0.100343 3.64284 -0.0253172 4.11118 0.310172 4.35383L4.16859 7.14447C4.39396 7.89388 4.83503 8.56155 5.438 9.06368C4.45359 9.52851 3.61427 10.252 3.0099 11.1566C2.40553 12.0613 2.05886 13.1131 2.007 14.1994C2.00218 14.3952 2.07428 14.5851 2.20788 14.7283C2.34147 14.8716 2.52593 14.957 2.72177 14.9661C2.9176 14.9753 3.10923 14.9075 3.25562 14.7772C3.40201 14.647 3.49153 14.4647 3.505 14.2694C3.55952 13.1153 4.0569 12.0265 4.89391 11.229C5.73091 10.4315 6.84324 9.98663 8 9.98663C8.03329 9.98663 8.06653 9.98699 8.09974 9.98773L12.2432 12.9845C12.3883 13.3947 12.4741 13.8273 12.495 14.2694C12.4975 14.3691 12.5198 14.4673 12.5608 14.5583C12.6018 14.6493 12.6606 14.7312 12.7337 14.7991C12.8068 14.8671 12.8928 14.9199 12.9865 14.9542C13.0803 14.9886 13.18 15.0039 13.2798 14.9992C13.3796 14.9946 13.4774 14.97 13.5676 14.9271C13.6577 14.8841 13.7384 14.8237 13.8048 14.7492C13.8713 14.6747 13.9221 14.5877 13.9544 14.4933C13.9812 14.4153 13.9948 14.3335 13.9948 14.2513Z"/>
    <path d="M10.5 5.9944C10.5 6.61904 10.2657 7.21954 9.84563 7.67866L11.0655 8.56097C11.4362 8.11913 11.7086 7.60013 11.8608 7.03827C12.0754 6.24579 12.0403 5.40652 11.7604 4.63463C11.4805 3.86275 10.9693 3.19573 10.2964 2.72431C9.62345 2.2529 8.82145 2 7.9995 2C7.17755 2 6.37555 2.2529 5.70262 2.72431C5.2588 3.03523 4.88533 3.43123 4.60217 3.88628L5.82201 4.76854C5.9326 4.57252 6.07014 4.39068 6.23224 4.22877C6.70108 3.7605 7.33696 3.49743 8 3.49743C8.66304 3.49743 9.29893 3.7605 9.76777 4.22877C10.2366 4.69705 10.5 5.33217 10.5 5.9944Z"/>
</svg>
