<svg xmlns="http://www.w3.org/2000/svg" width="16" height="16" viewBox="0 0 16 16"><path d="M5 13.151v-2.356c0-.203.106-.322.287-.322h.829c.562 0 .95.404.95 1.013 0 .608-.401 1.014-.979 1.014h-.513v.651c0 .203-.107.322-.287.322-.181 0-.287-.119-.287-.322Zm.962-1.135c.328 0 .52-.189.52-.528 0-.336-.19-.525-.519-.525h-.389v1.053Zm1.463 1.093v-2.314c0-.203.107-.322.287-.322h.76c.823 0 1.308.529 1.308 1.469 0 .94-.485 1.492-1.308 1.492h-.76c-.18 0-.287-.119-.287-.325Zm.979-.188c.513 0 .791-.337.791-.977 0-.62-.285-.96-.791-.96h-.405v1.937Zm2.053.552c-.181 0-.287-.119-.287-.323v-2.355c0-.203.106-.322.287-.322h1.283c.157 0 .26.096.26.256s-.104.257-.26.257h-.996v.792h.902c.149 0 .246.092.246.244 0 .154-.095.246-.246.246h-.902v.882c0 .204-.107.323-.287.323ZM5.75 5a.75.75 0 0 0 0 1.5h5.5a.75.75 0 0 0 0-1.5h-5.5ZM5 8.25a.75.75 0 0 1 .75-.75h5.5a.75.75 0 0 1 0 1.5h-5.5A.75.75 0 0 1 5 8.25Z"/><path d="M2 1.75C2 .784 2.783 0 3.75 0h6.586c.464 0 .909.184 1.237.513l2.914 2.914c.329.328.513.773.513 1.237v9.586A1.75 1.75 0 0 1 13.25 16h-9.5A1.75 1.75 0 0 1 2 14.25Zm1.75-.25a.25.25 0 0 0-.25.25v12.5c0 .138.112.25.25.25h9.5a.25.25 0 0 0 .25-.25V4.664a.25.25 0 0 0-.073-.177l-2.914-2.914a.25.25 0 0 0-.177-.073Z"/></svg>