<svg xmlns="http://www.w3.org/2000/svg" width="16" height="16" viewBox="0 0 16 16"><path d="M11.297 14.997c-1.01-.037-3.871-.431-6.867-3.428-2.996-2.995-3.39-5.856-3.428-6.866-.056-1.539 1.123-3.035 2.485-3.619a1.034 1.034 0 0 1 1.013.112c1.127.822 1.905 2.068 2.573 3.044a1.052 1.052 0 0 1-.124 1.341l-.951.951c.221.487.67 1.327 1.407 2.063.736.737 1.575 1.186 2.063 1.407l.95-.951a1.056 1.056 0 0 1 1.345-.12c.995.69 2.165 1.456 3.017 2.548a1.022 1.022 0 0 1 .133 1.041c-.587 1.369-2.072 2.534-3.616 2.477Zm-5.875-4.418c2.696 2.695 5.193 2.99 5.927 3.018.886.032 1.79-.692 2.181-1.433-.624-.732-1.436-1.299-2.327-1.915-.088.088-.179.189-.275.295-.473.52-1.04 1.145-1.758.855-.49-.197-1.7-.755-2.757-1.812C5.355 8.53 4.799 7.32 4.6 6.83c-.29-.718.337-1.287.858-1.76.106-.096.207-.188.296-.276-.616-.905-1.174-1.738-1.904-2.331-.752.393-1.48 1.29-1.447 2.188.028.734.323 3.231 3.019 5.928Z"/></svg>