<svg xmlns="http://www.w3.org/2000/svg" width="24" height="24" viewBox="0 0 24 24"><path d="m18.683 16.482-.09-.188c-.237-.596-3.12-1.475-3.358-1.506-.059 0-.118 0-.178.031-.416.094-.832.471-1.753 1.318-1.04-.502-2.437-1.82-3.091-2.636-.743-.847-1.634-2.29-1.961-3.356 1.04-.973 1.486-1.381 1.516-1.851.029-.251-.476-3.389-1.011-3.734-.029 0-.089-.063-.148-.094-.327-.22-.832-.565-1.397-.439-.149.031-.267.094-.386.157-.387.251-1.308.941-1.724 1.819-.238.534-.356 5.522 3.18 9.757 3.506 4.173 7.815 4.361 8.469 4.204h.089c.862-.345 1.605-1.223 1.902-1.6.505-.658.148-1.443-.059-1.882Z"/></svg>