<svg width="16" height="16" viewBox="0 0 16 16" fill="none" xmlns="http://www.w3.org/2000/svg">
<g clip-path="url(#clip0_3955_103)">
<path d="M5.13796 4.5127C5.71591 4.46242 6.29782 4.55697 6.83034 4.78711C7.3626 5.01725 7.82947 5.37586 8.18874 5.83105C8.54813 6.28642 8.78881 6.82411 8.88893 7.39551C8.98903 7.96687 8.94512 8.55411 8.76198 9.10449C8.57879 9.65493 8.2617 10.1514 7.83913 10.5488C8.63599 10.9354 9.32854 11.5088 9.85671 12.2197C10.3848 12.9306 10.7333 13.7585 10.8733 14.6328C10.9045 14.8293 10.8565 15.0304 10.7395 15.1914C10.6227 15.3523 10.4466 15.4599 10.2503 15.4912C10.0538 15.5224 9.85265 15.4744 9.69167 15.3574C9.53069 15.2405 9.42206 15.0646 9.39089 14.8682C9.23956 13.9296 8.75922 13.0755 8.03542 12.459C7.31169 11.8426 6.39229 11.504 5.44167 11.5039C4.49092 11.5039 3.57075 11.8425 2.84694 12.459C2.12323 13.0755 1.64278 13.9296 1.49147 14.8682C1.47598 14.9654 1.44141 15.0586 1.38991 15.1426C1.33835 15.2266 1.27045 15.2996 1.19069 15.3574C1.11101 15.4152 1.02076 15.4566 0.925065 15.4795C0.829233 15.5025 0.729407 15.5067 0.632097 15.4912C0.534885 15.4757 0.44158 15.4412 0.357682 15.3896C0.27371 15.3381 0.20069 15.2702 0.142839 15.1904C0.0850903 15.1108 0.0436969 15.0205 0.0207684 14.9248C-0.00215386 14.829 -0.00644631 14.7291 0.00904969 14.6318C0.14939 13.7577 0.498537 12.9303 1.02663 12.2197C1.55478 11.5091 2.24663 10.9362 3.04323 10.5498C2.69491 10.2229 2.41732 9.8281 2.2278 9.38965C2.03824 8.95101 1.941 8.47784 1.94167 8C1.9416 7.41987 2.08524 6.8485 2.36061 6.33789C2.63593 5.82745 3.0342 5.39379 3.51882 5.0752C4.00358 4.75655 4.56003 4.56297 5.13796 4.5127ZM10.9417 6.5C11.5228 6.50002 12.0914 6.66927 12.5784 6.98633C13.0652 7.30339 13.4497 7.75479 13.6848 8.28613C13.9199 8.81755 13.9955 9.40587 13.9026 9.97949C13.8097 10.5531 13.5522 11.0876 13.1614 11.5176C13.77 11.8199 14.3111 12.2429 14.7512 12.7607C15.1913 13.2784 15.5208 13.8809 15.721 14.5303C15.7503 14.6245 15.7613 14.724 15.7522 14.8223C15.7432 14.9205 15.7143 15.0163 15.6682 15.1035C15.6222 15.1907 15.5596 15.2682 15.4837 15.3311C15.4078 15.3939 15.32 15.4407 15.2258 15.4697C15.1313 15.4986 15.0312 15.5095 14.9329 15.5C14.8348 15.4905 14.7395 15.4613 14.6526 15.415C14.5654 15.3685 14.4878 15.3048 14.4251 15.2285C14.3626 15.1522 14.3158 15.0641 14.2874 14.9697C13.9273 13.7978 12.9648 12.8866 11.7649 12.5977C11.6014 12.5581 11.4558 12.4651 11.3518 12.333C11.2478 12.2006 11.1915 12.0366 11.1917 11.8682V11.5156C11.1916 11.3762 11.2306 11.2397 11.304 11.1211C11.3775 11.0024 11.4827 10.9059 11.6077 10.8438C11.9106 10.6935 12.154 10.4455 12.2981 10.1396C12.4423 9.83363 12.4787 9.48759 12.4016 9.1582C12.3245 8.82876 12.1384 8.53444 11.8733 8.32422C11.6082 8.11415 11.2798 8.00009 10.9417 8C10.7428 8 10.552 7.92084 10.4114 7.78027C10.2707 7.63961 10.1917 7.44891 10.1917 7.25C10.1917 7.05108 10.2707 6.86038 10.4114 6.71973C10.552 6.57915 10.7428 6.5 10.9417 6.5ZM5.44167 6C4.91131 6 4.40266 6.21097 4.0276 6.58594C3.65254 6.96102 3.44167 7.46956 3.44167 8C3.44167 8.53043 3.65253 9.03899 4.0276 9.41406C4.40266 9.78903 4.91131 10 5.44167 10C5.97198 9.99992 6.48072 9.78906 6.85573 9.41406C7.2307 9.03901 7.44167 8.53036 7.44167 8C7.44167 7.46964 7.2307 6.961 6.85573 6.58594C6.48072 6.21094 5.97198 6.00008 5.44167 6ZM15.1038 0.5C15.2976 0.5 15.4842 0.576839 15.6214 0.713867C15.7582 0.851047 15.8352 1.03761 15.8352 1.23145C15.8351 1.42509 15.7581 1.61096 15.6214 1.74805L12.9085 4.40234C12.7713 4.53925 12.5857 4.61614 12.3919 4.61621C12.198 4.61621 12.0115 4.53932 11.8743 4.40234L10.1965 2.72363C10.0673 2.58492 9.99692 2.40148 10.0003 2.21191C10.0036 2.02256 10.0803 1.84201 10.2141 1.70801C10.3482 1.57395 10.5294 1.49651 10.719 1.49316C10.9085 1.48986 11.0921 1.56025 11.2307 1.68945L12.3919 2.85156L14.5872 0.713867C14.7243 0.577025 14.91 0.500019 15.1038 0.5Z" fill="#636C76"/>
</g>
<defs>
<clipPath id="clip0_3955_103">
<rect width="16" height="16" fill="white"/>
</clipPath>
</defs>
</svg>
