<svg xmlns="http://www.w3.org/2000/svg" width="16" height="16" viewBox="0 0 16 16"><path d="M15.999 2.749a.75.75 0 0 1-.219.53L13 6a.752.752 0 0 1-1.06 0l-1.72-1.721a.749.749 0 0 1 1.06-1.06l1.19 1.191 2.25-2.191a.752.752 0 0 1 1.06 0c.14.141.219.332.219.53Zm-8.1 5.799a5.528 5.528 0 0 1 3.1 4.659.751.751 0 0 1-1.498.086A4.009 4.009 0 0 0 5.5 9.5a4.009 4.009 0 0 0-4.001 3.793A.75.75 0 0 1 0 13.257v-.013l.001-.037a5.528 5.528 0 0 1 3.1-4.659 3.5 3.5 0 1 1 4.798 0ZM5.5 4a2 2 0 1 0-.001 3.999A2 2 0 0 0 5.5 4Z"/></svg>