<svg xmlns="http://www.w3.org/2000/svg" width="24" height="24" viewBox="0 0 24 24"><path d="M6.033 12.969c.167.062.3 0 .367-.157L7.067 11 8.6 13.188l1.567-2.282 1.6 2.438 1.466-4.282c.034-.124-.033-.25-.2-.312-.133-.031-.266.031-.333.188l-1.1 3.218-1.433-2.187L8.6 12.281 6.933 9.875l-1.066 2.781c-.034.125.033.282.166.313ZM13.6 5V4h-2.133v1H4v10h7.467v1.906L7.233 20H8.3l3.167-2.031V18H13.6v-.031L16.767 20h1.066L13.6 16.906V15H20V5h-6.4Zm5.333 9H5.067V7.25h13.866V14ZM17.5 9.812c0 .719-.633 1.313-1.433 1.313-.767 0-1.4-.594-1.4-1.313 0-.718.633-1.312 1.4-1.312.8 0 1.433.594 1.433 1.312ZM14.667 12h1.066v1h-1.066v-1Zm2.133 0h1.067v1H16.8v-1Z"/></svg>