<svg xmlns="http://www.w3.org/2000/svg" width="16" height="16" viewBox="0 0 16 16"><path d="m13.995 14.251.815.59a.75.75 0 0 0 .88-1.213L1.19 3.14a.75.75 0 0 0-.88 1.214l3.859 2.79a3.99 3.99 0 0 0 1.269 1.92 6 6 0 0 0-3.431 5.135.746.746 0 0 0 .715.767.749.749 0 0 0 .783-.697A4.495 4.495 0 0 1 8.1 9.988l4.143 2.997c.145.41.231.842.252 1.284a.757.757 0 0 0 .239.53.747.747 0 0 0 1.071-.05.74.74 0 0 0 .19-.498ZM10.5 5.994c0 .625-.234 1.226-.654 1.685l1.22.882a3.993 3.993 0 0 0-.77-5.837 4.006 4.006 0 0 0-5.694 1.162l1.22.883A2.5 2.5 0 0 1 10.5 5.994Z"/></svg>