<svg xmlns="http://www.w3.org/2000/svg" width="16" height="16" viewBox="0 0 16 16"><path d="M16 2.75a.75.75 0 0 1-.75.75h-4a.75.75 0 0 1 0-1.5h4a.75.75 0 0 1 .75.75ZM9 6c0 1.004-.423 1.91-1.101 2.548a5.528 5.528 0 0 1 3.1 4.659.751.751 0 0 1-1.498.086A4.009 4.009 0 0 0 5.5 9.5a4.009 4.009 0 0 0-4.001 3.793A.75.75 0 0 1 0 13.257v-.013l.001-.037a5.528 5.528 0 0 1 3.1-4.659A3.5 3.5 0 1 1 9 6ZM3.5 6a2 2 0 1 0 3.999.001A2 2 0 0 0 3.5 6Zm11.75-2a.75.75 0 0 1 0 1.5h-4a.75.75 0 0 1 0-1.5ZM16 6.75a.75.75 0 0 1-.75.75h-4a.75.75 0 0 1 0-1.5h4a.75.75 0 0 1 .75.75Z"/></svg>