<svg xmlns="http://www.w3.org/2000/svg" width="16" height="16" viewBox="0 0 16 16"><path d="M2 1.75C2 .784 2.783 0 3.75 0h6.586c.464 0 .909.184 1.237.513l2.914 2.914c.329.328.513.773.513 1.237v9.586A1.75 1.75 0 0 1 13.25 16h-9.5A1.75 1.75 0 0 1 2 14.25Zm1.75-.25a.25.25 0 0 0-.25.25v12.5c0 .138.112.25.25.25h9.5a.25.25 0 0 0 .25-.25V4.664a.25.25 0 0 0-.073-.177l-2.914-2.914a.25.25 0 0 0-.177-.073Z"/><path d="M5.289 13.5c-.182 0-.289-.119-.289-.322v-2.356c0-.203.107-.322.289-.322h.833c.565 0 .955.404.955 1.014 0 .607-.403 1.013-.984 1.013h-.516v.651c0 .203-.107.322-.288.322Zm.288-1.457h.39c.331 0 .524-.189.524-.527 0-.337-.192-.526-.522-.526h-.392v1.053Zm2.131 1.418c-.182 0-.289-.119-.289-.324v-2.315c0-.203.107-.322.289-.322h.764c.828 0 1.315.529 1.315 1.469 0 .94-.487 1.492-1.315 1.492h-.764Zm.288-.513h.407c.516 0 .795-.337.795-.977 0-.619-.286-.96-.795-.96h-.407v1.937Zm2.452.552c-.181 0-.288-.119-.288-.322v-2.356c0-.203.107-.322.288-.322h1.29c.159 0 .262.096.262.257 0 .16-.105.256-.262.256h-1.001v.792h.908c.149 0 .246.092.246.244 0 .154-.095.247-.246.247h-.908v.882c0 .203-.107.322-.289.322Z"/></svg>