<svg xmlns="http://www.w3.org/2000/svg" width="16" height="16" viewBox="0 0 16 16"><path d="M1.973 6.71a.652.652 0 0 1 .943 0l2 2.065c.26.269.26.705 0 .974l-2 2.066a.652.652 0 0 1-.943 0 .706.706 0 0 1 0-.974l.862-.89H1.556C.696 9.951 0 9.232 0 8.344V1.667a.666.666 0 1 1 1.333 0v6.677c0 .127.1.23.223.23h1.279l-.862-.89a.706.706 0 0 1 0-.974Zm8.298-3.517a1.475 1.475 0 0 1 1.458 0l3.542 2.279c.451.258.729.734.729 1.25v4.556c0 .516-.278.993-.729 1.25l-3.542 2.279a1.475 1.475 0 0 1-1.458 0l-3.542-2.279A1.44 1.44 0 0 1 6 11.278V6.722c0-.516.278-.992.729-1.25Zm.833 1.072a.209.209 0 0 0-.208 0L7.875 6.246 11 8.286l3.125-2.04ZM7.25 11.278c0 .074.04.142.104.179l3.021 1.981V9.357L7.25 7.317Zm7.396.179a.207.207 0 0 0 .104-.179V7.317l-3.125 2.04v4.081Z"/></svg>