<svg xmlns="http://www.w3.org/2000/svg" width="24" height="24" viewBox="0 0 24 24"><path d="m12 12.63 1.514 1.216c.221.19.253.508.095.763a.61.61 0 0 1-.41.191.471.471 0 0 1-.347-.128l-1.704-1.367a.564.564 0 0 1-.189-.569v-.926a.5.5 0 0 1 .505-.509c.315 0 .536.223.536.509v.82Z"/><path d="M5.5 13.114c0-3.53 2.808-6.393 6.311-6.393 3.502 0 6.31 2.863 6.31 6.393 0 1.728-.685 3.3-1.8 4.45a.273.273 0 0 1 .033.035l1.515 1.495a.584.584 0 0 1 0 .763.571.571 0 0 1-.758 0l-1.483-1.495a.567.567 0 0 1-.088-.115 6.242 6.242 0 0 1-3.729 1.228 6.248 6.248 0 0 1-3.492-1.06l-1.43 1.442a.573.573 0 0 1-.758 0 .584.584 0 0 1 0-.763l1.36-1.342A6.375 6.375 0 0 1 5.5 13.114Zm10.507 0c0-2.354-1.861-4.262-4.196-4.262s-4.228 1.908-4.228 4.262a4.238 4.238 0 0 0 4.228 4.23c2.335 0 4.196-1.908 4.196-4.23Zm2.934-8.047c1.231 1.241 1.389 3.149.474 4.58L14.398 4.59a3.612 3.612 0 0 1 4.543.477Zm-13.882 0c-1.231 1.241-1.389 3.149-.474 4.58L9.602 4.59a3.612 3.612 0 0 0-4.543.477Z"/></svg>