<svg xmlns="http://www.w3.org/2000/svg" width="24" height="24" viewBox="0 0 24 24"><path d="M4.916 11.732a.652.652 0 0 0-.943 0 .708.708 0 0 0 0 .976l.862.892H3.556a.227.227 0 0 1-.223-.23V2.668a.667.667 0 1 0-1.333 0V13.37c0 .889.696 1.61 1.556 1.61h1.279l-.862.893a.708.708 0 0 0 0 .976c.26.269.682.269.943 0l2-2.071a.708.708 0 0 0 0-.976l-2-2.07Zm9.21-5.082a1.743 1.743 0 0 1 1.75 0l5.25 2.768c.541.314.875.893.875 1.52v6.539c0 .627-.334 1.206-.875 1.519l-5.25 2.769a1.748 1.748 0 0 1-1.75 0l-5.25-2.769a1.755 1.755 0 0 1-.875-1.519v-6.539c0-.627.334-1.206.875-1.52ZM9.501 17.477c0 .09.048.172.125.217l4.625 2.407v-5.96l-4.75-2.48Zm10.875.217a.251.251 0 0 0 .125-.217v-5.816l-4.75 2.48v5.96Zm-5.25-9.742a.248.248 0 0 0-.25 0l-4.625 2.407 4.75 2.48 4.75-2.48Z"/></svg>