<svg width="16" height="16" viewBox="0 0 16 16" fill="none" xmlns="http://www.w3.org/2000/svg">
<g clip-path="url(#clip0_35_1717)">
<path fill-rule="evenodd" clip-rule="evenodd" d="M8.12199 0.392201C8.66497 0.0772742 9.33503 0.0772741 9.87801 0.392201L15.128 3.4372C15.6678 3.75026 16 4.32703 16 4.95101V11.049C16 11.6729 15.6678 12.2497 15.128 12.5628L9.75172 15.681C9.08505 16.0677 8.25 15.5867 8.25 14.816V8.43202L3.5 5.67702V7.24998C3.5 7.66419 3.1642 7.99998 2.75 7.99998C2.3358 7.99998 2 7.66419 2 7.24998V4.95101C2 4.32703 2.3322 3.75026 2.872 3.4372L8.12199 0.392201ZM4.2448 4.37499L8.87457 1.68975C8.95214 1.64476 9.04786 1.64476 9.12543 1.68975L13.7551 4.37499L8.99999 7.13298L4.2448 4.37499ZM14.5 5.67702V11.049C14.5 11.1381 14.4525 11.2205 14.3754 11.2652L9.75 13.948V8.43202L14.5 5.67702Z" fill="#1F2328"/>
<path d="M3.3282 14.7331C3.0427 15.0332 3.0546 15.5079 3.3547 15.7934C3.6548 16.0789 4.1295 16.067 4.415 15.7669L6.7934 13.2669C7.0689 12.9774 7.0689 12.5226 6.7934 12.2331L4.415 9.73305C4.1295 9.43295 3.6548 9.42111 3.3547 9.70662C3.0546 9.99212 3.0427 10.4668 3.3282 10.7669L4.5013 12H1.25C0.83579 12 0.5 12.3358 0.5 12.75C0.5 13.1642 0.83579 13.5 1.25 13.5H4.5013L3.3282 14.7331Z" fill="#1F2328"/>
</g>
<defs>
<clipPath id="clip0_35_1717">
<rect width="16" height="16" fill="white"/>
</clipPath>
</defs>
</svg>
