<svg xmlns="http://www.w3.org/2000/svg" width="24" height="24" viewBox="0 0 24 24"><path d="M18.829 17.594c-.307-.438-1.26-.75-2.212-1.156a30.433 30.433 0 0 1-1.168-.532v-.968s.369-.282.461-1.157c.215.063.461-.343.461-.562.031-.219-.031-.781-.277-.719.031-.438.092-.844.062-1.031-.062-.781-.799-1.563-1.906-1.563-1.106 0-1.813.782-1.874 1.563-.031.187 0 .593.061 1.031-.276-.062-.307.5-.307.719.031.219.246.625.491.562.093.875.461 1.157.461 1.157l-.03.968s-.215.125-1.168.532c-.922.406-1.905.718-2.182 1.156-.246.437-.184 2.406-.184 2.406h9.465s.092-1.969-.154-2.406Zm-9.004-2.906c.031-.094.061-.219.061-.344 0-.125-.03-.25-.061-.344a2.834 2.834 0 0 0-.184-.312c-.093-.063-.185-.126-.308-.188a1.094 1.094 0 0 0-.338-.062.887.887 0 0 0-.276.062 1.578 1.578 0 0 0-.246.188.969.969 0 0 0-.154.312 1.136 1.136 0 0 0-.061.344c0 .125.03.25.061.344a.612.612 0 0 0 .154.281.476.476 0 0 0 .246.187.485.485 0 0 0 .276.094.607.607 0 0 0 .338-.094.644.644 0 0 0 .308-.187c.061-.063.122-.157.184-.281Zm-1.444-3.719c.03.375.061.75.122 1.125h1.015c.061-.406.092-.75.153-1.125.031-.344.031-.688.031-1.063V6.469H8.319v3.437c0 .375 0 .719.062 1.063ZM6.414 5.438h6.453l3.227 3.281 1.014-1L13.451 4H5v16h2.459v-1.438H6.414V5.438Z"/></svg>