<svg xmlns="http://www.w3.org/2000/svg" width="24" height="24" viewBox="0 0 24 24"><path d="M20 4h-1.454v1.455H20V4Zm-1.454 2.909H20v1.455h-1.454V6.909ZM20 9.818h-1.454v1.455H20V9.818Zm-1.454 2.909H20v1.455h-1.454v-1.455ZM20 15.636h-1.454v1.455H20v-1.455Zm0 2.909h-1.454V20H20v-1.455Zm-4.364 0h1.455V20h-1.455v-1.455Zm-1.454 0h-1.455V20h1.455v-1.455Zm-4.364 0h1.455V20H9.818v-1.455Zm-1.454 0H6.909V20h1.455v-1.455Zm-4.364 0h1.455V20H4v-1.455Zm13.091-2.909h-1.455v1.455h1.455v-1.455Zm-4.364 0h1.455v1.455h-1.455v-1.455Zm4.364-2.909h-1.455v1.455h1.455v-1.455Zm-1.455-2.909h1.455v1.455h-1.455V9.818Zm1.455-2.909h-1.455v1.455h1.455V6.909Zm-4.364 5.818h1.455v1.455h-1.455v-1.455Zm1.455-2.909h-1.455v1.455h1.455V9.818Zm-4.364 5.818h1.455v1.455H9.818v-1.455Zm1.455-2.909H9.818v1.455h1.455v-1.455Zm-4.364 2.909h1.455v1.455H6.909v-1.455Z"/></svg>