<svg width="24" height="24" viewBox="0 0 24 24" fill="none" xmlns="http://www.w3.org/2000/svg">
<path fill-rule="evenodd" clip-rule="evenodd" d="M11 3C10.7082 3 10.4214 3.08199 10.1675 3.23797L2.855 7.73208C2.32625 8.05745 2 8.66588 2 9.32474V17.0522C2 17.5376 2.17779 18.0031 2.49426 18.3463C2.81072 18.6895 3.23995 18.8823 3.6875 18.8823H18.3125C18.76 18.8823 19.1893 18.6895 19.5057 18.3463C19.8222 18.0031 20 17.5376 20 17.0522V9.32393C20 9.0003 19.9208 8.68247 19.7706 8.40283C19.6204 8.12318 19.4045 7.89174 19.145 7.73208L11.8325 3.23797C11.5786 3.08199 11.2918 3 11 3ZM11 4.22007C11.0973 4.22007 11.1929 4.24743 11.2775 4.29948L18.2652 8.59348L12.7077 12.0375C12.2174 11.6312 11.6174 11.4111 11.0004 11.4111C10.3833 11.4111 9.78335 11.6312 9.29299 12.0375L3.7355 8.5943L10.7225 4.29948C10.8071 4.24743 10.9027 4.22007 11 4.22007ZM12.0425 13.0225L17.4875 17.6622H4.5125L9.95749 13.0225C10.2548 12.7692 10.6219 12.6315 11 12.6315C11.3781 12.6315 11.7452 12.7692 12.0425 13.0225ZM13.6625 12.8509L18.875 9.62083V17.0522C18.8751 17.1455 18.8553 17.2377 18.8172 17.3214C18.7805 17.2393 18.7265 17.1669 18.6597 17.1099L13.6625 12.8509ZM3.125 9.62083L8.33749 12.8509L3.3395 17.1099C3.27298 17.1663 3.21913 17.2384 3.182 17.3206C3.146 17.2393 3.125 17.149 3.125 17.0522V9.62083Z" fill="#636C76"/>
<path d="M21.145 9.84973C21.4046 10.0094 21.6204 10.2408 21.7706 10.5205C21.9208 10.8001 22 11.118 22 11.4416V19.1698C22 19.6552 21.8222 20.1207 21.5057 20.464C21.1893 20.8072 20.7601 21 20.3125 21H5.68752C5.23997 21 4.81075 20.8072 4.49428 20.464C4.17781 20.1207 4.00002 19.7799 4.00002 19.4382H5.18202C5.24635 19.5521 5.43752 19.7799 5.68752 19.7799H20.3125C20.5625 19.7799 20.7532 19.5527 20.8173 19.4391C20.8554 19.3553 20.8751 19.2632 20.875 19.1698V11.7385L20.8173 9.84973H21.145Z" fill="#636C76"/>
</svg>
