<svg xmlns="http://www.w3.org/2000/svg" width="24" height="24" viewBox="0 0 24 24"><path d="M14.639 7.054c.684-.7.684-1.833 0-2.529-.685-.7-1.794-.7-2.475 0a1.813 1.813 0 0 0 0 2.529c.684.697 1.79.7 2.475 0ZM9.697 9.699a.715.715 0 0 1 .029-.046l1.258-1.851a.544.544 0 0 1 .766-.142.57.57 0 0 1 .139.783l-1.258 1.851a.78.78 0 0 1-.034.046c.314.341.534.753.643 1.199l.055-.005 2.204-.087a.56.56 0 0 1 .573.541.559.559 0 0 1-.529.585l-2.203.087h-.024l-.034-.001a2.745 2.745 0 0 1-.607 1.317.664.664 0 0 1 .041.049l1.336 1.791c.183.246.139.6-.105.79a.544.544 0 0 1-.773-.107l-1.336-1.791c-.012-.017-.024-.034-.034-.052a2.62 2.62 0 0 1-3.024-.53A2.733 2.733 0 0 1 6 12.203c0-.724.278-1.407.78-1.923a2.618 2.618 0 0 1 2.917-.581Zm-1.036 1.045c-.366 0-.732.142-1.01.426a1.468 1.468 0 0 0-.417 1.033c0 .388.149.755.417 1.032a1.413 1.413 0 0 0 2.021 0c.268-.273.417-.641.417-1.032a1.48 1.48 0 0 0-.417-1.033 1.416 1.416 0 0 0-1.011-.426Zm8.825-.069a1.813 1.813 0 0 1 0 2.529c-.684.7-1.793.7-2.475 0a1.815 1.815 0 0 1 0-2.529c.682-.7 1.791-.7 2.475 0Zm-2.78 6.271a1.813 1.813 0 0 1 0 2.529c-.685.7-1.793.7-2.475 0a1.817 1.817 0 0 1 0-2.529c.682-.7 1.79-.7 2.475 0Z"/></svg>