<svg xmlns="http://www.w3.org/2000/svg" width="24" height="24" viewBox="0 0 24 24"><path d="m11 10 3.438 3.438a3 3 0 1 1-1.045 1.076L9.93 11.052a4.972 4.972 0 0 1-2.18.892v4.15A3.002 3.002 0 0 1 7 22a3 3 0 0 1-.75-5.906v-4.15a5 5 0 1 1 5.694-5.694h4.15A3.002 3.002 0 0 1 22 7a3 3 0 0 1-5.906.75h-4.15A4.97 4.97 0 0 1 11 10Zm-4 .5a3.5 3.5 0 1 0 0-7 3.5 3.5 0 0 0 0 7Zm12-2a1.5 1.5 0 1 0-.001-3.001A1.5 1.5 0 0 0 19 8.5Zm-12 12a1.5 1.5 0 1 0-.001-3.001A1.5 1.5 0 0 0 7 20.5ZM17.5 16a1.5 1.5 0 1 0-3.001.001A1.5 1.5 0 0 0 17.5 16Z"/></svg>