<svg xmlns="http://www.w3.org/2000/svg" width="24" height="24" viewBox="0 0 24 24"><path d="m18.634 20-6.963-7.176H8.003v-1.648h2.068l-1.6-1.648h-.468c-.637 0-1.247.26-1.697.724A2.509 2.509 0 0 0 5.603 12c0 .656.253 1.285.703 1.748.45.464 1.06.724 1.697.724h2.399v1.649H8.003a3.932 3.932 0 0 1-2.645-1.027 4.163 4.163 0 0 1-1.326-2.573 4.217 4.217 0 0 1 .657-2.833 4.003 4.003 0 0 1 2.31-1.678L4.237 5.165 5.369 4l14.397 14.835-1.131 1.164V20h-.001Zm-.125-4.792-1.142-1.176c.421-.3.737-.73.903-1.228a2.542 2.542 0 0 0 .021-1.541 2.469 2.469 0 0 0-.869-1.255 2.353 2.353 0 0 0-1.421-.48h-2.399V7.879h2.399a3.92 3.92 0 0 1 2.31.757 4.114 4.114 0 0 1 1.461 1.993c.275.804.302 1.676.076 2.497a4.125 4.125 0 0 1-1.338 2.082h-.001Z"/></svg>