<svg xmlns="http://www.w3.org/2000/svg" width="16" height="16" viewBox="0 0 16 16"><path d="M8.122.392a1.75 1.75 0 0 1 1.756 0l5.25 3.045c.54.313.872.89.872 1.514v6.098a1.75 1.75 0 0 1-.872 1.514l-5.376 3.118a1 1 0 0 1-1.502-.865V8.432L3.5 5.677V7.25a.75.75 0 0 1-1.5 0V4.951c0-.624.332-1.201.872-1.514ZM4.245 4.375 9 7.133l4.755-2.758-4.63-2.685a.248.248 0 0 0-.25 0ZM14.5 5.677 9.75 8.432v5.516l4.625-2.683a.249.249 0 0 0 .125-.216Z"/><path d="M3.328 14.733 4.501 13.5H1.25a.75.75 0 0 1 0-1.5h3.251l-1.173-1.233a.75.75 0 0 1 1.087-1.034l2.378 2.5a.75.75 0 0 1 0 1.034l-2.378 2.5a.75.75 0 1 1-1.087-1.034Z"/></svg>