<svg width="24" height="24" viewBox="0 0 24 24" fill="none" xmlns="http://www.w3.org/2000/svg">
<path fill-rule="evenodd" clip-rule="evenodd" d="M11.0002 10.0002C11.4858 9.35375 11.8184 8.58575 11.9441 7.75H16.0945C16.4275 9.04392 17.6021 10 19 10C20.6569 10 22 8.65685 22 7C22 5.34315 20.6569 4 19 4C17.6021 4 16.4275 4.95608 16.0945 6.25H11.9441C11.5823 3.84437 9.50652 2 7 2C4.23858 2 2 4.23858 2 7C2 9.50652 3.84437 11.5823 6.25 11.9441L6.25 16.0945C4.95608 16.4275 4 17.6021 4 19C4 20.6569 5.34315 22 7 22C8.65685 22 10 20.6569 10 19C10 17.6021 9.04392 16.4275 7.75 16.0945L7.75 11.9441C8.55586 11.8229 9.29873 11.5094 9.93039 11.0517L13.3931 14.5144C13.1429 14.9524 13 15.4595 13 16C13 17.6569 14.3431 19 16 19C17.6569 19 19 17.6569 19 16C19 14.3431 17.6569 13 16 13C15.4278 13 14.8931 13.1602 14.4381 13.4381L11.0002 10.0002ZM7 10.5C8.933 10.5 10.5 8.933 10.5 7C10.5 5.067 8.933 3.5 7 3.5C5.067 3.5 3.5 5.067 3.5 7C3.5 8.933 5.067 10.5 7 10.5ZM7 20.5C7.82843 20.5 8.5 19.8284 8.5 19C8.5 18.1716 7.82843 17.5 7 17.5C6.17157 17.5 5.5 18.1716 5.5 19C5.5 19.8284 6.17157 20.5 7 20.5ZM17.5 16C17.5 16.8284 16.8284 17.5 16 17.5C15.1716 17.5 14.5 16.8284 14.5 16C14.5 15.1716 15.1716 14.5 16 14.5C16.8284 14.5 17.5 15.1716 17.5 16ZM19 8.5C19.8284 8.5 20.5 7.82843 20.5 7C20.5 6.17157 19.8284 5.5 19 5.5C18.1716 5.5 17.5 6.17157 17.5 7C17.5 7.82843 18.1716 8.5 19 8.5Z" fill="#636C76"/>
</svg>
