<svg xmlns="http://www.w3.org/2000/svg" width="24" height="24" viewBox="0 0 24 24"><path d="M20 19.467a.537.537 0 0 1-.55.533H5.181c-.291 0-.55-.251-.55-.533 0-.283.259-.534.55-.534H19.45c.323 0 .55.251.55.534Zm-.841-10.761-4.465-4.361c-.227-.22-.518-.345-.777-.345-.291 0-.582.094-.777.314l-8.8 8.533a1.004 1.004 0 0 0 0 1.506l2.524 2.604c.42.439 1.261.91 1.876.91h1.683c.614 0 1.456-.471 1.876-.91l6.86-6.714c.42-.408.42-1.129 0-1.537Zm-7.766 7.498c-.194.22-.647.596-.97.596H8.74c-.323 0-.873-.376-1.1-.596l-2.524-2.51 3.98-3.921 4.433 4.298-2.136 2.133Z"/></svg>