<svg xmlns="http://www.w3.org/2000/svg" width="16" height="16" viewBox="0 0 16 16"><path d="M5.678 1.248C5.928 1.086 6.211 1 6.5 1c.289 0 .572.086.822.248l4.875 2.758c.497.325.803.92.803 1.563v5.619c0 .481-.171.942-.476 1.281-.305.34-.718.531-1.149.531h-9.75c-.431 0-.844-.191-1.149-.531A1.919 1.919 0 0 1 0 11.188V5.569c0-.643.306-1.238.803-1.563l4.875-2.758Zm.939 1.339a.216.216 0 0 0-.234 0L2 5.023l3.077 2.552a2.368 2.368 0 0 1 1.424-.484c.507 0 1.003.168 1.423.484L11 5.023 6.617 2.587Zm3.737 8.86L7.217 8.921a1.09 1.09 0 0 0-.717-.277c-.26 0-.512.098-.717.277l-3.137 2.526h7.708Zm1.253-5.022L9.112 8.606l2.495 1.964V6.425ZM3.888 8.606 1.393 6.425v4.145l2.495-1.964Z"/><path d="M13.47 5.47a.749.749 0 0 1 1.06 0l.207.207c.329.328.513.773.513 1.237V13.5a1.75 1.75 0 0 1-1.75 1.75H3a.75.75 0 0 1 0-1.5h10.5a.25.25 0 0 0 .25-.25V6.914a.25.25 0 0 0-.073-.177l-.207-.207a.749.749 0 0 1 0-1.06Z"/></svg>