<svg width="16" height="16" viewBox="0 0 16 16" fill="none" xmlns="http://www.w3.org/2000/svg">
<g clip-path="url(#clip0_35_1685)">
<path d="M7 3.75C7 3.33579 7.33579 3 7.75 3H12.25C12.6642 3 13 3.33579 13 3.75C13 4.16421 12.6642 4.5 12.25 4.5H7.75C7.33579 4.5 7 4.16421 7 3.75Z" fill="#1F2328"/>
<path d="M3 3.75C3 3.33579 3.33579 3 3.75 3H4.25C4.66421 3 5 3.33579 5 3.75C5 4.16421 4.66421 4.5 4.25 4.5H3.75C3.33579 4.5 3 4.16421 3 3.75Z" fill="#1F2328"/>
<path fill-rule="evenodd" clip-rule="evenodd" d="M1.75 0C0.783502 0 0 0.7835 0 1.75V5.75C0 6.12181 0.115954 6.46654 0.313672 6.75C0.115954 7.03346 0 7.37819 0 7.75V11.75C0 12.7165 0.783501 13.5 1.75 13.5H9.25C9.66421 13.5 10 13.1642 10 12.75C10 12.3358 9.66421 12 9.25 12H1.75C1.61193 12 1.5 11.8881 1.5 11.75V7.75C1.5 7.61193 1.61193 7.5 1.75 7.5H14.25C14.3881 7.5 14.5 7.61193 14.5 7.75V9C14.5 9.41421 14.8358 9.75 15.25 9.75C15.6642 9.75 16 9.41421 16 9V7.75C16 7.37819 15.884 7.03346 15.6863 6.75C15.884 6.46654 16 6.12181 16 5.75V1.75C16 0.7835 15.2165 0 14.25 0H1.75ZM1.5 1.75C1.5 1.61193 1.61193 1.5 1.75 1.5H14.25C14.3881 1.5 14.5 1.61193 14.5 1.75V5.75C14.5 5.88807 14.3881 6 14.25 6H1.75C1.61193 6 1.5 5.88807 1.5 5.75V1.75Z" fill="#1F2328"/>
<path d="M7.75 9C7.33579 9 7 9.3358 7 9.75C7 10.1642 7.33579 10.5 7.75 10.5H10.25C10.6642 10.5 11 10.1642 11 9.75C11 9.3358 10.6642 9 10.25 9H7.75Z" fill="#1F2328"/>
<path d="M3.75 9C3.33579 9 3 9.3358 3 9.75C3 10.1642 3.33579 10.5 3.75 10.5H4.25C4.66421 10.5 5 10.1642 5 9.75C5 9.3358 4.66421 9 4.25 9H3.75Z" fill="#1F2328"/>
<path fill-rule="evenodd" clip-rule="evenodd" d="M11.875 12.0625C11.875 10.9234 12.7984 10 13.9375 10C15.0766 10 16 10.9234 16 12.0625C16 13.2016 15.0766 14.125 13.9375 14.125C13.7715 14.125 13.6098 14.1053 13.4546 14.0681L13.1051 14.4176C13.0524 14.4704 12.9808 14.5 12.9062 14.5H12.625V14.7812C12.625 14.8558 12.5954 14.9274 12.5426 14.9801L12.3551 15.1676C12.3024 15.2204 12.2308 15.25 12.1562 15.25H11.875V15.5312C11.875 15.6058 11.8454 15.6774 11.7926 15.7301L11.6051 15.9176C11.5524 15.9704 11.4808 16 11.4062 16H10.6562C10.2938 16 10 15.7062 10 15.3438V14.5938C10 14.5192 10.0296 14.4476 10.0824 14.3949L11.9319 12.5454C11.8947 12.3903 11.875 12.2285 11.875 12.0625ZM15 11.5C15 11.7761 14.7761 12 14.5 12C14.2239 12 14 11.7761 14 11.5C14 11.2239 14.2239 11 14.5 11C14.7761 11 15 11.2239 15 11.5Z" fill="#1F2328"/>
</g>
<defs>
<clipPath id="clip0_35_1685">
<rect width="16" height="16" fill="white"/>
</clipPath>
</defs>
</svg>
