<svg xmlns="http://www.w3.org/2000/svg" width="24" height="24" viewBox="0 0 24 24"><path d="M20 11.469h-5.219c-.406-.157-.843-.344-1.281-.469-.5-.156-1-.312-1.469-.469A9.774 9.774 0 0 1 10.75 10a2.988 2.988 0 0 1-.906-.719c-.219-.25-.313-.593-.313-1 0-.312.063-.625.188-.906.156-.281.343-.5.593-.719.282-.218.594-.375.938-.5a3.89 3.89 0 0 1 1.25-.187c.531 0 .969.062 1.375.187.375.125.719.25 1 .406.281.126.5.25.687.376.219.093.376.156.532.156.25 0 .406-.094.531-.344l.594-1a6.237 6.237 0 0 0-2.063-1.281C14.344 4.156 13.438 4 12.438 4c-.876 0-1.657.125-2.344.375-.688.25-1.282.563-1.75.969a4.012 4.012 0 0 0-1.063 1.437 3.881 3.881 0 0 0-.375 1.657c0 .687.125 1.25.344 1.718.25.469.531.875.938 1.188.031.062.093.094.124.125H4v1.437h7.562c.313.094.594.188.876.282.5.124.906.312 1.281.5.375.218.687.437.937.718.219.282.344.656.344 1.063 0 .343-.062.687-.219 1a2.719 2.719 0 0 1-.562.812 3.02 3.02 0 0 1-1 .531c-.407.157-.875.219-1.407.219a5.112 5.112 0 0 1-1.531-.219c-.437-.124-.781-.312-1.062-.468a12.633 12.633 0 0 0-.75-.469.924.924 0 0 0-.563-.219c-.187 0-.344.032-.468.094a.893.893 0 0 0-.282.312L6.5 18.094c.625.562 1.344 1 2.25 1.375.875.343 1.844.531 2.938.531.937 0 1.781-.125 2.5-.375.687-.281 1.312-.625 1.812-1.063.5-.437.875-.968 1.125-1.593.25-.594.375-1.25.375-1.969 0-.625-.125-1.156-.344-1.594-.094-.187-.218-.344-.312-.5H20v-1.437Z"/></svg>