<svg xmlns="http://www.w3.org/2000/svg" width="16" height="16" viewBox="0 0 16 16"><path d="M7 3.75A.75.75 0 0 1 7.75 3h4.5a.75.75 0 0 1 0 1.5h-4.5A.75.75 0 0 1 7 3.75Zm-4 0A.75.75 0 0 1 3.75 3h.5a.75.75 0 0 1 0 1.5h-.5A.75.75 0 0 1 3 3.75Z"/><path d="M1.75 0h12.5C15.217 0 16 .784 16 1.75v4c0 .372-.116.717-.314 1 .198.283.314.628.314 1V9a.75.75 0 0 1-1.5 0V7.75a.25.25 0 0 0-.25-.25H1.75a.25.25 0 0 0-.25.25v4c0 .138.112.25.25.25h7.5a.75.75 0 0 1 0 1.5h-7.5A1.75 1.75 0 0 1 0 11.75v-4c0-.372.116-.717.314-1a1.739 1.739 0 0 1-.314-1v-4C0 .784.784 0 1.75 0ZM1.5 1.75v4c0 .138.112.25.25.25h12.5a.25.25 0 0 0 .25-.25v-4a.25.25 0 0 0-.25-.25H1.75a.25.25 0 0 0-.25.25Z"/><path d="M7.75 9h2.5a.75.75 0 0 1 0 1.5h-2.5a.75.75 0 0 1 0-1.5Zm-4 0h.5a.75.75 0 0 1 0 1.5h-.5a.75.75 0 0 1 0-1.5Zm8.125 3.062a2.062 2.062 0 1 1 1.58 2.006l-.35.35a.284.284 0 0 1-.199.082h-.281v.281c0 .075-.03.146-.082.199l-.188.188a.284.284 0 0 1-.199.082h-.281v.281c0 .075-.03.146-.082.199l-.188.188a.284.284 0 0 1-.199.082h-.75a.656.656 0 0 1-.656-.656v-.75c0-.075.03-.146.082-.199l1.85-1.85a2.074 2.074 0 0 1-.057-.483ZM15 11.5a.5.5 0 1 0-1 0 .5.5 0 0 0 1 0Z"/></svg>