<svg xmlns="http://www.w3.org/2000/svg" width="24" height="24" viewBox="0 0 24 24"><path d="M13.624 5.022c1.453-1.363 3.817-1.363 5.286 0a3.362 3.362 0 0 1 0 4.956c-1.469 1.363-3.818 1.363-5.286 0-1.454-1.377-1.454-3.593 0-4.956Zm3.088 0h-.778c-.22 0-.25.124-.25.193v.069l.162 2.739c.029.193.117.234.279.234h.411c.162 0 .25-.041.264-.248l.162-2.643.014-.082v-.069c0-.069-.029-.193-.264-.193Zm-1.116 4.419c0 .372.323.675.734.675.397 0 .735-.303.735-.675 0-.385-.323-.688-.735-.688-.411 0-.734.303-.734.688Z"/><path d="M4 6h7.74a4.214 4.214 0 0 0-.273 1.495H8.33c-.366 0-.696-.01-.99-.03a14.415 14.415 0 0 1-.895-.107c.334.143.625.3.871.469.255.163.493.352.716.567l3.448 3.536c.246.235.405.42.477.557.071.13.111.248.119.352 0 .137-.036.28-.107.43-.072.149-.235.342-.489.576l-3.877 3.918c-.231.221-.43.397-.597.527a3.03 3.03 0 0 1-.489.313 13.646 13.646 0 0 1 1.551-.088H16.8V20H4v-.713c0-.144.04-.284.119-.42.088-.144.191-.267.31-.372l5.619-5.48-5.762-5.647a1.056 1.056 0 0 1-.203-.254A.596.596 0 0 1 4 6.821V6Z"/></svg>