<svg xmlns="http://www.w3.org/2000/svg" width="24" height="24" viewBox="0 0 24 24"><path d="M14.394 13.417H12.85a3.828 3.828 0 0 0-.378-.819l1.04-1.007a.672.672 0 0 0 0-.882l-.441-.41a.609.609 0 0 0-.882 0l-1.008 1.008a3.22 3.22 0 0 0-.913-.346V9.606c0-.346-.284-.598-.63-.598h-.599a.579.579 0 0 0-.598.598v1.355a3.55 3.55 0 0 0-1.008.409l-.85-.882a.672.672 0 0 0-.882 0l-.41.441a.609.609 0 0 0 0 .882l.882.882a2.988 2.988 0 0 0-.409 1.039H4.598c-.315 0-.598.284-.598.63v.599c0 .346.283.598.598.598h1.229c.126.378.283.725.504 1.039l-.819.819a.609.609 0 0 0 0 .882l.409.41c.252.252.63.252.882 0l.914-.914c.314.158.661.252 1.007.315v1.292c0 .314.284.598.63.598h.599c.346 0 .63-.284.63-.598v-1.449c.283-.095.598-.252.85-.441l.976.976c.252.252.63.252.882 0l.41-.409a.609.609 0 0 0 0-.882l-1.071-1.071c.126-.284.252-.567.315-.85h1.449c.346 0 .598-.284.598-.63v-.599c0-.346-.252-.63-.598-.63Zm-5.04 2.615c-.85 0-1.543-.693-1.543-1.544 0-.819.693-1.512 1.543-1.512.851 0 1.512.693 1.512 1.512 0 .851-.661 1.544-1.512 1.544Zm10.268-9.229h-.976c-.063-.189-.158-.346-.252-.504l.661-.661c.158-.158.158-.41 0-.536l-.283-.283c-.158-.158-.41-.158-.536 0l-.661.661c-.189-.094-.378-.189-.599-.252v-.85A.363.363 0 0 0 16.598 4h-.377c-.221 0-.41.157-.41.378v.85a2.8 2.8 0 0 0-.63.284l-.535-.567a.398.398 0 0 0-.567 0l-.252.283c-.158.158-.158.41 0 .536l.567.567c-.126.22-.221.441-.284.693h-.724a.363.363 0 0 0-.378.378v.378c0 .22.157.409.378.409h.787c.063.22.189.441.315.63l-.535.535c-.158.158-.158.41 0 .536l.283.283c.158.158.41.158.536 0l.598-.598c.189.126.41.189.662.22v.819c0 .221.157.378.377.378h.378c.221 0 .41-.157.41-.378v-.913c.189-.063.378-.158.535-.284l.63.63c.158.158.41.158.536 0l.283-.283c.158-.158.158-.41 0-.536l-.693-.693c.095-.189.158-.346.189-.567h.945A.363.363 0 0 0 20 7.591v-.378c0-.221-.157-.41-.378-.41Zm-3.213 1.669a.981.981 0 0 1-.976-.976c0-.535.441-.976.976-.976.536 0 .977.441.977.976a.981.981 0 0 1-.977.976Z"/></svg>