<svg xmlns="http://www.w3.org/2000/svg" width="24" height="24" viewBox="0 0 24 24"><path d="M12 6c-4.406 0-8 3.594-8 8v4h16v-4c0-4.406-3.594-8-8-8Zm-.062 2c.562 0 1 .438 1 1 0 .25-.094.5-.282.688a1.017 1.017 0 0 1-.718.312c-.532 0-.969-.438-1-.969 0-.593.437-1.031 1-1.031Zm-5.907 7.312h-.062a1.02 1.02 0 0 1-.719-.374c-.156-.219-.25-.469-.219-.719.063-.531.5-.907 1-.907h.125c.25.032.5.157.656.376.157.218.25.468.219.75a.987.987 0 0 1-1 .874Zm1.844-3.124a1.082 1.082 0 0 1-.844.437.941.941 0 0 1-.562-.187.813.813 0 0 1-.407-.626.928.928 0 0 1 .157-.75c.281-.437.937-.562 1.375-.281.468.344.562.938.281 1.407Zm1.75-1.594a1.04 1.04 0 0 1-.469.125c-.344 0-.687-.219-.875-.531-.25-.5-.093-1.094.407-1.344.468-.282 1.124-.063 1.374.406.25.469.063 1.062-.437 1.344ZM12 17.5c-.812 0-1.5-.688-1.5-1.5s.688-1.5 1.5-1.5 1.5.688 1.5 1.5-.688 1.5-1.5 1.5Zm3.031-7.5L13.5 14.688c-.375-.407-.906-.688-1.5-.688-.094 0-.188.031-.25.031l2.344-4.437c.25-.5.656-.813.875-.719.219.094.25.594.062 1.125Zm1.063 2.125a1.09 1.09 0 0 1-.188-.75c.063-.281.188-.5.406-.656a1.032 1.032 0 0 1 1.407.25.836.836 0 0 1 .156.719.987.987 0 0 1-.406.656.99.99 0 0 1-1.375-.219Zm2.375 3.219a.99.99 0 0 1-1.375-.219 1.09 1.09 0 0 1-.188-.75c.063-.281.188-.5.406-.656a1.032 1.032 0 0 1 1.407.25.836.836 0 0 1 .156.719.987.987 0 0 1-.406.656Z"/></svg>