<svg xmlns="http://www.w3.org/2000/svg" width="16" height="16" viewBox="0 0 16 16"><path d="M1 2.556A1.553 1.553 0 0 1 2.556 1h9.011c.412 0 .808.164 1.1.456l2.105 2.105a.778.778 0 0 1 .228.55v9.333A1.553 1.553 0 0 1 13.444 15H2.556A1.553 1.553 0 0 1 1 13.444V2.556Zm4.667 10.888h4.666V8.778H5.667v4.666Zm6.222 0h1.555V4.433l-1.555-1.555v1.233a1.555 1.555 0 0 1-1.556 1.556H5.667a1.553 1.553 0 0 1-1.556-1.556V2.556H2.556v10.888h1.555V8.778a1.555 1.555 0 0 1 1.556-1.556h4.666a1.553 1.553 0 0 1 1.556 1.556v4.666ZM5.667 2.556v1.555h4.666V2.556H5.667Z"/></svg>