<svg xmlns="http://www.w3.org/2000/svg" width="24" height="24" viewBox="0 0 24 24"><path d="m19.594 17.995-4.284-3.917c0-.032 0-.032-.032-.032a6.033 6.033 0 0 0 1.292-3.759C16.57 6.812 13.734 4 10.269 4 6.804 4 4 6.812 4 10.287s2.804 6.286 6.269 6.286a6.24 6.24 0 0 0 3.402-1.011c.032.064.063.127.126.158l4.253 3.918c.473.442 1.103.474 1.418.126l.346-.379c.316-.348.221-.979-.22-1.39Zm-9.325-3.064c-2.552 0-4.631-2.085-4.631-4.644s2.079-4.644 4.631-4.644a4.625 4.625 0 0 1 4.631 4.644 4.625 4.625 0 0 1-4.631 4.644Z"/></svg>