<svg xmlns="http://www.w3.org/2000/svg" width="24" height="24" viewBox="0 0 24 24"><path d="M15.694 14.74v-1.629L18 9.949h-2.306V8.352L18 5.19h-2.306v-.063c0-.626-.593-1.127-1.341-1.127H9.647c-.748 0-1.341.501-1.341 1.127v.063H6l2.306 3.162v1.597H6l2.306 3.162v1.629H6l2.306 3.131v1.033c0 .626.593 1.096 1.341 1.096h4.706c.748 0 1.341-.47 1.341-1.096v-1.033L18 14.74h-2.306Zm-1.559-2.693a2.093 2.093 0 0 1-2.088 2.098 2.093 2.093 0 0 1-2.089-2.098c0-1.158.935-2.098 2.089-2.098 1.153 0 2.088.94 2.088 2.098Zm0-4.759a2.094 2.094 0 0 1-2.088 2.098 2.094 2.094 0 0 1-2.089-2.098c0-1.159.935-2.098 2.089-2.098 1.153 0 2.088.939 2.088 2.098Zm-2.088 11.647a2.093 2.093 0 0 1-2.089-2.097c0-1.159.935-2.098 2.089-2.098 1.153 0 2.088.939 2.088 2.098a2.093 2.093 0 0 1-2.088 2.097Z"/></svg>