<svg width="16" height="16" viewBox="0 0 16 16" fill="none" xmlns="http://www.w3.org/2000/svg">
<path d="M1 2.55556C1 2.143 1.16389 1.74733 1.45561 1.45561C1.74733 1.16389 2.143 1 2.55556 1H11.5669C11.9794 1.00009 12.375 1.16403 12.6667 1.45578L14.7721 3.56122C14.918 3.70705 15 3.90485 15 4.11111V13.4444C15 13.857 14.8361 14.2527 14.5444 14.5444C14.2527 14.8361 13.857 15 13.4444 15H2.55556C2.143 15 1.74733 14.8361 1.45561 14.5444C1.16389 14.2527 1 13.857 1 13.4444V2.55556ZM5.66667 13.4444H10.3333V8.77778H5.66667V13.4444ZM11.8889 13.4444H13.4444V4.43311L11.8889 2.87756V4.11111C11.8889 4.52367 11.725 4.91933 11.4333 5.21105C11.1416 5.50278 10.7459 5.66667 10.3333 5.66667H5.66667C5.25411 5.66667 4.85845 5.50278 4.56672 5.21105C4.275 4.91933 4.11111 4.52367 4.11111 4.11111V2.55556H2.55556V13.4444H4.11111V8.77778C4.11111 8.36522 4.275 7.96956 4.56672 7.67783C4.85845 7.38611 5.25411 7.22222 5.66667 7.22222H10.3333C10.7459 7.22222 11.1416 7.38611 11.4333 7.67783C11.725 7.96956 11.8889 8.36522 11.8889 8.77778V13.4444ZM5.66667 2.55556V4.11111H10.3333V2.55556H5.66667Z" fill="#1F2328"/>
</svg>
