<svg xmlns="http://www.w3.org/2000/svg" width="24" height="24" viewBox="0 0 24 24"><path d="M11.368 4a.941.941 0 0 0-.678.292c-.18.188-.281.442-.281.707 0 .264.101.518.281.706.18.187.424.292.678.292h2.238v1c0 .512-.124.904-.29 1.138-.142.201-.337.329-.659.329a.941.941 0 0 0-.678.292c-.18.188-.281.442-.281.707 0 .264.101.518.281.706.18.187.424.292.678.292.429.009.853-.091 1.237-.29a2.69 2.69 0 0 0 .968-.854c.469-.665.662-1.507.662-2.32V4.999c0-.265-.101-.519-.281-.707A.941.941 0 0 0 14.565 4h-3.197Zm-1.345 3.628a.997.997 0 0 0-.353-.46.93.93 0 0 0-1.08 0 .997.997 0 0 0-.353.46L4.076 18.612a1.023 1.023 0 0 0-.001.776.966.966 0 0 0 .532.542.93.93 0 0 0 1.055-.249c.087-.097.154-.212.198-.337l1.022-2.695h4.492l1.02 2.695a.982.982 0 0 0 .51.55c.233.105.497.11.734.013a.975.975 0 0 0 .528-.531c.102-.243.106-.518.013-.764L10.023 7.628Zm.596 7.024h-2.98l1.491-3.935 1.489 3.935ZM17.762 4c.254 0 .498.105.678.292.18.188.281.442.281.707v2.992h.32c.254 0 .498.106.678.293.18.187.281.441.281.706 0 .265-.101.519-.281.706a.941.941 0 0 1-.678.292h-.32v4.994c0 .265-.101.519-.281.706a.938.938 0 0 1-.678.293.938.938 0 0 1-.678-.293 1.018 1.018 0 0 1-.281-.706V4.999c0-.265.101-.519.281-.707A.941.941 0 0 1 17.762 4Z"/></svg>