<svg xmlns="http://www.w3.org/2000/svg" width="24" height="24" viewBox="0 0 24 24"><path d="m7.613 13.86-1.192 5.161a.794.794 0 0 0 .323.84.794.794 0 0 0 .9.006L12 16.963l4.356 2.904a.8.8 0 0 0 1.214-.885l-1.463-5.12 3.628-3.266a.796.796 0 0 0 .223-.851.807.807 0 0 0-.695-.541l-4.56-.363-1.974-4.369a.8.8 0 0 0-1.458 0L9.298 8.841l-4.561.363a.8.8 0 0 0-.495 1.37l3.371 3.286Zm2.282-3.461a.8.8 0 0 0 .666-.469L12 6.745l1.439 3.185a.805.805 0 0 0 .666.469l3.177.252-2.616 2.355a.8.8 0 0 0-.235.814l1.003 3.508-2.989-1.992a.797.797 0 0 0-.887 0l-3.124 2.082.84-3.637a.795.795 0 0 0-.22-.752L6.623 10.66l3.272-.261Z"/></svg>