<svg xmlns="http://www.w3.org/2000/svg" width="24" height="24" viewBox="0 0 24 24"><path d="M9.06 7.495c-.343 0-.653-.01-.929-.03a12.64 12.64 0 0 1-.838-.107c.313.143.585.3.816.469.239.163.462.352.671.567l3.232 3.536c.231.235.38.42.448.557.067.13.104.248.111.352 0 .137-.033.28-.1.43-.068.149-.22.342-.459.576l-3.635 3.918a7.567 7.567 0 0 1-.559.527 2.843 2.843 0 0 1-.458.313 12.026 12.026 0 0 1 1.454-.088H17V20H5v-.713c0-.144.037-.284.112-.42.082-.144.179-.267.291-.372l5.267-5.48-5.402-5.647a1.035 1.035 0 0 1-.19-.254A.622.622 0 0 1 5 6.821V6h12v1.495H9.06Z"/></svg>