<svg xmlns="http://www.w3.org/2000/svg" width="24" height="24" viewBox="0 0 24 24"><path d="M19.118 10.425h-2.236a5.788 5.788 0 0 0-.536-1.197l1.481-1.48a.894.894 0 0 0 0-1.26l-.63-.63a.894.894 0 0 0-1.26 0L14.425 7.37c-.409-.252-.85-.409-1.323-.535V4.882A.861.861 0 0 0 12.22 4h-.881a.861.861 0 0 0-.882.882v1.953c-.536.126-1.008.346-1.449.598l-1.26-1.26a.894.894 0 0 0-1.26 0l-.63.63a.894.894 0 0 0 0 1.26L7.15 9.354a5.076 5.076 0 0 0-.599 1.544H4.882A.861.861 0 0 0 4 11.78v.881c0 .504.378.882.882.882h1.795c.158.536.41 1.04.725 1.481l-1.229 1.228a.894.894 0 0 0 0 1.26l.63.63a.894.894 0 0 0 1.26 0l1.354-1.355c.441.221.945.378 1.481.473v1.858c0 .504.378.882.882.882h.881a.861.861 0 0 0 .882-.882v-2.079a4.362 4.362 0 0 0 1.26-.661l1.449 1.449a.894.894 0 0 0 1.26 0l.63-.63a.894.894 0 0 0 0-1.26l-1.575-1.575c.189-.378.346-.819.441-1.26h2.11A.861.861 0 0 0 20 12.22v-.881c0-.504-.378-.914-.882-.914Zm-7.338 3.811A2.245 2.245 0 0 1 9.543 12a2.245 2.245 0 0 1 2.237-2.236A2.245 2.245 0 0 1 14.016 12a2.245 2.245 0 0 1-2.236 2.236Z"/></svg>