<svg xmlns="http://www.w3.org/2000/svg" width="24" height="24" viewBox="0 0 24 24"><path d="M9.103 8.93 13.638 5H4.567l4.536 3.93Zm5.071-3.316c0-.061 0-.153-.032-.215l-3.213 2.763 3.15 2.702a.487.487 0 0 0 .095-.276V5.614ZM4.032 5.368C4 5.461 4 5.522 4 5.614v4.974c0 .092.032.153.063.245l3.181-2.671-3.212-2.794Zm6.425 3.224L9.071 9.759 7.717 8.592l-3.119 2.61h8.914l-3.055-2.61ZM11.937 19 8 14.671c-.409-.43-.315-1.074.189-1.443.536-.338 1.26-.276 1.67.184l2.015 2.18 5.985-7.123c.378-.46 1.134-.552 1.669-.245.504.337.63.982.252 1.443L11.937 19Z"/></svg>