<svg xmlns="http://www.w3.org/2000/svg" width="24" height="24" viewBox="0 0 24 24"><path d="M18.281 20H5.719A1.734 1.734 0 0 1 4 18.281V5.719C4 4.781 4.781 4 5.719 4h12.562C19.219 4 20 4.781 20 5.719v12.562c0 .938-.781 1.719-1.719 1.719ZM5.719 5A.707.707 0 0 0 5 5.719v12.562c0 .407.312.719.719.719h12.562a.707.707 0 0 0 .719-.719V5.719A.707.707 0 0 0 18.281 5H5.719Zm1.969 12.344c-.126.031-.376.125-.688.125-.719 0-1.188-.5-1.188-1.219 0-.719.5-1.281 1.282-1.281.25 0 .468.093.594.125l-.094.344c-.094-.063-.282-.094-.5-.094-.563 0-.844.375-.844.875 0 .562.344.906.812.906.25 0 .407-.063.532-.125l.094.344Zm1.093-3v.687h.625v.344h-.625v1.281c0 .282.063.469.313.469.125 0 .187-.031.25-.031l.031.312a1.146 1.146 0 0 1-.375.063c-.219 0-.375-.063-.469-.188-.125-.125-.187-.343-.187-.625v-1.281h-.375v-.344h.375v-.562l.437-.125Zm1.094 1.437v-.75h.375v.469h.031c.094-.312.375-.531.657-.531.062 0 .093.031.124.031v.406c-.031 0-.093-.031-.156-.031-.312 0-.531.25-.562.563-.032.062-.032.124-.032.218v1.25h-.437v-1.625Zm1.625-1.875h.438v3.5H11.5v-3.5Zm2.438.906v1.157h1.124v.281h-1.124v1.156h-.313V16.25H12.5v-.281h1.125v-1.157h.313Z"/></svg>