<svg width="16" height="16" viewBox="0 0 16 16" fill="none" xmlns="http://www.w3.org/2000/svg">
  <path fill-rule="evenodd" clip-rule="evenodd"
        d="M2.10483 0.200107C2.48525 -0.110189 3.04518 -0.053343 3.35548 0.327076L8 6.02121L12.6445 0.327076C12.9548 -0.053343 13.5148 -0.110189 13.8952 0.200107C14.2756 0.510402 14.3324 1.07034 14.0221 1.45076L9.14709 7.42752L10.7083 9.34158C11.2342 9.04736 11.8312 8.88892 12.4444 8.88892C13.3874 8.88892 14.2918 9.26352 14.9586 9.93031C15.6254 10.5971 16 11.5015 16 12.4445C16 13.3875 15.6254 14.2918 14.9586 14.9586C14.2918 15.6254 13.3874 16 12.4444 16C11.5015 16 10.5971 15.6254 9.93029 14.9586C9.26349 14.2918 8.88889 13.3875 8.88889 12.4445C8.88889 11.7787 9.07563 11.1321 9.4201 10.5749L8 8.83384L6.57989 10.5749C6.68004 10.7369 6.76724 10.907 6.84046 11.0838C7.01914 11.5152 7.11111 11.9776 7.11111 12.4445C7.11111 12.9114 7.01914 13.3737 6.84046 13.8051C6.66178 14.2365 6.39988 14.6285 6.06971 14.9586C5.73955 15.2888 5.34759 15.5507 4.91621 15.7294C4.48483 15.9081 4.02248 16 3.55556 16C3.08863 16 2.62628 15.9081 2.1949 15.7294C1.76352 15.5507 1.37156 15.2888 1.0414 14.9586C0.711234 14.6285 0.449334 14.2365 0.270651 13.8051C0.0919675 13.3737 0 12.9114 0 12.4445C0 11.9775 0.0919675 11.5152 0.270651 11.0838C0.449334 10.6524 0.711234 10.2605 1.0414 9.93031C1.37156 9.60015 1.76352 9.33825 2.1949 9.15957C2.62628 8.98088 3.08863 8.88892 3.55556 8.88892C4.02248 8.88892 4.48483 8.98088 4.91621 9.15957C5.04508 9.21295 5.17043 9.27375 5.29167 9.34159L6.85292 7.42752L1.97786 1.45076C1.66756 1.07034 1.72441 0.510402 2.10483 0.200107ZM3.55556 10.6667C3.32209 10.6667 3.09092 10.7127 2.87523 10.802C2.65954 10.8914 2.46356 11.0223 2.29848 11.1874C2.1334 11.3525 2.00245 11.5485 1.9131 11.7641C1.82376 11.9798 1.77778 12.211 1.77778 12.4445C1.77778 12.6779 1.82376 12.9091 1.9131 13.1248C2.00245 13.3405 2.1334 13.5365 2.29848 13.7016C2.46356 13.8666 2.65954 13.9976 2.87523 14.0869C3.09092 14.1763 3.32209 14.2222 3.55556 14.2222C3.78902 14.2222 4.02019 14.1763 4.23588 14.0869C4.45157 13.9976 4.64755 13.8666 4.81263 13.7016C4.97772 13.5365 5.10867 13.3405 5.19801 13.1248C5.28735 12.9091 5.33333 12.6779 5.33333 12.4445C5.33333 12.211 5.28735 11.9798 5.19801 11.7641C5.10867 11.5485 4.97772 11.3525 4.81263 11.1874C4.64755 11.0223 4.45157 10.8914 4.23588 10.802C4.02019 10.7127 3.78902 10.6667 3.55556 10.6667ZM12.4444 10.6667C11.9729 10.6667 11.5208 10.854 11.1874 11.1874C10.854 11.5208 10.6667 11.973 10.6667 12.4445C10.6667 12.916 10.854 13.3682 11.1874 13.7016C11.5208 14.0349 11.9729 14.2222 12.4444 14.2222C12.9159 14.2222 13.3681 14.0349 13.7015 13.7016C14.0349 13.3682 14.2222 12.916 14.2222 12.4445C14.2222 11.973 14.0349 11.5208 13.7015 11.1874C13.3681 10.854 12.9159 10.6667 12.4444 10.6667Z"
        fill="black"/>
</svg>
