<svg xmlns="http://www.w3.org/2000/svg" width="24" height="24" viewBox="0 0 24 24"><path d="M6.867 13.634v-3.216c.002-.016.002-.034.002-.051a4.666 4.666 0 0 1 5.936-4.492.46.46 0 0 0 .502-.154.472.472 0 0 0 .099-.349.471.471 0 0 0-.347-.395 5.587 5.587 0 0 0-2.545-.116 5.592 5.592 0 0 0-3.973 2.975 5.604 5.604 0 0 0-.604 2.475l-.004.054v3.175l-.861 2.069a.928.928 0 0 0 .085.876.937.937 0 0 0 .776.415H9.2a2.334 2.334 0 0 0 3.983 1.65 2.33 2.33 0 0 0 .683-1.65h3.267a.935.935 0 0 0 .928-.843.928.928 0 0 0-.067-.448l-.861-2.069v-1.308a.468.468 0 0 0-.797-.33.467.467 0 0 0-.136.33v1.402c0 .061.012.122.036.179l.897 2.154h-11.2l.898-2.154a.462.462 0 0 0 .036-.179Zm3.266 3.266h2.8a1.396 1.396 0 0 1-1.4 1.4 1.4 1.4 0 0 1-1.4-1.4Zm5.133-12.133h3.267a.465.465 0 0 1 .422.667l-.04.068-2.753 3.932h2.371a.466.466 0 0 1 .084.926l-.084.007h-3.267a.468.468 0 0 1-.466-.438.47.47 0 0 1 .045-.228l.039-.068 2.753-3.932h-2.371a.47.47 0 0 1-.465-.425.463.463 0 0 1 .381-.501l.084-.008Zm-4.2 3.734H13.4a.458.458 0 0 1 .405.234.47.47 0 0 1-.002.468l-.045.063-1.693 2.034H13.4a.47.47 0 0 1 .465.425.468.468 0 0 1-.381.501l-.084.008h-2.334a.47.47 0 0 1-.467-.469.48.48 0 0 1 .064-.234l.045-.062 1.696-2.035h-1.337a.466.466 0 0 1-.084-.926l.084-.007h-.001Z"/></svg>