<svg xmlns="http://www.w3.org/2000/svg" width="16" height="16" viewBox="0 0 16 16"><path d="M2.105.2a.889.889 0 0 1 1.25.127L8 6.021 12.644.327a.89.89 0 0 1 1.378 1.124L9.147 7.428l1.561 1.914a3.56 3.56 0 0 1 4.251.588 3.56 3.56 0 0 1 0 5.029 3.56 3.56 0 0 1-5.029 0 3.557 3.557 0 0 1-.51-4.384L8 8.834l-1.42 1.741a3.549 3.549 0 0 1 .26 3.23 3.56 3.56 0 0 1-1.924 1.924 3.549 3.549 0 0 1-2.721 0 3.56 3.56 0 0 1-1.924-1.924 3.55 3.55 0 0 1 .77-3.875 3.56 3.56 0 0 1 4.251-.588l1.561-1.914-4.875-5.977A.889.889 0 0 1 2.105.2Zm1.451 10.467a1.786 1.786 0 0 0-1.258.52 1.78 1.78 0 0 0 .577 2.9 1.786 1.786 0 0 0 1.938-.385 1.79 1.79 0 0 0 .52-1.258 1.785 1.785 0 0 0-.52-1.257 1.77 1.77 0 0 0-1.257-.52Zm8.888 0a1.78 1.78 0 0 0-1.257.52 1.78 1.78 0 0 0 0 2.515 1.78 1.78 0 0 0 2.514 0 1.778 1.778 0 0 0-1.257-3.035Z"/></svg>