<svg xmlns="http://www.w3.org/2000/svg" width="24" height="24" viewBox="0 0 24 24"><path d="M19.969 12.25c-.157-.625-.625-1.406-1.25-1.688-.313-.156-.657-.25-1-.343l-1.031.031a8.99 8.99 0 0 0-.969.406c-.875.5-1.094 1.563-1.157 2.438 0 .25.126.468.188.718-4.312 4.5-3.375 2.282-4.406 5.719L12 20c.844-.969.25-.469 2.062-1.156l-.031-1.063.594-.562.594.531 1.093-1.125-.562-.5.719-.781.75.125c.469-.094 1-.157 1.437-.344.813-.313 1.094-1.187 1.344-1.875-.031-.344.031-.688-.031-1Zm-1.781.344c-.188.187-.5.218-.688.031a.43.43 0 0 1-.031-.656.464.464 0 0 1 .687-.031c.188.187.219.468.032.656ZM5.438 5.438h9.406v2.656h1.468V4H4v16h4.125v-1.438H5.438V5.438Zm1.718 6.468h5.813v.969H7.156v-.969ZM7.188 10H13v1H7.188v-1Zm0-1.906H13v1H7.188v-1Z"/></svg>