<svg xmlns="http://www.w3.org/2000/svg" width="16" height="16" viewBox="0 0 16 16"><path d="M10.487 8.903 7 6.639c-.162-.148-.438-.043-.438.167v4.527c0 .21.276.316.438.167l3.487-2.263c.1-.093.1-.242 0-.334Z"/><path d="M6.5 0h3a.75.75 0 0 1 0 1.5h-.75v1l-.001.041a6.719 6.719 0 0 1 3.464 1.435l.007-.006.75-.75a.749.749 0 1 1 1.06 1.06l-.75.75-.006.007a6.75 6.75 0 1 1-10.548 0L2.72 5.03l-.75-.75a.749.749 0 1 1 1.06-1.06l.75.75.007.006a6.719 6.719 0 0 1 3.464-1.435L7.25 2.5v-1H6.5a.75.75 0 0 1 0-1.5Zm6.75 9.25a5.25 5.25 0 1 0-10.501.001A5.25 5.25 0 0 0 13.25 9.25Z"/></svg>