<svg xmlns="http://www.w3.org/2000/svg" width="24" height="24" viewBox="0 0 24 24"><path d="M9.889 7.362a1.685 1.685 0 0 1-1.681-1.681C8.208 4.756 8.964 4 9.889 4s1.681.756 1.681 1.681v1.681H9.889Zm-4.208 8.429c.925 0 1.681-.755 1.681-1.68V12.43H5.681c-.925 0-1.681.756-1.681 1.681s.756 1.68 1.681 1.68Zm4.208-3.361c-.925 0-1.681.756-1.681 1.681v4.208c0 .925.756 1.681 1.681 1.681s1.681-.756 1.681-1.681v-4.208c0-.925-.756-1.681-1.681-1.681Zm1.681-2.541c0-.925-.756-1.681-1.681-1.681H5.681C4.756 8.208 4 8.964 4 9.889s.756 1.681 1.681 1.681h4.208c.925 0 1.681-.756 1.681-1.681Zm5.068 0c0-.925.756-1.681 1.681-1.681S20 8.964 20 9.889s-.756 1.681-1.681 1.681h-1.681V9.889Zm-2.527 1.681c.925 0 1.68-.756 1.68-1.681V5.681c0-.925-.755-1.681-1.68-1.681-.925 0-1.681.756-1.681 1.681v4.208c0 .925.756 1.681 1.681 1.681Zm0 5.068c.925 0 1.68.756 1.68 1.681S15.036 20 14.111 20a1.685 1.685 0 0 1-1.681-1.681v-1.681h1.681Zm-1.681-2.527c0 .925.756 1.68 1.681 1.68h4.208c.925 0 1.681-.755 1.681-1.68 0-.925-.756-1.681-1.681-1.681h-4.208c-.925 0-1.681.756-1.681 1.681Z"/></svg>