<svg width="16" height="16" viewBox="0 0 16 16" fill="none" xmlns="http://www.w3.org/2000/svg">
<path fill-rule="evenodd" clip-rule="evenodd" d="M11.4268 2.57322C11.3292 2.47559 11.1709 2.47559 11.0732 2.57322L8.07325 5.57322C8.00175 5.64472 7.98036 5.75225 8.01905 5.84567C8.05775 5.93909 8.14891 6 8.25002 6H10.5V12.75C10.5 13.1642 10.8358 13.5 11.25 13.5C11.6642 13.5 12 13.1642 12 12.75V6H14.25C14.3511 6 14.4423 5.93909 14.481 5.84567C14.5197 5.75225 14.4983 5.64472 14.4268 5.57322L11.4268 2.57322Z" fill="#24292F"/>
<path fill-rule="evenodd" clip-rule="evenodd" d="M4.57323 13.4268C4.67086 13.5244 4.82915 13.5244 4.92678 13.4268L7.92678 10.4268C7.99828 10.3553 8.01967 10.2477 7.98098 10.1543C7.94228 10.0609 7.85112 10 7.75001 10L5.50001 10L5.50002 3.25C5.50002 2.83579 5.16423 2.5 4.75002 2.5C4.3358 2.5 4.00002 2.83579 4.00002 3.25L4.00001 10H1.75001C1.64889 10 1.55773 10.0609 1.51904 10.1543C1.48034 10.2477 1.50173 10.3553 1.57323 10.4268L4.57323 13.4268Z" fill="#24292F"/>
</svg>
