<svg xmlns="http://www.w3.org/2000/svg" width="16" height="16" viewBox="0 0 16 16"><path d="M2 1h12a1 1 0 0 1 1 1v12a1 1 0 0 1-1 1H2a1 1 0 0 1-1-1V2a1 1 0 0 1 1-1Zm.5 1.5v11h11v-11Z"/><path d="M4.641 12.045c-.631 0-1.032-.414-1.032-1.092 0-.67.399-1.092 1.028-1.092.42 0 .769.204.883.5.019.049.031.1.031.141 0 .141-.11.223-.244.223-.114 0-.182-.045-.241-.149-.103-.183-.23-.267-.412-.267-.289 0-.466.238-.466.642 0 .412.177.647.462.647.2 0 .323-.098.411-.246.076-.12.138-.168.259-.168.133 0 .241.087.241.228a.349.349 0 0 1-.038.148c-.125.286-.482.485-.882.485Zm1.397-.58v-1.129h-.11c-.135 0-.221-.082-.221-.215s.086-.215.221-.215h.11v-.232c0-.184.107-.297.285-.297.177 0 .285.113.285.297v.232h.201c.135 0 .219.084.219.215s-.084.215-.219.215h-.201v1.002c0 .148.051.211.174.221l.037.003c.14.016.217.075.217.208 0 .168-.164.253-.405.253h-.019c-.381 0-.574-.189-.574-.558Zm1.574.576c-.172 0-.285-.107-.285-.297V10.15c0-.181.111-.287.276-.287.16 0 .269.106.269.287v.137h.012c.054-.26.226-.414.435-.414a.27.27 0 0 1 .178.053c.055.043.082.113.082.211 0 .09-.027.158-.082.205-.055.047-.137.072-.248.074-.26.004-.352.15-.352.399v.929c0 .19-.111.297-.285.297Zm1.491 0c-.166 0-.285-.101-.285-.297V9.438c0-.196.119-.299.285-.299.168 0 .285.103.285.299v2.306c0 .196-.117.297-.285.297Zm1.799-.092c-.16 0-.256-.103-.256-.271v-.559h-.533c-.16 0-.262-.094-.262-.25 0-.154.102-.248.262-.248h.533v-.562c0-.166.098-.272.256-.272s.254.106.254.272v.562h.531c.163 0 .264.094.264.248 0 .156-.103.25-.266.25h-.529v.559c0 .168-.096.271-.254.271Z"/></svg>