<svg width="16" height="16" viewBox="0 0 16 16" fill="none" xmlns="http://www.w3.org/2000/svg">
<path d="M5.5 8C5.5 7.39594 5.98969 6.90625 6.59375 6.90625H9.40625C10.0103 6.90625 10.5 7.39594 10.5 8V10.8125C10.5 11.4166 10.0103 11.9062 9.40625 11.9062H6.59375C5.98969 11.9062 5.5 11.4166 5.5 10.8125V8Z" fill="#24292F"/>
<path fill-rule="evenodd" clip-rule="evenodd" d="M6.5 0C6.08579 0 5.75 0.335786 5.75 0.75C5.75 1.16421 6.08579 1.5 6.5 1.5H7.25V2.5C7.25 2.51378 7.25037 2.52748 7.25111 2.54107C5.94877 2.68482 4.75805 3.19908 3.78669 3.97611L3.78033 3.96967L3.03033 3.21967C2.73744 2.92678 2.26256 2.92678 1.96967 3.21967C1.67678 3.51256 1.67678 3.98744 1.96967 4.28033L2.71967 5.03033L2.72611 5.03669C1.80237 6.19145 1.25 7.65622 1.25 9.25C1.25 12.9779 4.27208 16 8 16C11.7279 16 14.75 12.9779 14.75 9.25C14.75 7.65622 14.1976 6.19145 13.2739 5.03669L13.2803 5.03033L14.0303 4.28033C14.3232 3.98744 14.3232 3.51256 14.0303 3.21967C13.7374 2.92678 13.2626 2.92678 12.9697 3.21967L12.2197 3.96967L12.2133 3.97611C11.242 3.19908 10.0512 2.68482 8.74889 2.54107C8.74963 2.52748 8.75 2.51378 8.75 2.5V1.5H9.5C9.91421 1.5 10.25 1.16421 10.25 0.75C10.25 0.335786 9.91421 0 9.5 0H6.5ZM13.25 9.25C13.25 12.1495 10.8995 14.5 8 14.5C5.10051 14.5 2.75 12.1495 2.75 9.25C2.75 6.3505 5.10051 4 8 4C10.8995 4 13.25 6.3505 13.25 9.25Z" fill="#24292F"/>
</svg>
