<svg xmlns="http://www.w3.org/2000/svg" width="24" height="24" viewBox="0 0 24 24"><path d="M10.254 5.536H20V7.04h-9.746V5.536Zm0 6.112H20v1.504h-9.746v-1.504Zm0 5.728H20v1.472h-9.746v-1.472ZM5.568 20 4.1 18.336c-.156-.16-.125-.416.062-.576a.508.508 0 0 1 .625.064l.75.864 2.218-2.784c.125-.16.406-.192.593-.064.188.128.25.384.094.544L5.568 20Zm0-5.472L4.1 12.832a.355.355 0 0 1 .062-.544.508.508 0 0 1 .625.064l.75.864 2.218-2.784c.125-.16.406-.224.593-.096.188.128.25.384.094.576l-2.874 3.616ZM4.1 6.832l1.468 1.696 2.874-3.616c.156-.192.094-.448-.094-.576-.187-.128-.468-.064-.593.096L5.537 7.216l-.75-.864a.508.508 0 0 0-.625-.064.355.355 0 0 0-.062.544Z"/></svg>