<svg xmlns="http://www.w3.org/2000/svg" width="24" height="24" viewBox="0 0 24 24"><path d="M17.875 6.125v11.75H6.125V6.125h11.75ZM20 4H4v16h16V4ZM9.344 15.719H8.281V8.281h1.063v7.438Zm3.187 0h-1.062V8.281h1.062v7.438Zm3.188 0h-1.063V8.281h1.063v7.438Zm-5.313-5.844c0 .281-.25.531-.531.531H7.719a.548.548 0 0 1-.531-.531c0-.313.25-.531.531-.531h2.156c.281 0 .531.218.531.531Zm3.188 3.187a.51.51 0 0 1-.532.532h-2.124a.51.51 0 0 1-.532-.532c0-.281.219-.531.532-.531h2.124c.313 0 .532.25.532.531Zm3.218-2.124c0 .281-.25.531-.531.531h-2.156a.548.548 0 0 1-.531-.531c0-.313.25-.532.531-.532h2.156c.281 0 .531.219.531.532Z"/></svg>