<svg xmlns="http://www.w3.org/2000/svg" width="16" height="16" viewBox="0 0 16 16"><path d="M2.22 2.221A.744.744 0 0 1 2.75 2h12.5a.754.754 0 0 1 0 1.508H2.75a.756.756 0 0 1-.53-1.287Zm-2 6.03a.748.748 0 0 1 .53-.221h3.5a.754.754 0 0 1 0 1.508H.75a.754.754 0 0 1-.53-1.287Zm3.53-3.236a.754.754 0 0 0 0 1.508h2.5a.754.754 0 0 0 0-1.508h-2.5Zm2.913 2.652a2.413 2.413 0 0 1 1.91-1.261 2.392 2.392 0 0 1 2.097.911 2.427 2.427 0 0 1-.24 3.26 3.805 3.805 0 0 1 2.086 2.822.52.52 0 0 1-.429.593.513.513 0 0 1-.59-.431 2.773 2.773 0 0 0-.932-1.665 2.744 2.744 0 0 0-3.567 0 2.768 2.768 0 0 0-.932 1.665.523.523 0 0 1-.591.431.516.516 0 0 1-.428-.594 3.811 3.811 0 0 1 .699-1.667 3.777 3.777 0 0 1 1.387-1.153 2.403 2.403 0 0 1-.758-1.762c0-.401.099-.796.288-1.149Zm1.146.171a1.386 1.386 0 0 0 0 1.955 1.372 1.372 0 0 0 2.347-.977 1.373 1.373 0 0 0-2.347-.978Zm4.389.093a.516.516 0 0 1 .364-.152 2.058 2.058 0 0 1 1.887 1.234 2.09 2.09 0 0 1-.36 2.233 3.47 3.47 0 0 1 1.76 2.082.525.525 0 0 1-.164.553.525.525 0 0 1-.378.117.522.522 0 0 1-.444-.366 2.416 2.416 0 0 0-1.734-1.639.517.517 0 0 1-.395-.505v-.243a.518.518 0 0 1 .286-.464 1.034 1.034 0 0 0 .546-1.165 1.03 1.03 0 0 0-1.004-.8.516.516 0 0 1-.515-.519c0-.137.054-.269.151-.366Z"/></svg>