<svg xmlns="http://www.w3.org/2000/svg" width="24" height="24" viewBox="0 0 24 24"><path d="M16.921 10.306V8.8C16.921 6.133 14.698 4 12 4 9.302 4 7.079 6.133 7.079 8.8v1.506H6V20h12v-9.694h-1.079Zm-2.191 0H9.27V8.8c0-1.443 1.238-2.635 2.73-2.635s2.73 1.192 2.73 2.635v1.506Zm-4.051 7.529H8.562l.521-2.902c-.299-.185-.521-.476-.521-.881 0-.587.482-1.029 1.041-1.029.594 0 1.076.439 1.076 1.029 0 .405-.222.696-.558.881l.558 2.902Zm4.759-.037h-2.117l.52-2.902c-.298-.185-.52-.477-.52-.882 0-.586.482-1.029 1.041-1.029.594 0 1.076.439 1.076 1.029 0 .405-.222.697-.559.882l.559 2.902Z"/></svg>