<svg width="16" height="16" viewBox="0 0 16 16" fill="none" xmlns="http://www.w3.org/2000/svg">
<path d="M2.21967 2.22078C2.36032 2.07942 2.55109 2 2.75 2H15.25C15.4489 2 15.6397 2.07942 15.7803 2.22078C15.921 2.36214 16 2.55387 16 2.75379C16 2.95371 15.921 3.14544 15.7803 3.2868C15.6397 3.42816 15.4489 3.50758 15.25 3.50758H2.75C2.55109 3.50758 2.36032 3.42816 2.21967 3.2868C2.07902 3.14544 2 2.95371 2 2.75379C2 2.55387 2.07902 2.36214 2.21967 2.22078Z" fill="#1F2328"/>
<path d="M0.21967 8.2511C0.360322 8.10973 0.551088 8.03032 0.75 8.03032H4.25C4.44891 8.03032 4.63968 8.10973 4.78033 8.2511C4.92098 8.39246 5 8.58419 5 8.7841C5 8.98402 4.92098 9.17575 4.78033 9.31711C4.63968 9.45848 4.44891 9.53789 4.25 9.53789H0.75C0.551088 9.53789 0.360322 9.45848 0.21967 9.31711C0.0790175 9.17575 0 8.98402 0 8.7841C0 8.58419 0.0790175 8.39246 0.21967 8.2511Z" fill="#1F2328"/>
<path d="M3.75 5.01516C3.55109 5.01516 3.36032 5.09457 3.21967 5.23594C3.07902 5.3773 3 5.56903 3 5.76895C3 5.96886 3.07902 6.16059 3.21967 6.30196C3.36032 6.44332 3.55109 6.52274 3.75 6.52274H6.25C6.44891 6.52274 6.63968 6.44332 6.78033 6.30196C6.92098 6.16059 7 5.96886 7 5.76895C7 5.56903 6.92098 5.3773 6.78033 5.23594C6.63968 5.09457 6.44891 5.01516 6.25 5.01516H3.75Z" fill="#1F2328"/>
<path fill-rule="evenodd" clip-rule="evenodd" d="M6.66334 7.66724C6.47402 8.02006 6.37493 8.41464 6.37498 8.8155C6.37452 9.14567 6.44153 9.47242 6.57185 9.77551C6.70217 10.0786 6.89303 10.3516 7.13261 10.5775C6.58494 10.8445 6.10939 11.2402 5.74628 11.7312C5.38318 12.2223 5.14321 12.794 5.04673 13.398C5.03608 13.4653 5.03871 13.5339 5.05447 13.6001C5.07022 13.6664 5.09881 13.7289 5.13858 13.7839C5.17835 13.8391 5.22854 13.8858 5.28627 13.9214C5.344 13.957 5.40814 13.9809 5.47504 13.9916C5.54195 14.0023 5.61029 13.9997 5.67617 13.9838C5.74206 13.9679 5.80419 13.9393 5.85903 13.8993C5.91387 13.8593 5.96034 13.8089 5.99578 13.7508C6.03122 13.6928 6.05496 13.6283 6.06561 13.5611C6.16964 12.9126 6.50007 12.3224 6.99769 11.8964C7.49531 11.4705 8.12759 11.2365 8.78123 11.2365C9.43487 11.2365 10.0672 11.4705 10.5648 11.8964C11.0624 12.3224 11.3928 12.9126 11.4969 13.5611C11.5183 13.6969 11.5925 13.8186 11.7032 13.8993C11.8139 13.9802 11.952 14.0135 12.0871 13.9919C12.2222 13.9704 12.3432 13.8958 12.4236 13.7846C12.5041 13.6733 12.5372 13.5345 12.5157 13.3987C12.4195 12.7945 12.1796 12.2224 11.8165 11.7311C11.4534 11.2399 10.9777 10.8439 10.4299 10.5768C10.7204 10.3021 10.9384 9.95923 11.0644 9.57889C11.1903 9.19855 11.2202 8.79271 11.1514 8.39786C11.0826 8.00303 10.9172 7.63157 10.6701 7.31692C10.423 7.00226 10.1019 6.75427 9.73583 6.59524C9.36972 6.43622 8.97003 6.37115 8.57269 6.40589C8.17535 6.44063 7.79283 6.57409 7.45955 6.79427C7.12626 7.01444 6.85266 7.31443 6.66334 7.66724ZM7.80896 7.83831C8.06682 7.57914 8.41656 7.43355 8.78123 7.43355C9.1459 7.43355 9.49564 7.57914 9.75351 7.83831C10.0114 8.09748 10.1562 8.44898 10.1562 8.8155C10.1562 9.18201 10.0114 9.53351 9.75351 9.79268C9.49564 10.0518 9.1459 10.1974 8.78123 10.1974C8.41656 10.1974 8.06682 10.0518 7.80896 9.79268C7.5511 9.53351 7.40623 9.18201 7.40623 8.8155C7.40623 8.44898 7.5511 8.09748 7.80896 7.83831Z" fill="#1F2328"/>
<path d="M12.1979 7.93082C12.2946 7.83363 12.4257 7.77903 12.5625 7.77903C12.9621 7.77901 13.353 7.89564 13.6879 8.11476C14.0227 8.33387 14.2871 8.64603 14.4488 9.01329C14.6104 9.38055 14.6625 9.78709 14.5985 10.1835C14.5347 10.5799 14.3575 10.9492 14.0887 11.2463C14.5072 11.4552 14.879 11.7474 15.1815 12.1052C15.4841 12.4629 15.7111 12.8788 15.8487 13.3276C15.869 13.3927 15.8762 13.4613 15.8699 13.5292C15.8637 13.5972 15.8442 13.6632 15.8125 13.7235C15.7808 13.7839 15.7376 13.8374 15.6853 13.881C15.633 13.9245 15.5726 13.9572 15.5077 13.9772C15.4428 13.9972 15.3746 14.0042 15.307 13.9976C15.2394 13.991 15.1738 13.9711 15.1139 13.9391C15.0539 13.9069 15.0009 13.8632 14.9578 13.8105C14.9148 13.7577 14.8825 13.6969 14.8629 13.6316C14.6154 12.8218 13.954 12.1923 13.129 11.9926C13.0164 11.9653 12.9162 11.9007 12.8446 11.8092C12.7731 11.7176 12.7342 11.6046 12.7344 11.4882V11.245C12.7343 11.1485 12.761 11.0539 12.8116 10.9719C12.8621 10.8898 12.9344 10.8236 13.0204 10.7806C13.2288 10.6768 13.3962 10.5052 13.4953 10.2937C13.5944 10.0822 13.6195 9.84326 13.5665 9.61563C13.5135 9.38799 13.3854 9.18508 13.2032 9.03982C13.0208 8.89456 12.7951 8.81551 12.5625 8.8155C12.4257 8.8155 12.2946 8.76089 12.1979 8.66371C12.1012 8.56652 12.0469 8.43471 12.0469 8.29727C12.0469 8.15982 12.1012 8.02801 12.1979 7.93082Z" fill="#1F2328"/>
</svg>
