<svg xmlns="http://www.w3.org/2000/svg" width="24" height="24" viewBox="0 0 24 24"><path d="M5.326 7.004a2.48 2.48 0 0 1 2.055.9 2.411 2.411 0 0 1-.061 3.138l-1.661 2.203h1.39c.491 0 .889.393.889.877a.883.883 0 0 1-.889.878h-3.16a.888.888 0 0 1-.794-.484.868.868 0 0 1 .081-.918l2.742-3.635a.874.874 0 0 1 .055-.066.681.681 0 0 0 .165-.6.692.692 0 0 0-.714-.541.685.685 0 0 0-.65.615.887.887 0 0 1-.971.789.882.882 0 0 1-.799-.959 2.42 2.42 0 0 1 .379-1.079 2.481 2.481 0 0 1 1.943-1.118Zm3.205.878c0-.485.398-.877.889-.877h3.16c.491 0 .889.392.889.877a.883.883 0 0 1-.889.878h-2.271v1.365h1.481c.491 0 .889.393.889.877a.883.883 0 0 1-.889.878h-1.481v2.242A.883.883 0 0 1 9.42 15a.883.883 0 0 1-.889-.878v-6.24Zm8.691 4.778h-1.383v1.462a.883.883 0 0 1-.888.878.883.883 0 0 1-.889-.878v-4.68c0-.646.26-1.266.723-1.723a2.482 2.482 0 0 1 1.746-.714c.655 0 1.283.256 1.746.714.463.457.723 1.077.723 1.723v4.68a.883.883 0 0 1-.889.878.883.883 0 0 1-.889-.878Zm-.691-3.9a.696.696 0 0 0-.489.2.676.676 0 0 0-.203.482v1.463h1.383V9.442a.679.679 0 0 0-.202-.482.698.698 0 0 0-.489-.2Z"/></svg>