<svg xmlns="http://www.w3.org/2000/svg" width="16" height="16" viewBox="0 0 16 16"><path d="M8.122.392a1.75 1.75 0 0 1 1.756 0l5.25 3.045c.54.313.872.89.872 1.514v6.098a1.75 1.75 0 0 1-.872 1.514l-5.376 3.118a1 1 0 0 1-1.502-.865V8.432L3.5 5.677V9.25a.75.75 0 0 1-1.5 0V4.951c0-.624.332-1.201.872-1.514ZM4.245 4.375 9 7.133l4.755-2.758-4.63-2.685a.248.248 0 0 0-.25 0ZM14.5 5.677 9.75 8.432v5.516l4.625-2.683a.249.249 0 0 0 .125-.216ZM2.137 11.319c.193.301.071.682-.272.851a1.423 1.423 0 0 0-.393.261.223.223 0 0 0-.043.057c.01.02.045.073.158.155.182.131.487.278.928.413.366.112.799.208 1.283.282l-.024-.021a.573.573 0 0 1 0-.884.787.787 0 0 1 1.009 0l.747.655a1.379 1.379 0 0 1 0 2.074l-.747.655a.787.787 0 0 1-1.009 0 .573.573 0 0 1 0-.884l.332-.29a11.774 11.774 0 0 1-2.062-.407c-.527-.162-1.005-.368-1.365-.629C.324 13.35 0 12.975 0 12.488c0-.677.61-1.134 1.166-1.408.343-.169.778-.062.971.239Z"/></svg>