<svg xmlns="http://www.w3.org/2000/svg" width="24" height="24" viewBox="0 0 24 24"><path d="M4 6v12h16V6H4Zm4.527 11.5L5 15.5c.094-.094.006.125.006-.375V7h13.988v10h-6.35v.5H8.527Zm4.023-2c-.283-.375-1.1-.594-1.917-1-.786-.281-1.006-.5-1.006-.5v-.781s.314-.219.408-1c.095.093.315-.219.315-.407 0-.187 0-.687-.315-.593 0-.407.095-.719.095-.907C10.13 9.625 9.438 9 8.527 9c-1.006 0-1.604.719-1.698 1.312 0 .188 0 .5.094.907-.314-.094-.314.406-.314.593 0 .188.22.5.409.5.094.813.408 1 .408 1v.813l-1.006.5c-.503.187-1.005.375-1.414.594-.189.093-.409.187-.503.406-.189.375-.189 2-.189 2h8.456v-.5c-.126-.625-.126-1.406-.22-1.625Zm.314-3-.911 1 1.414-.688c.283.094.598.188.912.188h1.603c1.415 0 2.515-1.094 2.515-2.5 0-1.375-1.1-2.5-2.515-2.5h-1.603a2.495 2.495 0 0 0-2.515 2.5c0 .812.378 1.625 1.1 2Zm1.415-4.094h1.603c1.1 0 2.012.906 2.012 2 0 1.094-.912 2-2.012 2h-1.603a2 2 0 1 1 0-4Zm-.817 1.219h3.112v.281h-3.112v-.281Zm0 .687h3.112v.313h-3.112v-.313Zm0 .594h3.112v.313h-3.112v-.313Z"/></svg>