<svg xmlns="http://www.w3.org/2000/svg" width="24" height="24" viewBox="0 0 24 24"><path d="M6.464 5.438h6.682l3.34 3.281 1.05-1L13.75 4H5v16h4.041v-1.438H6.464V5.438Zm9.004 4.906h-2.322c-1.942 0-3.501 1.531-3.501 3.437 0 1.688 1.273 3.125 2.928 3.407v2.343l3.118-2.312C17.536 17.125 19 15.594 19 13.781c0-1.906-1.591-3.437-3.532-3.437Zm0 5.718h-.191l-1.559 1.157v-1.157h-.572c-1.305 0-2.323-1.031-2.323-2.281a2.301 2.301 0 0 1 2.323-2.312h2.322c1.305 0 2.355 1.031 2.355 2.312 0 1.25-1.05 2.281-2.355 2.281Z"/></svg>