<svg xmlns="http://www.w3.org/2000/svg" width="24" height="24" viewBox="0 0 24 24"><path d="M19.701 12.137c0-3.118-2.551-5.669-5.669-5.669-3.118 0-5.669 2.551-5.669 5.669 0 1.394.51 2.675 1.353 3.666a2.35 2.35 0 0 0-1.57-.598c-.489 0-.943.149-1.32.404a7.944 7.944 0 0 1-.794-3.472c0-4.409 3.591-8 8-8s8 3.591 8 8-3.591 8-8 8a7.991 7.991 0 0 1-1.963-.244 2.362 2.362 0 0 0 1.951-2.087h.012c3.118 0 5.669-2.551 5.669-5.669Zm-5.88-.251a.554.554 0 0 1-.262-.473V9.082c0-.315.252-.599.599-.599.315 0 .567.284.567.599v2.034l2.709 2.155c.251.22.283.567.094.819a.567.567 0 0 1-.472.22.474.474 0 0 1-.347-.126Zm-3.149 5.68a1 1 0 1 1 2 0 1 1 0 0 1-2 0Zm-6.051-1a1 1 0 1 1 0 2 1 1 0 0 1 0-2Zm2.525 1a1 1 0 1 1 2 0 1 1 0 0 1-2 0Z"/></svg>