<svg xmlns="http://www.w3.org/2000/svg" width="24" height="24" viewBox="0 0 24 24"><path d="M6.667 6c-.552 0-1 .47-1 1.05 0 .579.448 1.049 1 1.049h3.829a2.48 2.48 0 0 1 1.505-.499c.58 0 1.098.191 1.505.499h2.884c.552 0 1-.47 1-1.049 0-.58-.448-1.05-1-1.05H6.667Zm1.191 3.317h1.794c-.038.133-.063.27-.074.408-.021.187-.005.393.008.54l.013.122a1.389 1.389 0 0 0-.153.351 2.491 2.491 0 0 0-.086.653v.025H7.858c-.552 0-.999-.47-.999-1.05 0-.579.447-1.049.999-1.049ZM5 12.633h4.928a2.668 2.668 0 0 0 .265.592v.049c-.145.069-.337.159-.587.272-.193.087-.388.168-.586.251l-.009.003c-.196.082-.401.167-.589.255a4.038 4.038 0 0 0-.558.305 1.916 1.916 0 0 0-.419.372H5c-.552 0-1-.47-1-1.049 0-.58.448-1.05 1-1.05Z"/><path d="M9.305 14.539c-.159.066-.313.13-.456.193-.401.178-.723.355-.868.579-.215.377-.167 2.689-.167 2.689h8.374s.048-2.312-.166-2.689c-.198-.304-.722-.521-1.325-.772-.195-.082-.399-.166-.602-.258-.833-.377-1.047-.503-1.047-.503v-.829s.309-.252.404-1.056c.191.051.405-.301.429-.502 0-.201-.048-.704-.286-.654l.015-.127c.042-.348.078-.646.056-.803-.047-.678-.69-1.407-1.665-1.407-.752 0-1.306.433-1.542.942-.07.152-.112.31-.123.465a.95.95 0 0 0-.007.127c.002.167.031.407.063.676l.015.127a.135.135 0 0 0-.096.013c-.155.083-.189.47-.189.641.024.201.214.553.428.502.041.332.12.573.198.74.104.223.205.314.206.316v.829l-.046.025a17.58 17.58 0 0 1-1.039.495c-.19.085-.381.165-.564.241Z"/><path d="M19.738 15.393c.034.061.07.125.114.194.19.327.143 2.413.143 2.413h-2.784c.072-2.94-.214-3.443-.333-3.619-.11-.189-.459-.226-.802-.264-.251-.026-.499-.053-.649-.138l.619-.528s-.286-.226-.357-.93c-.191.051-.357-.276-.381-.452 0-.176.024-.653.238-.603-.048-.352-.071-.653-.048-.829.048-.603.619-1.257 1.499-1.257.88 0 1.451.654 1.499 1.257.021.156-.014.41-.055.711l-.017.118c.215-.05.262.427.239.603 0 .176-.191.503-.357.452-.096.704-.381.93-.381.93l.024.754s.166.126.928.453c.601.266.712.466.861.735Z"/></svg>