<svg xmlns="http://www.w3.org/2000/svg" width="24" height="24" viewBox="0 0 24 24"><path d="m10.684 19.438.188-1.344.187-1.375 1.156 1.156 1.155 1.187-1.343.188-1.343.188Zm6.559-5.032-3.467 3.469-.406-.375 3.498-3.5-.78-.75-3.499 3.469-.374-.375 3.466-3.5-.374-.375-3.873 3.875 2.342 2.312 3.842-3.875-.375-.375Zm1.593-.781c.219-.187.219-.531 0-.75l-1.562-1.563c-.218-.187-.562-.218-.749 0-.031.032-.031.032-.031.063l-.032-.031-.718.75 2.311 2.344.75-.75-.031-.032c.031 0 .062 0 .062-.031Zm-5.872-8.187 3.311 3.281.999-1L13.589 4H5v16h3.967v-1.438h-2.53V5.438h6.527Z"/></svg>