<svg xmlns="http://www.w3.org/2000/svg" width="25" height="25" viewBox="0 0 25 25"><path d="M13.867 5.968c-2.91 0-5.327 2.222-5.636 5.053H5.89c.316-4.123 3.774-7.384 7.977-7.384 4.409 0 8 3.591 8 8s-3.591 8-8 8c-.322 0-.64-.019-.952-.056v-2.355c.31.053.628.08.952.08 3.118 0 5.669-2.551 5.669-5.669 0-3.118-2.551-5.669-5.669-5.669ZM3.439 12.637h8v8h-8Zm9.955-1.724V8.582c0-.315.252-.599.599-.599.315 0 .567.284.567.599v2.034l2.708 2.155c.252.22.284.567.095.819a.569.569 0 0 1-.473.22.47.47 0 0 1-.346-.126l-2.888-2.298a.554.554 0 0 1-.262-.473Z"/></svg>