<svg xmlns="http://www.w3.org/2000/svg" width="24" height="24" viewBox="0 0 24 24"><path d="M12 6.331c3.118 0 5.669 2.551 5.669 5.669 0 3.118-2.551 5.669-5.669 5.669-3.118 0-5.669-2.551-5.669-5.669 0-3.118 2.551-5.669 5.669-5.669ZM12 4c-4.409 0-8 3.591-8 8s3.591 8 8 8 8-3.591 8-8-3.591-8-8-8Zm.126 7.842c-.346 0-.598-.251-.598-.566V8.945c0-.315.252-.599.598-.599.315 0 .567.284.567.599v2.331a.564.564 0 0 1-.567.566Zm2.898 2.331a.474.474 0 0 1-.347-.126l-2.929-2.331c-.252-.188-.283-.566-.095-.818a.596.596 0 0 1 .819-.095l2.93 2.331c.251.22.283.567.094.819a.567.567 0 0 1-.472.22Z"/></svg>