<svg xmlns="http://www.w3.org/2000/svg" width="24" height="24" viewBox="0 0 24 24"><path d="M4.123 15.241a.464.464 0 0 0 0 .629.407.407 0 0 0 .596 0l3.368-3.556a.46.46 0 0 0 0-.628L4.719 8.13a.407.407 0 0 0-.596 0 .464.464 0 0 0 0 .629L7.194 12l-3.071 3.241ZM19.877 8.13a.464.464 0 0 1 0 .629L16.806 12l3.071 3.241a.464.464 0 0 1 0 .629.407.407 0 0 1-.596 0l-3.368-3.556a.46.46 0 0 1 0-.628l3.368-3.556a.407.407 0 0 1 .596 0ZM14.526 12c0 1.473-1.131 2.667-2.526 2.667-1.395 0-2.526-1.194-2.526-2.667 0-1.473 1.131-2.667 2.526-2.667 1.395 0 2.526 1.194 2.526 2.667Z"/></svg>