<svg xmlns="http://www.w3.org/2000/svg" width="24" height="24" viewBox="0 0 24 24"><path d="M8.44 20v-.941c.868-.032 1.376-.094 1.556-.188.149-.063.269-.22.329-.44.09-.345.119-1.317.119-2.949v-6.87c0-1.851 0-2.918-.029-3.137H8.859c-.778 0-1.496.031-2.094.094-.239 0-.359.031-.389.094-.06.031-.12.157-.15.376-.089.534-.149 1.13-.149 1.82h-.898C5.15 6.29 5.12 5.412 5.12 5.192c-.03-.314-.06-.69-.12-1.067L5.09 4c.359.031.718.063 1.107.094.628 0 1.824.031 3.589.031h4.428c1.824 0 3.051-.031 3.649-.031.359-.031.688-.063 1.017-.094l.12.125c-.06.471-.12.879-.12 1.224 0 .063-.03.878-.06 2.51h-.897c0-.596-.06-1.161-.15-1.726-.029-.251-.089-.439-.119-.47-.06-.063-.18-.063-.359-.094a20.98 20.98 0 0 0-2.154-.094h-1.556c-.029.282-.029 1.317-.029 3.137v6.839c0 1.663.029 2.667.119 2.98.06.22.15.345.329.44.15.094.688.156 1.556.188V20a81.952 81.952 0 0 0-3.56-.094c-1.017 0-2.214.031-3.56.094Z"/></svg>