<svg xmlns="http://www.w3.org/2000/svg" width="24" height="25" viewBox="0 0 24 25"><path d="M13.243 5.687c-3.118 0-5.669 2.551-5.669 5.669 0 .264.018.524.053.778l-2.352-1.497c.365-4.074 3.801-7.281 7.968-7.281 4.409 0 8 3.591 8 8 0 4.41-3.591 8-8 8a7.952 7.952 0 0 1-3.856-.992l2.401-1.529c.465.124.953.191 1.455.191 3.118 0 5.669-2.551 5.669-5.67 0-3.118-2.551-5.669-5.669-5.669ZM2.757 20.9V10.718l8 5.091Zm10.014-10.268V8.301c0-.315.251-.598.598-.598.315 0 .567.283.567.598v2.034l2.709 2.155a.597.597 0 0 1 .094.819.566.566 0 0 1-.472.221.476.476 0 0 1-.347-.126l-2.888-2.298a.555.555 0 0 1-.261-.474Z"/></svg>