<svg xmlns="http://www.w3.org/2000/svg" width="24" height="24" viewBox="0 0 24 24"><path d="M19.928 10.412c-.347-1.994-2.334-2.959-4.162-2.799-.6-3.473-6.086-3.506-6.559.033-1.356-.033-2.365.868-2.68 2.219-1.419.193-2.46 1.255-2.523 2.766-.094 1.608 1.388 2.702 2.807 2.799.473.032.473-.708 0-.74-2.712-.129-2.712-3.989 0-4.15h.031c.158 0 .284-.064.315-.257.032-.161.064-.321.095-.45.284-.901.914-1.448 1.829-1.48h.441c.221.032.316-.128.316-.321.031 0 .031-.033.031-.065.126-3.055 5.045-3.055 5.266 0v.097c.031.032.031.064.063.096 0 .032.032.032.032.065.031 0 .031 0 .031.032.063.064.158.096.284.096h.031c3.879-.74 5.172 4.825 1.388 5.951v.032c-.442.129-.252.804.189.675 2.018-.611 3.153-2.444 2.775-4.599Zm-7.379-.032c-.157-.225-.441-.225-.599 0-.63.9-1.292 1.801-1.923 2.702-.095.16-.063.321.031.418a.398.398 0 0 0 .284.128h1.261v4.568c0 .45.284.804.663.804.346 0 .63-.354.63-.804v-4.568h1.262c.252 0 .472-.321.315-.546a141.977 141.977 0 0 0-1.924-2.702Z"/></svg>