<svg xmlns="http://www.w3.org/2000/svg" width="24" height="24" viewBox="0 0 24 24"><path d="M19.662 16.204c-.481-.722-2.084-1.192-3.686-1.82-1.571-.658-1.956-.878-1.956-.878L13.988 12s.609-.439.801-1.851c.353.094.77-.565.77-.91.032-.314-.032-1.223-.513-1.129.096-.69.16-1.318.128-1.663C15.078 5.255 13.86 4 12 4c-1.86 0-3.078 1.255-3.174 2.447-.032.345.032.973.128 1.663-.481-.094-.545.815-.513 1.129 0 .345.417 1.004.77.91.192 1.412.801 1.851.801 1.851l-.032 1.506s-.385.22-1.955.878c-1.604.628-3.207 1.098-3.687 1.82-.449.659-.321 3.796-.321 3.796h15.966s.128-3.137-.321-3.796Z"/></svg>