<svg xmlns="http://www.w3.org/2000/svg" width="24" height="24" viewBox="0 0 24 24"><path d="M14.022 5.022a3.515 3.515 0 0 1 4.956 0 3.515 3.515 0 0 1 0 4.956 3.515 3.515 0 0 1-4.956 0 3.515 3.515 0 0 1 0-4.956Zm2.896 0h-.73c-.206 0-.234.124-.234.193v.069l.151 2.739c.028.193.111.234.262.234h.386c.151 0 .233-.041.247-.248l.152-2.643.014-.082v-.069c0-.069-.028-.193-.248-.193Zm-1.046 4.419c0 .372.302.675.688.675a.688.688 0 0 0 .688-.675.682.682 0 0 0-.688-.688.681.681 0 0 0-.688.688Z"/><path d="M11 6c.439 0 .837.08 1.186.217a4.494 4.494 0 0 0 1.686 4.936c-.127.158-.285.266-.431.227-.169 1.236-.702 1.62-.702 1.62l.028 1.318s.337.192 1.712.768c.266.105.532.204.792.301 1.107.413 2.093.78 2.434 1.291.392.577.28 3.322.28 3.322H4.015s-.112-2.745.28-3.322c.341-.511 1.327-.878 2.434-1.291.26-.097.526-.196.792-.301 1.375-.576 1.712-.768 1.712-.768L9.261 13s-.533-.384-.702-1.62c-.308.083-.673-.494-.673-.796-.028-.274.028-1.07.449-.988-.084-.604-.14-1.153-.112-1.455C8.307 7.098 9.373 6 11 6Z"/></svg>