<svg xmlns="http://www.w3.org/2000/svg" width="24" height="24" viewBox="0 0 24 24"><path d="M13.218 16.996v-1.012h5.338c-.597-.588-1.947-1.045-3.297-1.6-1.507-.653-1.853-.882-1.853-.882V12s.534-.457.723-1.861c.345.098.722-.555.753-.882 0-.326-.063-1.241-.502-1.143.094-.718.157-1.338.125-1.665C14.411 5.273 13.249 4 11.522 4 9.764 4 8.634 5.273 8.508 6.449c-.031.327.032.947.126 1.665-.44-.098-.503.817-.471 1.143 0 .327.377.98.722.882.188 1.404.754 1.861.754 1.861l-.032 1.502s-.345.229-1.852.882c-1.476.62-3.015 1.077-3.454 1.828-.408.653-.283 3.788-.283 3.788h9.2v-3.004Zm.973 1.992v-1.992H20v1.992h-5.809Z"/></svg>