<svg xmlns="http://www.w3.org/2000/svg" width="24" height="24" viewBox="0 0 24 24"><path d="M6.75 10.082c.312-.773.812-1.453 1.406-2.072A6.942 6.942 0 0 1 13.062 6c1.844 0 3.594.711 4.907 2.01A6.747 6.747 0 0 1 20 12.866a6.676 6.676 0 0 1-2.031 4.825c-.219.216-.5.309-.75.309-.281 0-.563-.093-.75-.309a1.003 1.003 0 0 1 0-1.485 4.655 4.655 0 0 0 1.406-3.34c0-1.268-.5-2.474-1.406-3.371a4.826 4.826 0 0 0-3.407-1.392 4.75 4.75 0 0 0-3.374 1.392 4.605 4.605 0 0 0-1.313 2.412l2.281 2.536H4V7.052l2.75 3.03Z"/></svg>