<svg xmlns="http://www.w3.org/2000/svg" width="24" height="24" viewBox="0 0 24 24"><path d="M6.743 12.438V4h1.782v8.438c0 .593.089 1.124.237 1.593.149.5.387.907.684 1.281a2.94 2.94 0 0 0 1.099.813c.415.187.92.281 1.455.281.564 0 1.04-.094 1.455-.281a2.95 2.95 0 0 0 1.1-.813c.296-.343.534-.781.683-1.25.148-.5.237-1.031.237-1.593V4h1.782v8.438a6.84 6.84 0 0 1-.356 2.25 5.392 5.392 0 0 1-1.04 1.75c-.445.5-1.01.906-1.663 1.187a5.44 5.44 0 0 1-2.198.437 5.547 5.547 0 0 1-2.198-.437c-.653-.281-1.188-.687-1.663-1.187a5.392 5.392 0 0 1-1.04-1.75 6.84 6.84 0 0 1-.356-2.25ZM6 19h12v1H6v-1Z"/></svg>