<svg xmlns="http://www.w3.org/2000/svg" width="24" height="24" viewBox="0 0 24 24"><path d="M8.957 5.538H20v2.154H8.957V5.538ZM7.012 6.615c0 .909-.69 1.616-1.506 1.616C4.659 8.231 4 7.524 4 6.615 4 5.707 4.659 5 5.506 5c.816 0 1.506.707 1.506 1.615Zm1.945 4.308H20v2.154H8.957v-2.154ZM7.012 12c0 .909-.69 1.615-1.506 1.615C4.659 13.615 4 12.909 4 12s.659-1.615 1.506-1.615c.816 0 1.506.706 1.506 1.615Zm1.945 4.308H20v2.154H8.957v-2.154Zm-1.945 1.077c0 .908-.69 1.615-1.506 1.615C4.659 19 4 18.293 4 17.385c0-.909.659-1.616 1.506-1.616.816 0 1.506.707 1.506 1.616Z"/></svg>