<svg xmlns="http://www.w3.org/2000/svg" width="24" height="24" viewBox="0 0 24 24"><path d="M14.867 17.984H12.8v-4h2.067v-.094c-.678-.284-.872-.41-.872-.41V12s.613-.441.775-1.858c.387.094.775-.536.807-.882 0-.347-.065-1.26-.517-1.166.097-.692.162-1.291.13-1.637C15.06 5.26 13.866 4 11.993 4c-1.872 0-3.067 1.26-3.196 2.457-.032.346.032.945.129 1.637C8.474 8 8.41 8.913 8.41 9.26c.032.346.419.976.807.882.161 1.417.775 1.858.775 1.858v1.48s-.388.252-2.002.882c-1.582.662-3.196 1.103-3.681 1.827-.419.661-.29 3.811-.29 3.811h10.848v-2.016Zm3.067 1.008H15.9v-6.016h2.034v6.016Zm-4.1-1.984v-2.016H20v2.016h-6.166Z"/></svg>