<svg xmlns="http://www.w3.org/2000/svg" width="24" height="24" viewBox="0 0 24 24"><path d="M18.821 10.11a.76.76 0 0 1-.111 1.089.9.9 0 0 1-1.172-.033L13 6.931l-4.538 4.235-.08.066a.905.905 0 0 1-1.168-.104.765.765 0 0 1 .036-1.094l5.144-4.8.081-.066a.888.888 0 0 1 .579-.166.887.887 0 0 1 .552.232l5.144 4.8.071.076ZM7.179 15.89a.76.76 0 0 1 .111-1.089.9.9 0 0 1 1.172.033L13 19.069l4.538-4.235.08-.066a.907.907 0 0 1 .606-.164c.217.02.418.115.561.268a.762.762 0 0 1-.035 1.094l-5.144 4.8-.081.066a.894.894 0 0 1-.579.166.881.881 0 0 1-.552-.232l-5.144-4.8-.071-.076Z"/></svg>