<svg width="24" height="24" viewBox="0 0 24 24" fill="none" xmlns="http://www.w3.org/2000/svg">
<path d="M5.21967 6.21967C5.36032 6.07902 5.55109 6 5.75 6H18.25C18.4489 6 18.6397 6.07902 18.7803 6.21967C18.921 6.36032 19 6.55109 19 6.75C19 6.94891 18.921 7.13968 18.7803 7.28033C18.6397 7.42098 18.4489 7.5 18.25 7.5H5.75C5.55109 7.5 5.36032 7.42098 5.21967 7.28033C5.07902 7.13968 5 6.94891 5 6.75C5 6.55109 5.07902 6.36032 5.21967 6.21967Z" fill="#636C76"/>
<path fill-rule="evenodd" clip-rule="evenodd" d="M3.75 2C2.784 2 2 2.784 2 3.75V20.25C2 20.7141 2.18437 21.1592 2.51256 21.4874C2.84075 21.8156 3.28587 22 3.75 22H20.25C20.7141 22 21.1592 21.8156 21.4874 21.4874C21.8156 21.1592 22 20.7141 22 20.25V3.75C22 2.784 21.216 2 20.25 2H3.75ZM3.57322 3.57322C3.62011 3.52634 3.6837 3.5 3.75 3.5H20.25C20.3163 3.5 20.3799 3.52634 20.4268 3.57322C20.4737 3.62011 20.5 3.6837 20.5 3.75V20.25C20.5 20.3163 20.4737 20.3799 20.4268 20.4268C20.3799 20.4737 20.3163 20.5 20.25 20.5H3.75C3.612 20.5 3.5 20.388 3.5 20.25V3.75C3.5 3.6837 3.52634 3.62011 3.57322 3.57322Z" fill="#636C76"/>
<path d="M5.21967 9.71967C5.36032 9.57902 5.55109 9.5 5.75 9.5H18.25C18.4489 9.5 18.6397 9.57902 18.7803 9.71967C18.921 9.86032 19 10.0511 19 10.25C19 10.4489 18.921 10.6397 18.7803 10.7803C18.6397 10.921 18.4489 11 18.25 11H5.75C5.55109 11 5.36032 10.921 5.21967 10.7803C5.07902 10.6397 5 10.4489 5 10.25C5 10.0511 5.07902 9.86032 5.21967 9.71967Z" fill="#636C76"/>
<path d="M5.21967 13.2197C5.36032 13.079 5.55109 13 5.75 13H18.25C18.4489 13 18.6397 13.079 18.7803 13.2197C18.921 13.3603 19 13.5511 19 13.75C19 13.9489 18.921 14.1397 18.7803 14.2803C18.6397 14.421 18.4489 14.5 18.25 14.5H5.75C5.55109 14.5 5.36032 14.421 5.21967 14.2803C5.07902 14.1397 5 13.9489 5 13.75C5 13.5511 5.07902 13.3603 5.21967 13.2197Z" fill="#636C76"/>
<path d="M5.21967 16.7197C5.36032 16.579 5.55109 16.5 5.75 16.5H18.25C18.4489 16.5 18.6397 16.579 18.7803 16.7197C18.921 16.8603 19 17.0511 19 17.25C19 17.4489 18.921 17.6397 18.7803 17.7803C18.6397 17.921 18.4489 18 18.25 18H5.75C5.55109 18 5.36032 17.921 5.21967 17.7803C5.07902 17.6397 5 17.4489 5 17.25C5 17.0511 5.07902 16.8603 5.21967 16.7197Z" fill="#636C76"/>
</svg>
