<svg width="16" height="16" viewBox="0 0 16 16" fill="none" xmlns="http://www.w3.org/2000/svg">
<g clip-path="url(#clip0_35_1759)">
<path d="M0 1.75C0 0.784 0.784 0 1.75 0H14.25C15.216 0 16 0.784 16 1.75V14.25C16 14.7141 15.8156 15.1592 15.4874 15.4874C15.1592 15.8156 14.7141 16 14.25 16H1.75C1.28587 16 0.840752 15.8156 0.512563 15.4874C0.184374 15.1592 0 14.7141 0 14.25V1.75ZM1.75 1.5C1.6837 1.5 1.62011 1.52634 1.57322 1.57322C1.52634 1.62011 1.5 1.6837 1.5 1.75V14.25C1.5 14.388 1.612 14.5 1.75 14.5H14.25C14.3163 14.5 14.3799 14.4737 14.4268 14.4268C14.4737 14.3799 14.5 14.3163 14.5 14.25V1.75C14.5 1.6837 14.4737 1.62011 14.4268 1.57322C14.3799 1.52634 14.3163 1.5 14.25 1.5H1.75Z" fill="#1F2328"/>
<path fill-rule="evenodd" clip-rule="evenodd" d="M14.3002 1.5051C14.284 1.50176 14.2672 1.5 14.25 1.5H1.75C1.6837 1.5 1.62011 1.52634 1.57322 1.57322C1.52634 1.62011 1.5 1.6837 1.5 1.75V14.25C1.5 14.2551 1.50016 14.2603 1.50047 14.2654C1.50306 14.3074 1.51622 14.3479 1.53842 14.3832C1.55838 14.4148 1.58523 14.4416 1.61685 14.4616C1.65296 14.4843 1.69452 14.4976 1.7376 14.4997C1.74172 14.4999 1.74586 14.5 1.75 14.5H14.25C14.3163 14.5 14.3799 14.4737 14.4268 14.4268C14.4737 14.3799 14.5 14.3163 14.5 14.25V1.75C14.5 1.73005 14.4976 1.71064 14.4932 1.69201C14.4825 1.6474 14.4597 1.60618 14.4268 1.57322C14.3919 1.53836 14.3478 1.51486 14.3002 1.5051ZM13.2811 5.12445C13.4181 4.95333 13.5 4.73623 13.5 4.5V3.5C13.5 3.31786 13.4513 3.14709 13.3662 3C13.2784 2.84819 13.1518 2.7216 13 2.63378C12.8529 2.5487 12.6821 2.5 12.5 2.5H9.5C9.26377 2.5 9.04667 2.58192 8.87555 2.71889C8.77856 2.79653 8.69633 2.89187 8.63378 3C8.5487 3.14709 8.5 3.31786 8.5 3.5V4.5C8.5 4.73623 8.58192 4.95333 8.71889 5.12445C8.76517 5.18226 8.81774 5.23483 8.87555 5.28111C9.04667 5.41808 9.26377 5.5 9.5 5.5H12.5C12.6821 5.5 12.8529 5.4513 13 5.36622C13.1081 5.30367 13.2035 5.22144 13.2811 5.12445ZM13 6.63378C12.8529 6.5487 12.6821 6.5 12.5 6.5H9.5C9.26377 6.5 9.04667 6.58192 8.87555 6.71889C8.81774 6.76517 8.76517 6.81774 8.71889 6.87555C8.58192 7.04667 8.5 7.26377 8.5 7.5V8.5C8.5 8.81605 8.64662 9.09785 8.87555 9.28111C9.04667 9.41808 9.26377 9.5 9.5 9.5H12.5C12.6821 9.5 12.8529 9.4513 13 9.36622C13.2989 9.19331 13.5 8.87014 13.5 8.5V7.5C13.5 7.26377 13.4181 7.04667 13.2811 6.87555C13.2035 6.77856 13.1081 6.69633 13 6.63378ZM7.28111 9.12445C7.41808 8.95333 7.5 8.73623 7.5 8.5V7.5C7.5 7.26377 7.41809 7.04667 7.28111 6.87555C7.23483 6.81773 7.18227 6.76517 7.12445 6.71889C6.95333 6.58191 6.73623 6.5 6.5 6.5H3.5C3.31786 6.5 3.14709 6.5487 3 6.63378C2.89186 6.69634 2.79653 6.77856 2.71889 6.87555C2.58191 7.04667 2.5 7.26377 2.5 7.5V8.5C2.5 8.73623 2.58192 8.95333 2.71889 9.12445C2.79653 9.22144 2.89187 9.30367 3 9.36622C3.14709 9.4513 3.31786 9.5 3.5 9.5H6.5C6.73623 9.5 6.95333 9.41808 7.12445 9.28111C7.18226 9.23483 7.23483 9.18226 7.28111 9.12445ZM7.28111 10.8756C7.09785 10.6466 6.81605 10.5 6.5 10.5H3.5C3.31786 10.5 3.14709 10.5487 3 10.6338C2.89187 10.6963 2.79653 10.7786 2.71889 10.8756C2.58192 11.0467 2.5 11.2638 2.5 11.5V12.5C2.5 12.6821 2.5487 12.8529 2.63378 13C2.7216 13.1518 2.84819 13.2784 3 13.3662C3.14709 13.4513 3.31786 13.5 3.5 13.5H6.5C6.87014 13.5 7.19331 13.2989 7.36622 13C7.4513 12.8529 7.5 12.6821 7.5 12.5V11.5C7.5 11.2638 7.41808 11.0467 7.28111 10.8756ZM3 5.36622C3.14709 5.4513 3.31786 5.5 3.5 5.5H6.5C6.73623 5.5 6.95333 5.41809 7.12445 5.28111C7.18227 5.23483 7.23483 5.18227 7.28111 5.12445C7.41809 4.95333 7.5 4.73623 7.5 4.5V3.5C7.5 3.31786 7.4513 3.14709 7.36622 3C7.30366 2.89186 7.22144 2.79653 7.12445 2.71889C6.95333 2.58191 6.73623 2.5 6.5 2.5H3.5C3.31786 2.5 3.14709 2.5487 3 2.63378C2.84819 2.7216 2.7216 2.84819 2.63378 3C2.5487 3.14709 2.5 3.31786 2.5 3.5V4.5C2.5 4.73623 2.58191 4.95333 2.71889 5.12445C2.79653 5.22144 2.89186 5.30366 3 5.36622ZM0.816909 0.269506C1.08704 0.0988146 1.40705 0 1.75 0H14.25C14.5916 0 14.9105 0.0980685 15.18 0.267567C15.2915 0.337696 15.3946 0.42005 15.4873 0.51275C15.58 0.60545 15.6623 0.708495 15.7324 0.819993C15.9019 1.08948 16 1.40835 16 1.75V14.25C16 14.7141 15.8156 15.1592 15.4874 15.4874C15.1592 15.8156 14.7141 16 14.25 16H1.75C1.33754 16 0.940096 15.8544 0.626386 15.5916C0.587086 15.5587 0.5491 15.524 0.512563 15.4874C0.476026 15.4509 0.441273 15.4129 0.408357 15.3736C0.145608 15.0599 0 14.6625 0 14.25V1.75C0 1.40705 0.0988146 1.08704 0.269506 0.816909C0.339212 0.706593 0.420905 0.604595 0.51275 0.51275C0.604595 0.420905 0.706593 0.339212 0.816909 0.269506Z" fill="#1F2328"/>
</g>
<defs>
<clipPath id="clip0_35_1759">
<rect width="16" height="16" fill="white"/>
</clipPath>
</defs>
</svg>
