<svg xmlns="http://www.w3.org/2000/svg" width="16" height="16" viewBox="0 0 16 16"><path d="M0 1.75C0 .784.784 0 1.75 0h12.5C15.216 0 16 .784 16 1.75v12.5c0 .464-.184.909-.513 1.237A1.746 1.746 0 0 1 14.25 16H1.75c-.464 0-.909-.184-1.237-.513A1.746 1.746 0 0 1 0 14.25Zm1.75-.25a.25.25 0 0 0-.25.25v12.5c0 .138.112.25.25.25h12.5a.25.25 0 0 0 .25-.25V1.75a.25.25 0 0 0-.25-.25Z"/><path d="M3.22 12.22a.747.747 0 0 1 .53-.22h8.5c.199 0 .39.079.53.22a.747.747 0 0 1 0 1.06.747.747 0 0 1-.53.22h-8.5a.747.747 0 0 1-.53-.22.747.747 0 0 1 0-1.06Zm0-6A.747.747 0 0 1 3.75 6h8.5c.199 0 .39.079.53.22a.747.747 0 0 1 0 1.06.747.747 0 0 1-.53.22h-8.5a.747.747 0 0 1-.53-.22.747.747 0 0 1 0-1.06Zm0 3A.747.747 0 0 1 3.75 9h8.5c.199 0 .39.079.53.22a.747.747 0 0 1 0 1.06.747.747 0 0 1-.53.22h-8.5a.747.747 0 0 1-.53-.22.747.747 0 0 1 0-1.06Zm0-6A.747.747 0 0 1 3.75 3h8.5c.199 0 .39.079.53.22a.747.747 0 0 1 0 1.06.747.747 0 0 1-.53.22h-8.5a.747.747 0 0 1-.53-.22.747.747 0 0 1 0-1.06Z"/></svg>