<svg xmlns="http://www.w3.org/2000/svg" width="24" height="24" viewBox="0 0 24 24"><path d="M5.22 6.22A.747.747 0 0 1 5.75 6h12.5c.199 0 .39.079.53.22a.747.747 0 0 1 0 1.06.747.747 0 0 1-.53.22H5.75a.747.747 0 0 1-.53-.22.747.747 0 0 1 0-1.06Z"/><path d="M3.75 2h16.5c.966 0 1.75.784 1.75 1.75v16.5c0 .464-.184.909-.513 1.237A1.746 1.746 0 0 1 20.25 22H3.75c-.464 0-.909-.184-1.237-.513A1.746 1.746 0 0 1 2 20.25V3.75C2 2.784 2.784 2 3.75 2Zm-.177 1.573a.25.25 0 0 0-.073.177v16.5c0 .138.112.25.25.25h16.5a.25.25 0 0 0 .25-.25V3.75a.25.25 0 0 0-.25-.25H3.75a.25.25 0 0 0-.177.073Z"/><path d="M5.22 9.72a.747.747 0 0 1 .53-.22h12.5c.199 0 .39.079.53.22a.747.747 0 0 1 0 1.06.747.747 0 0 1-.53.22H5.75a.747.747 0 0 1-.53-.22.747.747 0 0 1 0-1.06Zm0 3.5a.747.747 0 0 1 .53-.22h12.5c.199 0 .39.079.53.22a.747.747 0 0 1 0 1.06.747.747 0 0 1-.53.22H5.75a.747.747 0 0 1-.53-.22.747.747 0 0 1 0-1.06Zm0 3.5a.747.747 0 0 1 .53-.22h12.5c.199 0 .39.079.53.22a.747.747 0 0 1 0 1.06.747.747 0 0 1-.53.22H5.75a.747.747 0 0 1-.53-.22.747.747 0 0 1 0-1.06Z"/></svg>