<svg xmlns="http://www.w3.org/2000/svg" width="16" height="16" viewBox="0 0 16 16"><path d="M0 1.75C0 .784.784 0 1.75 0h12.5C15.216 0 16 .784 16 1.75v12.5c0 .464-.184.909-.513 1.237A1.746 1.746 0 0 1 14.25 16H1.75c-.464 0-.909-.184-1.237-.513A1.746 1.746 0 0 1 0 14.25Zm1.75-.25a.25.25 0 0 0-.25.25v12.5c0 .138.112.25.25.25h12.5a.25.25 0 0 0 .25-.25V1.75a.25.25 0 0 0-.25-.25Z"/><path d="M0 1.75C0 .784.784 0 1.75 0h12.5C15.216 0 16 .784 16 1.75v12.5c0 .464-.184.909-.513 1.237A1.746 1.746 0 0 1 14.25 16H1.75c-.464 0-.909-.184-1.237-.513A1.746 1.746 0 0 1 0 14.25Zm1.75-.25a.25.25 0 0 0-.25.25v12.5c0 .138.112.25.25.25h12.5a.25.25 0 0 0 .25-.25V1.75a.25.25 0 0 0-.25-.25Z"/><path d="M7.061 8.939a.75.75 0 0 1 0 1.061L5.52 11.541h1.2a.75.75 0 0 1 0 1.5H3.709a.75.75 0 0 1-.75-.75V9.28a.75.75 0 0 1 1.5 0v1.2L6 8.939a.75.75 0 0 1 1.061 0ZM8.98 7.061A.75.75 0 0 1 8.98 6l1.5-1.5h-1.2a.75.75 0 0 1 0-1.5h3.011a.75.75 0 0 1 .75.75v3.01a.75.75 0 1 1-1.5 0V5.561l-1.5 1.5a.75.75 0 0 1-1.061 0Z"/></svg>