<svg xmlns="http://www.w3.org/2000/svg" width="16" height="16" viewBox="0 0 16 16"><path d="M.523 15.478A1.716 1.716 0 0 1 0 14.222V1.778Q0 1.044.523.523A1.715 1.715 0 0 1 1.778 0h12.444c.489 0 .908.174 1.256.523.348.347.521.764.522 1.25v12.449c0 .489-.174.908-.522 1.256a1.704 1.704 0 0 1-1.251.522H1.778a1.71 1.71 0 0 1-1.255-.522Zm13.699-1.256V1.778H1.778v12.444ZM12 10.667H9.556a.649.649 0 0 1-.478-.189q-.189-.189-.189-.478V6a.65.65 0 0 1 .667-.667H12c.371.001.686.131.945.39.259.259.388.573.388.944v2.666c.001.371-.129.686-.388.945a1.29 1.29 0 0 1-.945.389ZM7.111 6.222v3.556a.856.856 0 0 1-.256.633.867.867 0 0 1-.633.256H3.778q-.289 0-.478-.19A.654.654 0 0 1 3.111 10a.643.643 0 0 1 .667-.667h2V8.7H4.5a.647.647 0 0 1-.667-.667.651.651 0 0 1 .667-.667h1.278v-.699h-2A.643.643 0 0 1 3.111 6a.644.644 0 0 1 .667-.667h2.444a.867.867 0 0 1 .633.256c.171.17.256.381.256.633Zm3.111.445v2.666H12V6.667Z"/></svg>