<svg width="16" height="16" viewBox="0 0 16 16" fill="none" xmlns="http://www.w3.org/2000/svg">
<g clip-path="url(#clip0_259_6638)">
<path fill-rule="evenodd" clip-rule="evenodd" d="M12 10.6667H9.55556C9.36355 10.6673 9.20444 10.6044 9.07822 10.4782C8.952 10.352 8.88889 10.1926 8.88889 10V6C8.88948 5.808 8.95259 5.64889 9.07822 5.52267C9.20385 5.39644 9.36296 5.33333 9.55556 5.33333H12C12.371 5.33393 12.6859 5.4637 12.9449 5.72267C13.2038 5.98163 13.3333 6.2963 13.3333 6.66667V9.33333C13.3339 9.7043 13.2044 10.0193 12.9449 10.2782C12.6853 10.5372 12.3704 10.6667 12 10.6667ZM10.2222 6.66667V9.33333H12V6.66667H10.2222ZM0.522667 15.4782C0.870519 15.8261 1.28889 16 1.77778 16H14.2222C14.7117 16.0006 15.1304 15.8267 15.4782 15.4782C15.8261 15.1298 16 14.7111 16 14.2222V1.77778C16.0006 1.28948 15.8267 0.871111 15.4782 0.522667C15.1298 0.174222 14.7111 0 14.2222 0H1.77778C1.28948 0.000592593 0.871111 0.174815 0.522667 0.522667C0.174222 0.870519 0 1.28889 0 1.77778V14.2222C0.000592593 14.7117 0.174815 15.1304 0.522667 15.4782ZM14.2222 14.2222H1.77778V1.77778H14.2222V14.2222ZM7.11111 7.55554V6.2222C7.11111 5.97035 7.02577 5.75939 6.8551 5.58931C6.68444 5.41924 6.47348 5.33391 6.22222 5.33331H3.77777C3.58518 5.33331 3.42607 5.39642 3.30044 5.52265C3.17481 5.64887 3.1117 5.80798 3.1111 5.99998C3.11051 6.19198 3.17362 6.35139 3.30044 6.4782C3.42725 6.60502 3.58636 6.66783 3.77777 6.66665H5.77777V7.3662H4.49998C4.30739 7.3662 4.14828 7.42931 4.02265 7.55554C3.89702 7.68176 3.83391 7.84087 3.83332 8.03287C3.83273 8.22487 3.89584 8.38428 4.02265 8.51109C4.14947 8.63791 4.30858 8.70072 4.49998 8.69954H5.77777V9.33335H3.77777C3.58636 9.33217 3.42725 9.39498 3.30044 9.5218C3.17362 9.64861 3.11051 9.80802 3.1111 10C3.1117 10.192 3.17481 10.3511 3.30044 10.4774C3.42607 10.6036 3.58518 10.6667 3.77777 10.6667H6.22222C6.47347 10.6661 6.68444 10.5808 6.8551 10.4107C7.02577 10.2406 7.11111 10.0296 7.11111 9.7778V7.55554Z" fill="#1F2328"/>
</g>
<defs>
<clipPath id="clip0_259_6638">
<rect width="16" height="16" fill="white"/>
</clipPath>
</defs>
</svg>
