<svg xmlns="http://www.w3.org/2000/svg" width="16" height="16" viewBox="0 0 16 16"><path d="M0 1.75C0 .784.784 0 1.75 0h12.5C15.216 0 16 .784 16 1.75v12.5c0 .464-.184.909-.513 1.237A1.746 1.746 0 0 1 14.25 16H1.75c-.464 0-.909-.184-1.237-.513A1.746 1.746 0 0 1 0 14.25Zm1.75-.25a.25.25 0 0 0-.25.25v12.5c0 .138.112.25.25.25h12.5a.25.25 0 0 0 .25-.25V1.75a.25.25 0 0 0-.25-.25Z"/><path d="M7.26 3.201a1.497 1.497 0 0 1 1.5 0l3.51 1.18a1.498 1.498 0 0 1 .75 1.3v4.362a1.497 1.497 0 0 1-.75 1.299l-3.51 1.18a1.497 1.497 0 0 1-1.5 0l-3.51-1.18a1.494 1.494 0 0 1-.75-1.3v-4.36a1.5 1.5 0 0 1 .75-1.3l3.511-1.18ZM4.501 6.547v3.496l2.76.748V7.296Zm4.26 4.243 2.758-.747V6.549l-2.758.747Zm2.01-5.541L8.01 4.5l-2.76.748 2.761.749Z"/></svg>