<svg xmlns="http://www.w3.org/2000/svg" width="16" height="16" viewBox="0 0 16 16"><path d="M0 1.75C0 .784.784 0 1.75 0h12.5C15.216 0 16 .784 16 1.75v12.5c0 .464-.184.909-.513 1.237A1.746 1.746 0 0 1 14.25 16H1.75c-.464 0-.909-.184-1.237-.513A1.746 1.746 0 0 1 0 14.25Zm1.75-.25a.25.25 0 0 0-.25.25v12.5c0 .138.112.25.25.25h12.5a.25.25 0 0 0 .25-.25V1.75a.25.25 0 0 0-.25-.25Z"/><path d="M.817.27c.27-.171.59-.27.933-.27h12.5a1.737 1.737 0 0 1 1.237.513A1.735 1.735 0 0 1 16 1.75v12.5c0 .464-.184.909-.513 1.237A1.746 1.746 0 0 1 14.25 16H1.75a1.756 1.756 0 0 1-1.342-.626A1.754 1.754 0 0 1 0 14.25V1.75A1.738 1.738 0 0 1 .513.513C.605.421.707.339.817.27ZM14.3 1.505a.273.273 0 0 0-.05-.005H1.75a.25.25 0 0 0-.25.25v12.515a.257.257 0 0 0 .117.197.257.257 0 0 0 .121.038H14.25a.25.25 0 0 0 .25-.25V1.75a.243.243 0 0 0-.073-.177.25.25 0 0 0-.127-.068ZM3 5.366a1.003 1.003 0 0 1-.5-.866v-1a.997.997 0 0 1 .5-.866.997.997 0 0 1 .5-.134h3a.995.995 0 0 1 .866.5.997.997 0 0 1 .134.5v1a.995.995 0 0 1-.376.781.995.995 0 0 1-.624.219h-3a.997.997 0 0 1-.5-.134Zm4.281 3.758A.995.995 0 0 1 6.5 9.5h-3a.997.997 0 0 1-.781-.376A.995.995 0 0 1 2.5 8.5v-1a.995.995 0 0 1 .5-.866.997.997 0 0 1 .5-.134h3a.995.995 0 0 1 .781.376.995.995 0 0 1 .219.624v1a.995.995 0 0 1-.219.624ZM13 6.634a1.003 1.003 0 0 1 .5.866v1a1 1 0 0 1-1 1h-3a.998.998 0 0 1-1-1v-1a.995.995 0 0 1 .376-.781A.995.995 0 0 1 9.5 6.5h3c.182 0 .353.049.5.134Zm.281-1.51a1.003 1.003 0 0 1-.781.376h-3a.995.995 0 0 1-.781-.376A.995.995 0 0 1 8.5 4.5v-1a.997.997 0 0 1 .376-.781A.995.995 0 0 1 9.5 2.5h3a.997.997 0 0 1 .866.5.997.997 0 0 1 .134.5v1a.995.995 0 0 1-.219.624Zm-6 5.752a.995.995 0 0 1 .219.624v1a1 1 0 0 1-1 1h-3a.997.997 0 0 1-.866-.5.997.997 0 0 1-.134-.5v-1a.995.995 0 0 1 .5-.866.997.997 0 0 1 .5-.134h3c.316 0 .598.147.781.376Z"/></svg>