<svg xmlns="http://www.w3.org/2000/svg" width="16" height="16" viewBox="0 0 16 16"><path d="M1.75 0h12.5C15.216 0 16 .784 16 1.75v12.5c0 .464-.184.909-.513 1.237A1.746 1.746 0 0 1 14.25 16H1.75c-.464 0-.909-.184-1.237-.513A1.746 1.746 0 0 1 0 14.25V1.75C0 .784.784 0 1.75 0ZM1.5 1.75v12.5c0 .138.112.25.25.25H9.5v-13H1.75a.25.25 0 0 0-.25.25ZM11 14.5h3.25a.25.25 0 0 0 .25-.25V1.75a.25.25 0 0 0-.25-.25H11Z"/><path d="M4.668 5.201a1.497 1.497 0 0 1 1.5 0l1.602.75a1.498 1.498 0 0 1 .75 1.3v2.042a1.492 1.492 0 0 1-.75 1.299l-1.51.805a1.508 1.508 0 0 1-1.5 0l-1.51-.805a1.498 1.498 0 0 1-.75-1.3v-2.04a1.498 1.498 0 0 1 .75-1.301l1.419-.749Zm-.667 2.915v1.177l.76.373L4.76 8.55Zm2.26 1.549.758-.372V8.118l-.759.432Zm.01-2.846L5.418 6.5l-.668.318.76.433Z"/></svg>