<svg xmlns="http://www.w3.org/2000/svg" width="16" height="16" viewBox="0 0 16 16"><path d="M0 1.75C0 .784.784 0 1.75 0h12.5C15.216 0 16 .784 16 1.75v12.5c0 .464-.184.909-.513 1.237A1.746 1.746 0 0 1 14.25 16H1.75c-.464 0-.909-.184-1.237-.513A1.746 1.746 0 0 1 0 14.25Zm1.75-.25a.25.25 0 0 0-.25.25v12.5c0 .138.112.25.25.25h12.5a.25.25 0 0 0 .25-.25V1.75a.25.25 0 0 0-.25-.25Z"/><path d="M.22 12.22A.747.747 0 0 1 .75 12h10.5c.199 0 .39.079.53.22a.747.747 0 0 1 0 1.06.747.747 0 0 1-.53.22H.75a.747.747 0 0 1-.53-.22.747.747 0 0 1 0-1.06Zm4-6A.747.747 0 0 1 4.75 6h10.5c.199 0 .39.079.53.22a.747.747 0 0 1 0 1.06.747.747 0 0 1-.53.22H4.75a.747.747 0 0 1-.53-.22.747.747 0 0 1 0-1.06Zm2 3A.747.747 0 0 1 6.75 9h2.5c.199 0 .39.079.53.22a.747.747 0 0 1 0 1.06.747.747 0 0 1-.53.22h-2.5a.747.747 0 0 1-.53-.22.747.747 0 0 1 0-1.06Zm-6-6A.747.747 0 0 1 .75 3h5.5c.199 0 .39.079.53.22a.747.747 0 0 1 0 1.06.747.747 0 0 1-.53.22H.75a.747.747 0 0 1-.53-.22.747.747 0 0 1 0-1.06Z"/></svg>