<svg xmlns="http://www.w3.org/2000/svg" width="24" height="24" viewBox="0 0 24 24"><path d="m17.701 13.302-.095.19c-.567 2.572-2.897 4.317-5.575 4.317-1.385 0-2.708-.571-3.716-1.46l1.291-.92-4.787-2.254.441 5.174 1.102-.73A7.975 7.975 0 0 0 12.031 20c3.906 0 7.213-2.54 7.874-6.318l.095-.38h-2.299ZM6.394 10.794c.567-2.572 2.897-4.445 5.575-4.445 1.385 0 2.708.508 3.716 1.397l-1.291.889 4.787 1.936-.441-5.047-1.102.825A7.946 7.946 0 0 0 11.969 4c-3.906 0-7.213 2.794-7.875 6.571L4 11.238h2.299l.095-.444Z"/></svg>