<svg xmlns="http://www.w3.org/2000/svg" width="16" height="16" viewBox="0 0 16 16"><path d="M10.844.177a1.303 1.303 0 0 1 1.312 0l3.188 2.089c.406.236.656.673.656 1.146v4.176c0 .473-.25.91-.656 1.146l-3.188 2.089a1.304 1.304 0 0 1-1.312 0L9 9.615v2.973c0 .473-.25.91-.656 1.146l-3.188 2.089c-.2.117-.424.176-.648.177h-.016a1.294 1.294 0 0 1-.648-.177L.656 13.734A1.325 1.325 0 0 1 0 12.588V8.412c0-.473.25-.91.656-1.146l3.188-2.089a1.304 1.304 0 0 1 1.312 0L7 6.385V3.412c0-.473.25-.91.656-1.146Zm-6.25 5.982a.19.19 0 0 0-.188 0L1.687 7.975 4.5 9.846l2.813-1.871Zm7-5a.19.19 0 0 0-.188 0L8.687 2.975 11.5 4.846l2.813-1.871ZM1.125 12.588c0 .068.036.13.094.164l2.719 1.816v-3.74L1.125 8.957Zm6.656.164a.19.19 0 0 0 .094-.164V8.957l-2.812 1.871v3.74Zm7-5a.19.19 0 0 0 .094-.164V3.957l-2.813 1.871v3.74Zm-5.789.517 1.946 1.299v-3.74L8.125 3.957v3.165l.219.144c.365.212.604.586.648 1.003Z"/></svg>