<svg xmlns="http://www.w3.org/2000/svg" width="24" height="24" viewBox="0 0 24 24"><path d="M12 7.987C12 5.498 6.438 5 4 5v10.951h.5c.188 0 .344.031.5.031v.965c2 0 6-.591 6 .995h2V7.987c0-.654 1.062-1.929 6-1.991v5.942h1V5c-2.438 0-8 .498-8 2.987Zm-1 6.969v.466c-1.469-.871-4.188-.933-6-.964V5.996c.5.031.938.031 1.375.062.063 0 .156.031.25.031h.094c1.969.124 4.031.56 4.25 1.711a.55.55 0 0 1 .031.187v6.969Zm3.219 2.115-.157.965-.124.964.968-.124 1-.156-.844-.84-.843-.809Zm4.75-1.4-.281-.28-2.532 2.489-.25-.28 2.5-2.489-.562-.56-2.5 2.489-.282-.28 2.5-2.489-.281-.28L14.5 16.76l1.656 1.68 2.813-2.769Zm-.25-2.489a.433.433 0 0 0-.563-.031v.062l-.031-.031-.531.56 1.687 1.649.531-.529c0-.031.032-.031.032-.031a.394.394 0 0 0 0-.56l-1.125-1.089Z"/></svg>