<svg xmlns="http://www.w3.org/2000/svg" width="16" height="16" viewBox="0 0 16 16"><path d="M7.585 4.092a.665.665 0 0 1 .676 0l1.25.796a.683.683 0 0 1 .335.589v.506a.29.29 0 0 1-.288.292.29.29 0 0 1-.289-.292V5.76l-1.057.683V8.15c0 .3-.322.487-.578.337l-1.299-.825A.683.683 0 0 1 6 7.073V5.477c0-.243.128-.467.335-.589Zm.386.505a.097.097 0 0 0-.096 0l-1.012.656 1.06.684 1.06-.684ZM6.577 7.073c0 .034.018.066.048.084l1.01.655V6.443L6.577 5.76Z"/><path d="M9.588 8.507a.295.295 0 0 0 .01.413.286.286 0 0 0 .408-.011l.915-.973a.294.294 0 0 0 0-.402l-.915-.974a.287.287 0 0 0-.408-.01.295.295 0 0 0-.01.413l.451.48H8.788a.29.29 0 0 0-.288.292.29.29 0 0 0 .288.292h1.251l-.451.48Zm.258 4.436c.111.318.475.557 1.044.557.688 0 1.11-.358 1.11-.925 0-.44-.252-.688-.836-.81l-.291-.063c-.326-.068-.458-.178-.458-.357 0-.214.189-.354.474-.354.236 0 .414.09.506.309.065.125.145.179.275.179.147 0 .246-.098.246-.243a.425.425 0 0 0-.021-.135c-.122-.378-.502-.601-1.006-.601-.614 0-1.053.352-1.053.883 0 .432.27.709.82.824l.292.06c.345.075.475.183.475.374 0 .214-.21.37-.519.37-.264 0-.479-.1-.569-.321-.069-.129-.147-.177-.266-.177-.149 0-.254.106-.254.267a.48.48 0 0 0 .031.163Zm-4.573.547A.266.266 0 0 1 5 13.226c0-.074.023-.138.078-.219l.688-1.009v-.016l-.665-.953a.375.375 0 0 1-.084-.233.28.28 0 0 1 .292-.286c.109 0 .186.05.26.169l.59.917h.015l.61-.937c.067-.105.124-.149.235-.149.15 0 .28.115.28.259a.343.343 0 0 1-.076.218l-.716 1.007v.014l.695.987a.357.357 0 0 1 .076.221.266.266 0 0 1-.277.274c-.105 0-.175-.044-.25-.151l-.615-.903h-.015l-.605.905c-.073.111-.134.149-.243.149Zm2.754-.038c-.181 0-.288-.117-.288-.318v-2.306c0-.201.107-.318.288-.318.182 0 .289.117.289.318v2.121h.977c.157 0 .262.095.262.251 0 .157-.103.252-.262.252H8.027Z"/><path d="M2 1.75C2 .784 2.783 0 3.75 0h6.586c.464 0 .909.184 1.237.513l2.914 2.914c.329.328.513.773.513 1.237v9.586A1.75 1.75 0 0 1 13.25 16h-9.5A1.75 1.75 0 0 1 2 14.25Zm1.75-.25a.25.25 0 0 0-.25.25v12.5c0 .138.112.25.25.25h9.5a.25.25 0 0 0 .25-.25V4.664a.25.25 0 0 0-.073-.177l-2.914-2.914a.25.25 0 0 0-.177-.073Z"/></svg>