<svg xmlns="http://www.w3.org/2000/svg" width="24" height="24" viewBox="0 0 24 24">
  <defs/>
  <path d="M6.25,12 A0.75 0.75 0 0 0 6.25,13.5 L6.75,13.5 A0.75 0.75 0 0 0 6.75,12 L6.25,12 Z M5.5,9.25 A0.75 0.75 0 0 1 6.25,8.5 L6.75,8.5 A0.75 0.75 0 0 1 6.75,10 L6.25,10 A0.75 0.75 0 0 1 5.5,9.25 Z M6.25,5 A0.75 0.75 0 0 0 6.25,6.5 L6.75,6.5 A0.75 0.75 0 0 0 6.75,5 L6.25,5 Z M9,12.75 A0.75 0.75 0 0 1 9.75,12 L10.25,12 A0.75 0.75 0 0 1 10.25,13.5 L9.75,13.5 A0.75 0.75 0 0 1 9,12.75 Z M9.75,8.5 A0.75 0.75 0 0 0 9.75,10 L10.25,10 A0.75 0.75 0 0 0 10.25,8.5 L9.75,8.5 Z M9,5.75 A0.75 0.75 0 0 1 9.75,5 L10.25,5 A0.75 0.75 0 0 1 10.25,6.5 L9.75,6.5 A0.75 0.75 0 0 1 9,5.75 Z M13.25,12 A0.75 0.75 0 0 0 13.25,13.5 L13.75,13.5 A0.75 0.75 0 0 0 13.75,12 L13.25,12 Z M12.5,9.25 A0.75 0.75 0 0 1 13.25,8.5 L13.75,8.5 A0.75 0.75 0 0 1 13.75,10 L13.25,10 A0.75 0.75 0 0 1 12.5,9.25 Z M13.25,5 A0.75 0.75 0 0 0 13.25,6.5 L13.75,6.5 A0.75 0.75 0 0 0 13.75,5 L13.25,5 Z"/>
  <path d="M2,20 L2,3 C2,1.895 2.895,1 4,1 L16,1 C17.105,1 18,1.895 18,3 L18,20 C18,20.173 17.978,20.34 17.937,20.5 L20,20.5 C20.276,20.5 20.5,20.276 20.5,20 L20.5,12 C20.5,11.843 20.426,11.694 20.3,11.6 L19.8,11.225 C19.469,10.976 19.401,10.506 19.65,10.175 C19.899,9.844 20.369,9.776 20.7,10.025 L21.2,10.4 C21.704,10.778 22,11.37 22,12 L22,20 C22,21.105 21.105,22 20,22 L16.438,22 C16.382,22 16.326,21.994 16.272,21.982 C16.183,21.994 16.092,22 16,22 L12.25,22 C11.836,22 11.5,21.664 11.5,21.25 L11.5,19 L8.5,19 L8.5,21.25 C8.5,21.664 8.164,22 7.75,22 L4,22 C2.895,22 2,21.105 2,20 Z M4,20.5 L7,20.5 L7,18.25 C7,17.836 7.336,17.5 7.75,17.5 L12.25,17.5 C12.664,17.5 13,17.836 13,18.25 L13,20.5 L16,20.5 C16.276,20.5 16.5,20.276 16.5,20 L16.5,3 C16.5,2.724 16.276,2.5 16,2.5 L4,2.5 C3.724,2.5 3.5,2.724 3.5,3 L3.5,20 C3.5,20.276 3.724,20.5 4,20.5 Z"/>
</svg>

