<svg xmlns="http://www.w3.org/2000/svg" width="16" height="16" viewBox="0 0 16 16">
  <defs/>
  <path d="M1.75,16 C0.784,16 0,15.216 0,14.25 L0,1.75 C0,0.784 0.784,0 1.75,0 L10.25,0 C11.216,0 12,0.784 12,1.75 L12,14.25 C12,14.335 11.994,14.418 11.982,14.5 L14.25,14.5 C14.388,14.5 14.5,14.388 14.5,14.25 L14.5,8.285 C14.5,8.201 14.458,8.123 14.389,8.077 L13.334,7.374 C13.108,7.227 12.978,6.969 12.995,6.7 C13.011,6.43 13.171,6.191 13.413,6.072 C13.656,5.953 13.943,5.974 14.166,6.126 L15.221,6.829 C15.708,7.154 16,7.7 16,8.285 L16,14.25 C16,15.216 15.216,16 14.25,16 L10.75,16 C10.683,16 10.617,15.991 10.553,15.974 C10.454,15.991 10.353,16 10.25,16 L7.25,16 C6.836,16 6.5,15.664 6.5,15.25 L6.5,14 L5.5,14 L5.5,15.25 C5.5,15.664 5.164,16 4.75,16 Z M1.5,14.25 C1.5,14.388 1.612,14.5 1.75,14.5 L4,14.5 L4,13.25 C4,12.836 4.336,12.5 4.75,12.5 L7.25,12.5 C7.664,12.5 8,12.836 8,13.25 L8,14.5 L10.25,14.5 C10.388,14.5 10.5,14.388 10.5,14.25 L10.5,1.75 C10.5,1.612 10.388,1.5 10.25,1.5 L1.75,1.5 C1.612,1.5 1.5,1.612 1.5,1.75 Z M3.75,6 L4.25,6 C4.664,6 5,6.336 5,6.75 C5,7.164 4.664,7.5 4.25,7.5 L3.75,7.5 C3.336,7.5 3,7.164 3,6.75 C3,6.336 3.336,6 3.75,6 Z M3,3.75 C3,3.336 3.336,3 3.75,3 L4.25,3 C4.664,3 5,3.336 5,3.75 C5,4.164 4.664,4.5 4.25,4.5 L3.75,4.5 C3.336,4.5 3,4.164 3,3.75 Z M7,6.75 C7,6.336 7.336,6 7.75,6 L8.25,6 C8.664,6 9,6.336 9,6.75 C9,7.164 8.664,7.5 8.25,7.5 L7.75,7.5 C7.336,7.5 7,7.164 7,6.75 Z M7.75,3 L8.25,3 C8.664,3 9,3.336 9,3.75 C9,4.164 8.664,4.5 8.25,4.5 L7.75,4.5 C7.336,4.5 7,4.164 7,3.75 C7,3.336 7.336,3 7.75,3 Z M3,9.75 C3,9.336 3.336,9 3.75,9 L4.25,9 C4.664,9 5,9.336 5,9.75 C5,10.164 4.664,10.5 4.25,10.5 L3.75,10.5 C3.336,10.5 3,10.164 3,9.75 Z M7.75,9 L8.25,9 C8.664,9 9,9.336 9,9.75 C9,10.164 8.664,10.5 8.25,10.5 L7.75,10.5 C7.336,10.5 7,10.164 7,9.75 C7,9.336 7.336,9 7.75,9 Z"/>
</svg>

