<svg xmlns="http://www.w3.org/2000/svg" width="24" height="24" viewBox="0 0 24 24"><path fill-rule="evenodd" d="M19.65 10.175a.75.75 0 011.05-.15l1 .75a2 2 0 01.8 1.6V20a2 2 0 01-2 2h-4.063a.75.75 0 010-1.5H20.5a.5.5 0 00.5-.5v-7.625a.5.5 0 00-.2-.4l-1-.75a.75.75 0 01-.15-1.05z"/><path d="M17.25 3v17c0 .69-.56 1.25-1.25 1.25h-3.75v-3h-4.5v3H4c-.69 0-1.25-.56-1.25-1.25V3c0-.69.56-1.25 1.25-1.25h12c.69 0 1.25.56 1.25 1.25z"/><path fill-rule="evenodd" d="M4 20.5a.5.5 0 01-.5-.5V3a.5.5 0 01.5-.5h12a.5.5 0 01.5.5v17a.5.5 0 01-.5.5h-3v-2.25a.75.75 0 00-.75-.75h-4.5a.75.75 0 00-.75.75v2.25H4zM2 20a2 2 0 002 2h3.75a.75.75 0 00.75-.75V19h3v2.25c0 .414.336.75.75.75H16a2 2 0 002-2V3a2 2 0 00-2-2H4a2 2 0 00-2 2v17z"/><path fill-rule="evenodd" d="M5.5 12.75a.75.75 0 01.75-.75h.5a.75.75 0 010 1.5h-.5a.75.75 0 01-.75-.75zm0-3.5a.75.75 0 01.75-.75h.5a.75.75 0 010 1.5h-.5a.75.75 0 01-.75-.75zm0-3.5A.75.75 0 016.25 5h.5a.75.75 0 010 1.5h-.5a.75.75 0 01-.75-.75zm3.5 7a.75.75 0 01.75-.75h.5a.75.75 0 010 1.5h-.5a.75.75 0 01-.75-.75zm0-3.5a.75.75 0 01.75-.75h.5a.75.75 0 010 1.5h-.5A.75.75 0 019 9.25zm0-3.5A.75.75 0 019.75 5h.5a.75.75 0 010 1.5h-.5A.75.75 0 019 5.75zm3.5 7a.75.75 0 01.75-.75h.5a.75.75 0 010 1.5h-.5a.75.75 0 01-.75-.75zm0-3.5a.75.75 0 01.75-.75h.5a.75.75 0 010 1.5h-.5a.75.75 0 01-.75-.75zm0-3.5a.75.75 0 01.75-.75h.5a.75.75 0 010 1.5h-.5a.75.75 0 01-.75-.75z"/></svg>