<svg xmlns="http://www.w3.org/2000/svg" width="24" height="24" viewBox="0 0 24 24">
  <defs/>
  <path d="M12.876,0.64 L12.876,0.639 L21.126,5.402 C21.667,5.715 22.001,6.292 22.001,6.917 L22.001,16.442 C22.001,17.067 21.668,17.645 21.126,17.958 L12.876,22.72 C12.335,23.033 11.667,23.033 11.126,22.72 L2.876,17.957 C2.335,17.645 2.001,17.067 2.001,16.442 L2.001,6.917 C2.001,6.292 2.335,5.715 2.876,5.402 L11.126,0.64 C11.667,0.327 12.335,0.327 12.876,0.64 Z M11.876,1.938 L4.251,6.34 L12.001,10.814 L19.751,6.34 L12.126,1.938 C12.049,1.893 11.953,1.893 11.876,1.938 Z M12.751,21.061 L20.376,16.659 C20.453,16.614 20.501,16.532 20.501,16.443 L20.501,7.639 L12.751,12.113 Z M3.501,7.64 L3.501,16.443 C3.501,16.533 3.549,16.615 3.626,16.659 L11.251,21.061 L11.251,12.114 Z"/>
</svg>

