<svg xmlns="http://www.w3.org/2000/svg" width="16" height="16" viewBox="0 0 16 16"><path fill-rule="evenodd" d="M1.75 3A1.75 1.75 0 000 4.75v9.5A1.75 1.75 0 001.75 16h6.5A1.75 1.75 0 0010 14.25V8.164c0-.464-.184-.909-.513-1.237L6.073 3.513A1.746 1.746 0 004.836 3H1.75zm-.177 1.573A.25.25 0 011.75 4.5H4v2.75A1.75 1.75 0 005.75 9H8.5v5.25a.25.25 0 01-.25.25h-6.5a.25.25 0 01-.25-.25v-9.5a.25.25 0 01.073-.177zM5.5 7.25V5.06L7.94 7.5H5.75a.25.25 0 01-.25-.25z"/><path fill-rule="evenodd" d="M14.25 11.5H13a.75.75 0 000 1.5h1.25A1.75 1.75 0 0016 11.25V5.164c0-.464-.184-.909-.513-1.237L12.073.513A1.746 1.746 0 0010.836 0H7.75c-.881 0-1.61.652-1.732 1.5L6 1.75a.75.75 0 101.457-.25H10v2.75A1.75 1.75 0 0011.75 6h2.75v5.25a.25.25 0 01-.25.25zM11.5 2.06v2.19c0 .138.112.25.25.25h2.19L11.5 2.06z"/></svg>