<svg xmlns="http://www.w3.org/2000/svg" width="16" height="16" viewBox="0 0 16 16"><path fill-rule="evenodd" d="M6.5 1.75C6.5.784 7.284 0 8.25 0h3.586c.464 0 .909.184 1.237.513l2.414 2.414c.329.328.513.773.513 1.237v6.086A1.75 1.75 0 0114.25 12h-2.5a.75.75 0 010-1.5h2.5a.25.25 0 00.25-.25V5.5h-2.25a1.75 1.75 0 01-1.75-1.75V1.5H8.25a.25.25 0 00-.25.25v.5a.75.75 0 01-1.5 0v-.5zm5.5-.189V3.75c0 .138.112.25.25.25h2.188a.252.252 0 00-.011-.013l-2.414-2.414A.278.278 0 0012 1.561zM2.25 5.5a.25.25 0 00-.25.25v8.5c0 .138.112.25.25.25h6a.25.25 0 00.25-.25V9.5H6.25A1.75 1.75 0 014.5 7.75V5.5H2.25zM6 5.561V7.75c0 .138.112.25.25.25h2.189a.253.253 0 00-.012-.013L6.013 5.573A.248.248 0 006 5.561zM.5 5.75C.5 4.784 1.284 4 2.25 4h3.586c.464 0 .909.184 1.237.513l2.414 2.414c.329.328.513.773.513 1.237v6.086A1.75 1.75 0 018.25 16h-6A1.75 1.75 0 01.5 14.25v-8.5z"/></svg>