<svg xmlns="http://www.w3.org/2000/svg" width="16" height="16" viewBox="0 0 16 16"><path d="M0 0h16v16H0z"/><path fill-rule="evenodd" d="M4.865 1.535C6.277 2.562 7.839 4.057 9.11 5.312c1.09 1.076 1.849 2.09 2.315 2.982a3.745 3.745 0 013.227 1.054c.43.431.69 1.066.86 1.657.178.614.288 1.294.358 1.914a21.292 21.292 0 01.13 2.284v.054l-.75-.007.007.75h-.054a14.399 14.399 0 01-.654-.012 21.241 21.241 0 01-1.63-.118c-.62-.07-1.3-.18-1.914-.357-.591-.17-1.226-.43-1.657-.861a3.745 3.745 0 01-1.055-3.217c-.908-.46-1.942-1.215-3.041-2.3-1.279-1.262-2.764-2.826-3.775-4.25C.976 4.18.554 3.458.352 2.79.152 2.13.117 1.32.72.719 1.327.112 2.14.17 2.79.379c.66.214 1.376.647 2.076 1.156zm3.952 8.481a3.762 3.762 0 011.189-1.193 8.697 8.697 0 00-.71-1.058L7.743 9.318c.387.29.747.52 1.074.698zM15.257 16l-.007-.75.75.007a.75.75 0 01-.743.743zm-7.2-9.62l.25.252-1.713 1.713a16.79 16.79 0 01-.288-.277C5.037 6.815 3.63 5.328 2.7 4.018c-.47-.662-.78-1.227-.912-1.662-.134-.444-.031-.552-.008-.576.014-.014.112-.114.548.027.432.14.995.462 1.655.941C5.292 3.7 6.78 5.12 8.056 6.38zm6.323 6.708c.059.52.089 1.012.104 1.396a19.542 19.542 0 01-1.396-.104 10.528 10.528 0 01-1.668-.309c-.526-.151-.856-.325-1.011-.48a2.25 2.25 0 013.182-3.182c.155.155.329.485.48 1.01.145.503.243 1.092.309 1.67z"/></svg>