<svg width="16" height="16" viewBox="0 0 16 16" xmlns="http://www.w3.org/2000/svg">
  <path fill-rule="evenodd" clip-rule="evenodd" d="M1.59168 2.71245L2.38083 7.25004H7.25001C7.66422 7.25004 8.00001 7.58582 8.00001 8.00004C8.00001 8.41425 7.66422 8.75004 7.25001 8.75004H2.38083L1.59168 13.2876L13.9294 8.00004L1.59168 2.71245ZM0.988747 8.00004L0.0636748 2.68087C-0.0111098 2.25086 0.128032 1.81135 0.436661 1.50272C0.824446 1.11494 1.40926 1.00231 1.91333 1.21834L15.3157 6.9622C15.7308 7.14013 16 7.54835 16 8.00004C16 8.45172 15.7308 8.85995 15.3157 9.03788L1.91333 14.7817C1.40926 14.9978 0.824446 14.8851 0.436661 14.4974C0.128032 14.1887 -0.01111 13.7492 0.0636748 13.3192L0.988747 8.00004Z"/>
</svg>
