<svg xmlns="http://www.w3.org/2000/svg" width="24" height="24" viewBox="0 0 24 24">
  <defs/>
  <path d="M1.513,1.96 C1.926,1.596 2.515,1.514 3.012,1.75 L22.347,10.965 C22.746,11.155 23.001,11.558 23.001,12 C23.001,12.442 22.746,12.845 22.347,13.035 L3.012,22.25 C2.551,22.47 2.006,22.415 1.597,22.109 C1.188,21.802 0.983,21.294 1.065,20.79 L2.49,12 L1.065,3.21 C0.99,2.744 1.159,2.272 1.513,1.96 Z M3.888,12.75 L2.584,20.792 L21.031,12 L2.584,3.208 L3.888,11.25 L11.25,11.25 C11.664,11.25 12,11.586 12,12 C12,12.414 11.664,12.75 11.25,12.75 Z"/>
</svg>

