<svg xmlns="http://www.w3.org/2000/svg" width="16" height="16" viewBox="0 0 16 16">
  <defs/>
  <path d="M0.989,8 L0.064,2.68 C-0.02,2.195 0.168,1.703 0.554,1.398 C0.94,1.093 1.462,1.024 1.914,1.218 L15.316,6.962 C15.731,7.14 15.999,7.549 15.999,8 C15.999,8.451 15.731,8.86 15.316,9.038 L1.913,14.782 C1.461,14.976 0.938,14.907 0.552,14.602 C0.166,14.296 -0.022,13.804 0.063,13.319 L0.99,8 Z M1.592,2.712 L2.38,7.25 L7.25,7.25 C7.664,7.25 8,7.586 8,8 C8,8.414 7.664,8.75 7.25,8.75 L2.38,8.75 L1.592,13.288 L13.929,8 Z"/>
</svg>

