<svg width="24" height="24" viewBox="0 0 24 24" xmlns="http://www.w3.org/2000/svg">
  <path fill-rule="evenodd" clip-rule="evenodd" d="M1.51279 1.95944C1.92555 1.59581 2.51542 1.51346 3.01199 1.75013L22.347 10.9654C22.7459 11.1555 23 11.5581 23 12C23 12.4419 22.7459 12.8445 22.347 13.0346L3.01199 22.2498C2.51542 22.4865 1.92555 22.4042 1.51279 22.0405C1.1584 21.7283 0.989226 21.256 1.06483 20.7898L2.4902 12L1.06483 3.21019C0.989226 2.74399 1.1584 2.27164 1.51279 1.95944ZM3.88817 12.75L2.58404 20.7922L21.0313 12L2.58404 3.20782L3.88817 11.25H11.25C11.6642 11.25 12 11.5858 12 12C12 12.4142 11.6642 12.75 11.25 12.75H3.88817Z"/>
</svg>
