<svg width="24" height="24" viewBox="0 0 24 24" xmlns="http://www.w3.org/2000/svg">
  <path fill-rule="evenodd" clip-rule="evenodd" d="M3.92503 3.22932C3.41829 3.0041 2.82519 3.11423 2.43307 3.50634C2.12878 3.81064 1.98912 4.24255 2.05764 4.66739L3.23391 11.9602C3.23816 11.9866 3.23816 12.0135 3.23391 12.0399L2.05764 19.3327C1.98912 19.7576 2.12878 20.1895 2.43307 20.4938C2.82519 20.8859 3.41829 20.996 3.92503 20.7708L21.3262 13.0369C21.7359 12.8548 22 12.4485 22 12.0001C22 11.5516 21.7359 11.1453 21.3262 10.9632L3.92503 3.22932ZM4.63874 11.25L3.5855 4.71989L19.9659 12.0001L3.5855 19.2802L4.63876 12.75H11.25C11.6642 12.75 12 12.4142 12 12C12 11.5858 11.6642 11.25 11.25 11.25H4.63874Z"/>
</svg>
