<svg width="24" height="24" viewBox="0 0 24 24" fill="none" xmlns="http://www.w3.org/2000/svg">
<path d="M9.49639 2C6.59693 2 4.24647 4.35052 4.24647 7.25C4.24647 9.23662 5.34989 10.9655 6.9773 11.8573C3.31609 12.9225 0.618693 16.2511 0.500338 20.2277C0.488016 20.6417 0.813664 20.9873 1.22769 20.9997C2.98014 20.9997 4.73259 21.0001 6.48503 21.0004C9.82346 21.0012 13.1619 21.0019 16.5003 21C16.7763 20.9998 17 20.776 17 20.5V15.8306C17 15.6339 16.9432 15.4406 16.829 15.2804C15.6689 13.6536 13.9811 12.4293 12.0154 11.8573C13.6429 10.9656 14.7463 9.23665 14.7463 7.25C14.7463 4.35052 12.3959 2 9.49639 2Z" fill="#24292F"/>
<path fill-rule="evenodd" clip-rule="evenodd" d="M23.625 10.3126C23.625 8.24149 21.9461 6.56256 19.875 6.56256C17.804 6.56256 16.125 8.24149 16.125 10.3126C16.125 11.6232 16.7974 12.7768 17.816 13.4472C17.9278 13.5208 18 13.6433 18 13.7772V19.1675C18 19.2608 18.0348 19.3508 18.0975 19.4198L19.2969 20.7391C19.6069 21.0801 20.1431 21.0801 20.4531 20.7391L21.6525 19.4198C21.7152 19.3508 21.75 19.2608 21.75 19.1675V18.7359C21.75 18.6365 21.7105 18.5411 21.6402 18.4708L21.1063 17.9369C21.0331 17.8637 21.0331 17.745 21.1063 17.6717L21.6402 17.1379C21.7105 17.0675 21.75 16.9721 21.75 16.8727V16.5263C21.75 16.4268 21.7105 16.3314 21.6402 16.2611L21.1063 15.7272C21.0331 15.654 21.0331 15.5353 21.1063 15.4621L21.6402 14.9282C21.7105 14.8579 21.75 14.7625 21.75 14.663V13.7772C21.75 13.6433 21.8222 13.5208 21.934 13.4472C22.9527 12.7768 23.625 11.6232 23.625 10.3126ZM21 9.75002C21 10.3713 20.4963 10.875 19.875 10.875C19.2537 10.875 18.75 10.3713 18.75 9.75002C18.75 9.1287 19.2537 8.62502 19.875 8.62502C20.4963 8.62502 21 9.1287 21 9.75002Z" fill="#24292F"/>
</svg>
