<svg width="16" height="16" viewBox="0 0 16 16" fill="none" xmlns="http://www.w3.org/2000/svg">
<path d="M2.74347 4.75652C2.74347 2.68185 4.42532 1 6.49999 1C8.57466 1 10.2565 2.68185 10.2565 4.75652C10.2565 6.05581 9.59689 7.20104 8.59424 7.87558C9.40941 8.17922 10.1407 8.65501 10.744 9.25878C10.9144 9.42931 11.0011 9.66399 11.0021 9.90506C11.0048 10.5034 11.0033 11.1018 11.0018 11.7001C11.0009 12.0596 11 12.419 11 12.7784V13.4992C11 13.7753 10.7761 13.9992 10.5 13.9992L9.083 13.9992C6.22005 13.9994 1.42817 13.9998 1.22072 13.9992C0.806963 13.9798 0.48727 13.6286 0.506667 13.2149C0.511153 13.1192 0.517887 13.024 0.526821 12.9295C0.746718 10.602 2.29517 8.66174 4.40575 7.87558C3.4031 7.20104 2.74347 6.05581 2.74347 4.75652Z" fill="#24292F"/>
<path fill-rule="evenodd" clip-rule="evenodd" d="M15.75 6.875C15.75 5.49429 14.6307 4.375 13.25 4.375C11.8693 4.375 10.75 5.49429 10.75 6.875C10.75 7.74874 11.1983 8.5178 11.8773 8.96476C11.9519 9.01382 12 9.09549 12 9.18473V12.7783C12 12.8405 12.0232 12.9005 12.065 12.9465L12.8646 13.8261C13.0713 14.0534 13.4287 14.0534 13.6354 13.8261L14.435 12.9465C14.4768 12.9005 14.5 12.8405 14.5 12.7783V12.4906C14.5 12.4243 14.4737 12.3607 14.4268 12.3138L14.0709 11.9579C14.022 11.9091 14.022 11.8299 14.0709 11.7811L14.4268 11.4252C14.4737 11.3783 14.5 11.3147 14.5 11.2484V11.0175C14.5 10.9512 14.4737 10.8876 14.4268 10.8407L14.0709 10.4848C14.022 10.436 14.022 10.3568 14.0709 10.308L14.4268 9.9521C14.4737 9.90522 14.5 9.84163 14.5 9.77532V9.18476C14.5 9.09552 14.5481 9.01385 14.6227 8.96479C15.3018 8.51783 15.75 7.74876 15.75 6.875ZM14 6.49997C14 6.91418 13.6642 7.24997 13.25 7.24997C12.8358 7.24997 12.5 6.91418 12.5 6.49997C12.5 6.08576 12.8358 5.74997 13.25 5.74997C13.6642 5.74997 14 6.08576 14 6.49997Z" fill="#24292F"/>
</svg>
