<svg xmlns="http://www.w3.org/2000/svg" width="16" height="16" viewBox="0 0 16 16"><path d="M11.013 1.427a1.75 1.75 0 0 1 2.474 0l1.086 1.086a1.748 1.748 0 0 1 0 2.474l-8.609 8.61c-.21.21-.471.363-.757.445l-3.251.929a.748.748 0 0 1-.736-.191.748.748 0 0 1-.191-.736l.929-3.251a1.76 1.76 0 0 1 .445-.757Zm-7.549 9.67a.253.253 0 0 0-.064.108l-.558 1.953 1.953-.558a.253.253 0 0 0 .108-.064l6.286-6.286L9.75 4.811Zm8.963-8.61a.252.252 0 0 0-.354 0L10.811 3.75l1.439 1.44 1.263-1.263a.252.252 0 0 0 0-.354Zm-.158 6.676A.246.246 0 0 1 12.502 9a.246.246 0 0 1 .232.163l.238.648a3.724 3.724 0 0 0 2.219 2.219l.649.238a.248.248 0 0 1 .16.202v.063a.248.248 0 0 1-.16.202l-.649.238a3.721 3.721 0 0 0-2.219 2.218l-.238.649a.246.246 0 0 1-.193.16h-.079a.245.245 0 0 1-.193-.16l-.239-.649a3.737 3.737 0 0 0-2.218-2.218l-.649-.238a.248.248 0 0 1-.118-.376.254.254 0 0 1 .118-.091l.649-.238a3.724 3.724 0 0 0 2.218-2.219Z"/></svg>