<svg xmlns="http://www.w3.org/2000/svg" width="24" height="24" viewBox="0 0 24 24">
  <defs/>
  <path d="M17.263,2.177 C17.946,1.494 19.054,1.494 19.737,2.177 L22.323,4.763 C23.006,5.446 23.006,6.554 22.323,7.237 L19.53,10.03 L19.518,10.043 L8.69,20.378 C8.492,20.567 8.253,20.707 7.991,20.787 L2.468,22.467 C2.203,22.547 1.916,22.475 1.721,22.279 C1.525,22.084 1.453,21.797 1.533,21.532 L3.206,16.032 C3.294,15.744 3.454,15.484 3.672,15.276 L14.476,4.963 Z M4.708,16.361 C4.677,16.391 4.654,16.428 4.641,16.469 L3.377,20.623 L7.554,19.352 C7.592,19.34 7.626,19.32 7.654,19.293 L17.927,9.487 L14.987,6.548 L4.708,16.361 Z M19,8.44 L21.263,6.178 C21.31,6.131 21.336,6.067 21.336,6.001 C21.336,5.935 21.31,5.871 21.263,5.824 L18.677,3.238 C18.63,3.191 18.566,3.165 18.5,3.165 C18.434,3.165 18.37,3.191 18.323,3.238 L16.061,5.5 Z"/>
</svg>

