<svg xmlns="http://www.w3.org/2000/svg" width="24" height="24" viewBox="0 0 24 24"><path d="M17.263 2.177a1.75 1.75 0 012.474 0l2.586 2.586a1.75 1.75 0 010 2.474L19.53 10.03l-.012.013L8.69 20.378a1.753 1.753 0 01-.699.409l-5.523 1.68a.748.748 0 01-.747-.188.748.748 0 01-.188-.747l1.673-5.5a1.75 1.75 0 01.466-.756L14.476 4.963zM4.708 16.361a.26.26 0 00-.067.108l-1.264 4.154 4.177-1.271a.253.253 0 00.1-.059l10.273-9.806-2.94-2.939-10.279 9.813zM19 8.44l2.263-2.262a.25.25 0 000-.354l-2.586-2.586a.25.25 0 00-.354 0L16.061 5.5z"/></svg>