<svg xmlns="http://www.w3.org/2000/svg" width="24" height="24" viewBox="0 0 24 24">
  <defs/>
  <path d="M12,2.5 C14.414,2.499 16.547,4.073 17.258,6.38 C17.969,8.688 17.092,11.189 15.096,12.547 C18.549,13.813 20.884,17.052 20.996,20.728 C21.01,20.999 20.876,21.257 20.645,21.402 C20.415,21.546 20.125,21.555 19.886,21.424 C19.648,21.293 19.499,21.044 19.497,20.772 C19.373,16.721 16.053,13.501 12,13.501 C7.948,13.501 4.628,16.721 4.504,20.772 C4.492,21.186 4.146,21.512 3.731,21.5 C3.317,21.487 2.992,21.141 3.004,20.727 C3.116,17.051 5.452,13.813 8.904,12.547 C6.908,11.189 6.031,8.688 6.742,6.38 C7.453,4.073 9.586,2.499 12,2.5 Z M8,8 C8,10.209 9.791,12 12,12 C14.209,12 16,10.209 16,8 C16,5.791 14.209,4 12,4 C9.791,4 8,5.791 8,8 Z"/>
</svg>

