<svg xmlns="http://www.w3.org/2000/svg" width="16" height="16" viewBox="0 0 16 16">
  <defs/>
  <path d="M10.561,8.073 C12.567,9.021 13.887,10.999 13.993,13.215 C14.012,13.486 13.882,13.746 13.654,13.895 C13.427,14.043 13.136,14.057 12.896,13.93 C12.655,13.804 12.502,13.557 12.495,13.285 C12.382,10.885 10.403,8.997 8,8.997 C5.597,8.997 3.618,10.885 3.505,13.285 C3.477,13.692 3.129,14.002 2.722,13.983 C2.314,13.964 1.997,13.623 2.007,13.215 C2.113,10.999 3.432,9.021 5.438,8.073 C4.145,6.995 3.665,5.222 4.239,3.639 C4.812,2.055 6.316,1.001 7.999,1.001 C9.683,1.001 11.187,2.055 11.76,3.639 C12.334,5.222 11.854,6.995 10.561,8.073 Z M10.5,5 C10.5,3.619 9.381,2.5 8,2.5 C6.619,2.5 5.5,3.619 5.5,5 C5.5,6.381 6.619,7.5 8,7.5 C9.381,7.5 10.5,6.381 10.5,5 Z"/>
</svg>

