<svg width="24" height="24" viewBox="0 0 24 24" xmlns="http://www.w3.org/2000/svg">
  <path fill-rule="evenodd" clip-rule="evenodd" d="M12 2.5C8.96251 2.5 6.50012 4.96245 6.50012 8C6.50012 9.88946 7.45289 11.5564 8.90419 12.5466C5.53963 13.7791 3.11605 16.9629 3.004 20.7277C2.99168 21.1417 3.31733 21.4873 3.73136 21.4997C4.14539 21.512 4.49101 21.1863 4.50334 20.7723C4.62347 16.7357 7.93397 13.5 12 13.5C16.0659 13.5 19.3764 16.7357 19.4966 20.7723C19.5089 21.1863 19.8545 21.512 20.2685 21.4997C20.6826 21.4873 21.0082 21.1417 20.9959 20.7277C20.8839 16.963 18.4603 13.7791 15.0958 12.5466C16.5472 11.5564 17.5 9.88949 17.5 8C17.5 4.96245 15.0376 2.5 12 2.5ZM8.00012 8C8.00012 5.79085 9.79096 4 12 4C14.2091 4 16 5.79085 16 8C16 10.2092 14.2091 12 12 12C9.79096 12 8.00012 10.2092 8.00012 8Z"/>
</svg>
