<svg width="16" height="16" viewBox="0 0 16 16" fill="none" xmlns="http://www.w3.org/2000/svg">
<g clip-path="url(#clip0_7429_70936)">
<path d="M15.25 3.5C15.6642 3.5 16 3.16421 16 2.75C16 2.33579 15.6642 2 15.25 2H11.25C10.8358 2 10.5 2.33579 10.5 2.75C10.5 3.16421 10.8358 3.5 11.25 3.5L15.25 3.5Z" fill="black"/>
<path fill-rule="evenodd" clip-rule="evenodd" d="M2 6C2 4.067 3.567 2.5 5.5 2.5C7.433 2.5 9 4.067 9 6C9 7.00439 8.57693 7.90996 7.89928 8.54824C9.65283 9.39896 10.8812 11.1545 10.9988 13.2071C11.0225 13.6207 10.7064 13.9751 10.2929 13.9988C9.87935 14.0225 9.52492 13.7064 9.50123 13.2929C9.37989 11.1742 7.64163 9.5 5.50001 9.5C3.35839 9.5 1.62012 11.1742 1.49878 13.2929C1.4751 13.7064 1.12066 14.0225 0.707123 13.9988C0.293587 13.9751 -0.0224505 13.6207 0.00123357 13.2071C0.118791 11.1545 1.34717 9.39897 3.10072 8.54824C2.42307 7.90996 2 7.00439 2 6ZM5.5 4C4.39543 4 3.5 4.89543 3.5 6C3.5 7.10457 4.39543 8 5.5 8C6.60457 8 7.5 7.10457 7.5 6C7.5 4.89543 6.60457 4 5.5 4Z" fill="black"/>
</g>
<defs>
<clipPath id="clip0_7429_70936">
<rect width="16" height="16" fill="white"/>
</clipPath>
</defs>
</svg>
