<svg width="16" height="16" viewBox="0 0 16 16" fill="none" xmlns="http://www.w3.org/2000/svg">
<path d="M4.24347 4.75652C4.24347 2.68185 5.92532 1 7.99999 1C10.0747 1 11.7565 2.68185 11.7565 4.75652C11.7565 6.05581 11.0969 7.20104 10.0942 7.87558C12.2048 8.66174 13.7533 10.602 13.9732 12.9295C13.9821 13.024 13.9888 13.1192 13.9933 13.2149C14.0127 13.6286 13.693 13.9798 13.2793 13.9992C13.1893 13.9992 12.8327 13.9992 12.3015 13.9992C9.7083 13.9994 2.95249 13.9999 2.72072 13.9992C2.30696 13.9798 1.98727 13.6286 2.00667 13.2149C2.01115 13.1192 2.01789 13.024 2.02682 12.9295C2.24672 10.602 3.79517 8.66174 5.90575 7.87558C4.9031 7.20104 4.24347 6.05581 4.24347 4.75652Z" fill="#24292E"/>
</svg>
