<svg width="16" height="16" viewBox="0 0 16 16" xmlns="http://www.w3.org/2000/svg">
  <path fill-rule="evenodd" clip-rule="evenodd" d="M10.5 5C10.5 5.66304 10.2366 6.29892 9.76777 6.76776C9.29893 7.23661 8.66304 7.5 8 7.5C7.33696 7.5 6.70108 7.23661 6.23224 6.76776C5.76339 6.29892 5.5 5.66304 5.5 5C5.5 4.33696 5.76339 3.70107 6.23224 3.23223C6.70108 2.76339 7.33696 2.5 8 2.5C8.66304 2.5 9.29893 2.76339 9.76777 3.23223C10.2366 3.70107 10.5 4.33696 10.5 5ZM10.561 8.073C11.1923 7.54664 11.6461 6.83858 11.8608 6.04514C12.0754 5.25169 12.0403 4.4114 11.7604 3.63858C11.4805 2.86576 10.9693 2.19793 10.2964 1.72594C9.62345 1.25396 8.82145 1.00075 7.9995 1.00075C7.17755 1.00075 6.37555 1.25396 5.70262 1.72594C5.02969 2.19793 4.51849 2.86576 4.23859 3.63858C3.95868 4.4114 3.92364 5.25169 4.13825 6.04514C4.35286 6.83858 4.80669 7.54664 5.438 8.073C4.45359 8.5384 3.61427 9.26275 3.0099 10.1685C2.40553 11.0743 2.05886 12.1273 2.007 13.215C2.00218 13.411 2.07428 13.6011 2.20788 13.7445C2.34147 13.888 2.52593 13.9735 2.72177 13.9826C2.9176 13.9918 3.10923 13.9239 3.25562 13.7935C3.40201 13.6631 3.49153 13.4806 3.505 13.285C3.55952 12.1295 4.0569 11.0394 4.89391 10.241C5.73091 9.44253 6.84324 8.99707 8 8.99707C9.15676 8.99707 10.2691 9.44253 11.1061 10.241C11.9431 11.0394 12.4405 12.1295 12.495 13.285C12.4975 13.3849 12.5198 13.4832 12.5608 13.5743C12.6018 13.6654 12.6606 13.7474 12.7337 13.8154C12.8068 13.8835 12.8928 13.9363 12.9865 13.9707C13.0803 14.0051 13.18 14.0204 13.2798 14.0157C13.3796 14.0111 13.4774 13.9865 13.5676 13.9435C13.6577 13.9005 13.7384 13.84 13.8048 13.7654C13.8713 13.6908 13.9221 13.6037 13.9544 13.5092C13.9868 13.4147 13.9999 13.3146 13.993 13.215C13.941 12.1272 13.5942 11.0741 12.9897 10.1683C12.3851 9.26255 11.5456 8.53826 10.561 8.073Z"/>
</svg>
