<svg width="16" height="16" viewBox="0 0 16 16" fill="none" xmlns="http://www.w3.org/2000/svg">
<g clip-path="url(#clip0_9098_104887)">
<path fill-rule="evenodd" clip-rule="evenodd" d="M11.2944 0.983756C10.4335 0.122806 8.97827 0.382338 8.46804 1.48784L7.85538 2.81528C7.70304 3.14533 7.49352 3.44582 7.23648 3.70286C6.83326 4.10608 6.32606 4.3895 5.77133 4.52158L3.31717 5.1059C1.98533 5.423 1.51699 7.07768 2.48506 8.04575L4.68933 10.25L0.71967 14.2197C0.426777 14.5126 0.426777 14.9874 0.71967 15.2803C1.01256 15.5732 1.48744 15.5732 1.78033 15.2803L5.74999 11.3107L7.95424 13.5149C8.92231 14.483 10.577 14.0147 10.8941 12.6828L11.4784 10.2287C11.6105 9.67394 11.8939 9.16674 12.2971 8.76352C12.5542 8.50648 12.8547 8.29695 13.1847 8.14462L14.5122 7.53196C15.6177 7.02172 15.8772 5.56654 15.0162 4.70559L11.2944 0.983756ZM6.28341 9.72278L6.28033 9.71968L6.27723 9.7166L3.54572 6.98509C3.40743 6.84679 3.47433 6.61041 3.66459 6.56511L6.11876 5.98079C6.94353 5.78441 7.69764 5.36302 8.29714 4.76352C8.6793 4.38135 8.99083 3.93458 9.21731 3.44387L9.82998 2.11643C9.90287 1.9585 10.1108 1.92142 10.2337 2.04442L13.9556 5.76625C14.0786 5.88924 14.0415 6.09713 13.8836 6.17002L12.5561 6.78268C12.0654 7.00917 11.6186 7.3207 11.2365 7.70286C10.637 8.30237 10.2156 9.05646 10.0192 9.88123L9.43488 12.3354C9.38958 12.5257 9.1532 12.5926 9.0149 12.4543L6.28341 9.72278Z" fill="black"/>
</g>
<defs>
<clipPath id="clip0_9098_104887">
<rect width="16" height="16" fill="white" transform="matrix(-1 0 0 1 16 0)"/>
</clipPath>
</defs>
</svg>
