<svg xmlns="http://www.w3.org/2000/svg" width="24" height="24" viewBox="0 0 24 24"><path d="M7.886 1.553a1.75 1.75 0 012.869.604l.633 1.629a5.667 5.667 0 003.725 3.395l3.959 1.131a1.749 1.749 0 01.757 2.92L16.06 15l5.594 5.595a.749.749 0 01-.326 1.275.749.749 0 01-.734-.215L15 16.061l-3.768 3.768a1.749 1.749 0 01-2.92-.757l-1.131-3.96a5.665 5.665 0 00-3.395-3.724l-1.63-.633a1.75 1.75 0 01-.603-2.869zm6.589 12.912l4.293-4.294a.25.25 0 00-.108-.417L14.7 8.623A7.165 7.165 0 019.99 4.33L9.357 2.7a.25.25 0 00-.41-.086L2.614 8.946a.25.25 0 00.086.41l1.63.634a7.167 7.167 0 014.294 4.71l1.13 3.96a.25.25 0 00.417.108l4.294-4.293z"/></svg>