<svg width="24" height="24" viewBox="0 0 24 24" xmlns="http://www.w3.org/2000/svg">
  <path fill-rule="evenodd" clip-rule="evenodd" d="M7.90907 2.53039C8.79208 1.64738 10.2892 1.94681 10.7647 3.10152L11.5564 5.02429C11.7743 5.55339 12.0948 6.03411 12.4994 6.43872C13.0737 7.01309 13.798 7.41448 14.5894 7.59713L17.9107 8.36357C19.25 8.67264 19.7265 10.3343 18.7546 11.3062L15.5523 14.5085C15.5885 14.5337 15.623 14.5624 15.6553 14.5947L20.7803 19.7197C21.0732 20.0126 21.0732 20.4875 20.7803 20.7804C20.4875 21.0733 20.0126 21.0733 19.7197 20.7804L14.5947 15.6554C14.5624 15.6231 14.5336 15.5886 14.5085 15.5523L11.3062 18.7546C10.3343 19.7265 8.67264 19.25 8.36357 17.9107L7.59713 14.5894C7.41448 13.798 7.01309 13.0737 6.43872 12.4994C6.03411 12.0948 5.55339 11.7743 5.02429 11.5564L3.10152 10.7647C1.94682 10.2892 1.64738 8.79208 2.53039 7.90907L7.90907 2.53039ZM9.37768 3.67264C9.30975 3.50768 9.09587 3.46491 8.96973 3.59105L3.59105 8.96973C3.46491 9.09587 3.50768 9.30975 3.67264 9.37768L5.59541 10.1694C6.30763 10.4627 6.95474 10.8941 7.49938 11.4387C8.27253 12.2119 8.81285 13.1867 9.05872 14.2521L9.82515 17.5734C9.86931 17.7647 10.1067 17.8328 10.2455 17.6939L17.6939 10.2455C17.8328 10.1067 17.7647 9.86931 17.5734 9.82515L14.2521 9.05872C13.1867 8.81285 12.2119 8.27253 11.4387 7.49938C10.8941 6.95474 10.4627 6.30763 10.1694 5.59541L9.37768 3.67264Z"/>
</svg>
