<svg width="24" height="24" viewBox="0 0 24 24" fill="none" xmlns="http://www.w3.org/2000/svg">
<g clip-path="url(#clip0_9091_104935)">
<rect width="24" height="24" transform="matrix(-1 0 0 1 24 0)" fill="white"/>
<rect width="24" height="24" transform="matrix(-1 0 0 1 24 0)" fill="white"/>
<path d="M2.875 21.125L9 15" stroke="black" stroke-width="1.5" stroke-linecap="round"/>
<path d="M16.7197 11.9697C16.4268 12.2626 16.4268 12.7374 16.7197 13.0303C17.0126 13.3232 17.4874 13.3232 17.7803 13.0303L16.7197 11.9697ZM10.8705 6.19504C10.564 6.47368 10.5414 6.94801 10.82 7.2545C11.0987 7.561 11.573 7.58359 11.8795 7.30496L10.8705 6.19504ZM13.4235 3.7681L12.7245 3.49626L13.4235 3.7681ZM15.5837 2.08366L15.0533 2.61399L15.5837 2.08366ZM21.9163 8.41634L21.386 8.94667L21.9163 8.41634ZM21.5717 10.0555L21.8435 10.7545L21.5717 10.0555ZM14.9669 18.8659L14.2457 18.6598L14.9669 18.8659ZM4.70174 10.7017L4.17141 11.2321L4.70174 10.7017ZM5.13412 9.03311L5.34017 9.75425L5.13412 9.03311ZM4.17141 11.2321L12.7679 19.8286L13.8286 18.7679L5.23207 10.1714L4.17141 11.2321ZM22.4467 7.88601L16.114 1.55333L15.0533 2.61399L21.386 8.94667L22.4467 7.88601ZM13.2455 2.15648L12.7245 3.49626L14.1225 4.03993L14.6435 2.70015L13.2455 2.15648ZM19.9477 11.4917L21.8435 10.7545L21.2999 9.35645L19.404 10.0937L19.9477 11.4917ZM17.7803 13.0303L18.1382 12.6724L17.0776 11.6118L16.7197 11.9697L17.7803 13.0303ZM8.29396 7.35029L4.92808 8.31196L5.34017 9.75425L8.70604 8.79257L8.29396 7.35029ZM15.688 19.0719L16.6497 15.706L15.2074 15.294L14.2457 18.6598L15.688 19.0719ZM19.404 10.0937C18.5317 10.433 17.7394 10.9499 17.0776 11.6118L18.1382 12.6724C18.653 12.1577 19.2692 11.7556 19.9477 11.4917L19.404 10.0937ZM12.7245 3.49626C12.3236 4.52717 11.689 5.45099 10.8705 6.19504L11.8795 7.30496C12.8697 6.40479 13.6375 5.28714 14.1225 4.03993L12.7245 3.49626ZM16.114 1.55333C15.2205 0.659829 13.7035 0.978803 13.2455 2.15648L14.6435 2.70015C14.709 2.53191 14.9257 2.48634 15.0533 2.61399L16.114 1.55333ZM21.386 8.94667C21.5137 9.07432 21.4681 9.29103 21.2999 9.35645L21.8435 10.7545C23.0212 10.2965 23.3402 8.77951 22.4467 7.88601L21.386 8.94667ZM12.7679 19.8286C13.7115 20.7721 15.3215 20.3549 15.688 19.0719L14.2457 18.6598C14.1934 18.8431 13.9634 18.9027 13.8286 18.7679L12.7679 19.8286ZM5.23207 10.1714C5.09728 10.0366 5.15688 9.80662 5.34017 9.75425L4.92808 8.31196C3.64508 8.67854 3.22788 10.2885 4.17141 11.2321L5.23207 10.1714Z" fill="black"/>
<path d="M2.875 2.625L21.625 21.375" stroke="black" stroke-width="1.5" stroke-linecap="round"/>
</g>
<defs>
<clipPath id="clip0_9091_104935">
<rect width="24" height="24" fill="white" transform="matrix(-1 0 0 1 24 0)"/>
</clipPath>
</defs>
</svg>
