<svg width="25" height="24" viewBox="0 0 25 24" fill="none" xmlns="http://www.w3.org/2000/svg">
<rect width="24" height="24" transform="matrix(-1 0 0 1 24.5 0)" fill="white"/>
<path d="M13.7455 2.15648C14.2035 0.978804 15.7205 0.65983 16.614 1.55333L22.9467 7.88602C23.8402 8.77951 23.5212 10.2965 22.3435 10.7545L20.4477 11.4917C19.7692 11.7556 19.153 12.1577 18.6382 12.6724L18.2803 13.0303C17.9874 13.3232 17.5126 13.3232 17.2197 13.0303C16.9268 12.7374 16.9268 12.2626 17.2197 11.9697L17.5776 11.6118C18.2394 10.9499 19.0317 10.433 19.904 10.0937L21.7999 9.35645C21.9681 9.29103 22.0137 9.07432 21.886 8.94668L15.5533 2.61399C15.4257 2.48634 15.209 2.53191 15.1436 2.70015L14.6225 4.03993C14.1375 5.28714 13.3697 6.40479 12.3795 7.30496C12.073 7.58359 11.5987 7.561 11.3201 7.25451C11.0414 6.94801 11.064 6.47368 11.3705 6.19505C12.189 5.45099 12.8236 4.52717 13.2245 3.49626L13.7455 2.15648Z" fill="black"/>
<path fill-rule="evenodd" clip-rule="evenodd" d="M16.7599 17.0705L21.5947 21.9053C21.8876 22.1982 22.3624 22.1982 22.6553 21.9053C22.9482 21.6124 22.9482 21.1376 22.6553 20.8447L3.90533 2.09467C3.61244 1.80178 3.13756 1.80178 2.84467 2.09467C2.55178 2.38756 2.55178 2.86244 2.84467 3.15533L7.42948 7.74014L5.42809 8.31197C4.14508 8.67854 3.72789 10.2885 4.67141 11.2321L8.43934 15L2.84467 20.5947C2.55178 20.8876 2.55178 21.3625 2.84467 21.6553C3.13756 21.9482 3.61244 21.9482 3.90533 21.6553L9.5 16.0607L13.2679 19.8286C14.2115 20.7721 15.8215 20.3549 16.188 19.0719L16.7599 17.0705ZM8.64283 8.95349L15.5465 15.8572L14.7458 18.6598C14.6934 18.8431 14.4634 18.9027 14.3286 18.7679L5.73207 10.1714C5.59729 10.0366 5.65688 9.80662 5.84017 9.75425L8.64283 8.95349Z" fill="black"/>
</svg>
