<svg width="24" height="24" viewBox="0 0 24 24" fill="none" xmlns="http://www.w3.org/2000/svg">
<rect width="24" height="24" transform="matrix(-1 0 0 1 24 0)" fill="white"/>
<path fill-rule="evenodd" clip-rule="evenodd" d="M16.114 1.55333C15.2205 0.65983 13.7035 0.978804 13.2455 2.15648L12.6118 3.78601C12.2863 4.62307 11.7665 5.37078 11.0952 5.96746C10.4596 6.53246 9.70495 6.94715 8.88723 7.18078L4.92809 8.31197C3.64508 8.67854 3.22789 10.2885 4.17141 11.2321L7.93934 15L2.34467 20.5947C2.05178 20.8876 2.05178 21.3625 2.34467 21.6553C2.63756 21.9482 3.11244 21.9482 3.40533 21.6553L9 16.0607L12.7679 19.8286C13.7115 20.7721 15.3215 20.3549 15.688 19.0719L16.8192 15.1128C17.0529 14.2951 17.4675 13.5404 18.0325 12.9048C18.6292 12.2335 19.3769 11.7137 20.214 11.3882L21.8435 10.7545C23.0212 10.2965 23.3402 8.77951 22.4467 7.88602L16.114 1.55333ZM5.23207 10.1714C5.09729 10.0366 5.15688 9.80662 5.34017 9.75425L9.29931 8.62307C10.3335 8.32759 11.2879 7.80313 12.0918 7.08858C12.9407 6.33394 13.5982 5.38832 14.0098 4.32968L14.6436 2.70015C14.709 2.53191 14.9257 2.48634 15.0533 2.61399L21.386 8.94668C21.5137 9.07432 21.4681 9.29103 21.2999 9.35645L19.6703 9.99016C18.6117 10.4019 17.6661 11.0593 16.9114 11.9083C16.1969 12.7121 15.6724 13.6665 15.3769 14.7007L14.2458 18.6598C14.1934 18.8431 13.9634 18.9027 13.8286 18.7679L5.23207 10.1714Z" fill="black"/>
</svg>
