<svg width="17" height="16" viewBox="0 0 17 16" fill="none" xmlns="http://www.w3.org/2000/svg">
<g clip-path="url(#clip0_9098_104891)">
<rect width="16" height="16" transform="matrix(-1 0 0 1 16.5 0)" fill="white"/>
<path fill-rule="evenodd" clip-rule="evenodd" d="M2.15533 0.59467C1.86244 0.301777 1.38756 0.301777 1.09467 0.59467C0.801777 0.887563 0.801777 1.36244 1.09467 1.65533L4.40522 4.96588L3.81717 5.10589C2.48533 5.42299 2.01699 7.07767 2.98506 8.04574L5.18933 10.25L1.21967 14.2197C0.926777 14.5126 0.926777 14.9874 1.21967 15.2803C1.51256 15.5732 1.98744 15.5732 2.28033 15.2803L6.24999 11.3107L8.45424 13.5149C9.42231 14.483 11.077 14.0146 11.3941 12.6828L11.5341 12.0948L14.8447 15.4053C15.1376 15.6982 15.6124 15.6982 15.9053 15.4053C16.1982 15.1124 16.1982 14.6376 15.9053 14.3447L2.15533 0.59467ZM10.2887 10.8494L5.65062 6.21128L4.16459 6.5651C3.97433 6.6104 3.90743 6.84678 4.04572 6.98508L6.77749 9.71685L6.78033 9.71967L6.78315 9.72251L9.5149 12.4543C9.6532 12.5926 9.88958 12.5256 9.93488 12.3354L10.2887 10.8494Z" fill="black"/>
<path d="M11.7944 0.983748C10.9335 0.122799 9.47828 0.38233 8.96805 1.48783L8.21719 3.11469C8.15627 3.24669 8.07247 3.36687 7.96967 3.46967C7.67678 3.76256 7.67678 4.23743 7.96967 4.53033C8.26256 4.82322 8.73744 4.82322 9.03033 4.53033C9.25826 4.3024 9.44405 4.03595 9.57913 3.74328L10.33 2.11642C10.4029 1.95849 10.6108 1.92142 10.7338 2.04441L14.4556 5.76624C14.5786 5.88924 14.5415 6.09712 14.3836 6.17001L12.7567 6.92087C12.4641 7.05594 12.1976 7.24174 11.9697 7.46967C11.6768 7.76256 11.6768 8.23743 11.9697 8.53033C12.2626 8.82322 12.7374 8.82322 13.0303 8.53033C13.1331 8.42753 13.2533 8.34373 13.3853 8.28281L15.0122 7.53195C16.1177 7.02172 16.3772 5.56653 15.5162 4.70558L11.7944 0.983748Z" fill="black"/>
</g>
<defs>
<clipPath id="clip0_9098_104891">
<rect width="16" height="16" fill="white" transform="matrix(-1 0 0 1 16.5 0)"/>
</clipPath>
</defs>
</svg>
