<svg width="16" height="16" viewBox="0 0 16 16" fill="none" xmlns="http://www.w3.org/2000/svg">
<g clip-path="url(#clip0_9091_104922)">
<rect width="16" height="16" transform="matrix(-1 0 0 1 16 0)" fill="white"/>
<path d="M1.125 1.125L14.875 14.875" stroke="black" stroke-width="1.5" stroke-linecap="round"/>
<path d="M1.25 14.75L5.75 10.25" stroke="black" stroke-width="1.5" stroke-linecap="round"/>
<path d="M5.25002 5.41666L3.4909 5.83549C2.72985 6.01669 2.46223 6.96222 3.01541 7.5154L8.48459 12.9846C9.03778 13.5378 9.9833 13.2701 10.1645 12.5091L10.5238 11" stroke="black" stroke-width="1.5" stroke-linecap="round" stroke-linejoin="round"/>
<path d="M8 4V4C8.16536 3.83464 8.30016 3.64132 8.39816 3.42899L9.14902 1.80213C9.44058 1.17041 10.2721 1.02211 10.7641 1.51408L14.4859 5.23592C14.9779 5.72789 14.8296 6.55942 14.1979 6.85098L12.571 7.60184C12.3587 7.69984 12.1654 7.83464 12 8V8" stroke="black" stroke-width="1.5" stroke-linecap="round" stroke-linejoin="round"/>
</g>
<defs>
<clipPath id="clip0_9091_104922">
<rect width="16" height="16" fill="white" transform="matrix(-1 0 0 1 16 0)"/>
</clipPath>
</defs>
</svg>
