<svg xmlns="http://www.w3.org/2000/svg" width="16" height="16" viewBox="0 0 16 16">
  <defs/>
  <path d="M8,0 C12.418,0 16,3.582 16,8 C16,12.418 12.418,16 8,16 C3.582,16 0,12.418 0,8 C0,3.582 3.582,0 8,0 Z M1.5,8 C1.5,11.59 4.41,14.5 8,14.5 C11.59,14.5 14.5,11.59 14.5,8 C14.5,4.41 11.59,1.5 8,1.5 C4.41,1.5 1.5,4.41 1.5,8 Z M6.379,5.227 L10.643,7.786 C10.718,7.831 10.764,7.912 10.764,8 C10.764,8.088 10.718,8.169 10.643,8.214 L6.379,10.773 C6.302,10.82 6.206,10.821 6.127,10.777 C6.049,10.732 6,10.649 6,10.559 L6,5.442 C6,5.352 6.048,5.268 6.127,5.224 C6.205,5.179 6.302,5.18 6.379,5.227 Z"/>
</svg>

