<svg width="24" height="24" viewBox="0 0 24 24" xmlns="http://www.w3.org/2000/svg">
  <path d="M9.5 15.5842V8.41583C9.5 8.02025 9.93762 7.78133 10.2704 7.99524L15.8458 11.5794C16.1519 11.7762 16.1519 12.2238 15.8458 12.4206L10.2704 16.0048C9.93762 16.2187 9.5 15.9798 9.5 15.5842Z"/>
  <path fill-rule="evenodd" clip-rule="evenodd" d="M12 2.5C6.75329 2.5 2.5 6.75329 2.5 12C2.5 17.2467 6.75329 21.5 12 21.5C17.2467 21.5 21.5 17.2467 21.5 12C21.5 6.75329 17.2467 2.5 12 2.5ZM1 12C1 5.92487 5.92487 1 12 1C18.0751 1 23 5.92487 23 12C23 18.0751 18.0751 23 12 23C5.92487 23 1 18.0751 1 12Z"/>
</svg>
