<svg width="24" height="24" viewBox="0 0 24 24" xmlns="http://www.w3.org/2000/svg">
  <path fill-rule="evenodd" clip-rule="evenodd" d="M3.5 12C3.5 7.30558 7.30558 3.5 12 3.5C16.6944 3.5 20.5 7.30558 20.5 12C20.5 16.6944 16.6944 20.5 12 20.5C7.30558 20.5 3.5 16.6944 3.5 12ZM12 2C6.47715 2 2 6.47715 2 12C2 17.5228 6.47715 22 12 22C17.5228 22 22 17.5228 22 12C22 6.47715 17.5228 2 12 2ZM10 8.46713V15.5329C10 15.7325 10.2225 15.8516 10.3887 15.7409L15.688 12.208C15.8364 12.1091 15.8364 11.8909 15.688 11.792L10.3887 8.25911C10.2225 8.14835 10 8.26745 10 8.46713Z"/>
</svg>
