<svg width="16" height="16" viewBox="0 0 16 16" xmlns="http://www.w3.org/2000/svg">
  <path fill-rule="evenodd" clip-rule="evenodd" d="M1.5 8C1.5 4.41015 4.41015 1.5 8 1.5C11.5899 1.5 14.5 4.41015 14.5 8C14.5 11.5899 11.5899 14.5 8 14.5C4.41015 14.5 1.5 11.5899 1.5 8ZM8 0C3.58172 0 0 3.58172 0 8C0 12.4183 3.58172 16 8 16C12.4183 16 16 12.4183 16 8C16 3.58172 12.4183 0 8 0ZM6.37862 5.22717C6.21199 5.1272 6 5.24722 6 5.44155V10.5585C6 10.7528 6.21199 10.8728 6.37862 10.7728L10.6427 8.21437C10.8045 8.11727 10.8045 7.88273 10.6427 7.78563L6.37862 5.22717Z"/>
</svg>
