<svg xmlns="http://www.w3.org/2000/svg" width="16" height="16" viewBox="0 0 16 16">
  <defs/>
  <path d="M4,8 L2.5,8 C1.948,8 1.5,8.448 1.5,9 L1.5,14.25 C1.5,14.664 1.164,15 0.75,15 C0.336,15 0,14.664 0,14.25 L0,9 C0,7.619 1.119,6.5 2.5,6.5 L4,6.5 L4,5.133 C4,4.25 4.657,3.505 5.533,3.396 L8.364,3.043 L9.124,2.13 C9.456,1.73 9.949,1.5 10.468,1.5 L11.25,1.5 C12.216,1.5 13,2.284 13,3.25 L13,4 L15.25,4 C15.664,4 16,4.336 16,4.75 C16,5.164 15.664,5.5 15.25,5.5 L13,5.5 L13,9.5 L15.25,9.5 C15.664,9.5 16,9.836 16,10.25 C16,10.664 15.664,11 15.25,11 L13,11 L13,11.75 C13,12.716 12.216,13.5 11.25,13.5 L10.468,13.5 C9.949,13.5 9.456,13.27 9.124,12.87 L8.363,11.958 L5.533,11.604 C4.657,11.495 4,10.75 4,9.867 Z M10.276,3.09 L9.326,4.23 C9.204,4.376 9.032,4.471 8.843,4.495 L5.719,4.885 C5.594,4.901 5.5,5.007 5.5,5.133 L5.5,9.867 C5.5,9.993 5.594,10.1 5.719,10.116 L8.843,10.506 C9.032,10.53 9.204,10.624 9.326,10.77 L10.276,11.91 C10.323,11.967 10.394,12 10.468,12 L11.25,12 C11.388,12 11.5,11.888 11.5,11.75 L11.5,3.25 C11.5,3.112 11.388,3 11.25,3 L10.468,3 C10.394,3 10.323,3.033 10.276,3.09 Z"/>
</svg>

