<svg xmlns="http://www.w3.org/2000/svg" width="24" height="24" viewBox="0 0 24 24">
  <defs/>
  <path d="M12.75,7.75 A0.75 0.75 0 0 0 11.25,7.75 L11.25,11.25 L7.75,11.25 A0.75 0.75 0 0 0 7.75,12.75 L11.25,12.75 L11.25,16.25 A0.75 0.75 0 0 0 12.75,16.25 L12.75,12.75 L16.25,12.75 A0.75 0.75 0 0 0 16.25,11.25 L12.75,11.25 L12.75,7.75 Z"/>
  <path d="M12,1 C18.075,1 23,5.925 23,12 C23,18.075 18.075,23 12,23 C5.925,23 1,18.075 1,12 C1,5.925 5.925,1 12,1 Z M2.5,12 C2.5,17.247 6.753,21.5 12,21.5 C17.247,21.5 21.5,17.247 21.5,12 C21.5,6.753 17.247,2.5 12,2.5 C6.753,2.5 2.5,6.753 2.5,12 Z"/>
</svg>

