<svg width="16" height="16" viewBox="0 0 16 16" xmlns="http://www.w3.org/2000/svg">
  <path fill-rule="evenodd" clip-rule="evenodd" d="M1.75 0C0.783502 0 0 0.783501 0 1.75V14.25C0 15.2165 0.783501 16 1.75 16H14.25C15.2165 16 16 15.2165 16 14.25V1.75C16 0.783502 15.2165 0 14.25 0H1.75ZM1.5 1.75C1.5 1.61193 1.61193 1.5 1.75 1.5H14.25C14.3881 1.5 14.5 1.61193 14.5 1.75V14.25C14.5 14.3881 14.3881 14.5 14.25 14.5H1.75C1.61193 14.5 1.5 14.3881 1.5 14.25V1.75ZM11.75 3C11.3358 3 11 3.33579 11 3.75V11.25C11 11.6642 11.3358 12 11.75 12C12.1642 12 12.5 11.6642 12.5 11.25V3.75C12.5 3.33579 12.1642 3 11.75 3ZM3.5 3.75C3.5 3.33579 3.83579 3 4.25 3C4.66421 3 5 3.33579 5 3.75V9.25C5 9.66421 4.66421 10 4.25 10C3.83579 10 3.5 9.66421 3.5 9.25V3.75ZM8 3C7.58579 3 7.25 3.33579 7.25 3.75V7.25C7.25 7.66421 7.58579 8 8 8C8.41421 8 8.75 7.66421 8.75 7.25V3.75C8.75 3.33579 8.41421 3 8 3Z"/>
</svg>
