<svg xmlns="http://www.w3.org/2000/svg" width="16" height="16" viewBox="0 0 16 16">
  <defs/>
  <path d="M0,1.75 C0,0.784 0.784,0 1.75,0 L14.25,0 C15.216,0 16,0.784 16,1.75 L16,14.25 C16,15.216 15.216,16 14.25,16 L5.75,16 C5.336,16 5,15.664 5,15.25 C5,14.836 5.336,14.5 5.75,14.5 L14.25,14.5 C14.388,14.5 14.5,14.388 14.5,14.25 L14.5,6.5 L1.5,6.5 L1.5,8.25 C1.5,8.664 1.164,9 0.75,9 C0.336,9 0,8.664 0,8.25 Z M6.5,5 L14.5,5 L14.5,1.75 C14.5,1.612 14.388,1.5 14.25,1.5 L6.5,1.5 Z M1.5,5 L5,5 L5,1.5 L1.75,1.5 C1.612,1.5 1.5,1.612 1.5,1.75 Z"/>
  <path d="M1.5,13.737 A2.25 2.25 0 0 1 3.762,11.487 L4,11.49 L4,13.428 C4,13.646 4.26,13.759 4.42,13.611 L7.303,10.934 A0.25 0.25 0 0 0 7.303,10.568 L4.42,7.89 A0.25 0.25 0 0 0 4,8.073 L4,9.99 L3.77,9.989 A3.75 3.75 0 0 0 0,13.738 L0,14.75 A0.75 0.75 0 0 0 1.5,14.75 L1.5,13.737 Z"/>
</svg>

