<svg xmlns="http://www.w3.org/2000/svg" width="24" height="24" viewBox="0 0 24 24">
  <defs/>
  <path d="M8.75,7 A0.75 0.75 0 0 0 8.75,8.5 L16.25,8.5 A0.75 0.75 0 0 0 16.25,7 L8.75,7 Z M7,11.75 A0.75 0.75 0 0 1 7.75,11 L14.25,11 A0.75 0.75 0 0 1 14.25,12.5 L7.75,12.5 A0.75 0.75 0 0 1 7,11.75 Z M9.75,15 A0.75 0.75 0 0 0 9.75,16.5 L16.25,16.5 A0.75 0.75 0 0 0 16.25,15 L9.75,15 Z"/>
  <path d="M2,3.75 C2,2.784 2.784,2 3.75,2 L20.25,2 C21.216,2 22,2.784 22,3.75 L22,20.25 C22,21.216 21.216,22 20.25,22 L3.75,22 C2.784,22 2,21.216 2,20.25 Z M3.75,3.5 C3.612,3.5 3.5,3.612 3.5,3.75 L3.5,20.25 C3.5,20.388 3.612,20.5 3.75,20.5 L20.25,20.5 C20.388,20.5 20.5,20.388 20.5,20.25 L20.5,3.75 C20.5,3.612 20.388,3.5 20.25,3.5 Z"/>
</svg>

