<svg xmlns="http://www.w3.org/2000/svg" width="24" height="24" viewBox="0 0 24 24">
  <defs/>
  <path d="M2,3.75 C2,2.784 2.784,2 3.75,2 L20.25,2 C21.216,2 22,2.784 22,3.75 L22,20.25 C22,21.216 21.216,22 20.25,22 L9.75,22 C9.336,22 9,21.664 9,21.25 C9,20.836 9.336,20.5 9.75,20.5 L20.25,20.5 C20.388,20.5 20.5,20.388 20.5,20.25 L20.5,9 L3.5,9 L3.5,12 C3.5,12.414 3.164,12.75 2.75,12.75 C2.336,12.75 2,12.414 2,12 Z M9,7.5 L20.5,7.5 L20.5,3.75 C20.5,3.612 20.388,3.5 20.25,3.5 L9,3.5 Z M3.5,7.5 L7.5,7.5 L7.5,3.5 L3.75,3.5 C3.612,3.5 3.5,3.612 3.5,3.75 Z"/>
  <path d="M9.308,14.5 L7.204,12.264 A0.75 0.75 0 1 1 8.296,11.236 L11.59,14.736 A0.75 0.75 0 0 1 11.59,15.764 L8.296,19.264 A0.75 0.75 0 1 1 7.204,18.236 L9.308,16 L6.09,16 A2.59 2.59 0 0 0 3.5,18.59 L3.5,21.25 A0.75 0.75 0 0 1 2,21.25 L2,18.59 A4.09 4.09 0 0 1 6.09,14.5 L9.308,14.5 Z"/>
</svg>

