<svg xmlns="http://www.w3.org/2000/svg" width="16" height="16" viewBox="0 0 16 16">
  <defs/>
  <path d="M1.75,0 L14.25,0 C15.216,0 16,0.784 16,1.75 L16,14.25 C16,15.216 15.216,16 14.25,16 L1.75,16 C0.784,16 0,15.216 0,14.25 L0,1.75 C0,0.784 0.784,0 1.75,0 Z M1.5,1.75 L1.5,14.25 C1.5,14.388 1.612,14.5 1.75,14.5 L14.25,14.5 C14.388,14.5 14.5,14.388 14.5,14.25 L14.5,1.75 C14.5,1.612 14.388,1.5 14.25,1.5 L1.75,1.5 C1.612,1.5 1.5,1.612 1.5,1.75 Z M11.75,3 C12.164,3 12.5,3.336 12.5,3.75 L12.5,11.25 C12.5,11.664 12.164,12 11.75,12 C11.336,12 11,11.664 11,11.25 L11,3.75 C11,3.336 11.336,3 11.75,3 Z M3.5,3.75 C3.5,3.336 3.836,3 4.25,3 C4.664,3 5,3.336 5,3.75 L5,9.25 C5,9.664 4.664,10 4.25,10 C3.836,10 3.5,9.664 3.5,9.25 Z M8,3 C8.414,3 8.75,3.336 8.75,3.75 L8.75,7.25 C8.75,7.664 8.414,8 8,8 C7.586,8 7.25,7.664 7.25,7.25 L7.25,3.75 C7.25,3.336 7.586,3 8,3 Z"/>
</svg>

