<svg width="16" height="16" viewBox="0 0 16 16" fill="none" xmlns="http://www.w3.org/2000/svg">
<g clip-path="url(#clip0_8974_112324)">
<path d="M1.5 1.75C1.5 1.61193 1.61193 1.5 1.75 1.5H3.3125C3.72671 1.5 4.0625 1.16421 4.0625 0.75C4.0625 0.335786 3.72671 0 3.3125 0H1.75C0.783502 0 0 0.783501 0 1.75V3.3125C0 3.72671 0.335786 4.0625 0.75 4.0625C1.16421 4.0625 1.5 3.72671 1.5 3.3125V1.75Z" fill="black"/>
<path d="M6.4375 0C6.02329 0 5.6875 0.335786 5.6875 0.75C5.6875 1.16421 6.02329 1.5 6.4375 1.5H9.5625C9.97671 1.5 10.3125 1.16421 10.3125 0.75C10.3125 0.335786 9.97671 0 9.5625 0H6.4375Z" fill="black"/>
<path d="M12.6875 0C12.2733 0 11.9375 0.335786 11.9375 0.75C11.9375 1.16421 12.2733 1.5 12.6875 1.5H14.25C14.3881 1.5 14.5 1.61193 14.5 1.75V3.3125C14.5 3.72671 14.8358 4.0625 15.25 4.0625C15.6642 4.0625 16 3.72671 16 3.3125V1.75C16 0.783502 15.2165 0 14.25 0H12.6875Z" fill="black"/>
<path d="M1.5 6.4375C1.5 6.02329 1.16421 5.6875 0.75 5.6875C0.335786 5.6875 0 6.02329 0 6.4375V9.5625C0 9.97671 0.335786 10.3125 0.75 10.3125C1.16421 10.3125 1.5 9.97671 1.5 9.5625V6.4375Z" fill="black"/>
<path d="M16 6.4375C16 6.02329 15.6642 5.6875 15.25 5.6875C14.8358 5.6875 14.5 6.02329 14.5 6.4375V9.5625C14.5 9.97671 14.8358 10.3125 15.25 10.3125C15.6642 10.3125 16 9.97671 16 9.5625V6.4375Z" fill="black"/>
<path d="M1.5 12.6875C1.5 12.2733 1.16421 11.9375 0.75 11.9375C0.335786 11.9375 0 12.2733 0 12.6875V14.25C0 15.2165 0.783501 16 1.75 16H3.3125C3.72671 16 4.0625 15.6642 4.0625 15.25C4.0625 14.8358 3.72671 14.5 3.3125 14.5H1.75C1.61193 14.5 1.5 14.3881 1.5 14.25V12.6875Z" fill="black"/>
<path d="M16 12.6875C16 12.2733 15.6642 11.9375 15.25 11.9375C14.8358 11.9375 14.5 12.2733 14.5 12.6875V14.25C14.5 14.3881 14.3881 14.5 14.25 14.5H12.6875C12.2733 14.5 11.9375 14.8358 11.9375 15.25C11.9375 15.6642 12.2733 16 12.6875 16H14.25C15.2165 16 16 15.2165 16 14.25V12.6875Z" fill="black"/>
<path d="M6.4375 14.5C6.02329 14.5 5.6875 14.8358 5.6875 15.25C5.6875 15.6642 6.02329 16 6.4375 16H9.5625C9.97671 16 10.3125 15.6642 10.3125 15.25C10.3125 14.8358 9.97671 14.5 9.5625 14.5H6.4375Z" fill="black"/>
<path d="M6.5 3C6.5 2.58579 6.16421 2.25 5.75 2.25C5.33579 2.25 5 2.58579 5 3V4C5 4.41421 5.33579 4.75 5.75 4.75C6.16421 4.75 6.5 4.41421 6.5 4V3Z" fill="black"/>
<path d="M2.25 5.75C2.25 5.33579 2.58579 5 3 5H4C4.41421 5 4.75 5.33579 4.75 5.75C4.75 6.16421 4.41421 6.5 4 6.5H3C2.58579 6.5 2.25 6.16421 2.25 5.75Z" fill="black"/>
<path d="M6.75 5.75C6.75 5.33579 7.08579 5 7.5 5H8.5C8.91421 5 9.25 5.33579 9.25 5.75C9.25 6.16421 8.91421 6.5 8.5 6.5H7.5C7.08579 6.5 6.75 6.16421 6.75 5.75Z" fill="black"/>
<path d="M5.75 6.75C6.16421 6.75 6.5 7.08579 6.5 7.5V8.5C6.5 8.91421 6.16421 9.25 5.75 9.25C5.33579 9.25 5 8.91421 5 8.5V7.5C5 7.08579 5.33579 6.75 5.75 6.75Z" fill="black"/>
<path d="M6.5 10.75C6.5 10.3358 6.16421 10 5.75 10C5.33579 10 5 10.3358 5 10.75V13.25C5 13.6642 5.33579 14 5.75 14C6.16421 14 6.5 13.6642 6.5 13.25V10.75Z" fill="black"/>
<path d="M10 5.75C10 5.33579 10.3358 5 10.75 5H13.25C13.6642 5 14 5.33579 14 5.75C14 6.16421 13.6642 6.5 13.25 6.5H10.75C10.3358 6.5 10 6.16421 10 5.75Z" fill="black"/>
</g>
<defs>
<clipPath id="clip0_8974_112324">
<rect width="16" height="16" fill="white"/>
</clipPath>
</defs>
</svg>
