<svg width="16" height="16" viewBox="0 0 16 16" fill="none" xmlns="http://www.w3.org/2000/svg">
<g clip-path="url(#clip0_8245_104363)">
<path fill-rule="evenodd" clip-rule="evenodd" d="M0 1.75C0 0.783502 0.783502 0 1.75 0H14.25C15.2165 0 16 0.783502 16 1.75V14.25C16 15.2165 15.2165 16 14.25 16H5.75C5.33579 16 5 15.6642 5 15.25C5 14.8358 5.33579 14.5 5.75 14.5H14.25C14.3881 14.5 14.5 14.3881 14.5 14.25V6.5H1.5V8.25C1.5 8.66421 1.16421 9 0.75 9C0.335786 9 0 8.66421 0 8.25V1.75ZM1.5 5H5V1.5H1.75C1.61193 1.5 1.5 1.61193 1.5 1.75V5ZM6.5 5H14.5V1.75C14.5 1.61193 14.3881 1.5 14.25 1.5H6.5V5Z" fill="black"/>
<path d="M1.5 13.7374C1.5 12.4899 2.51488 11.4807 3.76245 11.4876L3.99997 11.489L3.99997 13.4267C3.99997 13.645 4.26012 13.7584 4.42009 13.6099L7.30268 10.9332C7.4092 10.8343 7.4092 10.6657 7.30268 10.5668L4.42008 7.8901C4.26012 7.74156 3.99997 7.85501 3.99997 8.0733L3.99997 9.98894L3.77075 9.98767C1.69169 9.97616 0 11.6581 0 13.7374V14.75C0 15.1642 0.335786 15.5 0.75 15.5C1.16421 15.5 1.5 15.1642 1.5 14.75V13.7374Z" fill="black"/>
</g>
<defs>
<clipPath id="clip0_8245_104363">
<rect width="16" height="16" fill="white"/>
</clipPath>
</defs>
</svg>
