<svg xmlns="http://www.w3.org/2000/svg" width="24" height="24" viewBox="0 0 24 24"><path d="M2 3.75C2 2.784 2.784 2 3.75 2h16.5c.966 0 1.75.784 1.75 1.75v16.5A1.75 1.75 0 0120.25 22H9.75a.75.75 0 010-1.5h10.5a.25.25 0 00.25-.25V9h-17v3A.75.75 0 012 12zM9 7.5h11.5V3.75a.25.25 0 00-.25-.25H9zm-5.5 0h4v-4H3.75a.25.25 0 00-.25.25z"/><path d="M9.308 14.5l-2.104-2.236a.75.75 0 111.092-1.028l3.294 3.5a.75.75 0 010 1.028l-3.294 3.5a.75.75 0 11-1.092-1.028L9.308 16H6.09a2.59 2.59 0 00-2.59 2.59v2.66a.75.75 0 01-1.5 0v-2.66a4.09 4.09 0 014.09-4.09h3.218z"/></svg>