<svg xmlns="http://www.w3.org/2000/svg" width="24" height="24" viewBox="0 0 24 24"><path d="M2 3.75C2 2.783 2.783 2 3.75 2h16.5c.966 0 1.75.783 1.75 1.75V10a.75.75 0 1 1-1.5 0V8.75H8.75V20.5H10a.75.75 0 1 1 0 1.5H3.75A1.75 1.75 0 0 1 2 20.25Zm6.75-.25v3.75H20.5v-3.5a.25.25 0 0 0-.25-.25Zm-1.5 17V8.75H3.5v11.5c0 .138.112.25.25.25ZM3.5 7.25h3.75V3.5h-3.5a.25.25 0 0 0-.25.25Z"/><path d="M21.78 16.28a.75.75 0 1 0-1.06-1.06l-4.97 4.97-1.97-1.97a.75.75 0 1 0-1.06 1.06l2.5 2.5a.75.75 0 0 0 1.06 0Z"/></svg>