<svg xmlns="http://www.w3.org/2000/svg" width="16" height="16" viewBox="0 0 16 16">
  <defs/>
  <path d="M6,2 C6.306,2 6.582,2.187 6.696,2.471 L10,10.731 L11.304,7.471 C11.418,7.187 11.694,7 12,7 L15.25,7 C15.664,7 16,7.336 16,7.75 C16,8.164 15.664,8.5 15.25,8.5 L12.508,8.5 L10.696,13.028 C10.582,13.312 10.306,13.499 10,13.499 C9.694,13.499 9.418,13.312 9.304,13.028 L6,4.77 L4.696,8.03 C4.582,8.314 4.306,8.5 4,8.5 L0.75,8.5 C0.336,8.5 0,8.164 0,7.75 C0,7.336 0.336,7 0.75,7 L3.492,7 L5.304,2.471 C5.418,2.187 5.694,2 6,2 Z"/>
</svg>

