<svg width="24" height="24" viewBox="0 0 24 24" xmlns="http://www.w3.org/2000/svg">
  <path fill-rule="evenodd" clip-rule="evenodd" d="M9.00154 2.5C9.30488 2.50064 9.57798 2.68394 9.69348 2.96444L15.9953 18.2688L18.5551 11.9677C18.67 11.685 18.9448 11.5 19.25 11.5H23.25C23.6642 11.5 24 11.8358 24 12.25C24 12.6642 23.6642 13 23.25 13H19.7548L16.6948 20.5323C16.5802 20.8145 16.3063 20.9993 16.0017 21C15.6972 21.0007 15.4224 20.8172 15.3065 20.5356L8.99587 5.20984L5.94228 12.5385C5.82583 12.8179 5.55275 13 5.24997 13H0.749969C0.335756 13 -3.05176e-05 12.6642 -3.05176e-05 12.25C-3.05176e-05 11.8358 0.335756 11.5 0.749969 11.5H4.74997L8.30766 2.96154C8.42433 2.68153 8.69819 2.49937 9.00154 2.5Z"/>
</svg>
