<svg xmlns="http://www.w3.org/2000/svg" width="16" height="16" viewBox="0 0 16 16"><path d="M0 8a8 8 0 1116 0A8 8 0 010 8zm8-6.5a6.5 6.5 0 100 13 6.5 6.5 0 000-13zM6.92 6.085h.001a.749.749 0 11-1.342-.67c.169-.339.436-.701.849-.977C6.845 4.16 7.369 4 8 4a2.756 2.756 0 011.637.525c.503.377.863.965.863 1.725 0 .448-.115.83-.329 1.15-.205.307-.47.513-.692.662-.109.072-.22.138-.313.195l-.006.004a6.24 6.24 0 00-.26.16.952.952 0 00-.276.245.75.75 0 01-1.248-.832c.184-.264.42-.489.692-.661.103-.067.207-.132.313-.195l.007-.004c.1-.061.182-.11.258-.161a.969.969 0 00.277-.245C8.96 6.514 9 6.427 9 6.25a.612.612 0 00-.262-.525A1.27 1.27 0 008 5.5c-.369 0-.595.09-.74.187a1.01 1.01 0 00-.34.398zM9 11a1 1 0 11-2 0 1 1 0 012 0z"/></svg>