<svg xmlns="http://www.w3.org/2000/svg" width="24" height="24" viewBox="0 0 24 24">
  <defs/>
  <path d="M10.97,8.265 A1.45 1.45 0 0 0 10.483,8.835 A0.75 0.75 0 0 1 9.142,8.165 C9.342,7.763 9.655,7.339 10.139,7.017 C10.627,6.69 11.244,6.5 12,6.5 C12.658,6.5 13.369,6.695 13.934,7.119 A2.45 2.45 0 0 1 14.938,9.125 C14.938,10.158 14.425,10.845 13.911,11.34 C13.721,11.523 13.512,11.698 13.332,11.848 L13.185,11.971 A4.329 4.329 0 0 0 12.75,12.38 L12.75,13.75 A0.75 0.75 0 1 1 11.25,13.75 L11.25,12.277 C11.25,12.04 11.317,11.773 11.497,11.541 C11.717,11.261 11.983,11.024 12.215,10.827 L12.398,10.674 L12.399,10.673 C12.571,10.53 12.723,10.403 12.869,10.261 C13.237,9.906 13.438,9.585 13.438,9.125 A0.953 0.953 0 0 0 13.034,8.319 C12.766,8.118 12.384,8 12,8 C11.506,8 11.186,8.121 10.97,8.265 Z M13,17 A1 1 0 1 1 11,17 A1 1 0 0 1 13,17 Z"/>
  <path d="M12,1 C18.075,1 23,5.925 23,12 C23,18.075 18.075,23 12,23 C5.925,23 1,18.075 1,12 C1,5.925 5.925,1 12,1 Z M2.5,12 C2.5,17.247 6.753,21.5 12,21.5 C17.247,21.5 21.5,17.247 21.5,12 C21.5,6.753 17.247,2.5 12,2.5 C6.753,2.5 2.5,6.753 2.5,12 Z"/>
</svg>

