<svg xmlns="http://www.w3.org/2000/svg" width="24" height="24" viewBox="0 0 24 24">
  <defs/>
  <path d="M3,6.25 C3,5.836 3.336,5.5 3.75,5.5 L17.25,5.5 C17.664,5.5 18,5.836 18,6.25 C18,6.664 17.664,7 17.25,7 L3.75,7 C3.336,7 3,6.664 3,6.25 Z M8,12.313 C8,11.899 8.336,11.563 8.75,11.563 L20.25,11.563 C20.664,11.563 21,11.899 21,12.313 C21,12.727 20.664,13.063 20.25,13.063 L8.75,13.063 C8.336,13.063 8,12.727 8,12.313 Z M8,18.25 C8,17.836 8.336,17.5 8.75,17.5 L20.25,17.5 C20.664,17.5 21,17.836 21,18.25 C21,18.664 20.664,19 20.25,19 L8.75,19 C8.336,19 8,18.664 8,18.25 Z M3.75,11 C4.164,11 4.5,11.336 4.5,11.75 L4.5,18.75 C4.5,19.164 4.164,19.5 3.75,19.5 C3.336,19.5 3,19.164 3,18.75 L3,11.75 C3,11.336 3.336,11 3.75,11 Z"/>
</svg>

