<svg xmlns="http://www.w3.org/2000/svg" width="16" height="16" viewBox="0 0 16 16"><path d="M2.333 2h11.334C14.403 2 15 2.597 15 3.333v3c0 .737-.597 1.334-1.333 1.334H2.333A1.333 1.333 0 0 1 1 6.333v-3C1 2.597 1.597 2 2.333 2Zm0 1A.333.333 0 0 0 2 3.333v3c0 .184.149.334.333.334h11.334c.184 0 .333-.15.333-.334v-3A.333.333 0 0 0 13.667 3Z"/><path d="M3 5.333h1v2H3v-2Zm9 0h1v2h-1v-2Z"/><path d="M13 5.667H3v-.334c0-.368.298-.666.667-.666h8.666c.368 0 .667.298.667.666v.334ZM2.333 8.333h11.334c.736 0 1.333.597 1.333 1.334v3c0 .736-.597 1.333-1.333 1.333H2.333A1.333 1.333 0 0 1 1 12.667v-3c0-.737.597-1.334 1.333-1.334Zm0 1A.334.334 0 0 0 2 9.667v3c0 .184.149.333.333.333h11.334a.333.333 0 0 0 .333-.333v-3a.334.334 0 0 0-.333-.334Z"/><path d="M3 12h1v1H3v-1Zm9 0h1v1h-1v-1Zm1 0H3v-.333c0-.368.298-.667.667-.667h8.666c.368 0 .667.299.667.667V12Z"/></svg>