<svg width="16" height="16" viewBox="0 0 16 16" fill="none" xmlns="http://www.w3.org/2000/svg">
<path fill-rule="evenodd" clip-rule="evenodd" d="M2.33333 2.00004H13.6667C14.403 2.00004 15 2.59699 15 3.33337V6.33335C15 7.06973 14.403 7.66669 13.6667 7.66669H2.33333C1.59695 7.66669 1 7.06974 1 6.33335V3.33337C1 2.59699 1.59695 2.00004 2.33333 2.00004ZM2.33333 3.00004C2.14924 3.00004 2 3.14928 2 3.33337V6.33335C2 6.51745 2.14924 6.66669 2.33333 6.66669H13.6667C13.8508 6.66669 14 6.51745 14 6.33335V3.33337C14 3.14928 13.8508 3.00004 13.6667 3.00004H2.33333Z" fill="#1F2328"/>
<rect x="3" y="5.33337" width="1" height="2" fill="#1F2328"/>
<rect x="12" y="5.33337" width="1" height="2" fill="#1F2328"/>
<path d="M13 5.66669H3V5.33335C3 4.96516 3.29848 4.66669 3.66667 4.66669H12.3333C12.7015 4.66669 13 4.96516 13 5.33335V5.66669Z" fill="#1F2328"/>
<path fill-rule="evenodd" clip-rule="evenodd" d="M2.33333 8.33329H13.6667C14.403 8.33329 15 8.93025 15 9.66663V12.6666C15 13.403 14.403 14 13.6667 14H2.33333C1.59695 14 1 13.403 1 12.6666V9.66663C1 8.93025 1.59695 8.33329 2.33333 8.33329ZM2.33333 9.3333C2.14924 9.3333 2 9.48254 2 9.66663V12.6666C2 12.8507 2.14924 13 2.33333 13H13.6667C13.8508 13 14 12.8507 14 12.6666V9.66663C14 9.48254 13.8508 9.3333 13.6667 9.3333H2.33333Z" fill="#1F2328"/>
<rect x="3" y="12" width="1" height="1" fill="#1F2328"/>
<rect x="12" y="12" width="1" height="1" fill="#1F2328"/>
<path d="M13 12H3V11.6667C3 11.2985 3.29848 11 3.66667 11H12.3333C12.7015 11 13 11.2985 13 11.6667V12Z" fill="#1F2328"/>
</svg>
