<svg xmlns="http://www.w3.org/2000/svg" width="24" height="24" viewBox="0 0 24 24"><path d="M3 2h18a2 2 0 0 1 2 2v5.5a2 2 0 0 1-2 2H3a2 2 0 0 1-2-2V4a2 2 0 0 1 2-2Zm0 1.5a.5.5 0 0 0-.5.5v5.5a.5.5 0 0 0 .5.5h18a.5.5 0 0 0 .5-.5V4a.5.5 0 0 0-.5-.5Z"/><path d="M4.5 8H6v2H4.5ZM18 8h1.5v2H18Zm1.5 0h-15v-.5a1 1 0 0 1 1-1h13a1 1 0 0 1 1 1ZM3 12.5h18a2 2 0 0 1 2 2V20a2 2 0 0 1-2 2H3a2 2 0 0 1-2-2v-5.5a2 2 0 0 1 2-2ZM3 14a.5.5 0 0 0-.5.5V20a.5.5 0 0 0 .5.5h18a.5.5 0 0 0 .5-.5v-5.5a.5.5 0 0 0-.5-.5Z"/><path d="M4.5 18.5H6v2H4.5Zm13.5 0h1.5v2H18Zm1.5 0h-15V18a1 1 0 0 1 1-1h13a1 1 0 0 1 1 1Z"/></svg>