<svg width="32" height="32" viewBox="0 0 32 32" fill="none" xmlns="http://www.w3.org/2000/svg">
<path fill-rule="evenodd" clip-rule="evenodd" d="M14.23 1.29886C15.323 0.658112 16.677 0.658113 17.77 1.29886L30.27 8.62644C31.3416 9.25463 32 10.4037 32 11.6459V24.5C32 26.433 30.433 28 28.5 28H3.5C1.567 28 0 26.433 0 24.5V11.6459C0 10.4037 0.658375 9.25462 1.72998 8.62644L14.23 1.29886ZM16.2529 3.88695C16.0967 3.79541 15.9033 3.79541 15.7471 3.88695L4.30922 10.5919L12.9343 15.5205C14.7863 14.2758 17.2138 14.2758 19.0657 15.5205L27.6908 10.5919L16.2529 3.88695ZM29 13.2991L21.626 17.5128L29 23.3067V13.2991ZM10.374 17.5128L3 13.2991V23.3067L10.374 17.5128ZM26.2994 25H5.70063L14.4554 18.1212C15.362 17.4089 16.638 17.4089 17.5446 18.1212L26.2994 25Z" fill="#24292F"/>
</svg>
