<svg xmlns="http://www.w3.org/2000/svg" width="24" height="24" viewBox="0 0 24 24"><path d="M10.89 1.767a2.252 2.252 0 012.22 0l9.75 5.525A2.25 2.25 0 0124 9.249v9.501A2.25 2.25 0 0121.75 21H2.25A2.25 2.25 0 010 18.75v-9.5c0-.81.435-1.558 1.14-1.958zm1.48 1.305a.75.75 0 00-.74 0l-9.316 5.28 7.41 4.233a3.75 3.75 0 014.553 0l7.41-4.234-9.317-5.28zM20.65 19.5l-7.26-5.704a2.25 2.25 0 00-2.78 0L3.35 19.5zm1.85-9.886l-6.95 3.971 6.663 5.236c.089.07.161.159.21.26a.745.745 0 00.077-.331zM8.45 13.585L1.5 9.614v9.136c0 .119.028.23.076.33a.744.744 0 01.21-.259z"/></svg>