<svg xmlns="http://www.w3.org/2000/svg" width="32" height="32" viewBox="0 0 32 32"><path fill-rule="evenodd" d="M14.23 1.299a3.5 3.5 0 013.54 0l12.5 7.327a3.5 3.5 0 011.73 3.02V24.5a3.5 3.5 0 01-3.5 3.5h-25A3.5 3.5 0 010 24.5V11.646a3.5 3.5 0 011.73-3.02L14.23 1.3zm2.023 2.588a.5.5 0 00-.506 0L4.31 10.592l8.625 4.928a5.5 5.5 0 016.132 0l8.625-4.928-11.438-6.705zM29 13.299l-7.374 4.214L29 23.307V13.299zm-18.626 4.214L3 13.299v10.008l7.374-5.794zM26.299 25H5.701l8.754-6.879a2.5 2.5 0 013.09 0L26.299 25z"/></svg>