<svg xmlns="http://www.w3.org/2000/svg" width="24" height="24" viewBox="0 0 24 24"><path fill-rule="evenodd" d="M10.89 1.767a2.25 2.25 0 012.22 0l9.75 5.525A2.25 2.25 0 0124 9.249v9.501A2.25 2.25 0 0121.75 21H2.25A2.25 2.25 0 010 18.75v-9.5a2.25 2.25 0 011.14-1.958l9.75-5.525zm1.48 1.305a.75.75 0 00-.74 0l-9.316 5.28 7.41 4.233a3.75 3.75 0 014.553 0l7.41-4.234-9.317-5.28zM22.5 9.614l-6.95 3.971 6.663 5.236a.747.747 0 01.21.26.747.747 0 00.077-.331V9.614zM8.45 13.585L1.5 9.614v9.136c0 .119.028.23.076.33a.747.747 0 01.21-.259l6.664-5.236zm12.2 5.915H3.35l7.26-5.704a2.25 2.25 0 012.78 0l7.26 5.704z"/></svg>