<svg xmlns="http://www.w3.org/2000/svg" width="48" height="48" viewBox="0 0 48 48"><path fill-rule="evenodd" d="M21.781 2.533a4.5 4.5 0 014.438 0l19.5 11.05A4.5 4.5 0 0148 17.498V36.5a4.5 4.5 0 01-4.5 4.5h-39A4.5 4.5 0 010 36.5V17.498a4.5 4.5 0 012.281-3.915l19.5-11.05zm2.959 2.61a1.5 1.5 0 00-1.48 0L4.628 15.703l14.82 8.468a7.5 7.5 0 019.106 0l14.82-8.469L24.74 5.143zM45 18.228L31.1 26.17l13.327 10.471c.183.144.324.322.42.519.098-.2.153-.424.153-.661V18.228zM16.9 26.17L3 18.228V36.5c0 .237.055.461.153.66.096-.196.237-.374.42-.518L16.9 26.171zM41.3 38H6.7l14.52-11.408a4.5 4.5 0 015.56 0L41.3 38z"/></svg>