<svg width="16" height="16" viewBox="0 0 16 16" fill="none" xmlns="http://www.w3.org/2000/svg">
<path d="M14.7803 6.28033C15.0732 5.98744 15.0732 5.51256 14.7803 5.21967L11.2803 1.71967C10.9874 1.42678 10.5126 1.42678 10.2197 1.71967C9.92678 2.01256 9.92678 2.48744 10.2197 2.78033L12.4393 5H5.25095L5.25006 5.00682C5.25004 5.00682 5.25008 5.00682 5.25006 5.00682L5.25095 5C5.1925 5 5.13466 5.00669 5.08006 5.01934C2.79167 5.23111 1 7.15632 1 9.5C1 11.9853 3.01472 14 5.5 14H7.20426C7.61848 14 7.95426 13.6642 7.95426 13.25C7.95426 12.8358 7.61848 12.5 7.20426 12.5H5.5C3.84315 12.5 2.5 11.1569 2.5 9.5C2.5 7.84315 3.84315 6.5 5.5 6.5H12.4393L10.2197 8.71967C9.92678 9.01256 9.92678 9.48744 10.2197 9.78033C10.5126 10.0732 10.9874 10.0732 11.2803 9.78033L14.7803 6.28033Z" fill="black"/>
</svg>
