<svg width="16" height="16" viewBox="0 0 16 16" fill="none" xmlns="http://www.w3.org/2000/svg">
<path d="M14.2803 7.28033C14.5732 6.98744 14.5732 6.51256 14.2803 6.21967L10.7803 2.71967C10.4874 2.42678 10.0126 2.42678 9.71967 2.71967C9.42678 3.01256 9.42678 3.48744 9.71967 3.78033L11.9393 6H4.75095C4.75097 6 4.75093 6 4.75095 6C2.67988 6 1 7.67893 1 9.75C1 11.8211 2.67893 13.5 4.75 13.5H7.25C7.66421 13.5 8 13.1642 8 12.75C8 12.3358 7.66421 12 7.25 12H4.75C3.50736 12 2.5 10.9926 2.5 9.75C2.5 8.50736 3.50736 7.5 4.75 7.5C4.74998 7.5 4.75002 7.5 4.75 7.5H11.9393L9.71967 9.71967C9.42678 10.0126 9.42678 10.4874 9.71967 10.7803C10.0126 11.0732 10.4874 11.0732 10.7803 10.7803L14.2803 7.28033Z" fill="black"/>
</svg>
