<svg width="24" height="24" viewBox="0 0 24 24" fill="none" xmlns="http://www.w3.org/2000/svg">
<rect width="24" height="24" fill="white"/>
<path d="M19.5644 4.42043C19.7275 4.03971 19.5512 3.5988 19.1704 3.43564C18.7897 3.27247 18.3488 3.44883 18.1856 3.82955L11.4356 19.5796C11.2725 19.9603 11.4488 20.4012 11.8296 20.5644C12.2103 20.7275 12.6512 20.5512 12.8144 20.1704L19.5644 4.42043Z" fill="#24292F"/>
<path d="M7 18.5C7 19.3284 6.32843 20 5.5 20C4.67157 20 4 19.3284 4 18.5C4 17.6716 4.67157 17 5.5 17C6.32843 17 7 17.6716 7 18.5Z" fill="#24292F"/>
</svg>
