<svg xmlns="http://www.w3.org/2000/svg" width="16" height="16" viewBox="0 0 16 16">
  <defs/>
  <path d="M6.78,1.97 C7.072,2.263 7.072,2.737 6.78,3.03 L3.81,6 L10.25,6 C12.873,6 15,8.127 15,10.75 L15,13.25 C15,13.664 14.664,14 14.25,14 C13.836,14 13.5,13.664 13.5,13.25 L13.5,10.75 C13.5,8.955 12.045,7.5 10.25,7.5 L3.81,7.5 L6.78,10.47 C6.981,10.657 7.063,10.939 6.995,11.204 C6.928,11.47 6.72,11.678 6.454,11.745 C6.189,11.813 5.907,11.731 5.72,11.53 L1.47,7.28 C1.178,6.987 1.178,6.513 1.47,6.22 L5.72,1.97 C6.013,1.678 6.487,1.678 6.78,1.97 Z"/>
</svg>

