<svg width="24" height="24" viewBox="0 0 24 24" xmlns="http://www.w3.org/2000/svg">
  <path d="M10.5303 5.03033C10.8232 4.73744 10.8232 4.26256 10.5303 3.96967C10.2374 3.67678 9.76256 3.67678 9.46967 3.96967L3.21967 10.2197C2.92678 10.5126 2.92678 10.9874 3.21967 11.2803L9.46967 17.5303C9.76256 17.8232 10.2374 17.8232 10.5303 17.5303C10.8232 17.2374 10.8232 16.7626 10.5303 16.4697L5.56066 11.5H17C18.7955 11.5 20.25 12.9534 20.25 14.7478V19.25C20.25 19.6642 20.5858 20 21 20C21.4142 20 21.75 19.6642 21.75 19.25V14.7478C21.75 12.1239 19.6228 10 17 10H5.56066L10.5303 5.03033Z"/>
</svg>
