<svg width="16" height="16" viewBox="0 0 16 16" fill="none" xmlns="http://www.w3.org/2000/svg">
<path d="M5.875 13.25H3.5C2.5335 13.25 1.75 12.4665 1.75 11.5V2.5C1.75 1.5335 2.5335 0.75 3.5 0.75H12.25V4" stroke="black" stroke-width="1.5" stroke-linecap="round" stroke-linejoin="round"/>
<path d="M5.875 10.5C6.28921 10.5 6.625 10.1642 6.625 9.75C6.625 9.33579 6.28921 9 5.875 9V10.5ZM5.875 9H3.5V10.5H5.875V9ZM3.5 9C2.11929 9 1 10.1193 1 11.5H2.5C2.5 10.9477 2.94772 10.5 3.5 10.5V9Z" fill="black"/>
<path d="M8.75 13.75V8.05769C8.75 7.33547 9.25928 6.75 9.8875 6.75H15.25V15.25" stroke="black" stroke-width="1.5" stroke-linecap="round" stroke-linejoin="round"/>
<path d="M15.75 12.25H10.25C9.42157 12.25 8.75 12.9216 8.75 13.75V13.75C8.75 14.5784 9.42157 15.25 10.25 15.25H15.25" stroke="black" stroke-width="1.5"/>
</svg>
