<svg xmlns="http://www.w3.org/2000/svg" width="16" height="16" viewBox="0 0 16 16">
  <defs/>
  <path d="M1,2.5 A2.5 2.5 0 0 1 3.5,0 L12.25,0 A0.75 0.75 0 0 1 13,0.75 L13,8.25 A0.75 0.75 0 0 1 11.5,8.25 L11.5,1.5 L3.5,1.5 A1 1 0 0 0 2.5,2.5 L2.5,9.208 A2.492 2.492 0 0 1 3.5,9 L8.25,9 A0.75 0.75 0 0 1 8.25,10.5 L3.5,10.5 A1 1 0 1 0 3.5,12.5 L8.25,12.5 A0.75 0.75 0 0 1 8.25,14 L3.5,14 A2.5 2.5 0 0 1 1,11.5 L1,2.5 Z"/>
  <path d="M11.28,10.22 A0.75 0.75 0 1 0 10.22,11.28 L11.94,13 L10.22,14.72 A0.75 0.75 0 1 0 11.28,15.78 L13,14.06 L14.72,15.78 A0.75 0.75 0 1 0 15.78,14.72 L14.06,13 L15.78,11.28 A0.75 0.75 0 1 0 14.72,10.22 L13,11.94 L11.28,10.22 Z"/>
</svg>

