<svg xmlns="http://www.w3.org/2000/svg" width="16" height="16" viewBox="0 0 16 16"><path fill-rule="evenodd" d="M9 10.167V9c0-1.657 1.343-3 3-3s3 1.343 3 3v1.167c.591.281 1 .884 1 1.583v2.5c0 .966-.783 1.75-1.75 1.75H9.75C8.784 15.999 8 15.216 8 14.25v-2.5c0-.699.409-1.302 1-1.583zM13.5 10H10.5V9c0-.828.672-1.5 1.5-1.5s1.5.672 1.5 1.5v1z"/><path fill-rule="evenodd" d="M3.25 1c.531 0 1.045.187 1.45.529.406.342.678.817.768 1.34.088.523-.011 1.061-.28 1.519-.268.456-.689.805-1.189.982v.881c0 .199.079.388.22.529.14.14.332.219.53.219h3.095c-.052.428-.008.986.051 1.499H7.75v1.748c-.315.418-.5.938-.5 1.502v.294c-.087-.024-.172-.041-.256-.041-.199 0-.39.079-.53.22-.141.14-.22.348-.22.547 0 .199.079.388.22.529.14.14.331.219.53.219.086 0 .17-.016.25-.042v.796c0 .25.038.492.107.72-.118.02-.237.031-.357.031-.531 0-1.045-.187-1.45-.529-.406-.342-.678-.817-.768-1.34-.088-.523.011-1.061.28-1.519.268-.456.69-.805 1.19-.983V8.5h-2.5C3.15 8.5 2.578 8.263 2.16 7.84 1.737 7.418 1.5 6.846 1.5 6.249v-.881c-.5-.177-.922-.526-1.19-.982-.268-.457-.368-.996-.28-1.519.088-.523.36-.998.768-1.34C1.205 1.187 1.72 1 2.25 1h1zm0 1.499c-.199.0005-.39.079-.53.22-.14.141-.22.348-.22.547 0 .199.08.388.22.529.14.14.331.219.53.219.199 0 .39-.079.53-.219.141-.141.22-.33.22-.529 0-.199-.079-.406-.22-.547-.14-.141-.331-.22-.53-.22zm7.5.75c.531 0 1.045.187 1.45.529.406.342.678.817.768 1.34.088.523-.011 1.061-.28 1.519-.268.456-.689.805-1.189.982v1.341c0 .414.336.75.75.75h.25.25c.414 0 .75.336.75.75s-.336.75-.75.75h-.5c-1.657 0-3-1.343-3-3V8.75c0-.199.079-.388.22-.529.14-.14.332-.219.53-.219h1.01V5c0-.828.672-1.5 1.5-1.5zm0 1.499c-.199.0005-.39.079-.53.22-.14.141-.22.348-.22.547 0 .199.08.388.22.529.14.14.331.219.53.219.199 0 .39-.079.53-.219.141-.141.22-.33.22-.529 0-.199-.079-.406-.22-.547-.14-.141-.331-.22-.53-.22z"/><path d="M8.63 7.749c0 .414-.336.75-.75.75-.414 0-.75-.336-.75-.75 0-.414.336-.75.75-.75.414 0 .75.336.75.75z"/></svg>
