<svg width="24" height="24" viewBox="0 0 24 24" xmlns="http://www.w3.org/2000/svg">
  <path fill-rule="evenodd" clip-rule="evenodd" d="M4 5.5C4 4.83696 4.26339 4.20107 4.73223 3.73223C5.20107 3.26339 5.83696 3 6.5 3H19.25C19.4489 3 19.6397 3.07902 19.7803 3.21967C19.921 3.36032 20 3.55109 20 3.75V20.25C20 20.4489 19.921 20.6397 19.7803 20.7803C19.6397 20.921 19.4489 21 19.25 21H14.75C14.5511 21 14.3603 20.921 14.2197 20.7803C14.079 20.6397 14 20.4489 14 20.25C14 20.0511 14.079 19.8603 14.2197 19.7197C14.3603 19.579 14.5511 19.5 14.75 19.5H18.5V16.5H6.5C6.23478 16.5 5.98043 16.6054 5.79289 16.7929C5.60536 16.9804 5.5 17.2348 5.5 17.5V18.5C5.4999 18.7403 5.58636 18.9727 5.74356 19.1545C5.90075 19.3363 6.11817 19.4554 6.356 19.49C6.45351 19.5039 6.54732 19.5369 6.63207 19.5871C6.71683 19.6373 6.79088 19.7036 6.84998 19.7824C6.90908 19.8612 6.95209 19.9509 6.97654 20.0463C7.001 20.1417 7.00642 20.241 6.9925 20.3385C6.97858 20.436 6.94559 20.5298 6.89542 20.6146C6.84524 20.6993 6.77886 20.7734 6.70007 20.8325C6.62128 20.8916 6.53162 20.9346 6.43621 20.959C6.3408 20.9835 6.24151 20.9889 6.144 20.975C5.54868 20.8894 5.0042 20.592 4.6104 20.1374C4.2166 19.6828 3.99989 19.1014 4 18.5V5.5ZM18.5 4.5V15H6.5C6.144 15 5.806 15.074 5.5 15.208V5.5C5.5 5.23478 5.60536 4.98043 5.79289 4.79289C5.98043 4.60536 6.23478 4.5 6.5 4.5H18.5ZM8 18.25V22.48C8 22.69 8.242 22.806 8.406 22.675L10.344 21.125C10.3883 21.0896 10.4433 21.0704 10.5 21.0704C10.5567 21.0704 10.6117 21.0896 10.656 21.125L12.594 22.675C12.6308 22.7044 12.6751 22.7227 12.7218 22.728C12.7685 22.7334 12.8158 22.7254 12.8582 22.705C12.9006 22.6846 12.9364 22.6527 12.9615 22.6129C12.9866 22.5731 12.9999 22.527 13 22.48V18.25C13 18.1837 12.9737 18.1201 12.9268 18.0732C12.8799 18.0263 12.8163 18 12.75 18H8.25C8.1837 18 8.12011 18.0263 8.07322 18.0732C8.02634 18.1201 8 18.1837 8 18.25Z"/>
</svg>
