<svg xmlns="http://www.w3.org/2000/svg" width="16" height="16" viewBox="0 0 16 16"><path fill-rule="evenodd" d="M9 10.167V9a3 3 0 1 1 6 0v1.168c.591.281 1 .884 1 1.582v2.5A1.75 1.75 0 0 1 14.25 16h-4.5A1.75 1.75 0 0 1 8 14.249v-2.5c0-.698.409-1.3 1-1.582M13.5 10h-3V9a1.5 1.5 0 0 1 3 0zM3.25 1A2.25 2.25 0 0 1 4 5.371v.878a.75.75 0 0 0 .75.75h3.096c-.051.429.008.987.067 1.5H7.75v1.749a2.5 2.5 0 0 0-.5 1.501v.295A.75.75 0 1 0 7 13.499c.086 0 .17-.018.25-.046v.796q.002.376.107.72a2.251 2.251 0 0 1-1.106-4.343V8.5h-1.5a2.25 2.25 0 0 1-2.25-2.25v-.878A2.25 2.25 0 0 1 3.25 1m0 1.499a.75.75 0 1 0 0 1.5.75.75 0 0 0 0-1.5M10.75 1a2.25 2.25 0 0 1 1.94 3.388c-.222.379-.55.68-.94.874h-.003c-.3.15-.638.237-.997.237a2.2 2.2 0 0 1-.823-.158l-.003-.001A2.248 2.248 0 0 1 10.75 1m0 1.499a.75.75 0 1 0 0 1.5.75.75 0 0 0 0-1.5"/><path d="M8.63 7.749a.75.75 0 1 1-1.5 0 .75.75 0 0 1 1.5 0"/></svg>