<svg xmlns="http://www.w3.org/2000/svg" width="16" height="16" viewBox="0 0 16 16"><path d="M8.625 10.88h5.785q.311 0 .53.219.22.22.22.531 0 .31-.22.53-.219.22-.53.22H8.625q-.311 0-.53-.22-.22-.22-.22-.53 0-.311.22-.531.219-.219.53-.219Z"/><path d="m13.271 8.595 2.505 2.504q.219.22.219.531 0 .31-.219.53l-2.505 2.505q-.22.219-.531.219-.31 0-.53-.219-.22-.22-.22-.531 0-.31.22-.53l1.975-1.974-1.975-1.975q-.22-.219-.22-.53 0-.311.22-.53.22-.22.53-.22.311 0 .531.22ZM6.25 14H3.5q-1.036 0-1.768-.732T1 11.5v-9Q1 0 3.5 0h8.75q.311 0 .53.22.22.219.22.53V6.5q0 .311-.22.53-.219.22-.53.22-.311 0-.53-.22-.22-.219-.22-.53v-5h-8q-1 0-1 1v9q0 1 1 1h2.75q.311 0 .53.22.22.219.22.53 0 .311-.22.53-.219.22-.53.22Z"/><path d="M6.375 10.5a.75.75 0 0 0 0-1.5v1.5Zm0-1.5H3.5v1.5h2.875V9ZM3.5 9A2.5 2.5 0 0 0 1 11.5h1.5a1 1 0 0 1 1-1V9Z"/></svg>