<svg width="16" height="16" viewBox="0 0 16 16" fill="none" xmlns="http://www.w3.org/2000/svg">
<path d="M8.62497 11.6296L14.4101 11.6296" stroke="black" stroke-width="1.5" stroke-linecap="round"/>
<path d="M12.7404 9.125L15.2452 11.6297L12.7404 14.1344" stroke="black" stroke-width="1.5" stroke-linecap="round" stroke-linejoin="round"/>
<path d="M6.25 13.25H3.5C2.5335 13.25 1.75 12.4665 1.75 11.5V2.5C1.75 1.5335 2.5335 0.75 3.5 0.75H12.25V6.5" stroke="black" stroke-width="1.5" stroke-linecap="round" stroke-linejoin="round"/>
<path d="M6.375 10.5C6.78921 10.5 7.125 10.1642 7.125 9.75C7.125 9.33579 6.78921 9 6.375 9L6.375 10.5ZM6.375 9L3.5 9L3.5 10.5L6.375 10.5L6.375 9ZM3.5 9C2.11929 9 1 10.1193 1 11.5H2.5C2.5 10.9477 2.94772 10.5 3.5 10.5L3.5 9Z" fill="black"/>
</svg>
