<svg xmlns="http://www.w3.org/2000/svg" width="24" height="24" viewBox="0 0 24 24"><path d="M3 2.75A2.75 2.75 0 015.75 0h14.5a.75.75 0 01.75.75v20.5a.75.75 0 01-.75.75h-6a.75.75 0 010-1.5h5.25v-4H6A1.5 1.5 0 004.5 18v.75c0 .716.43 1.334 1.05 1.605a.75.75 0 01-.6 1.374A3.251 3.251 0 013 18.75zM19.5 1.5H5.75c-.69 0-1.25.56-1.25 1.25v12.651A2.989 2.989 0 016 15h13.5z"/><path d="M7 18.25a.25.25 0 01.25-.25h5a.25.25 0 01.25.25v5.01a.25.25 0 01-.397.201l-2.206-1.604a.25.25 0 00-.294 0L7.397 23.46a.25.25 0 01-.397-.2v-5.01z"/></svg>