<svg xmlns="http://www.w3.org/2000/svg" width="24" height="24" viewBox="0 0 24 24"><path fill-rule="evenodd" d="M15 14.5V16h-.25c-.966 0-1.75.783-1.75 1.75v4.5c0 .966.783 1.75 1.75 1.75h7.5c.966 0 1.75-.783 1.75-1.75v-4.5c0-.966-.783-1.75-1.75-1.75H22v-1.5c0-1.933-1.567-3.5-3.5-3.5S15 12.567 15 14.5zm3.5-2c-1.105 0-2 .895-2 2v1.5h4v-1.5c0-1.105-.895-2-2-2z"/><path fill-rule="evenodd" d="M11.75 22.5c.414 0 .75-.336.75-.75s-.336-.75-.75-.75c-.966 0-1.75-.783-1.75-1.75 0-1 .783-1.75 1.75-1.75.5 0 .75-.5.75-1v-3.75h1.25c.414 0 .75-.336.75-.75s-.336-.75-.75-.75H8.75C7.507 11 6.5 9.993 6.5 8.75v-.839c1.433-.338 2.5-1.626 2.5-3.161 0-1.795-1.455-3.25-3.25-3.25S2.5 2.955 2.5 4.75c0 1.535 1.067 2.823 2.5 3.161v.839C5 10.821 6.679 12.5 8.75 12.5h2.5v3.587c-1.433.338-2.5 1.626-2.5 3.161 0 1.795 1.205 3.25 3.25 3.25zm-6-16c-.966 0-1.75-.783-1.75-1.75S4.783 3 5.75 3s1.75.783 1.75 1.75S6.716 6.5 5.75 6.5z"/><path fill-rule="evenodd" d="M18.25 10.25c.414 0 .75-.336.75-.75V7.587c1.433-.338 2.5-1.626 2.5-3.161 0-1.795-1.455-3.25-3.25-3.25S15 2.955 15 4.75c0 1.535 1.067 2.823 2.5 3.161V9.5c0 .414.336.75.75.75zm0-3.75c-.966 0-1.75-.783-1.75-1.75S17.283 3 18.25 3s1.75.783 1.75 1.75S19.217 6.5 18.25 6.5z"/></svg>
