<svg width="16" height="16" viewBox="0 0 16 16" fill="none" xmlns="http://www.w3.org/2000/svg">
<path d="M1 2.5C1 1.11929 2.11929 0 3.5 0H12.25C12.6642 0 13 0.335786 13 0.75V8.25C13 8.66421 12.6642 9 12.25 9C11.8358 9 11.5 8.66421 11.5 8.25V1.5H3.5C2.94772 1.5 2.5 1.94772 2.5 2.5V9.20802C2.80623 9.07422 3.14445 9 3.5 9H8.25C8.66421 9 9 9.33579 9 9.75C9 10.1642 8.66421 10.5 8.25 10.5H3.5C2.94772 10.5 2.5 10.9477 2.5 11.5C2.5 12.0523 2.94772 12.5 3.5 12.5H8.25C8.66421 12.5 9 12.8358 9 13.25C9 13.6642 8.66421 14 8.25 14H3.5C2.11929 14 1 12.8807 1 11.5V2.5Z" fill="black"/>
<path d="M11.2803 10.2197C10.9874 9.92678 10.5126 9.92678 10.2197 10.2197C9.92678 10.5126 9.92678 10.9874 10.2197 11.2803L11.9393 13L10.2197 14.7197C9.92678 15.0126 9.92678 15.4874 10.2197 15.7803C10.5126 16.0732 10.9874 16.0732 11.2803 15.7803L13 14.0607L14.7197 15.7803C15.0126 16.0732 15.4874 16.0732 15.7803 15.7803C16.0732 15.4874 16.0732 15.0126 15.7803 14.7197L14.0607 13L15.7803 11.2803C16.0732 10.9874 16.0732 10.5126 15.7803 10.2197C15.4874 9.92678 15.0126 9.92678 14.7197 10.2197L13 11.9393L11.2803 10.2197Z" fill="black"/>
</svg>
