<svg xmlns="http://www.w3.org/2000/svg" width="24" height="24" viewBox="0 0 24 24">
  <defs/>
  <path d="M5.75,0 A2.75 2.75 0 0 0 3,2.75 L3,3.75 A0.75 0.75 0 0 0 4.5,3.75 L4.5,2.75 C4.5,2.06 5.06,1.5 5.75,1.5 L6.75,1.5 A0.75 0.75 0 0 0 6.75,0 L5.75,0 Z M9.75,0 A0.75 0.75 0 0 0 9.75,1.5 L14.25,1.5 A0.75 0.75 0 0 0 14.25,0 L9.75,0 Z M17.25,0 A0.75 0.75 0 0 0 17.25,1.5 L19.5,1.5 L19.5,3.75 A0.75 0.75 0 0 0 21,3.75 L21,0.75 A0.75 0.75 0 0 0 20.25,0 L17.25,0 Z M4.5,6.5 A0.75 0.75 0 0 0 3,6.5 L3,10.25 A0.75 0.75 0 0 0 4.5,10.25 L4.5,6.5 Z M21,6.5 A0.75 0.75 0 0 0 19.5,6.5 L19.5,10.25 A0.75 0.75 0 0 0 21,10.25 L21,6.5 Z M4.5,13.25 A0.75 0.75 0 0 0 3,13.25 L3,18.75 A3.25 3.25 0 0 0 4.95,21.73 A0.75 0.75 0 1 0 5.55,20.355 A1.75 1.75 0 0 1 4.5,18.75 L4.5,18 A1.5 1.5 0 0 1 6,16.5 L6.75,16.5 A0.75 0.75 0 0 0 6.75,15 L6,15 C5.454,15 4.941,15.146 4.5,15.401 L4.5,13.25 Z M21,13.25 A0.75 0.75 0 0 0 19.5,13.25 L19.5,15 L17.25,15 A0.75 0.75 0 0 0 17.25,16.5 L19.5,16.5 L19.5,20.5 L14.25,20.5 A0.75 0.75 0 0 0 14.25,22 L20.25,22 A0.75 0.75 0 0 0 21,21.25 L21,13.25 Z M9.75,15 A0.75 0.75 0 0 0 9.75,16.5 L14.25,16.5 A0.75 0.75 0 0 0 14.25,15 L9.75,15 Z M7.397,23.461 A0.25 0.25 0 0 1 7,23.26 L7,18.25 A0.25 0.25 0 0 1 7.25,18 L12.25,18 A0.25 0.25 0 0 1 12.5,18.25 L12.5,23.26 A0.25 0.25 0 0 1 12.103,23.461 L9.897,21.857 A0.25 0.25 0 0 0 9.603,21.857 L7.397,23.46 Z"/>
</svg>

