<svg width="24" height="24" viewBox="0 0 24 24" fill="none" xmlns="http://www.w3.org/2000/svg">
<path d="M12.9375 17.4443L21.6152 17.4443" stroke="black" stroke-width="1.5" stroke-linecap="round"/>
<path d="M19.1107 13.6875L22.8678 17.4446L19.1107 21.2017" stroke="black" stroke-width="1.5" stroke-linecap="round" stroke-linejoin="round"/>
<path d="M10.375 19.875H4.375C3.4085 19.875 2.625 19.0915 2.625 18.125V2.875C2.625 1.9085 3.4085 1.125 4.375 1.125H18.375V10.25" stroke="black" stroke-width="1.5" stroke-linecap="round" stroke-linejoin="round"/>
<path d="M10.3125 15.375C10.7267 15.375 11.0625 15.0392 11.0625 14.625C11.0625 14.2108 10.7267 13.875 10.3125 13.875L10.3125 15.375ZM10.3125 13.875L4.375 13.875L4.375 15.375L10.3125 15.375L10.3125 13.875ZM1.875 16.375V17.25H3.375V16.375H1.875ZM4.375 13.875C2.99429 13.875 1.875 14.9943 1.875 16.375H3.375C3.375 15.8227 3.82272 15.375 4.375 15.375L4.375 13.875Z" fill="black"/>
</svg>
