<svg xmlns="http://www.w3.org/2000/svg" width="24" height="24" viewBox="0 0 24 24"><path d="M9.562 20.625H4.375q-1.036 0-1.768-.732t-.732-1.768V2.875q0-2.5 2.5-2.5h14q.311 0 .53.22.22.219.22.53V6.5q0 .311-.22.53-.219.22-.53.22-.311 0-.53-.22-.22-.219-.22-.53V1.875H4.375q-1 0-1 1v15.25q0 .414.293.707t.707.293h5.187q.311 0 .531.22.219.219.219.53 0 .311-.219.53-.22.22-.531.22Z"/><path d="M9.562 15.375a.75.75 0 1 0 0-1.5v1.5Zm0-1.5H4.375v1.5h5.187v-1.5Zm-7.687 2.5v.875h1.5v-.875h-1.5Zm2.5-2.5a2.5 2.5 0 0 0-2.5 2.5h1.5a1 1 0 0 1 1-1v-1.5Zm8 6.75v-8.538q0-2.712 2.456-2.712h8.044q.311 0 .53.22.22.219.22.53v12.75q0 .311-.22.53-.219.22-.53.22-.311 0-.53-.22-.22-.219-.22-.53v-12h-7.294q-.956 0-.956 1.212v8.538q0 .311-.22.53-.219.22-.53.22-.311 0-.53-.22-.22-.219-.22-.53Z"/><path d="M23.625 19.125h-8.25q-.621 0-1.061.439-.439.44-.439 1.061 0 1.5 1.5 1.5h7.5v1.5h-7.5q-3 0-3-3t3-3h8.25Z"/></svg>