<svg width="24" height="24" viewBox="0 0 24 24" fill="none" xmlns="http://www.w3.org/2000/svg">
<path d="M9.5625 19.875H4.375C3.4085 19.875 2.625 19.0915 2.625 18.125V2.875C2.625 1.9085 3.4085 1.125 4.375 1.125H18.375V6.5" stroke="black" stroke-width="1.5" stroke-linecap="round" stroke-linejoin="round"/>
<path d="M9.5625 15.375C9.97671 15.375 10.3125 15.0392 10.3125 14.625C10.3125 14.2108 9.97671 13.875 9.5625 13.875V15.375ZM9.5625 13.875H4.375V15.375H9.5625V13.875ZM1.875 16.375V17.25H3.375V16.375H1.875ZM4.375 13.875C2.99429 13.875 1.875 14.9943 1.875 16.375H3.375C3.375 15.8227 3.82272 15.375 4.375 15.375V13.875Z" fill="black"/>
<path d="M13.125 20.625V12.0865C13.125 11.0032 13.8889 10.125 14.8313 10.125H22.875V22.875" stroke="black" stroke-width="1.5" stroke-linecap="round" stroke-linejoin="round"/>
<path d="M23.625 18.375H15.375C14.1324 18.375 13.125 19.3824 13.125 20.625V20.625C13.125 21.8676 14.1324 22.875 15.375 22.875H22.875" stroke="black" stroke-width="1.5"/>
</svg>
