<svg xmlns="http://www.w3.org/2000/svg" width="16" height="16" viewBox="0 0 16 16">
  <defs/>
  <path d="M2,1 L2,10 L12,10 L12,13 C12,13.55 11.55,14 11,14 L6,14 L6,16 L4.5,14.5 L3,16 L3,14 L1,14 C0.45,14 0,13.55 0,13 L0,1 C0,0.45 0.45,0 1,0 L8,0 L8,1 Z M15,0 C15.55,0 16,0.45 16,1 L16,7 C16,7.55 15.55,8 15,8 L12,8 L12,9 L11,9 L11,8 L10,8 C9.45,8 9,7.55 9,7 L9,0 Z M11,11 L1,11 L1,13 L3,13 L3,12 L6,12 L6,13 L11,13 Z M15,5 L15,1 L11,1 L11,5 Z M15,7 L15,6 L12,6 L12,7 Z M4,3 L3,3 L3,2 L4,2 Z M4,5 L3,5 L3,4 L4,4 Z M4,7 L3,7 L3,6 L4,6 Z M11,7 L11,6 L10,6 L10,7 Z M3,8 L4,8 L4,9 L3,9 Z"/>
</svg>

