<svg xmlns="http://www.w3.org/2000/svg" width="16" height="16" viewBox="0 0 16 16"><path d="M3.5 0A2.5 2.5 0 0 0 1 2.5v9A2.5 2.5 0 0 0 3.5 14h3.75a.75.75 0 0 0 0-1.5H3.5a1 1 0 1 1 0-2h3.75a.75.75 0 0 0 0-1.5H3.5c-.36 0-.7.07-1 .2V2.5a1 1 0 0 1 1-1h8v5.75a.75.75 0 0 0 1.5 0V.75a.75.75 0 0 0-.75-.75H3.5Z"/><path d="M9.97 9.97c.3-.3.77-.3 1.06 0l1.47 1.47 1.47-1.47a.75.75 0 1 1 1.06 1.06l-1.47 1.47 1.47 1.47a.75.75 0 1 1-1.06 1.06l-1.47-1.47-1.47 1.47a.75.75 0 1 1-1.06-1.06l1.47-1.47-1.47-1.47a.75.75 0 0 1 0-1.06Z"/></svg>