<svg width="16" height="16" viewBox="0 0 16 16" fill="none" xmlns="http://www.w3.org/2000/svg">
<path fill-rule="evenodd" clip-rule="evenodd" d="M15 0H9V7C9 7.55 9.45 8 10 8H11V9H12V8H15C15.55 8 16 7.55 16 7V1C16 0.45 15.55 0 15 0V0ZM11 7H10V6H11V7V7ZM15 7H12V6H15V7V7ZM15 5H11V1H15V5V5ZM4 5H3V4H4V5V5ZM4 3H3V2H4V3V3ZM2 1H8V0H1C0.45 0 0 0.45 0 1V13C0 13.55 0.45 14 1 14H3V16L4.5 14.5L6 16V14H11C11.55 14 12 13.55 12 13V10H2V1V1ZM11 11V13H6V12H3V13H1V11H11V11ZM3 8H4V9H3V8V8ZM4 7H3V6H4V7V7Z" fill="#1B1F23"/>
</svg>
