<svg xmlns="http://www.w3.org/2000/svg" width="16" height="16" viewBox="0 0 16 16">
  <defs/>
  <path d="M13.25,8 C13.664,8 14,8.336 14,8.75 L14,13.25 C14,13.664 13.664,14 13.25,14 L10.75,14 C10.336,14 10,13.664 10,13.25 C10,12.836 10.336,12.5 10.75,12.5 L12.5,12.5 L12.5,10.5 L11.75,10.5 C11.336,10.5 11,10.164 11,9.75 C11,9.336 11.336,9 11.75,9 L12.5,9 L12.5,8.75 C12.5,8.336 12.836,8 13.25,8 Z M5,12.25 C5,12.112 5.112,12 5.25,12 L8.75,12 C8.888,12 9,12.112 9,12.25 L9,15.5 C9,15.595 8.946,15.681 8.862,15.724 C8.777,15.766 8.676,15.757 8.6,15.7 L7.15,14.613 C7.061,14.546 6.939,14.546 6.85,14.613 L5.4,15.7 C5.324,15.757 5.223,15.766 5.138,15.724 C5.054,15.681 5,15.595 5,15.5 Z M2.75,8 C3.164,8 3.5,8.336 3.5,8.75 L3.5,9.018 C3.583,9.006 3.666,9 3.75,9 L4.25,9 C4.664,9 5,9.336 5,9.75 C5,10.164 4.664,10.5 4.25,10.5 L3.75,10.5 C3.612,10.5 3.5,10.612 3.5,10.75 L3.5,11.5 C3.5,11.78 3.614,12.032 3.8,12.214 C4.096,12.504 4.101,12.979 3.811,13.275 C3.521,13.571 3.046,13.576 2.75,13.286 C2.27,12.816 1.999,12.172 2,11.5 L2,8.75 C2,8.336 2.336,8 2.75,8 Z M11,0.75 C11,0.336 11.336,0 11.75,0 L13.25,0 C13.664,0 14,0.336 14,0.75 L14,2.25 C14,2.664 13.664,3 13.25,3 C12.836,3 12.5,2.664 12.5,2.25 L12.5,1.5 L11.75,1.5 C11.336,1.5 11,1.164 11,0.75 Z M6,0.75 C6,0.336 6.336,0 6.75,0 L9.25,0 C9.664,0 10,0.336 10,0.75 C10,1.164 9.664,1.5 9.25,1.5 L6.75,1.5 C6.336,1.5 6,1.164 6,0.75 Z M6,9.75 C6,9.336 6.336,9 6.75,9 L9.25,9 C9.664,9 10,9.336 10,9.75 C10,10.164 9.664,10.5 9.25,10.5 L6.75,10.5 C6.336,10.5 6,10.164 6,9.75 Z M4.992,0.662 C5.05,1.072 4.766,1.451 4.356,1.51 C3.92,1.573 3.573,1.92 3.51,2.356 C3.451,2.766 3.072,3.051 2.661,2.993 C2.251,2.934 1.966,2.554 2.025,2.144 C2.183,1.046 3.046,0.183 4.144,0.025 C4.554,-0.033 4.934,0.252 4.992,0.662 Z M2.75,4 C3.164,4 3.5,4.336 3.5,4.75 L3.5,6.25 C3.5,6.664 3.164,7 2.75,7 C2.336,7 2,6.664 2,6.25 L2,4.75 C2,4.336 2.336,4 2.75,4 Z M13.25,4 C13.664,4 14,4.336 14,4.75 L14,6.25 C14,6.664 13.664,7 13.25,7 C12.836,7 12.5,6.664 12.5,6.25 L12.5,4.75 C12.5,4.336 12.836,4 13.25,4 Z"/>
</svg>

