<svg xmlns="http://www.w3.org/2000/svg" width="16" height="16" viewBox="0 0 16 16"><path d="M5.875 14H3.5q-1.036 0-1.768-.732T1 11.5v-9Q1 0 3.5 0h8.75q.311 0 .53.22.22.219.22.53V4q0 .311-.22.53-.219.22-.53.22-.311 0-.53-.22-.22-.219-.22-.53V1.5h-8q-1 0-1 1v9q0 1 1 1h2.375q.311 0 .53.22.22.219.22.53 0 .311-.22.53-.219.22-.53.22Z"/><path d="M5.875 10.5a.75.75 0 0 0 0-1.5v1.5Zm0-1.5H3.5v1.5h2.375V9ZM3.5 9A2.5 2.5 0 0 0 1 11.5h1.5a1 1 0 0 1 1-1V9ZM8 13.75V8.058q0-.823.517-1.417Q9.075 6 9.887 6h5.363q.311 0 .53.22.22.219.22.53v8.5q0 .311-.22.53-.219.22-.53.22-.311 0-.53-.22-.22-.219-.22-.53V7.5H9.887q-.387 0-.387.558v5.692q0 .311-.22.53-.219.22-.53.22-.311 0-.53-.22-.22-.219-.22-.53Z"/><path d="M15.75 13h-5.5q-.75 0-.75.75t.75.75h5V16h-5Q8 16 8 13.75t2.25-2.25h5.5Z"/></svg>