<svg width="16" height="16" viewBox="0 0 16 16" fill="none" xmlns="http://www.w3.org/2000/svg">
<path d="M3.5 0C2.11929 0 1 1.11929 1 2.5V11.5C1 12.8807 2.11929 14 3.5 14H6.25C6.66421 14 7 13.6642 7 13.25C7 12.8358 6.66421 12.5 6.25 12.5H3.5C2.94772 12.5 2.5 12.0523 2.5 11.5C2.5 10.9477 2.94772 10.5 3.5 10.5H6.25C6.66421 10.5 7 10.1642 7 9.75C7 9.33579 6.66421 9 6.25 9H3.5C3.14445 9 2.80623 9.07422 2.5 9.20802V2.5C2.5 1.94772 2.94772 1.5 3.5 1.5H11.5V4.25C11.5 4.66421 11.8358 5 12.25 5C12.6642 5 13 4.66421 13 4.25V0.75C13 0.335786 12.6642 0 12.25 0H3.5Z" fill="black"/>
<path fill-rule="evenodd" clip-rule="evenodd" d="M8 8.05769C8 7.02287 8.75028 6 9.8875 6H15.25C15.6642 6 16 6.33579 16 6.75V15.25C16 15.6642 15.6642 16 15.25 16H10.25C9.00736 16 8 14.9926 8 13.75V8.05769ZM9.5 13.75C9.5 14.1642 9.83579 14.5 10.25 14.5H14.5V13H10.25C9.83579 13 9.5 13.3358 9.5 13.75ZM14.5 11.5H10.25C9.98702 11.5 9.73458 11.5451 9.5 11.628V8.05769C9.5 7.87168 9.56569 7.72106 9.64904 7.62524C9.73107 7.53093 9.81729 7.5 9.8875 7.5H14.5V11.5Z" fill="black"/>
</svg>
