<svg xmlns="http://www.w3.org/2000/svg" width="24" height="24" viewBox="0 0 24 24"><path d="M12.938 16.694h8.677q.311 0 .531.22.219.22.219.53 0 .311-.219.531-.22.219-.531.219h-8.677q-.311 0-.531-.219-.22-.22-.22-.531 0-.31.22-.53.22-.22.531-.22Z"/><path d="m19.641 13.157 3.757 3.757q.22.22.22.531 0 .31-.22.53l-3.757 3.757q-.22.22-.53.22-.311 0-.531-.22-.219-.22-.219-.53 0-.311.219-.531l3.227-3.226-3.227-3.227q-.219-.22-.219-.531 0-.31.219-.53.22-.22.531-.22.31 0 .53.22Zm-9.266 7.468h-6q-1.036 0-1.768-.732t-.732-1.768V2.875q0-2.5 2.5-2.5h14q.311 0 .53.22.22.219.22.53v9.125q0 .311-.22.53-.219.22-.53.22-.311 0-.53-.22-.22-.219-.22-.53V1.875H4.375q-1 0-1 1v15.25q0 .414.293.707t.707.293h6q.311 0 .53.22.22.219.22.53 0 .311-.22.53-.219.22-.53.22Z"/><path d="M10.312 15.375a.75.75 0 1 0 0-1.5v1.5Zm0-1.5H4.375v1.5h5.937v-1.5Zm-8.437 2.5v.875h1.5v-.875h-1.5Zm2.5-2.5a2.5 2.5 0 0 0-2.5 2.5h1.5a1 1 0 0 1 1-1v-1.5Z"/></svg>