<svg xmlns="http://www.w3.org/2000/svg" width="24" height="24" viewBox="0 0 24 24">
  <defs/>
  <path d="M1.5,4.25 C1.5,3.284 2.284,2.5 3.25,2.5 L20.75,2.5 C21.716,2.5 22.5,3.284 22.5,4.25 L22.5,16.75 C22.5,17.716 21.716,18.5 20.75,18.5 L11.164,18.5 C11.098,18.5 11.034,18.526 10.987,18.573 L7.487,22.073 C7.07,22.489 6.444,22.614 5.899,22.389 C5.355,22.163 5,21.632 5,21.043 L5,18.5 L3.25,18.5 C2.284,18.5 1.5,17.716 1.5,16.75 Z M3.25,4 C3.112,4 3,4.112 3,4.25 L3,16.75 C3,16.888 3.112,17 3.25,17 L5.75,17 C6.164,17 6.5,17.336 6.5,17.75 L6.5,20.94 L9.927,17.513 C10.255,17.185 10.7,17 11.164,17 L20.75,17 C20.888,17 21,16.888 21,16.75 L21,4.25 C21,4.112 20.888,4 20.75,4 Z M12,6 C12.414,6 12.75,6.336 12.75,6.75 L12.75,10.75 C12.75,11.164 12.414,11.5 12,11.5 C11.586,11.5 11.25,11.164 11.25,10.75 L11.25,6.75 C11.25,6.336 11.586,6 12,6 Z M12,15 C11.448,15 11,14.552 11,14 C11,13.448 11.448,13 12,13 C12.552,13 13,13.448 13,14 C13,14.552 12.552,15 12,15 Z"/>
</svg>

