<svg xmlns="http://www.w3.org/2000/svg" width="24" height="24" viewBox="0 0 24 24"><path d="M15 14.5a3.5 3.5 0 1 1 7 0V16h.25c.967 0 1.75.784 1.75 1.75v4.5A1.75 1.75 0 0 1 22.25 24h-7.5A1.75 1.75 0 0 1 13 22.25v-4.5c0-.967.784-1.75 1.75-1.75H15Zm3.5-2a2 2 0 0 0-2 2V16h4v-1.5a2 2 0 0 0-2-2"/><path d="M12.5 21.75a.75.75 0 0 1-.662.745c-1.947-.075-3.088-1.5-3.088-3.247a3.25 3.25 0 0 1 2.5-3.161V12.5h-2.5A3.75 3.75 0 0 1 5 8.75v-.839a3.25 3.25 0 1 1 1.5 0v.839c0 1.243 1.007 2.25 2.25 2.5h5a.75.75 0 0 1 0 1.5H12.5v3.75c0 .5-.25 1-.75 1-.967 0-1.75.75-1.75 1.75 0 .967.784 1.75 1.75 1.75a.75.75 0 0 1 .75.75M5.75 6.5a1.75 1.75 0 1 0 0-3.5 1.75 1.75 0 0 0 0 3.5m6.088 15.995q.08.003.162.003l-.238.002zM18.25 10.25a.75.75 0 0 1-.75-.75V7.911A3.25 3.25 0 0 1 15 4.75c0-1.795 1.455-3.574 3.25-3.574A3.25 3.25 0 0 1 19 7.587V9.5a.75.75 0 0 1-.75.75m0-3.75a1.75 1.75 0 1 0 .001-3.499A1.75 1.75 0 0 0 18.25 6.5"/></svg>