<svg width="24" height="24" viewBox="0 0 24 24" xmlns="http://www.w3.org/2000/svg">
  <path fill-rule="evenodd" clip-rule="evenodd" d="M13 3.75C13 3.33579 12.6642 3 12.25 3C11.8358 3 11.5 3.33579 11.5 3.75V8H7.25C6.83579 8 6.5 8.33579 6.5 8.75C6.5 9.16421 6.83579 9.5 7.25 9.5H11.5V13.75C11.5 14.1642 11.8358 14.5 12.25 14.5C12.6642 14.5 13 14.1642 13 13.75V9.5H17.25C17.6642 9.5 18 9.16421 18 8.75C18 8.33579 17.6642 8 17.25 8H13V3.75ZM7.25 18C6.83579 18 6.5 18.3358 6.5 18.75C6.5 19.1642 6.83579 19.5 7.25 19.5H17.25C17.6642 19.5 18 19.1642 18 18.75C18 18.3358 17.6642 18 17.25 18H7.25Z"/>
</svg>
