<svg xmlns="http://www.w3.org/2000/svg" width="24" height="25" viewBox="0 0 24 25"><path fill-rule="evenodd" d="M22 4.25a1.75 1.75 0 00-1.75-1.75H3.75A1.75 1.75 0 002 4.25v5.5c0 .966.784 1.75 1.75 1.75h16.5A1.75 1.75 0 0022 9.75v-5.5zM20.25 4a.25.25 0 01.25.25v5.5a.25.25 0 01-.25.25H3.75a.25.25 0 01-.25-.25v-5.5A.25.25 0 013.75 4h16.5zM22 15.25a1.75 1.75 0 00-1.75-1.75H3.75A1.75 1.75 0 002 15.25v5.5c0 .966.784 1.75 1.75 1.75h16.5A1.75 1.75 0 0022 20.75v-5.5zM20.25 15a.25.25 0 01.25.25v5.5a.25.25 0 01-.25.25H3.75a.25.25 0 01-.25-.25v-5.5a.25.25 0 01.25-.25h16.5z"/></svg>