<svg xmlns="http://www.w3.org/2000/svg" width="16" height="17" viewBox="0 0 16 17"><path fill-rule="evenodd" d="M14.25.25C15.216.25 16 1.034 16 2v4a1.75 1.75 0 01-1.75 1.75H1.75A1.75 1.75 0 010 6V2C0 1.034.784.25 1.75.25h12.5zM14.5 2a.25.25 0 00-.25-.25H1.75A.25.25 0 001.5 2v4c0 .138.112.25.25.25h12.5A.25.25 0 0014.5 6V2zm-.25 6.75c.966 0 1.75.784 1.75 1.75v4a1.75 1.75 0 01-1.75 1.75H1.75A1.75 1.75 0 010 14.5v-4c0-.966.784-1.75 1.75-1.75h12.5zm.25 1.75a.25.25 0 00-.25-.25H1.75a.25.25 0 00-.25.25v4c0 .138.112.25.25.25h12.5a.25.25 0 00.25-.25v-4z"/></svg>