<svg xmlns="http://www.w3.org/2000/svg" width="16" height="17" viewBox="0 0 16 17"><path fill-rule="evenodd" d="M16 2A1.75 1.75 0 0014.25.25H1.75A1.75 1.75 0 000 2v4c0 .966.783 1.75 1.75 1.75h12.5A1.75 1.75 0 0016 6V2zm-1.75-.25a.25.25 0 01.25.25v4a.25.25 0 01-.25.25H1.75A.25.25 0 011.5 6V2a.25.25 0 01.25-.25h12.5zM16 10.5a1.75 1.75 0 00-1.75-1.75H1.75A1.75 1.75 0 000 10.5v4c0 .966.783 1.75 1.75 1.75h12.5A1.75 1.75 0 0016 14.5v-4zm-1.75-.25a.25.25 0 01.25.25v4a.25.25 0 01-.25.25H1.75a.25.25 0 01-.25-.25v-4a.25.25 0 01.25-.25h12.5z"/></svg>