<svg xmlns="http://www.w3.org/2000/svg" width="16" height="16" viewBox="0 0 16 16"><path fill-rule="evenodd" d="M16 1.75A1.75 1.75 0 0014.25 0H1.75A1.75 1.75 0 000 1.75v4C0 6.716.783 7.5 1.75 7.5h12.5A1.75 1.75 0 0016 5.75v-4zm-1.75-.25a.25.25 0 01.25.25v4a.25.25 0 01-.25.25H1.75a.25.25 0 01-.25-.25v-4a.25.25 0 01.25-.25h12.5zM16 10.25a1.75 1.75 0 00-1.75-1.75H1.75A1.75 1.75 0 000 10.25v4C0 15.216.783 16 1.75 16h12.5A1.75 1.75 0 0016 14.25v-4zM14.25 10a.25.25 0 01.25.25v4a.25.25 0 01-.25.25H1.75a.25.25 0 01-.25-.25v-4a.25.25 0 01.25-.25h12.5z"/></svg>