<svg xmlns="http://www.w3.org/2000/svg" width="24" height="25" viewBox="0 0 24 25"><path fill-rule="evenodd" d="M20.25 2.5c.966 0 1.75.784 1.75 1.75v5.5a1.75 1.75 0 01-1.75 1.75H3.75A1.75 1.75 0 012 9.75v-5.5c0-.966.784-1.75 1.75-1.75h16.5zm.25 1.75a.25.25 0 00-.25-.25H3.75a.25.25 0 00-.25.25v5.5c0 .138.112.25.25.25h16.5a.25.25 0 00.25-.25v-5.5zm-.25 9.25c.966 0 1.75.784 1.75 1.75v5.5a1.75 1.75 0 01-1.75 1.75H3.75A1.75 1.75 0 012 20.75v-5.5c0-.966.784-1.75 1.75-1.75h16.5zm.25 1.75a.25.25 0 00-.25-.25H3.75a.25.25 0 00-.25.25v5.5c0 .138.112.25.25.25h16.5a.25.25 0 00.25-.25v-5.5z"/></svg>