<svg width="16" height="16" viewBox="0 0 16 16" fill="none" xmlns="http://www.w3.org/2000/svg">
<path fill-rule="evenodd" clip-rule="evenodd" d="M16 1.75C16 0.783502 15.2165 0 14.25 0H1.75C0.783502 0 0 0.783501 0 1.75V5.75C0 6.7165 0.7835 7.5 1.75 7.5L14.25 7.5C15.2165 7.5 16 6.7165 16 5.75V1.75ZM14.25 1.5C14.3881 1.5 14.5 1.61193 14.5 1.75V5.75C14.5 5.88807 14.3881 6 14.25 6L1.75 6C1.61193 6 1.5 5.88807 1.5 5.75L1.5 1.75C1.5 1.61193 1.61193 1.5 1.75 1.5L14.25 1.5Z" fill="black"/>
<path fill-rule="evenodd" clip-rule="evenodd" d="M16 10.25C16 9.2835 15.2165 8.5 14.25 8.5L1.75 8.5C0.783502 8.5 0 9.2835 0 10.25V14.25C0 15.2165 0.7835 16 1.75 16L14.25 16C15.2165 16 16 15.2165 16 14.25V10.25ZM14.25 10C14.3881 10 14.5 10.1119 14.5 10.25V14.25C14.5 14.3881 14.3881 14.5 14.25 14.5L1.75 14.5C1.61193 14.5 1.5 14.3881 1.5 14.25L1.5 10.25C1.5 10.1119 1.61193 10 1.75 10L14.25 10Z" fill="black"/>
</svg>
