<svg xmlns="http://www.w3.org/2000/svg" width="16" height="16" viewBox="0 0 16 16"><path fill-rule="evenodd" d="M16 1.75A1.75 1.75 0 0014.25 0H1.75A1.75 1.75 0 000 1.75v3.5A1.75 1.75 0 001.75 7h12.5A1.75 1.75 0 0016 5.25v-3.5zm-1.75-.25a.25.25 0 01.25.25v3.5a.25.25 0 01-.25.25H1.75a.25.25 0 01-.25-.25v-3.5a.25.25 0 01.25-.25h12.5zM16 10.75A1.75 1.75 0 0014.25 9H1.75A1.75 1.75 0 000 10.75v3.5A1.75 1.75 0 001.75 16h12.5A1.75 1.75 0 0016 14.25v-3.5zm-1.75-.25a.25.25 0 01.25.25v3.5a.25.25 0 01-.25.25H1.75a.25.25 0 01-.25-.25v-3.5a.25.25 0 01.25-.25h12.5z"/></svg>