<svg width="24" height="24" viewBox="0 0 24 24" xmlns="http://www.w3.org/2000/svg">
  <path fill-rule="evenodd" clip-rule="evenodd" d="M3.5 3.25C3.5 2.83579 3.83579 2.5 4.25 2.5C14.0531 2.5 22 10.4469 22 20.25C22 20.6642 21.6642 21 21.25 21C20.8358 21 20.5 20.6642 20.5 20.25C20.5 11.2754 13.2246 4 4.25 4C3.83579 4 3.5 3.66421 3.5 3.25ZM3.5 19C3.5 17.8954 4.39543 17 5.5 17C6.60457 17 7.5 17.8954 7.5 19C7.5 20.1046 6.60457 21 5.5 21C4.39543 21 3.5 20.1046 3.5 19ZM4.25 9.5C3.83579 9.5 3.5 9.83579 3.5 10.25C3.5 10.6642 3.83579 11 4.25 11C9.35863 11 13.5 15.1414 13.5 20.25C13.5 20.6642 13.8358 21 14.25 21C14.6642 21 15 20.6642 15 20.25C15 14.3129 10.1871 9.5 4.25 9.5Z"/>
</svg>
