<svg xmlns="http://www.w3.org/2000/svg" width="24" height="24" viewBox="0 0 24 24">
  <defs/>
  <path d="M3.5,3.25 C3.5,2.836 3.836,2.5 4.25,2.5 C14.053,2.5 22,10.447 22,20.25 C22,20.664 21.664,21 21.25,21 C20.836,21 20.5,20.664 20.5,20.25 C20.5,11.275 13.225,4 4.25,4 C3.836,4 3.5,3.664 3.5,3.25 Z M4.25,9.5 C10.187,9.5 15,14.313 15,20.25 C15,20.664 14.664,21 14.25,21 C13.836,21 13.5,20.664 13.5,20.25 C13.5,15.141 9.359,11 4.25,11 C3.836,11 3.5,10.664 3.5,10.25 C3.5,9.836 3.836,9.5 4.25,9.5 Z M3.5,19 C3.5,17.895 4.395,17 5.5,17 C6.605,17 7.5,17.895 7.5,19 C7.5,20.105 6.605,21 5.5,21 C4.395,21 3.5,20.105 3.5,19 Z"/>
</svg>

