<svg xmlns="http://www.w3.org/2000/svg" width="16" height="16" viewBox="0 0 16 16">
  <defs/>
  <path d="M2.002,2.725 C2.029,2.312 2.386,1.999 2.799,2.026 C8.79,2.42 13.58,7.21 13.974,13.201 C14.001,13.614 13.688,13.971 13.274,13.998 C12.861,14.026 12.504,13.712 12.477,13.299 C12.125,8.052 7.948,3.875 2.701,3.523 C2.502,3.51 2.317,3.419 2.186,3.269 C2.054,3.119 1.988,2.924 2.001,2.725 Z M2.84,7.05 L2.838,7.05 C6.04,7.436 8.563,9.959 8.951,13.161 C9,13.572 8.706,13.946 8.295,13.995 C7.884,14.044 7.51,13.75 7.461,13.339 C7.161,10.83 5.17,8.839 2.661,8.539 C2.256,8.482 1.971,8.112 2.02,7.707 C2.069,7.301 2.433,7.009 2.84,7.05 Z M2,13 C2,12.448 2.448,12 3,12 C3.552,12 4,12.448 4,13 C4,13.552 3.552,14 3,14 C2.448,14 2,13.552 2,13 Z"/>
</svg>

