<svg width="16" height="16" viewBox="0 0 16 16" xmlns="http://www.w3.org/2000/svg">
  <path fill-rule="evenodd" clip-rule="evenodd" d="M2.00162 2.72518C2.02882 2.31186 2.38594 1.99886 2.79926 2.02606C8.79029 2.42039 13.5794 7.20954 13.9738 13.2006C14.001 13.6139 13.688 13.971 13.2747 13.9982C12.8613 14.0254 12.5042 13.7124 12.477 13.2991C12.1321 8.05887 7.94097 3.86774 2.70074 3.52282C2.28742 3.49562 1.97441 3.1385 2.00162 2.72518ZM2 12.9998C2 12.4475 2.44772 11.9998 3 11.9998C3.55228 11.9998 4 12.4475 4 12.9998C4 13.552 3.55228 13.9998 3 13.9998C2.44772 13.9998 2 13.552 2 12.9998ZM2.83907 7.04957C2.42779 7.00038 2.05451 7.29392 2.00532 7.7052C1.95613 8.11649 2.24967 8.48977 2.66095 8.53896C5.16959 8.83897 7.16077 10.8302 7.46078 13.3388C7.50997 13.7501 7.88325 14.0436 8.29453 13.9944C8.70582 13.9452 8.99935 13.5719 8.95017 13.1607C8.56796 9.96475 6.03498 7.43178 2.83907 7.04957Z"/>
</svg>
