<svg xmlns="http://www.w3.org/2000/svg" width="16" height="16" viewBox="0 0 16 16">
  <defs/>
  <path d="M1.75,10 C2.164,10 2.5,10.336 2.5,10.75 L2.5,13.25 C2.5,13.388 2.612,13.5 2.75,13.5 L5.25,13.5 C5.664,13.5 6,13.836 6,14.25 C6,14.664 5.664,15 5.25,15 L2.75,15 C1.784,15 1,14.216 1,13.25 L1,10.75 C1,10.336 1.336,10 1.75,10 Z M14.25,10 C14.664,10 15,10.336 15,10.75 L15,13.25 C15,14.216 14.216,15 13.25,15 L10.75,15 C10.336,15 10,14.664 10,14.25 C10,13.836 10.336,13.5 10.75,13.5 L13.25,13.5 C13.388,13.5 13.5,13.388 13.5,13.25 L13.5,10.75 C13.5,10.336 13.836,10 14.25,10 Z M2.75,2.5 C2.612,2.5 2.5,2.612 2.5,2.75 L2.5,5.25 C2.5,5.664 2.164,6 1.75,6 C1.336,6 1,5.664 1,5.25 L1,2.75 C1,1.784 1.784,1 2.75,1 L5.25,1 C5.664,1 6,1.336 6,1.75 C6,2.164 5.664,2.5 5.25,2.5 Z M10,1.75 C10,1.336 10.336,1 10.75,1 L13.25,1 C14.216,1 15,1.784 15,2.75 L15,5.25 C15,5.664 14.664,6 14.25,6 C13.836,6 13.5,5.664 13.5,5.25 L13.5,2.75 C13.5,2.612 13.388,2.5 13.25,2.5 L10.75,2.5 C10.336,2.5 10,2.164 10,1.75 Z"/>
</svg>

