<svg xmlns="http://www.w3.org/2000/svg" width="24" height="24" viewBox="0 0 24 24">
  <defs/>
  <path d="M3.75,15 C4.164,15 4.5,15.336 4.5,15.75 L4.5,19.25 C4.5,19.388 4.612,19.5 4.75,19.5 L8.25,19.5 C8.664,19.5 9,19.836 9,20.25 C9,20.664 8.664,21 8.25,21 L4.75,21 C3.784,21 3,20.216 3,19.25 L3,15.75 C3,15.336 3.336,15 3.75,15 Z M20.25,15 C20.664,15 21,15.336 21,15.75 L21,19.25 C21,20.216 20.216,21 19.25,21 L15.75,21 C15.336,21 15,20.664 15,20.25 C15,19.836 15.336,19.5 15.75,19.5 L19.25,19.5 C19.388,19.5 19.5,19.388 19.5,19.25 L19.5,15.75 C19.5,15.336 19.836,15 20.25,15 Z M4.75,4.5 C4.612,4.5 4.5,4.612 4.5,4.75 L4.5,8.25 C4.5,8.664 4.164,9 3.75,9 C3.336,9 3,8.664 3,8.25 L3,4.75 C3,3.784 3.784,3 4.75,3 L8.25,3 C8.664,3 9,3.336 9,3.75 C9,4.164 8.664,4.5 8.25,4.5 Z M15,3.75 C15,3.336 15.336,3 15.75,3 L19.25,3 C20.216,3 21,3.784 21,4.75 L21,8.25 C21,8.664 20.664,9 20.25,9 C19.836,9 19.5,8.664 19.5,8.25 L19.5,4.75 C19.5,4.612 19.388,4.5 19.25,4.5 L15.75,4.5 C15.336,4.5 15,4.164 15,3.75 Z"/>
</svg>

