<svg xmlns="http://www.w3.org/2000/svg" width="16" height="16" viewBox="0 0 16 16">
  <defs/>
  <path d="M10.68,11.74 C8.178,13.683 4.596,13.345 2.501,10.969 C0.405,8.594 0.518,4.998 2.758,2.758 C4.998,0.518 8.594,0.405 10.969,2.501 C13.345,4.596 13.683,8.178 11.74,10.68 L14.78,13.72 C14.981,13.907 15.063,14.189 14.995,14.454 C14.928,14.72 14.72,14.928 14.454,14.995 C14.189,15.063 13.907,14.981 13.72,14.78 Z M11.5,7 C11.5,4.515 9.486,2.501 7.001,2.501 C4.516,2.501 2.502,4.515 2.502,7 C2.502,9.485 4.516,11.499 7.001,11.499 C9.486,11.499 11.5,9.485 11.5,7 Z"/>
</svg>

