<svg width="24" height="24" viewBox="0 0 24 24" xmlns="http://www.w3.org/2000/svg">
  <path fill-rule="evenodd" clip-rule="evenodd" d="M16.5 10.5C16.5 12.0913 15.8679 13.6174 14.7426 14.7426C13.6174 15.8679 12.0913 16.5 10.5 16.5C8.90871 16.5 7.38258 15.8679 6.25737 14.7426C5.13215 13.6174 4.50001 12.0913 4.50001 10.5C4.50001 8.9087 5.13215 7.38258 6.25737 6.25736C7.38258 5.13214 8.90871 4.5 10.5 4.5C12.0913 4.5 13.6174 5.13214 14.7426 6.25736C15.8679 7.38258 16.5 8.9087 16.5 10.5ZM15.246 16.307C13.7563 17.5248 11.8554 18.1234 9.93669 17.9791C8.01795 17.8348 6.22808 16.9585 4.93726 15.5316C3.64645 14.1046 2.95345 12.2361 3.0016 10.3126C3.04975 8.38901 3.83537 6.55753 5.19595 5.19695C6.55654 3.83636 8.38802 3.05074 10.3116 3.0026C12.2351 2.95445 14.1036 3.64744 15.5306 4.93826C16.9575 6.22907 17.8338 8.01894 17.9781 9.93769C18.1225 11.8564 17.5238 13.7572 16.306 15.247L20.78 19.72C20.8537 19.7887 20.9128 19.8715 20.9538 19.9635C20.9948 20.0555 21.0168 20.1548 21.0186 20.2555C21.0204 20.3562 21.0019 20.4562 20.9641 20.5496C20.9264 20.643 20.8703 20.7278 20.799 20.799C20.7278 20.8703 20.643 20.9264 20.5496 20.9641C20.4562 21.0018 20.3562 21.0204 20.2555 21.0186C20.1548 21.0168 20.0555 20.9948 19.9635 20.9538C19.8715 20.9128 19.7887 20.8537 19.72 20.78L15.247 16.307H15.246Z"/>
</svg>
