<svg xmlns="http://www.w3.org/2000/svg" width="24" height="24" viewBox="0 0 24 24">
  <defs/>
  <path d="M10.25,2 C13.451,2 16.363,3.851 17.721,6.749 C19.08,9.648 18.639,13.07 16.59,15.53 L22.28,21.22 C22.481,21.407 22.563,21.689 22.495,21.954 C22.428,22.22 22.22,22.428 21.954,22.495 C21.689,22.563 21.407,22.481 21.22,22.28 L15.53,16.59 C12.732,18.92 8.737,19.14 5.7,17.131 C2.663,15.123 1.302,11.361 2.35,7.875 C3.399,4.388 6.609,2 10.25,2 Z M3.5,10.25 C3.5,13.978 6.522,17 10.25,17 C13.978,17 17,13.978 17,10.25 C17,6.522 13.978,3.5 10.25,3.5 C6.522,3.5 3.5,6.522 3.5,10.25 Z"/>
</svg>

