<svg width="16" height="16" viewBox="0 0 16 16" xmlns="http://www.w3.org/2000/svg">
  <path fill-rule="evenodd" clip-rule="evenodd" d="M11.5 7C11.5 7.59094 11.3836 8.17611 11.1574 8.72207C10.9313 9.26804 10.5998 9.76411 10.182 10.182C9.7641 10.5998 9.26803 10.9313 8.72206 11.1575C8.1761 11.3836 7.59094 11.5 6.99999 11.5C6.40904 11.5 5.82388 11.3836 5.27791 11.1575C4.73195 10.9313 4.23587 10.5998 3.81801 10.182C3.40014 9.76411 3.06868 9.26804 2.84253 8.72207C2.61638 8.17611 2.49999 7.59094 2.49999 7C2.49999 5.80652 2.97409 4.66193 3.81801 3.81802C4.66192 2.9741 5.80651 2.5 6.99999 2.5C8.19346 2.5 9.33805 2.9741 10.182 3.81802C11.0259 4.66193 11.5 5.80652 11.5 7ZM10.68 11.74C9.47437 12.676 7.95736 13.1173 6.43779 12.9741C4.91822 12.831 3.51033 12.1141 2.50074 10.9694C1.49114 9.82471 0.95574 8.33829 1.00352 6.81275C1.05131 5.2872 1.67869 3.8372 2.75794 2.75795C3.8372 1.6787 5.28719 1.05132 6.81274 1.00353C8.33829 0.955747 9.8247 1.49115 10.9694 2.50075C12.1141 3.51034 12.831 4.91823 12.9741 6.4378C13.1173 7.95736 12.676 9.47437 11.74 10.68L14.78 13.72C14.8537 13.7887 14.9128 13.8715 14.9538 13.9635C14.9948 14.0555 15.0168 14.1548 15.0186 14.2555C15.0204 14.3562 15.0018 14.4562 14.9641 14.5496C14.9264 14.643 14.8702 14.7278 14.799 14.799C14.7278 14.8703 14.643 14.9264 14.5496 14.9641C14.4562 15.0018 14.3562 15.0204 14.2555 15.0186C14.1548 15.0168 14.0554 14.9948 13.9635 14.9538C13.8715 14.9128 13.7887 14.8537 13.72 14.78L10.68 11.74Z"/>
</svg>
