<svg width="24" height="24" viewBox="0 0 24 24" fill="none" xmlns="http://www.w3.org/2000/svg">
<path fill-rule="evenodd" clip-rule="evenodd" d="M10.25 2C5.69365 2 2 5.69365 2 10.25C2 14.8063 5.69365 18.5 10.25 18.5C12.2581 18.5 14.0987 17.7825 15.5293 16.59L21.2197 22.2803C21.5126 22.5732 21.9874 22.5732 22.2803 22.2803C22.5732 21.9874 22.5732 21.5126 22.2803 21.2197L16.59 15.5293C17.7825 14.0987 18.5 12.2581 18.5 10.25C18.5 5.69365 14.8063 2 10.25 2ZM3.5 10.25C3.5 6.52208 6.52208 3.5 10.25 3.5C13.9779 3.5 17 6.52208 17 10.25C17 13.9779 13.9779 17 10.25 17C6.52208 17 3.5 13.9779 3.5 10.25Z" fill="#24292F"/>
</svg>
