<svg width="16" height="16" viewBox="0 0 16 16" fill="none" xmlns="http://www.w3.org/2000/svg">
<path d="M5.06065 7.35597L7.85461 10.1889C7.93493 10.2704 8.06514 10.2704 8.14545 10.1889L10.9393 7.35597C11.0689 7.22461 10.9772 7 10.7939 7H5.20607C5.02285 7 4.93109 7.22461 5.06065 7.35597Z" fill="#24292E"/>
<path fill-rule="evenodd" clip-rule="evenodd" d="M1 2.75C1 1.7835 1.7835 1 2.75 1H13.25C14.2165 1 15 1.7835 15 2.75V13.25C15 14.2165 14.2165 15 13.25 15H2.75C1.7835 15 1 14.2165 1 13.25V2.75ZM2.75 2.5C2.61193 2.5 2.5 2.61193 2.5 2.75V13.25C2.5 13.3881 2.61193 13.5 2.75 13.5H13.25C13.3881 13.5 13.5 13.3881 13.5 13.25V2.75C13.5 2.61193 13.3881 2.5 13.25 2.5H2.75Z" fill="#24292E"/>
</svg>
