<svg xmlns="http://www.w3.org/2000/svg" width="16" height="16" viewBox="0 0 16 16"><path d="M1.75 1h12.5c.966 0 1.75.784 1.75 1.75v4c0 .372-.116.717-.314 1 .198.283.314.628.314 1v4a1.75 1.75 0 01-1.75 1.75H1.75A1.75 1.75 0 010 12.75v-4c0-.358.109-.707.314-1a1.739 1.739 0 01-.314-1v-4C0 1.784.784 1 1.75 1zM1.5 2.75v4c0 .138.112.25.25.25h12.5a.25.25 0 00.25-.25v-4a.25.25 0 00-.25-.25H1.75a.25.25 0 00-.25.25zm.25 5.75a.25.25 0 00-.25.25v4c0 .138.112.25.25.25h12.5a.25.25 0 00.25-.25v-4a.25.25 0 00-.25-.25zM7 4.75A.75.75 0 017.75 4h4.5a.75.75 0 010 1.5h-4.5A.75.75 0 017 4.75zM7.75 10h4.5a.75.75 0 010 1.5h-4.5a.75.75 0 010-1.5zM3 4.75A.75.75 0 013.75 4h.5a.75.75 0 010 1.5h-.5A.75.75 0 013 4.75zM3.75 10h.5a.75.75 0 010 1.5h-.5a.75.75 0 010-1.5z"/></svg>