<svg xmlns="http://www.w3.org/2000/svg" width="24" height="24" viewBox="0 0 24 24">
  <defs/>
  <path d="M20,5.5 C20,6.939 19.12,8.231 17.781,8.757 C16.443,9.284 14.918,8.938 13.938,7.885 L8.826,10.906 C9.06,11.617 9.06,12.383 8.826,13.094 L13.938,16.115 C15.157,14.808 17.165,14.629 18.595,15.7 C20.026,16.771 20.42,18.748 19.509,20.286 C18.598,21.823 16.676,22.428 15.049,21.688 C13.422,20.948 12.614,19.102 13.174,17.405 L8.062,14.385 C7.082,15.438 5.557,15.784 4.219,15.257 C2.88,14.73 2,13.438 2,12 C2,10.562 2.88,9.27 4.219,8.743 C5.557,8.216 7.082,8.562 8.062,9.615 L13.174,6.594 C12.744,5.28 13.127,3.836 14.152,2.909 C15.178,1.982 16.654,1.745 17.918,2.305 C19.182,2.865 19.998,4.117 20,5.5 Z M18.5,18.5 C18.5,17.395 17.605,16.5 16.5,16.5 C15.395,16.5 14.5,17.395 14.5,18.5 C14.5,19.605 15.395,20.5 16.5,20.5 C17.605,20.5 18.5,19.605 18.5,18.5 Z M18.5,5.5 C18.5,4.395 17.605,3.5 16.5,3.5 C15.395,3.5 14.5,4.395 14.5,5.5 C14.5,6.605 15.395,7.5 16.5,7.5 C17.605,7.5 18.5,6.605 18.5,5.5 Z M5.5,14 C6.605,14 7.5,13.105 7.5,12 C7.5,10.895 6.605,10 5.5,10 C4.395,10 3.5,10.895 3.5,12 C3.5,13.105 4.395,14 5.5,14 Z"/>
</svg>

