<svg width="16" height="16" viewBox="0 0 16 16" xmlns="http://www.w3.org/2000/svg">
  <path fill-rule="evenodd" clip-rule="evenodd" d="M13.5 3C13.5 3.82843 12.8284 4.5 12 4.5C11.1716 4.5 10.5 3.82843 10.5 3C10.5 2.17157 11.1716 1.5 12 1.5C12.8284 1.5 13.5 2.17157 13.5 3ZM15 3C15 4.65685 13.6569 6 12 6C11.1439 6 10.3716 5.64143 9.82502 5.06628L5.90408 7.24457C5.96669 7.48592 6 7.73907 6 8C6 8.26094 5.96668 8.51411 5.90407 8.75547L9.82499 10.9338C10.3716 10.3586 11.1439 10 12 10C13.6569 10 15 11.3431 15 13C15 14.6569 13.6569 16 12 16C10.3431 16 9 14.6569 9 13C9 12.7391 9.03331 12.486 9.0959 12.2446L5.17493 10.0663C4.62836 10.6414 3.85605 11 3 11C1.34315 11 0 9.65685 0 8C0 6.34315 1.34315 5 3 5C3.85607 5 4.62838 5.35857 5.17496 5.9337L9.09591 3.7554C9.03331 3.51406 9 3.26092 9 3C9 1.34315 10.3431 0 12 0C13.6569 0 15 1.34315 15 3ZM13.5 13C13.5 13.8284 12.8284 14.5 12 14.5C11.1716 14.5 10.5 13.8284 10.5 13C10.5 12.1716 11.1716 11.5 12 11.5C12.8284 11.5 13.5 12.1716 13.5 13ZM4.5 8C4.5 8.82843 3.82843 9.5 3 9.5C2.17157 9.5 1.5 8.82843 1.5 8C1.5 7.17157 2.17157 6.5 3 6.5C3.82843 6.5 4.5 7.17157 4.5 8Z"/>
</svg>
