<svg xmlns="http://www.w3.org/2000/svg" width="24" height="24" viewBox="0 0 24 24">
  <defs/>
  <path d="M5.5,9.75 L5.5,20.25 C5.5,20.388 5.612,20.5 5.75,20.5 L18.25,20.5 C18.388,20.5 18.5,20.388 18.5,20.25 L18.5,9.75 C18.5,9.612 18.388,9.5 18.25,9.5 L15.75,9.5 C15.336,9.5 15,9.164 15,8.75 C15,8.336 15.336,8 15.75,8 L18.25,8 C19.216,8 20,8.784 20,9.75 L20,20.25 C20,21.216 19.216,22 18.25,22 L5.75,22 C4.784,22 4,21.216 4,20.25 L4,9.75 C4,8.784 4.784,8 5.75,8 L8.25,8 C8.664,8 9,8.336 9,8.75 C9,9.164 8.664,9.5 8.25,9.5 L5.75,9.5 C5.612,9.5 5.5,9.612 5.5,9.75 Z M12.53,1.22 L15.78,4.47 C15.981,4.657 16.063,4.939 15.995,5.204 C15.928,5.47 15.72,5.678 15.454,5.745 C15.189,5.813 14.907,5.731 14.72,5.53 L12.75,3.56 L12.75,14.25 C12.75,14.664 12.414,15 12,15 C11.586,15 11.25,14.664 11.25,14.25 L11.25,3.56 L9.28,5.53 C8.984,5.805 8.524,5.797 8.238,5.512 C7.953,5.226 7.945,4.766 8.22,4.47 L11.47,1.22 C11.763,0.928 12.237,0.928 12.53,1.22 Z"/>
</svg>

