<svg xmlns="http://www.w3.org/2000/svg" width="16" height="16" viewBox="0 0 16 16">
  <defs/>
  <path d="M3.75,6.5 C3.612,6.5 3.5,6.612 3.5,6.75 L3.5,13.25 C3.5,13.388 3.612,13.5 3.75,13.5 L12.25,13.5 C12.388,13.5 12.5,13.388 12.5,13.25 L12.5,6.75 C12.5,6.612 12.388,6.5 12.25,6.5 L11.25,6.5 C10.836,6.5 10.5,6.164 10.5,5.75 C10.5,5.336 10.836,5 11.25,5 L12.25,5 C13.216,5 14,5.784 14,6.75 L14,13.25 C14,14.216 13.216,15 12.25,15 L3.75,15 C2.784,15 2,14.216 2,13.25 L2,6.75 C2,5.784 2.784,5 3.75,5 L4.75,5 C5.164,5 5.5,5.336 5.5,5.75 C5.5,6.164 5.164,6.5 4.75,6.5 Z M7.823,0.177 C7.87,0.13 7.934,0.104 8,0.104 C8.066,0.104 8.13,0.13 8.177,0.177 L11.073,3.073 C11.145,3.145 11.166,3.252 11.127,3.346 C11.089,3.439 10.997,3.5 10.896,3.5 L8.75,3.5 L8.75,9.25 C8.75,9.664 8.414,10 8,10 C7.586,10 7.25,9.664 7.25,9.25 L7.25,3.5 L5.104,3.5 C5.003,3.5 4.911,3.439 4.873,3.346 C4.834,3.252 4.855,3.145 4.927,3.073 Z"/>
</svg>

