<svg xmlns="http://www.w3.org/2000/svg" width="16" height="16" viewBox="0 0 16 16">
  <defs/>
  <path d="M15,3 C15,4.227 14.252,5.331 13.112,5.786 C11.972,6.241 10.67,5.956 9.825,5.066 L5.905,7.245 C6.034,7.74 6.034,8.26 5.905,8.755 L9.825,10.934 C10.867,9.84 12.56,9.691 13.776,10.587 C14.993,11.483 15.353,13.144 14.618,14.463 C13.883,15.783 12.281,16.35 10.879,15.787 C9.477,15.223 8.713,13.706 9.095,12.244 L5.175,10.066 C4.33,10.956 3.027,11.241 1.888,10.786 C0.748,10.33 0,9.227 0,7.999 C0,6.772 0.748,5.669 1.888,5.213 C3.027,4.758 4.33,5.043 5.175,5.933 L9.095,3.755 C8.805,2.63 9.191,1.439 10.085,0.697 C10.979,-0.045 12.221,-0.203 13.273,0.289 C14.325,0.782 14.998,1.838 15,3 Z M13.5,13 C13.5,12.172 12.828,11.5 12,11.5 C11.172,11.5 10.5,12.172 10.5,13 C10.5,13.828 11.172,14.5 12,14.5 C12.828,14.5 13.5,13.828 13.5,13 Z M4.5,8 C4.5,7.172 3.828,6.5 3,6.5 C2.172,6.5 1.5,7.172 1.5,8 C1.5,8.828 2.172,9.5 3,9.5 C3.828,9.5 4.5,8.828 4.5,8 Z M13.5,3 C13.5,2.172 12.828,1.5 12,1.5 C11.172,1.5 10.5,2.172 10.5,3 C10.5,3.828 11.172,4.5 12,4.5 C12.828,4.5 13.5,3.828 13.5,3 Z"/>
</svg>

