<svg xmlns="http://www.w3.org/2000/svg" width="24" height="24" viewBox="0 0 24 24">
  <defs/>
  <path d="M13,15.5 A1 1 0 1 1 11,15.5 A1 1 0 0 1 13,15.5 Z M12.75,7.25 A0.75 0.75 0 0 0 11.25,7.25 L11.25,11.75 A0.75 0.75 0 0 0 12.75,11.75 L12.75,7.25 Z"/>
  <path d="M11.46,0.637 C11.811,0.523 12.189,0.523 12.54,0.637 L20.79,3.312 C21.511,3.546 22,4.218 22,4.976 L22,10 C22,16.19 18.23,20.705 12.599,22.83 C12.213,22.975 11.787,22.975 11.401,22.83 C5.771,20.704 2,16.19 2,10 L2,4.976 C2,4.216 2.49,3.546 3.21,3.312 Z M12.077,2.063 C12.027,2.047 11.973,2.047 11.923,2.063 L3.673,4.74 C3.57,4.773 3.5,4.869 3.5,4.977 L3.5,10 C3.5,15.461 6.78,19.483 11.93,21.426 C11.975,21.443 12.025,21.443 12.07,21.426 C17.22,19.483 20.5,15.46 20.5,10 L20.5,4.976 C20.5,4.868 20.43,4.772 20.327,4.739 Z"/>
</svg>

