<svg xmlns="http://www.w3.org/2000/svg" width="24" height="24" viewBox="0 0 24 24">
  <defs/>
  <path d="M7.22,14.47 L9.69,12 L7.22,9.53 C7.019,9.343 6.937,9.061 7.005,8.796 C7.072,8.53 7.28,8.322 7.546,8.255 C7.811,8.187 8.093,8.269 8.28,8.47 L11.28,11.47 C11.572,11.763 11.572,12.237 11.28,12.53 L8.28,15.53 C7.984,15.805 7.524,15.797 7.238,15.512 C6.953,15.226 6.945,14.766 7.22,14.47 Z"/>
  <path d="M3.75,2 L20.25,2 C21.216,2 22,2.784 22,3.75 L22,20.25 C22,21.216 21.216,22 20.25,22 L3.75,22 C2.784,22 2,21.216 2,20.25 L2,3.75 C2,2.784 2.784,2 3.75,2 Z M3.5,3.75 L3.5,20.25 C3.5,20.388 3.612,20.5 3.75,20.5 L15,20.5 L15,3.5 L3.75,3.5 C3.612,3.5 3.5,3.612 3.5,3.75 Z M16.5,20.5 L20.25,20.5 C20.388,20.5 20.5,20.388 20.5,20.25 L20.5,3.75 C20.5,3.612 20.388,3.5 20.25,3.5 L16.5,3.5 Z"/>
</svg>

