<svg width="16" height="16" viewBox="0 0 16 16" fill="none" xmlns="http://www.w3.org/2000/svg">
<path fill-rule="evenodd" clip-rule="evenodd" d="M4.1768 7.82323L6.57323 5.42678C6.73072 5.26929 7 5.38083 7 5.60356V10.3964C7 10.6192 6.73072 10.7307 6.57323 10.5732L4.1768 8.17678C4.07917 8.07915 4.07917 7.92086 4.1768 7.82323Z" fill="black"/>
<path fill-rule="evenodd" clip-rule="evenodd" d="M0 1.75C0 0.783501 0.783502 0 1.75 0H14.25C15.2165 0 16 0.783502 16 1.75V14.25C16 15.2165 15.2165 16 14.25 16H1.75C0.783501 16 0 15.2165 0 14.25V1.75ZM1.75 1.5C1.61193 1.5 1.5 1.61193 1.5 1.75V14.25C1.5 14.3881 1.61193 14.5 1.75 14.5H9.5V1.5H1.75ZM14.25 14.5H11V1.5H14.25C14.3881 1.5 14.5 1.61193 14.5 1.75V14.25C14.5 14.3881 14.3881 14.5 14.25 14.5Z" fill="black"/>
</svg>
