<svg xmlns="http://www.w3.org/2000/svg" width="16" height="16" viewBox="0 0 16 16">
  <defs/>
  <path d="M6.823,7.823 C6.87,7.87 6.896,7.934 6.896,8 C6.896,8.066 6.87,8.13 6.823,8.177 L4.427,10.573 C4.27,10.731 4,10.619 4,10.396 L4,5.604 C4,5.503 4.061,5.411 4.154,5.373 C4.248,5.334 4.355,5.355 4.427,5.427 Z"/>
  <path d="M1.75,0 L14.25,0 C15.216,0 16,0.784 16,1.75 L16,14.25 C16,15.216 15.216,16 14.25,16 L1.75,16 C0.784,16 0,15.216 0,14.25 L0,1.75 C0,0.784 0.784,0 1.75,0 Z M1.5,1.75 L1.5,14.25 C1.5,14.388 1.612,14.5 1.75,14.5 L9.5,14.5 L9.5,1.5 L1.75,1.5 C1.612,1.5 1.5,1.612 1.5,1.75 Z M11,14.5 L14.25,14.5 C14.388,14.5 14.5,14.388 14.5,14.25 L14.5,1.75 C14.5,1.612 14.388,1.5 14.25,1.5 L11,1.5 Z"/>
</svg>

