<svg xmlns="http://www.w3.org/2000/svg" width="24" height="24" viewBox="0 0 24 24"><path d="M11.28 9.53L8.81 12l2.47 2.47a.749.749 0 01-.326 1.275.749.749 0 01-.734-.215l-3-3a.75.75 0 010-1.06l3-3a.749.749 0 011.275.326.749.749 0 01-.215.734z"/><path d="M3.75 2h16.5c.966 0 1.75.784 1.75 1.75v16.5A1.75 1.75 0 0120.25 22H3.75A1.75 1.75 0 012 20.25V3.75C2 2.784 2.784 2 3.75 2zM3.5 3.75v16.5c0 .138.112.25.25.25H15v-17H3.75a.25.25 0 00-.25.25zm13 16.75h3.75a.25.25 0 00.25-.25V3.75a.25.25 0 00-.25-.25H16.5z"/></svg>