<svg xmlns="http://www.w3.org/2000/svg" width="24" height="24" viewBox="0 0 24 24">
  <defs/>
  <path d="M3,3.25 C3,2.284 3.784,1.5 4.75,1.5 L10.25,1.5 C10.664,1.5 11,1.836 11,2.25 C11,2.664 10.664,3 10.25,3 L4.75,3 C4.612,3 4.5,3.112 4.5,3.25 L4.5,20.75 C4.5,20.888 4.612,21 4.75,21 L10.25,21 C10.664,21 11,21.336 11,21.75 C11,22.164 10.664,22.5 10.25,22.5 L4.75,22.5 C3.784,22.5 3,21.716 3,20.75 Z M12.994,12.75 L16.294,16.234 C16.567,16.536 16.55,17.001 16.254,17.281 C15.958,17.562 15.493,17.555 15.206,17.266 L10.706,12.516 C10.432,12.227 10.432,11.773 10.706,11.484 L15.206,6.734 C15.493,6.445 15.958,6.438 16.254,6.719 C16.55,6.999 16.567,7.464 16.294,7.766 L12.994,11.25 L21.25,11.25 C21.664,11.25 22,11.586 22,12 C22,12.414 21.664,12.75 21.25,12.75 Z"/>
</svg>

