<svg width="24" height="24" viewBox="0 0 24 24" fill="none" xmlns="http://www.w3.org/2000/svg">
<path d="M7.85357 10.8536L11.6465 14.6464C11.8418 14.8417 12.1583 14.8417 12.3536 14.6464L16.1465 10.8536C16.4614 10.5386 16.2384 10 15.7929 10L8.20712 10C7.76167 10 7.53858 10.5386 7.85357 10.8536Z" fill="#24292E"/>
<path fill-rule="evenodd" clip-rule="evenodd" d="M2 3.75C2 2.7835 2.7835 2 3.75 2H20.25C21.2165 2 22 2.7835 22 3.75V20.25C22 21.2165 21.2165 22 20.25 22H3.75C2.7835 22 2 21.2165 2 20.25V3.75ZM3.75 3.5C3.61193 3.5 3.5 3.61193 3.5 3.75V20.25C3.5 20.3881 3.61193 20.5 3.75 20.5H20.25C20.3881 20.5 20.5 20.3881 20.5 20.25V3.75C20.5 3.61193 20.3881 3.5 20.25 3.5H3.75Z" fill="#24292E"/>
</svg>
