<svg xmlns="http://www.w3.org/2000/svg" width="16" height="16" viewBox="0 0 16 16">
  <defs/>
  <path d="M8,0 C12.418,0 16,3.582 16,8 C16,12.418 12.418,16 8,16 C3.582,16 0,12.418 0,8 C0,3.582 3.582,0 8,0 Z M1.5,8 C1.5,11.59 4.41,14.5 8,14.5 C11.59,14.5 14.5,11.59 14.5,8 C14.5,4.41 11.59,1.5 8,1.5 C4.41,1.5 1.5,4.41 1.5,8 Z M11.28,5.78 L5.78,11.28 C5.593,11.481 5.311,11.563 5.046,11.495 C4.78,11.428 4.572,11.22 4.505,10.954 C4.437,10.689 4.519,10.407 4.72,10.22 L10.22,4.72 C10.516,4.445 10.976,4.453 11.262,4.738 C11.547,5.024 11.555,5.484 11.28,5.78 Z"/>
</svg>

