<svg width="24" height="24" viewBox="0 0 24 24" xmlns="http://www.w3.org/2000/svg">
  <path d="M17.2803 7.78033C17.5732 7.48744 17.5732 7.01256 17.2803 6.71967C16.9874 6.42678 16.5126 6.42678 16.2197 6.71967L6.71967 16.2197C6.42678 16.5126 6.42678 16.9874 6.71967 17.2803C7.01256 17.5732 7.48744 17.5732 7.78033 17.2803L17.2803 7.78033Z"/>
  <path fill-rule="evenodd" clip-rule="evenodd" d="M12 1C5.92487 1 1 5.92487 1 12C1 18.0751 5.92487 23 12 23C18.0751 23 23 18.0751 23 12C23 5.92487 18.0751 1 12 1ZM2.5 12C2.5 6.75329 6.75329 2.5 12 2.5C17.2467 2.5 21.5 6.75329 21.5 12C21.5 17.2467 17.2467 21.5 12 21.5C6.75329 21.5 2.5 17.2467 2.5 12Z"/>
</svg>
