<svg width="16" height="16" viewBox="0 0 16 16" fill="none" xmlns="http://www.w3.org/2000/svg">
<g clip-path="url(#clip0_8243_104266)">
<path fill-rule="evenodd" clip-rule="evenodd" d="M0 8C0 3.58172 3.58172 0 8 0C12.4183 0 16 3.58172 16 8C16 12.4183 12.4183 16 8 16C3.58172 16 0 12.4183 0 8ZM11.3334 5.83335C11.6555 5.51117 11.6555 4.98881 11.3334 4.66662C11.0112 4.34444 10.4888 4.34444 10.1666 4.66662L4.66662 10.1666C4.34444 10.4888 4.34444 11.0112 4.66662 11.3334C4.98881 11.6555 5.51117 11.6555 5.83335 11.3334L11.3334 5.83335Z" fill="black"/>
</g>
<defs>
<clipPath id="clip0_8243_104266">
<rect width="16" height="16" fill="white"/>
</clipPath>
</defs>
</svg>
