<svg width="16" height="16" viewBox="0 0 16 16" xmlns="http://www.w3.org/2000/svg">
  <path fill-rule="evenodd" clip-rule="evenodd" d="M1.5 8C1.5 4.41015 4.41015 1.5 8 1.5C11.5899 1.5 14.5 4.41015 14.5 8C14.5 11.5899 11.5899 14.5 8 14.5C4.41015 14.5 1.5 11.5899 1.5 8ZM8 0C3.58172 0 0 3.58172 0 8C0 12.4183 3.58172 16 8 16C12.4183 16 16 12.4183 16 8C16 3.58172 12.4183 0 8 0ZM11.2803 5.78033C11.5732 5.48744 11.5732 5.01256 11.2803 4.71967C10.9874 4.42678 10.5126 4.42678 10.2197 4.71967L4.71967 10.2197C4.42678 10.5126 4.42678 10.9874 4.71967 11.2803C5.01256 11.5732 5.48744 11.5732 5.78033 11.2803L11.2803 5.78033Z"/>
</svg>
