<svg xmlns="http://www.w3.org/2000/svg" width="16" height="16" viewBox="0 0 16 16">
  <defs/>
  <path d="M15,2.75 A0.75 0.75 0 0 1 14.25,3.5 L10.25,3.5 A0.75 0.75 0 0 1 10.25,2 L14.25,2 A0.75 0.75 0 0 1 15,2.75 Z M6.5,3.5 L6.5,4.75 A0.75 0.75 0 0 0 8,4.75 L8,0.75 A0.75 0.75 0 0 0 6.5,0.75 L6.5,2 L1.75,2 A0.75 0.75 0 0 0 1.75,3.5 L6.5,3.5 Z M7.75,8.75 A0.75 0.75 0 0 0 7.75,7.25 L1.75,7.25 A0.75 0.75 0 0 0 1.75,8.75 L7.75,8.75 Z M15,8 A0.75 0.75 0 0 1 14.25,8.75 L11.5,8.75 L11.5,10 A0.75 0.75 0 1 1 10,10 L10,6 A0.75 0.75 0 0 1 11.5,6 L11.5,7.25 L14.25,7.25 A0.75 0.75 0 0 1 15,8 Z M6,13.25 L6,11.25 A0.75 0.75 0 0 0 4.5,11.25 L4.5,12.5 L1.75,12.5 A0.75 0.75 0 0 0 1.75,14 L4.5,14 L4.5,15.25 A0.75 0.75 0 0 0 6,15.25 L6,13.25 Z M15,13.25 A0.75 0.75 0 0 1 14.25,14 L8.25,14 A0.75 0.75 0 0 1 8.25,12.5 L14.25,12.5 A0.75 0.75 0 0 1 15,13.25 Z"/>
</svg>

