<svg width="16" height="16" viewBox="0 0 16 16" fill="none" xmlns="http://www.w3.org/2000/svg">
<g clip-path="url(#clip0_7613_71669)">
<path d="M15 2.75C15 3.16421 14.6642 3.5 14.25 3.5H10.25C9.83579 3.5 9.5 3.16421 9.5 2.75C9.5 2.33579 9.83579 2 10.25 2H14.25C14.6642 2 15 2.33579 15 2.75Z" fill="black"/>
<path d="M6.5 3.5V4.75C6.5 5.16421 6.83579 5.5 7.25 5.5C7.66421 5.5 8 5.16421 8 4.75L8 0.75C8 0.335787 7.66421 1.81059e-08 7.25 0C6.83579 -1.81059e-08 6.5 0.335787 6.5 0.75V2L1.75 2C1.33579 2 1 2.33579 1 2.75C1 3.16421 1.33579 3.5 1.75 3.5L6.5 3.5Z" fill="black"/>
<path d="M7.75 8.75C8.16421 8.75 8.5 8.41421 8.5 8C8.5 7.58579 8.16421 7.25 7.75 7.25L1.75 7.25C1.33579 7.25 1 7.58579 1 8C1 8.41421 1.33579 8.75 1.75 8.75H7.75Z" fill="black"/>
<path d="M15 8C15 8.41421 14.6642 8.75 14.25 8.75H11.5V10C11.5 10.4142 11.1643 10.75 10.75 10.75C10.3358 10.75 10 10.4142 10 10V8.0084L10 8L10 7.99161V6C10 5.58579 10.3358 5.25 10.75 5.25C11.1643 5.25 11.5 5.58579 11.5 6V7.25L14.25 7.25C14.6642 7.25 15 7.58579 15 8Z" fill="black"/>
<path d="M6 13.25L6 11.25C6 10.8358 5.66421 10.5 5.25 10.5C4.83579 10.5 4.5 10.8358 4.5 11.25V12.5H1.75C1.33579 12.5 1 12.8358 1 13.25C1 13.6642 1.33579 14 1.75 14H4.5V15.25C4.5 15.6642 4.83579 16 5.25 16C5.66421 16 6 15.6642 6 15.25L6 13.25Z" fill="black"/>
<path d="M15 13.25C15 13.6642 14.6642 14 14.25 14H8.25C7.83579 14 7.5 13.6642 7.5 13.25C7.5 12.8358 7.83579 12.5 8.25 12.5H14.25C14.6642 12.5 15 12.8358 15 13.25Z" fill="black"/>
</g>
<defs>
<clipPath id="clip0_7613_71669">
<rect width="16" height="16" fill="white" transform="translate(16) rotate(90)"/>
</clipPath>
</defs>
</svg>
