<svg xmlns="http://www.w3.org/2000/svg" width="16" height="16" viewBox="0 0 16 16"><path d="M15 2.75a.75.75 0 01-.75.75h-4a.75.75 0 010-1.5h4a.75.75 0 01.75.75zm-8.5.75v1.25a.75.75 0 001.5 0v-4a.75.75 0 00-1.5 0V2H1.75a.75.75 0 000 1.5H6.5zm1.25 5.25a.75.75 0 000-1.5h-6a.75.75 0 000 1.5h6zM15 8a.75.75 0 01-.75.75H11.5V10a.75.75 0 11-1.5 0V6a.75.75 0 011.5 0v1.25h2.75A.75.75 0 0115 8zm-9 5.25v-2a.75.75 0 00-1.5 0v1.25H1.75a.75.75 0 000 1.5H4.5v1.25a.75.75 0 001.5 0v-2zm9 0a.75.75 0 01-.75.75h-6a.75.75 0 010-1.5h6a.75.75 0 01.75.75z"/></svg>