<svg xmlns="http://www.w3.org/2000/svg" width="24" height="24" viewBox="0 0 24 24">
  <defs/>
  <path d="M8.456,14.494 A0.75 0.75 0 0 1 9.524,14.664 A3.08 3.08 0 0 0 10.096,15.156 A3.381 3.381 0 0 0 12,15.72 C12.855,15.72 13.487,15.437 13.904,15.158 A3.081 3.081 0 0 0 14.476,14.666 L14.497,14.64 A0.75 0.75 0 0 1 15.694,15.545 L15.667,15.579 C15.654,15.595 15.637,15.617 15.615,15.642 C15.571,15.692 15.51,15.761 15.431,15.84 A4.569 4.569 0 0 1 14.736,16.406 A4.88 4.88 0 0 1 12,17.22 A4.88 4.88 0 0 1 9.264,16.406 A4.57 4.57 0 0 1 8.569,15.84 A3.253 3.253 0 0 1 8.333,15.579 C8.074,15.247 8.11,14.755 8.456,14.495 Z"/>
  <path d="M12,1 C18.075,1 23,5.925 23,12 C23,18.075 18.075,23 12,23 C5.925,23 1,18.075 1,12 C1,5.925 5.925,1 12,1 Z M2.5,12 C2.5,17.247 6.753,21.5 12,21.5 C17.247,21.5 21.5,17.247 21.5,12 C21.5,6.753 17.247,2.5 12,2.5 C6.753,2.5 2.5,6.753 2.5,12 Z"/>
  <path d="M9,10.75 A1.25 1.25 0 1 1 6.5,10.75 A1.25 1.25 0 0 1 9,10.75 Z M16.25,12 A1.25 1.25 0 1 0 16.25,9.5 A1.25 1.25 0 0 0 16.25,12 Z"/>
</svg>

