<svg xmlns="http://www.w3.org/2000/svg" width="16" height="16" viewBox="0 0 16 16"><path d="M8 0a8 8 0 110 16A8 8 0 018 0zM1.5 8a6.5 6.5 0 1013 0 6.5 6.5 0 00-13 0zm3.82 1.636a.75.75 0 011.038.175l.007.009c.103.118.22.222.35.31.264.178.683.37 1.285.37.602 0 1.02-.192 1.285-.371.13-.088.247-.192.35-.31l.007-.008a.75.75 0 011.222.87l-.022-.015c.02.013.021.015.021.015v.001l-.001.002-.002.003-.005.007-.014.019a2.066 2.066 0 01-.184.213c-.16.166-.338.316-.53.445-.63.418-1.37.638-2.127.629-.946 0-1.652-.308-2.126-.63a3.331 3.331 0 01-.715-.657l-.014-.02-.005-.006-.002-.003v-.002h-.001l.613-.432-.614.43a.75.75 0 01.183-1.044zM12 7a1 1 0 11-2 0 1 1 0 012 0zM5 8a1 1 0 110-2 1 1 0 010 2zm5.25 2.25l.592.416a97.71 97.71 0 00-.592-.416z"/></svg>