<svg width="16" height="16" viewBox="0 0 16 16" fill="none" xmlns="http://www.w3.org/2000/svg">
<g clip-path="url(#clip0_55_838)">
<path d="M8 0C10.1217 0 12.1569 0.842494 13.6572 2.34277C15.1574 3.84306 16 5.87827 16 8C16 10.1217 15.1574 12.1569 13.6572 13.6572C12.1569 15.1574 10.1217 16 8 16C5.87827 16 3.84306 15.1574 2.34277 13.6572C0.842494 12.1569 0 10.1217 0 8C0 5.87827 0.842478 3.84306 2.34277 2.34277C3.84306 0.842478 5.87827 0 8 0ZM8 1.5C6.27609 1.5 4.62328 2.18531 3.4043 3.4043C2.18531 4.62328 1.5 6.27609 1.5 8C1.5 9.72391 2.18531 11.3777 3.4043 12.5967C4.62323 13.8154 6.27632 14.5 8 14.5C9.72391 14.5 11.3777 13.8157 12.5967 12.5967C13.8157 11.3777 14.5 9.72391 14.5 8C14.5 6.27632 13.8154 4.62323 12.5967 3.4043C11.3777 2.18531 9.72391 1.5 8 1.5ZM10 10.25C10.4142 10.25 10.75 10.5858 10.75 11C10.75 11.4142 10.4142 11.75 10 11.75H6C5.58579 11.75 5.25 11.4142 5.25 11C5.25 10.5858 5.58579 10.25 6 10.25H10ZM5 6C5.26522 6 5.51949 6.10544 5.70703 6.29297C5.89456 6.48051 6 6.73478 6 7C6 7.26522 5.89456 7.51949 5.70703 7.70703C5.51949 7.89456 5.26522 8 5 8C4.73478 8 4.48051 7.89456 4.29297 7.70703C4.10544 7.51949 4 7.26522 4 7C4 6.73478 4.10544 6.48051 4.29297 6.29297C4.48051 6.10544 4.73478 6 5 6ZM11 6C11.2652 6 11.5195 6.10544 11.707 6.29297C11.8945 6.48051 12 6.73478 12 7C12 7.26522 11.8945 7.51949 11.707 7.70703C11.5195 7.89456 11.2652 8 11 8C10.7348 8 10.4805 7.89456 10.293 7.70703C10.1055 7.51949 10 7.26522 10 7C10 6.73478 10.1055 6.48051 10.293 6.29297C10.4805 6.10544 10.7348 6 11 6Z" fill="black"/>
</g>
<defs>
<clipPath id="clip0_55_838">
<rect width="16" height="16" fill="white"/>
</clipPath>
</defs>
</svg>
