<svg width="16" height="16" viewBox="0 0 16 16" fill="none" xmlns="http://www.w3.org/2000/svg">
<g clip-path="url(#clip0)">
<path fill-rule="evenodd" clip-rule="evenodd" d="M0 4.25C0 3.83579 0.335786 3.5 0.75 3.5H3.25C3.66421 3.5 4 3.83579 4 4.25C4 4.66421 3.66421 5 3.25 5H0.75C0.335786 5 0 4.66421 0 4.25ZM0 8.25C0 7.83579 0.335786 7.5 0.75 7.5H5.25C5.66421 7.5 6 7.83579 6 8.25C6 8.66421 5.66421 9 5.25 9H0.75C0.335786 9 0 8.66421 0 8.25ZM0 12.25C0 11.8358 0.335786 11.5 0.75 11.5H8.25C8.66421 11.5 9 11.8358 9 12.25C9 12.6642 8.66421 13 8.25 13H0.75C0.335786 13 0 12.6642 0 12.25Z" fill="#24292E"/>
<path fill-rule="evenodd" clip-rule="evenodd" d="M12.9268 2.57322C12.8292 2.47559 12.6709 2.47559 12.5732 2.57322L9.57323 5.57322C9.50173 5.64472 9.48034 5.75225 9.51904 5.84567C9.55773 5.93909 9.64889 6 9.75001 6H12V12.75C12 13.1642 12.3358 13.5 12.75 13.5C13.1642 13.5 13.5 13.1642 13.5 12.75V6H15.75C15.8511 6 15.9423 5.93909 15.981 5.84567C16.0197 5.75225 15.9983 5.64472 15.9268 5.57322L12.9268 2.57322Z" fill="#24292E"/>
</g>
<defs>
<clipPath id="clip0">
<rect width="16" height="16" fill="white"/>
</clipPath>
</defs>
</svg>
