<svg xmlns="http://www.w3.org/2000/svg" width="24" height="24" viewBox="0 0 24 24">
  <defs/>
  <path d="M18.5,17.25 A0.75 0.75 0 0 1 17,17.25 L17,7.56 L14.78,9.78 A0.75 0.75 0 1 1 13.72,8.72 L17.22,5.22 A0.75 0.75 0 0 1 18.28,5.22 L21.78,8.72 A0.75 0.75 0 0 1 20.72,9.78 L18.5,7.56 L18.5,17.25 Z M2.75,17.5 A0.75 0.75 0 0 1 2.75,16 L12.25,16 A0.75 0.75 0 0 1 12.25,17.5 L2.75,17.5 Z M2.75,12.5 A0.75 0.75 0 0 1 2.75,11 L8.25,11 A0.75 0.75 0 0 1 8.25,12.5 L2.75,12.5 Z M2.75,7.5 A0.75 0.75 0 0 1 2.75,6 L6.25,6 A0.75 0.75 0 0 1 6.25,7.5 L2.75,7.5 Z"/>
</svg>

