<svg width="24" height="24" viewBox="0 0 24 24" fill="none" xmlns="http://www.w3.org/2000/svg">
<path d="M18.5 17.25C18.5 17.6642 18.1642 18 17.75 18C17.3358 18 17 17.6642 17 17.25L17 7.56066L14.7803 9.78033C14.4874 10.0732 14.0126 10.0732 13.7197 9.78033C13.4268 9.48744 13.4268 9.01256 13.7197 8.71967L17.2197 5.21967C17.5126 4.92678 17.9874 4.92678 18.2803 5.21967L21.7803 8.71967C22.0732 9.01256 22.0732 9.48744 21.7803 9.78033C21.4874 10.0732 21.0126 10.0732 20.7197 9.78033L18.5 7.56066V17.25Z" fill="#24292E"/>
<path d="M2.75 17.5C2.33579 17.5 2 17.1642 2 16.75C2 16.3358 2.33579 16 2.75 16H12.25C12.6642 16 13 16.3358 13 16.75C13 17.1642 12.6642 17.5 12.25 17.5H2.75Z" fill="#24292E"/>
<path d="M2.75 12.5C2.33579 12.5 2 12.1642 2 11.75C2 11.3358 2.33579 11 2.75 11H8.25C8.66421 11 9 11.3358 9 11.75C9 12.1642 8.66421 12.5 8.25 12.5H2.75Z" fill="#24292E"/>
<path d="M2.75 7.5C2.33579 7.5 2 7.16421 2 6.75C2 6.33579 2.33579 6 2.75 6H6.25C6.66421 6 7 6.33579 7 6.75C7 7.16421 6.66421 7.5 6.25 7.5H2.75Z" fill="#24292E"/>
</svg>
