<svg width="16" height="16" viewBox="0 0 16 16" fill="none" xmlns="http://www.w3.org/2000/svg">
<path d="M13.25 4H2.75C2.33579 4 2 4.33579 2 4.75C2 5.16421 2.33579 5.5 2.75 5.5H13.25C13.6642 5.5 14 5.16421 14 4.75C14 4.33579 13.6642 4 13.25 4Z" fill="black"/>
<path d="M10.25 7H5.75C5.33579 7 5 7.33579 5 7.75C5 8.16421 5.33579 8.5 5.75 8.5H10.25C10.6642 8.5 11 8.16421 11 7.75C11 7.33579 10.6642 7 10.25 7Z" fill="black"/>
<path d="M13.25 10H2.75C2.33579 10 2 10.3358 2 10.75C2 11.1642 2.33579 11.5 2.75 11.5H13.25C13.6642 11.5 14 11.1642 14 10.75C14 10.3358 13.6642 10 13.25 10Z" fill="black"/>
</svg>
