<svg width="24" height="24" viewBox="0 0 24 24" fill="none" xmlns="http://www.w3.org/2000/svg">
<path d="M20.25 7H3.75C3.33579 7 3 7.33579 3 7.75C3 8.16421 3.33579 8.5 3.75 8.5H20.25C20.6642 8.5 21 8.16421 21 7.75C21 7.33579 20.6642 7 20.25 7Z" fill="black"/>
<path d="M16.25 11H7.75C7.33579 11 7 11.3358 7 11.75C7 12.1642 7.33579 12.5 7.75 12.5H16.25C16.6642 12.5 17 12.1642 17 11.75C17 11.3358 16.6642 11 16.25 11Z" fill="black"/>
<path d="M20.25 15H3.75C3.33579 15 3 15.3358 3 15.75C3 16.1642 3.33579 16.5 3.75 16.5H20.25C20.6642 16.5 21 16.1642 21 15.75C21 15.3358 20.6642 15 20.25 15Z" fill="black"/>
</svg>
