<svg width="16" height="16" viewBox="0 0 16 16" fill="none" xmlns="http://www.w3.org/2000/svg">
<path d="M13.25 2H2.75C2.33579 2 2 2.33579 2 2.75C2 3.16421 2.33579 3.5 2.75 3.5H13.25C13.6642 3.5 14 3.16421 14 2.75C14 2.33579 13.6642 2 13.25 2Z" fill="black"/>
<path d="M10.25 7H5.75C5.33579 7 5 7.33579 5 7.75C5 8.16421 5.33579 8.5 5.75 8.5H10.25C10.6642 8.5 11 8.16421 11 7.75C11 7.33579 10.6642 7 10.25 7Z" fill="black"/>
<path d="M13.25 12H2.75C2.33579 12 2 12.3358 2 12.75C2 13.1642 2.33579 13.5 2.75 13.5H13.25C13.6642 13.5 14 13.1642 14 12.75C14 12.3358 13.6642 12 13.25 12Z" fill="black"/>
</svg>
