<svg width="24" height="24" viewBox="0 0 24 24" fill="none" xmlns="http://www.w3.org/2000/svg">
<path d="M20.25 5H3.75C3.33579 5 3 5.33579 3 5.75C3 6.16421 3.33579 6.5 3.75 6.5H20.25C20.6642 6.5 21 6.16421 21 5.75C21 5.33579 20.6642 5 20.25 5Z" fill="black"/>
<path d="M16.25 11H7.75C7.33579 11 7 11.3358 7 11.75C7 12.1642 7.33579 12.5 7.75 12.5H16.25C16.6642 12.5 17 12.1642 17 11.75C17 11.3358 16.6642 11 16.25 11Z" fill="black"/>
<path d="M20.25 17H3.75C3.33579 17 3 17.3358 3 17.75C3 18.1642 3.33579 18.5 3.75 18.5H20.25C20.6642 18.5 21 18.1642 21 17.75C21 17.3358 20.6642 17 20.25 17Z" fill="black"/>
</svg>
