<svg width="24" height="24" viewBox="0 0 24 24" fill="none" xmlns="http://www.w3.org/2000/svg">
<path d="M20.25 3H3.75C3.33579 3 3 3.33579 3 3.75C3 4.16421 3.33579 4.5 3.75 4.5H20.25C20.6642 4.5 21 4.16421 21 3.75C21 3.33579 20.6642 3 20.25 3Z" fill="black"/>
<path d="M16.25 11H7.75C7.33579 11 7 11.3358 7 11.75C7 12.1642 7.33579 12.5 7.75 12.5H16.25C16.6642 12.5 17 12.1642 17 11.75C17 11.3358 16.6642 11 16.25 11Z" fill="black"/>
<path d="M20.25 19H3.75C3.33579 19 3 19.3358 3 19.75C3 20.1642 3.33579 20.5 3.75 20.5H20.25C20.6642 20.5 21 20.1642 21 19.75C21 19.3358 20.6642 19 20.25 19Z" fill="black"/>
</svg>
