<svg xmlns="http://www.w3.org/2000/svg" width="25" height="25" viewBox="0 0 25 25"><path d="M11.225.599c.276-.753 1.342-.753 1.618 0l1.918 5.238a5.83 5.83 0 0 0 3.47 3.47l5.237 1.918c.755.276.755 1.342 0 1.618l-5.237 1.918a5.83 5.83 0 0 0-3.47 3.47l-1.918 5.237c-.276.755-1.342.755-1.618 0l-1.918-5.237a5.83 5.83 0 0 0-3.47-3.47L.599 12.843c-.753-.276-.753-1.342 0-1.618l5.238-1.918a5.83 5.83 0 0 0 3.47-3.47L11.225.599Zm-.505 5.756a7.336 7.336 0 0 1-4.365 4.365l-3.591 1.314 3.591 1.315a7.336 7.336 0 0 1 4.365 4.365l1.314 3.589 1.315-3.589a7.33 7.33 0 0 1 4.365-4.365l3.589-1.315-3.589-1.314a7.336 7.336 0 0 1-4.365-4.365l-1.315-3.591-1.314 3.591Z"/></svg>