<svg xmlns="http://www.w3.org/2000/svg" width="24" height="24" viewBox="0 0 24 24"><path d="M11.191.565c.275-.754 1.342-.753 1.618 0l1.918 5.238a5.83 5.83 0 0 0 3.47 3.47l5.237 1.918c.755.275.755 1.342 0 1.618l-5.237 1.918a5.83 5.83 0 0 0-3.47 3.47l-1.918 5.237c-.276.755-1.343.755-1.618 0l-1.918-5.237a5.83 5.83 0 0 0-3.47-3.47L.565 12.809c-.753-.276-.754-1.342 0-1.618l5.238-1.918a5.83 5.83 0 0 0 3.47-3.47L11.191.565Zm-.505 5.756a7.336 7.336 0 0 1-4.365 4.365L2.73 12l3.591 1.315a7.333 7.333 0 0 1 4.365 4.365L12 21.269l1.315-3.589a7.33 7.33 0 0 1 4.365-4.365L21.269 12l-3.589-1.314a7.333 7.333 0 0 1-4.365-4.365L12 2.73l-1.314 3.591Z"/></svg>