<svg xmlns="http://www.w3.org/2000/svg" width="16" height="16" viewBox="0 0 16 16"><path d="M7.198.57c.275-.752 1.34-.752 1.615 0l.849 2.317a5.819 5.819 0 0 0 3.462 3.463l2.317.848c.753.275.753 1.34 0 1.615l-2.317.849a5.815 5.815 0 0 0-3.462 3.462l-.849 2.317c-.275.753-1.34.753-1.615 0l-.848-2.317a5.819 5.819 0 0 0-3.463-3.462L.57 8.813c-.752-.275-.752-1.34 0-1.615l2.317-.848A5.823 5.823 0 0 0 6.35 2.887L7.198.57Zm.562 2.833A7.323 7.323 0 0 1 3.403 7.76l-.673.246.673.246a7.324 7.324 0 0 1 4.357 4.356l.246.673.246-.673a7.322 7.322 0 0 1 4.356-4.356l.673-.246-.673-.246a7.324 7.324 0 0 1-4.356-4.357l-.246-.673-.246.673Z"/></svg>