<svg width="24" height="24" viewBox="0 0 24 24" fill="none" xmlns="http://www.w3.org/2000/svg">
<path fill-rule="evenodd" clip-rule="evenodd" d="M12 21.5C17.2467 21.5 21.5 17.2467 21.5 12C21.5 6.75329 17.2467 2.5 12 2.5C6.75329 2.5 2.5 6.75329 2.5 12C2.5 17.2467 6.75329 21.5 12 21.5ZM12 23C18.0751 23 23 18.0751 23 12C23 5.92487 18.0751 1 12 1C5.92487 1 1 5.92487 1 12C1 18.0751 5.92487 23 12 23Z" fill="black"/>
<path d="M7 8.75C7 7.7835 7.7835 7 8.75 7H15.25C16.2165 7 17 7.7835 17 8.75V15.25C17 16.2165 16.2165 17 15.25 17H8.75C7.7835 17 7 16.2165 7 15.25V8.75Z" fill="black"/>
</svg>
