<svg xmlns="http://www.w3.org/2000/svg" width="16" height="16" viewBox="0 0 16 16"><path fill-rule="evenodd" d="M3.75 1.5A2.25 2.25 0 001.628 3c.106.01.218.022.333.04.674.107 1.636.414 2.182 1.324.602 1.003.343 2.054.069 2.891-.072.219-.145.428-.217.632-.23.654-.442 1.254-.498 1.925-.105 1.264.336 2.144 1.058 2.73.752.612 1.88.958 3.195.958h2.055c.45-.284.974-.882 1.195-1.621.225-.752.145-1.668-.77-2.588l-.01-.01a.75.75 0 111.06-1.061c.311.31 1.337.839 2.708.327a.75.75 0 01.524 1.406 4.636 4.636 0 01-2.024.293 3.832 3.832 0 01-.05 2.063 4.49 4.49 0 01-.563 1.191h1.375a.75.75 0 010 1.5h-5.5c-1.55 0-3.046-.404-4.14-1.293-1.125-.913-1.752-2.283-1.608-4.02.074-.883.373-1.727.614-2.407.062-.175.12-.34.17-.491.268-.818.3-1.271.07-1.653-.203-.34-.616-.533-1.13-.614a3.697 3.697 0 00-.877-.028H.841A.75.75 0 010 3.75a3.75 3.75 0 017.382-.937.75.75 0 01-1.453.374A2.251 2.251 0 003.75 1.5zM12.5.75a.75.75 0 00-1.5 0v1.19L5.72 7.22a.75.75 0 001.06 1.06l5.162-5.162c.37.175.765.46 1.097.825.393.43.639.907.697 1.353-.116.122-.305.21-.59.239-.388.038-.797-.06-1.032-.19a.75.75 0 10-.728 1.31c.515.287 1.23.439 1.906.373.682-.067 1.473-.38 1.879-1.193a.75.75 0 00.079-.335c0-.997-.492-1.898-1.102-2.567A5.087 5.087 0 0012.5 1.724V.75z"/></svg>