<svg xmlns="http://www.w3.org/2000/svg" width="16" height="16" viewBox="0 0 16 16"><path d="M16 0H0v16h16z"/><path fill-rule="evenodd" d="M3.5.75a.75.75 0 111.5 0v.996c.9 1.157 1.794 1.904 2.663 2.63l.24.202c-.036-.694.055-1.422.426-2.164C9.1.874 10.795-.045 12.623.26c.908.151 1.775.617 2.374 1.412.604.801.89 1.876.748 3.16a.75.75 0 01-1.215.503v-.001a1.79 1.79 0 00-.438-.237c-.269-.098-.49-.097-.676.027a.607.607 0 00-.292.453c-.037.234-.004.554.105.997.072.297.163.593.262.917l.159.528c.151.518.3 1.092.347 1.669.145 1.736-.483 3.106-1.607 4.019C11.296 14.596 9.8 15 8.25 15H6.017a.71.71 0 01-.036 0H2.75a.75.75 0 010-1.5h1.375a4.488 4.488 0 01-.562-1.191 3.833 3.833 0 01-.05-2.063 4.636 4.636 0 01-2.025-.293.75.75 0 11.524-1.406c1.358.507 2.377-.006 2.698-.318l.01-.01a.748.748 0 011.06 0 .75.75 0 01-.013 1.074c-.912.92-.992 1.835-.767 2.586.22.74.745 1.337 1.195 1.62H8.25c1.315 0 2.442-.345 3.195-.956.722-.587 1.163-1.467 1.057-2.73-.035-.42-.147-.876-.292-1.373l-.137-.456a19.886 19.886 0 01-.301-1.054c-.121-.495-.213-1.05-.13-1.584a2.1 2.1 0 01.942-1.47c.575-.384 1.171-.395 1.643-.297a2.375 2.375 0 00-.428-1.004c-.343-.455-.851-.74-1.423-.835-1.171-.196-2.226.387-2.705 1.345-.46.92-.27 1.774.018 3.062l.043.19a.768.768 0 01.01.05c.347.443.666.949.94 1.553a.75.75 0 11-1.365.62c-.553-1.217-1.32-1.94-2.3-2.768a84.37 84.37 0 00-.317-.265c-.815-.68-1.75-1.462-2.692-2.619a3.74 3.74 0 00-1.023.88c-.406.495-.663 1.036-.722 1.508.116.122.305.21.591.239.388.038.796-.06 1.032-.19a.75.75 0 01.728 1.31c-.515.287-1.23.439-1.906.373-.682-.067-1.473-.38-1.879-1.193l-.08-.158V5.5c0-.984.482-1.94 1.078-2.664.46-.559 1.049-1.055 1.673-1.353V.75z"/></svg>