<svg xmlns="http://www.w3.org/2000/svg" width="24" height="24" viewBox="0 0 24 24">
  <defs/>
  <path d="M11.063,1.456 C11.635,1.093 12.365,1.093 12.937,1.456 L21.32,6.772 C21.826,7.093 22.133,7.651 22.133,8.25 C22.133,8.849 21.826,9.407 21.32,9.728 L12.937,15.044 C12.365,15.407 11.635,15.407 11.063,15.044 L2.68,9.728 C2.174,9.407 1.867,8.849 1.867,8.25 C1.867,7.651 2.174,7.093 2.68,6.772 Z M12.134,2.723 C12.052,2.671 11.948,2.671 11.866,2.723 L3.483,8.039 C3.411,8.085 3.367,8.164 3.367,8.25 C3.367,8.336 3.411,8.415 3.483,8.461 L11.866,13.777 C11.948,13.829 12.052,13.829 12.134,13.777 L20.517,8.461 C20.589,8.415 20.633,8.336 20.633,8.25 C20.633,8.164 20.589,8.085 20.517,8.039 Z"/>
  <path d="M1.867,12.324 C2.089,11.974 2.552,11.87 2.902,12.092 L11.866,17.777 C11.948,17.829 12.052,17.829 12.134,17.777 L21.098,12.092 C21.448,11.87 21.911,11.974 22.133,12.323 C22.356,12.673 22.252,13.137 21.902,13.359 L12.937,19.044 C12.365,19.407 11.635,19.407 11.063,19.044 L2.098,13.359 C1.748,13.137 1.645,12.674 1.867,12.324 Z"/>
  <path d="M1.867,16.324 C2.089,15.974 2.552,15.87 2.902,16.092 L11.866,21.777 C11.948,21.829 12.052,21.829 12.134,21.777 L21.098,16.092 C21.448,15.87 21.911,15.974 22.133,16.323 C22.356,16.673 22.252,17.137 21.902,17.359 L12.937,23.044 C12.365,23.407 11.635,23.407 11.063,23.044 L2.098,17.359 C1.748,17.137 1.645,16.674 1.867,16.324 Z"/>
</svg>

