<svg width="16" height="16" viewBox="0 0 16 16" xmlns="http://www.w3.org/2000/svg">
<path d="M0.350128 3.56288C0.557561 3.20496 1.01733 3.08282 1.37552 3.28944L15.3755 11.4008C15.7338 11.6084 15.8564 12.0678 15.649 12.4262C15.4413 12.7845 14.9819 12.9062 14.6236 12.6986L14.0415 12.3617L8.87845 15.3578C8.33576 15.6724 7.66532 15.6723 7.12259 15.3578L1.87357 12.3139C1.5161 12.1058 1.39367 11.6464 1.6011 11.2885C1.8088 10.9306 2.26836 10.8089 2.6265 11.016L7.87454 14.0599C7.9519 14.1046 8.04817 14.1046 8.12552 14.0599L12.5464 11.4955L11.023 10.6127L8.87845 11.8578C8.33576 12.1724 7.66531 12.1723 7.12259 11.8578L1.87357 8.81385C1.51611 8.60582 1.39369 8.1464 1.6011 7.78846C1.8088 7.43055 2.26836 7.3089 2.6265 7.516L7.87454 10.5599C7.95189 10.6046 8.04817 10.6046 8.12552 10.5599L9.52689 9.74647L0.623566 4.58827C0.266083 4.38039 0.142949 3.92088 0.350128 3.56288Z" />
<path d="M7.12259 0.391979C7.66543 0.0772846 8.33562 0.0772606 8.87845 0.391979L13.8814 3.29432C14.7113 3.7761 14.7114 4.97472 13.8814 5.45643L11.3676 6.91339C11.1351 7.04813 10.8483 7.04815 10.6158 6.91345C10.1174 6.6247 10.1173 5.90512 10.6156 5.61618L12.7554 4.37538L8.12552 1.68983C8.04802 1.64506 7.95198 1.64492 7.87454 1.68983L5.11474 3.29019C4.88223 3.42502 4.59534 3.42507 4.36277 3.29033C3.86439 3.00159 3.8642 2.28204 4.36243 1.99304L7.12259 0.391979Z" />
</svg>
