<svg xmlns="http://www.w3.org/2000/svg" width="16" height="16" viewBox="0 0 16 16"><path d="M14.719 10.22a.75.75 0 0 1 1.061 1.06L14.06 13l1.72 1.72a.749.749 0 1 1-1.061 1.06L13 14.061l-1.72 1.719a.75.75 0 0 1-1.061-1.06l1.72-1.72-1.72-1.72a.75.75 0 0 1 1.061-1.06L13 11.94zM1.601 11.289a.75.75 0 0 1 1.025-.272l5.249 3.044a.75.75 0 0 1-.753 1.296l-5.248-3.044a.75.75 0 0 1-.273-1.024m0-3.5a.75.75 0 0 1 1.025-.272l5.249 3.044a.75.75 0 0 1-.753 1.296L1.874 8.814a.75.75 0 0 1-.273-1.025M7.122.393a1.75 1.75 0 0 1 1.755 0l5.003 2.901c.83.482.83 1.68 0 2.162L8.877 8.358a1.75 1.75 0 0 1-1.755 0L2.119 5.456a1.25 1.25 0 0 1 0-2.162ZM8.125 1.69a.25.25 0 0 0-.25 0L3.244 4.375l4.631 2.686a.25.25 0 0 0 .25 0l4.63-2.686Z"/></svg>