<svg width="800" height="800" viewBox="0 0 800 800" fill="none" xmlns="http://www.w3.org/2000/svg">
<path d="M166.667 533.333V666.667M200 133.333V266.667M233.333 600H100M266.667 200H133.333M433.333 133.333L491.76 281.479C498.023 297.361 501.157 305.302 505.953 311.998C510.203 317.933 515.4 323.13 521.337 327.381C528.03 332.177 535.973 335.31 551.853 341.573L700 400L551.853 458.427C535.973 464.69 528.03 467.823 521.337 472.62C515.4 476.87 510.203 482.067 505.953 488.003C501.157 494.697 498.023 502.64 491.76 518.52L433.333 666.667L374.907 518.52C368.643 502.64 365.51 494.697 360.713 488.003C356.463 482.067 351.267 476.87 345.33 472.62C338.637 467.823 330.694 464.69 314.812 458.427L166.667 400L314.812 341.573C330.694 335.31 338.637 332.177 345.33 327.381C351.267 323.13 356.463 317.933 360.713 311.998C365.51 305.302 368.643 297.361 374.907 281.479L433.333 133.333Z" stroke="black" stroke-width="66.6667" stroke-linecap="round" stroke-linejoin="round"/>
</svg>
