<svg xmlns="http://www.w3.org/2000/svg" width="800" height="800" viewBox="0 0 800 800"><path d="m464.342 121.103 58.427 148.146q7.881 19.984 10.283 23.339 3.21 4.483 7.691 7.691 3.353 2.402 23.34 10.285l148.146 58.427q12.845 5.066 18.345 17.73 5.501 12.664.435 25.508-5.312 13.468-18.78 18.78l-148.146 58.427q-19.986 7.882-23.328 10.277-4.493 3.217-7.699 7.695-2.405 3.357-10.287 23.342l-58.427 148.146q-5.066 12.845-17.73 18.345-12.664 5.5-25.508.435-13.468-5.312-18.78-18.78l-58.426-148.147-.001-.002q-7.883-19.985-10.279-23.328-3.215-4.491-7.691-7.695-3.358-2.406-23.343-10.288l-148.147-58.427q-12.844-5.066-18.344-17.73-5.501-12.664-.435-25.509 5.312-13.467 18.779-18.779l148.145-58.427q19.989-7.882 23.332-10.278 4.489-3.214 7.698-7.695 2.403-3.355 10.286-23.342l58.426-148.145q5.066-12.845 17.73-18.345 12.664-5.501 25.508-.435 13.468 5.312 18.78 18.779Zm-31.009 103.086-27.417 69.52q-5.771 14.631-8.265 20.166-4.611 10.235-9.837 17.53-9.631 13.45-23.068 23.071-7.301 5.231-17.539 9.843-5.534 2.493-20.165 8.263L257.521 400l69.519 27.418q14.633 5.77 20.168 8.263 10.239 4.613 17.525 9.835 13.45 9.628 23.075 23.071 5.231 7.299 9.843 17.536 2.491 5.53 8.262 20.161l.003.007 27.417 69.52 27.418-69.521q5.769-14.628 8.264-20.165 4.612-10.236 9.835-17.527 9.632-13.452 23.069-23.071 7.3-5.233 17.539-9.845 5.533-2.493 20.166-8.264L609.145 400l-69.522-27.418q-14.632-5.771-20.164-8.263-10.238-4.612-17.528-9.836-13.449-9.63-23.077-23.075-5.229-7.3-9.839-17.533-2.497-5.543-8.264-20.166l-27.418-69.52Zm-200-90.856v33.334h33.334q13.807 0 23.57 9.763T300 200q0 13.807-9.763 23.57t-23.57 9.763h-33.334v33.334q0 13.807-9.763 23.57T200 300q-13.807 0-23.57-9.763t-9.763-23.57v-33.334h-33.334q-13.807 0-23.57-9.763T100 200q0-13.807 9.763-23.57t23.57-9.763h33.334v-33.334q0-13.807 9.763-23.57T200 100q13.807 0 23.57 9.763t9.763 23.57Zm-33.333 400v33.334h33.333q13.807 0 23.57 9.763t9.763 23.57q0 13.807-9.763 23.57t-23.57 9.763H200v33.334q0 13.807-9.763 23.57T166.667 700q-13.807 0-23.57-9.763t-9.763-23.57v-33.334H100q-13.807 0-23.57-9.763T66.667 600q0-13.807 9.763-23.57t23.57-9.763h33.334v-33.334q0-13.807 9.763-23.57t23.57-9.763q13.807 0 23.57 9.763t9.763 23.57Z"/></svg>