<svg width="16" height="16" viewBox="0 0 16 16" xmlns="http://www.w3.org/2000/svg">
  <path fill-rule="evenodd" clip-rule="evenodd" d="M8 0.25C8.14001 0.24991 8.27725 0.289014 8.39619 0.362887C8.51513 0.43676 8.61102 0.542452 8.673 0.668L10.555 4.483L14.765 5.095C14.9035 5.11511 15.0335 5.17355 15.1405 5.26372C15.2475 5.35388 15.3271 5.47218 15.3704 5.60523C15.4137 5.73829 15.4189 5.8808 15.3854 6.01665C15.3519 6.1525 15.2811 6.27628 15.181 6.374L12.135 9.344L12.854 13.536C12.8777 13.6739 12.8624 13.8157 12.8097 13.9454C12.757 14.0751 12.6691 14.1874 12.5559 14.2697C12.4427 14.352 12.3087 14.401 12.1691 14.4111C12.0295 14.4212 11.8899 14.3921 11.766 14.327L8 12.347L4.234 14.327C4.11018 14.392 3.97066 14.4211 3.83119 14.411C3.69171 14.4009 3.55784 14.352 3.44468 14.2699C3.33152 14.1877 3.24359 14.0755 3.19081 13.946C3.13803 13.8165 3.12251 13.6749 3.146 13.537L3.866 9.343L0.817997 6.374C0.717563 6.27632 0.646496 6.15247 0.612848 6.01647C0.579201 5.88047 0.584318 5.73777 0.627621 5.60453C0.670924 5.47129 0.75068 5.35284 0.857852 5.26261C0.965025 5.17238 1.09533 5.11397 1.234 5.094L5.444 4.483L7.327 0.668C7.38898 0.542452 7.48486 0.43676 7.6038 0.362887C7.72274 0.289014 7.85998 0.24991 8 0.25Z"/>
</svg>
