<svg width="24" height="24" viewBox="0 0 24 24" xmlns="http://www.w3.org/2000/svg">
  <path fill-rule="evenodd" clip-rule="evenodd" d="M12.6725 0.668076C12.5462 0.412074 12.2855 0.25 12 0.25C11.7145 0.25 11.4538 0.412074 11.3274 0.668076L8.26911 6.8649L1.4305 7.85861C1.14799 7.89966 0.913278 8.09754 0.82506 8.36905C0.736841 8.64056 0.810414 8.93861 1.01484 9.13788L5.9633 13.9614L4.79513 20.7724C4.74687 21.0538 4.86254 21.3381 5.0935 21.5059C5.32446 21.6738 5.63065 21.6959 5.88334 21.563L12 18.3473L18.1166 21.563C18.3693 21.6959 18.6755 21.6738 18.9065 21.5059C19.1374 21.3381 19.2531 21.0538 19.2048 20.7724L18.0366 13.9614L22.9851 9.13788C23.1895 8.93861 23.2631 8.64056 23.1749 8.36905C23.0867 8.09754 22.852 7.89966 22.5694 7.85861L15.7308 6.8649L12.6725 0.668076Z"/>
</svg>
