<svg width="24" height="24" viewBox="0 0 24 24" xmlns="http://www.w3.org/2000/svg">
  <path fill-rule="evenodd" clip-rule="evenodd" d="M11.9998 1.25C12.2853 1.25 12.5461 1.41207 12.6724 1.66808L15.4368 7.26941L21.6183 8.16762C21.9008 8.20868 22.1355 8.40656 22.2237 8.67807C22.3119 8.94958 22.2383 9.24763 22.0339 9.44689L17.561 13.8069L18.6169 19.9634C18.6652 20.2448 18.5495 20.5291 18.3185 20.6969C18.0876 20.8647 17.7814 20.8869 17.5287 20.754L11.9998 17.8473L6.471 20.754C6.21831 20.8869 5.91211 20.8647 5.68115 20.6969C5.45019 20.5291 5.33453 20.2448 5.38279 19.9634L6.4387 13.8069L1.96577 9.44689C1.76134 9.24763 1.68777 8.94958 1.77599 8.67807C1.86421 8.40656 2.09892 8.20868 2.38143 8.16762L8.56287 7.26941L11.3273 1.66808C11.4536 1.41207 11.7144 1.25 11.9998 1.25ZM11.9998 3.69466L9.73347 8.28684C9.62422 8.5082 9.41305 8.66162 9.16877 8.69712L4.101 9.43351L7.76807 13.008C7.94484 13.1803 8.0255 13.4286 7.98377 13.6719L7.11809 18.7192L11.6508 16.3362C11.8693 16.2213 12.1304 16.2213 12.3489 16.3362L16.8816 18.7192L16.0159 13.6719C15.9742 13.4286 16.0549 13.1803 16.2316 13.008L19.8987 9.43351L14.8309 8.69712C14.5866 8.66162 14.3755 8.5082 14.2662 8.28684L11.9998 3.69466Z"/>
</svg>
