<svg xmlns="http://www.w3.org/2000/svg" width="16" height="16" viewBox="0 0 16 16"><path d="M8 12a4 4 0 110-8 4 4 0 010 8zm0-1.5a2.5 2.5 0 100-5 2.5 2.5 0 000 5zm5.657-8.157a.75.75 0 010 1.061l-1.061 1.06a.749.749 0 01-1.275-.326.749.749 0 01.215-.734l1.06-1.06a.75.75 0 011.06 0zm-9.193 9.193a.75.75 0 010 1.06l-1.06 1.061a.75.75 0 11-1.061-1.06l1.06-1.061a.75.75 0 011.061 0zM8 0a.75.75 0 01.75.75v1.5a.75.75 0 01-1.5 0V.75A.75.75 0 018 0zM3 8a.75.75 0 01-.75.75H.75a.75.75 0 010-1.5h1.5A.75.75 0 013 8zm13 0a.75.75 0 01-.75.75h-1.5a.75.75 0 010-1.5h1.5A.75.75 0 0116 8zm-8 5a.75.75 0 01.75.75v1.5a.75.75 0 01-1.5 0v-1.5A.75.75 0 018 13zm3.536-1.464a.75.75 0 011.06 0l1.061 1.06a.75.75 0 01-1.06 1.061l-1.061-1.06a.75.75 0 010-1.061zM2.343 2.343a.75.75 0 011.061 0l1.06 1.061a.751.751 0 01-.018 1.042.751.751 0 01-1.042.018l-1.06-1.06a.75.75 0 010-1.06z"/></svg>