<svg xmlns="http://www.w3.org/2000/svg" width="16" height="16" viewBox="0 0 16 16">
  <defs/>
  <path d="M3.25,4 A0.25 0.25 0 0 0 3,4.25 L3,13.25 A0.75 0.75 0 0 1 2.25,14 L0.75,14 A0.75 0.75 0 0 1 0.75,12.5 L1.5,12.5 L1.5,4.25 C1.5,3.284 2.284,2.5 3.25,2.5 L12.75,2.5 C13.716,2.5 14.5,3.284 14.5,4.25 L14.5,12.5 L15.25,12.5 A0.75 0.75 0 0 1 15.25,14 L13.75,14 A0.75 0.75 0 0 1 13,13.25 L13,4.25 A0.25 0.25 0 0 0 12.75,4 L3.25,4 Z"/>
  <path d="M7.97,7.97 L5.22,10.72 A0.75 0.75 0 1 0 6.28,11.78 L9.03,9.03 L10.573,10.573 A0.25 0.25 0 0 0 11,10.396 L11,6.25 A0.25 0.25 0 0 0 10.75,6 L6.604,6 A0.25 0.25 0 0 0 6.427,6.427 L7.97,7.97 Z"/>
</svg>

