<svg width="24" height="24" viewBox="0 0 24 24" xmlns="http://www.w3.org/2000/svg">
  <path fill-rule="evenodd" clip-rule="evenodd" d="M22 5.5C22 5.08579 21.6642 4.75 21.25 4.75C20.8358 4.75 20.5 5.08579 20.5 5.5V18C20.5 18.4142 20.8358 18.75 21.25 18.75C21.6642 18.75 22 18.4142 22 18V5.5ZM13.2803 5.96967C12.9874 5.67678 12.5126 5.67678 12.2197 5.96967C11.9268 6.26256 11.9268 6.73744 12.2197 7.03033L16.1893 11H2.75C2.33579 11 2 11.3358 2 11.75C2 12.1642 2.33579 12.5 2.75 12.5H16.1893L12.2197 16.4697C11.9268 16.7626 11.9268 17.2374 12.2197 17.5303C12.5126 17.8232 12.9874 17.8232 13.2803 17.5303L18.5303 12.2803C18.8232 11.9874 18.8232 11.5126 18.5303 11.2197L13.2803 5.96967Z"/>
</svg>
