<svg xmlns="http://www.w3.org/2000/svg" width="24" height="24" viewBox="0 0 24 24">
  <defs/>
  <path d="M2,3.75 C2,2.784 2.784,2 3.75,2 L20.25,2 C21.216,2 22,2.784 22,3.75 L22,20.25 C22,21.216 21.216,22 20.25,22 L3.75,22 C2.784,22 2,21.216 2,20.25 Z M9,9 L9,20.5 L20.25,20.5 C20.388,20.5 20.5,20.388 20.5,20.25 L20.5,9 Z M20.5,7.5 L20.5,3.75 C20.5,3.612 20.388,3.5 20.25,3.5 L9,3.5 L9,7.5 Z M3.5,9 L3.5,20.25 C3.5,20.388 3.612,20.5 3.75,20.5 L7.5,20.5 L7.5,9 Z M7.5,7.5 L7.5,3.5 L3.75,3.5 C3.612,3.5 3.5,3.612 3.5,3.75 L3.5,7.5 Z"/>
</svg>

