<svg width="16" height="16" viewBox="0 0 16 16" fill="none" xmlns="http://www.w3.org/2000/svg">
<path fill-rule="evenodd" clip-rule="evenodd" d="M0 1.75C0 0.783501 0.783502 0 1.75 0H14.25C15.2165 0 16 0.783502 16 1.75V14.25C16 15.2165 15.2165 16 14.25 16H1.75C0.783501 16 0 15.2165 0 14.25V1.75ZM1.75 1.5C1.61193 1.5 1.5 1.61193 1.5 1.75V14.25C1.5 14.3881 1.61193 14.5 1.75 14.5H14.25C14.3881 14.5 14.5 14.3881 14.5 14.25V1.75C14.5 1.61193 14.3881 1.5 14.25 1.5H1.75Z" fill="black"/>
<path fill-rule="evenodd" clip-rule="evenodd" d="M6.25 0.5C6.66421 0.5 7 0.835786 7 1.25L7.00001 14.75C7.00001 15.1642 6.66422 15.5 6.25001 15.5C5.83579 15.5 5.50001 15.1642 5.50001 14.75L5.5 1.25C5.5 0.835787 5.83579 0.5 6.25 0.5Z" fill="black"/>
<path fill-rule="evenodd" clip-rule="evenodd" d="M15.625 6.25C15.625 6.66421 15.2892 7 14.875 7H1C0.585787 7 0.25 6.66421 0.25 6.25C0.25 5.83579 0.585787 5.5 1 5.5H14.875C15.2892 5.5 15.625 5.83579 15.625 6.25Z" fill="black"/>
</svg>
