<svg width="16" height="16" viewBox="0 0 16 16" fill="none" xmlns="http://www.w3.org/2000/svg">
<g clip-path="url(#clip0)">
<path fill-rule="evenodd" clip-rule="evenodd" d="M2.98023e-08 1.75C2.98023e-08 0.783501 0.783502 0 1.75 0H14.25C15.2165 0 16 0.783502 16 1.75V5.33528C16.079 5.45406 16.125 5.59666 16.125 5.75C16.125 5.90334 16.079 6.04594 16 6.16472V14.25C16 15.2165 15.2165 16 14.25 16H6.30903C6.1717 16.1534 5.97213 16.25 5.75001 16.25C5.52788 16.25 5.32831 16.1534 5.19098 16H1.75C0.783501 16 2.98023e-08 15.2165 2.98023e-08 14.25V6.16472C-0.0789809 6.04594 -0.125 5.90334 -0.125 5.75C-0.125 5.59666 -0.0789809 5.45406 2.98023e-08 5.33528V1.75ZM1.5 6.5V14.25C1.5 14.3881 1.61193 14.5 1.75 14.5H5.00001L5 6.5H1.5ZM5 5H1.5V1.75C1.5 1.61193 1.61193 1.5 1.75 1.5H5L5 5ZM6.5 6.5L6.50001 14.5H14.25C14.3881 14.5 14.5 14.3881 14.5 14.25V6.5H6.5ZM14.5 5H6.5L6.5 1.5H14.25C14.3881 1.5 14.5 1.61193 14.5 1.75V5Z" fill="black"/>
</g>
<defs>
<clipPath id="clip0">
<rect width="16" height="16" fill="white"/>
</clipPath>
</defs>
</svg>
