<svg width="16" height="16" viewBox="0 0 16 16" fill="none" xmlns="http://www.w3.org/2000/svg">
<path fill-rule="evenodd" clip-rule="evenodd" d="M0 1.75C0 0.783501 0.783502 0 1.75 0H14.25C15.2165 0 16 0.783502 16 1.75C16 5.91253 16 10.0421 16 14.25C16 15.2165 15.2165 16 14.25 16C9.99912 16 5.95224 16 1.75 16C0.783501 16 0 15.2165 0 14.25V1.75ZM1.5 6.5V14.25C1.5 14.3881 1.61193 14.5 1.75 14.5H5.00001L5 6.5H1.5ZM5 5H1.5V1.75C1.5 1.61193 1.61193 1.5 1.75 1.5H5L5 5ZM6.5 6.5L6.50001 14.5H14.25C14.3881 14.5 14.5 14.3881 14.5 14.25V6.5H6.5ZM14.5 5H6.5L6.5 1.5H14.25C14.3881 1.5 14.5 1.61193 14.5 1.75V5Z" fill="#24292F"/>
</svg>
