<svg xmlns="http://www.w3.org/2000/svg" width="16" height="16" viewBox="0 0 16 16"><path fill-rule="evenodd" d="M0 1.75C0 .784.784 0 1.75 0h12.5C15.216 0 16 .784 16 1.75v12.5A1.75 1.75 0 0114.25 16H1.75A1.75 1.75 0 010 14.25V1.75zm1.75-.25a.25.25 0 00-.25.25v12.5c0 .138.112.25.25.25h12.5a.25.25 0 00.25-.25V1.75a.25.25 0 00-.25-.25H1.75z"/><path fill-rule="evenodd" d="M6.25.5a.75.75 0 01.75.75v13.5a.75.75 0 01-1.5 0V1.25A.75.75 0 016.25.5z"/><path fill-rule="evenodd" d="M15.625 6.25a.75.75 0 01-.75.75H1a.75.75 0 010-1.5h13.875a.75.75 0 01.75.75z"/></svg>