<svg xmlns="http://www.w3.org/2000/svg" width="16" height="16" viewBox="0 0 16 16">
  <defs/>
  <path d="M1,7.775 L1,2.75 C1,1.784 1.784,1 2.75,1 L7.775,1 C8.239,1 8.685,1.184 9.013,1.513 L15.263,7.763 C15.946,8.446 15.946,9.554 15.263,10.237 L10.237,15.263 C9.554,15.946 8.446,15.946 7.763,15.263 L1.513,9.013 C1.185,8.685 1,8.239 1,7.775 Z M2.5,7.775 C2.5,7.841 2.526,7.905 2.573,7.952 L8.823,14.202 C8.87,14.249 8.934,14.275 9,14.275 C9.066,14.275 9.13,14.249 9.177,14.202 L14.202,9.177 C14.249,9.13 14.275,9.066 14.275,9 C14.275,8.934 14.249,8.87 14.202,8.823 L7.952,2.573 C7.905,2.526 7.841,2.5 7.775,2.5 L2.75,2.5 C2.612,2.5 2.5,2.612 2.5,2.75 Z M6,5 C6.552,5 7,5.448 7,6 C7,6.552 6.552,7 6,7 C5.448,7 5,6.552 5,6 C5,5.448 5.448,5 6,5 Z"/>
</svg>

