<svg xmlns="http://www.w3.org/2000/svg" width="24" height="24" viewBox="0 0 24 24">
  <defs/>
  <path d="M3,6 C3,5.448 3.448,5 4,5 L9,5 C9.552,5 10,5.448 10,6 L10,11 C10,11.552 9.552,12 9,12 L4,12 C3.448,12 3,11.552 3,11 Z M4.5,10.5 L8.5,10.5 L8.5,6.5 L4.5,6.5 Z"/>
  <path d="M12.75,5.5 A0.75 0.75 0 0 0 12.75,7 L20.25,7 A0.75 0.75 0 0 0 20.25,5.5 L12.75,5.5 Z M12.75,11.5 A0.75 0.75 0 0 0 12.75,13 L20.25,13 A0.75 0.75 0 0 0 20.25,11.5 L12.75,11.5 Z M12.75,17.5 A0.75 0.75 0 0 0 12.75,19 L20.25,19 A0.75 0.75 0 0 0 20.25,17.5 L12.75,17.5 Z M9.78,14.97 A0.75 0.75 0 0 1 9.78,16.03 L6.28,19.53 A0.75 0.75 0 0 1 5.22,19.53 L3.22,17.53 A0.75 0.75 0 1 1 4.28,16.47 L5.75,17.94 L8.72,14.97 A0.75 0.75 0 0 1 9.78,14.97 Z"/>
</svg>

