<svg xmlns="http://www.w3.org/2000/svg" width="24" height="25" viewBox="0 0 24 25"><path d="M17.215 22.9a.75.75 0 00.227-1.036l-4-6.24a.75.75 0 00-.942-.277l-2.75 1.25a.75.75 0 00-.318.273l-3.25 4.989a.75.75 0 001.257.819l3.13-4.806.511-.232v5.64a.75.75 0 001.5 0v-6.22l3.6 5.613a.75.75 0 001.035.227z"/><path fill-rule="evenodd" d="M.468 15.16a2 2 0 01.59-2.643l16.04-11.159a2 2 0 012.851.602l2.827 4.645a2 2 0 01-.85 2.846l-17.763 8.43a2 2 0 01-2.59-.807L.469 15.16zm5.264-4.067l1.986 3.44-1.36.646-1.862-3.226 1.236-.86zm7.842-5.455l2.856 4.761 1.362-.646-2.984-4.974-1.234.859z"/></svg>