<svg xmlns="http://www.w3.org/2000/svg" width="24" height="24" viewBox="0 0 24 24"><path d="M.408 15.13a2 2 0 01.59-2.642L17.038 1.33a1.999 1.999 0 012.85.602l2.828 4.644a2 2 0 01-.851 2.847l-17.762 8.43a2 2 0 01-2.59-.807zm5.263-4.066l1.987 3.44 8.712-4.135-2.857-4.76zm12.06-1.34l.001-.001 3.49-1.656a.498.498 0 00.212-.712l-2.826-4.644a.503.503 0 00-.713-.151l-3.148 2.19zm-13.295 2.2L1.854 13.72a.5.5 0 00-.147.66l1.105 1.915a.5.5 0 00.648.201l2.838-1.347zM17.155 22.87a.75.75 0 00.226-1.036l-4-6.239a.75.75 0 00-.941-.278l-2.75 1.25a.75.75 0 00-.318.274l-3.25 4.989a.75.75 0 001.256.819l3.131-4.806.51-.232v5.64a.75.75 0 101.5 0v-6.22l3.6 5.613a.75.75 0 001.036.226z"/></svg>