<svg xmlns="http://www.w3.org/2000/svg" width="16" height="16" viewBox="0 0 16 16">
  <defs/>
  <path d="M11.905,0.42 C12.25,0.185 12.677,0.104 13.084,0.197 C13.491,0.29 13.84,0.549 14.049,0.91 L15.741,3.84 C15.95,4.202 15.998,4.634 15.875,5.033 C15.752,5.432 15.468,5.761 15.092,5.942 L2.895,11.815 C2.188,12.156 1.337,11.893 0.945,11.213 L0.265,10.037 C-0.128,9.357 0.071,8.489 0.72,8.047 L11.905,0.422 Z M8.531,10.21 C8.865,10.05 9.266,10.157 9.475,10.463 L12.119,14.327 C12.353,14.669 12.265,15.136 11.924,15.37 C11.582,15.603 11.115,15.516 10.881,15.174 L9,12.424 L9,15.25 C9,15.664 8.664,16 8.25,16 C7.836,16 7.5,15.664 7.5,15.25 L7.5,12.424 L5.619,15.174 C5.385,15.516 4.918,15.603 4.576,15.369 C4.234,15.135 4.147,14.668 4.381,14.326 L6.429,11.334 C6.503,11.226 6.604,11.139 6.722,11.082 L8.532,10.211 Z M11.007,6.245 L11.007,6.244 L12.363,5.591 L10.843,2.96 L9.6,3.808 Z M3.279,8.119 L4.114,9.564 L5.469,8.911 L4.522,7.271 Z"/>
</svg>

