<svg xmlns="http://www.w3.org/2000/svg" width="24" height="24" viewBox="0 0 24 24">
  <defs/>
  <path d="M0.408,15.13 C-0.112,14.23 0.145,13.082 0.998,12.488 L17.038,1.33 C17.491,1.015 18.053,0.901 18.593,1.015 C19.133,1.129 19.601,1.461 19.888,1.932 L22.716,6.576 C23.011,7.06 23.086,7.646 22.924,8.189 C22.762,8.732 22.377,9.18 21.865,9.423 L4.103,17.853 C3.161,18.3 2.034,17.949 1.513,17.046 Z M5.671,11.064 L7.658,14.504 L16.37,10.369 L13.513,5.609 Z M17.731,9.724 L17.732,9.723 L21.222,8.067 C21.35,8.006 21.446,7.894 21.486,7.758 C21.527,7.622 21.508,7.476 21.434,7.355 L18.608,2.711 C18.536,2.593 18.419,2.51 18.284,2.481 C18.149,2.453 18.008,2.481 17.895,2.56 L14.747,4.75 Z M4.436,11.924 L1.854,13.72 C1.641,13.868 1.577,14.155 1.707,14.38 L2.812,16.295 C2.943,16.521 3.225,16.608 3.46,16.496 L6.298,15.149 Z"/>
  <path d="M17.155,22.87 A0.75 0.75 0 0 0 17.381,21.834 L13.381,15.595 A0.75 0.75 0 0 0 12.44,15.317 L9.69,16.567 A0.75 0.75 0 0 0 9.372,16.841 L6.122,21.83 A0.75 0.75 0 0 0 7.378,22.649 L10.509,17.843 L11.019,17.611 L11.019,23.251 A0.75 0.75 0 1 0 12.519,23.251 L12.519,17.031 L16.119,22.644 A0.75 0.75 0 0 0 17.155,22.87 Z"/>
</svg>

