<svg xmlns="http://www.w3.org/2000/svg" width="16" height="16" viewBox="0 0 16 16">
  <defs/>
  <path d="M1,2.75 C1,2.336 1.336,2 1.75,2 L14.25,2 C14.664,2 15,2.336 15,2.75 C15,3.164 14.664,3.5 14.25,3.5 L1.75,3.5 C1.336,3.5 1,3.164 1,2.75 Z M1,7.75 C1,7.336 1.336,7 1.75,7 L14.25,7 C14.664,7 15,7.336 15,7.75 C15,8.164 14.664,8.5 14.25,8.5 L1.75,8.5 C1.336,8.5 1,8.164 1,7.75 Z M1.75,12 L14.25,12 C14.664,12 15,12.336 15,12.75 C15,13.164 14.664,13.5 14.25,13.5 L1.75,13.5 C1.336,13.5 1,13.164 1,12.75 C1,12.336 1.336,12 1.75,12 Z"/>
</svg>

