<svg xmlns="http://www.w3.org/2000/svg" width="24" height="24" viewBox="0 0 24 24">
  <defs/>
  <path d="M12.596,21.957 C11.295,22.049 10.293,20.971 10.293,19.751 L10.293,18.698 C10.293,16.032 8.48,14.913 7.519,14.498 C7.352,14.43 7.176,14.386 6.996,14.368 C6.934,15.287 6.171,16 5.25,16 L3.75,16 C2.784,16 2,15.216 2,14.25 L2,3.75 C2,2.784 2.784,2 3.75,2 L5.25,2 C6.151,2 6.904,2.683 6.992,3.58 C7.83,3.52 8.659,3.284 9.682,2.994 L10.284,2.824 C11.748,2.419 13.497,2 15.828,2 C18.016,2 19.521,2.204 20.411,3.372 C20.833,3.926 21.061,4.627 21.227,5.422 C21.375,6.13 21.489,6.992 21.623,8.002 L21.674,8.392 C21.993,10.778 22.002,12.572 21.451,13.786 C21.158,14.43 20.708,14.911 20.096,15.217 C19.506,15.513 18.812,15.621 18.06,15.621 L16.01,15.621 L16.066,16.05 C16.091,16.23 16.116,16.422 16.142,16.622 C16.202,17.105 16.259,17.628 16.259,18.06 C16.259,19.305 16.037,20.313 15.339,21.002 C14.655,21.676 13.671,21.881 12.596,21.957 Z M7,5.082 L7,12.861 C7.383,12.886 7.759,12.974 8.113,13.121 C9.305,13.635 11.793,15.148 11.793,18.698 L11.793,19.751 C11.793,20.187 12.14,20.485 12.491,20.461 C13.512,20.389 14.011,20.203 14.286,19.933 C14.546,19.677 14.759,19.185 14.759,18.06 C14.759,17.732 14.714,17.292 14.654,16.81 L14.584,16.283 C14.544,15.986 14.505,15.693 14.479,15.449 C14.397,14.691 15.009,14.121 15.69,14.121 L18.06,14.121 C18.685,14.121 19.12,14.029 19.425,13.876 C19.71,13.734 19.925,13.517 20.085,13.165 C20.44,12.385 20.507,10.989 20.187,8.591 L20.137,8.206 C20,7.179 19.894,6.379 19.758,5.729 C19.606,4.999 19.434,4.564 19.218,4.281 C18.832,3.774 18.105,3.5 15.828,3.5 C13.692,3.5 12.092,3.879 10.686,4.271 C10.495,4.323 10.306,4.377 10.118,4.431 C9.079,4.727 8.059,5.018 7,5.082 Z M3.75,3.5 C3.612,3.5 3.5,3.612 3.5,3.75 L3.5,14.25 C3.5,14.388 3.612,14.5 3.75,14.5 L5.25,14.5 C5.388,14.5 5.5,14.388 5.5,14.25 L5.5,3.75 C5.5,3.612 5.388,3.5 5.25,3.5 Z"/>
</svg>

