<svg xmlns="http://www.w3.org/2000/svg" width="24" height="24" viewBox="0 0 24 24">
  <defs/>
  <path d="M7.875,2.292 C7.864,2.296 7.853,2.302 7.843,2.31 C5.903,3.666 4.748,5.883 4.75,8.25 C4.749,10.853 6.144,13.257 8.404,14.547 C8.974,14.874 9.386,15.502 9.345,16.229 L9.345,16.231 L9.028,22.289 C9.006,22.703 8.654,23.021 8.24,22.999 C7.826,22.977 7.508,22.625 7.53,22.211 L7.847,16.149 L7.847,16.145 C7.853,16.055 7.8,15.93 7.659,15.849 C4.932,14.291 3.249,11.391 3.25,8.25 C3.248,5.394 4.641,2.717 6.982,1.081 C7.487,0.718 8.16,0.693 8.691,1.017 C9.175,1.309 9.5,1.852 9.5,2.477 L9.5,7.191 C9.5,7.278 9.545,7.358 9.619,7.404 L11.869,8.789 C11.949,8.839 12.051,8.839 12.131,8.789 L14.381,7.404 C14.455,7.358 14.5,7.278 14.5,7.191 L14.5,2.478 C14.5,1.852 14.825,1.309 15.31,1.017 C15.841,0.693 16.513,0.719 17.018,1.081 C19.359,2.718 20.752,5.395 20.75,8.251 C20.751,11.392 19.067,14.292 16.34,15.849 C16.2,15.93 16.147,16.055 16.152,16.145 L16.152,16.149 L16.47,22.211 C16.492,22.625 16.174,22.977 15.76,22.999 C15.346,23.021 14.994,22.703 14.972,22.289 L14.655,16.231 L14.655,16.229 C14.614,15.502 15.025,14.874 15.595,14.547 C17.856,13.257 19.251,10.853 19.25,8.25 C19.252,5.883 18.097,3.666 16.157,2.31 C16.147,2.302 16.136,2.296 16.125,2.292 L16.115,2.291 C16.112,2.291 16.101,2.291 16.084,2.301 C16.048,2.323 16,2.38 16,2.478 L16,7.19 C16,7.798 15.685,8.362 15.167,8.68 L12.917,10.065 C12.355,10.411 11.645,10.411 11.083,10.065 L8.833,8.681 C8.316,8.363 8.001,7.799 8,7.192 L8,2.477 C8,2.379 7.952,2.322 7.916,2.301 C7.907,2.295 7.896,2.291 7.885,2.29 L7.875,2.291 Z"/>
</svg>

