<svg xmlns="http://www.w3.org/2000/svg" width="16" height="16" viewBox="0 0 16 16"><path d="M14.5 8q0-2.692-1.904-4.596T8 1.5q-2.692 0-4.596 1.904T1.5 8q0 2.692 1.904 4.596T8 14.5q.311 0 .53.22.22.219.22.53 0 .311-.22.53Q8.311 16 8 16q-3.314 0-5.657-2.343T0 8q0-3.314 2.343-5.657T8 0q3.314 0 5.657 2.343T16 8q0 .311-.22.53-.219.22-.53.22-.311 0-.53-.22-.22-.219-.22-.53Z"/><path d="m11.573 15.323-2.896-2.896a.25.25 0 0 1 0-.354l2.896-2.896a.25.25 0 0 1 .427.177v5.792a.25.25 0 0 1-.427.177Z"/><path d="M15.25 13h-4.5q-.311 0-.53-.22-.22-.219-.22-.53 0-.311.22-.53.219-.22.53-.22h4.5q.311 0 .53.22.22.219.22.53 0 .311-.22.53-.219.22-.53.22ZM5.78 7.22l1.47 1.469 2.97-2.969q.219-.22.53-.22.311 0 .53.22.22.219.22.53 0 .311-.22.53l-3.5 3.5q-.219.22-.53.22-.311 0-.53-.22l-2-2q-.22-.219-.22-.53 0-.311.22-.53.219-.22.53-.22.311 0 .53.22Z"/></svg>