<svg xmlns="http://www.w3.org/2000/svg" width="24" height="24" viewBox="0 0 24 24"><path d="m17.487 20.794-3.728-3.314a.307.307 0 0 1 0-.46l3.728-3.314a.308.308 0 0 1 .513.23v6.628a.308.308 0 0 1-.513.23Z"/><path d="M22.25 18H16q-.311 0-.53-.22-.22-.219-.22-.53 0-.311.22-.53.219-.22.53-.22h6.25q.311 0 .53.22.22.219.22.53 0 .311-.22.53-.219.22-.53.22Z"/><path d="M21.5 12q0-3.935-2.782-6.718Q15.935 2.5 12 2.5T5.282 5.282Q2.5 8.065 2.5 12t2.782 6.718Q8.065 21.5 12 21.5q.311 0 .53.22.22.219.22.53 0 .311-.22.53-.219.22-.53.22-4.556 0-7.778-3.222Q1 16.556 1 12q0-4.556 3.222-7.778Q7.444 1 12 1q4.556 0 7.778 3.222Q23 7.444 23 12q0 .311-.22.53-.219.22-.53.22-.311 0-.53-.22-.22-.219-.22-.53Z"/><path d="m17.28 9.28-6.5 6.5q-.219.22-.53.22-.311 0-.53-.22l-3-3q-.22-.219-.22-.53 0-.311.22-.53.219-.22.53-.22.311 0 .53.22l2.47 2.469 5.97-5.969q.219-.22.53-.22.311 0 .53.22.22.219.22.53 0 .311-.22.53Z"/></svg>