<svg xmlns="http://www.w3.org/2000/svg" width="24" height="24" viewBox="0 0 24 24">
  <defs/>
  <path d="M16,1.75 L16,3 L21.25,3 C21.664,3 22,3.336 22,3.75 C22,4.164 21.664,4.5 21.25,4.5 L2.75,4.5 C2.336,4.5 2,4.164 2,3.75 C2,3.336 2.336,3 2.75,3 L8,3 L8,1.75 C8,0.784 8.784,0 9.75,0 L14.25,0 C15.216,0 16,0.784 16,1.75 Z M9.5,1.75 L9.5,3 L14.5,3 L14.5,1.75 C14.5,1.612 14.388,1.5 14.25,1.5 L9.75,1.5 C9.612,1.5 9.5,1.612 9.5,1.75 Z"/>
  <path d="M4.997,6.178 A0.75 0.75 0 1 0 3.504,6.322 L4.916,20.92 A1.75 1.75 0 0 0 6.658,22.5 L17.342,22.5 A1.75 1.75 0 0 0 19.084,20.919 L20.497,6.322 A0.75 0.75 0 0 0 19.003,6.178 L17.591,20.774 A0.25 0.25 0 0 1 17.342,21 L6.658,21 A0.25 0.25 0 0 1 6.409,20.774 L4.997,6.178 Z"/>
  <path d="M9.206,7.501 A0.75 0.75 0 0 1 9.999,8.206 L10.499,16.706 A0.75 0.75 0 1 1 9,16.794 L8.5,8.294 A0.75 0.75 0 0 1 9.205,7.501 Z M15.499,8.294 A0.75 0.75 0 1 0 14,8.206 L13.5,16.706 A0.75 0.75 0 0 0 14.998,16.794 L15.498,8.294 Z"/>
</svg>

