<svg width="16" height="16" viewBox="0 0 16 16" fill="none" xmlns="http://www.w3.org/2000/svg">
<path d="M1.71967 7.28033C1.42678 6.98744 1.42678 6.51256 1.71967 6.21967L5.21967 2.71967C5.51256 2.42678 5.98744 2.42678 6.28033 2.71967C6.57322 3.01256 6.57322 3.48744 6.28033 3.78033L4.06066 6H11.2491C11.249 6 11.2491 6 11.2491 6C13.3201 6 15 7.67893 15 9.75C15 11.8211 13.3211 13.5 11.25 13.5H8.75C8.33579 13.5 8 13.1642 8 12.75C8 12.3358 8.33579 12 8.75 12H11.25C12.4926 12 13.5 10.9926 13.5 9.75C13.5 8.50736 12.4926 7.5 11.25 7.5C11.25 7.5 11.25 7.5 11.25 7.5H4.06066L6.28033 9.71967C6.57322 10.0126 6.57322 10.4874 6.28033 10.7803C5.98744 11.0732 5.51256 11.0732 5.21967 10.7803L1.71967 7.28033Z" fill="black"/>
</svg>
