<svg width="16" height="16" viewBox="0 0 16 16" fill="none" xmlns="http://www.w3.org/2000/svg">
<path d="M1.21967 6.28033C0.926777 5.98744 0.926777 5.51256 1.21967 5.21967L4.71967 1.71967C5.01256 1.42678 5.48744 1.42678 5.78033 1.71967C6.07322 2.01256 6.07322 2.48744 5.78033 2.78033L3.56066 5H10.7491L10.7499 5.00682C10.75 5.00682 10.7499 5.00682 10.7499 5.00682L10.7491 5C10.8075 5 10.8653 5.00669 10.9199 5.01934C13.2083 5.23111 15 7.15632 15 9.5C15 11.9853 12.9853 14 10.5 14H8.79574C8.38152 14 8.04574 13.6642 8.04574 13.25C8.04574 12.8358 8.38152 12.5 8.79574 12.5H10.5C12.1569 12.5 13.5 11.1569 13.5 9.5C13.5 7.84315 12.1569 6.5 10.5 6.5H3.56066L5.78033 8.71967C6.07322 9.01256 6.07322 9.48744 5.78033 9.78033C5.48744 10.0732 5.01256 10.0732 4.71967 9.78033L1.21967 6.28033Z" fill="black"/>
</svg>
