<svg xmlns="http://www.w3.org/2000/svg" width="24" height="24" viewBox="0 0 24 24"><path d="M12 23a.749.749 0 01-.53-.22l-3.25-3.25a.749.749 0 01.326-1.275.749.749 0 01.734.215L12 21.19l2.72-2.72a.749.749 0 011.275.326.749.749 0 01-.215.734l-3.25 3.25A.749.749 0 0112 23z"/><path d="M11.47 1.22a.75.75 0 011.06 0l3.25 3.25a.751.751 0 01-.018 1.042.751.751 0 01-1.042.018L12 2.81 9.28 5.53a.751.751 0 01-1.042-.018.751.751 0 01-.018-1.042zM12 22.25a.75.75 0 01-.75-.75v-5.75a.75.75 0 011.5 0v5.75a.75.75 0 01-.75.75zM2.75 12a.75.75 0 01.75-.75h1a.75.75 0 010 1.5h-1a.75.75 0 01-.75-.75zm4 0a.75.75 0 01.75-.75h1a.75.75 0 010 1.5h-1a.75.75 0 01-.75-.75zm4 0a.75.75 0 01.75-.75h1a.75.75 0 010 1.5h-1a.75.75 0 01-.75-.75zm4 0a.75.75 0 01.75-.75h1a.75.75 0 010 1.5h-1a.75.75 0 01-.75-.75zm4 0a.75.75 0 01.75-.75h1a.75.75 0 010 1.5h-1a.75.75 0 01-.75-.75z"/><path d="M12 1.5a.75.75 0 01.75.75v6a.75.75 0 01-1.5 0v-6A.75.75 0 0112 1.5z"/></svg>