<svg width="16" height="16" viewBox="0 0 16 16" xmlns="http://www.w3.org/2000/svg">
  <path fill-rule="evenodd" clip-rule="evenodd" d="M8.17678 0.676739L11.0732 3.57319C11.2307 3.73068 11.1192 3.99996 10.8964 3.99996H8.75V5.24994C8.75 5.66415 8.41421 5.99994 8 5.99994C7.58579 5.99994 7.25 5.66415 7.25 5.24994V3.99996H5.10356C4.88083 3.99996 4.76929 3.73068 4.92678 3.57319L7.82323 0.676739C7.92086 0.579108 8.07915 0.579108 8.17678 0.676739ZM7.25 10.7499C7.25 10.3357 7.58579 9.99994 8 9.99994C8.41421 9.99994 8.75 10.3357 8.75 10.7499V11.9999H10.8964C11.1192 11.9999 11.2307 12.2692 11.0732 12.4267L8.17678 15.3231C8.07915 15.4208 7.92086 15.4208 7.82323 15.3231L4.92678 12.4267C4.76929 12.2692 4.88083 11.9999 5.10355 11.9999H7.25V10.7499ZM2.25 8.74994C2.66421 8.74994 3 8.41415 3 7.99994C3 7.58573 2.66421 7.24994 2.25 7.24994H1.75C1.33579 7.24994 1 7.58573 1 7.99994C1 8.41415 1.33579 8.74994 1.75 8.74994H2.25ZM6 7.99994C6 8.41415 5.66421 8.74994 5.25 8.74994H4.75C4.33579 8.74994 4 8.41415 4 7.99994C4 7.58573 4.33579 7.24994 4.75 7.24994H5.25C5.66421 7.24994 6 7.58573 6 7.99994ZM8.25 8.74994C8.66421 8.74994 9 8.41415 9 7.99994C9 7.58573 8.66421 7.24994 8.25 7.24994H7.75C7.33579 7.24994 7 7.58573 7 7.99994C7 8.41415 7.33579 8.74994 7.75 8.74994H8.25ZM12 7.99994C12 8.41415 11.6642 8.74994 11.25 8.74994H10.75C10.3358 8.74994 10 8.41415 10 7.99994C10 7.58573 10.3358 7.24994 10.75 7.24994H11.25C11.6642 7.24994 12 7.58573 12 7.99994ZM14.25 8.74994C14.6642 8.74994 15 8.41415 15 7.99994C15 7.58573 14.6642 7.24994 14.25 7.24994H13.75C13.3358 7.24994 13 7.58573 13 7.99994C13 8.41415 13.3358 8.74994 13.75 8.74994H14.25Z"/>
</svg>
