<svg width="24" height="24" viewBox="0 0 24 24" xmlns="http://www.w3.org/2000/svg">
  <path fill-rule="evenodd" clip-rule="evenodd" d="M8.5 7C8.49835 6.12439 8.82497 5.27996 9.41539 4.63336C10.0058 3.98675 10.8172 3.58494 11.6893 3.50722C12.5615 3.4295 13.4311 3.68151 14.1265 4.21352C14.822 4.74553 15.2928 5.51889 15.446 6.381C15.4867 6.57104 15.5995 6.73788 15.7608 6.84635C15.922 6.95482 16.1191 6.99646 16.3105 6.9625C16.5018 6.92853 16.6725 6.82161 16.7866 6.66426C16.9007 6.50691 16.9492 6.31143 16.922 6.119C16.6997 4.89089 16.0262 3.79029 15.0338 3.03342C14.0414 2.27654 12.8019 1.91809 11.5587 2.02847C10.3155 2.13886 9.15852 2.7101 8.31502 3.62999C7.47152 4.54988 7.00247 5.75193 7 7V10H5.5C5.10218 10 4.72064 10.158 4.43934 10.4393C4.15804 10.7206 4 11.1022 4 11.5V19.5C4 19.8978 4.15804 20.2794 4.43934 20.5607C4.72064 20.842 5.10218 21 5.5 21H18.5C18.8978 21 19.2794 20.842 19.5607 20.5607C19.842 20.2794 20 19.8978 20 19.5V11.5C20 11.1022 19.842 10.7206 19.5607 10.4393C19.2794 10.158 18.8978 10 18.5 10H8.5V7ZM5.5 19.5V11.5H18.5V19.5H5.5Z"/>
</svg>
