<svg xmlns="http://www.w3.org/2000/svg" width="16" height="16" viewBox="0 0 16 16">
  <defs/>
  <path d="M7.563,2.069 C7.829,2.191 8,2.457 8,2.75 L8,13.25 C8,13.543 7.83,13.809 7.564,13.932 C7.298,14.054 6.984,14.011 6.762,13.82 L3.472,11 L1.75,11 C0.784,11 0,10.216 0,9.25 L0,6.75 C0,5.784 0.784,5 1.75,5 L3.473,5 L6.762,2.18 C6.984,1.99 7.297,1.947 7.563,2.069 Z M6.5,4.38 L4.238,6.319 C4.102,6.436 3.929,6.5 3.75,6.5 L1.75,6.5 C1.612,6.5 1.5,6.612 1.5,6.75 L1.5,9.25 C1.5,9.388 1.612,9.5 1.75,9.5 L3.75,9.5 C3.929,9.5 4.102,9.564 4.238,9.68 L6.5,11.62 Z M12.596,2.342 C12.889,2.05 13.363,2.05 13.656,2.342 C16.78,5.466 16.78,10.532 13.656,13.656 C13.36,13.931 12.9,13.923 12.614,13.638 C12.329,13.352 12.321,12.892 12.596,12.596 C15.135,10.058 15.135,5.941 12.596,3.403 C12.304,3.11 12.304,2.636 12.596,2.343 Z M11.536,4.463 L11.535,4.464 C13.487,6.416 13.487,9.582 11.535,11.534 C11.348,11.735 11.066,11.817 10.801,11.749 C10.535,11.682 10.327,11.474 10.26,11.208 C10.192,10.943 10.274,10.661 10.475,10.474 C11.842,9.107 11.842,6.891 10.475,5.524 C10.182,5.231 10.182,4.756 10.475,4.463 C10.768,4.17 11.243,4.17 11.536,4.463 Z"/>
</svg>

