<svg width="24" height="24" viewBox="0 0 24 24" xmlns="http://www.w3.org/2000/svg">
  <path fill-rule="evenodd" clip-rule="evenodd" d="M11.553 3.064C11.686 3.12273 11.799 3.21883 11.8784 3.34062C11.9577 3.46241 12 3.60464 12 3.75V20.25C12.0001 20.3954 11.9579 20.5377 11.8786 20.6596C11.7993 20.7814 11.6863 20.8776 11.5533 20.9364C11.4204 20.9952 11.2732 21.0141 11.1296 20.9908C10.9861 20.9674 10.8525 20.9029 10.745 20.805L5.46 16H2.75C2.28587 16 1.84075 15.8156 1.51256 15.4874C1.18437 15.1592 1 14.7141 1 14.25V9.75C1 8.784 1.784 8 2.75 8H5.46L10.745 3.195C10.8526 3.0974 10.9863 3.03316 11.1297 3.01008C11.2731 2.987 11.4202 3.00608 11.553 3.065V3.064ZM10.5 5.445L6.255 9.305C6.11681 9.4306 5.93674 9.50014 5.75 9.5H2.75C2.6837 9.5 2.62011 9.52634 2.57322 9.57322C2.52634 9.62011 2.5 9.6837 2.5 9.75V14.25C2.5 14.388 2.612 14.5 2.75 14.5H5.75C5.93674 14.4999 6.11681 14.5694 6.255 14.695L10.5 18.555V5.445ZM18.718 4.222C18.8586 4.08155 19.0492 4.00266 19.248 4.00266C19.4468 4.00266 19.6374 4.08155 19.778 4.222C24.074 8.518 24.074 15.482 19.778 19.778C19.6358 19.9105 19.4478 19.9826 19.2535 19.9792C19.0592 19.9757 18.8738 19.897 18.7364 19.7596C18.599 19.6222 18.5203 19.4368 18.5168 19.2425C18.5134 19.0482 18.5855 18.8602 18.718 18.718C19.6003 17.8358 20.3002 16.7885 20.7777 15.6358C21.2552 14.4831 21.501 13.2477 21.501 12C21.501 10.7523 21.2552 9.51687 20.7777 8.36419C20.3002 7.21151 19.6003 6.16418 18.718 5.282C18.5776 5.14138 18.4987 4.95075 18.4987 4.752C18.4987 4.55325 18.5776 4.36263 18.718 4.222ZM16.243 7.757C16.1733 7.68733 16.0906 7.63207 15.9996 7.59437C15.9086 7.55667 15.811 7.53726 15.7125 7.53726C15.614 7.53726 15.5164 7.55667 15.4254 7.59437C15.3344 7.63207 15.2517 7.68733 15.182 7.757C15.1123 7.82667 15.0571 7.90937 15.0194 8.0004C14.9817 8.09142 14.9623 8.18898 14.9623 8.2875C14.9623 8.38602 14.9817 8.48358 15.0194 8.57461C15.0571 8.66563 15.1123 8.74833 15.182 8.818C15.5999 9.23587 15.9313 9.73194 16.1575 10.2779C16.3836 10.8239 16.5 11.409 16.5 12C16.5 12.591 16.3836 13.1761 16.1575 13.7221C15.9313 14.2681 15.5999 14.7641 15.182 15.182C15.1083 15.2507 15.0492 15.3335 15.0082 15.4255C14.9672 15.5175 14.9452 15.6168 14.9434 15.7175C14.9416 15.8182 14.9602 15.9182 14.9979 16.0116C15.0356 16.105 15.0917 16.1898 15.163 16.261C15.2342 16.3323 15.319 16.3884 15.4124 16.4261C15.5058 16.4638 15.6058 16.4824 15.7065 16.4806C15.8072 16.4788 15.9065 16.4568 15.9985 16.4158C16.0905 16.3748 16.1733 16.3157 16.242 16.242C17.3671 15.1168 17.9992 13.5907 17.9992 11.9995C17.9992 10.4083 17.3671 8.88221 16.242 7.757H16.243Z"/>
</svg>
