<svg xmlns="http://www.w3.org/2000/svg" width="24" height="24" viewBox="0 0 24 24">
  <defs/>
  <path d="M11.553,3.064 C11.825,3.184 12,3.453 12,3.75 L12,20.25 C12,20.547 11.825,20.816 11.553,20.936 C11.282,21.057 10.965,21.005 10.745,20.805 L5.46,16 L2.75,16 C1.784,16 1,15.216 1,14.25 L1,9.75 C1,8.784 1.784,8 2.75,8 L5.46,8 L10.745,3.195 C10.965,2.996 11.282,2.945 11.553,3.065 Z M10.5,5.445 L6.255,9.305 C6.117,9.431 5.937,9.5 5.75,9.5 L2.75,9.5 C2.612,9.5 2.5,9.612 2.5,9.75 L2.5,14.25 C2.5,14.388 2.612,14.5 2.75,14.5 L5.75,14.5 C5.937,14.5 6.117,14.569 6.255,14.695 L10.5,18.555 Z"/>
  <path d="M18.718,4.222 A0.75 0.75 0 0 1 19.778,4.222 C24.074,8.518 24.074,15.482 19.778,19.778 A0.75 0.75 0 0 1 18.718,18.718 A9.5 9.5 0 0 0 18.718,5.282 A0.75 0.75 0 0 1 18.718,4.222 Z"/>
  <path d="M16.243,7.757 A0.75 0.75 0 1 0 15.182,8.818 A4.5 4.5 0 0 1 15.182,15.182 A0.75 0.75 0 0 0 16.242,16.242 A6 6 0 0 0 16.242,7.757 Z"/>
</svg>

