<svg xmlns="http://www.w3.org/2000/svg" width="16" height="16" viewBox="0 0 16 16"><path d="M1 2.75c0-.199.079-.39.22-.53A.747.747 0 0 1 1.75 2h12.5c.199 0 .39.079.53.22a.747.747 0 0 1 0 1.06.747.747 0 0 1-.53.22H1.75a.747.747 0 0 1-.53-.22.747.747 0 0 1-.22-.53Zm0 5c0-.199.079-.39.22-.53A.747.747 0 0 1 1.75 7h12.5c.199 0 .39.079.53.22a.747.747 0 0 1 0 1.06.747.747 0 0 1-.53.22H1.75a.747.747 0 0 1-.53-.22.747.747 0 0 1-.22-.53ZM1.75 12h3.5c.199 0 .39.079.53.22a.747.747 0 0 1 0 1.06.747.747 0 0 1-.53.22h-3.5a.747.747 0 0 1-.53-.22.747.747 0 0 1 0-1.06.747.747 0 0 1 .53-.22Z"/></svg>