<svg width="16" height="16" viewBox="0 0 16 16" xmlns="http://www.w3.org/2000/svg">
  <path fill-rule="evenodd" clip-rule="evenodd" d="M8.53033 1.21967C8.23744 0.926777 7.76256 0.926777 7.46967 1.21967L3.71967 4.96967C3.42678 5.26256 3.42678 5.73744 3.71967 6.03033C4.01256 6.32322 4.48744 6.32322 4.78033 6.03033L7.25 3.56066V10.25C7.25 10.6642 7.58579 11 8 11C8.41421 11 8.75 10.6642 8.75 10.25V3.56066L11.2197 6.03033C11.5126 6.32322 11.9874 6.32322 12.2803 6.03033C12.5732 5.73744 12.5732 5.26256 12.2803 4.96967L8.53033 1.21967ZM3.75 13C3.33579 13 3 13.3358 3 13.75C3 14.1642 3.33579 14.5 3.75 14.5H12.25C12.6642 14.5 13 14.1642 13 13.75C13 13.3358 12.6642 13 12.25 13H3.75Z"/>
</svg>
