<svg width="24" height="24" viewBox="0 0 24 24" fill="none" xmlns="http://www.w3.org/2000/svg">
<path fill-rule="evenodd" clip-rule="evenodd" d="M4.75 22C4.33579 22 4 21.6642 4 21.25C4 20.8358 4.33579 20.5 4.75 20.5H19.25C19.6642 20.5 20 20.8358 20 21.25C20 21.6642 19.6642 22 19.25 22H4.75ZM4.96967 8.46967C4.67678 8.76256 4.67678 9.23744 4.96967 9.53033C5.26256 9.82322 5.73744 9.82322 6.03033 9.53033L11 4.56066V16.75C11 17.1642 11.3358 17.5 11.75 17.5C12.1642 17.5 12.5 17.1642 12.5 16.75V4.56066L17.4697 9.53033C17.7626 9.82322 18.2374 9.82322 18.5303 9.53033C18.8232 9.23744 18.8232 8.76256 18.5303 8.46967L12.2803 2.21967C11.9874 1.92678 11.5126 1.92678 11.2197 2.21967L4.96967 8.46967Z" fill="black"/>
</svg>
