<svg xmlns="http://www.w3.org/2000/svg" width="24" height="24" viewBox="0 0 24 24">
  <defs/>
  <path d="M4.97,8.47 L11.22,2.22 C11.513,1.928 11.987,1.928 12.28,2.22 L18.53,8.47 C18.731,8.657 18.813,8.939 18.745,9.204 C18.678,9.47 18.47,9.678 18.204,9.745 C17.939,9.813 17.657,9.731 17.47,9.53 L12.5,4.56 L12.5,16.75 C12.5,17.164 12.164,17.5 11.75,17.5 C11.336,17.5 11,17.164 11,16.75 L11,4.56 L6.03,9.53 C5.734,9.805 5.274,9.797 4.988,9.512 C4.703,9.226 4.695,8.766 4.97,8.47 Z M4.75,22 C4.336,22 4,21.664 4,21.25 C4,20.836 4.336,20.5 4.75,20.5 L19.25,20.5 C19.664,20.5 20,20.836 20,21.25 C20,21.664 19.664,22 19.25,22 Z"/>
</svg>

