<svg xmlns="http://www.w3.org/2000/svg" width="16" height="16" viewBox="0 0 16 16">
  <defs/>
  <path d="M7.75,14 C6.784,14 6,13.216 6,12.25 L6,3.75 C6,2.784 6.784,2 7.75,2 L14.25,2 C15.216,2 16,2.784 16,3.75 L16,12.25 C16,13.216 15.216,14 14.25,14 Z M7.5,12.25 C7.5,12.388 7.612,12.5 7.75,12.5 L14.25,12.5 C14.388,12.5 14.5,12.388 14.5,12.25 L14.5,3.75 C14.5,3.612 14.388,3.5 14.25,3.5 L7.75,3.5 C7.612,3.5 7.5,3.612 7.5,3.75 Z M4.9,3.508 C5.108,3.867 4.985,4.326 4.626,4.533 C4.548,4.577 4.5,4.66 4.5,4.75 L4.5,11.25 C4.5,11.34 4.548,11.423 4.626,11.467 C4.984,11.675 5.107,12.134 4.899,12.492 C4.691,12.85 4.232,12.973 3.874,12.765 C3.333,12.452 3,11.875 3,11.25 L3,4.75 C3,4.101 3.353,3.536 3.874,3.234 C4.233,3.026 4.692,3.149 4.899,3.508 Z M1.625,5.533 L1.626,5.533 C1.548,5.577 1.5,5.66 1.5,5.75 L1.5,10.25 C1.5,10.34 1.548,10.423 1.626,10.467 C1.984,10.675 2.107,11.134 1.899,11.492 C1.691,11.85 1.232,11.973 0.874,11.765 C0.353,11.464 0,10.899 0,10.25 L0,5.75 C-0.001,5.125 0.332,4.547 0.873,4.234 C1.232,4.026 1.691,4.149 1.898,4.508 C2.106,4.866 1.984,5.325 1.625,5.533 Z"/>
</svg>

