<svg xmlns="http://www.w3.org/2000/svg" width="16" height="16" viewBox="0 0 16 16"><path d="M7.75 14A1.75 1.75 0 016 12.25v-8.5C6 2.784 6.784 2 7.75 2h6.5c.966 0 1.75.784 1.75 1.75v8.5A1.75 1.75 0 0114.25 14zm-.25-1.75c0 .138.112.25.25.25h6.5a.25.25 0 00.25-.25v-8.5a.25.25 0 00-.25-.25h-6.5a.25.25 0 00-.25.25zM4.9 3.508a.75.75 0 01-.274 1.025.249.249 0 00-.126.217v6.5c0 .09.048.173.126.217a.75.75 0 01-.752 1.298A1.75 1.75 0 013 11.25v-6.5c0-.649.353-1.214.874-1.516a.75.75 0 011.025.274zM1.625 5.533h.001a.249.249 0 00-.126.217v4.5c0 .09.048.173.126.217a.75.75 0 01-.752 1.298A1.748 1.748 0 010 10.25v-4.5a1.748 1.748 0 01.873-1.516.75.75 0 11.752 1.299z"/></svg>