<svg width="16" height="16" viewBox="0 0 16 16" fill="none" xmlns="http://www.w3.org/2000/svg">
<path fill-rule="evenodd" clip-rule="evenodd" d="M1.75 3.5C1.61193 3.5 1.5 3.61193 1.5 3.75V12.25C1.5 12.3881 1.61193 12.5 1.75 12.5H14.25C14.3881 12.5 14.5 12.3881 14.5 12.25V3.75C14.5 3.61193 14.3881 3.5 14.25 3.5H1.75ZM0 3.75C0 2.7835 0.783501 2 1.75 2H14.25C15.2165 2 16 2.7835 16 3.75V12.25C16 13.2165 15.2165 14 14.25 14H1.75C0.783502 14 0 13.2165 0 12.25V3.75Z" fill="black"/>
<path d="M6 10.5585V5.44155C6 5.24722 6.21199 5.1272 6.37862 5.22717L10.6427 7.78563C10.8045 7.88273 10.8045 8.11727 10.6427 8.21437L6.37862 10.7728C6.21199 10.8728 6 10.7528 6 10.5585Z" fill="black"/>
</svg>
