<svg xmlns="http://www.w3.org/2000/svg" width="16" height="16" viewBox="0 0 16 16">
  <defs/>
  <path d="M0,3.75 C0,2.784 0.784,2 1.75,2 L14.25,2 C15.216,2 16,2.784 16,3.75 L16,12.25 C16,13.216 15.216,14 14.25,14 L1.75,14 C0.784,14 0,13.216 0,12.25 Z M1.75,3.5 C1.612,3.5 1.5,3.612 1.5,3.75 L1.5,12.25 C1.5,12.388 1.612,12.5 1.75,12.5 L14.25,12.5 C14.388,12.5 14.5,12.388 14.5,12.25 L14.5,3.75 C14.5,3.612 14.388,3.5 14.25,3.5 Z"/>
  <path d="M6,10.559 L6,5.442 A0.25 0.25 0 0 1 6.379,5.227 L10.643,7.786 A0.25 0.25 0 0 1 10.643,8.214 L6.379,10.773 A0.25 0.25 0 0 1 6,10.559 Z"/>
</svg>

