<svg xmlns="http://www.w3.org/2000/svg" width="24" height="24" viewBox="0 0 24 24"><path fill-rule="evenodd" d="M4.75 4.5a.25.25 0 0 0-.25.25v3.5a.75.75 0 0 1-1.5 0v-3.5C3 3.784 3.784 3 4.75 3h3.5a.75.75 0 0 1 0 1.5zM15 3.75a.75.75 0 0 1 .75-.75h3.5c.966 0 1.75.784 1.75 1.75v3.5a.75.75 0 0 1-1.5 0v-3.5a.25.25 0 0 0-.25-.25h-3.5a.75.75 0 0 1-.75-.75M3.75 15a.75.75 0 0 1 .75.75v3.5c0 .138.112.25.25.25h3.5a.75.75 0 0 1 0 1.5h-3.5A1.75 1.75 0 0 1 3 19.25v-3.5a.75.75 0 0 1 .75-.75m16.5 0a.75.75 0 0 1 .75.75v3.5A1.75 1.75 0 0 1 19.25 21h-3.5a.75.75 0 0 1 0-1.5h3.5a.25.25 0 0 0 .25-.25v-3.5a.75.75 0 0 1 .75-.75"/><path d="M16.5 11.5a.75.75 0 0 1 0 1.5H8a.75.75 0 0 1 0-1.5zm-1-3.25a.75.75 0 0 1 0 1.5H8a.75.75 0 0 1 0-1.5zm-2 6.5a.75.75 0 0 1 0 1.5H8a.75.75 0 0 1 0-1.5z"/></svg>