<svg xmlns="http://www.w3.org/2000/svg" width="16" height="16"><path fill="currentColor" fill-rule="evenodd" d="M11.0977 1.01264c.1781-.030611.3616-.00542.5244.07325l2.8828 1.39453c.3025.14648.4951.45487.4951.79297v9.45311c-.0001.3379-.1928.6455-.4951.792l-2.8828 1.3936c-.1074.0525-.2253.0822-.3448.0869-.1192.0045-.2386-.0155-.3496-.0596-.1128-.0437-.2148-.1112-.2998-.1973L5.10938 9.68257 2.70605 11.5166c-.10824.0823-.24206.1241-.37793.1181-.13595-.0061-.26569-.0596-.36621-.1514l-.77148-.705c-.06008-.0551-.1078-.1227-.14063-.1973-.03273-.0745-.04979-.1549-.0498-.2363 0-.0815.01698-.1627.0498-.2373.03281-.0744.08069-.14135.14063-.19632l2.08398-1.91113-2.08398-1.91211c-.05994-.05502-.10786-.12182-.14063-.19629-.03276-.07447-.04974-.15497-.0498-.23633 0-.08152.01698-.16268.0498-.2373.03278-.07447.08069-.14128.14063-.19629l.77148-.70606c.10049-.09162.23036-.14527.36621-.15136.13586-.00602.26969.03583.37793.11816l2.40333 1.83399 5.51852-5.0586c.1271-.12866.2915-.21441.4698-.24512M7.31543 7.99995 11.502 11.1933v-.1934H11.5V5.99995h.002V4.80561z" clip-rule="evenodd"/></svg>
