<svg xmlns="http://www.w3.org/2000/svg" width="16" height="16" viewBox="0 0 16 16"><path d="M11.098 1.013a.86.86 0 0 1 .524.073l2.883 1.394a.88.88 0 0 1 .495.793v9.453a.88.88 0 0 1-.495.793l-2.883 1.393a.86.86 0 0 1-.994-.17L5.109 9.683l-2.403 1.834a.58.58 0 0 1-.744-.034l-.772-.705a.6.6 0 0 1-.19-.433.6.6 0 0 1 .19-.434L3.274 8 1.19 6.088a.59.59 0 0 1-.14-.67.6.6 0 0 1 .14-.196l.772-.706a.58.58 0 0 1 .744-.034l2.403 1.834 5.519-5.058a.86.86 0 0 1 .47-.245M7.315 8l4.187 3.193V11H11.5V6h.002V4.806Z"/></svg>