<svg xmlns="http://www.w3.org/2000/svg" width="48" height="48" viewBox="0 0 48 48"><path d="M34.474 4.411c3.195-3.189 9.511-.595 9.344 4.027.122 7.823.182 15.648.182 23.472 0 2.271-.003 4.543-.013 6.814.242 5.088-6.667 8.267-10.462 4.859A1752.539 1752.539 0 0 1 3.853 18.74a2.41 2.41 0 0 1-.842-1.599 2.34 2.34 0 0 1 .531-1.72 2.41 2.41 0 0 1 1.606-.85c.63-.066 1.26.117 1.76.495a1750.322 1750.322 0 0 1 30.618 23.701c.021.03.097-.047.05-.043-.009-2.271-.013-4.543-.013-6.814 0-7.552.056-15.104.17-22.656-3.577 3.039-7.189 5.974-10.733 8.954a771.74 771.74 0 0 0-3.891 3.291 2.494 2.494 0 0 1-1.728.594 2.411 2.411 0 0 1-1.653-.755 2.33 2.33 0 0 1-.632-1.682 2.413 2.413 0 0 1 .738-1.649 401.512 401.512 0 0 1 3.718-3.554c3.62-3.418 7.318-6.714 10.922-10.042ZM8.14 28.625a2.245 2.245 0 0 1 3.26.16c.858.98.787 2.498-.156 3.39l-3.383 3.2a2.246 2.246 0 0 1-3.26-.159c-.857-.981-.789-2.499.153-3.391l3.386-3.2Z"/></svg>