<svg xmlns="http://www.w3.org/2000/svg" width="24" height="24" viewBox="0 0 24 24"><path d="M16.868 1.02c.28-.048.568-.009.824.115l4.53 2.191c.475.231.778.715.778 1.247v14.855c0 .531-.303 1.014-.778 1.245l-4.53 2.189a1.35 1.35 0 0 1-1.091.043 1.3 1.3 0 0 1-.471-.31l-8.672-7.951-3.777 2.883a.91.91 0 0 1-1.169-.053l-1.213-1.108a.925.925 0 0 1 0-1.363L4.574 12 1.299 8.995A.93.93 0 0 1 1 8.316a.93.93 0 0 1 .299-.682l1.213-1.109a.91.91 0 0 1 1.169-.053l3.777 2.883 8.672-7.95a1.36 1.36 0 0 1 .738-.385M10.924 12l6.579 5.018v-.303H17.5V8.857h.003V6.98Z"/></svg>