<svg xmlns="http://www.w3.org/2000/svg" viewBox="0 0 24 24" width="24" height="24"><path fill="currentColor" fill-rule="evenodd" d="M16.8677 1.01987c.28-.04811.5684-.00852.8241.1151l4.5302 2.19147c.4754.23019.778.71482.778 1.24613V19.4279c-.0002.531-.303 1.0144-.778 1.2446l-4.5302 2.1899c-.1686.0827-.354.1293-.5417.1366-.1874.0072-.375-.0244-.5494-.0936-.1772-.0686-.3376-.1748-.4711-.31l-8.67201-7.951-3.77665 2.8821c-.1701.1294-.38039.1951-.59389.1857-.21364-.0096-.41752-.0937-.57547-.2379l-1.21233-1.108c-.09442-.0866-.16941-.1928-.22099-.31-.05143-.1171-.07824-.2435-.07826-.3714 0-.1281.02668-.2557.07826-.3729.05155-.117.12679-.2221.22099-.3085l3.27483-3.0033-3.27483-3.0048c-.09419-.08646-.16949-.19143-.22099-.30846C1.02678 8.5699 1.0001 8.44341 1 8.31556c0-.12811.02668-.25566.07826-.37292.0515-.11703.1268-.22201.22099-.30847l1.21233-1.10954c.1579-.14398.36199-.22829.57547-.23787.21349-.00945.4238.05631.59389.18569l3.77665 2.88206 8.67201-7.94944c.1998-.20219.4581-.33695.7381-.3852M10.9242 12.0002l6.5789 5.0183v-.3039H17.5V8.85728h.0031V6.98042z" clip-rule="evenodd"/></svg>
