<svg xmlns="http://www.w3.org/2000/svg" width="16" height="16" viewBox="0 0 16 16">
  <defs/>
  <path d="M5.5,4.25 A2.25 2.25 0 0 1 10,4.25 A0.75 0.75 0 0 0 11.5,4.25 A3.75 3.75 0 1 0 5.36,7.139 L3.088,11.397 A0.75 0.75 0 0 0 4.412,12.103 L7,7.25 A0.75 0.75 0 0 0 6.691,6.235 A2.25 2.25 0 0 1 5.5,4.25 Z"/>
  <path d="M7.364,3.607 A0.75 0.75 0 0 1 8.394,3.864 L11.002,8.213 A3.75 3.75 0 1 1 10.374,14.998 A0.75 0.75 0 0 1 11.126,13.699 A2.25 2.25 0 1 0 11.093,9.819 A0.75 0.75 0 0 1 10.063,9.563 L7.107,4.636 A0.75 0.75 0 0 1 7.364,3.606 Z"/>
  <path d="M2.9,8.776 A0.75 0.75 0 0 1 2.625,9.8 A2.25 2.25 0 1 0 6,11.75 A0.75 0.75 0 0 1 6.75,10.999 L12.25,10.999 A0.75 0.75 0 0 1 12.25,12.499 L7.425,12.499 A3.751 3.751 0 1 1 1.875,8.501 A0.75 0.75 0 0 1 2.899,8.775 Z"/>
</svg>

