<svg xmlns="http://www.w3.org/2000/svg" width="16" height="16" viewBox="0 0 16 16"><path d="M7.11 2.71a2 2 0 0 1 2.889 1.863.75.75 0 0 0 1.499.056A3.5 3.5 0 1 0 5.46 6.908l-.279.474-1.791 3.316a.75.75 0 0 0 1.32.713l1.778-3.293.555-.944a.75.75 0 0 0-.19-1.036 2 2 0 0 1 .256-3.429Z"/><path d="M11 9.518a2 2 0 1 1-.29 3.26.75.75 0 0 0-.969 1.146 3.5 3.5 0 1 0 1.223-6.017L8.76 4.214a.75.75 0 0 0-1.289.768l2.425 4.065a.75.75 0 0 0 1.104.47Z"/><path d="M3.665 8.42a.75.75 0 0 1-.414.976A2 2 0 1 0 6 11.25a.75.75 0 0 1 .75-.75H11.889a.75.75 0 0 1 0 1.5H7.42a3.499 3.499 0 1 1-4.73-3.995.75.75 0 0 1 .976.414Z"/></svg>