<svg width="16" height="16" viewBox="0 0 16 16" fill="none" xmlns="http://www.w3.org/2000/svg">
<path d="M5.50003 4.25C5.50003 3.00736 6.50739 2 7.75003 2C8.99267 2 10 3.00736 10 4.25C10 4.66421 10.3358 5 10.75 5C11.1642 5 11.5 4.66421 11.5 4.25C11.5 2.17893 9.82109 0.5 7.75003 0.5C5.67896 0.5 4.00003 2.17893 4.00003 4.25C4.00003 5.41315 4.52974 6.45181 5.35921 7.13903L3.08826 11.3971C2.89334 11.7625 3.0316 12.2168 3.39708 12.4118C3.76257 12.6067 4.21687 12.4684 4.41179 12.1029L6.99975 7.25052C7.19455 6.88526 7.05659 6.43124 6.6915 6.23612C5.98085 5.85632 5.50003 5.10873 5.50003 4.25Z" fill="black"/>
<path d="M7.36412 3.60687C7.7193 3.39376 8.18 3.50893 8.39311 3.86412L11.0023 8.21278C11.3931 8.07494 11.8132 7.99999 12.25 7.99999C14.3211 7.99999 16 9.67892 16 11.75C16 13.8211 14.3211 15.5 12.25 15.5C11.5682 15.5 10.9268 15.3174 10.3744 14.9978C10.0159 14.7904 9.89338 14.3316 10.1008 13.9731C10.3082 13.6146 10.767 13.492 11.1255 13.6994C11.4557 13.8904 11.8389 14 12.25 14C13.4926 14 14.5 12.9926 14.5 11.75C14.5 10.5074 13.4926 9.49999 12.25 9.49999C11.8254 9.49999 11.4303 9.61691 11.0928 9.81988C10.9222 9.92244 10.7178 9.953 10.5247 9.90482C10.3316 9.85664 10.1656 9.73367 10.0632 9.563L7.10687 4.63586C6.89376 4.28068 7.00893 3.81998 7.36412 3.60687Z" fill="black"/>
<path d="M2.8992 8.77579C3.10661 9.13434 2.98409 9.59314 2.62554 9.80054C1.95106 10.1907 1.5 10.9181 1.5 11.75C1.5 12.9926 2.50736 14 3.75 14C4.99264 14 6 12.9926 6 11.75C6 11.3358 6.33579 11 6.75 11H12.25C12.6642 11 13 11.3358 13 11.75C13 12.1642 12.6642 12.5 12.25 12.5H7.42499C7.07753 14.2117 5.56422 15.5 3.75 15.5C1.67893 15.5 0 13.8211 0 11.75C0 10.361 0.755535 9.1494 1.87446 8.50214C2.233 8.29473 2.6918 8.41725 2.8992 8.77579Z" fill="black"/>
</svg>
