<svg xmlns="http://www.w3.org/2000/svg" width="16" height="16" viewBox="0 0 16 16">
  <defs/>
  <path d="M0,1.75 C0,0.784 0.784,0 1.75,0 L5.25,0 C6.216,0 7,0.784 7,1.75 L7,5.25 C7,6.216 6.216,7 5.25,7 L4,7 L4,11 C4,11.552 4.448,12 5,12 L9,12 L9,10.75 C9,9.784 9.784,9 10.75,9 L14.25,9 C15.216,9 16,9.784 16,10.75 L16,14.25 C16,15.216 15.216,16 14.25,16 L10.75,16 C9.784,16 9,15.216 9,14.25 L9,13.5 L5,13.5 C3.619,13.5 2.5,12.381 2.5,11 L2.5,7 L1.75,7 C0.784,7 0,6.216 0,5.25 Z M1.75,1.5 C1.612,1.5 1.5,1.612 1.5,1.75 L1.5,5.25 C1.5,5.388 1.612,5.5 1.75,5.5 L5.25,5.5 C5.388,5.5 5.5,5.388 5.5,5.25 L5.5,1.75 C5.5,1.612 5.388,1.5 5.25,1.5 Z M10.75,10.5 C10.612,10.5 10.5,10.612 10.5,10.75 L10.5,14.25 C10.5,14.388 10.612,14.5 10.75,14.5 L14.25,14.5 C14.388,14.5 14.5,14.388 14.5,14.25 L14.5,10.75 C14.5,10.612 14.388,10.5 14.25,10.5 Z"/>
</svg>

