<svg xmlns="http://www.w3.org/2000/svg" width="24" height="24" viewBox="0 0 24 24">
  <defs/>
  <path d="M1,3 C1,1.895 1.895,1 3,1 L9.5,1 C10.605,1 11.5,1.895 11.5,3 L11.5,9.5 C11.5,10.605 10.605,11.5 9.5,11.5 L7,11.5 L7,15.563 C7,16.355 7.644,17 8.438,17 L12.5,17 L12.5,14.5 C12.5,13.395 13.395,12.5 14.5,12.5 L21,12.5 C22.105,12.5 23,13.395 23,14.5 L23,21 C23,22.105 22.105,23 21,23 L14.5,23 C13.395,23 12.5,22.105 12.5,21 L12.5,18.5 L8.437,18.5 C6.815,18.499 5.5,17.184 5.5,15.562 L5.5,11.5 L3,11.5 C1.895,11.5 1,10.605 1,9.5 Z M3,2.5 C2.724,2.5 2.5,2.724 2.5,3 L2.5,9.5 C2.5,9.776 2.724,10 3,10 L9.5,10 C9.776,10 10,9.776 10,9.5 L10,3 C10,2.724 9.776,2.5 9.5,2.5 Z M14.5,14 C14.224,14 14,14.224 14,14.5 L14,21 C14,21.276 14.224,21.5 14.5,21.5 L21,21.5 C21.276,21.5 21.5,21.276 21.5,21 L21.5,14.5 C21.5,14.224 21.276,14 21,14 Z"/>
</svg>

