<svg xmlns="http://www.w3.org/2000/svg" width="16" height="16" viewBox="0 0 16 16"><path d="M1.75 7a.747.747 0 0 0-.53.22.747.747 0 0 0 0 1.06c.14.141.331.22.53.22h10c.464 0 .909.184 1.237.513a1.746 1.746 0 0 1 0 2.474A1.746 1.746 0 0 1 11.75 12h-1.464v-.464a.675.675 0 0 0-.375-.607.687.687 0 0 0-.711.064l-1.619 1.214a.679.679 0 0 0 0 1.086L9.2 14.507a.683.683 0 0 0 .711.064.685.685 0 0 0 .375-.607V13.5h1.464A3.247 3.247 0 0 0 15 10.25 3.247 3.247 0 0 0 11.75 7h-10ZM1 2.75c0-.199.079-.39.22-.53A.747.747 0 0 1 1.75 2h12.5c.199 0 .39.079.53.22a.747.747 0 0 1 0 1.06.747.747 0 0 1-.53.22H1.75a.747.747 0 0 1-.53-.22.747.747 0 0 1-.22-.53ZM1.75 12h3.5c.199 0 .39.079.53.22a.747.747 0 0 1 0 1.06.747.747 0 0 1-.53.22h-3.5a.747.747 0 0 1-.53-.22.747.747 0 0 1 0-1.06.747.747 0 0 1 .53-.22Z"/></svg>