<svg width="12" height="12" viewBox="0 0 12 12" fill="none" xmlns="http://www.w3.org/2000/svg">
<path d="M2.21967 2.21967C2.51256 1.92678 2.98744 1.92678 3.28033 2.21967L5.99978 4.93912L8.7195 2.21984C9.0124 1.92694 9.48744 1.92678 9.78033 2.21967C10.0732 2.51256 10.0732 2.98748 9.78029 3.28037L7.06066 6L9.78018 8.71952C10.0731 9.01241 10.0732 9.48744 9.78033 9.78033C9.48744 10.0732 9.01252 10.0732 8.71963 9.78029L6 7.06066L3.28033 9.78033C2.98744 10.0732 2.51256 10.0732 2.21967 9.78033C1.92678 9.48744 1.92678 9.01256 2.21967 8.71967L4.93934 6L2.21967 3.28033C1.92678 2.98744 1.92678 2.51256 2.21967 2.21967Z" fill="#24292F"/>
</svg>
