<svg width="24" height="24" viewBox="0 0 24 24" xmlns="http://www.w3.org/2000/svg">
  <path fill-rule="evenodd" clip-rule="evenodd" d="M1 12C1 5.92487 5.92487 1 12 1C18.0751 1 23 5.92487 23 12C23 18.0751 18.0751 23 12 23C5.92487 23 1 18.0751 1 12ZM9.03649 7.97577C8.7436 7.68288 8.26873 7.68288 7.97583 7.97577C7.68294 8.26867 7.68294 8.74354 7.97583 9.03643L10.9393 11.9999L7.97583 14.9633C7.68294 15.2562 7.68294 15.731 7.97583 16.0239C8.26873 16.3168 8.7436 16.3168 9.03649 16.0239L11.9999 13.0605L14.9633 16.0239C15.2562 16.3168 15.7311 16.3168 16.024 16.0239C16.3169 15.731 16.3169 15.2562 16.024 14.9633L13.0606 11.9999L16.024 9.03643C16.3169 8.74354 16.3169 8.26867 16.024 7.97577C15.7311 7.68288 15.2562 7.68288 14.9633 7.97577L11.9999 10.9392L9.03649 7.97577Z"/>
</svg>
