<svg xmlns="http://www.w3.org/2000/svg" width="24" height="24" viewBox="0 0 24 24">
  <defs/>
  <path d="M1,12 C1,5.925 5.925,1 12,1 C18.075,1 23,5.925 23,12 C23,18.075 18.075,23 12,23 C5.925,23 1,18.075 1,12 Z M9.036,7.976 C8.74,7.701 8.28,7.709 7.994,7.994 C7.709,8.28 7.701,8.74 7.976,9.036 L10.939,12 L7.976,14.963 C7.775,15.15 7.693,15.432 7.761,15.697 C7.828,15.963 8.036,16.171 8.302,16.238 C8.567,16.306 8.849,16.224 9.036,16.023 L12,13.06 L14.963,16.024 C15.257,16.308 15.725,16.305 16.014,16.015 C16.304,15.726 16.308,15.258 16.024,14.964 L13.061,12 L16.024,9.036 C16.225,8.849 16.307,8.567 16.239,8.302 C16.172,8.036 15.964,7.828 15.698,7.761 C15.433,7.693 15.151,7.775 14.964,7.976 L12,10.939 Z"/>
</svg>

