<svg xmlns="http://www.w3.org/2000/svg" width="24" height="24" viewBox="0 0 24 24">
  <defs/>
  <path d="M9.036,7.976 A0.75 0.75 0 0 0 7.976,9.036 L10.939,12 L7.976,14.963 A0.75 0.75 0 1 0 9.036,16.023 L12,13.06 L14.963,16.024 A0.75 0.75 0 0 0 16.024,14.964 L13.061,12 L16.024,9.036 A0.75 0.75 0 1 0 14.964,7.976 L12,10.939 L9.036,7.976 Z"/>
  <path d="M12,1 C18.075,1 23,5.925 23,12 C23,18.075 18.075,23 12,23 C5.925,23 1,18.075 1,12 C1,5.925 5.925,1 12,1 Z M2.5,12 C2.5,17.247 6.753,21.5 12,21.5 C17.247,21.5 21.5,17.247 21.5,12 C21.5,6.753 17.247,2.5 12,2.5 C6.753,2.5 2.5,6.753 2.5,12 Z"/>
</svg>

