<svg xmlns="http://www.w3.org/2000/svg" width="16" height="16" viewBox="0 0 16 16">
  <defs/>
  <path d="M2.343,13.657 C-0.781,10.533 -0.781,5.467 2.343,2.343 C5.467,-0.781 10.533,-0.781 13.657,2.343 C16.781,5.467 16.781,10.533 13.657,13.657 C10.533,16.781 5.467,16.781 2.343,13.657 Z M6.03,4.97 C5.734,4.695 5.274,4.703 4.988,4.988 C4.703,5.274 4.695,5.734 4.97,6.03 L6.94,8 L4.97,9.97 C4.769,10.157 4.687,10.439 4.755,10.704 C4.822,10.97 5.03,11.178 5.296,11.245 C5.561,11.313 5.843,11.231 6.03,11.03 L8,9.06 L9.97,11.03 C10.157,11.231 10.439,11.313 10.704,11.245 C10.97,11.178 11.178,10.97 11.245,10.704 C11.313,10.439 11.231,10.157 11.03,9.97 L9.06,8 L11.03,6.03 C11.231,5.843 11.313,5.561 11.245,5.296 C11.178,5.03 10.97,4.822 10.704,4.755 C10.439,4.687 10.157,4.769 9.97,4.97 L8,6.94 Z"/>
</svg>

