<svg width="24" height="24" viewBox="0 0 24 24" fill="none" xmlns="http://www.w3.org/2000/svg">
<path d="M14.5 11.25C14.9142 11.25 15.25 10.9142 15.25 10.5C15.25 10.0858 14.9142 9.75 14.5 9.75H6.5C6.08579 9.75 5.75 10.0858 5.75 10.5C5.75 10.9142 6.08579 11.25 6.5 11.25H14.5Z" fill="#24292F"/>
<path fill-rule="evenodd" clip-rule="evenodd" d="M0 10.5C0 4.70101 4.70101 0 10.5 0C16.299 0 21 4.70101 21 10.5C21 13.1296 20.0334 15.5334 18.4361 17.3754L22.7803 21.7197C23.0732 22.0126 23.0732 22.4874 22.7803 22.7803C22.4874 23.0732 22.0126 23.0732 21.7197 22.7803L17.3754 18.4361C15.5334 20.0334 13.1296 21 10.5 21C4.70101 21 0 16.299 0 10.5ZM10.5 1.5C5.52944 1.5 1.5 5.52944 1.5 10.5C1.5 15.4706 5.52944 19.5 10.5 19.5C15.4706 19.5 19.5 15.4706 19.5 10.5C19.5 5.52944 15.4706 1.5 10.5 1.5Z" fill="#24292F"/>
</svg>
