<svg width="16" height="16" viewBox="0 0 16 16" fill="none" xmlns="http://www.w3.org/2000/svg">
<g clip-path="url(#clip0_8804_112285)">
<path d="M3.75 7.5C3.75 7.08579 4.08579 6.75 4.5 6.75H6.75V4.5C6.75 4.08579 7.08579 3.75 7.5 3.75C7.91421 3.75 8.25 4.08579 8.25 4.5V6.75H10.5C10.9142 6.75 11.25 7.08579 11.25 7.5C11.25 7.91421 10.9142 8.25 10.5 8.25H8.25V10.5C8.25 10.9142 7.91421 11.25 7.5 11.25C7.08579 11.25 6.75 10.9142 6.75 10.5V8.25H4.5C4.08579 8.25 3.75 7.91421 3.75 7.5Z" fill="black"/>
<path fill-rule="evenodd" clip-rule="evenodd" d="M7.5 0C3.35786 0 0 3.35786 0 7.5C0 11.6421 3.35786 15 7.5 15C9.30095 15 10.9536 14.3652 12.2465 13.3072L14.7197 15.7803C15.0126 16.0732 15.4874 16.0732 15.7803 15.7803C16.0732 15.4874 16.0732 15.0126 15.7803 14.7197L13.3072 12.2465C14.3652 10.9536 15 9.30095 15 7.5C15 3.35786 11.6421 0 7.5 0ZM1.5 7.5C1.5 4.18629 4.18629 1.5 7.5 1.5C10.8137 1.5 13.5 4.18629 13.5 7.5C13.5 10.8137 10.8137 13.5 7.5 13.5C4.18629 13.5 1.5 10.8137 1.5 7.5Z" fill="black"/>
</g>
<defs>
<clipPath id="clip0_8804_112285">
<rect width="16" height="16" fill="white"/>
</clipPath>
</defs>
</svg>
