<svg width="16" height="16" viewBox="0 0 16 16" fill="none" xmlns="http://www.w3.org/2000/svg">
<g clip-path="url(#clip0_8804_112283)">
<path d="M4.5 6.75C4.08579 6.75 3.75 7.08579 3.75 7.5C3.75 7.91421 4.08579 8.25 4.5 8.25H10.5C10.9142 8.25 11.25 7.91421 11.25 7.5C11.25 7.08579 10.9142 6.75 10.5 6.75H4.5Z" fill="black"/>
<path fill-rule="evenodd" clip-rule="evenodd" d="M0 7.5C0 3.35786 3.35786 0 7.5 0C11.6421 0 15 3.35786 15 7.5C15 9.30095 14.3652 10.9536 13.3072 12.2465L15.7803 14.7197C16.0732 15.0126 16.0732 15.4874 15.7803 15.7803C15.4874 16.0732 15.0126 16.0732 14.7197 15.7803L12.2465 13.3072C10.9536 14.3652 9.30095 15 7.5 15C3.35786 15 0 11.6421 0 7.5ZM7.5 1.5C4.18629 1.5 1.5 4.18629 1.5 7.5C1.5 10.8137 4.18629 13.5 7.5 13.5C10.8137 13.5 13.5 10.8137 13.5 7.5C13.5 4.18629 10.8137 1.5 7.5 1.5Z" fill="black"/>
</g>
<defs>
<clipPath id="clip0_8804_112283">
<rect width="16" height="16" fill="white"/>
</clipPath>
</defs>
</svg>
