<?xml version="1.0" encoding="UTF-8" standalone="no"?>
<svg width="16px" height="16px" viewBox="0 0 16 16" version="1.1" xmlns="http://www.w3.org/2000/svg" xmlns:xlink="http://www.w3.org/1999/xlink">
    <!-- Generator: Sketch 40.3 (33839) - http://www.bohemiancoding.com/sketch -->
    <title>a11y</title>
    <desc>Created with Sketch.</desc>
    <defs></defs>
    <g id="Octicons" stroke="none" stroke-width="1" fill="none" fill-rule="evenodd">
        <g id="a11y" fill="#000000">
            <path d="M3,4 L8,4 C8.55,4 9,3.55 9,3 L9,2 C9,1.45 8.55,1 8,1 L7,1 C6.45,1 6,1.45 6,2 L6,3 C6,3.55 6.45,4 7,4 L3,4 C2.45,4 2,4.45 2,5 L2,7 L6,7 L4.5,13 C4.5,14 5.5,14 5.5,14 L7.5,14 L7.5,11.0040666 L7.5,14 C7.31664406,14 9.5,14 9.5,14 C9.5,14 10.5,14 10.5,13 L9,7 L13,7 L13,5 C13,4.45 12.55,4 12,4 L3,4 Z M8,2 L8,3 L7,3 L7,2 L8,2 Z M8,6 L8,7 L9.49627314,12.9965017 L8.5,12.9965017 L7.5,8.5 C7.5,8.5 6.44185009,12.9965017 6.5,12.9965017 L5.53491962,12.9965017 L7,7 L7,6 L3,6 L3,5 L12,5 L12,6 L8,6 Z" id="Shape"></path>
        </g>
    </g>
</svg>