<?xml version="1.0" encoding="UTF-8"?>
<svg width="16px" height="16px" viewBox="0 0 16 16" version="1.1" xmlns="http://www.w3.org/2000/svg" xmlns:xlink="http://www.w3.org/1999/xlink">
    <!-- Generator: Sketch 40.3 (33839) - http://www.bohemiancoding.com/sketch -->
    <title>beaker</title>
    <desc>Created with Sketch.</desc>
    <defs></defs>
    <g id="Octicons" stroke="none" stroke-width="1" fill="none" fill-rule="evenodd">
        <g id="beaker" fill="#000000">
            <path d="M14.3797254,14.59 L10.9997254,7 L10.9997254,3 L11.9997254,3 L11.9997254,2 L2.99972539,2 L2.99972539,3 L3.99972539,3 L3.99972539,7 L0.62972539,14.59 C0.32972539,15.25 0.81972539,16 1.53972539,16 L13.4797254,16 C14.1997254,16 14.6797254,15.25 14.3897254,14.59 L14.3797254,14.59 Z M3.74972539,10 L4.99972539,7 L4.99972539,3 L9.99972539,3 L9.99972539,7 L11.2497254,10 L3.74972539,10 L3.74972539,10 Z M7.99972539,8 L8.99972539,8 L8.99972539,9 L7.99972539,9 L7.99972539,8 L7.99972539,8 Z M6.99972539,7 L5.99972539,7 L5.99972539,6 L6.99972539,6 L6.99972539,7 L6.99972539,7 Z M6.99972539,4 L7.99972539,4 L7.99972539,5 L6.99972539,5 L6.99972539,4 L6.99972539,4 Z M6.99972539,1 L5.99972539,1 L5.99972539,0 L6.99972539,0 L6.99972539,1 L6.99972539,1 Z" id="Shape"></path>
        </g>
    </g>
</svg>