<?xml version="1.0" encoding="UTF-8"?>
<svg width="10px" height="16px" viewBox="0 0 10 16" version="1.1" xmlns="http://www.w3.org/2000/svg" xmlns:xlink="http://www.w3.org/1999/xlink">
    <!-- Generator: Sketch 40.3 (33839) - http://www.bohemiancoding.com/sketch -->
    <title>bold</title>
    <desc>Created with Sketch.</desc>
    <defs></defs>
    <g id="Octicons" stroke="none" stroke-width="1" fill="none" fill-rule="evenodd">
        <g id="bold" fill="#000000">
            <path d="M1,2 L4.83,2 C7.31,2 9.13,2.75 9.13,4.95 C9.13,6.09 8.5,7.18 7.46,7.56 L7.46,7.62 C8.79,7.92 9.76,8.85 9.76,10.48 C9.76,12.87 7.79,14 5.15,14 L1,14 L1,2 L1,2 Z M4.66,6.95 C6.33,6.95 7.04,6.29 7.04,5.26 C7.04,4.09 6.26,3.65 4.7,3.65 L3.13,3.65 L3.13,6.95 L4.66,6.95 L4.66,6.95 Z M4.93,12.34 C6.7,12.34 7.68,11.7 7.68,10.36 C7.68,9.09 6.73,8.55 4.93,8.55 L3.13,8.55 L3.13,12.35 L4.93,12.35 L4.93,12.34 Z" id="Shape"></path>
        </g>
    </g>
</svg>