<?xml version="1.0" encoding="UTF-8"?>
<svg width="16px" height="16px" viewBox="0 0 16 16" version="1.1" xmlns="http://www.w3.org/2000/svg" xmlns:xlink="http://www.w3.org/1999/xlink">
    <!-- Generator: Sketch 40.3 (33839) - http://www.bohemiancoding.com/sketch -->
    <title>checklist</title>
    <desc>Created with Sketch.</desc>
    <defs></defs>
    <g id="Octicons" stroke="none" stroke-width="1" fill="none" fill-rule="evenodd">
        <g id="checklist" fill="#000000">
            <path d="M16,8.5 L10,14.5 L7,11.5 L8.5,10 L10,11.5 L14.5,7 L16,8.5 L16,8.5 Z M5.7,12.2 L6.5,13 L2,13 C1.45,13 1,12.55 1,12 L1,3 C1,2.45 1.45,2 2,2 L9,2 C9.55,2 10,2.45 10,3 L10,9.5 L9.2,8.7 C8.81,8.31 8.17,8.31 7.78,8.7 L5.7,10.8 C5.31,11.19 5.31,11.82 5.7,12.21 L5.7,12.2 Z M4,4 L9,4 L9,3 L4,3 L4,4 L4,4 Z M4,6 L9,6 L9,5 L4,5 L4,6 L4,6 Z M4,8 L7,8 L7,7 L4,7 L4,8 L4,8 Z M3,9 L2,9 L2,10 L3,10 L3,9 L3,9 Z M3,7 L2,7 L2,8 L3,8 L3,7 L3,7 Z M3,5 L2,5 L2,6 L3,6 L3,5 L3,5 Z M3,3 L2,3 L2,4 L3,4 L3,3 L3,3 Z" id="Shape"></path>
        </g>
    </g>
</svg>