<?xml version="1.0" encoding="UTF-8" standalone="no"?>
<svg width="16px" height="16px" viewBox="0 0 16 16" version="1.1" xmlns="http://www.w3.org/2000/svg" xmlns:xlink="http://www.w3.org/1999/xlink">
    <!-- Generator: Sketch 3.8.3 (29802) - http://www.bohemiancoding.com/sketch -->
    <title>cloud-download</title>
    <desc>Created with Sketch.</desc>
    <defs></defs>
    <g id="Octicons" stroke="none" stroke-width="1" fill="none" fill-rule="evenodd">
        <g id="cloud-download" fill="#000000">
            <path d="M9,12 L11,12 L8,15 L5,12 L7,12 L7,7 L9,7 L9,12 L9,12 Z M12,4 C12,3.56 11.09,1 7.5,1 C5.08,1 3,2.92 3,5 C1.02,5 0,6.52 0,8 C0,9.53 1,11 3,11 L6,11 L6,9.7 L3,9.7 C1.38,9.7 1.3,8.28 1.3,8 C1.3,7.83 1.35,6.3 3,6.3 L4.3,6.3 L4.3,5 C4.3,3.61 5.86,2.3 7.5,2.3 C10.05,2.3 10.63,3.85 10.7,4.1 L10.7,5.3 L12,5.3 C12.81,5.3 14.7,5.52 14.7,7.5 C14.7,9.59 12.45,9.7 12,9.7 L10,9.7 L10,11 L12,11 C14.08,11 16,9.84 16,7.5 C16,5.06 14.08,4 12,4 L12,4 Z" id="Shape"></path>
        </g>
    </g>
</svg>