<?xml version="1.0" encoding="UTF-8" standalone="no"?>
<svg width="12px" height="16px" viewBox="0 0 12 16" version="1.1" xmlns="http://www.w3.org/2000/svg" xmlns:xlink="http://www.w3.org/1999/xlink">
    <!-- Generator: Sketch 3.8.3 (29802) - http://www.bohemiancoding.com/sketch -->
    <title>database</title>
    <desc>Created with Sketch.</desc>
    <defs></defs>
    <g id="Octicons" stroke="none" stroke-width="1" fill="none" fill-rule="evenodd">
        <g id="database" fill="#000000">
            <path d="M6,15 C2.69,15 0,14.1 0,13 L0,11 C0,10.83 0.09,10.66 0.21,10.5 C0.88,11.36 3.21,12 6,12 C8.79,12 11.12,11.36 11.79,10.5 C11.92,10.66 12,10.83 12,11 L12,13 C12,14.1 9.31,15 6,15 L6,15 Z M6,11 C2.69,11 0,10.1 0,9 L0,7 C0,6.89 0.04,6.79 0.09,6.69 L0.09,6.69 C0.12,6.63 0.16,6.56 0.21,6.5 C0.88,7.36 3.21,8 6,8 C8.79,8 11.12,7.36 11.79,6.5 C11.84,6.56 11.88,6.63 11.91,6.69 L11.91,6.69 C11.96,6.79 12,6.9 12,7 L12,9 C12,10.1 9.31,11 6,11 L6,11 Z M6,7 C2.69,7 0,6.1 0,5 L0,4 L0,3 C0,1.9 2.69,1 6,1 C9.31,1 12,1.9 12,3 L12,4 L12,5 C12,6.1 9.31,7 6,7 L6,7 Z M6,2 C3.79,2 2,2.45 2,3 C2,3.55 3.79,4 6,4 C8.21,4 10,3.55 10,3 C10,2.45 8.21,2 6,2 L6,2 Z" id="Shape"></path>
        </g>
    </g>
</svg>