<?xml version="1.0" encoding="UTF-8"?>
<svg width="14px" height="16px" viewBox="0 0 14 16" version="1.1" xmlns="http://www.w3.org/2000/svg" xmlns:xlink="http://www.w3.org/1999/xlink">
    <!-- Generator: Sketch 40.3 (33839) - http://www.bohemiancoding.com/sketch -->
    <title>diff-added</title>
    <desc>Created with Sketch.</desc>
    <defs></defs>
    <g id="Octicons" stroke="none" stroke-width="1" fill="none" fill-rule="evenodd">
        <g id="diff-added" fill="#000000">
            <path d="M13,1 L1,1 C0.45,1 0,1.45 0,2 L0,14 C0,14.55 0.45,15 1,15 L13,15 C13.55,15 14,14.55 14,14 L14,2 C14,1.45 13.55,1 13,1 L13,1 Z M13,14 L1,14 L1,2 L13,2 L13,14 L13,14 Z M6,9 L3,9 L3,7 L6,7 L6,4 L8,4 L8,7 L11,7 L11,9 L8,9 L8,12 L6,12 L6,9 L6,9 Z" id="Shape"></path>
        </g>
    </g>
</svg>