<?xml version="1.0" encoding="UTF-8"?>
<svg width="14px" height="16px" viewBox="0 0 14 16" version="1.1" xmlns="http://www.w3.org/2000/svg" xmlns:xlink="http://www.w3.org/1999/xlink">
    <!-- Generator: Sketch 40.3 (33839) - http://www.bohemiancoding.com/sketch -->
    <title>diff-renamed</title>
    <desc>Created with Sketch.</desc>
    <defs></defs>
    <g id="Octicons" stroke="none" stroke-width="1" fill="none" fill-rule="evenodd">
        <g id="diff-renamed" fill="#000000">
            <path d="M6,9 L3,9 L3,7 L6,7 L6,4 L11,8 L6,12 L6,9 L6,9 Z M14,2 L14,14 C14,14.55 13.55,15 13,15 L1,15 C0.45,15 0,14.55 0,14 L0,2 C0,1.45 0.45,1 1,1 L13,1 C13.55,1 14,1.45 14,2 L14,2 Z M13,2 L1,2 L1,14 L13,14 L13,2 L13,2 Z" id="Shape"></path>
        </g>
    </g>
</svg>