<?xml version="1.0" encoding="UTF-8" standalone="no"?>
<svg width="16px" height="16px" viewBox="0 0 16 16" version="1.1" xmlns="http://www.w3.org/2000/svg" xmlns:xlink="http://www.w3.org/1999/xlink">
    <!-- Generator: Sketch 3.8.3 (29802) - http://www.bohemiancoding.com/sketch -->
    <title>eye</title>
    <desc>Created with Sketch.</desc>
    <defs></defs>
    <g id="Octicons" stroke="none" stroke-width="1" fill="none" fill-rule="evenodd">
        <g id="eye" fill="#000000">
            <path d="M8.06,2 C3,2 0,8 0,8 C0,8 3,14 8.06,14 C13,14 16,8 16,8 C16,8 13,2 8.06,2 L8.06,2 Z M8,12 C5.8,12 4,10.22 4,8 C4,5.8 5.8,4 8,4 C10.22,4 12,5.8 12,8 C12,10.22 10.22,12 8,12 L8,12 Z M10,8 C10,9.11 9.11,10 8,10 C6.89,10 6,9.11 6,8 C6,6.89 6.89,6 8,6 C9.11,6 10,6.89 10,8 L10,8 Z" id="Shape"></path>
        </g>
    </g>
</svg>