<?xml version="1.0" encoding="UTF-8" standalone="no"?>
<svg width="12px" height="16px" viewBox="0 0 12 16" version="1.1" xmlns="http://www.w3.org/2000/svg" xmlns:xlink="http://www.w3.org/1999/xlink">
    <!-- Generator: Sketch 3.8.3 (29802) - http://www.bohemiancoding.com/sketch -->
    <title>file-symlink-file</title>
    <desc>Created with Sketch.</desc>
    <defs></defs>
    <g id="Octicons" stroke="none" stroke-width="1" fill="none" fill-rule="evenodd">
        <g id="file-symlink-file" fill="#000000">
            <path d="M8.5,1 L1,1 C0.45,1 0,1.45 0,2 L0,14 C0,14.55 0.45,15 1,15 L11,15 C11.55,15 12,14.55 12,14 L12,4.5 L8.5,1 L8.5,1 Z M11,14 L1,14 L1,2 L8,2 L11,5 L11,14 L11,14 Z M6,4.5 L10,7.5 L6,10.5 L6,8.5 C5.02,8.48 4.16,8.72 3.45,9.2 C2.74,9.68 2.26,10.45 2,11.5 C2.02,9.86 2.39,8.62 3.13,7.77 C3.86,6.93 4.82,6.5 6.01,6.5 L6.01,4.5 L6,4.5 Z" id="Shape"></path>
        </g>
    </g>
</svg>