<?xml version="1.0" encoding="UTF-8" standalone="no"?>
<svg width="14px" height="16px" viewBox="0 0 14 16" version="1.1" xmlns="http://www.w3.org/2000/svg" xmlns:xlink="http://www.w3.org/1999/xlink">
    <!-- Generator: Sketch 3.8.3 (29802) - http://www.bohemiancoding.com/sketch -->
    <title>file-symlink-directory</title>
    <desc>Created with Sketch.</desc>
    <defs></defs>
    <g id="Octicons" stroke="none" stroke-width="1" fill="none" fill-rule="evenodd">
        <g id="file-symlink-directory" fill="#000000">
            <path d="M13,4 L7,4 L7,3 C7,2.34 6.69,2 6,2 L1,2 C0.45,2 0,2.45 0,3 L0,13 C0,13.55 0.45,14 1,14 L13,14 C13.55,14 14,13.55 14,13 L14,5 C14,4.45 13.55,4 13,4 L13,4 Z M1,3 L6,3 L6,4 L1,4 L1,3 L1,3 Z M7,12 L7,10 C6.02,9.98 5.16,10.22 4.45,10.7 C3.74,11.18 3.26,11.95 3,13 C3.02,11.36 3.39,10.12 4.13,9.27 C4.86,8.43 5.82,8 7.01,8 L7.01,6 L11.01,9 L7.01,12 L7,12 Z" id="Shape"></path>
        </g>
    </g>
</svg>