<?xml version="1.0" encoding="UTF-8" standalone="no"?>
<svg width="14px" height="16px" viewBox="0 0 14 16" version="1.1" xmlns="http://www.w3.org/2000/svg" xmlns:xlink="http://www.w3.org/1999/xlink">
    <!-- Generator: Sketch 3.8.3 (29802) - http://www.bohemiancoding.com/sketch -->
    <title>gear</title>
    <desc>Created with Sketch.</desc>
    <defs></defs>
    <g id="Octicons" stroke="none" stroke-width="1" fill="none" fill-rule="evenodd">
        <g id="gear" fill="#000000">
            <path d="M14,8.77 L14,7.17 L12.06,6.53 L11.61,5.44 L12.49,3.6 L11.36,2.47 L9.55,3.38 L8.46,2.93 L7.77,1.01 L6.17,1.01 L5.54,2.95 L4.43,3.4 L2.59,2.52 L1.46,3.65 L2.37,5.46 L1.92,6.55 L0,7.23 L0,8.82 L1.94,9.46 L2.39,10.55 L1.51,12.39 L2.64,13.52 L4.45,12.61 L5.54,13.06 L6.23,14.98 L7.82,14.98 L8.45,13.04 L9.56,12.59 L11.4,13.47 L12.53,12.34 L11.61,10.53 L12.08,9.44 L14,8.75 L14,8.77 Z M7,11 C5.34,11 4,9.66 4,8 C4,6.34 5.34,5 7,5 C8.66,5 10,6.34 10,8 C10,9.66 8.66,11 7,11 L7,11 Z" id="Shape"></path>
        </g>
    </g>
</svg>