<?xml version="1.0" encoding="UTF-8"?>
<svg width="14px" height="16px" viewBox="0 0 14 16" version="1.1" xmlns="http://www.w3.org/2000/svg" xmlns:xlink="http://www.w3.org/1999/xlink">
    <!-- Generator: Sketch 40.3 (33839) - http://www.bohemiancoding.com/sketch -->
    <title>gift</title>
    <desc>Created with Sketch.</desc>
    <defs></defs>
    <g id="Octicons" stroke="none" stroke-width="1" fill="none" fill-rule="evenodd">
        <g id="gift" fill="#000000">
            <path d="M13,4 L11.62,4 C11.81,3.67 11.95,3.33 11.98,3.09 C12.04,2.42 11.87,1.87 11.46,1.48 C11.1,1.1 10.65,1 10.1,1 L9.99,1 C9.46,1.02 8.88,1.25 8.46,1.58 C8.04,1.91 7.73,2.3 7.49,2.78 C7.26,2.3 6.94,1.9 6.52,1.58 C6.1,1.26 5.52,1 4.99,1 L4.96,1 C4.4,1 3.9,1.09 3.52,1.48 C3.11,1.87 2.94,2.42 3,3.09 C3.03,3.32 3.17,3.67 3.36,4 L1.98,4 C1.43,4 0.98,4.45 0.98,5 L0.98,8 L1.98,8 L1.98,13 C1.98,13.55 2.43,14 2.98,14 L11.98,14 C12.53,14 12.98,13.55 12.98,13 L12.98,8 L13.98,8 L13.98,5 C13.98,4.45 13.53,4 12.98,4 L13,4 Z M8.22,3.12 C8.39,2.76 8.64,2.45 8.97,2.2 C9.27,1.97 9.69,1.81 10.02,1.79 L10.11,1.79 C10.56,1.79 10.77,1.9 10.91,2.04 C11.05,2.18 11.24,2.43 11.21,2.99 C11.16,3.18 10.96,3.6 10.71,3.99 L7.81,3.99 L8.22,3.11 L8.22,3.12 Z M4.09,2.04 C4.22,1.91 4.4,1.79 5,1.79 C5.31,1.79 5.72,1.96 6.03,2.2 C6.36,2.45 6.61,2.75 6.78,3.12 L7.2,4 L4.3,4 C4.05,3.61 3.85,3.19 3.8,3 C3.77,2.44 3.96,2.19 4.1,2.05 L4.09,2.04 Z M7,12.99 L3,12.99 L3,8 L7,8 L7,13 L7,12.99 Z M7,6.99 L2,6.99 L2,5 L7,5 L7,7 L7,6.99 Z M12,12.99 L8,12.99 L8,8 L12,8 L12,13 L12,12.99 Z M13,6.99 L8,6.99 L8,5 L13,5 L13,7 L13,6.99 Z" id="Shape"></path>
        </g>
    </g>
</svg>