<?xml version="1.0" encoding="UTF-8"?>
<svg width="14px" height="16px" viewBox="0 0 14 16" version="1.1" xmlns="http://www.w3.org/2000/svg" xmlns:xlink="http://www.w3.org/1999/xlink">
    <!-- Generator: Sketch 40.3 (33839) - http://www.bohemiancoding.com/sketch -->
    <title>inbox</title>
    <desc>Created with Sketch.</desc>
    <defs></defs>
    <g id="Octicons" stroke="none" stroke-width="1" fill="none" fill-rule="evenodd">
        <g id="inbox" fill="#000000">
            <path d="M14,9 L12.87,1.86 C12.79,1.38 12.37,1 11.87,1 L2.13,1 C1.63,1 1.21,1.38 1.13,1.86 L0,9 L0,14 C0,14.55 0.45,15 1,15 L13,15 C13.55,15 14,14.55 14,14 L14,9 L14,9 Z M10.72,9.55 L10.28,10.44 C10.11,10.78 9.76,11 9.37,11 L4.61,11 C4.23,11 3.89,10.78 3.72,10.45 L3.28,9.54 C3.11,9.21 2.76,8.99 2.39,8.99 L1,8.99 L2,1.99 L12,1.99 L13,8.99 L11.62,8.99 C11.23,8.99 10.89,9.21 10.71,9.54 L10.72,9.55 Z" id="Shape"></path>
        </g>
    </g>
</svg>