<?xml version="1.0" encoding="UTF-8" standalone="no"?>
<svg width="14px" height="16px" viewBox="0 0 14 16" version="1.1" xmlns="http://www.w3.org/2000/svg" xmlns:xlink="http://www.w3.org/1999/xlink">
    <!-- Generator: Sketch 3.8.3 (29802) - http://www.bohemiancoding.com/sketch -->
    <title>issue-reopened</title>
    <desc>Created with Sketch.</desc>
    <defs></defs>
    <g id="Octicons" stroke="none" stroke-width="1" fill="none" fill-rule="evenodd">
        <g id="issue-reopened" fill="#000000">
            <path d="M8,9 L6,9 L6,4 L8,4 L8,9 L8,9 Z M6,12 L8,12 L8,10 L6,10 L6,12 L6,12 Z M12.33,10 L10,10 L11.5,11.5 C10.45,12.83 8.83,13.7 7,13.7 C3.86,13.7 1.3,11.14 1.3,8 C1.3,7.66 1.33,7.33 1.39,7 L0.08,7 C0.03,7.33 0,7.66 0,8 C0,11.86 3.14,15 7,15 C9.19,15 11.13,13.98 12.41,12.41 L14,14 L14,10 L12.33,10 L12.33,10 Z M1.67,6 L4,6 L2.5,4.5 C3.55,3.17 5.17,2.3 7,2.3 C10.14,2.3 12.7,4.86 12.7,8 C12.7,8.34 12.67,8.67 12.61,9 L13.92,9 C13.97,8.67 14,8.34 14,8 C14,4.14 10.86,1 7,1 C4.81,1 2.87,2.02 1.59,3.59 L0,2 L0,6 L1.67,6 L1.67,6 Z" id="Shape"></path>
        </g>
    </g>
</svg>