<?xml version="1.0" encoding="UTF-8"?>
<svg width="14px" height="16px" viewBox="0 0 14 16" version="1.1" xmlns="http://www.w3.org/2000/svg" xmlns:xlink="http://www.w3.org/1999/xlink">
    <!-- Generator: Sketch 40.3 (33839) - http://www.bohemiancoding.com/sketch -->
    <title>jersey</title>
    <desc>Created with Sketch.</desc>
    <defs></defs>
    <g id="Octicons" stroke="none" stroke-width="1" fill="none" fill-rule="evenodd">
        <g id="jersey" fill="#000000">
            <path d="M4.5,6 L4,6.5 L4,11.5 L4.5,12 L6.5,12 L7,11.5 L7,6.5 L6.5,6 L4.5,6 L4.5,6 Z M6,11 L5,11 L5,7 L6,7 L6,11 L6,11 Z M12.27,3.75 C12.05,2.37 11.96,1.12 12,0 L9.02,0 C9.02,0.27 8.89,0.48 8.63,0.69 C8.38,0.89 8,0.99 7.5,0.99 C7,0.99 6.62,0.9 6.37,0.69 C6.14,0.49 6.01,0.27 6.01,0 L3,0 C3.05,1.13 2.97,2.38 2.75,3.75 C2.55,5.13 1.95,5.88 1,6 L1,15 C1.02,15.27 1.11,15.48 1.31,15.69 C1.51,15.9 1.73,15.99 2,16 L13,16 C13.27,15.98 13.48,15.89 13.69,15.69 C13.9,15.49 13.99,15.27 14,15 L14,6 C13.05,5.87 12.47,5.12 12.25,3.75 L12.27,3.75 Z M13,15 L2,15 L2,7 C2.89,6.5 3.48,5.75 3.72,4.75 C3.96,3.75 4.03,2.5 4,1 L5,1 C4.98,1.78 5.16,2.47 5.52,3.06 C5.88,3.64 6.54,3.95 7.52,4 C8.5,3.98 9.16,3.67 9.52,3.06 C9.88,2.47 10.02,1.78 10,1 L11,1 C11.02,2.42 11.13,3.55 11.33,4.38 C11.53,5.19 12.02,6.38 13,7.01 L13,15.01 L13,15 Z M8.5,6 L8,6.5 L8,11.5 L8.5,12 L10.5,12 L11,11.5 L11,6.5 L10.5,6 L8.5,6 L8.5,6 Z M10,11 L9,11 L9,7 L10,7 L10,11 L10,11 Z" id="Shape"></path>
        </g>
    </g>
</svg>