<?xml version="1.0" encoding="UTF-8"?>
<svg width="3px" height="16px" viewBox="0 0 3 16" version="1.1" xmlns="http://www.w3.org/2000/svg" xmlns:xlink="http://www.w3.org/1999/xlink">
    <!-- Generator: Sketch 46 (44423) - http://www.bohemiancoding.com/sketch -->
    <title>kebab-vertical</title>
    <desc>Created with Sketch.</desc>
    <defs></defs>
    <g id="Octicons" stroke="none" stroke-width="1" fill="none" fill-rule="evenodd">
        <g id="kebab-vertical" fill="#000000">
            <path d="M-4.4408921e-16,2.5 C0,1.67157288 0.671572875,1 1.5,1 C2.32842712,1 3,1.67157288 3,2.5 C3,3.32842712 2.32842712,4 1.5,4 C0.671572875,4 -4.4408921e-16,3.32842712 -4.4408921e-16,2.5 Z M-4.4408921e-16,7.5 C0,6.67157288 0.671572875,6 1.5,6 C2.32842712,6 3,6.67157288 3,7.5 C3,8.32842712 2.32842712,9 1.5,9 C0.671572875,9 -4.4408921e-16,8.32842712 -4.4408921e-16,7.5 Z M-4.4408921e-16,12.5 C0,11.6715729 0.671572875,11 1.5,11 C2.32842712,11 3,11.6715729 3,12.5 C3,13.3284271 2.32842712,14 1.5,14 C0.671572875,14 -4.4408921e-16,13.3284271 -4.4408921e-16,12.5 Z" id="Shape"></path>
        </g>
    </g>
</svg>