<?xml version="1.0" encoding="UTF-8"?>
<svg width="13px" height="16px" viewBox="0 0 13 16" version="1.1" xmlns="http://www.w3.org/2000/svg" xmlns:xlink="http://www.w3.org/1999/xlink">
    <!-- Generator: Sketch 46 (44423) - http://www.bohemiancoding.com/sketch -->
    <title>kebab-horizontal</title>
    <desc>Created with Sketch.</desc>
    <defs></defs>
    <g id="Octicons" stroke="none" stroke-width="1" fill="none" fill-rule="evenodd">
        <g id="kebab-horizontal" fill="#000000">
            <path d="M1.5,9 C0.671572875,9 0,8.32842712 0,7.5 C0,6.67157288 0.671572875,6 1.5,6 C2.32842712,6 3,6.67157288 3,7.5 C3,8.32842712 2.32842712,9 1.5,9 Z M6.5,9 C5.67157288,9 5,8.32842712 5,7.5 C5,6.67157288 5.67157288,6 6.5,6 C7.32842712,6 8,6.67157288 8,7.5 C8,8.32842712 7.32842712,9 6.5,9 Z M11.5,9 C10.6715729,9 10,8.32842712 10,7.5 C10,6.67157288 10.6715729,6 11.5,6 C12.3284271,6 13,6.67157288 13,7.5 C13,8.32842712 12.3284271,9 11.5,9 Z" id="Shape"></path>
        </g>
    </g>
</svg>