<?xml version="1.0" encoding="UTF-8"?>
<svg width="16px" height="16px" viewBox="0 0 16 16" version="1.1" xmlns="http://www.w3.org/2000/svg" xmlns:xlink="http://www.w3.org/1999/xlink">
    <!-- Generator: Sketch 40.3 (33839) - http://www.bohemiancoding.com/sketch -->
    <title>keyboard</title>
    <desc>Created with Sketch.</desc>
    <defs></defs>
    <g id="Octicons" stroke="none" stroke-width="1" fill="none" fill-rule="evenodd">
        <g id="keyboard" fill="#000000">
            <path d="M10,5 L9,5 L9,4 L10,4 L10,5 L10,5 Z M3,6 L2,6 L2,7 L3,7 L3,6 L3,6 Z M8,4 L7,4 L7,5 L8,5 L8,4 L8,4 Z M4,4 L2,4 L2,5 L4,5 L4,4 L4,4 Z M12,11 L14,11 L14,10 L12,10 L12,11 L12,11 Z M8,7 L9,7 L9,6 L8,6 L8,7 L8,7 Z M4,10 L2,10 L2,11 L4,11 L4,10 L4,10 Z M12,4 L11,4 L11,5 L12,5 L12,4 L12,4 Z M14,4 L13,4 L13,5 L14,5 L14,4 L14,4 Z M12,9 L14,9 L14,6 L12,6 L12,9 L12,9 Z M16,3 L16,12 C16,12.55 15.55,13 15,13 L1,13 C0.45,13 0,12.55 0,12 L0,3 C0,2.45 0.45,2 1,2 L15,2 C15.55,2 16,2.45 16,3 L16,3 Z M15,3 L1,3 L1,12 L15,12 L15,3 L15,3 Z M6,7 L7,7 L7,6 L6,6 L6,7 L6,7 Z M6,4 L5,4 L5,5 L6,5 L6,4 L6,4 Z M4,7 L5,7 L5,6 L4,6 L4,7 L4,7 Z M5,11 L11,11 L11,10 L5,10 L5,11 L5,11 Z M10,7 L11,7 L11,6 L10,6 L10,7 L10,7 Z M3,8 L2,8 L2,9 L3,9 L3,8 L3,8 Z M8,8 L8,9 L9,9 L9,8 L8,8 L8,8 Z M6,8 L6,9 L7,9 L7,8 L6,8 L6,8 Z M5,8 L4,8 L4,9 L5,9 L5,8 L5,8 Z M10,9 L11,9 L11,8 L10,8 L10,9 L10,9 Z" id="Shape"></path>
        </g>
    </g>
</svg>