<?xml version="1.0" encoding="UTF-8"?>
<svg width="12px" height="16px" viewBox="0 0 12 16" version="1.1" xmlns="http://www.w3.org/2000/svg" xmlns:xlink="http://www.w3.org/1999/xlink">
    <!-- Generator: Sketch 40.3 (33839) - http://www.bohemiancoding.com/sketch -->
    <title>light-bulb</title>
    <desc>Created with Sketch.</desc>
    <defs></defs>
    <g id="Octicons" stroke="none" stroke-width="1" fill="none" fill-rule="evenodd">
        <g id="light-bulb" fill="#000000">
            <path d="M6.5,0 C3.48,0 1,2.19 1,5 C1,5.92 1.55,7.25 2,8 C3.34,10.25 3.78,10.78 4,12 L4,13 L9,13 L9,12 C9.22,10.78 9.66,10.25 11,8 C11.45,7.25 12,5.92 12,5 C12,2.19 9.52,0 6.5,0 L6.5,0 Z M10.14,7.48 C9.89,7.92 9.67,8.28 9.47,8.59 C8.61,10 8.22,10.65 8.02,11.82 C8,11.87 8,11.93 8,11.99 L5,11.99 C5,11.93 5,11.86 4.98,11.82 C4.78,10.65 4.39,9.99 3.53,8.59 C3.33,8.28 3.11,7.92 2.86,7.48 C2.44,6.78 2,5.65 2,5 C2,2.8 4.02,1 6.5,1 C7.72,1 8.86,1.42 9.72,2.19 C10.55,2.94 11,3.94 11,5 C11,5.66 10.56,6.78 10.14,7.48 L10.14,7.48 Z M4,14 L9,14 C8.77,15.14 7.7,16 6.5,16 C5.3,16 4.23,15.14 4,14 L4,14 Z" id="Shape"></path>
        </g>
    </g>
</svg>