<?xml version="1.0" encoding="UTF-8"?>
<svg width="45px" height="16px" viewBox="0 0 45 16" version="1.1" xmlns="http://www.w3.org/2000/svg" xmlns:xlink="http://www.w3.org/1999/xlink">
    <!-- Generator: Sketch 40.3 (33839) - http://www.bohemiancoding.com/sketch -->
    <title>logo-github</title>
    <desc>Created with Sketch.</desc>
    <defs></defs>
    <g id="Octicons" stroke="none" stroke-width="1" fill="none" fill-rule="evenodd">
        <g id="logo-github" fill="#000000">
            <path d="M18.53,12.0301 L18.51,12.0301 C18.519,12.0301 18.525,12.0391 18.534,12.0411 C18.535,12.0411 18.539,12.0401 18.54,12.0401 L18.53,12.0301 Z M18.534,12.0411 C18.441,12.0421 18.207,12.0901 17.96,12.0901 C17.18,12.0901 16.91,11.7301 16.91,11.2601 L16.91,8.1301 L18.5,8.1301 C18.59,8.1301 18.66,8.0501 18.66,7.9401 L18.66,6.2401 C18.66,6.1501 18.58,6.0701 18.5,6.0701 L16.91,6.0701 L16.91,3.9601 C16.91,3.8801 16.86,3.8301 16.77,3.8301 L14.61,3.8301 C14.52,3.8301 14.47,3.8801 14.47,3.9601 L14.47,6.1301 C14.47,6.1301 13.38,6.4001 13.31,6.4101 C13.23,6.4301 13.18,6.5001 13.18,6.5801 L13.18,7.9401 C13.18,8.0501 13.26,8.1301 13.35,8.1301 L14.46,8.1301 L14.46,11.4101 C14.46,13.8501 16.16,14.1001 17.32,14.1001 C17.85,14.1001 18.49,13.9301 18.59,13.8801 C18.65,13.8601 18.68,13.7901 18.68,13.7201 L18.68,12.2201 C18.68,12.1211 18.612,12.0551 18.534,12.0411 L18.534,12.0411 Z M42.23,9.8401 C42.23,8.0301 41.5,7.7901 40.73,7.8701 C40.13,7.9101 39.65,8.2101 39.65,8.2101 L39.65,11.7301 C39.65,11.7301 40.14,12.0701 40.87,12.0901 C41.9,12.1201 42.23,11.7501 42.23,9.8401 L42.23,9.8401 Z M44.66,9.6801 C44.66,13.1101 43.55,14.0901 41.61,14.0901 C39.97,14.0901 39.09,13.2601 39.09,13.2601 C39.09,13.2601 39.05,13.7201 39,13.7801 C38.97,13.8401 38.92,13.8601 38.86,13.8601 L37.38,13.8601 C37.28,13.8601 37.19,13.7801 37.19,13.6901 L37.21,2.5801 C37.21,2.4901 37.29,2.4101 37.38,2.4101 L39.51,2.4101 C39.6,2.4101 39.68,2.4901 39.68,2.5801 L39.68,6.3501 C39.68,6.3501 40.5,5.8201 41.7,5.8201 L41.69,5.8001 C42.89,5.8001 44.66,6.2501 44.66,9.6801 L44.66,9.6801 Z M35.94,6.0701 L35.93,6.0701 L33.84,6.0701 C33.73,6.0701 33.67,6.1501 33.67,6.2601 L33.67,11.7001 C33.67,11.7001 33.12,12.0901 32.37,12.0901 C31.62,12.0901 31.4,11.7501 31.4,11.0001 L31.4,6.2501 C31.4,6.1601 31.32,6.0801 31.23,6.0801 L29.09,6.0801 C29,6.0801 28.92,6.1601 28.92,6.2501 L28.92,11.3601 C28.92,13.5601 30.15,14.1101 31.84,14.1101 C33.23,14.1101 34.36,13.3401 34.36,13.3401 C34.36,13.3401 34.41,13.7301 34.44,13.7901 C34.46,13.8401 34.53,13.8801 34.6,13.8801 L35.94,13.8801 C36.05,13.8801 36.11,13.8001 36.11,13.7101 L36.13,6.2401 C36.13,6.1501 36.05,6.0701 35.94,6.0701 L35.94,6.0701 Z M12.24,6.0601 L10.11,6.0601 C10.02,6.0601 9.94,6.1501 9.94,6.2601 L9.94,13.6001 C9.94,13.8001 10.07,13.8701 10.24,13.8701 L12.16,13.8701 C12.36,13.8701 12.41,13.7801 12.41,13.6001 L12.41,6.2401 L12.41,6.2301 C12.41,6.1401 12.33,6.0601 12.24,6.0601 L12.24,6.0601 Z M11.19,2.6801 C10.42,2.6801 9.81,3.2901 9.81,4.0601 C9.81,4.8301 10.42,5.4401 11.19,5.4401 C11.94,5.4401 12.55,4.8301 12.55,4.0601 C12.55,3.2901 11.94,2.6801 11.19,2.6801 L11.19,2.6801 Z M27.68,2.4301 L25.57,2.4301 C25.48,2.4301 25.4,2.5101 25.4,2.6001 L25.4,6.6901 L22.09,6.6901 L22.09,2.6001 C22.09,2.5101 22.01,2.4301 21.92,2.4301 L19.79,2.4301 C19.7,2.4301 19.62,2.5101 19.62,2.6001 L19.62,13.7101 C19.62,13.8001 19.71,13.8801 19.79,13.8801 L21.92,13.8801 C22.01,13.8801 22.09,13.8001 22.09,13.7101 L22.09,8.9601 L25.4,8.9601 L25.38,13.7101 C25.38,13.8001 25.46,13.8801 25.55,13.8801 L27.68,13.8801 C27.77,13.8801 27.85,13.8001 27.85,13.7101 L27.85,2.6001 C27.85,2.5101 27.77,2.4301 27.68,2.4301 L27.68,2.4301 Z M8.81,7.3501 L8.81,13.0901 C8.81,13.1301 8.8,13.2001 8.75,13.2201 C8.75,13.2201 7.5,14.1101 5.44,14.1101 C2.95,14.1101 0,13.3301 0,8.1901 C0,3.0501 2.58,1.9901 5.1,2.0001 C7.28,2.0001 8.16,2.4901 8.3,2.5801 C8.34,2.6301 8.36,2.6701 8.36,2.7201 L7.94,4.5001 C7.94,4.5901 7.85,4.7001 7.74,4.6701 C7.38,4.5601 6.84,4.3401 5.57,4.3401 C4.1,4.3401 2.52,4.7601 2.52,8.0701 C2.52,11.3801 4.02,11.7701 5.1,11.7701 C6.02,11.7701 6.35,11.6601 6.35,11.6601 L6.35,9.3601 L4.88,9.3601 C4.77,9.3601 4.69,9.2801 4.69,9.1901 L4.69,7.3501 C4.69,7.2601 4.77,7.1801 4.88,7.1801 L8.62,7.1801 C8.73,7.1801 8.81,7.2601 8.81,7.3501 L8.81,7.3501 Z" id="Shape"></path>
        </g>
    </g>
</svg>