<?xml version="1.0" encoding="UTF-8"?>
<svg width="25px" height="16px" viewBox="0 0 25 16" version="1.1" xmlns="http://www.w3.org/2000/svg" xmlns:xlink="http://www.w3.org/1999/xlink">
    <!-- Generator: Sketch 40.3 (33839) - http://www.bohemiancoding.com/sketch -->
    <title>logo-gist</title>
    <desc>Created with Sketch.</desc>
    <defs></defs>
    <g id="Octicons" stroke="none" stroke-width="1" fill="none" fill-rule="evenodd">
        <g id="logo-gist" fill="#000000">
            <path d="M4.7,8.73 L7.15,8.73 L7.15,12.75 C6.6,13.02 5.51,13.09 4.62,13.09 C2.06,13.09 1.15,10.89 1.15,8.04 C1.15,5.19 2.06,2.98 4.63,2.98 C5.91,2.98 6.69,3.21 7.91,3.71 L7.91,2.66 C7.27,2.33 6.25,2 4.63,2 C1.13,2 0,4.69 0,8.03 C0,11.37 1.11,14.06 4.63,14.06 C6.27,14.06 7.44,13.79 8.22,13.42 L8.22,7.73 L4.7,7.73 L4.7,8.73 L4.7,8.73 Z M11.09,12.45 L11.09,6.06 L10.04,6.06 L10.04,12.34 C10.04,13.59 10.62,14.06 11.76,14.06 L11.76,13.17 C11.28,13.17 11.09,13.01 11.09,12.47 L11.09,12.45 L11.09,12.45 Z M11.34,3.73 C11.34,3.29 11.01,2.95 10.56,2.95 C10.11,2.95 9.79,3.29 9.79,3.73 C9.79,4.17 10.12,4.51 10.56,4.51 C11,4.51 11.34,4.17 11.34,3.73 L11.34,3.73 Z M15.68,9.42 C14.18,9.29 13.9,8.94 13.9,8.25 C13.9,7.48 14.23,6.91 15.78,6.91 C16.83,6.91 17.44,7.07 18.05,7.27 L18.05,6.33 C17.36,6.03 16.53,5.94 15.8,5.94 C13.6,5.94 12.88,7.14 12.88,8.25 C12.88,9.33 13.35,10.13 15.61,10.33 C17.16,10.46 17.38,10.96 17.38,11.67 C17.38,12.4 16.94,13.09 15.32,13.09 C14.21,13.09 13.46,12.9 12.99,12.73 L12.99,13.67 C13.49,13.87 14.57,14.06 15.32,14.06 C17.7,14.06 18.46,12.86 18.46,11.65 C18.46,10.37 17.93,9.62 15.71,9.42 L15.69,9.42 L15.68,9.42 Z M24.26,6.95 L24.26,6.09 L21.84,6.09 L21.84,3.59 L20.76,3.9 L20.76,6.01 L19.2,6.45 L19.2,6.93 L20.76,6.93 L20.76,11.93 C20.76,13.46 21.95,14.06 23.26,14.06 C23.45,14.06 23.78,14.04 23.95,14.01 L23.95,13.12 C23.76,13.15 23.54,13.15 23.34,13.15 C22.37,13.15 21.84,12.76 21.84,11.81 L21.84,6.94 L24.26,6.94 L24.26,6.96 L24.26,6.95 Z" id="Shape"></path>
        </g>
    </g>
</svg>