<?xml version="1.0" encoding="UTF-8"?>
<svg width="14px" height="16px" viewBox="0 0 14 16" version="1.1" xmlns="http://www.w3.org/2000/svg" xmlns:xlink="http://www.w3.org/1999/xlink">
    <!-- Generator: Sketch 40.3 (33839) - http://www.bohemiancoding.com/sketch -->
    <title>mail</title>
    <desc>Created with Sketch.</desc>
    <defs></defs>
    <g id="Octicons" stroke="none" stroke-width="1" fill="none" fill-rule="evenodd">
        <g id="mail" fill="#000000">
            <path d="M0,4 L0,12 C0,12.55 0.45,13 1,13 L13,13 C13.55,13 14,12.55 14,12 L14,4 C14,3.45 13.55,3 13,3 L1,3 C0.45,3 0,3.45 0,4 L0,4 Z M13,4 L7,9 L1,4 L13,4 L13,4 Z M1,5.5 L5,8.5 L1,11.5 L1,5.5 L1,5.5 Z M2,12 L5.5,9 L7,10.5 L8.5,9 L12,12 L2,12 L2,12 Z M13,11.5 L9,8.5 L13,5.5 L13,11.5 L13,11.5 Z" id="Shape"></path>
        </g>
    </g>
</svg>