<?xml version="1.0" encoding="UTF-8" standalone="no"?>
<svg width="16px" height="16px" viewBox="0 0 16 16" version="1.1" xmlns="http://www.w3.org/2000/svg" xmlns:xlink="http://www.w3.org/1999/xlink">
    <!-- Generator: Sketch 3.8.3 (29802) - http://www.bohemiancoding.com/sketch -->
    <title>markdown</title>
    <desc>Created with Sketch.</desc>
    <defs></defs>
    <g id="Octicons" stroke="none" stroke-width="1" fill="none" fill-rule="evenodd">
        <g id="markdown" fill="#000000">
            <path d="M14.85,3 L1.15,3 C0.52,3 0,3.52 0,4.15 L0,11.84 C0,12.48 0.52,13 1.15,13 L14.84,13 C15.48,13 15.99,12.48 15.99,11.85 L15.99,4.15 C16,3.52 15.48,3 14.85,3 L14.85,3 Z M9,11 L7,11 L7,8 L5.5,9.92 L4,8 L4,11 L2,11 L2,5 L4,5 L5.5,7 L7,5 L9,5 L9,11 L9,11 Z M11.99,11.5 L9.5,8 L11,8 L11,5 L13,5 L13,8 L14.5,8 L11.99,11.5 L11.99,11.5 Z" id="Shape"></path>
        </g>
    </g>
</svg>