<?xml version="1.0" encoding="UTF-8" standalone="no"?>
<svg width="16px" height="16px" viewBox="0 0 16 16" version="1.1" xmlns="http://www.w3.org/2000/svg" xmlns:xlink="http://www.w3.org/1999/xlink">
    <!-- Generator: Sketch 3.8.3 (29802) - http://www.bohemiancoding.com/sketch -->
    <title>megaphone</title>
    <desc>Created with Sketch.</desc>
    <defs></defs>
    <g id="Octicons" stroke="none" stroke-width="1" fill="none" fill-rule="evenodd">
        <g id="megaphone" fill="#000000">
            <path d="M10,1 C9.83,1 9.64,1.05 9.48,1.14 C8.04,2.02 4.5,4.58 3,5 C1.62,5 0,5.67 0,7.5 C0,9.33 1.63,10 3,10 C3.3,10.08 3.64,10.23 4,10.41 L4,15 L6,15 L6,11.55 C7.34,12.41 8.69,13.38 9.48,13.86 C9.64,13.95 9.82,14 10,14 C10.52,14 11,13.58 11,13 L11,2 C11,1.42 10.52,1 10,1 L10,1 Z M10,13 C9.62,12.77 9.11,12.42 8.5,12 C8.34,11.89 8.17,11.78 8,11.66 L8,3.31 C8.16,3.2 8.31,3.11 8.47,3 C9.08,2.59 9.63,2.23 10,2 L10,13 L10,13 Z M12,7 L16,7 L16,8 L12,8 L12,7 L12,7 Z M12,9 L16,11 L16,12 L12,10 L12,9 L12,9 Z M16,3 L16,4 L12,6 L12,5 L16,3 L16,3 Z" id="Shape"></path>
        </g>
    </g>
</svg>