<?xml version="1.0" encoding="UTF-8"?>
<svg width="14px" height="16px" viewBox="0 0 14 16" version="1.1" xmlns="http://www.w3.org/2000/svg" xmlns:xlink="http://www.w3.org/1999/xlink">
    <!-- Generator: Sketch 40.3 (33839) - http://www.bohemiancoding.com/sketch -->
    <title>mention</title>
    <desc>Created with Sketch.</desc>
    <defs></defs>
    <g id="Octicons" stroke="none" stroke-width="1" fill="none" fill-rule="evenodd">
        <g id="mention" fill="#000000">
            <path d="M6.58,15 C7.83,15 9.1,14.69 10.14,14.06 L9.72,13.12 C8.88,13.64 7.83,13.95 6.69,13.95 C3.46,13.95 1.05,11.87 1.05,8.23 C1.05,3.86 4.28,1.05 7.63,1.05 C11.08,1.05 12.85,3.24 12.85,6.25 C12.85,8.64 11.51,10.11 10.35,10.11 C9.3,10.11 8.99,9.38 9.3,7.92 L10.03,4.17 L8.98,4.17 L8.87,4.89 C8.46,4.26 7.93,4.06 7.31,4.06 C5.12,4.06 3.65,6.45 3.65,8.44 C3.65,10.11 4.59,11.05 5.95,11.05 C6.79,11.05 7.62,10.52 8.25,9.8 C8.36,10.74 9.19,11.25 10.23,11.25 C11.9,11.25 14,9.58 14,6.25 C14,2.61 11.59,0 7.83,0 C3.66,0 0,3.33 0,8.33 C0,12.71 2.92,15 6.58,15 L6.58,15 Z M6.27,10 C5.54,10 4.91,9.48 4.91,8.33 C4.91,6.88 5.85,5.11 7.32,5.11 C7.84,5.11 8.16,5.31 8.57,5.94 L8.05,8.96 C7.42,9.69 6.8,10.01 6.27,10.01 L6.27,10 Z" id="Shape"></path>
        </g>
    </g>
</svg>