<?xml version="1.0" encoding="UTF-8"?>
<svg width="14px" height="16px" viewBox="0 0 14 16" version="1.1" xmlns="http://www.w3.org/2000/svg" xmlns:xlink="http://www.w3.org/1999/xlink">
    <!-- Generator: Sketch 40.3 (33839) - http://www.bohemiancoding.com/sketch -->
    <title>milestone</title>
    <desc>Created with Sketch.</desc>
    <defs></defs>
    <g id="Octicons" stroke="none" stroke-width="1" fill="none" fill-rule="evenodd">
        <g id="milestone" fill="#000000">
            <path d="M8,2 L6,2 L6,0 L8,0 L8,2 L8,2 Z M12,7 L2,7 C1.45,7 1,6.55 1,6 L1,4 C1,3.45 1.45,3 2,3 L12,3 L14,5 L12,7 L12,7 Z M8,4 L6,4 L6,6 L8,6 L8,4 L8,4 Z M6,16 L8,16 L8,8 L6,8 L6,16 L6,16 Z" id="Shape"></path>
        </g>
    </g>
</svg>