<?xml version="1.0" encoding="UTF-8"?>
<svg width="16px" height="16px" viewBox="0 0 16 16" version="1.1" xmlns="http://www.w3.org/2000/svg" xmlns:xlink="http://www.w3.org/1999/xlink">
    <!-- Generator: Sketch 40.3 (33839) - http://www.bohemiancoding.com/sketch -->
    <title>octoface</title>
    <desc>Created with Sketch.</desc>
    <defs></defs>
    <g id="Octicons" stroke="none" stroke-width="1" fill="none" fill-rule="evenodd">
        <g id="octoface" fill="#000000">
            <path d="M14.7,5.34 C14.83,5.02 15.25,3.75 14.57,2.03 C14.57,2.03 13.52,1.7 11.13,3.33 C10.13,3.05 9.06,3.01 8,3.01 C6.94,3.01 5.87,3.05 4.87,3.33 C2.48,1.69 1.43,2.03 1.43,2.03 C0.75,3.75 1.17,5.02 1.3,5.34 C0.49,6.21 0,7.33 0,8.69 C0,13.84 3.33,15 7.98,15 C12.63,15 16,13.84 16,8.69 C16,7.33 15.51,6.21 14.7,5.34 L14.7,5.34 Z M8,14.02 C4.7,14.02 2.02,13.87 2.02,10.67 C2.02,9.91 2.4,9.19 3.04,8.6 C4.11,7.62 5.94,8.14 8,8.14 C10.07,8.14 11.88,7.62 12.96,8.6 C13.61,9.19 13.98,9.9 13.98,10.67 C13.98,13.86 11.3,14.02 8,14.02 L8,14.02 Z M5.49,9.01 C4.83,9.01 4.29,9.81 4.29,10.79 C4.29,11.77 4.83,12.58 5.49,12.58 C6.15,12.58 6.69,11.78 6.69,10.79 C6.69,9.8 6.15,9.01 5.49,9.01 L5.49,9.01 Z M10.51,9.01 C9.85,9.01 9.31,9.8 9.31,10.79 C9.31,11.78 9.85,12.58 10.51,12.58 C11.17,12.58 11.71,11.78 11.71,10.79 C11.71,9.8 11.18,9.01 10.51,9.01 L10.51,9.01 Z" id="Shape"></path>
        </g>
    </g>
</svg>