<?xml version="1.0" encoding="UTF-8" standalone="no"?>
<svg width="14px" height="16px" viewBox="0 0 14 16" version="1.1" xmlns="http://www.w3.org/2000/svg" xmlns:xlink="http://www.w3.org/1999/xlink">
    <!-- Generator: Sketch 3.8.3 (29802) - http://www.bohemiancoding.com/sketch -->
    <title>organization</title>
    <desc>Created with Sketch.</desc>
    <defs></defs>
    <g id="Octicons" stroke="none" stroke-width="1" fill="none" fill-rule="evenodd">
        <g id="organization" fill="#000000">
            <path d="M4.75,4.95 C5.3,5.59 6.09,6 7,6 C7.91,6 8.7,5.59 9.25,4.95 C9.59,5.58 10.25,6 11,6 C12.11,6 13,5.11 13,4 C13,2.89 12.11,2 11,2 C10.59,2 10.23,2.13 9.92,2.33 C9.61,1 8.42,0 7,0 C5.58,0 4.39,1 4.08,2.33 C3.77,2.13 3.41,2 3,2 C1.89,2 1,2.89 1,4 C1,5.11 1.89,6 3,6 C3.75,6 4.41,5.58 4.75,4.95 L4.75,4.95 Z M9.95,3.43 C10.15,3.05 10.54,2.79 11,2.79 C11.66,2.79 12.2,3.34 12.2,3.99 C12.2,4.64 11.65,5.19 11,5.19 C10.35,5.19 9.83,4.66 9.81,4.02 C9.87,3.83 9.92,3.63 9.95,3.43 L9.95,3.43 Z M7,0.98 C8.11,0.98 9.02,1.89 9.02,3 C9.02,4.11 8.11,5.02 7,5.02 C5.89,5.02 4.98,4.11 4.98,3 C4.98,1.89 5.89,0.98 7,0.98 L7,0.98 Z M3,5.2 C2.34,5.2 1.8,4.65 1.8,4 C1.8,3.35 2.35,2.8 3,2.8 C3.45,2.8 3.84,3.07 4.05,3.44 C4.08,3.64 4.13,3.85 4.19,4.03 C4.17,4.67 3.66,5.2 3,5.2 L3,5.2 Z M13,6 L1,6 C0.45,6 0,6.45 0,7 L0,10 C0,10.55 0.45,11 1,11 L1,13 C1,13.55 1.45,14 2,14 L3,14 C3.55,14 4,13.55 4,13 L4,12 L5,12 L5,15 C5,15.55 5.45,16 6,16 L8,16 C8.55,16 9,15.55 9,15 L9,12 L10,12 L10,13 C10,13.55 10.45,14 11,14 L12,14 C12.55,14 13,13.55 13,13 L13,11 C13.55,11 14,10.55 14,10 L14,7 C14,6.45 13.55,6 13,6 L13,6 Z M3,13 L2,13 L2,10 L1,10 L1,7 L3,7 L3,13 L3,13 Z M10,11 L9,11 L9,9 L8,9 L8,15 L6,15 L6,9 L5,9 L5,11 L4,11 L4,7 L10,7 L10,11 L10,11 Z M13,10 L12,10 L12,13 L11,13 L11,7 L13,7 L13,10 L13,10 Z" id="Shape"></path>
        </g>
    </g>
</svg>