<?xml version="1.0" encoding="UTF-8" standalone="no"?>
<svg width="14px" height="16px" viewBox="0 0 14 16" version="1.1" xmlns="http://www.w3.org/2000/svg" xmlns:xlink="http://www.w3.org/1999/xlink">
    <!-- Generator: Sketch 3.7.1 (28215) - http://www.bohemiancoding.com/sketch -->
    <title>plug</title>
    <desc>Created with Sketch.</desc>
    <defs></defs>
    <g id="Octicons" stroke="none" stroke-width="1" fill="none" fill-rule="evenodd">
        <g id="plug" fill="#000000">
            <path d="M14,7 L14,6 L10,6 L10,4 L8,4 L8,5 L6,5 C4.97,5 4.23,5.81 4,7 L3,8 C1.34,8 0,9.34 0,11 L0,13 L1,13 L1,11 C1,9.89 1.89,9 3,9 L4,10 C4.25,11.16 4.98,12 6,12 L8,12 L8,13 L10,13 L10,11 L14,11 L14,10 L10,10 L10,7 L14,7 L14,7 Z" id="Shape"></path>
        </g>
    </g>
</svg>