<?xml version="1.0" encoding="UTF-8"?>
<svg width="14px" height="16px" viewBox="0 0 14 16" version="1.1" xmlns="http://www.w3.org/2000/svg" xmlns:xlink="http://www.w3.org/1999/xlink">
    <!-- Generator: Sketch 40.3 (33839) - http://www.bohemiancoding.com/sketch -->
    <title>plug</title>
    <desc>Created with Sketch.</desc>
    <defs></defs>
    <g id="Octicons" stroke="none" stroke-width="1" fill="none" fill-rule="evenodd">
        <g id="plug" fill="#000000">
            <path d="M14,6 L14,5 L10,5 L10,3 L8,3 L8,4 L6,4 C4.97,4 4.23,4.81 4,6 L3,7 C1.34,7 0,8.34 0,10 L0,12 L1,12 L1,10 C1,8.89 1.89,8 3,8 L4,9 C4.25,10.16 4.98,11 6,11 L8,11 L8,12 L10,12 L10,10 L14,10 L14,9 L10,9 L10,6 L14,6 L14,6 Z" id="Shape"></path>
        </g>
    </g>
</svg>