<?xml version="1.0" encoding="UTF-8"?>
<svg width="15px" height="16px" viewBox="0 0 15 16" version="1.1" xmlns="http://www.w3.org/2000/svg" xmlns:xlink="http://www.w3.org/1999/xlink">
    <!-- Generator: Sketch 40.3 (33839) - http://www.bohemiancoding.com/sketch -->
    <title>project</title>
    <desc>Created with Sketch.</desc>
    <defs></defs>
    <g id="Octicons" stroke="none" stroke-width="1" fill="none" fill-rule="evenodd">
        <g id="project" fill="#000000">
            <path d="M10,12 L13,12 L13,2 L10,2 L10,12 L10,12 Z M6,10 L9,10 L9,2 L6,2 L6,10 L6,10 Z M2,14 L5,14 L5,2 L2,2 L2,14 L2,14 Z M1,15 L14,15 L14,1 L1,1 L1,15 L1,15 Z M14,0 L1,0 C0.448,0 0,0.448 0,1 L0,15 C0,15.552 0.448,16 1,16 L14,16 C14.552,16 15,15.552 15,15 L15,1 C15,0.448 14.552,0 14,0 L14,0 L14,0 Z" id="Shape"></path>
        </g>
    </g>
</svg>