<?xml version="1.0" encoding="UTF-8"?>
<svg width="16px" height="16px" viewBox="0 0 16 16" version="1.1" xmlns="http://www.w3.org/2000/svg" xmlns:xlink="http://www.w3.org/1999/xlink">
    <!-- Generator: Sketch 40.3 (33839) - http://www.bohemiancoding.com/sketch -->
    <title>rocket</title>
    <desc>Created with Sketch.</desc>
    <defs></defs>
    <g id="Octicons" stroke="none" stroke-width="1" fill="none" fill-rule="evenodd">
        <g id="rocket" fill="#000000">
            <path d="M12.17,3.83 C11.9,3.56 11.7,3.28 11.54,2.95 C11.38,2.64 11.27,2.29 11.2,1.93 C10.62,2.26 10.04,2.63 9.47,3.06 C8.89,3.5 8.33,4 7.78,4.54 C7.08,5.24 6.45,6.35 6,6.99 L3,6.99 L0,10 L3,10 L5,8 C4.66,8.77 3.98,10.98 4,11 L5,12 C5.02,12.02 7.23,11.36 8,11 L6,13 L6,16 L9,13 L9,10 C9.64,9.55 10.75,8.91 11.45,8.22 C12,7.67 12.5,7.09 12.92,6.52 C13.36,5.94 13.73,5.36 14.06,4.8 C13.7,4.72 13.36,4.61 13.03,4.46 C12.72,4.3 12.44,4.1 12.17,3.83 M16,0 C16,0 15.91,0.38 15.7,1.06 C15.5,1.76 15.15,2.64 14.64,3.72 C13.94,3.64 13.37,3.39 12.98,3 C12.59,2.61 12.35,2.06 12.28,1.36 C13.36,0.84 14.23,0.48 14.92,0.28 C15.62,0.08 16,0 16,0" id="Shape"></path>
        </g>
    </g>
</svg>