<?xml version="1.0" encoding="UTF-8"?>
<svg width="14px" height="16px" viewBox="0 0 14 16" version="1.1" xmlns="http://www.w3.org/2000/svg" xmlns:xlink="http://www.w3.org/1999/xlink">
    <!-- Generator: Sketch 40.3 (33839) - http://www.bohemiancoding.com/sketch -->
    <title>screen-normal</title>
    <desc>Created with Sketch.</desc>
    <defs></defs>
    <g id="Octicons" stroke="none" stroke-width="1" fill="none" fill-rule="evenodd">
        <g id="screen-normal" fill="#000000">
            <path d="M2,4 L0,4 L0,3 L2,3 L2,1 L3,1 L3,3 C3,3.546875 2.546875,4 2,4 L2,4 L2,4 Z M2,12 L0,12 L0,13 L2,13 L2,15 L3,15 L3,13 C3,12.453125 2.546875,12 2,12 L2,12 L2,12 Z M11,10 C11,10.546875 10.546875,11 10,11 L4,11 C3.453125,11 3,10.546875 3,10 L3,6 C3,5.453125 3.453125,5 4,5 L10,5 C10.546875,5 11,5.453125 11,6 L11,10 L11,10 L11,10 Z M9,7 L5,7 L5,9 L9,9 L9,7 L9,7 L9,7 Z M11,13 L11,15 L12,15 L12,13 L14,13 L14,12 L12,12 C11.453125,12 11,12.453125 11,13 L11,13 L11,13 Z M12,3 L12,1 L11,1 L11,3 C11,3.546875 11.453125,4 12,4 L14,4 L14,3 L12,3 L12,3 L12,3 Z" id="Shape"></path>
        </g>
    </g>
</svg>