<?xml version="1.0" encoding="UTF-8"?>
<svg width="14px" height="16px" viewBox="0 0 14 16" version="1.1" xmlns="http://www.w3.org/2000/svg" xmlns:xlink="http://www.w3.org/1999/xlink">
    <!-- Generator: Sketch 40.3 (33839) - http://www.bohemiancoding.com/sketch -->
    <title>sign-in</title>
    <desc>Created with Sketch.</desc>
    <defs></defs>
    <g id="Octicons" stroke="none" stroke-width="1" fill="none" fill-rule="evenodd">
        <g id="sign-in" fill="#000000">
            <path d="M7,6.75 L7,12 L11,12 L11,8 L12,8 L12,12 C12,12.55 11.55,13 11,13 L7,13 L7,16 L1.55,13.28 C1.22,13.11 1,12.76 1,12.37 L1,1 C1,0.45 1.45,0 2,0 L11,0 C11.55,0 12,0.45 12,1 L12,4 L11,4 L11,1 L3,1 L7,3 L7,5.25 L10,3 L10,5 L14,5 L14,7 L10,7 L10,9 L7,6.75 L7,6.75 Z" id="Shape"></path>
        </g>
    </g>
</svg>