<?xml version="1.0" encoding="UTF-8" standalone="no"?>
<svg width="18px" height="16px" viewBox="0 0 18 16" version="1.1" xmlns="http://www.w3.org/2000/svg" xmlns:xlink="http://www.w3.org/1999/xlink">
    <!-- Generator: Sketch 3.8.3 (29802) - http://www.bohemiancoding.com/sketch -->
    <title>text-size</title>
    <desc>Created with Sketch.</desc>
    <defs></defs>
    <g id="Octicons" stroke="none" stroke-width="1" fill="none" fill-rule="evenodd">
        <g id="text-size" fill="#000000">
            <path d="M13.62,9.08 L12.1,3.66 L12.04,3.66 L10.54,9.08 L13.62,9.08 Z M5.7,10.13 C5.7,10.13 4.68,6.52 4.53,6.02 L4.45,6.02 L3.32,10.13 L5.7,10.13 Z M17.31,14 L15.06,14 L14.11,10.75 L10.04,10.75 L9.09,14 L6.84,14 L6.15,11.67 L2.87,11.67 L2.17,14 L0,14 L3.3,4.41 L5.8,4.41 L7.97,10.75 L10.86,2 L13.38,2 L17.32,14 L17.31,14 Z" id="Shape"></path>
        </g>
    </g>
</svg>