<?xml version="1.0" encoding="UTF-8"?>
<svg width="16px" height="16px" viewBox="0 0 16 16" version="1.1" xmlns="http://www.w3.org/2000/svg" xmlns:xlink="http://www.w3.org/1999/xlink">
    <!-- Generator: Sketch 40.3 (33839) - http://www.bohemiancoding.com/sketch -->
    <title>thumbsup</title>
    <desc>Created with Sketch.</desc>
    <defs></defs>
    <g id="Octicons" stroke="none" stroke-width="1" fill="none" fill-rule="evenodd">
        <g id="thumbsup" fill="#000000">
            <path d="M14,14 C13.95,14.69 12.73,15 12,15 L5.67,15 L4,14 L4,8 C5.36,8 6.11,7.25 7.13,6.12 C8.36,4.76 8.27,3.56 8.01,1.99 C7.93,1.49 8.51,0.99 9.01,0.99 C9.84,0.99 11.01,3.72 11.01,4.99 L10.99,6.02 C10.99,6.71 11.32,6.99 12.01,6.99 L14.01,6.99 C14.64,6.99 14.99,7.35 15.01,7.99 L14.01,13.99 L14,14 Z M14,6 L12,6 L11.98,6 L12,5.02 C12,3.72 10.83,0 9,0 C8.42,0 7.83,0.3 7.44,0.77 C7.08,1.18 6.94,1.68 7.02,2.18 C7.27,3.66 7.3,4.46 6.39,5.46 C5.39,6.55 4.91,7.01 4,7.01 L2,7.01 C0.94,7 0,7.94 0,9 L0,13 C0,14.06 0.94,15 2,15 L3.72,15 L5.16,15.86 C5.32,15.95 5.49,16 5.68,16 L12.01,16 C13.14,16 14.85,15.5 15.01,14.12 L15.99,8.17 C16.01,8.09 16.01,8.03 16.01,7.97 C15.98,6.8 15.17,6 14.01,6 L14,6 Z" id="Shape"></path>
        </g>
    </g>
</svg>