<?xml version="1.0" encoding="UTF-8"?>
<svg width="14px" height="16px" viewBox="0 0 14 16" version="1.1" xmlns="http://www.w3.org/2000/svg" xmlns:xlink="http://www.w3.org/1999/xlink">
    <!-- Generator: Sketch 40.3 (33839) - http://www.bohemiancoding.com/sketch -->
    <title>unfold</title>
    <desc>Created with Sketch.</desc>
    <defs></defs>
    <g id="Octicons" stroke="none" stroke-width="1" fill="none" fill-rule="evenodd">
        <g id="unfold" fill="#000000">
            <path d="M11.5,7.5 L14,10 C14,10.55 13.55,11 13,11 L9,11 L9,10 L12.5,10 L10.5,8 L3.5,8 L1.5,10 L5,10 L5,11 L1,11 C0.45,11 0,10.55 0,10 L2.5,7.5 L0,5 C0,4.45 0.45,4 1,4 L5,4 L5,5 L1.5,5 L3.5,7 L10.5,7 L12.5,5 L9,5 L9,4 L13,4 C13.55,4 14,4.45 14,5 L11.5,7.5 L11.5,7.5 Z M6,6 L8,6 L8,3 L10,3 L7,0 L4,3 L6,3 L6,6 L6,6 Z M8,9 L6,9 L6,12 L4,12 L7,15 L10,12 L8,12 L8,9 L8,9 Z" id="Shape"></path>
        </g>
    </g>
</svg>