<?xml version="1.0" encoding="UTF-8"?>
<svg width="16px" height="16px" viewBox="0 0 16 16" version="1.1" xmlns="http://www.w3.org/2000/svg" xmlns:xlink="http://www.w3.org/1999/xlink">
    <!-- Generator: Sketch 40.3 (33839) - http://www.bohemiancoding.com/sketch -->
    <title>unmute</title>
    <desc>Created with Sketch.</desc>
    <defs></defs>
    <g id="Octicons" stroke="none" stroke-width="1" fill="none" fill-rule="evenodd">
        <g id="unmute" fill="#000000">
            <path d="M12,8.02 C12,9.11 11.55,10.11 10.83,10.85 L10.16,10.18 C10.71,9.62 11.05,8.87 11.05,8.02 C11.05,7.17 10.71,6.41 10.16,5.86 L10.83,5.19 C11.55,5.91 12,6.91 12,8.02 L12,8.02 Z M7.72,2.28 L4,6 L2,6 C1.45,6 1,6.45 1,7 L1,9 C1,9.55 1.45,10 2,10 L4,10 L7.72,13.72 C8.19,14.19 9,13.86 9,13.19 L9,2.81 C9,2.14 8.19,1.81 7.72,2.28 L7.72,2.28 Z M13.66,2.36 L12.99,3.03 C14.27,4.31 15.05,6.06 15.05,8.01 C15.05,9.95 14.27,11.71 12.99,12.99 L13.66,13.66 C15.11,12.21 16,10.21 16,8 C16,5.78 15.11,3.78 13.66,2.34 L13.66,2.36 Z M12.25,3.77 L11.56,4.44 C12.48,5.36 13.04,6.63 13.04,8.02 C13.04,9.41 12.48,10.68 11.56,11.58 L12.25,12.25 C13.33,11.17 14,9.67 14,8.02 C14,6.37 13.33,4.86 12.25,3.77 L12.25,3.77 Z" id="Shape"></path>
        </g>
    </g>
</svg>