<?xml version="1.0" encoding="UTF-8"?>
<svg width="14px" height="16px" viewBox="0 0 14 16" version="1.1" xmlns="http://www.w3.org/2000/svg" xmlns:xlink="http://www.w3.org/1999/xlink">
    <!-- Generator: Sketch 40.3 (33839) - http://www.bohemiancoding.com/sketch -->
    <title>versions</title>
    <desc>Created with Sketch.</desc>
    <defs></defs>
    <g id="Octicons" stroke="none" stroke-width="1" fill="none" fill-rule="evenodd">
        <g id="versions" fill="#000000">
            <path d="M13,3 L7,3 C6.45,3 6,3.45 6,4 L6,12 C6,12.55 6.45,13 7,13 L13,13 C13.55,13 14,12.55 14,12 L14,4 C14,3.45 13.55,3 13,3 L13,3 Z M12,11 L8,11 L8,5 L12,5 L12,11 L12,11 Z M4,4 L5,4 L5,5 L4,5 L4,11 L5,11 L5,12 L4,12 C3.45,12 3,11.55 3,11 L3,5 C3,4.45 3.45,4 4,4 L4,4 Z M1,5 L2,5 L2,6 L1,6 L1,10 L2,10 L2,11 L1,11 C0.45,11 0,10.55 0,10 L0,6 C0,5.45 0.45,5 1,5 L1,5 Z" id="Shape"></path>
        </g>
    </g>
</svg>