<?xml version="1.0" encoding="UTF-8" standalone="no"?>
<svg width="12px" height="16px" viewBox="0 0 12 16" version="1.1" xmlns="http://www.w3.org/2000/svg" xmlns:xlink="http://www.w3.org/1999/xlink">
    <!-- Generator: Sketch 3.8.3 (29802) - http://www.bohemiancoding.com/sketch -->
    <title>file-zip</title>
    <desc>Created with Sketch.</desc>
    <defs></defs>
    <g id="Octicons" stroke="none" stroke-width="1" fill="none" fill-rule="evenodd">
        <g id="file-zip" fill="#010101">
            <path d="M8.5,1 L1,1 C0.44771525,1 0,1.44771525 0,2 L0,14 C0,14.5522847 0.44771525,15 1,15 L11,15 C11.5522847,15 12,14.5522847 12,14 L12,4.5 L8.5,1 Z M11,14 L1,14 L1,2 L4,2 L4,3 L5,3 L5,2 L8,2 L11,5 L11,14 L11,14 Z M5,4 L5,3 L6,3 L6,4 L5,4 L5,4 Z M4,4 L5,4 L5,5 L4,5 L4,4 L4,4 Z M5,6 L5,5 L6,5 L6,6 L5,6 L5,6 Z M4,6 L5,6 L5,7 L4,7 L4,6 L4,6 Z M5,8 L5,7 L6,7 L6,8 L5,8 L5,8 Z M4,9.28 C3.38491093,9.63510459 3.00428692,10.2897779 3,11 L3,12 L7,12 L7,11 C7,9.8954305 6.1045695,9 5,9 L5,8 L4,8 L4,9.28 L4,9.28 Z M6,10 L6,11 L4,11 L4,10 L6,10 L6,10 Z" id="Shape"></path>
        </g>
    </g>
</svg>