<?xml version="1.0" encoding="UTF-8" standalone="no"?>
<svg width="16px" height="16px" viewBox="0 0 16 16" version="1.1" xmlns="http://www.w3.org/2000/svg" xmlns:xlink="http://www.w3.org/1999/xlink">
    <!-- Generator: Sketch 3.8.3 (29802) - http://www.bohemiancoding.com/sketch -->
    <title>mirror</title>
    <desc>Created with Sketch.</desc>
    <defs></defs>
    <g id="Octicons" stroke="none" stroke-width="1" fill="none" fill-rule="evenodd">
        <g id="mirror" fill="#000000">
            <path d="M15.5,4.7 L8.5,0 L1.5,4.7 C1.2,4.89 1,5.15 1,5.5 L1,16 L8.5,12 L16,16 L16,5.5 C16,5.16 15.8,4.89 15.5,4.7 L15.5,4.7 Z M15,14.5 L9,11.25 L9,10 L8,10 L8,11.25 L2,14.5 L2,5.5 L8,1.5 L8,6 L9,6 L9,1.5 L15,5.5 L15,14.5 L15,14.5 Z M6,7 L11,7 L11,5 L14,8 L11,11 L11,9 L6,9 L6,11 L3,8 L6,5 L6,7 L6,7 Z" id="Shape"></path>
        </g>
    </g>
</svg>