<?xml version="1.0" encoding="UTF-8" standalone="no"?>
<svg width="14px" height="16px" viewBox="0 0 14 16" version="1.1" xmlns="http://www.w3.org/2000/svg" xmlns:xlink="http://www.w3.org/1999/xlink">
    <!-- Generator: Sketch 3.8.3 (29802) - http://www.bohemiancoding.com/sketch -->
    <title>quote</title>
    <desc>Created with Sketch.</desc>
    <defs></defs>
    <g id="Octicons" stroke="none" stroke-width="1" fill="none" fill-rule="evenodd">
        <g id="quote" fill="#000000">
            <path d="M6.16,3.50000004 C3.73,5.06000004 2.55,6.67000004 2.55,9.36000004 C2.71,9.31000004 2.85,9.31000004 2.99,9.31000004 C4.26,9.31000004 5.49,10.17 5.49,11.72 C5.49,13.33 4.46,14.33 2.99,14.33 C1.09,14.33 0,12.81 0,10.08 C0,6.28000004 1.75,3.55000004 5.02,1.66000004 L6.16,3.50000004 L6.16,3.50000004 Z M13.16,3.50000004 C10.73,5.06000004 9.55,6.67000004 9.55,9.36000004 C9.71,9.31000004 9.85,9.31000004 9.99,9.31000004 C11.26,9.31000004 12.49,10.17 12.49,11.72 C12.49,13.33 11.46,14.33 9.99,14.33 C8.1,14.33 7.01,12.81 7.01,10.08 C7.01,6.28000004 8.76,3.55000004 12.03,1.66000004 L13.17,3.50000004 L13.16,3.50000004 Z" id="Shape"></path>
        </g>
    </g>
</svg>