<?xml version="1.0" encoding="UTF-8" standalone="no"?>
<svg width="16px" height="16px" viewBox="0 0 16 16" version="1.1" xmlns="http://www.w3.org/2000/svg" xmlns:xlink="http://www.w3.org/1999/xlink">
    <!-- Generator: Sketch 3.8.3 (29802) - http://www.bohemiancoding.com/sketch -->
    <title>search</title>
    <desc>Created with Sketch.</desc>
    <defs></defs>
    <g id="Octicons" stroke="none" stroke-width="1" fill="none" fill-rule="evenodd">
        <g id="search" fill="#000000">
            <path d="M15.7,13.3 L11.89,9.47 C12.59,8.49 13,7.3 13,6 C13,2.69 10.31,0 7,0 C3.69,0 1,2.69 1,6 C1,9.31 3.69,12 7,12 C8.3,12 9.48,11.59 10.47,10.89 L14.3,14.7 C14.49,14.9 14.75,15 15,15 C15.25,15 15.52,14.91 15.7,14.7 C16.09,14.31 16.09,13.68 15.7,13.29 L15.7,13.3 Z M7,10.7 C4.41,10.7 2.3,8.59 2.3,6 C2.3,3.41 4.41,1.3 7,1.3 C9.59,1.3 11.7,3.41 11.7,6 C11.7,8.59 9.59,10.7 7,10.7 L7,10.7 Z" id="Shape"></path>
        </g>
    </g>
</svg>