<?xml version="1.0" encoding="UTF-8" standalone="no"?>
<svg width="14px" height="16px" viewBox="0 0 14 16" version="1.1" xmlns="http://www.w3.org/2000/svg" xmlns:xlink="http://www.w3.org/1999/xlink">
    <!-- Generator: Sketch 3.8.3 (29802) - http://www.bohemiancoding.com/sketch -->
    <title>tag</title>
    <desc>Created with Sketch.</desc>
    <defs></defs>
    <g id="Octicons" stroke="none" stroke-width="1" fill="none" fill-rule="evenodd">
        <g id="tag" fill="#000000">
            <path d="M7.73,1.73 C7.26,1.26 6.62,1 5.96,1 L3.5,1 C2.13,1 1,2.13 1,3.5 L1,5.97 C1,6.63 1.27,7.27 1.73,7.74 L7.79,13.8 C8.18,14.19 8.81,14.19 9.2,13.8 L13.79,9.21 C14.18,8.82 14.18,8.19 13.79,7.8 L7.73,1.73 L7.73,1.73 Z M2.38,7.09 C2.07,6.79 1.91,6.39 1.91,5.96 L1.91,3.5 C1.91,2.62 2.63,1.91 3.5,1.91 L5.97,1.91 C6.39,1.91 6.8,2.07 7.1,2.38 L13.24,8.51 L8.51,13.24 L2.38,7.09 L2.38,7.09 Z M3.01,3 L5.01,3 L5.01,5 L3,5 L3,3 L3.01,3 Z" id="Shape"></path>
        </g>
    </g>
</svg>