<?xml version="1.0" encoding="UTF-8" standalone="no"?>
<svg width="16px" height="16px" viewBox="0 0 16 16" version="1.1" xmlns="http://www.w3.org/2000/svg" xmlns:xlink="http://www.w3.org/1999/xlink">
    <!-- Generator: Sketch 3.8.3 (29802) - http://www.bohemiancoding.com/sketch -->
    <title>tasklist</title>
    <desc>Created with Sketch.</desc>
    <defs></defs>
    <g id="Octicons" stroke="none" stroke-width="1" fill="none" fill-rule="evenodd">
        <g id="tasklist" fill="#000000">
            <path d="M15.41,9 L7.59,9 C7,9 7,8.59 7,8 C7,7.41 7,7 7.59,7 L15.4,7 C15.99,7 15.99,7.41 15.99,8 C15.99,8.59 15.99,9 15.4,9 L15.41,9 Z M9.59,4 C9,4 9,3.59 9,3 C9,2.41 9,2 9.59,2 L15.4,2 C15.99,2 15.99,2.41 15.99,3 C15.99,3.59 15.99,4 15.4,4 L9.59,4 L9.59,4 Z M0,3.91 L1.41,2.61 L3,4.2 L7.09,0 L8.5,1.41 L3,6.91 L0,3.91 L0,3.91 Z M7.59,12 L15.4,12 C15.99,12 15.99,12.41 15.99,13 C15.99,13.59 15.99,14 15.4,14 L7.59,14 C7,14 7,13.59 7,13 C7,12.41 7,12 7.59,12 L7.59,12 Z" id="Shape"></path>
        </g>
    </g>
</svg>