<?xml version="1.0" encoding="UTF-8" standalone="no"?>
<svg width="16px" height="16px" viewBox="0 0 16 16" version="1.1" xmlns="http://www.w3.org/2000/svg" xmlns:xlink="http://www.w3.org/1999/xlink">
    <!-- Generator: Sketch 3.8.3 (29802) - http://www.bohemiancoding.com/sketch -->
    <title>thumbsdown</title>
    <desc>Created with Sketch.</desc>
    <defs></defs>
    <g id="Octicons" stroke="none" stroke-width="1" fill="none" fill-rule="evenodd">
        <g id="thumbsdown" fill="#000000">
            <path d="M15.98,7.83 L15.01,1.88 C14.84,0.5 13.13,0 12,0 L5.69,0 C5.49,0 5.31,0.05 5.16,0.14 L3.72,1 L2,1 C0.94,1 0,1.94 0,3 L0,7 C0,8.06 0.94,9.02 2,9 L4,9 C4.91,9 5.39,9.45 6.39,10.55 C7.3,11.55 7.27,12.35 7.02,13.82 C6.94,14.32 7.08,14.82 7.44,15.24 C7.83,15.71 8.42,16.01 9,16.01 C10.83,16.01 12,12.29 12,10.99 L11.98,10.01 L12,10.01 L14.02,10.01 C15.18,10.01 15.97,9.21 16,8.04 C16,7.98 16.02,7.91 15.98,7.84 L15.98,7.83 Z M14.01,9.02 L12.02,9.02 C11.32,9.02 10.99,9.3 10.99,9.99 L11.02,11.02 C11.02,12.29 9.85,15.02 9.02,15.02 C8.52,15.02 7.94,14.52 8.02,14.02 C8.27,12.44 8.36,11.24 7.13,9.88 C6.11,8.75 5.36,8 4,8 L4,2 L5.67,1 L12,1 C12.73,1 13.95,1.31 14,2 L14.02,2.02 L15.02,8.02 C14.99,8.66 14.64,9.02 14.02,9.02 L14.01,9.02 Z" id="Shape"></path>
        </g>
    </g>
</svg>