<?xml version="1.0" encoding="UTF-8" standalone="no"?>
<svg width="16px" height="16px" viewBox="0 0 16 16" version="1.1" xmlns="http://www.w3.org/2000/svg" xmlns:xlink="http://www.w3.org/1999/xlink">
    <!-- Generator: Sketch 3.8.3 (29802) - http://www.bohemiancoding.com/sketch -->
    <title>verified</title>
    <desc>Created with Sketch.</desc>
    <defs></defs>
    <g id="Octicons" stroke="none" stroke-width="1" fill="none" fill-rule="evenodd">
        <g id="verified" fill="#000000">
            <path d="M15.67,7.06 L14.59,5.72 C14.42,5.5 14.31,5.24 14.28,4.95 L14.09,3.25 C14.01,2.55 13.46,2 12.76,1.92 L11.06,1.73 C10.76,1.7 10.5,1.57 10.28,1.4 L8.94,0.32 C8.39,-0.12 7.61,-0.12 7.06,0.32 L5.72,1.4 C5.5,1.57 5.24,1.68 4.95,1.71 L3.25,1.9 C2.55,1.98 2,2.53 1.92,3.23 L1.73,4.93 C1.7,5.23 1.57,5.49 1.4,5.71 L0.32,7.05 C-0.12,7.6 -0.12,8.38 0.32,8.93 L1.4,10.27 C1.57,10.49 1.68,10.75 1.71,11.04 L1.9,12.74 C1.98,13.44 2.53,13.99 3.23,14.07 L4.93,14.26 C5.23,14.29 5.49,14.42 5.71,14.59 L7.05,15.67 C7.6,16.11 8.38,16.11 8.93,15.67 L10.27,14.59 C10.49,14.42 10.75,14.31 11.04,14.28 L12.74,14.09 C13.44,14.01 13.99,13.46 14.07,12.76 L14.26,11.06 C14.29,10.76 14.42,10.5 14.59,10.28 L15.67,8.94 C16.11,8.39 16.11,7.61 15.67,7.06 L15.67,7.06 Z M6.5,12 L3,8.5 L4.5,7 L6.5,9 L11.5,4 L13,5.55 L6.5,12 L6.5,12 Z" id="Shape"></path>
        </g>
    </g>
</svg>