<?xml version="1.0" encoding="UTF-8" standalone="no"?>
<svg width="32px" height="32px" viewBox="0 0 32 32" version="1.1" xmlns="http://www.w3.org/2000/svg" xmlns:xlink="http://www.w3.org/1999/xlink">
    <!-- Generator: Sketch 3.8.3 (29802) - http://www.bohemiancoding.com/sketch -->
    <title>m/alert</title>
    <desc>Created with Sketch.</desc>
    <defs></defs>
    <g id="Octicons" stroke="none" stroke-width="1" fill="none" fill-rule="evenodd">
        <g id="m/alert" fill="#020302">
            <path d="M17.2999998,23.8600008 C17.2999998,24.6550008 16.6549998,25.3000008 15.8599998,25.3000008 L15.1399998,25.3000008 C14.3449998,25.3000008 13.6999998,24.6550008 13.6999998,23.8600008 L13.6999998,23.1400008 C13.6999998,22.3450008 14.3449998,21.7000008 15.1399998,21.7000008 L15.8599998,21.7000008 C16.6549998,21.7000008 17.2999998,22.3450008 17.2999998,23.1400008 L17.2999998,23.8600008 Z M14,10.32 C14,9.5907 14.537,9 15.2,9 L15.8,9 C16.463,9 17,9.5907 17,10.32 L17,18.68 C17,19.4093 16.463,20 15.8,20 L15.2,20 C14.537,20 14,19.4093 14,18.68 L14,10.32 Z M30.7214583,25.973353 L17.2471705,2.9976922 C16.4663339,1.66743593 14.5336661,1.66743593 13.7528295,2.9976922 L0.278541698,25.973353 C-0.50812207,27.3152019 0.465010146,29 2.0266834,29 L28.9733166,29 C30.5349899,29 31.5081221,27.3152019 30.7214583,25.973353 L30.7214583,25.973353 Z" id="Shape"></path>
        </g>
    </g>
</svg>