<svg xmlns="http://www.w3.org/2000/svg" width="24" height="24" viewBox="0 0 24 24">
  <defs/>
  <path d="M13.974,8.114 A3.573 3.573 0 1 0 10.027,8.114 C9.725,8.324 9.457,8.581 9.237,8.876 L3.708,8.876 A0.75 0.75 0 1 0 3.708,10.376 L8.593,10.376 A2.93 2.93 0 0 0 8.567,10.564 L7.753,17.831 L7.254,21.973 A0.75 0.75 0 1 0 8.744,22.153 L9.164,18.667 L14.834,18.667 L15.254,22.152 A0.75 0.75 0 0 0 16.744,21.972 L16.244,17.83 L15.431,10.564 A3.502 3.502 0 0 0 15.405,10.376 L20.29,10.376 A0.75 0.75 0 1 0 20.29,8.876 L14.763,8.876 A3.466 3.466 0 0 0 13.973,8.114 Z M14.073,5.135 A2.073 2.073 0 1 1 9.927,5.135 A2.073 2.073 0 0 1 14.073,5.135 Z M13.942,10.731 L14.662,17.167 L9.338,17.167 L10.058,10.731 A1.954 1.954 0 0 1 13.942,10.731 Z"/>
</svg>
