<svg xmlns="http://www.w3.org/2000/svg" width="16" height="16" viewBox="0 0 16 16">
  <defs/>
  <path d="M8,0 A8 8 0 1 1 8,16 A8 8 0 0 1 8,0 Z M3.75,6 A0.75 0.75 0 0 0 3.75,7.5 L6.159,7.5 A1.9 1.9 0 0 0 6.134,7.651 L5.827,10.159 L5.504,13.17 A0.75 0.75 0 0 0 6.996,13.33 L7.246,11 L8.755,11 L9.005,13.33 A0.748 0.748 0 0 0 10.204,13.882 A0.75 0.75 0 0 0 10.495,13.17 L10.175,10.17 L9.866,7.651 A1.9 1.9 0 0 0 9.841,7.5 L12.25,7.5 A0.75 0.75 0 0 0 12.25,6 L3.75,6 Z M8,6 A2 2 0 1 0 8.001,2.001 A2 2 0 0 0 8,6 Z"/>
</svg>
