<svg xmlns="http://www.w3.org/2000/svg" width="16" height="16" viewBox="0 0 16 16">
  <defs/>
  <path d="M9.92300033569336,5.302000045776367 C9.986000061035156,5.364999771118164 10.045000076293945,5.431000232696533 10.10099983215332,5.5 L14,5.5 C14.414213180541992,5.5 14.75,5.83578634262085 14.75,6.25 C14.75,6.66421365737915 14.414213180541992,7 14,7 L10.699999809265137,7 L11.277999877929688,12.163000106811523 L11.640000343322754,15.15999984741211 C11.689705848693848,15.571452140808105 11.396451950073242,15.945294380187988 10.984999656677246,15.994999885559082 C10.963638305664062,15.997580528259277 10.942378044128418,15.999237060546875 10.921258926391602,16 L10.866896629333496,16 C10.504246711730957,15.986857414245605 10.194896697998047,15.71164608001709 10.149999618530273,15.34000015258789 L9.868000030517578,13 L6.131999969482422,13 L5.849999904632568,15.34000015258789 C5.805103302001953,15.71164608001709 5.495754241943359,15.986857414245605 5.133103847503662,16 L5.078741073608398,16 C5.057621955871582,15.999237060546875 5.0363616943359375,15.997580528259277 5.014999866485596,15.994999885559082 C4.603548049926758,15.945294380187988 4.310294151306152,15.571452140808105 4.360000133514404,15.15999984741211 L4.7220001220703125,12.163000106811523 L5.300000190734863,7 L2,7 C1.5857864618301392,7 1.25,6.66421365737915 1.25,6.25 C1.25,5.83578634262085 1.5857864618301392,5.5 2,5.5 L5.900000095367432,5.5 C5.9551825523376465,5.430983543395996 6.0139288902282715,5.364893436431885 6.076000213623047,5.302000045776367 C5.107264995574951,4.492618560791016 4.748841762542725,3.1633987426757812 5.1793389320373535,1.976715087890625 C5.605830669403076,0.8010743260383606 6.716222286224365,0.01453672256320715 7.964293956756592,0 L8.03470516204834,0 C9.282776832580566,0.01453672256320715 10.393169403076172,0.8010743260383606 10.819661140441895,1.976715087890625 C11.250158309936523,3.1633987426757812 10.891735076904297,4.492618560791016 9.92300033569336,5.302000045776367 Z M9.199999809265137,7.072999954223633 L9.199000358581543,7.072999954223633 C9.132743835449219,6.4607391357421875 8.615835189819336,5.9967498779296875 8,5.9967498779296875 C7.384164810180664,5.9967498779296875 6.867255687713623,6.4607391357421875 6.801000118255615,7.072999954223633 L6.304999828338623,11.5 L9.694999694824219,11.5 Z M9.5,3 C9.499723434448242,2.1712968349456787 8.827703475952148,1.4997239112854004 7.999000072479248,1.5 C7.170296669006348,1.5002760887145996 6.498723983764648,2.1722967624664307 6.499000072479248,3.000999927520752 C6.499276161193848,3.8297033309936523 7.1712965965271,4.501276016235352 8,4.500999927520752 C8.828702926635742,4.500723838806152 9.500276565551758,3.8287031650543213 9.5,3 Z"/>
</svg>
