<svg xmlns="http://www.w3.org/2000/svg" width="24" height="24" viewBox="0 0 24 24">
  <defs/>
  <path d="M12,0 C5.373,0 0,5.373 0,12 C0,18.627 5.373,24 12,24 C18.627,24 24,18.627 24,12 C24,5.373 18.627,0 12,0 Z M14.5,6.5 A2.5 2.5 0 1 1 9.5,6.5 A2.5 2.5 0 0 1 14.5,6.5 Z M12,9 L18.375,9 A0.75 0.75 0 0 1 18.375,10.5 L14.347,10.5 L14.889,14.92 L15.371,19.42 A0.75 0.75 0 1 1 13.879,19.58 L13.469,15.75 L10.53,15.75 L10.12,19.58 A0.75 0.75 0 1 1 8.628,19.42 L9.112,14.909 L9.652,10.5 L5.625,10.5 A0.75 0.75 0 0 1 5.625,9 L12,9 Z"/>
</svg>
