<svg xmlns="http://www.w3.org/2000/svg" width="24" height="24" viewBox="0 0 24 24">
  <defs/>
  <path d="M19.375,8.5 A3.25 3.25 0 1 1 16.212,12.5 L13.212,12.5 A3.252 3.252 0 0 1 8.769,15.009 L7.214,17.76 A3.25 3.25 0 1 1 5.872,17.086 L7.544,14.129 A3.238 3.238 0 0 1 6.75,12 C6.75,11.093 7.121,10.273 7.72,9.684 L6.117,6.846 A3.253 3.253 0 0 1 1.875,3.75 A3.25 3.25 0 1 1 7.401,6.07 L9.004,8.906 A3.25 3.25 0 0 1 13.093,11 L16.212,11 A3.252 3.252 0 0 1 19.375,8.5 Z M10,10.25 A1.75 1.75 0 1 0 9.999,13.749 A1.75 1.75 0 0 0 10,10.25 Z M5.125,2 A1.75 1.75 0 1 0 5.125,5.5 A1.75 1.75 0 0 0 5.125,2 Z M17.625,11.75 A1.75 1.75 0 1 0 21.125,11.75 A1.75 1.75 0 0 0 17.625,11.75 Z M3.375,20.25 A1.75 1.75 0 1 0 6.876,20.249 A1.75 1.75 0 0 0 3.375,20.25 Z"/>
</svg>
