<svg xmlns="http://www.w3.org/2000/svg" width="16" height="16" viewBox="0 0 16 16">
  <defs/>
  <path d="M10.628,7.25 A2.25 2.25 0 1 1 10.628,8.75 L8.622,8.75 A2.25 2.25 0 0 1 6.109,10.216 L5.03,12.124 A2.25 2.25 0 1 1 3.768,11.31 L4.803,9.478 A2.245 2.245 0 0 1 4.25,8 C4.25,7.434 4.459,6.918 4.803,6.522 L3.768,4.69 A2.25 2.25 0 1 1 5.03,3.876 L6.109,5.784 A2.25 2.25 0 0 1 8.622,7.25 Z M2.5,2.5 A0.75 0.75 0 1 0 4,2.5 A0.75 0.75 0 0 0 2.5,2.5 Z M6.5,7.25 A0.75 0.75 0 1 0 6.5,8.75 A0.75 0.75 0 0 0 6.5,7.25 Z M12.75,7.25 A0.75 0.75 0 1 0 12.75,8.75 A0.75 0.75 0 0 0 12.75,7.25 Z M3.25,12.75 A0.75 0.75 0 1 0 3.25,14.25 A0.75 0.75 0 0 0 3.25,12.75 Z"/>
</svg>
