<svg xmlns="http://www.w3.org/2000/svg" width="16" height="16" viewBox="0 0 16 16">
  <defs/>
  <path d="M6.457,1.047 C7.116,-0.187 8.884,-0.187 9.543,1.047 L15.625,12.425 A1.75 1.75 0 0 1 14.082,15 L1.918,15 A1.75 1.75 0 0 1 0.375,12.425 Z M8.22,1.754 A0.25 0.25 0 0 0 7.78,1.754 L1.698,13.132 A0.25 0.25 0 0 0 1.918,13.5 L14.082,13.5 A0.25 0.25 0 0 0 14.302,13.132 Z M8.75,5.75 L8.75,8.25 A0.75 0.75 0 0 1 7.25,8.25 L7.25,5.75 A0.75 0.75 0 0 1 8.75,5.75 Z M9,11 A1 1 0 1 1 7,11 A1 1 0 0 1 9,11 Z"/>
</svg>
