<svg xmlns="http://www.w3.org/2000/svg" width="24" height="24" viewBox="0 0 24 24">
  <defs/>
  <path d="M5.5,2.75 A2.75 2.75 0 0 0 2.75,5.5 L2.75,8.5 A2.75 2.75 0 0 0 5.5,11.25 L8.5,11.25 A2.75 2.75 0 0 0 11.25,8.5 L11.25,5.5 A2.75 2.75 0 0 0 8.5,2.75 L5.5,2.75 Z M4.25,5.5 C4.25,4.81 4.81,4.25 5.5,4.25 L8.5,4.25 C9.19,4.25 9.75,4.81 9.75,5.5 L9.75,8.5 C9.75,9.19 9.19,9.75 8.5,9.75 L5.5,9.75 C4.81,9.75 4.25,9.19 4.25,8.5 L4.25,5.5 Z M5.5,12.75 A2.75 2.75 0 0 0 2.75,15.5 L2.75,18.5 A2.75 2.75 0 0 0 5.5,21.25 L8.5,21.25 A2.75 2.75 0 0 0 11.25,18.5 L11.25,15.5 A2.75 2.75 0 0 0 8.5,12.75 L5.5,12.75 Z M4.25,15.5 C4.25,14.81 4.81,14.25 5.5,14.25 L8.5,14.25 C9.19,14.25 9.75,14.81 9.75,15.5 L9.75,18.5 C9.75,19.19 9.19,19.75 8.5,19.75 L5.5,19.75 C4.81,19.75 4.25,19.19 4.25,18.5 L4.25,15.5 Z M12.75,5.5 A2.75 2.75 0 0 1 15.5,2.75 L18.5,2.75 A2.75 2.75 0 0 1 21.25,5.5 L21.25,8.5 A2.75 2.75 0 0 1 18.5,11.25 L15.5,11.25 A2.75 2.75 0 0 1 12.75,8.5 L12.75,5.5 Z M15.5,4.25 C14.81,4.25 14.25,4.81 14.25,5.5 L14.25,8.5 C14.25,9.19 14.81,9.75 15.5,9.75 L18.5,9.75 C19.19,9.75 19.75,9.19 19.75,8.5 L19.75,5.5 C19.75,4.81 19.19,4.25 18.5,4.25 L15.5,4.25 Z M15.5,12.75 A2.75 2.75 0 0 0 12.75,15.5 L12.75,18.5 A2.75 2.75 0 0 0 15.5,21.25 L18.5,21.25 A2.75 2.75 0 0 0 21.25,18.5 L21.25,15.5 A2.75 2.75 0 0 0 18.5,12.75 L15.5,12.75 Z M14.25,15.5 C14.25,14.81 14.81,14.25 15.5,14.25 L18.5,14.25 C19.19,14.25 19.75,14.81 19.75,15.5 L19.75,18.5 C19.75,19.19 19.19,19.75 18.5,19.75 L15.5,19.75 C14.81,19.75 14.25,19.19 14.25,18.5 L14.25,15.5 Z"/>
</svg>
