<svg xmlns="http://www.w3.org/2000/svg" width="16" height="16" viewBox="0 0 16 16">
  <defs/>
  <path d="M1.5,3.25 C1.5,2.284 2.284,1.5 3.25,1.5 L5.75,1.5 C6.716,1.5 7.5,2.284 7.5,3.25 L7.5,5.75 A1.75 1.75 0 0 1 5.75,7.5 L3.25,7.5 A1.75 1.75 0 0 1 1.5,5.75 Z M8.5,3.25 C8.5,2.284 9.284,1.5 10.25,1.5 L12.75,1.5 C13.716,1.5 14.5,2.284 14.5,3.25 L14.5,5.75 A1.75 1.75 0 0 1 12.75,7.5 L10.25,7.5 A1.75 1.75 0 0 1 8.5,5.75 Z M1.5,10.25 C1.5,9.284 2.284,8.5 3.25,8.5 L5.75,8.5 C6.716,8.5 7.5,9.284 7.5,10.25 L7.5,12.75 A1.75 1.75 0 0 1 5.75,14.5 L3.25,14.5 A1.75 1.75 0 0 1 1.5,12.75 Z M8.5,10.25 C8.5,9.284 9.284,8.5 10.25,8.5 L12.75,8.5 C13.716,8.5 14.5,9.284 14.5,10.25 L14.5,12.75 A1.75 1.75 0 0 1 12.75,14.5 L10.25,14.5 A1.75 1.75 0 0 1 8.5,12.75 Z M3.25,3 A0.25 0.25 0 0 0 3,3.25 L3,5.75 C3,5.888 3.112,6 3.25,6 L5.75,6 A0.25 0.25 0 0 0 6,5.75 L6,3.25 A0.25 0.25 0 0 0 5.75,3 Z M10.25,3 A0.25 0.25 0 0 0 10,3.25 L10,5.75 C10,5.888 10.112,6 10.25,6 L12.75,6 A0.25 0.25 0 0 0 13,5.75 L13,3.25 A0.25 0.25 0 0 0 12.75,3 Z M3.25,10 A0.25 0.25 0 0 0 3,10.25 L3,12.75 C3,12.888 3.112,13 3.25,13 L5.75,13 A0.25 0.25 0 0 0 6,12.75 L6,10.25 A0.25 0.25 0 0 0 5.75,10 Z M10.25,10 A0.25 0.25 0 0 0 10,10.25 L10,12.75 C10,12.888 10.112,13 10.25,13 L12.75,13 A0.25 0.25 0 0 0 13,12.75 L13,10.25 A0.25 0.25 0 0 0 12.75,10 Z"/>
</svg>
