<svg xmlns="http://www.w3.org/2000/svg" width="16" height="16" viewBox="0 0 16 16">
  <defs/>
  <path d="M0,2.75 C0,1.784 0.784,1 1.75,1 L14.25,1 C15.216,1 16,1.784 16,2.75 L16,4.25 A1.75 1.75 0 0 1 14.25,6 L1.75,6 A1.75 1.75 0 0 1 0,4.25 Z M1.75,7 A0.75 0.75 0 0 1 2.5,7.75 L2.5,13.25 C2.5,13.388 2.612,13.5 2.75,13.5 L13.25,13.5 A0.25 0.25 0 0 0 13.5,13.25 L13.5,7.75 A0.75 0.75 0 0 1 15,7.75 L15,13.25 A1.75 1.75 0 0 1 13.25,15 L2.75,15 A1.75 1.75 0 0 1 1,13.25 L1,7.75 A0.75 0.75 0 0 1 1.75,7 Z M1.75,2.5 A0.25 0.25 0 0 0 1.5,2.75 L1.5,4.25 C1.5,4.388 1.612,4.5 1.75,4.5 L14.25,4.5 A0.25 0.25 0 0 0 14.5,4.25 L14.5,2.75 A0.25 0.25 0 0 0 14.25,2.5 Z M6.25,8 L9.75,8 A0.75 0.75 0 0 1 9.75,9.5 L6.25,9.5 A0.75 0.75 0 0 1 6.25,8 Z"/>
</svg>
