<svg xmlns="http://www.w3.org/2000/svg" width="16" height="16" viewBox="0 0 16 16">
  <defs/>
  <path d="M3.72,3.72 A0.751 0.751 0 0 1 4.762,3.738 A0.751 0.751 0 0 1 4.78,4.78 L2.56,7 L13.44,7 L11.22,4.78 A0.751 0.751 0 0 1 11.238,3.738 A0.751 0.751 0 0 1 12.28,3.72 L15.78,7.22 A0.75 0.75 0 0 1 15.78,8.28 L12.28,11.78 A0.749 0.749 0 0 1 11.005,11.454 A0.749 0.749 0 0 1 11.22,10.72 L13.44,8.5 L2.56,8.5 L4.78,10.72 A0.749 0.749 0 0 1 4.454,11.995 A0.749 0.749 0 0 1 3.72,11.78 L0.22,8.28 A0.75 0.75 0 0 1 0.22,7.22 Z"/>
</svg>
