<svg xmlns="http://www.w3.org/2000/svg" width="24" height="24" viewBox="0 0 24 24">
  <defs/>
  <path d="M8,8.807 L8,3.5 L7.437,3.5 A0.75 0.75 0 0 1 7.437,2 L16.562,2 A0.75 0.75 0 0 1 16.562,3.5 L16,3.5 L16,8.807 L21.125,18.108 C22.089,19.858 20.823,22 18.826,22 L5.174,22 C3.176,22 1.911,19.858 2.874,18.108 Z M4.189,18.832 A1.123 1.123 0 0 0 5.174,20.5 L18.826,20.5 A1.123 1.123 0 0 0 19.811,18.832 L17.7,15 L6.3,15 Z M14.5,3.5 L9.5,3.5 L9.5,9 A0.75 0.75 0 0 1 9.407,9.362 L7.127,13.5 L16.873,13.5 L14.593,9.362 A0.75 0.75 0 0 1 14.5,9 Z"/>
</svg>
