<svg xmlns="http://www.w3.org/2000/svg" width="16" height="16" viewBox="0 0 16 16">
  <defs/>
  <path d="M5,5.782 L5,2.5 L4.75,2.5 A0.75 0.75 0 0 1 4.75,1 L11.25,1 A0.75 0.75 0 0 1 11.25,2.5 L11,2.5 L11,5.782 L14.666,11.542 C15.619,13.04 14.543,15 12.767,15 L3.233,15 C1.457,15 0.381,13.04 1.334,11.542 Z M2.6,12.347 A0.75 0.75 0 0 0 3.233,13.5 L12.767,13.5 A0.75 0.75 0 0 0 13.4,12.347 L12.225,10.5 L3.775,10.5 Z M9.5,2.5 L6.5,2.5 L6.5,6 C6.5,6.143 6.46,6.283 6.383,6.403 L4.73,9 L11.27,9 L9.617,6.403 A0.746 0.746 0 0 1 9.5,6 Z"/>
</svg>
