<svg xmlns="http://www.w3.org/2000/svg" width="16" height="16" viewBox="0 0 16 16">
  <defs/>
  <path d="M3,5 C3,2.2385761737823486 5.238576412200928,0 8,0 C10.76142406463623,0 13,2.2385761737823486 13,5 L13,7.947000026702881 C13,7.997000217437744 13.015000343322754,8.045000076293945 13.041999816894531,8.086000442504883 L14.744999885559082,10.640999794006348 C14.913328170776367,10.894615173339844 14.998396873474121,11.187410354614258 14.998396873474121,11.481096267700195 C14.998396873474121,11.726916313171387 14.938797950744629,11.973361015319824 14.8185396194458,12.197976112365723 C14.554607391357422,12.690942764282227 14.04117488861084,12.999040603637695 13.482000350952148,13 L2.5179998874664307,13 C1.9575847387313843,13.001357078552246 1.442135214805603,12.693434715270996 1.1777034997940063,12.199326515197754 C1.0577713251113892,11.975225448608398 0.9983488917350769,11.729406356811523 0.9983276724815369,11.484235763549805 L0.9983276724815369,11.483972549438477 C0.9983532428741455,11.188669204711914 1.0845564603805542,10.894317626953125 1.2549999952316284,10.640000343322754 L2.9579999446868896,8.086000442504883 C2.9851748943328857,8.044715881347656 2.9997665882110596,7.996424674987793 3,7.947000026702881 Z M8,1.5 C6.06700325012207,1.5 4.5,3.0670034885406494 4.5,5 L4.5,7.947000026702881 C4.5,8.293000221252441 4.3979997634887695,8.630000114440918 4.205999851226807,8.916999816894531 L2.503000020980835,11.472999572753906 C2.5009758472442627,11.475935935974121 2.4999263286590576,11.479434967041016 2.5,11.482999801635742 L2.500999927520752,11.48900032043457 C2.500999927520752,11.491000175476074 2.503000020980835,11.493000030517578 2.505000114440918,11.494999885559082 L2.510999917984009,11.49899959564209 L2.5179998874664307,11.5 L13.482000350952148,11.5 L13.48900032043457,11.49899959564209 L13.494999885559082,11.494999885559082 L13.49899959564209,11.48900032043457 L13.5,11.482000350952148 C13.500073432922363,11.478434562683105 13.499024391174316,11.474936485290527 13.496999740600586,11.472000122070312 L11.793999671936035,8.918000221252441 C11.602187156677246,8.630876541137695 11.499870300292969,8.293299674987793 11.5,7.947999954223633 L11.5,5 C11.5,3.0670034885406494 9.93299674987793,1.5 8,1.5 Z M8.001391410827637,16 L7.998608589172363,16 C6.991050720214844,15.999654769897461 6.140962600708008,15.249798774719238 6.014999866485596,14.25 C5.998000144958496,14.11299991607666 6.111999988555908,14 6.25,14 L9.75,14 C9.887999534606934,14 10.001999855041504,14.11299991607666 9.984999656677246,14.25 C9.859037399291992,15.249798774719238 9.008949279785156,15.999654769897461 8.001391410827637,16 Z"/>
</svg>
