<svg xmlns="http://www.w3.org/2000/svg" width="16" height="16" viewBox="0 0 16 16">
  <defs/>
  <path d="M4.182000160217285,4.309999942779541 L4.197999954223633,4.321000099182129 L14.302000045776367,11.63700008392334 L14.3149995803833,11.647000312805176 L15.6899995803833,12.642999649047852 C15.850618362426758,12.7526273727417 15.95976734161377,12.918255805969238 16,13.102712631225586 L16,13.422199249267578 C15.949125289916992,13.655780792236328 15.789020538330078,13.85329818725586 15.566515922546387,13.950145721435547 C15.316186904907227,14.059104919433594 15.026422500610352,14.023427963256836 14.8100004196167,13.857000350952148 L13.62600040435791,13 L2.5179998874664307,13 C1.9575847387313843,13.001357078552246 1.442135214805603,12.693434715270996 1.1777034997940063,12.199326515197754 C0.9132719039916992,11.705218315124512 0.942998468875885,11.105534553527832 1.2549999952316284,10.640000343322754 L2.9579999446868896,8.086000442504883 C2.9851748943328857,8.044715881347656 2.9997665882110596,7.996424674987793 3,7.947000026702881 L3,5.304999828338623 L0.3100000023841858,3.3570001125335693 C0.14938165247440338,3.2473723888397217 0.04023243859410286,3.0817441940307617 0,2.897287607192993 L0,2.577801465988159 C0.05087469145655632,2.344219207763672 0.21097946166992188,2.1467018127441406 0.4334836006164551,2.049854278564453 C0.6838130354881287,1.9408953189849854 0.9735774397850037,1.9765723943710327 1.190000057220459,2.1429998874664307 Z M11.555000305175781,11.5 L4.5,6.390999794006348 L4.5,7.947000026702881 C4.5,8.293000221252441 4.3979997634887695,8.630000114440918 4.205999851226807,8.916999816894531 L2.503000020980835,11.472999572753906 C2.5009758472442627,11.475935935974121 2.4999263286590576,11.479434967041016 2.5,11.482999801635742 C2.5,11.48799991607666 2.502000093460083,11.491999626159668 2.505000114440918,11.494999885559082 L2.510999917984009,11.49899959564209 L2.5179998874664307,11.5 Z M8,1.5 C7.002999782562256,1.5 6.105000019073486,1.9160000085830688 5.466000080108643,2.5859999656677246 C5.1799163818359375,2.8858907222747803 4.704890727996826,2.8970835208892822 4.40500020980835,2.6110000610351562 C4.105109214782715,2.3249166011810303 4.093916416168213,1.8498905897140503 4.380000114440918,1.5499999523162842 C5.316694736480713,0.5668640732765198 6.588259220123291,0.028281020000576973 7.892796039581299,0 L8.109426498413086,0 C8.69813346862793,0.012766155414283276 9.290143013000488,0.12976045906543732 9.857881546020508,0.35698777437210083 C11.756022453308105,1.1166841983795166 13.000409126281738,2.955476999282837 13,5 L13,7.373000144958496 C13,7.787213325500488 12.664213180541992,8.123000144958496 12.25,8.123000144958496 C11.835786819458008,8.123000144958496 11.5,7.787213325500488 11.5,7.373000144958496 L11.5,5 C11.5,3.0670034885406494 9.93299674987793,1.5 8,1.5 Z M8.001391410827637,16 L7.998608589172363,16 C6.991050720214844,15.999654769897461 6.140962600708008,15.249798774719238 6.014999866485596,14.25 C5.998000144958496,14.11299991607666 6.111999988555908,14 6.25,14 L9.75,14 C9.887999534606934,14 10.001999855041504,14.11299991607666 9.984999656677246,14.25 C9.859037399291992,15.249798774719238 9.008949279785156,15.999654769897461 8.001391410827637,16 Z"/>
</svg>
