<svg xmlns="http://www.w3.org/2000/svg" width="24" height="24" viewBox="0 0 24 24">
  <defs/>
  <path d="M12,1 C15.681,1 19,3.565 19,7 L19,11.539 C19,12.181 19.189,12.808 19.545,13.342 L21.745,16.64 A1.517 1.517 0 0 1 20.482,19 L15.5,19 A3.5 3.5 0 1 1 8.5,19 L3.519,19 A1.518 1.518 0 0 1 2.254,16.641 L4.454,13.342 A3.25 3.25 0 0 0 5,11.539 L5,7 C5,3.565 8.318,1 12,1 Z M6.5,7 L6.5,11.539 A4.75 4.75 0 0 1 5.703,14.174 L3.503,17.472 L3.5,17.482 L3.501,17.489 L3.505,17.495 L3.511,17.499 L3.518,17.5 L20.482,17.5 L20.489,17.499 L20.495,17.495 L20.499,17.489 L20.5,17.483 A0.017 0.017 0 0 0 20.497,17.473 L18.298,14.174 A4.753 4.753 0 0 1 17.5,11.539 L17.5,7 C17.5,4.636 15.117,2.5 12,2.5 C8.883,2.5 6.5,4.636 6.5,7 Z M14,19 L10,19 A2 2 0 1 0 14,19 Z"/>
</svg>
