<svg xmlns="http://www.w3.org/2000/svg" width="24" height="24" viewBox="0 0 24 24">
  <defs/>
  <path d="M1.22,1.22 A0.75 0.75 0 0 1 2.28,1.22 L22.78,21.72 A0.749 0.749 0 0 1 22.454,22.995 A0.749 0.749 0 0 1 21.72,22.78 L17.94,19 L15.5,19 A3.5 3.5 0 1 1 8.5,19 L3.518,19 A1.516 1.516 0 0 1 2.255,16.64 L4.455,13.342 A3.249 3.249 0 0 0 5,11.539 L5,7 C5,6.706 5.025,6.417 5.073,6.134 L1.22,2.28 A0.75 0.75 0 0 1 1.22,1.22 Z M6.5,7.56 L6.499,7.56 L6.499,11.539 A4.75 4.75 0 0 1 5.702,14.174 L3.502,17.472 L3.499,17.482 L3.5,17.489 L3.504,17.495 L3.51,17.499 L3.517,17.5 L16.44,17.5 Z M10,19 A2 2 0 1 0 14,19 Z M12,2.5 C10.537,2.5 9.2,2.985 8.212,3.757 L8.172,3.789 A0.75 0.75 0 1 1 7.237,2.616 L7.287,2.576 C8.548,1.59 10.212,1 12,1 C15.681,1 19,3.565 19,7 L19,11.539 C19,12.181 19.19,12.808 19.546,13.342 L20.874,15.334 A0.75 0.75 0 1 1 19.626,16.166 L18.298,14.174 A4.75 4.75 0 0 1 17.5,11.539 L17.5,7 C17.5,4.636 15.117,2.5 12,2.5 Z"/>
</svg>
