<svg xmlns="http://www.w3.org/2000/svg" width="16" height="16" viewBox="0 0 16 16">
  <defs/>
  <path d="M4.467,0.22 A0.749 0.749 0 0 1 4.997,0 L11.003,0 C11.202,0 11.392,0.079 11.533,0.22 L15.78,4.467 C15.921,4.607 16,4.798 16,4.997 L16,11.003 A0.749 0.749 0 0 1 15.78,11.533 L11.533,15.78 A0.749 0.749 0 0 1 11.003,16 L4.997,16 A0.749 0.749 0 0 1 4.467,15.78 L0.22,11.533 A0.749 0.749 0 0 1 0,11.003 L0,4.997 C0,4.798 0.079,4.608 0.22,4.467 Z M5.307,1.5 L1.5,5.308 L1.5,10.692 L5.308,14.5 L10.692,14.5 L14.5,10.692 L14.5,5.308 L10.692,1.5 Z M4,7.75 A0.75 0.75 0 0 1 4.75,7 L11.25,7 A0.75 0.75 0 0 1 11.25,8.5 L4.75,8.5 A0.75 0.75 0 0 1 4,7.75 Z"/>
</svg>
