<svg xmlns="http://www.w3.org/2000/svg" width="24" height="24" viewBox="0 0 24 24">
  <defs/>
  <path d="M7.638,2.22 A0.749 0.749 0 0 1 8.168,2 L15.832,2 C16.031,2 16.221,2.079 16.362,2.22 L21.78,7.638 C21.921,7.778 22,7.97 22,8.168 L22,15.832 A0.749 0.749 0 0 1 21.78,16.362 L16.362,21.78 A0.749 0.749 0 0 1 15.832,22 L8.168,22 A0.749 0.749 0 0 1 7.638,21.78 L2.218,16.362 A0.752 0.752 0 0 1 1.999,15.832 L1.999,8.168 C1.999,7.969 2.078,7.779 2.219,7.638 L7.637,2.218 Z M8.48,3.5 L3.5,8.48 L3.5,15.52 L8.48,20.5 L15.52,20.5 L20.5,15.52 L20.5,8.48 L15.52,3.5 Z M7,11.75 A0.75 0.75 0 0 1 7.75,11 L16.25,11 A0.75 0.75 0 0 1 16.25,12.5 L7.75,12.5 A0.75 0.75 0 0 1 7,11.75 Z"/>
</svg>
