<svg xmlns="http://www.w3.org/2000/svg" width="24" height="24" viewBox="0 0 24 24">
  <defs/>
  <path d="M0,3.75 A0.75 0.75 0 0 1 0.75,3 L8.247,3 C9.813,3 11.192,3.8 11.998,5.014 A4.495 4.495 0 0 1 15.75,3 L23.25,3 A0.75 0.75 0 0 1 24,3.75 L24,18.813 A0.752 0.752 0 0 1 23.245,19.563 L15.563,19.511 A3 3 0 0 0 13.421,20.389 L12.531,21.28 A0.75 0.75 0 0 1 11.47,21.28 L10.568,20.379 A2.996 2.996 0 0 0 8.447,19.5 L0.75,19.5 A0.75 0.75 0 0 1 0,18.75 Z M12.75,18.982 A4.503 4.503 0 0 1 15.573,18.011 L22.5,18.058 L22.5,4.5 L15.75,4.5 A3 3 0 0 0 12.75,7.5 Z M11.247,7.497 A3 3 0 0 0 8.247,4.5 L1.5,4.5 L1.5,18 L8.447,18 C9.465,18 10.453,18.346 11.25,18.98 Z"/>
</svg>
