<svg xmlns="http://www.w3.org/2000/svg" width="24" height="24" viewBox="0 0 24 24">
  <defs/>
  <path d="M1.565,2.018 L1.565,2.017 L23.315,17.767 A0.75 0.75 0 1 1 22.435,18.982 L19,16.495 L19,21.259 A0.748 0.748 0 0 1 17.781,21.843 L12,17.21 L6.219,21.844 A0.75 0.75 0 0 1 5,21.259 L5,6.357 L0.685,3.232 A0.75 0.75 0 0 1 1.565,2.018 Z M17.5,15.408 L6.5,7.443 L6.5,19.697 L11.531,15.665 A0.749 0.749 0 0 1 12.469,15.665 L17.5,19.697 Z M7.25,2 A0.75 0.75 0 0 0 7.25,3.5 L17.25,3.5 A0.25 0.25 0 0 1 17.5,3.75 L17.5,10.25 A0.75 0.75 0 0 0 19,10.25 L19,3.75 A1.75 1.75 0 0 0 17.25,2 L7.25,2 Z"/>
</svg>
