<svg xmlns="http://www.w3.org/2000/svg" width="16" height="16" viewBox="0 0 16 16">
  <defs/>
  <path d="M0,1.75 C0,1.3357864618301392 0.3357864320278168,1 0.75,1 L5.002999782562256,1 C6.230000019073486,1 7.320000171661377,1.590000033378601 8.003000259399414,2.500999927520752 C8.710899353027344,1.554633378982544 9.82416820526123,0.998184323310852 11.005999565124512,1 L15.25100040435791,1 C15.652113914489746,1 15.979681968688965,1.314882755279541 16,1.7109431028366089 L16,12.289056777954102 C15.979681968688965,12.6851167678833 15.652113914489746,13 15.25100040435791,13 L10.744000434875488,13 C10.147260665893555,12.999995231628418 9.574960708618164,13.237044334411621 9.152999877929688,13.659000396728516 L8.531000137329102,14.279999732971191 C8.384591102600098,14.426226615905762 8.192794799804688,14.499340057373047 8.000999450683594,14.499340057373047 C7.8092041015625,14.499340057373047 7.617408752441406,14.426226615905762 7.4710001945495605,14.279999732971191 L6.848999977111816,13.659000396728516 C6.42703914642334,13.237044334411621 5.854739189147949,12.999995231628418 5.257999897003174,13 L0.75,13 C0.3357864320278168,13 0,12.664213180541992 0,12.25 Z M7.250999927520752,12.074000358581543 L7.255000114440918,7.000999927520752 L7.252999782562256,4.748000144958496 C7.251895904541016,3.5061404705047607 6.2448601722717285,2.499999523162842 5.002999782562256,2.5 L1.5,2.5 L1.5,11.5 L5.256999969482422,11.5 C5.962425231933594,11.49997615814209 6.653552055358887,11.698925971984863 7.250999927520752,12.074000358581543 Z M8.755000114440918,4.75 L8.75100040435791,12.071999549865723 C9.348126411437988,11.698090553283691 10.03846549987793,11.499860763549805 10.743000030517578,11.5 L14.5,11.5 L14.5,2.5 L11.005000114440918,2.5 C9.762359619140625,2.5 8.755000114440918,3.507359266281128 8.755000114440918,4.75 Z"/>
</svg>
