<svg xmlns="http://www.w3.org/2000/svg" width="16" height="16" viewBox="0 0 16 16">
  <defs/>
  <path d="M1.190000057220459,1.1430000066757202 L4.196000099182129,3.319999933242798 L12.682000160217285,9.46500015258789 L12.696000099182129,9.475000381469727 L15.6899995803833,11.642999649047852 C15.850618362426758,11.7526273727417 15.95976734161377,11.918255805969238 16,12.102712631225586 L16,12.422199249267578 C15.949125289916992,12.655780792236328 15.789020538330078,12.85329818725586 15.566515922546387,12.950145721435547 C15.316186904907227,13.059104919433594 15.026422500610352,13.023427963256836 14.8100004196167,12.857000350952148 L13,11.54699993133545 L13,14.25 C13.000208854675293,14.535533905029297 12.838265419006348,14.796417236328125 12.582284927368164,14.922921180725098 C12.477042198181152,14.974931716918945 12.363411903381348,15.000517845153809 12.250325202941895,15.0005521774292 L12.249871253967285,15.0005521774292 C12.088050842285156,15.000503540039062 11.927369117736816,14.948134422302246 11.793999671936035,14.845999717712402 L8,11.944000244140625 L4.205999851226807,14.845999717712402 C4.072630882263184,14.948134422302246 3.9119491577148438,15.000503540039062 3.750128746032715,15.0005521774292 L3.7496745586395264,15.0005521774292 C3.6365880966186523,15.000517845153809 3.5229575634002686,14.974931716918945 3.417715311050415,14.922921180725098 C3.1617343425750732,14.796417236328125 2.9997916221618652,14.535533905029297 3,14.25 L3,4.304999828338623 L0.3100000023841858,2.3570001125335693 C0.14938165247440338,2.2473723888397217 0.04023243859410286,2.0817441940307617 0,1.8972876071929932 L0,1.5778014659881592 C0.05087469145655632,1.3442193269729614 0.21097946166992188,1.1467018127441406 0.4334836006164551,1.0498541593551636 C0.5295435786247253,1.0080429315567017 0.6314103603363037,0.9875295758247375 0.7327115535736084,0.9875295758247375 C0.8953983187675476,0.9875295758247375 1.0566262006759644,1.0404363870620728 1.190000057220459,1.1430000066757202 Z M4.5,5.389999866485596 L4.5,12.730999946594238 L7.544000148773193,10.402999877929688 C7.813080787658691,10.19693660736084 8.186919212341309,10.19693660736084 8.456000328063965,10.402999877929688 L11.5,12.730999946594238 L11.5,10.460000038146973 Z M5.864999771118164,1 L11.25,1 C12.215999603271484,1 13,1.784000039100647 13,2.75 L13,6.374000072479248 C13,6.788213729858398 12.664213180541992,7.124000072479248 12.25,7.124000072479248 C11.835786819458008,7.124000072479248 11.5,6.788213729858398 11.5,6.374000072479248 L11.5,2.75 C11.5,2.611928701400757 11.388071060180664,2.5 11.25,2.5 L5.864999771118164,2.5 C5.450786590576172,2.5 5.115000247955322,2.1642136573791504 5.115000247955322,1.75 C5.115000247955322,1.3357864618301392 5.450786590576172,1 5.864999771118164,1 Z"/>
</svg>
