<svg xmlns="http://www.w3.org/2000/svg" width="16" height="16" viewBox="0 0 16 16">
  <defs/>
  <path d="M1.190000057220459,1.1430000066757202 L4.182000160217285,3.309999942779541 C4.18670654296875,3.313276767730713 4.191373825073242,3.316610336303711 4.196000099182129,3.319999933242798 L12.682000160217285,9.46500015258789 C12.68669319152832,9.46829605102539 12.691359519958496,9.471630096435547 12.696000099182129,9.475000381469727 L15.6899995803833,11.642999649047852 C15.850618362426758,11.7526273727417 15.95976734161377,11.918255805969238 16,12.102712631225586 L16,12.422199249267578 C15.949125289916992,12.655780792236328 15.789020538330078,12.85329818725586 15.566515922546387,12.950145721435547 C15.316186904907227,13.059104919433594 15.026422500610352,13.023427963256836 14.8100004196167,12.857000350952148 L13,11.54699993133545 L13,14.25 C13.000208854675293,14.535533905029297 12.838265419006348,14.796417236328125 12.582284927368164,14.922921180725098 C12.477042198181152,14.974931716918945 12.363411903381348,15.000517845153809 12.250325202941895,15.0005521774292 L12.249871253967285,15.0005521774292 C12.088050842285156,15.000503540039062 11.927369117736816,14.948134422302246 11.793999671936035,14.845999717712402 L8,11.944000244140625 L4.205999851226807,14.845999717712402 C4.072630882263184,14.948134422302246 3.9119491577148438,15.000503540039062 3.750128746032715,15.0005521774292 L3.7496745586395264,15.0005521774292 C3.6365880966186523,15.000517845153809 3.5229575634002686,14.974931716918945 3.417715311050415,14.922921180725098 C3.1617343425750732,14.796417236328125 2.9997916221618652,14.535533905029297 3,14.25 L3,4.304999828338623 L0.3100000023841858,2.3580000400543213 C0.11193104088306427,2.2145426273345947 0.004655918106436729,1.992330551147461 0,1.765316128730774 L0,1.7344475984573364 C0.0030252039432525635,1.587015986442566 0.049449529498815536,1.438973069190979 0.14249999821186066,1.3105000257492065 C0.3855052888393402,0.9749870300292969 0.8544870018959045,0.8999947309494019 1.190000057220459,1.1430000066757202 Z M4.124000072479248,1.3459999561309814 C4.190748691558838,1.1398184299468994 4.3827104568481445,1.0001329183578491 4.5993804931640625,1 L11.833000183105469,1 C12.477999687194824,1 13,1.5219999551773071 13,2.1670000553131104 L13,7.2170000076293945 C12.9999418258667,7.4047932624816895 12.894660949707031,7.576717853546143 12.7274169921875,7.662132740020752 C12.560173034667969,7.747547149658203 12.359170913696289,7.732046604156494 12.206999778747559,7.622000217437744 L4.307000160217285,1.9049999713897705 C4.131260395050049,1.7780462503433228 4.057358741760254,1.5523020029067993 4.124000072479248,1.3459999561309814 Z"/>
</svg>
