<svg xmlns="http://www.w3.org/2000/svg" width="16" height="16" viewBox="0 0 16 16">
  <defs/>
  <path d="M6.75,0 L9.25,0 C10.216,0 11,0.784 11,1.75 L11,3 L14.25,3 C15.216,3 16,3.784 16,4.75 L16,13.25 A1.75 1.75 0 0 1 14.25,15 L1.75,15 A1.75 1.75 0 0 1 0,13.25 L0,4.75 C0,3.784 0.784,3 1.75,3 L5,3 L5,1.75 C5,0.784 5.784,0 6.75,0 Z M3.5,9.5 A3.49 3.49 0 0 1 1.5,8.873 L1.5,13.25 C1.5,13.388 1.612,13.5 1.75,13.5 L14.25,13.5 A0.25 0.25 0 0 0 14.5,13.25 L14.5,8.873 A3.49 3.49 0 0 1 12.5,9.5 Z M1.75,4.5 A0.25 0.25 0 0 0 1.5,4.75 L1.5,6 A2 2 0 0 0 3.5,8 L12.5,8 A2 2 0 0 0 14.5,6 L14.5,4.75 A0.25 0.25 0 0 0 14.25,4.5 L1.75,4.5 Z M9.5,3 L9.5,1.75 A0.25 0.25 0 0 0 9.25,1.5 L6.75,1.5 A0.25 0.25 0 0 0 6.5,1.75 L6.5,3 Z"/>
</svg>
