<svg xmlns="http://www.w3.org/2000/svg" width="24" height="24" viewBox="0 0 24 24">
  <defs/>
  <path d="M7.5,1.75 C7.5,0.784 8.284,0 9.25,0 L14.75,0 C15.716,0 16.5,0.784 16.5,1.75 L16.5,4 L21.25,4 C22.216,4 23,4.784 23,5.75 L23,20.25 A1.75 1.75 0 0 1 21.25,22 L2.75,22 A1.75 1.75 0 0 1 1,20.25 L1,5.75 C1,4.784 1.784,4 2.75,4 L7.5,4 Z M2.5,11.99 L2.5,20.25 C2.5,20.388 2.612,20.5 2.75,20.5 L21.25,20.5 A0.25 0.25 0 0 0 21.5,20.25 L21.5,11.99 A4.235 4.235 0 0 1 18.75,13 L5.25,13 A4.235 4.235 0 0 1 2.5,11.99 Z M21.5,8.75 L21.5,5.75 A0.25 0.25 0 0 0 21.25,5.5 L2.75,5.5 A0.25 0.25 0 0 0 2.5,5.75 L2.5,8.75 A2.75 2.75 0 0 0 5.25,11.5 L18.75,11.5 A2.75 2.75 0 0 0 21.5,8.75 Z M15,1.75 A0.25 0.25 0 0 0 14.75,1.5 L9.25,1.5 A0.25 0.25 0 0 0 9,1.75 L9,4 L15,4 Z"/>
</svg>
