<svg xmlns="http://www.w3.org/2000/svg" width="16" height="16" viewBox="0 0 16 16">
  <defs/>
  <path d="M8.75,8.581999778747559 L8.75,14.25 C8.75,14.664213180541992 8.414213180541992,15 8,15 C7.58578634262085,15 7.25,14.664213180541992 7.25,14.25 L7.25,8.581999778747559 C6.5105719566345215,8.231258392333984 6.112976551055908,7.414884567260742 6.292737007141113,6.616474151611328 C6.472497940063477,5.818063259124756 7.18160343170166,5.250861167907715 8,5.250861167907715 C8.81839656829834,5.250861167907715 9.527502059936523,5.818063259124756 9.707262992858887,6.616474151611328 C9.88702392578125,7.414884567260742 9.48942756652832,8.231258392333984 8.75,8.581999778747559 Z M12.732999801635742,1.4570000171661377 C12.878149032592773,1.318889856338501 13.064169883728027,1.2503397464752197 13.249876976013184,1.2503397464752197 C13.44792366027832,1.2503397464752197 13.645613670349121,1.3283015489578247 13.793000221252441,1.4830000400543213 C15.207530975341797,2.964625835418701 15.997623443603516,4.933499336242676 16,6.981465816497803 L16,7 C16,9.138999938964844 15.15999984741211,11.083000183105469 13.793000221252441,12.517000198364258 C13.610172271728516,12.719046592712402 13.332143783569336,12.806037902832031 13.066760063171387,12.744230270385742 C12.801375389099121,12.68242359161377 12.590392112731934,12.481541633605957 12.515647888183594,12.219507217407227 C12.440903663635254,11.957472801208496 12.51416015625,11.67551326751709 12.706999778747559,11.482999801635742 C13.86038589477539,10.275779724121094 14.50277328491211,8.669631958007812 14.5,7 C14.50277328491211,5.3303680419921875 13.86038589477539,3.7242202758789062 12.706999778747559,2.5169999599456787 C12.421603202819824,2.217057466506958 12.43324089050293,1.7425895929336548 12.732999801635742,1.4570000171661377 Z M3.2669999599456787,1.4570000171661377 C3.566999912261963,1.7430000305175781 3.5789999961853027,2.2170000076293945 3.2929999828338623,2.5169999599456787 C2.1396143436431885,3.7242202758789062 1.4972269535064697,5.3303680419921875 1.5,7 C1.4968119859695435,8.66971206665039 2.139259099960327,10.276008605957031 3.2929999828338623,11.482999801635742 C3.565948009490967,11.784640312194824 3.54866623878479,12.248883247375488 3.254046678543091,12.52939510345459 C2.9594273567199707,12.809907913208008 2.494896173477173,12.804408073425293 2.2070000171661377,12.517000198364258 C0.7927567362785339,11.036123275756836 0.0026841890066862106,9.068098068237305 0,7.020934104919434 L0,7 C0,4.861000061035156 0.8399999737739563,2.9170000553131104 2.2070000171661377,1.4830000400543213 C2.3543860912323,1.3283015489578247 2.552077054977417,1.2503397464752197 2.7501232624053955,1.2503397464752197 C2.93583083152771,1.2503397464752197 3.1218507289886475,1.318889856338501 3.2669999599456787,1.4570000171661377 Z M11.822999954223633,3.7780001163482666 C12.583904266357422,4.679080486297607 13.0009126663208,5.820627212524414 13,7 C13.0009126663208,8.179372787475586 12.583904266357422,9.32091999053955 11.822999954223633,10.222000122070312 C11.652741432189941,10.435033798217773 11.380263328552246,10.538861274719238 11.111410140991211,10.49315071105957 C10.842556953430176,10.447440147399902 10.61970329284668,10.259394645690918 10.529417037963867,10.002062797546387 C10.439130783081055,9.744729995727539 10.49564266204834,9.45866870880127 10.677000045776367,9.255000114440918 C11.209568977355957,8.624425888061523 11.50119400024414,7.825380325317383 11.5,7 C11.5,6.139999866485596 11.190999984741211,5.355000019073486 10.677000045776367,4.744999885559082 C10.42325496673584,4.427504539489746 10.468579292297363,3.9656667709350586 10.779206275939941,3.7035582065582275 C11.08983325958252,3.4414498805999756 11.552714347839355,3.474461793899536 11.822999954223633,3.7780001163482666 Z M5.330999851226807,4.736000061035156 C4.79299783706665,5.367491722106934 4.498288631439209,6.170406818389893 4.5,7 C4.498196601867676,7.8254876136779785 4.789895534515381,8.624735832214355 5.322999954223633,9.255000114440918 C5.57674503326416,9.572495460510254 5.531420707702637,10.034333229064941 5.220793724060059,10.296442031860352 C4.9101667404174805,10.558549880981445 4.447286128997803,10.525538444519043 4.177000045776367,10.222000122070312 C3.415562868118286,9.321228981018066 2.9984805583953857,8.179479598999023 3,7 C2.9983150959014893,5.814332962036133 3.4195480346679688,4.666934490203857 4.188000202178955,3.7639999389648438 C4.4564104080200195,3.448369264602661 4.929869174957275,3.4100894927978516 5.245500087738037,3.678499937057495 C5.561130523681641,3.9469103813171387 5.599410533905029,4.4203691482543945 5.330999851226807,4.736000061035156 Z"/>
</svg>
