<svg xmlns="http://www.w3.org/2000/svg" width="24" height="24" viewBox="0 0 24 24">
  <defs/>
  <path d="M20.485000610351562,2.515000104904175 C22.6560001373291,4.684999942779541 24,7.685999870300293 24,11 L24,11.027914047241211 C23.99630355834961,14.201152801513672 22.732152938842773,17.243436813354492 20.485000610351562,19.485000610351562 C20.190582275390625,19.769094467163086 19.722803115844727,19.764808654785156 19.433637619018555,19.475372314453125 C19.144472122192383,19.18593406677246 19.140628814697266,18.718149185180664 19.424999237060547,18.423999786376953 C21.326000213623047,16.523000717163086 22.5,13.899999618530273 22.5,11 C22.504060745239258,8.214384078979492 21.397357940673828,5.542099475860596 19.424999237060547,3.575000047683716 C19.149641036987305,3.2794902324676514 19.157766342163086,2.8189902305603027 19.443378448486328,2.5333781242370605 C19.589557647705078,2.3871991634368896 19.78154754638672,2.3137075901031494 19.973783493041992,2.3137075901031494 C20.157148361206055,2.3137075901031494 20.340734481811523,2.380572557449341 20.485000610351562,2.515000104904175 Z M4.574999809265137,3.575000047683716 C2.6740000247955322,5.47599983215332 1.5,8.100000381469727 1.5,11 C1.495938777923584,13.785615921020508 2.60264253616333,16.457901000976562 4.574999809265137,18.424999237060547 C4.850358963012695,18.720510482788086 4.842233657836914,19.18100929260254 4.55662202835083,19.46662139892578 C4.271009922027588,19.752233505249023 3.81050968170166,19.760358810424805 3.515000104904175,19.485000610351562 C1.343999981880188,17.31399917602539 0,14.312999725341797 0,11 L0,10.97208023071289 C0.003697048407047987,7.798842906951904 1.267849326133728,4.756561756134033 3.515000104904175,2.515000104904175 C3.6592650413513184,2.380572557449341 3.8428521156311035,2.3137075901031494 4.026216506958008,2.3137075901031494 C4.218452453613281,2.3137075901031494 4.41044282913208,2.3871991634368896 4.55662202835083,2.5333781242370605 C4.842233657836914,2.8189902305603027 4.850358963012695,3.2794902324676514 4.574999809265137,3.575000047683716 Z M14,11 C14.000387191772461,11.815319061279297 13.505821228027344,12.54925537109375 12.75,12.854999542236328 L12.75,21.25 C12.75,21.664213180541992 12.414213180541992,22 12,22 C11.585786819458008,22 11.25,21.664213180541992 11.25,21.25 L11.25,12.854999542236328 C10.31773853302002,12.47788143157959 9.810486793518066,11.467166900634766 10.06523323059082,10.494318962097168 C10.319979667663574,9.52147102355957 11.257490158081055,8.889077186584473 12.254935264587402,9.017265319824219 C13.25238037109375,9.145452499389648 13.99952220916748,9.994351387023926 14,11 Z M16.950000762939453,6.050000190734863 L16.950000762939453,6.051000118255615 C18.264347076416016,7.362364292144775 19.002073287963867,9.143342018127441 19,11 C19.002073287963867,12.856657981872559 18.264347076416016,14.637636184692383 16.950000762939453,15.949000358581543 C16.763029098510742,16.1496524810791 16.4814453125,16.232248306274414 16.21571159362793,16.164384841918945 C15.94997787475586,16.096521377563477 15.742478370666504,15.889021873474121 15.674614906311035,15.623289108276367 C15.60675048828125,15.357555389404297 15.689347267150879,15.075970649719238 15.890000343322754,14.888999938964844 C16.922964096069336,13.858672142028809 17.502424240112305,12.458967208862305 17.5,11 C17.5026912689209,9.54068660736084 16.92321014404297,8.140572547912598 15.890000343322754,7.110000133514404 C15.689347267150879,6.92302942276001 15.60675048828125,6.641444683074951 15.674614906311035,6.375710964202881 C15.742478370666504,6.109977722167969 15.94997787475586,5.902478218078613 16.21571159362793,5.834614276885986 C16.4814453125,5.766750812530518 16.763029098510742,5.84934663772583 16.950000762939453,6.050000190734863 Z M8.109999656677246,7.110000133514404 L8.109999656677246,7.111000061035156 C7.077281951904297,8.141083717346191 6.4978413581848145,9.540379524230957 6.5,10.99899959564209 C6.497308731079102,12.45831298828125 7.0767903327941895,13.858427047729492 8.109999656677246,14.888999938964844 C8.394371032714844,15.183149337768555 8.390527725219727,15.650933265686035 8.101363182067871,15.9403715133667 C7.812197685241699,16.229808807373047 7.344417572021484,16.234092712402344 7.050000190734863,15.949999809265137 C5.73540735244751,14.638391494750977 4.997661590576172,12.857004165649414 5,11 C4.997661590576172,9.142995834350586 5.73540735244751,7.361608505249023 7.050000190734863,6.050000190734863 C7.3455095291137695,5.774641036987305 7.806009769439697,5.782766342163086 8.091621398925781,6.06837797164917 C8.377233505249023,6.353990077972412 8.385358810424805,6.81449031829834 8.109999656677246,7.110000133514404 Z"/>
</svg>
