<svg xmlns="http://www.w3.org/2000/svg" width="16" height="16" viewBox="0 0 16 16">
  <defs/>
  <path d="M0,2.75 C0,1.784 0.784,1 1.75,1 L14.25,1 C15.216,1 16,1.784 16,2.75 L16,13.25 A1.75 1.75 0 0 1 14.25,15 L1.75,15 A1.75 1.75 0 0 1 0,13.25 Z M14.5,6 L1.5,6 L1.5,13.25 C1.5,13.388 1.612,13.5 1.75,13.5 L14.25,13.5 A0.25 0.25 0 0 0 14.5,13.25 Z M8.5,2.5 L8.5,4.5 L14.5,4.5 L14.5,2.75 A0.25 0.25 0 0 0 14.25,2.5 Z M5,2.5 L5,4.5 L7,4.5 L7,2.5 Z M1.75,2.5 A0.25 0.25 0 0 0 1.5,2.75 L1.5,4.5 L3.5,4.5 L3.5,2.5 Z"/>
</svg>
