<svg xmlns="http://www.w3.org/2000/svg" width="16" height="16" viewBox="0 0 16 16">
  <defs/>
  <path d="M4.71999979019165,0.2199999988079071 C5.0128173828125,-0.07245337963104248 5.4871826171875,-0.07245337963104248 5.78000020980835,0.2199999988079071 L6.78000020980835,1.218999981880188 C7.567107677459717,0.9249933958053589 8.433892250061035,0.9249933958053589 9.220999717712402,1.218999981880188 L10.220000267028809,0.21899999678134918 C10.331421852111816,0.10261610895395279 10.47507381439209,0.027488166466355324 10.628350257873535,0 L10.892282485961914,0 C10.911646842956543,0.003474521916359663 10.930963516235352,0.007728879339993 10.950190544128418,0.012775060720741749 C11.212977409362793,0.08174364268779755 11.417705535888672,0.2877793312072754 11.484999656677246,0.5509999990463257 C11.55336856842041,0.8131902813911438 11.47500228881836,1.0918715000152588 11.279999732971191,1.2799999713897705 L10.505000114440918,2.055999994277954 C11.121000289916992,2.686000108718872 11.5,3.5490000247955322 11.5,4.5 L11.5,4.827000141143799 C11.5,4.927000045776367 11.491000175476074,5.02400016784668 11.475000381469727,5.11899995803833 C11.883000373840332,5.258999824523926 12.23900032043457,5.511000156402588 12.503999710083008,5.841000080108643 L14.472000122070312,5.053999900817871 C14.85181713104248,4.918665409088135 15.27066707611084,5.107850074768066 15.420228958129883,5.482293605804443 C15.569790840148926,5.85673713684082 15.396536827087402,6.28242301940918 15.027999877929688,6.446000099182129 L13,7.257999897003174 L13,9 L15.25,9 C15.664213180541992,9 16,9.335786819458008 16,9.75 C16,10.164213180541992 15.664213180541992,10.5 15.25,10.5 L13,10.5 L13,11 C13,11.409000396728516 12.951000213623047,11.805999755859375 12.859000205993652,12.185999870300293 L15.029000282287598,13.053999900817871 C15.400550842285156,13.215970039367676 15.576194763183594,13.643832206726074 15.425616264343262,14.020143508911133 C15.27503776550293,14.396454811096191 14.852723121643066,14.585047721862793 14.472000122070312,14.446000099182129 L12.288000106811523,13.572999954223633 C11.38546371459961,15.077971458435059 9.75971508026123,15.999106407165527 8.005110740661621,16 L7.994888782501221,16 C6.240285396575928,15.999106407165527 4.614535808563232,15.077971458435059 3.7119998931884766,13.572999954223633 L1.5290000438690186,14.446000099182129 C1.1470911502838135,14.589953422546387 0.7201791405677795,14.402094841003418 0.5683188438415527,14.023260116577148 C0.41645851731300354,13.644425392150879 0.5954038500785828,13.213701248168945 0.9710000157356262,13.053999900817871 L3.1410000324249268,12.185999870300293 C3.047121286392212,11.797658920288086 2.999788522720337,11.399526596069336 3,11 L3,10.5 L0.75,10.5 C0.3357864320278168,10.5 0,10.164213180541992 0,9.75 C0,9.335786819458008 0.3357864320278168,9 0.75,9 L3,9 L3,7.257999897003174 L0.9710000157356262,6.446000099182129 C0.5954038500785828,6.286298751831055 0.41645851731300354,5.855574131011963 0.5683188438415527,5.476739883422852 C0.7201791405677795,5.09790563583374 1.1470911502838135,4.910046577453613 1.5290000438690186,5.053999900817871 L3.496000051498413,5.841000080108643 C3.760999917984009,5.511000156402588 4.116000175476074,5.257999897003174 4.526000022888184,5.11899995803833 C4.50882625579834,5.02261209487915 4.500126361846924,4.924905776977539 4.5,4.827000141143799 L4.5,4.5 C4.5,3.5490000247955322 4.880000114440918,2.686000108718872 5.494999885559082,2.055999994277954 L4.71999979019165,1.2799999713897705 C4.427546501159668,0.9871824383735657 4.427546501159668,0.5128175616264343 4.71999979019165,0.2199999988079071 Z M5.25,6.5 C4.83578634262085,6.5 4.5,6.83578634262085 4.5,7.25 L4.5,11 C4.5,12.93299674987793 6.06700325012207,14.5 8,14.5 C9.93299674987793,14.5 11.5,12.93299674987793 11.5,11 L11.5,7.25 C11.5,6.83578634262085 11.164213180541992,6.5 10.75,6.5 Z M6.172999858856201,5 L9.82699966430664,5 C9.872963905334473,5.00026798248291 9.917122840881348,4.9821271896362305 9.949625015258789,4.949625492095947 C9.98212718963623,4.917123317718506 10.00026798248291,4.872963905334473 10,4.827000141143799 L10,4.5 C10,3.395430564880371 9.104569435119629,2.5 8,2.5 C6.895430564880371,2.5 6,3.395430564880371 6,4.5 L6,4.827000141143799 C6,4.922999858856201 6.077000141143799,5 6.172999858856201,5 Z"/>
</svg>
