<svg xmlns="http://www.w3.org/2000/svg" width="24" height="24" viewBox="0 0 24 24">
  <defs/>
  <path d="M7.72,0.22 A0.75 0.75 0 0 1 8.78,0.22 L9.984,1.423 A4.98 4.98 0 0 1 12,1 C12.717,1 13.4,1.151 14.016,1.423 L15.22,0.22 A0.751 0.751 0 0 1 16.262,0.238 A0.751 0.751 0 0 1 16.28,1.28 L15.309,2.252 A4.991 4.991 0 0 1 17,6 L17,7.104 A2.755 2.755 0 0 1 18.917,9.078 L20.915,8.079 A0.75 0.75 0 0 1 21.585,9.421 L19,10.714 L19,13.5 L22.25,13.503 A0.75 0.75 0 0 1 22.25,15.003 L19,15.001 L19,16 C19,16.568 18.932,17.134 18.796,17.686 L18.836,17.704 L21.586,19.079 A0.75 0.75 0 1 1 20.915,20.421 L18.277,19.102 A6.998 6.998 0 0 1 12,23 A6.998 6.998 0 0 1 5.803,19.258 L3.045,20.439 A0.752 0.752 0 0 1 1.981,19.663 A0.752 0.752 0 0 1 2.455,19.061 L5.25,17.862 A6.976 6.976 0 0 1 5,16 L5,15.004 L1.75,15.004 A0.75 0.75 0 0 1 1.75,13.504 L5,13.504 L5,10.714 L2.415,9.42 A0.75 0.75 0 0 1 3.085,8.078 L5.083,9.077 A2.756 2.756 0 0 1 7,7.104 L7,6 A4.99 4.99 0 0 1 8.69,2.252 L7.72,1.28 A0.75 0.75 0 0 1 7.72,0.22 Z M6.5,9.75 L6.5,16 A5.5 5.5 0 1 0 17.5,16 L17.5,9.75 C17.5,9.06 16.94,8.5 16.25,8.5 L7.75,8.5 C7.06,8.5 6.5,9.06 6.5,9.75 Z M8.5,7 L15.5,7 L15.5,6 A3.5 3.5 0 1 0 8.5,6 Z"/>
</svg>
