<svg xmlns="http://www.w3.org/2000/svg" width="24" height="24" viewBox="0 0 24 24">
  <defs/>
  <path d="M5.505,9.117 A7.723 7.723 0 0 1 4.008,8.265 L4.008,12 C4.008,12.524 4.481,13.23 5.808,13.883 C7.075,14.508 8.893,14.954 10.988,15.065 A0.76 0.76 0 0 1 10.908,16.582 C8.666,16.464 6.634,15.984 5.136,15.246 A7.264 7.264 0 0 1 4.008,14.566 L4.008,18.3 C4.008,18.582 4.135,18.91 4.484,19.273 C4.836,19.639 5.383,20.005 6.117,20.328 C7.583,20.973 9.662,21.391 11.998,21.391 C12.575,21.391 13.138,21.366 13.681,21.317 A0.76 0.76 0 0 1 13.816,22.83 A20.47 20.47 0 0 1 11.998,22.91 C9.502,22.91 7.206,22.467 5.505,21.718 C4.656,21.344 3.921,20.88 3.388,20.325 C2.852,19.767 2.488,19.081 2.488,18.3 L2.488,5.7 C2.488,4.918 2.852,4.233 3.388,3.675 C3.921,3.12 4.656,2.655 5.505,2.282 C7.205,1.533 9.502,1.089 11.998,1.089 C14.495,1.089 16.791,1.533 18.491,2.282 C19.341,2.655 20.076,3.12 20.608,3.675 C21.145,4.233 21.508,4.918 21.508,5.7 C21.508,6.481 21.145,7.167 20.608,7.725 C20.076,8.279 19.341,8.745 18.491,9.118 C16.791,9.866 14.495,10.31 11.998,10.31 C9.502,10.31 7.206,9.866 5.505,9.118 Z M4.484,4.727 C4.134,5.089 4.008,5.417 4.008,5.699 C4.008,5.981 4.135,6.309 4.484,6.671 C4.836,7.038 5.383,7.403 6.117,7.726 C7.583,8.372 9.662,8.79 11.998,8.79 C14.335,8.79 16.413,8.372 17.88,7.726 C18.614,7.403 19.16,7.038 19.513,6.671 C19.863,6.308 19.989,5.981 19.989,5.699 C19.989,5.417 19.862,5.089 19.513,4.726 C19.16,4.359 18.613,3.994 17.88,3.671 C16.413,3.026 14.335,2.608 11.998,2.608 C9.662,2.608 7.583,3.026 6.118,3.671 C5.383,3.994 4.836,4.359 4.484,4.726 Z"/>
  <path d="M21.425,11.11 A0.5 0.5 0 0 0 20.544,10.692 L15.106,17.629 A0.5 0.5 0 0 0 15.5,18.437 L18.768,18.437 L17.823,22.897 A0.5 0.5 0 0 0 18.711,23.302 L23.399,17.114 A0.5 0.5 0 0 0 23,16.312 L20.255,16.312 L21.425,11.11 Z"/>
</svg>
