<svg xmlns="http://www.w3.org/2000/svg" width="24" height="24" viewBox="0 0 24 24">
  <defs/>
  <path d="M6.75,0 A0.75 0.75 0 0 1 7.5,0.75 L7.5,3 L16.5,3 L16.5,0.75 A0.75 0.75 0 0 1 18,0.75 L18,3 L20.75,3 C21.716,3 22.5,3.784 22.5,4.75 L22.5,20.75 A1.75 1.75 0 0 1 20.75,22.5 L3.25,22.5 A1.75 1.75 0 0 1 1.5,20.75 L1.5,4.75 C1.5,3.784 2.284,3 3.25,3 L6,3 L6,0.75 A0.75 0.75 0 0 1 6.75,0 Z M21,9.5 L3,9.5 L3,20.75 C3,20.888 3.112,21 3.25,21 L20.75,21 A0.25 0.25 0 0 0 21,20.75 Z M3.25,4.5 A0.25 0.25 0 0 0 3,4.75 L3,8 L21,8 L21,4.75 A0.25 0.25 0 0 0 20.75,4.5 Z"/>
</svg>
