<svg xmlns="http://www.w3.org/2000/svg" width="16" height="16" viewBox="0 0 16 16">
  <defs/>
  <path d="M4.75,0 A0.75 0.75 0 0 1 5.5,0.75 L5.5,2 L10.5,2 L10.5,0.75 A0.75 0.75 0 0 1 12,0.75 L12,2 L13.25,2 C14.216,2 15,2.784 15,3.75 L15,14.25 A1.75 1.75 0 0 1 13.25,16 L2.75,16 A1.75 1.75 0 0 1 1,14.25 L1,3.75 C1,2.784 1.784,2 2.75,2 L4,2 L4,0.75 A0.75 0.75 0 0 1 4.75,0 Z M2.5,7.5 L2.5,14.25 C2.5,14.388 2.612,14.5 2.75,14.5 L13.25,14.5 A0.25 0.25 0 0 0 13.5,14.25 L13.5,7.5 Z M13.25,3.5 L2.75,3.5 A0.25 0.25 0 0 0 2.5,3.75 L2.5,6 L13.5,6 L13.5,3.75 A0.25 0.25 0 0 0 13.25,3.5 Z"/>
</svg>
