<svg xmlns="http://www.w3.org/2000/svg" width="16" height="16" viewBox="0 0 16 16">
  <defs/>
  <path d="M2.5,1.75 L2.5,13.25 C2.5,13.387999534606934 2.611999988555908,13.5 2.75,13.5 L5.920000076293945,13.5 C6.334213733673096,13.5 6.670000076293945,13.835786819458008 6.670000076293945,14.25 C6.670000076293945,14.664213180541992 6.334213733673096,15 5.920000076293945,15 L2.75,15 C1.7835017442703247,15 1,14.216498374938965 1,13.25 L1,1.75 C1,0.7839999794960022 1.784000039100647,0 2.75,0 L11.25,0 C12.215999603271484,0 13,0.7839999794960022 13,1.75 L13,9.486000061035156 C13,9.900213241577148 12.664213180541992,10.236000061035156 12.25,10.236000061035156 C11.835786819458008,10.236000061035156 11.5,9.900213241577148 11.5,9.486000061035156 L11.5,1.75 C11.5,1.6119288206100464 11.388071060180664,1.5 11.25,1.5 L2.75,1.5 C2.611928701400757,1.5 2.5,1.6119288206100464 2.5,1.75 Z M15.77400016784668,11.286999702453613 L15.77400016784668,11.28600025177002 L11.217000007629395,15.736000061035156 C11.071450233459473,15.877848625183105 10.88286018371582,15.948700904846191 10.694313049316406,15.948884963989258 L10.692841529846191,15.948884963989258 C10.500480651855469,15.948697090148926 10.308281898498535,15.874953269958496 10.161999702453613,15.727999687194824 L8.218999862670898,13.777999877929688 C7.944174289703369,13.481974601745605 7.9531569480896,13.021470069885254 8.239317893981934,12.736387252807617 C8.52547836303711,12.451303482055664 8.986013412475586,12.444059371948242 9.281000137329102,12.720000267028809 L10.699999809265137,14.145000457763672 L14.72599983215332,10.213000297546387 C15.022577285766602,9.923603057861328 15.497602462768555,9.929423332214355 15.786999702453613,10.22599983215332 C15.924055099487305,10.366455078125 15.99489688873291,10.546934127807617 16,10.728764533996582 L16,10.771121978759766 C15.994725227355957,10.959092140197754 15.919217109680176,11.14529800415039 15.77400016784668,11.286999702453613 Z M4.75,4 L9.25,4 C9.664213180541992,4 10,4.33578634262085 10,4.75 C10,5.16421365737915 9.664213180541992,5.5 9.25,5.5 L4.75,5.5 C4.33578634262085,5.5 4,5.16421365737915 4,4.75 C4,4.33578634262085 4.33578634262085,4 4.75,4 Z M4,7.75 C4,7.33578634262085 4.33578634262085,7 4.75,7 L6.75,7 C7.16421365737915,7 7.5,7.33578634262085 7.5,7.75 C7.5,8.164213180541992 7.16421365737915,8.5 6.75,8.5 L4.75,8.5 C4.33578634262085,8.5 4,8.164213180541992 4,7.75 Z"/>
</svg>
