<svg xmlns="http://www.w3.org/2000/svg" width="24" height="24" viewBox="0 0 24 24">
  <defs/>
  <path d="M3.5,3.75 A0.25 0.25 0 0 1 3.75,3.5 L17.25,3.5 A0.25 0.25 0 0 1 17.5,3.75 L17.5,13.75 A0.75 0.75 0 0 0 19,13.75 L19,3.75 A1.75 1.75 0 0 0 17.25,2 L3.75,2 A1.75 1.75 0 0 0 2,3.75 L2,20.25 C2,21.216 2.784,22 3.75,22 L10.75,22 A0.75 0.75 0 0 0 10.75,20.5 L3.75,20.5 A0.25 0.25 0 0 1 3.5,20.25 L3.5,3.75 Z"/>
  <path d="M6.25,7 A0.75 0.75 0 0 0 6.25,8.5 L14.75,8.5 A0.75 0.75 0 0 0 14.75,7 L6.25,7 Z M5.5,11.75 A0.75 0.75 0 0 1 6.25,11 L10.75,11 A0.75 0.75 0 0 1 10.75,12.5 L6.25,12.5 A0.75 0.75 0 0 1 5.5,11.75 Z M21.78,16.28 A0.75 0.75 0 1 0 20.72,15.22 L15.75,20.19 L13.78,18.22 A0.75 0.75 0 1 0 12.72,19.28 L15.22,21.78 A0.75 0.75 0 0 0 16.28,21.78 L21.78,16.28 Z"/>
</svg>
