<svg xmlns="http://www.w3.org/2000/svg" width="16" height="16" viewBox="0 0 16 16">
  <defs/>
  <path d="M2.75,1 L13.25,1 C14.216,1 15,1.784 15,2.75 L15,13.25 A1.75 1.75 0 0 1 13.25,15 L2.75,15 A1.75 1.75 0 0 1 1,13.25 L1,2.75 C1,1.784 1.784,1 2.75,1 Z M2.5,2.75 L2.5,13.25 C2.5,13.388 2.612,13.5 2.75,13.5 L13.25,13.5 A0.25 0.25 0 0 0 13.5,13.25 L13.5,2.75 A0.25 0.25 0 0 0 13.25,2.5 L2.75,2.5 A0.25 0.25 0 0 0 2.5,2.75 Z M11.78,6.28 L7.28,10.78 A0.75 0.75 0 0 1 6.22,10.78 L4.22,8.78 A0.751 0.751 0 0 1 4.238,7.738 A0.751 0.751 0 0 1 5.28,7.72 L6.75,9.19 L10.72,5.22 A0.751 0.751 0 0 1 11.762,5.238 A0.751 0.751 0 0 1 11.78,6.28 Z"/>
</svg>
