<svg xmlns="http://www.w3.org/2000/svg" width="16" height="16" viewBox="0 0 16 16">
  <defs/>
  <path d="M0.7200000286102295,1.7200000286102295 C0.8664087653160095,1.5737733840942383 1.0582044124603271,1.5006599426269531 1.25,1.5006599426269531 C1.4417955875396729,1.5006599426269531 1.6335912942886353,1.5737733840942383 1.7799999713897705,1.7200000286102295 L4.091000080108643,4.03000020980835 C4.120999813079834,4.054999828338623 4.146999835968018,4.081999778747559 4.171000003814697,4.110000133514404 L12.70199966430664,12.642000198364258 L12.737000465393066,12.675999641418457 L14.779999732971191,14.720000267028809 C14.981109619140625,14.906742095947266 15.063983917236328,15.188518524169922 14.996000289916992,15.454404830932617 C14.928016662597656,15.720292091369629 14.720062255859375,15.927706718444824 14.454000473022461,15.994999885559082 C14.447102546691895,15.9967679977417 14.440193176269531,15.998434066772461 14.43327522277832,16 L14.102792739868164,16 C13.958498001098633,15.967350006103516 13.82446002960205,15.892129898071289 13.720000267028809,15.779999732971191 L11.920000076293945,13.980999946594238 C11.78036880493164,13.993815422058105 11.640218734741211,14.00015640258789 11.5,14 L3.5,14 C2.5696170330047607,14.006989479064941 1.67531156539917,13.640485763549805 1.0174130201339722,12.982586860656738 C0.3718433082103729,12.337017059326172 0.0068491785787045956,11.463817596435547 0,10.552266120910645 L0,10.5 C0,9.09000015258789 0.8090000152587891,7.886000156402588 2.000999927520752,7.329999923706055 C1.9825297594070435,6.414456367492676 2.2053239345550537,5.51017427444458 2.6470000743865967,4.708000183105469 L0.7200000286102295,2.7799999713897705 C0.4275466203689575,2.487182378768921 0.4275466203689575,2.012817621231079 0.7200000286102295,1.7200000286102295 Z M3.5,7.25 C3.503999948501587,7.410999774932861 3.5179998874664307,7.572000026702881 3.5409998893737793,7.730999946594238 C3.5952796936035156,8.110160827636719 3.355134963989258,8.469300270080566 2.9839999675750732,8.564000129699707 C2.124000072479248,8.784000396728516 1.5,9.550000190734863 1.5,10.5 C1.5,11.62399959564209 2.375999927520752,12.5 3.5,12.5 L10.4399995803833,12.5 L3.7709999084472656,5.831999778747559 C3.5905988216400146,6.282923221588135 3.4985949993133545,6.764330863952637 3.5,7.25 Z M7.25,2 C9.29503059387207,1.9891270399093628 11.158197402954102,3.173002004623413 12.017000198364258,5.0289998054504395 C14.276335716247559,5.277503490447998 15.986906051635742,7.180173397064209 16,9.447555541992188 L16,9.534639358520508 C15.996010780334473,10.570917129516602 15.634121894836426,11.574427604675293 14.975000381469727,12.375 C14.70784854888916,12.681159973144531 14.245476722717285,12.71889591217041 13.932218551635742,12.460104942321777 C13.618959426879883,12.201313972473145 13.568758010864258,11.740129470825195 13.819000244140625,11.420000076293945 C14.2630033493042,10.879024505615234 14.503901481628418,10.199841499328613 14.5,9.5 C14.5,7.823999881744385 13.175999641418457,6.5 11.5,6.5 C11.180425643920898,6.500209331512451 10.895820617675781,6.297894477844238 10.791000366210938,5.995999813079834 C10.266875267028809,4.4916229248046875 8.84302043914795,3.4879674911499023 7.25,3.5 C6.75,3.5 6.2769999504089355,3.5950000286102295 5.8470001220703125,3.765000104904175 C5.462057590484619,3.917982816696167 5.025982856750488,3.729942560195923 4.873000144958496,3.3450000286102295 C4.720016956329346,2.960057497024536 4.908057689666748,2.5239827632904053 5.293000221252441,2.371000051498413 C5.89900016784668,2.130000114440918 6.559999942779541,2 7.25,2 Z"/>
</svg>
