<svg xmlns="http://www.w3.org/2000/svg" width="24" height="24" viewBox="0 0 24 24">
  <defs/>
  <path d="M3.1029999256134033,10.107000350952148 C3.1029999256134033,5.86299991607666 6.547999858856201,2.5 10.836000442504883,2.5 C14.026000022888184,2.5 16.74799919128418,4.357999801635742 17.934999465942383,7.063000202178955 L17.94499969482422,7.085000038146973 L17.945999145507812,7.091000080108643 C21.347999572753906,7.34499979019165 24,10.095000267028809 24,13.53600025177002 C24,17.148000717163086 21.076000213623047,20 17.430999755859375,20 L5.017000198364258,20 C2.2300000190734863,20 0,17.829999923706055 0,15.0600004196167 L0,15.020642280578613 C0.008006180636584759,13.013338088989258 1.2405083179473877,11.212160110473633 3.111999988555908,10.479000091552734 C3.1060023307800293,10.355091094970703 3.103001356124878,10.231054306030273 3.1029999256134033,10.107000350952148 Z M10.836000442504883,4 C7.35099983215332,4 4.603000164031982,6.7170000076293945 4.603000164031982,10.107000350952148 C4.603000164031982,10.390999794006348 4.625,10.708999633789062 4.65500020980835,10.86299991607666 C4.730246543884277,11.253156661987305 4.488145351409912,11.63429069519043 4.103000164031982,11.732000350952148 C2.5829999446868896,12.116999626159668 1.5,13.444000244140625 1.5,15.0600004196167 C1.5,16.976999282836914 3.0320000648498535,18.5 5.017000198364258,18.5 L17.430999755859375,18.5 C20.27400016784668,18.5 22.5,16.29400062561035 22.5,13.53600025177002 C22.5,10.777000427246094 20.27400016784668,8.571000099182129 17.430999755859375,8.571000099182129 C17.12481117248535,8.57109260559082 16.84930992126465,8.385050773620605 16.735000610351562,8.10099983215332 L16.555999755859375,7.65500020980835 C15.605999946594238,5.5 13.423999786376953,4 10.836000442504883,4 Z"/>
</svg>
