<svg xmlns="http://www.w3.org/2000/svg" width="16" height="16" viewBox="0 0 16 16">
  <defs/>
  <path d="M2,7.25 C1.9933120012283325,5.855574131011963 2.5442874431610107,4.516326427459717 3.5303070545196533,3.5303070545196533 C4.516326427459717,2.5442874431610107 5.855574131011963,1.9933120012283325 7.25,2 L7.277933120727539,1.9999257326126099 C9.311983108520508,1.9999257326126099 11.162109375,3.1814558506011963 12.017000198364258,5.0289998054504395 C14.276335716247559,5.277503490447998 15.986906051635742,7.180173397064209 16,9.447555541992188 L16,9.5 C16,12.005000114440918 14.005000114440918,14 11.5,14 L3.5,14 L3.4738662242889404,14.00009822845459 C2.552884578704834,14.00009822845459 1.6691492795944214,13.634323120117188 1.0174130201339722,12.982586860656738 C0.3718433082103729,12.337017059326172 0.0068491785787045956,11.463817596435547 0,10.552266120910645 L0,10.5 C0,9.09000015258789 0.8090000152587891,7.886000156402588 2.000999927520752,7.329999923706055 Z M3.5399999618530273,7.73199987411499 C3.593812942504883,8.11050796508789 3.3543012142181396,8.468914031982422 2.9839999675750732,8.564000129699707 C2.124000072479248,8.784000396728516 1.5,9.550999641418457 1.5,10.5 C1.5,11.62399959564209 2.375999927520752,12.5 3.5,12.5 L11.5,12.5 C13.175999641418457,12.5 14.5,11.175999641418457 14.5,9.5 C14.5,7.823999881744385 13.175999641418457,6.5 11.5,6.5 C11.180425643920898,6.500209331512451 10.895820617675781,6.297894477844238 10.791000366210938,5.995999813079834 C10.266875267028809,4.4916229248046875 8.84302043914795,3.4879674911499023 7.25,3.5 C5.159999847412109,3.5 3.5,5.159999847412109 3.5,7.25 C3.502000093460083,7.395999908447266 3.5139999389648438,7.541999816894531 3.5350000858306885,7.685999870300293 L3.5390000343322754,7.7220001220703125 L3.5399999618530273,7.730000019073486 Z"/>
</svg>
