<svg xmlns="http://www.w3.org/2000/svg" width="24" height="24" viewBox="0 0 24 24">
  <defs/>
  <path d="M2.7799999713897705,2.2200000286102295 L22.280000686645508,21.719999313354492 C22.481109619140625,21.906742095947266 22.563983917236328,22.188518524169922 22.496000289916992,22.454404830932617 C22.428016662597656,22.720293045043945 22.220062255859375,22.92770767211914 21.95400047302246,22.9950008392334 C21.68842315673828,23.06307029724121 21.406879425048828,22.980600357055664 21.219999313354492,22.780000686645508 L18.375,19.934999465942383 C18.06218147277832,19.9781436920166 17.746780395507812,19.999860763549805 17.430999755859375,20 L5.017000198364258,20 C2.2290000915527344,20 0,17.83099937438965 0,15.059000015258789 L0,15.020864486694336 C0.007756773382425308,13.013683319091797 1.2398619651794434,11.212494850158691 3.1110000610351562,10.479000091552734 C3.0269055366516113,8.86525821685791 3.4648661613464355,7.267350673675537 4.360000133514404,5.921999931335449 L1.7200000286102295,3.2799999713897705 C1.4448165893554688,2.984339714050293 1.4527690410614014,2.523979425430298 1.7380000352859497,2.23799991607666 C1.884188175201416,2.0921945571899414 2.0759437084198,2.0188443660736084 2.267972946166992,2.0187320709228516 L2.2688560485839844,2.0187320709228516 C2.4521889686584473,2.0188393592834473 2.6357083320617676,2.0857017040252686 2.7799999713897705,2.2200000286102295 Z M16.940000534057617,18.5 L5.447999954223633,7.010000228881836 C4.759754657745361,8.169344902038574 4.480183124542236,9.526006698608398 4.6539998054504395,10.86299991607666 C4.729246616363525,11.253156661987305 4.48714542388916,11.63429069519043 4.1020002365112305,11.732000350952148 C2.5820000171661377,12.116999626159668 1.4989999532699585,13.444000244140625 1.4989999532699585,15.0600004196167 C1.4989999532699585,16.976999282836914 3.0309998989105225,18.5 5.015999794006348,18.5 Z M10.836000442504883,2.5 L10.836999893188477,2.5 C14.026000022888184,2.5 16.749000549316406,4.357999801635742 17.93400001525879,7.063000202178955 C17.93747329711914,7.0702691078186035 17.940807342529297,7.077603816986084 17.944000244140625,7.085000038146973 L17.945999145507812,7.091000080108643 C21.347999572753906,7.34499979019165 24,10.095999717712402 24,13.53600025177002 L24,13.576988220214844 C23.99410629272461,15.41989517211914 23.19341468811035,17.17154312133789 21.802000045776367,18.381999969482422 C21.488990783691406,18.644256591796875 21.023693084716797,18.6079044342041 20.75521469116211,18.300214767456055 C20.48673439025879,17.99252700805664 20.51375389099121,17.526592254638672 20.81599998474121,17.25200080871582 C21.89082145690918,16.317020416259766 22.50553321838379,14.960569381713867 22.5,13.53600025177002 C22.5,10.777000427246094 20.27400016784668,8.571000099182129 17.430999755859375,8.571000099182129 C17.12456512451172,8.570928573608398 16.8489933013916,8.384443283081055 16.735000610351562,8.100000381469727 L16.555999755859375,7.65500020980835 C15.605999946594238,5.5 13.423999786376953,4 10.836000442504883,4 C9.811078071594238,3.996352434158325 8.800433158874512,4.240265846252441 7.889999866485596,4.710999965667725 C7.522454261779785,4.902090549468994 7.0695905685424805,4.759045600891113 6.878499984741211,4.391499996185303 C6.687409400939941,4.023954391479492 6.830454349517822,3.5710904598236084 7.197999954223633,3.380000114440918 C8.322182655334473,2.798184871673584 9.57018756866455,2.4963037967681885 10.836000442504883,2.5 Z"/>
</svg>
