<svg xmlns="http://www.w3.org/2000/svg" width="16" height="16" viewBox="0 0 16 16">
  <defs/>
  <path d="M0,11.25 C0,10.284 0.784,9.5 1.75,9.5 L14.25,9.5 C15.216,9.5 16,10.284 16,11.25 L16,14.25 A1.75 1.75 0 0 1 14.25,16 L1.75,16 A1.75 1.75 0 0 1 0,14.25 Z M2,1.75 C2,0.784 2.784,0 3.75,0 L12.25,0 C13.216,0 14,0.784 14,1.75 L14,6.75 A1.75 1.75 0 0 1 12.25,8.5 L3.75,8.5 A1.75 1.75 0 0 1 2,6.75 Z M3.75,1.5 A0.25 0.25 0 0 0 3.5,1.75 L3.5,6.75 C3.5,6.888 3.612,7 3.75,7 L12.25,7 A0.25 0.25 0 0 0 12.5,6.75 L12.5,1.75 A0.25 0.25 0 0 0 12.25,1.5 Z M1.75,11 A0.25 0.25 0 0 0 1.5,11.25 L1.5,14.25 C1.5,14.388 1.612,14.5 1.75,14.5 L14.25,14.5 A0.25 0.25 0 0 0 14.5,14.25 L14.5,11.25 A0.25 0.25 0 0 0 14.25,11 Z"/>
  <path d="M7,12.75 A0.75 0.75 0 0 1 7.75,12 L12.25,12 A0.75 0.75 0 0 1 12.25,13.5 L7.75,13.5 A0.75 0.75 0 0 1 7,12.75 Z M3,12.75 A0.75 0.75 0 0 1 3.75,12 L4.25,12 A0.75 0.75 0 0 1 4.25,13.5 L3.75,13.5 A0.75 0.75 0 0 1 3,12.75 Z"/>
</svg>
