<svg xmlns="http://www.w3.org/2000/svg" width="16" height="16" viewBox="0 0 16 16">
  <defs/>
  <path d="M8.04800033569336,2.240999937057495 C9.01200008392334,1.531999945640564 10.126999855041504,1.003000020980835 11.373000144958496,1 C12.603904724121094,0.9960083961486816 13.785422325134277,1.48380708694458 14.654999732971191,2.3550000190734863 C15.0649995803833,2.763000011444092 15.411999702453613,3.2149999141693115 15.651000022888184,3.7829999923706055 C15.887818336486816,4.348179340362549 15.997903823852539,4.982665061950684 15.998006820678711,5.739657402038574 L15.998006820678711,5.741781234741211 L15.998000144958496,5.750999927520752 C15.998000144958496,7.943999767303467 14.493000030517578,10.005000114440918 12.916999816894531,11.61299991607666 C11.420999526977539,13.138999938964844 9.704000473022461,14.409000396728516 8.668000221252441,15.175999641418457 L8.447999954223633,15.33899974822998 C8.315470695495605,15.437742233276367 8.158430099487305,15.487201690673828 8.00134563446045,15.48737907409668 L7.999653339385986,15.48737907409668 C7.842568874359131,15.487201690673828 7.685528755187988,15.437742233276367 7.552999973297119,15.33899974822998 L7.331999778747559,15.175999641418457 C6.296000003814697,14.409000396728516 4.578999996185303,13.138999938964844 3.0829999446868896,11.61299991607666 C1.5099999904632568,10.008000373840332 0.007000000216066837,7.952000141143799 0.0020000000949949026,5.76200008392334 C0.0009428210905753076,5.72734260559082 0.00027693400625139475,5.692715167999268 0,5.65812349319458 L0,5.5841875076293945 C0.009689966216683388,4.373992919921875 0.49489811062812805,3.2131357192993164 1.3550000190734863,2.3550000190734863 C2.2594220638275146,1.449554681777954 3.5124080181121826,0.9947300553321838 4.764971733093262,0.9944080114364624 L4.76763391494751,0.9944080114364624 C5.962742805480957,0.9947152733802795 7.157242298126221,1.4087885618209839 8.04800033569336,2.240000009536743 Z M6.894999980926514,3.2239999771118164 C5.644999980926514,2.190999984741211 3.5739998817443848,2.256999969482422 2.4149999618530273,3.4149999618530273 C1.7970482110977173,4.031097412109375 1.4658477306365967,4.878143787384033 1.5019999742507935,5.75 C1.5019999742507935,7.306000232696533 2.6110000610351562,8.989999771118164 4.1539998054504395,10.562999725341797 C5.4629998207092285,11.89799976348877 6.960000038146973,13.031999588012695 8,13.805000305175781 C8.352999687194824,13.543000221252441 8.758000373840332,13.239999771118164 9.190999984741211,12.899999618530273 L7.864999771118164,11.677000045776367 C7.560690879821777,11.39588737487793 7.541887283325195,10.921308517456055 7.822999954223633,10.616999626159668 C8.10411262512207,10.312690734863281 8.578691482543945,10.2938871383667 8.883000373840332,10.574999809265137 L10.36299991607666,11.940999984741211 C10.690999984741211,11.65999984741211 11.022000312805176,11.36400032043457 11.347000122070312,11.053999900817871 L9.989999771118164,9.802000045776367 C9.685415267944336,9.520610809326172 9.666610717773438,9.045584678649902 9.947999954223633,8.741000175476074 C10.229389190673828,8.43641471862793 10.704415321350098,8.417611122131348 11.008999824523926,8.699000358581543 L12.392999649047852,9.979000091552734 C12.687999725341797,9.649999618530273 12.958999633789062,9.317999839782715 13.20300006866455,8.984000205993652 L12.920000076293945,8.699999809265137 L11.753000259399414,7.5320000648498535 C11.079000473022461,6.861000061035156 9.972999572753906,6.868000030517578 9.279000282287598,7.561999797821045 C9.01099967956543,7.830999851226807 8.741000175476074,8.098999977111816 8.47700023651123,8.359000205993652 C7.584000110626221,9.241000175476074 6.1579999923706055,9.20199966430664 5.291999816894531,8.32699966430664 C4.946000099182129,7.9770002365112305 4.598999977111816,7.630000114440918 4.249000072479248,7.28000020980835 C3.9730992317199707,7.003434658050537 3.9556963443756104,6.561400413513184 4.209000110626221,6.263999938964844 C4.370999813079834,6.072999954223633 4.545000076293945,5.86299991607666 4.729000091552734,5.640999794006348 C5.348999977111816,4.89300012588501 6.085000038146973,4.004000186920166 6.894999980926514,3.2239999771118164 Z M14.006999969482422,7.665999889373779 C14.319999694824219,7.015999794006348 14.498000144958496,6.373000144958496 14.498000144958496,5.75 L14.498000144958496,5.749000072479248 C14.498000144958496,5.135000228881836 14.40999984741211,4.703999996185303 14.267999649047852,4.363999843597412 C14.125,4.025000095367432 13.91100025177002,3.7309999465942383 13.595000267028809,3.4149999618530273 C13.007752418518066,2.8256993293762207 12.208937644958496,2.4961612224578857 11.376999855041504,2.5 C10.28499984741211,2.503000020980835 9.211999893188477,3.127000093460083 8.151000022888184,4.1020002365112305 C7.328000068664551,4.85699987411499 6.5970001220703125,5.738999843597412 5.922999858856201,6.552000045776367 L5.796000003814697,6.705999851226807 L6.357999801635742,7.271999835968018 C6.6471052169799805,7.571293830871582 7.123871803283691,7.5802388191223145 7.423999786376953,7.291999816894531 L8.218000411987305,6.501999855041504 C9.47599983215332,5.24399995803833 11.529999732971191,5.191999912261963 12.812000274658203,6.46999979019165 C13.208000183105469,6.863999843597412 13.604000091552734,7.261000156402588 13.984999656677246,7.64300012588501 Z"/>
</svg>
