<svg xmlns="http://www.w3.org/2000/svg" width="16" height="16" viewBox="0 0 16 16">
  <defs/>
  <path d="M8.47,4.97 A0.75 0.75 0 0 0 8.47,6.03 L9.94,7.5 L8.47,8.97 A0.75 0.75 0 1 0 9.53,10.03 L11.53,8.03 A0.75 0.75 0 0 0 11.53,6.97 L9.53,4.97 A0.75 0.75 0 0 0 8.47,4.97 Z M6.53,6.03 A0.75 0.75 0 0 0 5.47,4.97 L3.47,6.97 A0.75 0.75 0 0 0 3.47,8.03 L5.47,10.03 A0.75 0.75 0 1 0 6.53,8.97 L5.06,7.5 L6.53,6.03 Z"/>
  <path d="M12.246000289916992,13.307000160217285 C9.151549339294434,15.836639404296875 4.617110729217529,15.495604515075684 1.935839056968689,12.531573295593262 C0.686913251876831,11.150938987731934 0.04441706836223602,9.427109718322754 0,7.693734645843506 L0,7.30738639831543 C0.047623950988054276,5.448672771453857 0.7825686931610107,3.607492208480835 2.194530487060547,2.195530414581299 C3.6176469326019287,0.7724141478538513 5.476790428161621,0.03705407679080963 7.350440979003906,0 L7.648684501647949,0 C9.396882057189941,0.03457578271627426 11.13824462890625,0.6773338913917542 12.530573844909668,1.936838984489441 C15.494604110717773,4.618110656738281 15.835638999938965,9.152549743652344 13.305999755859375,12.246999740600586 L15.779999732971191,14.720000267028809 C15.8916015625,14.823629379272461 15.96679401397705,14.956523895263672 16,15.09972858428955 L16,15.437996864318848 C15.998730659484863,15.443471908569336 15.997397422790527,15.448942184448242 15.996000289916992,15.454404830932617 C15.928016662597656,15.720292091369629 15.720062255859375,15.927706718444824 15.454000473022461,15.994999885559082 C15.447102546691895,15.9967679977417 15.440193176269531,15.998434066772461 15.43327522277832,16 L15.102792739868164,16 C14.958498001098633,15.967350006103516 14.82446002960205,15.892129898071289 14.720000267028809,15.779999732971191 Z M1.5,7.5 C1.4999548196792603,9.889262199401855 2.9170258045196533,12.051002502441406 5.107999801635742,13.003999710083008 C7.299602508544922,13.955900192260742 9.847075462341309,13.517181396484375 11.593999862670898,11.88700008392334 C11.661855697631836,11.763826370239258 11.763059616088867,11.662276268005371 11.88599967956543,11.593999862670898 C13.721680641174316,9.627518653869629 14.024118423461914,6.679584503173828 12.625970840454102,4.3813347816467285 C11.227823257446289,2.0830845832824707 8.470874786376953,0.9963382482528687 5.880586624145508,1.7224088907241821 C3.2902987003326416,2.448479413986206 1.4998812675476074,4.80987548828125 1.5,7.5 Z"/>
</svg>
