<svg xmlns="http://www.w3.org/2000/svg" width="16" height="16" viewBox="0 0 16 16">
  <defs/>
  <path d="M0,1.75 C0,0.784 0.784,0 1.75,0 L14.25,0 C15.216,0 16,0.784 16,1.75 L16,14.25 A1.75 1.75 0 0 1 14.25,16 L1.75,16 A1.75 1.75 0 0 1 0,14.25 Z M1.75,1.5 A0.25 0.25 0 0 0 1.5,1.75 L1.5,14.25 C1.5,14.388 1.612,14.5 1.75,14.5 L14.25,14.5 A0.25 0.25 0 0 0 14.5,14.25 L14.5,1.75 A0.25 0.25 0 0 0 14.25,1.5 Z M9.22,5.47 A0.75 0.75 0 0 1 10.28,5.47 L12.28,7.47 A0.75 0.75 0 0 1 12.28,8.53 L10.28,10.53 A0.749 0.749 0 0 1 9.005,10.204 A0.749 0.749 0 0 1 9.22,9.47 L10.69,8 L9.22,6.53 A0.75 0.75 0 0 1 9.22,5.47 Z M6.78,6.53 L5.31,8 L6.78,9.47 A0.749 0.749 0 0 1 6.454,10.745 A0.749 0.749 0 0 1 5.72,10.53 L3.72,8.53 A0.75 0.75 0 0 1 3.72,7.47 L5.72,5.47 A0.751 0.751 0 0 1 6.762,5.488 A0.751 0.751 0 0 1 6.78,6.53 Z"/>
</svg>
