<svg xmlns="http://www.w3.org/2000/svg" width="24" height="24" viewBox="0 0 24 24">
  <defs/>
  <path d="M3.5,3.75 C3.5,2.784 4.284,2 5.25,2 L18.75,2 C19.716,2 20.5,2.784 20.5,3.75 L20.5,11.25 A1.75 1.75 0 0 1 18.75,13 L5.25,13 A1.75 1.75 0 0 1 3.5,11.25 Z M1.5,15.75 C1.5,14.784 2.284,14 3.25,14 L20.75,14 C21.716,14 22.5,14.784 22.5,15.75 L22.5,19.75 A1.75 1.75 0 0 1 20.75,21.5 L3.25,21.5 A1.75 1.75 0 0 1 1.5,19.75 Z M5.25,3.5 A0.25 0.25 0 0 0 5,3.75 L5,11.25 C5,11.388 5.112,11.5 5.25,11.5 L18.75,11.5 A0.25 0.25 0 0 0 19,11.25 L19,3.75 A0.25 0.25 0 0 0 18.75,3.5 Z M3.25,15.5 A0.25 0.25 0 0 0 3,15.75 L3,19.75 C3,19.888 3.112,20 3.25,20 L20.75,20 A0.25 0.25 0 0 0 21,19.75 L21,15.75 A0.25 0.25 0 0 0 20.75,15.5 Z"/>
  <path d="M10,17.75 A0.75 0.75 0 0 1 10.75,17 L17.25,17 A0.75 0.75 0 0 1 17.25,18.5 L10.75,18.5 A0.75 0.75 0 0 1 10,17.75 Z M6,17.75 A0.75 0.75 0 0 1 6.75,17 L7.25,17 A0.75 0.75 0 0 1 7.25,18.5 L6.75,18.5 A0.75 0.75 0 0 1 6,17.75 Z"/>
</svg>
