<svg xmlns="http://www.w3.org/2000/svg" width="24" height="24" viewBox="0 0 24 24">
  <defs/>
  <path d="M15.22,4.97 A0.75 0.75 0 0 1 16.28,4.97 L22.78,11.47 A0.75 0.75 0 0 1 22.78,12.53 L16.28,19.03 A0.749 0.749 0 0 1 15.005,18.704 A0.749 0.749 0 0 1 15.22,17.97 L21.19,12 L15.22,6.03 A0.75 0.75 0 0 1 15.22,4.97 Z M8.78,4.97 A0.75 0.75 0 0 1 8.78,6.03 L2.81,12 L8.78,17.97 A0.749 0.749 0 0 1 8.454,19.245 A0.749 0.749 0 0 1 7.72,19.03 L1.22,12.53 A0.75 0.75 0 0 1 1.22,11.47 L7.72,4.97 A0.75 0.75 0 0 1 8.78,4.97 Z"/>
</svg>
