<svg xmlns="http://www.w3.org/2000/svg" width="24" height="24" viewBox="0 0 24 24">
  <defs/>
  <path d="M15.03,8.28 A0.75 0.75 0 0 0 13.97,7.22 L8.75,12.44 L6.53,10.22 A0.75 0.75 0 1 0 5.47,11.28 L8.22,14.03 A0.75 0.75 0 0 0 9.28,14.03 L15.03,8.28 Z"/>
  <path d="M0,10.5 C0,4.701 4.701,0 10.5,0 C16.299,0 21,4.701 21,10.5 C21,13.13 20.033,15.533 18.436,17.375 L22.78,21.72 A0.749 0.749 0 0 1 22.454,22.995 A0.749 0.749 0 0 1 21.72,22.78 L17.375,18.436 A10.457 10.457 0 0 1 10.5,21 C4.701,21 0,16.299 0,10.5 Z M10.5,1.5 A9 9 0 0 0 1.5,10.5 A9 9 0 0 0 10.5,19.5 A9 9 0 0 0 19.5,10.5 A9 9 0 0 0 10.5,1.5 Z"/>
</svg>
