<svg xmlns="http://www.w3.org/2000/svg" width="24" height="24" viewBox="0 0 24 24">
  <defs/>
  <path d="M2.828,4.328 C5.26,1.896 9.5,1.881 11.935,4.317 C11.959,4.341 11.981,4.367 12.002,4.393 C13.393,3.315 14.995,2.507 16.779,2.503 A6.22 6.22 0 0 1 21.203,4.328 C21.762,4.888 22.226,5.493 22.543,6.25 C22.861,7.006 23.013,7.867 23.011,8.913 C23.011,11.885 20.964,14.721 18.742,16.987 C16.644,19.127 14.235,20.911 12.768,21.996 L12.457,22.226 A0.752 0.752 0 0 1 11.56,22.226 L11.248,21.996 C9.782,20.911 7.373,19.127 5.275,16.987 C3.055,14.724 1.011,11.892 1.005,8.924 A6.216 6.216 0 0 1 2.828,4.328 Z M10.861,5.37 C9.015,3.536 5.737,3.547 3.892,5.392 A4.712 4.712 0 0 0 2.51,8.912 C2.51,11.244 4.16,13.702 6.349,15.934 C8.296,17.92 10.533,19.594 12.009,20.686 A78.214 78.214 0 0 0 14.168,19.041 L12.028,17.067 A0.752 0.752 0 0 1 13.048,15.961 L15.343,18.079 C15.959,17.559 16.585,16.999 17.193,16.407 L15.033,14.415 A0.753 0.753 0 0 1 16.054,13.309 L18.242,15.329 A18.963 18.963 0 0 0 19.77,13.452 L19.185,12.866 L17.534,11.214 C16.456,10.14 14.697,10.159 13.599,11.257 C13.22,11.637 12.839,12.015 12.467,12.383 C11.327,13.507 9.507,13.46 8.397,12.34 C7.908,11.845 7.417,11.352 6.922,10.858 A0.752 0.752 0 0 1 6.882,9.839 C7.116,9.563 7.365,9.263 7.627,8.946 C8.555,7.826 9.65,6.504 10.861,5.37 Z M20.586,12.14 C21.165,11.06 21.506,9.973 21.506,8.912 C21.508,8.013 21.378,7.36 21.156,6.832 C20.936,6.306 20.605,5.858 20.139,5.392 A4.71 4.71 0 0 0 16.783,4.008 C15.123,4.012 13.533,4.959 12.013,6.354 C10.833,7.438 9.78,8.707 8.825,9.86 L8.474,10.283 C8.805,10.615 9.137,10.947 9.467,11.281 A1.375 1.375 0 0 0 11.41,11.311 C11.78,10.946 12.158,10.571 12.535,10.193 C14.197,8.53 16.908,8.467 18.595,10.148 C19.155,10.706 19.715,11.268 20.253,11.806 Z"/>
</svg>
