<svg xmlns="http://www.w3.org/2000/svg" width="16" height="16" viewBox="0 0 16 16">
  <defs/>
  <path d="M1.75,1 L14.25,1 C15.216,1 16,1.784 16,2.75 L16,11.25 A1.75 1.75 0 0 1 14.25,13 L8.061,13 L5.487,15.573 A1.458 1.458 0 0 1 3,14.543 L3,13 L1.75,13 A1.75 1.75 0 0 1 0,11.25 L0,2.75 C0,1.784 0.784,1 1.75,1 Z M1.5,2.75 L1.5,11.25 C1.5,11.388 1.612,11.5 1.75,11.5 L3.75,11.5 A0.75 0.75 0 0 1 4.5,12.25 L4.5,14.44 L7.22,11.72 A0.749 0.749 0 0 1 7.75,11.5 L14.25,11.5 A0.25 0.25 0 0 0 14.5,11.25 L14.5,2.75 A0.25 0.25 0 0 0 14.25,2.5 L1.75,2.5 A0.25 0.25 0 0 0 1.5,2.75 Z M6.78,4.47 A0.75 0.75 0 0 1 6.78,5.53 L5.31,7 L6.78,8.47 A0.751 0.751 0 0 1 6.762,9.512 A0.751 0.751 0 0 1 5.72,9.53 L3.72,7.53 A0.75 0.75 0 0 1 3.72,6.47 L5.72,4.47 A0.75 0.75 0 0 1 6.78,4.47 Z M9.22,4.47 A0.75 0.75 0 0 1 10.28,4.47 L12.28,6.47 A0.75 0.75 0 0 1 12.28,7.53 L10.28,9.53 A0.751 0.751 0 0 1 9.238,9.512 A0.751 0.751 0 0 1 9.22,8.47 L10.69,7 L9.22,5.53 A0.75 0.75 0 0 1 9.22,4.47 Z"/>
</svg>
