<svg xmlns="http://www.w3.org/2000/svg" width="16" height="16" viewBox="0 0 16 16">
  <defs/>
  <path d="M10.28,6.28 A0.75 0.75 0 1 0 9.22,5.22 L6.25,8.19 L5.28,7.22 A0.75 0.75 0 0 0 4.22,8.28 L5.72,9.78 A0.75 0.75 0 0 0 6.78,9.78 L10.28,6.28 Z"/>
  <path d="M7.5,15 C3.9924182891845703,15.000170707702637 0.9531786441802979,12.56922435760498 0.18277645111083984,9.147293090820312 C0.06850876659154892,8.639744758605957 0.008681398816406727,8.130504608154297 0,7.6263346672058105 L0,7.369137287139893 C0.048192765563726425,4.57076358795166 1.6667424440383911,1.9655786752700806 4.28582763671875,0.7234639525413513 C5.288358688354492,0.24800832569599152 6.352778434753418,0.01244377251714468 7.408056735992432,0 L7.584769248962402,0 C9.80391788482666,0.026162192225456238 11.9649658203125,1.0371860265731812 13.405043601989746,2.8765645027160645 C15.567320823669434,5.638391494750977 15.52659797668457,9.530025482177734 13.307000160217285,12.246000289916992 L15.779999732971191,14.720000267028809 C15.8916015625,14.823629379272461 15.96679401397705,14.956523895263672 16,15.09972858428955 L16,15.437996864318848 C15.998730659484863,15.443471908569336 15.997397422790527,15.448942184448242 15.996000289916992,15.454404830932617 C15.928016662597656,15.720292091369629 15.720062255859375,15.927706718444824 15.454000473022461,15.994999885559082 C15.447102546691895,15.9967679977417 15.440193176269531,15.998434066772461 15.43327522277832,16 L15.102792739868164,16 C14.958498001098633,15.967350006103516 14.82446002960205,15.892129898071289 14.720000267028809,15.779999732971191 L12.246000289916992,13.307000160217285 C10.907746315002441,14.403831481933594 9.230305671691895,15.00221061706543 7.5,15 Z M7.5,1.5 C4.80987548828125,1.4998812675476074 2.448479413986206,3.2902987003326416 1.7224088907241821,5.880586624145508 C0.9963382482528687,8.470874786376953 2.0830845832824707,11.227823257446289 4.3813347816467285,12.625970840454102 C6.679584503173828,14.024118423461914 9.627518653869629,13.721680641174316 11.593999862670898,11.88599967956543 C11.662276268005371,11.763059616088867 11.763826370239258,11.661855697631836 11.88700008392334,11.593999862670898 C13.517181396484375,9.847075462341309 13.955900192260742,7.299602508544922 13.003999710083008,5.107999801635742 C12.051002502441406,2.9170258045196533 9.889262199401855,1.4999548196792603 7.5,1.5 Z"/>
</svg>
