<svg xmlns="http://www.w3.org/2000/svg" width="16" height="16" viewBox="0 0 16 16">
  <defs/>
  <path d="M11.28,3.22 L15.53,7.47 A0.75 0.75 0 0 1 15.53,8.53 L11.28,12.78 A0.749 0.749 0 0 1 10.005,12.454 A0.749 0.749 0 0 1 10.22,11.72 L13.94,8 L10.22,4.28 A0.749 0.749 0 0 1 10.546,3.005 A0.749 0.749 0 0 1 11.28,3.22 Z M4.72,3.22 A0.751 0.751 0 0 1 5.762,3.238 A0.751 0.751 0 0 1 5.78,4.28 L2.06,8 L5.78,11.72 A0.749 0.749 0 0 1 5.454,12.995 A0.749 0.749 0 0 1 4.72,12.78 L0.47,8.53 A0.75 0.75 0 0 1 0.47,7.47 Z"/>
</svg>
