<svg xmlns="http://www.w3.org/2000/svg" width="24" height="24" viewBox="0 0 24 24">
  <defs/>
  <path d="M3.75,2 L9.25,2 C10.216,2 11,2.784 11,3.75 L11,20.25 A1.75 1.75 0 0 1 9.25,22 L3.75,22 A1.75 1.75 0 0 1 2,20.25 L2,3.75 C2,2.784 2.784,2 3.75,2 Z M14.75,2 L20.25,2 C21.216,2 22,2.784 22,3.75 L22,20.25 A1.75 1.75 0 0 1 20.25,22 L14.75,22 A1.75 1.75 0 0 1 13,20.25 L13,3.75 C13,2.784 13.784,2 14.75,2 Z M3.5,3.75 L3.5,20.25 C3.5,20.388 3.612,20.5 3.75,20.5 L9.25,20.5 A0.25 0.25 0 0 0 9.5,20.25 L9.5,3.75 A0.25 0.25 0 0 0 9.25,3.5 L3.75,3.5 A0.25 0.25 0 0 0 3.5,3.75 Z M14.5,3.75 L14.5,20.25 C14.5,20.388 14.612,20.5 14.75,20.5 L20.25,20.5 A0.25 0.25 0 0 0 20.5,20.25 L20.5,3.75 A0.25 0.25 0 0 0 20.25,3.5 L14.75,3.5 A0.25 0.25 0 0 0 14.5,3.75 Z"/>
</svg>
