<svg xmlns="http://www.w3.org/2000/svg" width="16" height="16" viewBox="0 0 16 16">
  <defs/>
  <path d="M1,2.75 C1,1.784 1.784,1 2.75,1 L13.25,1 C14.216,1 15,1.784 15,2.75 L15,10.25 A1.75 1.75 0 0 1 13.25,12 L9.06,12 L6.487,14.573 A1.458 1.458 0 0 1 4,13.543 L4,12 L2.75,12 A1.75 1.75 0 0 1 1,10.25 Z M2.75,2.5 A0.25 0.25 0 0 0 2.5,2.75 L2.5,10.25 C2.5,10.388 2.612,10.5 2.75,10.5 L4.75,10.5 A0.75 0.75 0 0 1 5.5,11.25 L5.5,13.44 L8.22,10.72 A0.749 0.749 0 0 1 8.75,10.5 L13.25,10.5 A0.25 0.25 0 0 0 13.5,10.25 L13.5,2.75 A0.25 0.25 0 0 0 13.25,2.5 Z"/>
</svg>
