<svg xmlns="http://www.w3.org/2000/svg" width="16" height="16" viewBox="0 0 16 16">
  <defs/>
  <path d="M1.75,1 L10.25,1 C11.216,1 12,1.784 12,2.75 L12,8.25 A1.75 1.75 0 0 1 10.25,10 L7.061,10 L4.487,12.573 A1.458 1.458 0 0 1 2,11.543 L2,10 L1.75,10 A1.75 1.75 0 0 1 0,8.25 L0,2.75 C0,1.784 0.784,1 1.75,1 Z M1.5,2.75 L1.5,8.25 C1.5,8.388 1.612,8.5 1.75,8.5 L2.75,8.5 A0.75 0.75 0 0 1 3.5,9.25 L3.5,11.44 L6.22,8.72 A0.749 0.749 0 0 1 6.75,8.5 L10.25,8.5 A0.25 0.25 0 0 0 10.5,8.25 L10.5,2.75 A0.25 0.25 0 0 0 10.25,2.5 L1.75,2.5 A0.25 0.25 0 0 0 1.5,2.75 Z M14.5,4.75 A0.25 0.25 0 0 0 14.25,4.5 L13.75,4.5 A0.75 0.75 0 0 1 13.75,3 L14.25,3 C15.216,3 16,3.784 16,4.75 L16,10.25 A1.75 1.75 0 0 1 14.25,12 L14,12 L14,13.543 A1.458 1.458 0 0 1 11.513,14.573 L9.22,12.28 A0.749 0.749 0 0 1 9.546,11.005 A0.749 0.749 0 0 1 10.28,11.22 L12.5,13.44 L12.5,11.25 A0.75 0.75 0 0 1 13.25,10.5 L14.25,10.5 A0.25 0.25 0 0 0 14.5,10.25 Z"/>
</svg>
