<svg xmlns="http://www.w3.org/2000/svg" width="16" height="16" viewBox="0 0 16 16">
  <defs/>
  <path d="M10.40999984741211,0.23999999463558197 L15.121000289916992,3.0139999389648438 C15.664999961853027,3.3299999237060547 15.99899959564209,3.9110000133514404 16,4.539999961853027 L16,9.550065040588379 C15.999988555908203,10.180347442626953 15.664811134338379,10.763075828552246 15.119999885559082,11.079999923706055 L7.367000102996826,15.60099983215332 L7.364999771118164,15.60200023651123 C6.816400051116943,15.919929504394531 6.139599800109863,15.919929504394531 5.591000080108643,15.60200023651123 L5.590000152587891,15.60200023651123 L0.8730000257492065,12.850000381469727 C0.3329909145832062,12.53467082977295 0.0008105169399641454,11.956689834594727 0,11.331585884094238 L0,6.291999816894531 C0,5.98799991607666 0.07800000160932541,5.693999767303467 0.2199999988079071,5.436999797821045 L0.2240000069141388,5.432000160217285 L0.23399999737739563,5.413000106811523 C0.3840000033378601,5.151000022888184 0.6029999852180481,4.927000045776367 0.8740000128746033,4.769999980926514 L8.640999794006348,0.23899999260902405 C8.913681983947754,0.08000341057777405 9.218591690063477,0.0005051195621490479 9.523500442504883,0.0005051195621490479 C9.828409194946289,0.0005051195621490479 10.133317947387695,0.08000341057777405 10.406000137329102,0.23899999260902405 L10.407999992370605,0.23999999463558197 Z M9.397000312805176,1.534000039100647 L2.2269999980926514,5.716000080108643 L6.3429999351501465,8.104000091552734 C6.426283836364746,8.151846885681152 6.528716087341309,8.151846885681152 6.611999988555908,8.104000091552734 L13.763999938964844,3.9560000896453857 L9.64900016784668,1.534000039100647 C9.571030616760254,1.4889845848083496 9.474968910217285,1.4889845848083496 9.397000312805176,1.534000039100647 Z M1.628999948501587,11.553999900817871 L5.729000091552734,13.946999549865723 L5.729000091552734,9.473999977111816 C5.681987285614014,9.451992988586426 5.635944366455078,9.427970886230469 5.591000080108643,9.402000427246094 L1.5,7.0289998054504395 L1.5,11.32699966430664 C1.5,11.42199993133545 1.5499999523162842,11.508000373840332 1.628999948501587,11.553999900817871 Z M10.229000091552734,12.196000099182129 L11.75,11.309000015258789 L11.75,6.859000205993652 L10.229000091552734,7.741000175476074 Z M7.364999771118164,9.402000427246094 L7.366000175476074,9.402000427246094 C7.322000026702881,9.428000450134277 7.276000022888184,9.451000213623047 7.230000019073486,9.472999572753906 L7.230000019073486,13.944999694824219 L8.729999542236328,13.069999694824219 L8.729999542236328,8.609999656677246 Z M13.25,10.434000015258789 L14.364999771118164,9.784000396728516 L14.366999626159668,9.784000396728516 C14.44965648651123,9.736040115356445 14.50037956237793,9.647562026977539 14.5,9.552000045776367 L14.5,5.263999938964844 L13.25,5.988999843597412 Z"/>
</svg>
