<svg xmlns="http://www.w3.org/2000/svg" width="24" height="24" viewBox="0 0 24 24">
  <defs/>
  <path d="M8.75,8 L15.25,8 A0.75 0.75 0 0 1 16,8.75 L16,15.25 A0.75 0.75 0 0 1 15.25,16 L8.75,16 A0.75 0.75 0 0 1 8,15.25 L8,8.75 A0.75 0.75 0 0 1 8.75,8 Z M9.5,14.5 L14.5,14.5 L14.5,9.5 L9.5,9.5 Z"/>
  <path d="M15.25,1 A0.75 0.75 0 0 1 16,1.75 L16,4 L18.25,4 C19.216,4 20,4.784 20,5.75 L20,8 L22.25,8 A0.75 0.75 0 0 1 22.25,9.5 L20,9.5 L20,14.5 L22.25,14.5 A0.75 0.75 0 0 1 22.25,16 L20,16 L20,18.25 A1.75 1.75 0 0 1 18.25,20 L16,20 L16,22.25 A0.75 0.75 0 0 1 14.5,22.25 L14.5,20 L9.5,20 L9.5,22.25 A0.75 0.75 0 0 1 8,22.25 L8,20 L5.75,20 A1.75 1.75 0 0 1 4,18.25 L4,16 L1.75,16 A0.75 0.75 0 0 1 1.75,14.5 L4,14.5 L4,9.5 L1.75,9.5 A0.75 0.75 0 0 1 1.75,8 L4,8 L4,5.75 C4,4.784 4.784,4 5.75,4 L8,4 L8,1.75 A0.75 0.75 0 0 1 9.5,1.75 L9.5,4 L14.5,4 L14.5,1.75 A0.75 0.75 0 0 1 15.25,1 Z M18.25,18.5 A0.25 0.25 0 0 0 18.5,18.25 L18.5,5.75 A0.25 0.25 0 0 0 18.25,5.5 L5.75,5.5 A0.25 0.25 0 0 0 5.5,5.75 L5.5,18.25 C5.5,18.388 5.612,18.5 5.75,18.5 Z"/>
</svg>
