<svg xmlns="http://www.w3.org/2000/svg" width="16" height="16" viewBox="0 0 16 16">
  <defs/>
  <path d="M6.5,0.75 L6.5,2 L9.5,2 L9.5,0.75 A0.75 0.75 0 0 1 11,0.75 L11,2 L12.25,2 C13.216,2 14,2.784 14,3.75 L14,5 L15.25,5 A0.75 0.75 0 0 1 15.25,6.5 L14,6.5 L14,9.5 L15.25,9.5 A0.75 0.75 0 0 1 15.25,11 L14,11 L14,12.25 A1.75 1.75 0 0 1 12.25,14 L11,14 L11,15.25 A0.75 0.75 0 0 1 9.5,15.25 L9.5,14 L6.5,14 L6.5,15.25 A0.75 0.75 0 0 1 5,15.25 L5,14 L3.75,14 A1.75 1.75 0 0 1 2,12.25 L2,11 L0.75,11 A0.75 0.75 0 0 1 0.75,9.5 L2,9.5 L2,6.5 L0.75,6.5 A0.75 0.75 0 0 1 0.75,5 L2,5 L2,3.75 C2,2.784 2.784,2 3.75,2 L5,2 L5,0.75 A0.75 0.75 0 0 1 6.5,0.75 Z M12.25,12.5 A0.25 0.25 0 0 0 12.5,12.25 L12.5,3.75 A0.25 0.25 0 0 0 12.25,3.5 L3.75,3.5 A0.25 0.25 0 0 0 3.5,3.75 L3.5,12.25 C3.5,12.388 3.612,12.5 3.75,12.5 Z M5.75,5 L10.25,5 A0.75 0.75 0 0 1 11,5.75 L11,10.25 A0.75 0.75 0 0 1 10.25,11 L5.75,11 A0.75 0.75 0 0 1 5,10.25 L5,5.75 A0.75 0.75 0 0 1 5.75,5 Z M6.5,9.5 L9.5,9.5 L9.5,6.5 L6.5,6.5 Z"/>
</svg>
