<svg xmlns="http://www.w3.org/2000/svg" width="24" height="24" viewBox="0 0 24 24">
  <defs/>
  <path d="M15.25,14 A0.75 0.75 0 0 0 15.25,15.5 L18.75,15.5 A0.75 0.75 0 0 0 18.75,14 L15.25,14 Z"/>
  <path d="M1.75,3 L22.25,3 C23.216,3 24,3.784 24,4.75 L24,19.25 A1.75 1.75 0 0 1 22.25,21 L1.75,21 A1.75 1.75 0 0 1 0,19.25 L0,4.75 C0,3.784 0.784,3 1.75,3 Z M1.5,10 L1.5,19.25 C1.5,19.388 1.612,19.5 1.75,19.5 L22.25,19.5 A0.25 0.25 0 0 0 22.5,19.25 L22.5,10 Z M1.5,4.75 L1.5,8.5 L22.5,8.5 L22.5,4.75 A0.25 0.25 0 0 0 22.25,4.5 L1.75,4.5 A0.25 0.25 0 0 0 1.5,4.75 Z"/>
</svg>
