<svg xmlns="http://www.w3.org/2000/svg" width="16" height="16" viewBox="0 0 16 16">
  <defs/>
  <path d="M2.75,3.5 A0.25 0.25 0 0 0 2.5,3.75 L2.5,11.25 C2.5,11.388 2.612,11.5 2.75,11.5 L4.75,11.5 A0.75 0.75 0 0 1 5.5,12.25 L5.5,14.44 L8.22,11.72 A0.749 0.749 0 0 1 8.75,11.5 L13.25,11.5 A0.25 0.25 0 0 0 13.5,11.25 L13.5,8.75 A0.75 0.75 0 0 1 15,8.75 L15,11.25 A1.75 1.75 0 0 1 13.25,13 L9.06,13 L6.487,15.573 A1.458 1.458 0 0 1 4,14.543 L4,13 L2.75,13 A1.75 1.75 0 0 1 1,11.25 L1,3.75 C1,2.784 1.784,2 2.75,2 L8.25,2 A0.75 0.75 0 0 1 8.25,3.5 Z M16,1.25 L16,5.396 A0.25 0.25 0 0 1 15.573,5.573 L14.03,4.03 L10.28,7.78 A0.749 0.749 0 0 1 9.005,7.454 A0.749 0.749 0 0 1 9.22,6.72 L12.97,2.97 L11.427,1.427 A0.25 0.25 0 0 1 11.604,1 L15.75,1 A0.25 0.25 0 0 1 16,1.25 Z"/>
</svg>
