<svg xmlns="http://www.w3.org/2000/svg" width="24" height="24" viewBox="0 0 24 24">
  <defs/>
  <path d="M16.5,2.25 A0.75 0.75 0 0 1 17.25,1.5 L22.75,1.5 A0.75 0.75 0 0 1 23.5,2.25 L23.5,7.75 A0.75 0.75 0 0 1 22,7.75 L22,4.06 L15.78,10.28 A0.75 0.75 0 1 1 14.72,9.22 L20.94,3 L17.25,3 A0.75 0.75 0 0 1 16.5,2.25 Z"/>
  <path d="M3.25,4 A0.25 0.25 0 0 0 3,4.25 L3,16.75 C3,16.888 3.112,17 3.25,17 L5.75,17 A0.75 0.75 0 0 1 6.5,17.75 L6.5,20.94 L10.22,17.22 A0.75 0.75 0 0 1 10.75,17 L20.75,17 A0.25 0.25 0 0 0 21,16.75 L21,10.75 A0.75 0.75 0 0 1 22.5,10.75 L22.5,16.75 A1.75 1.75 0 0 1 20.75,18.5 L11.06,18.5 L7.487,22.073 A1.457 1.457 0 0 1 5,21.043 L5,18.5 L3.25,18.5 A1.75 1.75 0 0 1 1.5,16.75 L1.5,4.25 C1.5,3.284 2.284,2.5 3.25,2.5 L14.25,2.5 A0.75 0.75 0 0 1 14.25,4 L3.25,4 Z"/>
</svg>
