<svg xmlns="http://www.w3.org/2000/svg" width="16" height="16" viewBox="0 0 16 16">
  <defs/>
  <path d="M1,3.5 C1,2.874 1.292,2.335 1.7,1.91 C2.106,1.488 2.656,1.143 3.279,0.869 C4.525,0.32 6.195,0 8,0 C9.805,0 11.475,0.32 12.722,0.869 C13.344,1.143 13.894,1.489 14.3,1.909 C14.708,2.335 15,2.874 15,3.5 L15,12.5 C15,13.126 14.708,13.665 14.3,14.09 C13.894,14.512 13.344,14.857 12.721,15.131 C11.476,15.68 9.806,16 8,16 C6.195,16 4.525,15.68 3.279,15.131 C2.656,14.857 2.106,14.511 1.7,14.091 C1.292,13.665 1,13.126 1,12.5 Z M2.5,3.5 C2.5,3.633 2.558,3.818 2.782,4.051 C3.009,4.288 3.373,4.534 3.883,4.758 C4.898,5.205 6.353,5.5 8,5.5 C9.646,5.5 11.101,5.205 12.118,4.758 C12.626,4.534 12.991,4.287 13.218,4.05 C13.442,3.818 13.5,3.633 13.5,3.5 C13.5,3.367 13.442,3.182 13.218,2.949 C12.991,2.712 12.627,2.466 12.117,2.242 C11.102,1.795 9.647,1.5 8,1.5 C6.354,1.5 4.899,1.795 3.882,2.242 C3.374,2.466 3.009,2.713 2.782,2.95 C2.558,3.182 2.5,3.367 2.5,3.5 Z M2.5,8 C2.5,8.133 2.558,8.318 2.782,8.551 C3.009,8.788 3.373,9.034 3.883,9.258 C4.898,9.705 6.353,10 8,10 C9.646,10 11.101,9.705 12.118,9.258 C12.626,9.034 12.991,8.787 13.218,8.55 C13.442,8.318 13.5,8.133 13.5,8 L13.5,5.724 C13.259,5.874 12.997,6.01 12.722,6.131 C11.475,6.68 9.805,7 8,7 C6.195,7 4.525,6.68 3.279,6.131 A6.15 6.15 0 0 1 2.5,5.724 Z M2.5,10.225 L2.5,12.5 C2.5,12.633 2.558,12.818 2.782,13.05 C3.009,13.287 3.374,13.534 3.882,13.758 C4.898,14.205 6.353,14.5 8,14.5 C9.647,14.5 11.102,14.205 12.117,13.758 C12.627,13.534 12.991,13.288 13.218,13.051 C13.442,12.818 13.5,12.633 13.5,12.5 L13.5,10.225 C13.259,10.375 12.997,10.51 12.722,10.631 C11.475,11.18 9.805,11.5 8,11.5 C6.195,11.5 4.525,11.18 3.279,10.631 A6.327 6.327 0 0 1 2.5,10.225 Z"/>
</svg>
