<svg xmlns="http://www.w3.org/2000/svg" width="16" height="16" viewBox="0 0 16 16">
  <defs/>
  <path d="M5.75,7.5 A0.75 0.75 0 0 1 6.5,8.25 L6.5,9.75 A0.75 0.75 0 0 1 5,9.75 L5,8.25 A0.75 0.75 0 0 1 5.75,7.5 Z M11,8.25 A0.75 0.75 0 0 0 9.5,8.25 L9.5,9.75 A0.75 0.75 0 0 0 11,9.75 L11,8.25 Z"/>
  <path d="M6.25,0 L8.25,0 A0.75 0.75 0 0 1 9,0.75 L9,3.5 L12.25,3.5 A2.25 2.25 0 0 1 14.5,5.75 L14.5,8 L15.25,8 A0.75 0.75 0 0 1 15.25,9.5 L14.5,9.5 L14.5,12.25 A2.25 2.25 0 0 1 12.25,14.5 L3.75,14.5 A2.25 2.25 0 0 1 1.5,12.25 L1.5,9.5 L0.75,9.5 A0.75 0.75 0 0 1 0.75,8 L1.5,8 L1.5,5.75 A2.25 2.25 0 0 1 3.75,3.5 L7.5,3.5 L7.5,1.5 L6.25,1.5 A0.75 0.75 0 0 1 6.25,0 Z M3,5.75 L3,12.25 C3,12.664 3.336,13 3.75,13 L12.25,13 A0.75 0.75 0 0 0 13,12.25 L13,5.75 A0.75 0.75 0 0 0 12.25,5 L3.75,5 A0.75 0.75 0 0 0 3,5.75 Z"/>
</svg>
