<svg xmlns="http://www.w3.org/2000/svg" width="24" height="24" viewBox="0 0 24 24">
  <defs/>
  <path d="M8.75,11 A0.75 0.75 0 0 1 9.5,11.75 L9.5,15.25 A0.75 0.75 0 0 1 8,15.25 L8,11.75 A0.75 0.75 0 0 1 8.75,11 Z M16,11.75 A0.75 0.75 0 0 0 14.5,11.75 L14.5,15.25 A0.75 0.75 0 0 0 16,15.25 L16,11.75 Z"/>
  <path d="M9.813,1 L12.25,1 A0.75 0.75 0 0 1 13,1.75 L13,5 L19.75,5 A2.25 2.25 0 0 1 22,7.25 L22,12.5 L23.25,12.5 A0.75 0.75 0 0 1 23.25,14 L22,14 L22,19.75 A2.25 2.25 0 0 1 19.75,22 L4.25,22 A2.25 2.25 0 0 1 2,19.75 L2,14 L0.75,14 A0.75 0.75 0 0 1 0.75,12.5 L2,12.5 L2,7.25 A2.25 2.25 0 0 1 4.25,5 L11.5,5 L11.5,2.5 L9.813,2.5 A0.75 0.75 0 0 1 9.812,1 Z M3.5,7.25 L3.5,19.75 C3.5,20.164 3.836,20.5 4.25,20.5 L19.75,20.5 A0.75 0.75 0 0 0 20.5,19.75 L20.5,7.25 A0.75 0.75 0 0 0 19.75,6.5 L4.25,6.5 A0.75 0.75 0 0 0 3.5,7.25 Z"/>
</svg>
