<svg xmlns="http://www.w3.org/2000/svg" width="16" height="16" viewBox="0 0 16 16">
  <defs/>
  <path d="M4.927,5.427 L7.823,8.323 A0.25 0.25 0 0 0 8.177,8.323 L11.073,5.427 A0.25 0.25 0 0 0 10.896,5 L8.75,5 L8.75,0.75 A0.75 0.75 0 1 0 7.25,0.75 L7.25,5 L5.104,5 A0.25 0.25 0 0 0 4.927,5.427 Z"/>
  <path d="M1.573,2.573 A0.25 0.25 0 0 0 1.5,2.75 L1.5,10.25 A0.25 0.25 0 0 0 1.75,10.5 L14.25,10.5 A0.25 0.25 0 0 0 14.5,10.25 L14.5,2.75 A0.25 0.25 0 0 0 14.25,2.5 L11.25,2.5 A0.75 0.75 0 1 1 11.25,1 L14.25,1 A1.75 1.75 0 0 1 16,2.75 L16,10.25 A1.75 1.75 0 0 1 14.25,12 L10.523,12 C10.622,13.041 11.043,13.872 11.815,14.757 A0.75 0.75 0 0 1 11.25,16 L4.75,16 A0.75 0.75 0 0 1 4.185,14.757 C4.957,13.872 5.377,13.041 5.477,12 L1.75,12 A1.75 1.75 0 0 1 0,10.25 L0,2.75 A1.75 1.75 0 0 1 1.75,1 L4.75,1 A0.75 0.75 0 0 1 4.75,2.5 L1.75,2.5 A0.25 0.25 0 0 0 1.573,2.573 Z M6.982,12 A5.72 5.72 0 0 1 6.217,14.5 L9.783,14.5 A5.72 5.72 0 0 1 9.018,12 L6.982,12 Z"/>
</svg>
