<svg xmlns="http://www.w3.org/2000/svg" width="16" height="16" viewBox="0 0 16 16">
  <defs/>
  <path d="M16,3.75 L16,12.25 A0.75 0.75 0 0 1 14.864,12.893 L11,10.575 L11,11.25 A1.75 1.75 0 0 1 9.25,13 L1.75,13 A1.75 1.75 0 0 1 0,11.25 L0,4.75 C0,3.784 0.784,3 1.75,3 L9.25,3 C10.216,3 11,3.784 11,4.75 L11,5.425 L14.864,3.107 A0.75 0.75 0 0 1 16,3.75 Z M9.5,4.75 A0.25 0.25 0 0 0 9.25,4.5 L1.75,4.5 A0.25 0.25 0 0 0 1.5,4.75 L1.5,11.25 C1.5,11.388 1.612,11.5 1.75,11.5 L9.25,11.5 A0.25 0.25 0 0 0 9.5,11.25 L9.5,4.75 Z M11,8.825 L14.5,10.925 L14.5,5.075 L11,7.175 Z"/>
</svg>
