<svg xmlns="http://www.w3.org/2000/svg" width="24" height="24" viewBox="0 0 24 24">
  <defs/>
  <path d="M21.333,5.333 C22.067,5.333 22.667,5.933 22.667,6.667 L22.667,18.667 C22.667,19.4 22.067,20 21.333,20 L2.667,20 C1.933,20 1.333,19.4 1.333,18.667 L1.333,6.667 C1.333,5.933 1.933,5.333 2.667,5.333 C2.667,4.6 3.267,4 4,4 L9.333,4 C10.067,4 10.667,4.6 10.667,5.333 L21.333,5.333 Z M15.333,17.333 A4.655 4.655 0 0 0 20,12.667 A4.655 4.655 0 0 0 15.333,8 A4.655 4.655 0 0 0 10.667,12.667 A4.655 4.655 0 0 0 15.333,17.333 Z M18.667,12.667 A3.343 3.343 0 0 1 15.333,16 A3.352 3.352 0 0 1 12,12.667 A3.352 3.352 0 0 1 15.333,9.333 A3.352 3.352 0 0 1 18.667,12.667 Z M9.333,8 L9.333,6.667 L4,6.667 L4,8 L9.333,8 Z"/>
</svg>
