<svg xmlns="http://www.w3.org/2000/svg" width="16" height="16" viewBox="0 0 16 16">
  <defs/>
  <path d="M15,3 C15.55,3 16,3.45 16,4 L16,13 C16,13.55 15.55,14 15,14 L1,14 C0.45,14 0,13.55 0,13 L0,4 C0,3.45 0.45,3 1,3 C1,2.45 1.45,2 2,2 L6,2 C6.55,2 7,2.45 7,3 Z M10.5,12 C12.44,12 14,10.44 14,8.5 C14,6.56 12.44,5 10.5,5 C8.56,5 7,6.56 7,8.5 C7,10.44 8.56,12 10.5,12 Z M13,8.5 C13,9.88 11.87,11 10.5,11 C9.13,11 8,9.87 8,8.5 C8,7.13 9.13,6 10.5,6 C11.87,6 13,7.13 13,8.5 Z M6,5 L6,4 L2,4 L2,5 Z"/>
</svg>
