<svg xmlns="http://www.w3.org/2000/svg" width="24" height="24" viewBox="0 0 24 24">
  <defs/>
  <path d="M8.954,17 L2.75,17 A1.75 1.75 0 0 1 1,15.25 L1,3.75 C1,2.784 1.784,2 2.75,2 L21.25,2 C22.216,2 23,2.784 23,3.75 L23,15.25 A1.75 1.75 0 0 1 21.25,17 L15.046,17 C15.217,18.375 15.851,19.652 16.815,20.757 A0.752 0.752 0 0 1 16.25,22 L7.75,22 A0.75 0.75 0 0 1 7.185,20.757 C8.149,19.652 8.783,18.375 8.954,17 Z M21.5,3.75 A0.25 0.25 0 0 0 21.25,3.5 L2.75,3.5 A0.25 0.25 0 0 0 2.5,3.75 L2.5,15.25 C2.5,15.388 2.612,15.5 2.75,15.5 L21.25,15.5 A0.25 0.25 0 0 0 21.5,15.25 Z M13.537,17 L10.463,17 C10.337,18.266 9.899,19.445 9.24,20.5 L14.76,20.5 C14.101,19.445 13.662,18.266 13.537,17 Z"/>
</svg>
