<svg xmlns="http://www.w3.org/2000/svg" width="16" height="16" viewBox="0 0 16 16">
  <defs/>
  <path d="M0,2.75 C0,1.784 0.784,1 1.75,1 L14.25,1 C15.216,1 16,1.784 16,2.75 L16,5 A0.75 0.75 0 0 1 14.5,5 L14.5,2.75 A0.25 0.25 0 0 0 14.25,2.5 L1.75,2.5 A0.25 0.25 0 0 0 1.5,2.75 L1.5,10.25 C1.5,10.388 1.612,10.5 1.75,10.5 L7,10.5 A0.75 0.75 0 0 1 7,12 L6.732,12 A5.712 5.712 0 0 1 5.967,14.5 L7,14.5 A0.75 0.75 0 0 1 7,16 L4.5,16 A0.75 0.75 0 0 1 3.935,14.757 C4.707,13.872 5.128,13.041 5.227,12 L1.75,12 A1.75 1.75 0 0 1 0,10.25 L0,2.75 Z"/>
  <path d="M10.75,7 L14.25,7 C15.217,7 16,7.784 16,8.75 L16,14.25 A1.75 1.75 0 0 1 14.25,16 L10.75,16 A1.75 1.75 0 0 1 9,14.25 L9,8.75 C9,7.784 9.783,7 10.75,7 Z M10.5,8.75 L10.5,14.25 C10.5,14.388 10.612,14.5 10.75,14.5 L14.25,14.5 A0.25 0.25 0 0 0 14.5,14.25 L14.5,8.75 A0.25 0.25 0 0 0 14.25,8.5 L10.75,8.5 A0.25 0.25 0 0 0 10.5,8.75 Z"/>
</svg>
