<svg xmlns="http://www.w3.org/2000/svg" width="16" height="16" viewBox="0 0 16 16">
  <defs/>
  <path d="M0.5270000100135803,9.237000465393066 C-0.15583522617816925,8.553682327270508 -0.15583522617816925,7.446317672729492 0.5270000100135803,6.763000011444092 L6.7769999504089355,0.5120000243186951 C7.106771945953369,0.18219423294067383 7.535428047180176,0.01152755692601204 7.9675397872924805,0 L8.061460494995117,0 C8.493572235107422,0.01152755692601204 8.92222785949707,0.18219423294067383 9.251999855041504,0.5120000243186951 L15.503000259399414,6.76200008392334 C15.785082817077637,7.044053554534912 15.950749397277832,7.398443698883057 16,7.765463829040527 L16,8.233536720275879 C15.950749397277832,8.600556373596191 15.785082817077637,8.954946517944336 15.503000259399414,9.237000465393066 L9.253000259399414,15.48799991607666 C8.923223495483398,15.817809104919434 8.494562149047852,15.988475799560547 8.062444686889648,16 L7.968554973602295,16 C7.53643798828125,15.988475799560547 7.107776165008545,15.817809104919434 6.7779998779296875,15.48799991607666 L0.5270000100135803,9.23799991607666 Z M1.5870000123977661,7.822999954223633 C1.539979100227356,7.86990213394165 1.5135531425476074,7.933586597442627 1.5135531425476074,8 C1.5135531425476074,8.066413879394531 1.539979100227356,8.130098342895508 1.5870000123977661,8.177000045776367 L7.8379998207092285,14.427000045776367 C7.884902000427246,14.474020957946777 7.948586463928223,14.500447273254395 8.015000343322754,14.500447273254395 C8.081413269042969,14.500447273254395 8.145097732543945,14.474020957946777 8.192000389099121,14.427000045776367 L14.442000389099121,8.177000045776367 C14.489021301269531,8.130098342895508 14.515446662902832,8.066413879394531 14.515446662902832,8 C14.515446662902832,7.933586597442627 14.489021301269531,7.86990213394165 14.442000389099121,7.822999954223633 L8.192000389099121,1.5729999542236328 C8.145097732543945,1.5259791612625122 8.081413269042969,1.4995530843734741 8.015000343322754,1.4995530843734741 C7.948586463928223,1.4995530843734741 7.884902000427246,1.5259791612625122 7.8379998207092285,1.5729999542236328 L1.5880000591278076,7.822999954223633 Z"/>
</svg>
