<svg xmlns="http://www.w3.org/2000/svg" width="24" height="24" viewBox="0 0 24 24">
  <defs/>
  <path d="M13.75,12.75 L13.75,16.097 A0.25 0.25 0 0 0 14.186,16.263 L17.858,12.167 A0.25 0.25 0 0 0 17.858,11.833 L14.186,7.737 A0.25 0.25 0 0 0 13.75,7.903 L13.75,11.25 L6.75,11.25 A0.75 0.75 0 0 0 6.75,12.75 L13.75,12.75 Z"/>
  <path d="M2,3.75 C2,2.784 2.784,2 3.75,2 L20.25,2 C21.216,2 22,2.784 22,3.75 L22,20.25 A1.75 1.75 0 0 1 20.25,22 L3.75,22 A1.75 1.75 0 0 1 2,20.25 L2,3.75 Z M3.75,3.5 A0.25 0.25 0 0 0 3.5,3.75 L3.5,20.25 C3.5,20.388 3.612,20.5 3.75,20.5 L20.25,20.5 A0.25 0.25 0 0 0 20.5,20.25 L20.5,3.75 A0.25 0.25 0 0 0 20.25,3.5 L3.75,3.5 Z"/>
</svg>
