<svg xmlns="http://www.w3.org/2000/svg" width="24" height="24" viewBox="0 0 24 24">
  <defs/>
  <path d="M12.75,7 A0.75 0.75 0 0 0 11.25,7 L11.25,11.25 L7,11.25 A0.75 0.75 0 0 0 7,12.75 L11.25,12.75 L11.25,17 A0.75 0.75 0 0 0 12.75,17 L12.75,12.75 L17,12.75 A0.75 0.75 0 0 0 17,11.25 L12.75,11.25 L12.75,7 Z"/>
  <path d="M3.75,2 A1.75 1.75 0 0 0 2,3.75 L2,20.25 C2,21.216 2.784,22 3.75,22 L20.25,22 A1.75 1.75 0 0 0 22,20.25 L22,3.75 A1.75 1.75 0 0 0 20.25,2 L3.75,2 Z M3.5,3.75 A0.25 0.25 0 0 1 3.75,3.5 L20.25,3.5 A0.25 0.25 0 0 1 20.5,3.75 L20.5,20.25 A0.25 0.25 0 0 1 20.25,20.5 L3.75,20.5 A0.25 0.25 0 0 1 3.5,20.25 L3.5,3.75 Z"/>
</svg>
