<svg xmlns="http://www.w3.org/2000/svg" width="16" height="16" viewBox="0 0 16 16">
  <defs/>
  <path d="M13.25,1 C14.216,1 15,1.784 15,2.75 L15,13.25 A1.75 1.75 0 0 1 13.25,15 L2.75,15 A1.75 1.75 0 0 1 1,13.25 L1,2.75 C1,1.784 1.784,1 2.75,1 Z M2.75,2.5 A0.25 0.25 0 0 0 2.5,2.75 L2.5,13.25 C2.5,13.388 2.612,13.5 2.75,13.5 L13.25,13.5 A0.25 0.25 0 0 0 13.5,13.25 L13.5,2.75 A0.25 0.25 0 0 0 13.25,2.5 Z M11.78,8.53 L8.53,11.78 A0.749 0.749 0 0 1 7.255,11.454 A0.749 0.749 0 0 1 7.47,10.72 L9.44,8.75 L4.75,8.75 A0.75 0.75 0 0 1 4.75,7.25 L9.44,7.25 L7.47,5.28 A0.751 0.751 0 0 1 7.488,4.238 A0.751 0.751 0 0 1 8.53,4.22 L11.78,7.47 A0.75 0.75 0 0 1 11.78,8.53 Z"/>
</svg>
