<svg xmlns="http://www.w3.org/2000/svg" width="16" height="16" viewBox="0 0 16 16">
  <defs/>
  <path d="M13.25,1 C14.216,1 15,1.784 15,2.75 L15,13.25 A1.75 1.75 0 0 1 13.25,15 L2.75,15 A1.75 1.75 0 0 1 1,13.25 L1,2.75 C1,1.784 1.784,1 2.75,1 Z M2.75,2.5 A0.25 0.25 0 0 0 2.5,2.75 L2.5,13.25 C2.5,13.388 2.612,13.5 2.75,13.5 L13.25,13.5 A0.25 0.25 0 0 0 13.5,13.25 L13.5,2.75 A0.25 0.25 0 0 0 13.25,2.5 Z M11.28,5.78 L5.78,11.28 A0.749 0.749 0 0 1 4.505,10.954 A0.749 0.749 0 0 1 4.72,10.22 L10.22,4.72 A0.751 0.751 0 0 1 11.262,4.738 A0.751 0.751 0 0 1 11.28,5.78 Z"/>
</svg>
