<svg xmlns="http://www.w3.org/2000/svg" width="24" height="24" viewBox="0 0 24 24">
  <defs/>
  <path d="M7.313,11.25 A0.75 0.75 0 0 0 7.313,12.75 L17.25,12.75 A0.75 0.75 0 0 0 17.25,11.25 L7.312,11.25 Z"/>
  <path d="M3.75,2 A1.75 1.75 0 0 0 2,3.75 L2,20.25 C2,21.216 2.784,22 3.75,22 L20.25,22 A1.75 1.75 0 0 0 22,20.25 L22,3.75 A1.75 1.75 0 0 0 20.25,2 L3.75,2 Z M3.5,3.75 A0.25 0.25 0 0 1 3.75,3.5 L20.25,3.5 A0.25 0.25 0 0 1 20.5,3.75 L20.5,20.25 A0.25 0.25 0 0 1 20.25,20.5 L3.75,20.5 A0.25 0.25 0 0 1 3.5,20.25 L3.5,3.75 Z"/>
</svg>
