<svg xmlns="http://www.w3.org/2000/svg" width="24" height="24" viewBox="0 0 24 24">
  <defs/>
  <path d="M0,2.75 C0,1.783 0.784,1 1.75,1 L14.25,1 C15.217,1 16,1.783 16,2.75 L16,12.25 A1.75 1.75 0 0 1 14.25,14 L8.061,14 L5.487,16.573 A1.457 1.457 0 0 1 3,15.543 L3,14 L1.75,14 A1.75 1.75 0 0 1 0,12.25 Z M1.75,2.5 A0.25 0.25 0 0 0 1.5,2.75 L1.5,12.25 C1.5,12.388 1.612,12.5 1.75,12.5 L3.75,12.5 A0.75 0.75 0 0 1 4.5,13.25 L4.5,15.439 L7.22,12.72 A0.747 0.747 0 0 1 7.75,12.5 L14.25,12.5 A0.25 0.25 0 0 0 14.5,12.25 L14.5,2.75 A0.25 0.25 0 0 0 14.25,2.5 Z M22.25,8.5 L18.75,8.5 A0.75 0.75 0 0 1 18.75,7 L22.25,7 C23.216,7 24,7.784 24,8.75 L24,18.25 A1.75 1.75 0 0 1 22.25,20 L21,20 L21,21.543 A1.457 1.457 0 0 1 18.513,22.573 L15.939,20 L10.75,20 A1.75 1.75 0 0 1 9,18.25 L9,16.785 A0.75 0.75 0 0 1 10.5,16.785 L10.5,18.25 C10.5,18.388 10.612,18.5 10.75,18.5 L16.25,18.5 C16.449,18.5 16.64,18.579 16.78,18.72 L19.5,21.439 L19.5,19.25 A0.75 0.75 0 0 1 20.25,18.5 L22.25,18.5 A0.25 0.25 0 0 0 22.5,18.25 L22.5,8.75 A0.25 0.25 0 0 0 22.25,8.5 Z M12.53,5.28 L7.53,10.28 A0.747 0.747 0 0 1 6.47,10.28 L3.97,7.78 A0.749 0.749 0 1 1 5.03,6.72 L7,8.689 L11.47,4.22 A0.749 0.749 0 1 1 12.53,5.28 Z"/>
</svg>
