<svg xmlns="http://www.w3.org/2000/svg" width="24" height="24" viewBox="0 0 24 24">
  <defs/>
  <path d="M4.75,17.25 A0.75 0.75 0 0 1 5.5,18 L5.5,20.25 C5.5,20.388 5.612,20.5 5.75,20.5 L18.25,20.5 A0.25 0.25 0 0 0 18.5,20.25 L18.5,18 A0.75 0.75 0 0 1 20,18 L20,20.25 A1.75 1.75 0 0 1 18.25,22 L5.75,22 A1.75 1.75 0 0 1 4,20.25 L4,18 A0.75 0.75 0 0 1 4.75,17.25 Z"/>
  <path d="M5.22,9.97 A0.749 0.749 0 0 1 6.28,9.97 L11.25,14.939 L11.25,2.75 A0.75 0.75 0 0 1 12.75,2.75 L12.75,14.939 L17.72,9.97 A0.749 0.749 0 1 1 18.78,11.03 L12.53,17.28 A0.749 0.749 0 0 1 11.47,17.28 L5.22,11.03 A0.749 0.749 0 0 1 5.22,9.97 Z"/>
</svg>
