<svg xmlns="http://www.w3.org/2000/svg" width="16" height="16" viewBox="0 0 16 16">
  <defs/>
  <path d="M2.75,14 A1.75 1.75 0 0 1 1,12.25 L1,9.75 A0.75 0.75 0 0 1 2.5,9.75 L2.5,12.25 C2.5,12.388 2.612,12.5 2.75,12.5 L13.25,12.5 A0.25 0.25 0 0 0 13.5,12.25 L13.5,9.75 A0.75 0.75 0 0 1 15,9.75 L15,12.25 A1.75 1.75 0 0 1 13.25,14 Z"/>
  <path d="M7.25,7.689 L7.25,2 A0.75 0.75 0 0 1 8.75,2 L8.75,7.689 L10.72,5.72 A0.749 0.749 0 1 1 11.78,6.78 L8.53,10.03 A0.749 0.749 0 0 1 7.47,10.03 L4.22,6.78 A0.749 0.749 0 1 1 5.28,5.72 L7.25,7.689 Z"/>
</svg>
