<svg xmlns="http://www.w3.org/2000/svg" width="16" height="16" viewBox="0 0 16 16">
  <defs/>
  <path d="M10.5,3 A0.75 0.75 0 0 1 11.25,3.75 L11.25,4.75 L12.25,4.75 A0.75 0.75 0 0 1 12.25,6.25 L11.25,6.25 L11.25,7.25 A0.75 0.75 0 0 1 9.75,7.25 L9.75,6.25 L8.75,6.25 A0.75 0.75 0 0 1 8.75,4.75 L9.75,4.75 L9.75,3.75 A0.75 0.75 0 0 1 10.5,3 Z"/>
  <path d="M6.75,0 L14.25,0 C15.216,0 16,0.784 16,1.75 L16,9.25 A1.75 1.75 0 0 1 14.25,11 L6.75,11 A1.75 1.75 0 0 1 5,9.25 L5,1.75 C5,0.784 5.784,0 6.75,0 Z M6.5,1.75 L6.5,9.25 C6.5,9.388 6.612,9.5 6.75,9.5 L14.25,9.5 A0.25 0.25 0 0 0 14.5,9.25 L14.5,1.75 A0.25 0.25 0 0 0 14.25,1.5 L6.75,1.5 A0.25 0.25 0 0 0 6.5,1.75 Z"/>
  <path d="M1.75,5 A1.75 1.75 0 0 0 0,6.75 L0,14.25 C0,15.216 0.784,16 1.75,16 L9.25,16 A1.75 1.75 0 0 0 11,14.25 L11,12.75 A0.75 0.75 0 0 0 9.5,12.75 L9.5,14.25 A0.25 0.25 0 0 1 9.25,14.5 L1.75,14.5 A0.25 0.25 0 0 1 1.5,14.25 L1.5,6.75 A0.25 0.25 0 0 1 1.75,6.5 L3.25,6.5 A0.75 0.75 0 0 0 3.25,5 L1.75,5 Z"/>
</svg>
