<svg xmlns="http://www.w3.org/2000/svg" width="16" height="16" viewBox="0 0 16 16">
  <defs/>
  <path d="M0.14300000667572021,2.309999942779541 C0.38609930872917175,1.9749162197113037 0.8547214269638062,1.9001694917678833 1.190000057220459,2.1429998874664307 L15.6899995803833,12.642999649047852 C15.850618362426758,12.7526273727417 15.95976734161377,12.918255805969238 16,13.102712631225586 L16,13.422199249267578 C15.949125289916992,13.655780792236328 15.789020538330078,13.85329818725586 15.566515922546387,13.950145721435547 C15.470680236816406,13.991859436035156 15.369064331054688,14.012374877929688 15.267996788024902,14.012470245361328 L15.266578674316406,14.012470245361328 C15.104132652282715,14.012316703796387 14.943180084228516,13.9594144821167 14.8100004196167,13.857000350952148 L12.562000274658203,12.229000091552734 C11.345999717712402,13.1899995803833 9.791999816894531,14 8,14 C6.019000053405762,14 4.329999923706055,13.008000373840332 3.066999912261963,11.92199993133545 C1.7970000505447388,10.831999778747559 0.8799999952316284,9.57699966430664 0.4300000071525574,8.899999618530273 C0.06706097722053528,8.355977058410645 0.06706097722053528,7.6470232009887695 0.4300000071525574,7.103000164031982 C0.7829999923706055,6.570000171661377 1.4249999523162842,5.683000087738037 2.2980000972747803,4.797999858856201 L0.3100000023841858,3.3570001125335693 C-0.025083767250180244,3.113900661468506 -0.09983056038618088,2.6452784538269043 0.14300000667572021,2.309999942779541 Z M1.6790000200271606,7.932000160217285 C1.6649302244186401,7.951906204223633 1.6572564840316772,7.975625038146973 1.656999945640564,8 C1.656999945640564,8.020999908447266 1.6629999876022339,8.045000076293945 1.6790000200271606,8.067999839782715 C2.0910000801086426,8.689000129699707 2.9210000038146973,9.817999839782715 4.045000076293945,10.78499984741211 C5.175000190734863,11.758000373840332 6.5269999504089355,12.5 8,12.5 C9.194999694824219,12.5 10.3100004196167,12.01200008392334 11.289999961853027,11.309000015258789 L9.062999725341797,9.694999694824219 C8.372282981872559,10.128853797912598 7.487303733825684,10.099782943725586 6.826549530029297,9.621532440185547 C6.165794849395752,9.143282890319824 5.861674785614014,8.311691284179688 6.058000087738037,7.519999980926514 L3.5290000438690186,5.688000202178955 C2.8371949195861816,6.370746612548828 2.2172811031341553,7.122685432434082 1.6790000200271606,7.932000160217285 Z M8,3.5 C7.484000205993652,3.5 6.982999801635742,3.5899999141693115 6.500999927520752,3.750999927520752 C6.244759559631348,3.843181610107422 5.958685874938965,3.789228677749634 5.753624439239502,3.61004638671875 C5.548563003540039,3.430863857269287 5.4567365646362305,3.1546084880828857 5.513725757598877,2.8883213996887207 C5.570714950561523,2.6220343112945557 5.767564296722412,2.407559633255005 6.0279998779296875,2.328000068664551 C6.663293361663818,2.112835645675659 7.3292622566223145,2.002066135406494 8,2 C9.980999946594238,2 11.670000076293945,2.992000102996826 12.932999610900879,4.078000068664551 C14.20300006866455,5.169000148773193 15.119999885559082,6.422999858856201 15.569999694824219,7.10099983215332 C15.933114051818848,7.645333766937256 15.933114051818848,8.354665756225586 15.569999694824219,8.89900016784668 C15.460000038146973,9.0649995803833 15.321999549865723,9.263999938964844 15.15999984741211,9.486000061035156 C14.915061950683594,9.8201322555542 14.445631980895996,9.892437934875488 14.111499786376953,9.647500038146973 C13.77736759185791,9.402562141418457 13.705061912536621,8.93313217163086 13.949999809265137,8.598999977111816 C14.097999572753906,8.39799976348877 14.222000122070312,8.217000007629395 14.321000099182129,8.069000244140625 C14.349923133850098,8.027913093566895 14.349923133850098,7.973086833953857 14.321000099182129,7.932000160217285 C13.909000396728516,7.310999870300293 13.079000473022461,6.182000160217285 11.954999923706055,5.215000152587891 C10.824999809265137,4.242000102996826 9.472999572753906,3.5 8,3.5 Z"/>
</svg>
