<svg xmlns="http://www.w3.org/2000/svg" width="16" height="16" viewBox="0 0 16 16">
  <defs/>
  <path d="M8,2 C9.981,2 11.671,2.992 12.933,4.078 C14.203,5.169 15.12,6.423 15.57,7.101 A1.62 1.62 0 0 1 15.57,8.899 C15.12,9.577 14.203,10.831 12.933,11.922 C11.67,13.008 9.981,14 8,14 C6.019,14 4.329,13.008 3.067,11.922 C1.797,10.83 0.88,9.576 0.43,8.898 A1.62 1.62 0 0 1 0.43,7.1 C0.88,6.423 1.797,5.169 3.067,4.078 C4.33,2.992 6.019,2 8,2 Z M1.679,7.932 A0.12 0.12 0 0 0 1.679,8.068 C2.09,8.69 2.92,9.818 4.045,10.785 C5.176,11.758 6.527,12.5 8,12.5 C9.473,12.5 10.825,11.758 11.955,10.785 C13.079,9.818 13.909,8.689 14.321,8.068 A0.12 0.12 0 0 0 14.321,7.932 C13.909,7.311 13.079,6.182 11.955,5.215 C10.824,4.242 9.473,3.5 8,3.5 C6.527,3.5 5.175,4.242 4.045,5.215 C2.921,6.182 2.091,7.311 1.679,7.932 Z M8,10 A2 2 0 1 1 7.999,6.001 A2 2 0 0 1 8,10 Z"/>
</svg>
