<svg xmlns="http://www.w3.org/2000/svg" width="16" height="16" viewBox="0 0 16 16">
  <defs/>
  <path d="M0,8 A8 8 0 1 1 16,8 A8 8 0 0 1 0,8 Z M7.25,10.5 C7.25,9.707 6.723,9.038 6,8.822 L6,6.928 A1.752 1.752 0 0 0 5.5,3.5 A1.75 1.75 0 0 0 5,6.928 L5,8.822 A1.752 1.752 0 0 0 5.5,12.25 A1.75 1.75 0 0 0 7.25,10.5 Z M10.5,12.25 A1.75 1.75 0 1 0 10.501,8.751 A1.75 1.75 0 0 0 10.5,12.25 Z M10.5,7.75 A0.75 0.75 0 1 0 10.5,6.25 A0.75 0.75 0 0 0 10.5,7.75 Z M11.25,4.5 A0.75 0.75 0 1 0 9.75,4.5 A0.75 0.75 0 0 0 11.25,4.5 Z"/>
</svg>
