<svg xmlns="http://www.w3.org/2000/svg" width="16" height="16" viewBox="0 0 16 16">
  <defs/>
  <path d="M8,0 A8 8 0 1 1 8,16 A8 8 0 0 1 8,0 Z M3.802,7.334 A0.75 0.75 0 0 0 2.32,7.101 A5.8 5.8 0 0 0 2.32,8.899 A0.749 0.749 0 1 0 3.802,8.666 A4.296 4.296 0 0 1 3.802,7.334 Z M8,2.25 A5.8 5.8 0 0 0 7.101,2.32 A0.749 0.749 0 1 0 7.334,3.802 A4.296 4.296 0 0 1 8.666,3.802 A0.75 0.75 0 0 0 8.899,2.32 A5.8 5.8 0 0 0 8,2.25 Z M7.334,12.198 A0.75 0.75 0 0 0 7.101,13.68 A5.8 5.8 0 0 0 8.899,13.68 A0.749 0.749 0 1 0 8.666,12.198 A4.296 4.296 0 0 1 7.334,12.198 Z M13.68,7.101 A0.749 0.749 0 1 0 12.198,7.334 A4.296 4.296 0 0 1 12.198,8.666 A0.75 0.75 0 0 0 13.68,8.899 A5.8 5.8 0 0 0 13.68,7.101 Z M5.502,4.561 A0.75 0.75 0 0 0 4.62,3.348 A5.77 5.77 0 0 0 3.348,4.62 A0.749 0.749 0 1 0 4.561,5.502 C4.824,5.141 5.141,4.824 5.502,4.561 Z M4.561,10.498 A0.75 0.75 0 0 0 3.348,11.38 A5.77 5.77 0 0 0 4.62,12.652 A0.749 0.749 0 1 0 5.502,11.439 A4.285 4.285 0 0 1 4.561,10.498 Z M11.38,3.348 A0.749 0.749 0 1 0 10.498,4.561 C10.858,4.824 11.177,5.141 11.439,5.502 A0.75 0.75 0 0 0 12.652,4.62 A5.77 5.77 0 0 0 11.38,3.348 Z M12.652,11.38 A0.749 0.749 0 1 0 11.439,10.498 C11.177,10.858 10.858,11.177 10.498,11.439 A0.75 0.75 0 0 0 11.38,12.652 A5.77 5.77 0 0 0 12.652,11.38 Z"/>
</svg>
