<svg xmlns="http://www.w3.org/2000/svg" width="16" height="16" viewBox="0 0 16 16">
  <defs/>
  <path d="M8,16 A8 8 0 1 1 8,0 A8 8 0 0 1 8,16 Z M11.031,4 A4.38 4.38 0 0 0 7.934,5.283 L7.704,5.512 C7.548,5.669 7.396,5.832 7.252,6.002 L5.65,6.002 A0.876 0.876 0 0 0 4.904,6.419 L4.048,7.807 A0.377 0.377 0 0 0 4.258,8.363 L5.81,8.84 L7.16,10.19 L7.638,11.743 A0.374 0.374 0 0 0 8.193,11.953 L9.582,11.098 A0.876 0.876 0 0 0 9.998,10.352 L9.998,8.747 C10.168,8.603 10.331,8.452 10.488,8.295 L10.718,8.065 A4.379 4.379 0 0 0 12,4.969 L12,4.876 A0.876 0.876 0 0 0 11.124,4 Z M5.924,11.144 L5.923,11.144 A0.809 0.809 0 0 0 4.593,10.263 C4.198,10.657 4.029,11.521 3.973,11.883 A0.12 0.12 0 0 0 4.008,11.991 A0.12 0.12 0 0 0 4.116,12.026 C4.478,11.97 5.342,11.801 5.736,11.407 A0.803 0.803 0 0 0 5.924,11.144 Z"/>
</svg>
