<svg xmlns="http://www.w3.org/2000/svg" width="17" height="16" viewBox="0 0 17 16">
  <defs/>
  <path d="M0.5,8 A8 8 0 1 1 16.5,8 A8 8 0 0 1 0.5,8 Z M3.927,3.677 A0.25 0.25 0 0 0 3.5,3.854 L3.5,6 C3.5,6.138 3.612,6.25 3.75,6.25 L5.896,6.25 A0.25 0.25 0 0 0 6.073,5.823 L5.549,5.299 A4.003 4.003 0 0 1 12.411,7.157 A0.75 0.75 0 0 0 13.878,6.843 A5.502 5.502 0 0 0 4.488,4.238 Z M13.5,12.146 L13.5,10 A0.25 0.25 0 0 0 13.25,9.75 L11.104,9.75 A0.25 0.25 0 0 0 10.927,10.177 L11.451,10.701 A4.002 4.002 0 0 1 4.589,8.843 A0.75 0.75 0 0 0 3.122,9.157 A5.502 5.502 0 0 0 12.512,11.762 L13.073,12.323 A0.25 0.25 0 0 0 13.5,12.146 Z M10,8 A1.5 1.5 0 1 0 6.999,8.001 A1.5 1.5 0 0 0 10,8 Z"/>
</svg>
