<svg xmlns="http://www.w3.org/2000/svg" width="16" height="16" viewBox="0 0 16 16">
  <defs/>
  <path d="M8,0 A8 8 0 1 1 8,16 A8 8 0 0 1 8,0 Z M5.5,12.25 A1.75 1.75 0 0 0 6,8.822 L6,6.928 A1.752 1.752 0 0 0 5.5,3.5 A1.75 1.75 0 0 0 5,6.928 L5,8.822 A1.752 1.752 0 0 0 5.5,12.25 Z M10.5,7.25 A0.5 0.5 0 0 0 10,7.75 L10,8.822 A1.752 1.752 0 0 0 10.5,12.25 A1.75 1.75 0 0 0 11,8.822 L11,7.75 A0.5 0.5 0 0 0 10.5,7.25 Z M11.755,4.487 A0.5 0.5 0 0 0 11.048,3.78 L10.518,4.311 L9.987,3.78 A0.5 0.5 0 0 0 9.28,4.487 L9.811,5.018 L9.28,5.548 A0.5 0.5 0 0 0 9.987,6.255 L10.518,5.725 L11.048,6.255 A0.5 0.5 0 0 0 11.755,5.548 L11.225,5.018 Z"/>
</svg>
