<svg xmlns="http://www.w3.org/2000/svg" width="16" height="16" viewBox="0 0 16 16">
  <defs/>
  <path d="M8,16 A8 8 0 1 1 8,0 A8 8 0 0 1 8,16 Z M5.5,4 A1.5 1.5 0 0 0 4,5.5 L4,10.5 C4,11.328 4.5,12 5,12 L5,11 A1 1 0 0 1 6,10 L11,10 L11,11 L10,11 L10,12 L11.5,12 A0.5 0.5 0 0 0 12,11.5 L12,4.5 A0.5 0.5 0 0 0 11.5,4 Z M6,11.25 L6,13.764 A0.25 0.25 0 0 0 6.426,13.942 L7.324,13.054 A0.25 0.25 0 0 1 7.676,13.054 L8.574,13.942 A0.25 0.25 0 0 0 9,13.764 L9,11 L6.25,11 A0.25 0.25 0 0 0 6,11.25 Z"/>
</svg>
