<svg xmlns="http://www.w3.org/2000/svg" width="16" height="16" viewBox="0 0 16 16">
  <defs/>
  <path d="M0,8 A8 8 0 1 1 16,8 A8 8 0 0 1 0,8 Z M6.75,10.5 C6.75,9.707 6.223,9.038 5.5,8.822 L5.5,6.928 A1.752 1.752 0 0 0 5,3.5 A1.75 1.75 0 0 0 4.5,6.928 L4.5,8.822 A1.752 1.752 0 0 0 5,12.25 A1.75 1.75 0 0 0 6.75,10.5 Z M10,5.5 L10.25,5.5 A0.5 0.5 0 0 1 10.75,6 L10.75,8.822 A1.752 1.752 0 0 0 11.25,12.25 A1.75 1.75 0 0 0 11.75,8.822 L11.75,6 A1.5 1.5 0 0 0 10.25,4.5 L10,4.5 L10,3.129 A0.25 0.25 0 0 0 9.573,2.952 L7.702,4.823 A0.25 0.25 0 0 0 7.702,5.177 L9.573,7.048 A0.25 0.25 0 0 0 10,6.871 Z"/>
</svg>
