<svg xmlns="http://www.w3.org/2000/svg" width="16" height="16" viewBox="0 0 16 16">
  <defs/>
  <path d="M0,2.75 C0,1.784 0.784,1 1.75,1 L5,1 A1.75 1.75 0 0 1 6.4,1.7 L7.3,2.9 A0.25 0.25 0 0 0 7.5,3 L14.25,3 C15.216,3 16,3.784 16,4.75 L16,13.25 A1.75 1.75 0 0 1 14.25,15 L5.375,15 A0.75 0.75 0 0 1 5.375,13.5 L14.25,13.5 A0.25 0.25 0 0 0 14.5,13.25 L14.5,4.75 A0.25 0.25 0 0 0 14.25,4.5 L7.5,4.5 A1.75 1.75 0 0 1 6.1,3.8 L5.2,2.6 A0.25 0.25 0 0 0 5,2.5 L1.75,2.5 A0.25 0.25 0 0 0 1.5,2.75 L1.5,5.75 A0.75 0.75 0 0 1 0,5.75 L0,2.75 Z"/>
  <path d="M1.5,12.237 A2.25 2.25 0 0 1 3.762,9.988 L4,9.989 L4,11.927 C4,12.145 4.26,12.258 4.42,12.11 L7.303,9.433 A0.25 0.25 0 0 0 7.303,9.067 L4.42,6.39 A0.25 0.25 0 0 0 4,6.573 L4,8.489 L3.771,8.488 A3.75 3.75 0 0 0 0,12.237 L0,13.25 A0.75 0.75 0 0 0 1.5,13.25 L1.5,12.237 Z"/>
</svg>
