<svg xmlns="http://www.w3.org/2000/svg" width="24" height="24" viewBox="0 0 24 24">
  <defs/>
  <path d="M2,4.75 C2,3.784 2.784,3 3.75,3 L8.721,3 C9.301,3 9.841,3.286 10.168,3.765 L11.572,5.828 C11.618,5.897 11.696,5.938 11.779,5.938 L20.25,5.938 C21.216,5.938 22,6.721 22,7.688 L22,19.25 A1.75 1.75 0 0 1 20.25,21 L3.75,21 A1.75 1.75 0 0 1 2,19.25 Z M3.75,4.5 A0.25 0.25 0 0 0 3.5,4.75 L3.5,19.25 C3.5,19.388 3.612,19.5 3.75,19.5 L20.25,19.5 A0.25 0.25 0 0 0 20.5,19.25 L20.5,7.687 A0.25 0.25 0 0 0 20.25,7.437 L11.779,7.437 A1.75 1.75 0 0 1 10.332,6.672 L8.928,4.61 A0.252 0.252 0 0 0 8.72,4.5 Z"/>
</svg>
