<svg xmlns="http://www.w3.org/2000/svg" width="16" height="16" viewBox="0 0 16 16">
  <defs/>
  <path d="M4,1.75 C4,0.784 4.784,0 5.75,0 L11.336,0 C11.8,0 12.245,0.184 12.573,0.513 L15.487,3.427 C15.816,3.755 16,4.2 16,4.664 L16,13.25 A1.75 1.75 0 0 1 14.25,15 L5.25,15 A0.75 0.75 0 0 1 5.25,13.5 L14.25,13.5 A0.25 0.25 0 0 0 14.5,13.25 L14.5,6 L11.75,6 A1.75 1.75 0 0 1 10,4.25 L10,1.5 L5.75,1.5 A0.25 0.25 0 0 0 5.5,1.75 L5.5,3.75 A0.75 0.75 0 0 1 4,3.75 Z M0,7.75 C0,6.784 0.784,6 1.75,6 L3.25,6 C4.216,6 5,6.784 5,7.75 L5,10.25 A1.75 1.75 0 0 1 3.25,12 L1.75,12 A1.75 1.75 0 0 1 0,10.25 Z M6.75,6 L8.25,6 A0.75 0.75 0 0 1 9,6.75 L9,10.5 L9.75,10.5 A0.75 0.75 0 0 1 9.75,12 L6.75,12 A0.75 0.75 0 0 1 6.75,10.5 L7.5,10.5 L7.5,7.5 L6.75,7.5 A0.75 0.75 0 0 1 6.75,6 Z M1.75,7.5 A0.25 0.25 0 0 0 1.5,7.75 L1.5,10.25 C1.5,10.388 1.612,10.5 1.75,10.5 L3.25,10.5 A0.25 0.25 0 0 0 3.5,10.25 L3.5,7.75 A0.25 0.25 0 0 0 3.25,7.5 Z M11.5,1.562 L11.5,4.25 C11.5,4.388 11.612,4.5 11.75,4.5 L14.438,4.5 L14.427,4.487 L11.513,1.573 L11.5,1.562 Z"/>
</svg>
