<svg xmlns="http://www.w3.org/2000/svg" width="24" height="24" viewBox="0 0 24 24">
  <defs/>
  <path d="M12.5,6.75 A0.75 0.75 0 0 0 11,6.75 L11,9 L8.75,9 A0.75 0.75 0 0 0 8.75,10.5 L11,10.5 L11,12.75 A0.75 0.75 0 0 0 12.5,12.75 L12.5,10.5 L14.75,10.5 A0.75 0.75 0 0 0 14.75,9 L12.5,9 L12.5,6.75 Z M8.75,16 A0.75 0.75 0 0 0 8.75,17.5 L14.75,17.5 A0.75 0.75 0 0 0 14.75,16 L8.75,16 Z"/>
  <path d="M5,1 L14.982,1 A2 2 0 0 1 16.396,1.586 L20.414,5.604 A2 2 0 0 1 21,7.018 L21,21 A2 2 0 0 1 19,23 L5,23 A2 2 0 0 1 3,21 L3,3 A2 2 0 0 1 5,1 Z M4.5,3 L4.5,21 A0.5 0.5 0 0 0 5,21.5 L19,21.5 A0.5 0.5 0 0 0 19.5,21 L19.5,7.018 A0.5 0.5 0 0 0 19.354,6.664 L15.336,2.646 A0.5 0.5 0 0 0 14.982,2.5 L5,2.5 A0.5 0.5 0 0 0 4.5,3 Z"/>
</svg>
