<svg xmlns="http://www.w3.org/2000/svg" width="24" height="24" viewBox="0 0 24 24">
  <defs/>
  <path d="M3,3 A2 2 0 0 1 5,1 L14.982,1 A2 2 0 0 1 16.396,1.586 L20.414,5.604 A2 2 0 0 1 21,7.018 L21,21 A2 2 0 0 1 19,23 L4.75,23 A0.75 0.75 0 0 1 4.75,21.5 L19,21.5 A0.5 0.5 0 0 0 19.5,21 L19.5,8.5 L15.5,8.5 A2 2 0 0 1 13.5,6.5 L13.5,2.5 L5,2.5 A0.5 0.5 0 0 0 4.5,3 L4.5,9.25 A0.75 0.75 0 0 1 3,9.25 Z M15,2.5 L15,6.5 A0.5 0.5 0 0 0 15.5,7 L19.5,7 A0.5 0.5 0 0 0 19.354,6.664 L15.336,2.646 A0.5 0.5 0 0 0 15,2.5 Z"/>
  <path d="M0,13.75 C0,12.784 0.784,12 1.75,12 L4.75,12 C5.716,12 6.5,12.784 6.5,13.75 L6.5,17.75 A1.75 1.75 0 0 1 4.75,19.5 L1.75,19.5 A1.75 1.75 0 0 1 0,17.75 Z M1.75,13.5 A0.25 0.25 0 0 0 1.5,13.75 L1.5,17.75 C1.5,17.888 1.612,18 1.75,18 L4.75,18 A0.25 0.25 0 0 0 5,17.75 L5,13.75 A0.25 0.25 0 0 0 4.75,13.5 Z M9,12 A0.75 0.75 0 0 0 9,13.5 L10.5,13.5 L10.5,18 L9,18 A0.75 0.75 0 0 0 9,19.5 L13.5,19.5 A0.75 0.75 0 0 0 13.5,18 L12,18 L12,12.75 A0.75 0.75 0 0 0 11.25,12 L9,12 Z"/>
</svg>
