<svg xmlns="http://www.w3.org/2000/svg" width="24" height="24" viewBox="0 0 24 24">
  <defs/>
  <path d="M3,3 A2 2 0 0 1 5,1 L14.982,1 A2 2 0 0 1 16.396,1.586 L20.414,5.604 A2 2 0 0 1 21,7.018 L21,21 A2 2 0 0 1 19,23 L4.75,23 A0.75 0.75 0 0 1 4.75,21.5 L19,21.5 A0.5 0.5 0 0 0 19.5,21 L19.5,7 A0.5 0.5 0 0 0 19.354,6.664 L15.336,2.646 A0.5 0.5 0 0 0 15,2.5 L5,2.5 A0.5 0.5 0 0 0 4.5,3 L4.5,9.25 A0.75 0.75 0 0 1 3,9.25 L3,3 Z"/>
  <path d="M7.21,14.25 L1.75,14.25 A0.75 0.75 0 0 0 1.75,15.75 L7.21,15.75 C7.21,15.75 7.202,17.999 7.21,19.006 A0.75 0.75 0 0 0 8.472,19.548 L12.757,15.548 A0.75 0.75 0 0 0 12.757,14.452 L8.472,10.452 A0.75 0.75 0 0 0 7.21,11 L7.21,14.249 Z"/>
</svg>
