<svg xmlns="http://www.w3.org/2000/svg" width="24" height="24" viewBox="0 0 24 24">
  <defs/>
  <path d="M3,3 A2 2 0 0 1 5,1 L14.982,1 A2 2 0 0 1 16.396,1.586 L20.414,5.604 A2 2 0 0 1 21,7.018 L21,21 A2 2 0 0 1 19,23 L4.75,23 A0.75 0.75 0 0 1 4.75,21.5 L19,21.5 A0.5 0.5 0 0 0 19.5,21 L19.5,8.5 L15.5,8.5 A2 2 0 0 1 13.5,6.5 L13.5,2.5 L5,2.5 A0.5 0.5 0 0 0 4.5,3 L4.5,9.25 A0.75 0.75 0 0 1 3,9.25 Z M9.308,14.5 L7.204,12.264 A0.751 0.751 0 0 1 7.573,11.009 A0.749 0.749 0 0 1 8.296,11.236 L11.59,14.736 A0.75 0.75 0 0 1 11.59,15.764 L8.296,19.264 A0.749 0.749 0 0 1 7.021,18.971 A0.751 0.751 0 0 1 7.204,18.236 L9.308,16 L4.09,16 A2.59 2.59 0 0 0 1.5,18.59 L1.5,21.75 A0.75 0.75 0 0 1 0,21.75 L0,18.59 A4.09 4.09 0 0 1 4.09,14.5 Z M15,2.5 L15,6.5 A0.5 0.5 0 0 0 15.5,7 L19.5,7 A0.5 0.5 0 0 0 19.354,6.664 L15.336,2.646 A0.5 0.5 0 0 0 15,2.5 Z"/>
</svg>
