<svg xmlns="http://www.w3.org/2000/svg" width="24" height="24" viewBox="0 0 24 24">
  <defs/>
  <path d="M2,4.75 C2,3.784 2.784,3 3.75,3 L8.721,3 A1.75 1.75 0 0 1 10.168,3.765 L11.572,5.828 A0.25 0.25 0 0 0 11.779,5.938 L20.25,5.938 C21.216,5.938 22,6.721 22,7.688 L22,19.25 A1.75 1.75 0 0 1 20.25,21 L4.75,21 A0.75 0.75 0 0 1 4.75,19.5 L20.25,19.5 A0.25 0.25 0 0 0 20.5,19.25 L20.5,7.688 A0.25 0.25 0 0 0 20.25,7.438 L11.779,7.438 A1.751 1.751 0 0 1 10.332,6.672 L8.928,4.609 A0.252 0.252 0 0 0 8.721,4.5 L3.75,4.5 A0.25 0.25 0 0 0 3.5,4.75 L3.5,8.25 A0.75 0.75 0 0 1 2,8.25 L2,4.75 Z"/>
  <path d="M9.308,12.5 L7.204,10.264 A0.75 0.75 0 1 1 8.296,9.236 L11.59,12.736 A0.75 0.75 0 0 1 11.59,13.764 L8.296,17.264 A0.75 0.75 0 1 1 7.204,16.236 L9.308,14 L4.09,14 A2.59 2.59 0 0 0 1.5,16.59 L1.5,19.75 A0.75 0.75 0 0 1 0,19.75 L0,16.59 A4.09 4.09 0 0 1 4.09,12.5 L9.308,12.5 Z"/>
</svg>
