<svg xmlns="http://www.w3.org/2000/svg" width="16" height="16" viewBox="0 0 16 16">
  <defs/>
  <path d="M1,1.75 C1,0.784 1.784,0 2.75,0 L10.336,0 C10.8,0 11.245,0.184 11.573,0.513 L14.487,3.427 C14.816,3.755 15,4.2 15,4.664 L15,14.25 A1.75 1.75 0 0 1 13.25,16 L2.75,16 A1.75 1.75 0 0 1 1,14.25 Z M2.75,1.5 A0.25 0.25 0 0 0 2.5,1.75 L2.5,14.25 C2.5,14.388 2.612,14.5 2.75,14.5 L13.25,14.5 A0.25 0.25 0 0 0 13.5,14.25 L13.5,4.664 A0.25 0.25 0 0 0 13.427,4.487 L10.513,1.573 A0.25 0.25 0 0 0 10.336,1.5 Z M8,3.25 A0.75 0.75 0 0 1 8.75,4 L8.75,5.5 L10.25,5.5 A0.75 0.75 0 0 1 10.25,7 L8.75,7 L8.75,8.5 A0.75 0.75 0 0 1 7.25,8.5 L7.25,7 L5.75,7 A0.75 0.75 0 0 1 5.75,5.5 L7.25,5.5 L7.25,4 A0.75 0.75 0 0 1 8,3.25 Z M5,11.25 A0.75 0.75 0 0 1 5.75,10.5 L10.25,10.5 A0.75 0.75 0 0 1 10.25,12 L5.75,12 A0.75 0.75 0 0 1 5,11.25 Z"/>
</svg>
