<svg xmlns="http://www.w3.org/2000/svg" width="24" height="24" viewBox="0 0 24 24">
  <defs/>
  <path d="M2,4.75 C2,3.784 2.784,3 3.75,3 L8.715,3 A1.75 1.75 0 0 1 10.171,3.78 L11.577,5.889 A0.25 0.25 0 0 0 11.785,6 L20.25,6 C21.216,6 22,6.784 22,7.75 L22,19.25 A1.75 1.75 0 0 1 20.25,21 L3.75,21 A1.75 1.75 0 0 1 2,19.25 Z M14.78,9.72 A0.749 0.749 0 0 0 13.505,10.046 A0.749 0.749 0 0 0 13.72,10.78 L15.44,12.5 L6.75,12.5 A0.75 0.75 0 0 0 6.75,14 L15.44,14 L13.72,15.72 A0.749 0.749 0 0 0 14.046,16.995 A0.749 0.749 0 0 0 14.78,16.78 L17.78,13.78 A0.75 0.75 0 0 0 17.78,12.72 Z"/>
</svg>
