<svg xmlns="http://www.w3.org/2000/svg" width="24" height="24" viewBox="0 0 24 24">
  <defs/>
  <path d="M3,3 A2 2 0 0 1 5,1 L14.982,1 A2 2 0 0 1 16.396,1.586 L20.414,5.604 A2 2 0 0 1 21,7.018 L21,21 A2 2 0 0 1 19,23 L4.75,23 A0.75 0.75 0 0 1 4.75,21.5 L19,21.5 A0.5 0.5 0 0 0 19.5,21 L19.5,8.5 L15.5,8.5 A2 2 0 0 1 13.5,6.5 L13.5,2.5 L5,2.5 A0.5 0.5 0 0 0 4.5,3 L4.5,9.25 A0.75 0.75 0 0 1 3,9.25 Z M15,2.5 L15,6.5 A0.5 0.5 0 0 0 15.5,7 L19.5,7 A0.5 0.5 0 0 0 19.354,6.664 L15.336,2.646 A0.5 0.5 0 0 0 15,2.5 Z"/>
  <path d="M4.53000020980835,12.239999771118164 C4.81196403503418,12.543472290039062 4.794502258300781,13.018068313598633 4.491000175476074,13.300000190734863 L1.8519999980926514,15.75 L4.492000102996826,18.200000762939453 C4.795756816864014,18.48221778869629 4.813217639923096,18.957242965698242 4.531000137329102,19.26099967956543 C4.383325576782227,19.419944763183594 4.182859420776367,19.500499725341797 3.9817633628845215,19.500749588012695 L3.9798929691314697,19.500749588012695 C3.7972986698150635,19.50052261352539 3.61431884765625,19.434085845947266 3.4700000286102295,19.299999237060547 L0.23999999463558197,16.299999237060547 C0.08987967669963837,16.160823822021484 0.0033020826522260904,15.966468811035156 0,15.762136459350586 L0,15.737863540649414 C0.0033020826522260904,15.533531188964844 0.08987967669963837,15.3391752243042 0.23999999463558197,15.199999809265137 L3.4700000286102295,12.199999809265137 C3.614185094833374,12.066277503967285 3.79687237739563,12.000067710876465 3.979145050048828,11.999902725219727 L3.980510711669922,11.999902725219727 C4.181758880615234,12.00008487701416 4.382382869720459,12.08077621459961 4.53000020980835,12.239999771118164 Z M8.508999824523926,13.300000190734863 C8.205243110656738,13.01833438873291 8.187335014343262,12.543756484985352 8.468999862670898,12.239999771118164 C8.750665664672852,11.936243057250977 9.22524356842041,11.9183349609375 9.529000282287598,12.199999809265137 L12.760000228881836,15.199999809265137 C12.913089752197266,15.341928482055664 13.00009822845459,15.541241645812988 13.00009822845459,15.75 C13.00009822845459,15.958758354187012 12.913089752197266,16.158071517944336 12.760000228881836,16.299999237060547 L9.529999732971191,19.299999237060547 C9.226243019104004,19.581941604614258 8.75144100189209,19.56425666809082 8.469499588012695,19.260499954223633 C8.1875581741333,18.956743240356445 8.205243110656738,18.48194122314453 8.508999824523926,18.200000762939453 L11.14799976348877,15.75 L8.508000373840332,13.300000190734863 Z"/>
</svg>
