<svg xmlns="http://www.w3.org/2000/svg" width="16" height="16" viewBox="0 0 16 16">
  <defs/>
  <path d="M3.5,1.75 L3.5,13.25 C3.5,13.34 3.548,13.423 3.626,13.467 A0.75 0.75 0 0 1 2.874,14.765 A1.748 1.748 0 0 1 2,13.25 L2,1.75 C2,0.784 2.784,0 3.75,0 L9.336,0 C9.8,0 10.245,0.185 10.573,0.513 L13.487,3.427 C13.816,3.755 14,4.2 14,4.664 L14,13.25 A1.75 1.75 0 0 1 12.25,15 L11.75,15 A0.75 0.75 0 0 1 11.75,13.5 L12.25,13.5 A0.25 0.25 0 0 0 12.5,13.25 L12.5,4.664 A0.25 0.25 0 0 0 12.427,4.487 L9.513,1.573 A0.25 0.25 0 0 0 9.336,1.5 L7.25,1.5 A0.75 0.75 0 0 1 7.25,3 L6.75,3 A0.75 0.75 0 0 1 6.75,1.5 L3.75,1.5 A0.25 0.25 0 0 0 3.5,1.75 Z M7.25,10.5 L7.75,10.5 C8.716,10.5 9.5,11.284 9.5,12.25 L9.5,15.25 A0.75 0.75 0 0 1 8.75,16 L6.25,16 A0.75 0.75 0 0 1 5.5,15.25 L5.5,12.25 C5.5,11.284 6.284,10.5 7.25,10.5 Z M6,5.25 A0.75 0.75 0 0 1 6.75,4.5 L7.25,4.5 A0.75 0.75 0 0 1 7.25,6 L6.75,6 A0.75 0.75 0 0 1 6,5.25 Z M6.75,7.5 L7.25,7.5 A0.75 0.75 0 0 1 7.25,9 L6.75,9 A0.75 0.75 0 0 1 6.75,7.5 Z M8,6.75 A0.75 0.75 0 0 1 8.75,6 L9.25,6 A0.75 0.75 0 0 1 9.25,7.5 L8.75,7.5 A0.75 0.75 0 0 1 8,6.75 Z M8.75,3 L9.25,3 A0.75 0.75 0 0 1 9.25,4.5 L8.75,4.5 A0.75 0.75 0 0 1 8.75,3 Z M8,9.75 A0.75 0.75 0 0 1 8.75,9 L9.25,9 A0.75 0.75 0 0 1 9.25,10.5 L8.75,10.5 A0.75 0.75 0 0 1 8,9.75 Z M7,12.25 L7,14.5 L8,14.5 L8,12.25 A0.25 0.25 0 0 0 7.75,12 L7.25,12 A0.25 0.25 0 0 0 7,12.25 Z"/>
</svg>
