<svg xmlns="http://www.w3.org/2000/svg" width="16" height="16" viewBox="0 0 16 16">
  <defs/>
  <path d="M2,1.75 C2,0.7839999794960022 2.7839999198913574,0 3.75,0 L9.336000442504883,0 C9.800000190734863,0 10.244999885559082,0.18400000035762787 10.572999954223633,0.5130000114440918 L13.487000465393066,3.427000045776367 C13.815999984741211,3.755000114440918 14,4.199999809265137 14,4.664000034332275 L14,13.25 C14,14.216498374938965 13.216498374938965,15 12.25,15 L5.25,15 C4.83578634262085,15 4.5,14.664213180541992 4.5,14.25 C4.5,13.835786819458008 4.83578634262085,13.5 5.25,13.5 L12.25,13.5 C12.388071060180664,13.5 12.5,13.388071060180664 12.5,13.25 L12.5,6 L9.75,6 C8.783501625061035,6 8,5.216498374938965 8,4.25 L8,1.5 L3.75,1.5 C3.611928701400757,1.5 3.5,1.6119288206100464 3.5,1.75 L3.5,4.5 C3.5,4.91421365737915 3.1642136573791504,5.25 2.75,5.25 C2.3357863426208496,5.25 2,4.91421365737915 2,4.5 Z M1.5,12.237000465393066 L1.5,13.25 C1.5,13.664213180541992 1.1642135381698608,14 0.75,14 C0.3357864320278168,14 0,13.664213180541992 0,13.25 L0,12.235867500305176 C0.00028325978200882673,11.238609313964844 0.3979990482330322,10.28254508972168 1.1051758527755737,9.579307556152344 C1.812856674194336,8.875569343566895 2.771988868713379,8.483141899108887 3.7699999809265137,8.48900032043457 L4,8.489999771118164 L4,6.572999954223633 C4.000120162963867,6.473649501800537 4.05905818939209,6.383798599243164 4.150138854980469,6.344113349914551 C4.2412190437316895,6.304428577423096 4.3471550941467285,6.322441577911377 4.420000076293945,6.389999866485596 L7.302999973297119,9.067999839782715 C7.353812217712402,9.115293502807617 7.382673740386963,9.181584358215332 7.382673740386963,9.25100040435791 C7.382673740386963,9.320415496826172 7.353812217712402,9.386706352233887 7.302999973297119,9.434000015258789 L4.420000076293945,12.111000061035156 C4.3471550941467285,12.178558349609375 4.2412190437316895,12.196571350097656 4.150138854980469,12.156886100769043 C4.05905818939209,12.117201805114746 4.000120162963867,12.027350425720215 4,11.928000450134277 L4,9.989999771118164 L3.76200008392334,9.987000465393066 C3.163186550140381,9.983806610107422 2.5878024101257324,10.21944808959961 2.1632466316223145,10.641752243041992 C1.738690972328186,11.064055442810059 1.499991536140442,11.638177871704102 1.5,12.237000465393066 Z M9.5,1.562000036239624 L9.5,4.25 C9.5,4.388000011444092 9.612000465393066,4.5 9.75,4.5 L12.437999725341797,4.5 L12.427000045776367,4.486999988555908 L9.512999534606934,1.5729999542236328 Z"/>
</svg>
