<svg xmlns="http://www.w3.org/2000/svg" width="24" height="24" viewBox="0 0 24 24">
  <defs/>
  <path d="M12,8.25 A0.75 0.75 0 0 1 12.75,9 L12.75,11.25 L15,11.25 A0.75 0.75 0 0 1 15,12.75 L12.75,12.75 L12.75,15 A0.75 0.75 0 0 1 11.25,15 L11.25,12.75 L9,12.75 A0.75 0.75 0 0 1 9,11.25 L11.25,11.25 L11.25,9 A0.75 0.75 0 0 1 12,8.25 Z"/>
  <path d="M3,3 A2 2 0 0 1 5,1 L14.982,1 A2 2 0 0 1 16.396,1.586 L20.414,5.604 A2 2 0 0 1 21,7.018 L21,21 A2 2 0 0 1 19,23 L5,23 A2 2 0 0 1 3,21 L3,3 Z M5,2.5 A0.5 0.5 0 0 0 4.5,3 L4.5,21 A0.5 0.5 0 0 0 5,21.5 L19,21.5 A0.5 0.5 0 0 0 19.5,21 L19.5,7.018 A0.5 0.5 0 0 0 19.354,6.664 L15.336,2.646 A0.5 0.5 0 0 0 14.982,2.5 L5,2.5 Z"/>
</svg>
