<svg xmlns="http://www.w3.org/2000/svg" width="16" height="16" viewBox="0 0 16 16">
  <defs/>
  <path d="M4,1.75 C4,0.784 4.784,0 5.75,0 L11.336,0 C11.8,0 12.245,0.184 12.573,0.513 L15.487,3.427 C15.816,3.755 16,4.2 16,4.664 L16,13.25 A1.75 1.75 0 0 1 14.25,15 L5.25,15 A0.75 0.75 0 0 1 5.25,13.5 L14.25,13.5 A0.25 0.25 0 0 0 14.5,13.25 L14.5,6 L11.75,6 A1.75 1.75 0 0 1 10,4.25 L10,1.5 L5.75,1.5 A0.25 0.25 0 0 0 5.5,1.75 L5.5,4.25 A0.75 0.75 0 0 1 4,4.25 Z M5.72,6.72 A0.75 0.75 0 0 1 6.78,6.72 L8.78,8.72 A0.75 0.75 0 0 1 8.78,9.78 L6.78,11.78 A0.749 0.749 0 0 1 5.505,11.454 A0.749 0.749 0 0 1 5.72,10.72 L7.19,9.25 L5.72,7.78 A0.75 0.75 0 0 1 5.72,6.72 Z M3.28,7.78 L1.81,9.25 L3.28,10.72 A0.751 0.751 0 0 1 3.262,11.762 A0.751 0.751 0 0 1 2.22,11.78 L0.22,9.78 A0.75 0.75 0 0 1 0.22,8.72 L2.22,6.72 A0.751 0.751 0 0 1 3.262,6.738 A0.751 0.751 0 0 1 3.28,7.78 Z M11.5,1.562 L11.5,4.25 C11.5,4.388 11.612,4.5 11.75,4.5 L14.438,4.5 L14.427,4.487 L11.513,1.573 L11.5,1.562 Z"/>
</svg>
