<svg xmlns="http://www.w3.org/2000/svg" width="24" height="24" viewBox="0 0 24 24">
  <defs/>
  <path d="M3,3 A2 2 0 0 1 5,1 L14.982,1 A2 2 0 0 1 16.396,1.586 L20.414,5.604 A2 2 0 0 1 21,7.018 L21,21 A2 2 0 0 1 19,23 L5,23 A2 2 0 0 1 3,21 Z M5,2.5 A0.5 0.5 0 0 0 4.5,3 L4.5,21 A0.5 0.5 0 0 0 5,21.5 L19,21.5 A0.5 0.5 0 0 0 19.5,21 L19.5,8.5 L15.5,8.5 A2 2 0 0 1 13.5,6.5 L13.5,2.5 Z M15,2.5 L15,6.5 A0.5 0.5 0 0 0 15.5,7 L19.5,7 A0.5 0.5 0 0 0 19.354,6.664 L15.336,2.646 A0.5 0.5 0 0 0 15,2.5 Z"/>
</svg>
