<svg xmlns="http://www.w3.org/2000/svg" width="16" height="16" viewBox="0 0 16 16">
  <defs/>
  <path d="M2,1.75 C2,0.784 2.784,0 3.75,0 L10.336,0 C10.8,0 11.245,0.184 11.573,0.513 L14.487,3.427 C14.816,3.755 15,4.2 15,4.664 L15,14.25 A1.75 1.75 0 0 1 13.25,16 L3.75,16 A1.75 1.75 0 0 1 2,14.25 Z M3.75,1.5 A0.25 0.25 0 0 0 3.5,1.75 L3.5,14.25 C3.5,14.388 3.612,14.5 3.75,14.5 L13.25,14.5 A0.25 0.25 0 0 0 13.5,14.25 L13.5,6 L10.75,6 A1.75 1.75 0 0 1 9,4.25 L9,1.5 Z M10.5,1.562 L10.5,4.25 C10.5,4.388 10.612,4.5 10.75,4.5 L13.438,4.5 L13.427,4.487 L10.513,1.573 L10.5,1.562 Z"/>
</svg>
