<svg xmlns="http://www.w3.org/2000/svg" width="24" height="24" viewBox="0 0 24 24">
  <defs/>
  <path d="M3,3 A2 2 0 0 1 5,1 L14.982,1 A2 2 0 0 1 16.396,1.586 L20.414,5.604 A2 2 0 0 1 21,7.018 L21,21 A2 2 0 0 1 19,23 L5,23 A2 2 0 0 1 3,21 L3,3 Z M5,2.5 A0.5 0.5 0 0 0 4.5,3 L4.5,21 A0.5 0.5 0 0 0 5,21.5 L19,21.5 A0.5 0.5 0 0 0 19.5,21 L19.5,7.018 A0.5 0.5 0 0 0 19.354,6.664 L15.336,2.646 A0.5 0.5 0 0 0 14.982,2.5 L5,2.5 Z"/>
  <path d="M8,12 C8,11.586 8.358,11.25 8.8,11.25 L15.2,11.25 C15.642,11.25 16,11.586 16,12 C16,12.414 15.642,12.75 15.2,12.75 L8.8,12.75 C8.358,12.75 8,12.414 8,12 Z"/>
</svg>
