<svg xmlns="http://www.w3.org/2000/svg" width="24" height="24" viewBox="0 0 24 24">
  <defs/>
  <path d="M21.75,21.5 L2.25,21.5 A1.75 1.75 0 0 1 0.5,19.75 L0.5,4.25 C0.5,3.284 1.284,2.5 2.25,2.5 L21.75,2.5 C22.716,2.5 23.5,3.284 23.5,4.25 L23.5,19.75 A1.75 1.75 0 0 1 21.75,21.5 Z M2.25,4 A0.25 0.25 0 0 0 2,4.25 L2,19.75 C2,19.888 2.112,20 2.25,20 L5.428,20 L14,10.977 A1.749 1.749 0 0 1 16.506,10.945 L22,16.44 L22,4.25 A0.25 0.25 0 0 0 21.75,4 Z M22,19.75 L22,18.56 L15.445,12.006 A0.248 0.248 0 0 0 15.265,11.933 A0.247 0.247 0 0 0 15.087,12.01 L7.497,20 L21.75,20 A0.25 0.25 0 0 0 22,19.75 Z M10.5,9.25 A3.25 3.25 0 1 1 4,9.25 A3.25 3.25 0 0 1 10.5,9.25 Z M9,9.25 A1.75 1.75 0 1 0 5.499,9.251 A1.75 1.75 0 0 0 9,9.25 Z"/>
</svg>
