<svg xmlns="http://www.w3.org/2000/svg" width="16" height="16" viewBox="0 0 16 16">
  <defs/>
  <path d="M14.384,4.57 A0.752 0.752 0 0 0 15.445,4.57 A0.752 0.752 0 0 0 15.445,3.509 L14.561,2.625 L15.444,1.741 A0.75 0.75 0 0 0 14.384,0.68 L13.5,1.564 L12.616,0.68 A0.75 0.75 0 0 0 11.556,1.741 L12.439,2.625 L11.556,3.509 A0.75 0.75 0 0 0 12.616,4.57 L13.5,3.686 L14.384,4.57 Z M0.75,3 A0.75 0.75 0 0 0 0.75,4.5 L9,4.5 A0.75 0.75 0 0 0 9,3 L0.75,3 Z M3,7.75 A0.75 0.75 0 0 1 3.75,7 L12.25,7 A0.75 0.75 0 0 1 12.25,8.5 L3.75,8.5 A0.75 0.75 0 0 1 3,7.75 Z M6,11.75 A0.75 0.75 0 0 1 6.75,11 L9.25,11 A0.75 0.75 0 0 1 9.25,12.5 L6.75,12.5 A0.75 0.75 0 0 1 6,11.75 Z"/>
</svg>
