<svg xmlns="http://www.w3.org/2000/svg" width="24" height="24" viewBox="0 0 24 24">
  <defs/>
  <path d="M21.587,9.273 A0.75 0.75 0 1 0 22.648,8.212 L21.057,6.621 L22.648,5.03 A0.749 0.749 0 1 0 21.587,3.97 L19.996,5.561 L18.405,3.97 A0.749 0.749 0 1 0 17.345,5.03 L18.936,6.621 L17.345,8.212 A0.75 0.75 0 0 0 18.405,9.273 L19.996,7.682 L21.587,9.273 Z M1.75,6 A0.75 0.75 0 0 0 1.75,7.5 L14.5,7.5 A0.75 0.75 0 0 0 14.5,6 L1.75,6 Z M5,11.75 A0.75 0.75 0 0 1 5.75,11 L16.25,11 A0.75 0.75 0 0 1 16.25,12.5 L5.75,12.5 A0.75 0.75 0 0 1 5,11.75 Z M9,16.688 A0.75 0.75 0 0 1 9.75,15.938 L12.25,15.938 A0.75 0.75 0 1 1 12.25,17.438 L9.75,17.438 A0.75 0.75 0 0 1 9,16.688 Z"/>
</svg>
