<svg xmlns="http://www.w3.org/2000/svg" width="16" height="16" viewBox="0 0 16 16">
  <defs/>
  <path d="M10,8 A1 1 0 1 0 10,6 A1 1 0 0 0 10,8 Z"/>
  <path d="M4,9.25 L3.25,9.25 A0.75 0.75 0 0 1 3.25,7.75 L4,7.75 L4,6.25 L3.25,6.25 A0.75 0.75 0 0 1 3.25,4.75 L4,4.75 L4,3.5 A1 1 0 0 1 5,2.5 L12.5,2.5 A1 1 0 0 1 13.5,3.5 L13.5,10.5 A1 1 0 0 1 12.5,11.5 L5,11.5 A1 1 0 0 1 4,10.5 Z M5.5,4 L5.5,4.793 A0.75 0.75 0 0 1 5.5,6.207 L5.5,7.793 A0.75 0.75 0 0 1 5.5,9.207 L5.5,10 L12,10 L12,4 Z"/>
  <path d="M12.75,14.25 L12.75,14 L3.25,14 L3.25,14.25 A0.75 0.75 0 0 1 1.75,14.25 L1.75,14 A1.75 1.75 0 0 1 0,12.25 L0,1.75 C0,0.784 0.784,0 1.75,0 L14.25,0 C15.217,0 16,0.784 16,1.75 L16,12.25 A1.75 1.75 0 0 1 14.25,14 L14.25,14.25 A0.75 0.75 0 0 1 12.75,14.25 Z M1.75,1.5 A0.25 0.25 0 0 0 1.5,1.75 L1.5,12.25 C1.5,12.388 1.612,12.5 1.75,12.5 L14.25,12.5 A0.25 0.25 0 0 0 14.5,12.25 L14.5,1.75 A0.25 0.25 0 0 0 14.25,1.5 Z"/>
</svg>
