<svg xmlns="http://www.w3.org/2000/svg" width="24" height="24" viewBox="0 0 24 24">
  <defs/>
  <path d="M2,3.75 C2,2.784 2.784,2 3.75,2 L20.25,2 C21.216,2 22,2.784 22,3.75 L22,18.25 A1.75 1.75 0 0 1 20.25,20 L19,20 L19,20.25 A1 1 0 1 1 17,20.25 L17,20 L6.997,20 L6.997,20.25 A1 1 0 1 1 4.997,20.25 L4.997,20 L3.75,20 A1.75 1.75 0 0 1 2,18.25 L2,3.75 Z M3.75,3.5 A0.25 0.25 0 0 0 3.5,3.75 L3.5,18.25 C3.5,18.388 3.612,18.5 3.75,18.5 L20.25,18.5 A0.25 0.25 0 0 0 20.5,18.25 L20.5,3.75 A0.25 0.25 0 0 0 20.25,3.5 L3.75,3.5 Z M14.318,12 A1 1 0 1 0 14.318,10 A1 1 0 0 0 14.318,12 Z M6,8.5 A0.75 0.75 0 1 0 6,10 L7.5,10 L7.5,12 L6,12 A0.75 0.75 0 0 0 6,13.5 L7.5,13.5 L7.5,15 A1.5 1.5 0 0 0 9,16.5 L17,16.5 A1.5 1.5 0 0 0 18.5,15 L18.5,7 A1.5 1.5 0 0 0 17,5.5 L9,5.5 A1.5 1.5 0 0 0 7.5,7 L7.5,8.5 L6,8.5 Z M9,10 A0.75 0.75 0 0 0 9,8.5 L9,7 L17,7 L17,15 L9,15 L9,13.5 A0.75 0.75 0 0 0 9,12 L9,10 Z"/>
</svg>
