<svg xmlns="http://www.w3.org/2000/svg" width="24" height="24" viewBox="0 0 24 24">
  <defs/>
  <path d="M16,12 A4 4 0 1 1 8,12 A4 4 0 0 1 16,12 Z M14.5,12 A2.5 2.5 0 1 0 9.5,12 A2.5 2.5 0 0 0 14.5,12 Z"/>
  <path d="M12,1 C12.266,1 12.532,1.009 12.797,1.028 C13.56,1.083 14.142,1.645 14.309,2.332 L14.661,3.782 C14.68,3.86 14.751,3.953 14.886,4.003 C15.133,4.092 15.376,4.193 15.614,4.305 C15.744,4.366 15.86,4.349 15.929,4.307 L17.204,3.531 C17.807,3.163 18.615,3.178 19.194,3.678 C19.596,4.027 19.974,4.404 20.322,4.807 C20.823,5.385 20.837,6.193 20.469,6.797 L19.693,8.071 C19.651,8.14 19.635,8.256 19.695,8.386 C19.807,8.624 19.908,8.867 19.998,9.114 C20.046,9.249 20.14,9.319 20.218,9.339 L21.668,9.691 C22.355,9.858 22.917,10.44 22.971,11.203 C23.009,11.734 23.009,12.266 22.971,12.797 C22.917,13.56 22.355,14.142 21.668,14.309 L20.218,14.661 C20.14,14.68 20.047,14.751 19.997,14.886 C19.908,15.134 19.807,15.377 19.695,15.614 C19.634,15.744 19.651,15.86 19.693,15.929 L20.469,17.204 C20.837,17.807 20.822,18.615 20.322,19.194 C19.973,19.596 19.596,19.974 19.193,20.322 C18.615,20.823 17.807,20.837 17.203,20.469 L15.929,19.693 C15.86,19.651 15.744,19.635 15.615,19.695 A8.606 8.606 0 0 1 14.886,19.998 C14.751,20.046 14.681,20.14 14.661,20.218 L14.309,21.668 C14.142,22.355 13.56,22.917 12.797,22.971 C12.266,23.009 11.734,23.009 11.203,22.971 C10.44,22.917 9.858,22.355 9.691,21.668 L9.339,20.218 C9.32,20.14 9.249,20.047 9.114,19.997 A8.138 8.138 0 0 1 8.386,19.695 C8.256,19.634 8.14,19.651 8.071,19.693 L6.796,20.469 C6.193,20.837 5.385,20.822 4.806,20.322 C4.404,19.973 4.026,19.596 3.678,19.193 C3.177,18.615 3.163,17.807 3.531,17.203 L4.307,15.929 C4.349,15.86 4.365,15.744 4.305,15.615 A8.606 8.606 0 0 1 4.002,14.886 C3.954,14.751 3.86,14.681 3.782,14.661 L2.332,14.309 C1.645,14.142 1.083,13.56 1.028,12.797 A11.158 11.158 0 0 1 1.028,11.203 C1.083,10.44 1.645,9.858 2.332,9.691 L3.782,9.339 C3.86,9.32 3.953,9.249 4.003,9.114 C4.092,8.866 4.193,8.623 4.305,8.386 C4.366,8.256 4.349,8.14 4.307,8.071 L3.531,6.796 C3.163,6.193 3.178,5.385 3.678,4.806 C4.027,4.404 4.404,4.026 4.807,3.678 C5.385,3.177 6.193,3.163 6.797,3.531 L8.071,4.307 C8.14,4.349 8.256,4.365 8.386,4.305 C8.624,4.193 8.867,4.092 9.114,4.002 C9.249,3.954 9.319,3.86 9.339,3.782 L9.691,2.332 C9.858,1.645 10.44,1.083 11.203,1.028 C11.466,1.01 11.732,1 12,1 Z M11.31,2.525 C11.255,2.529 11.175,2.575 11.149,2.686 L10.796,4.136 A1.832 1.832 0 0 1 9.624,5.413 A7.147 7.147 0 0 0 9.024,5.662 A1.833 1.833 0 0 1 7.29,5.588 L6.016,4.812 C5.918,4.752 5.83,4.776 5.788,4.812 A9.774 9.774 0 0 0 4.812,5.788 C4.776,5.83 4.752,5.919 4.812,6.016 L5.588,7.29 C5.902,7.819 5.93,8.47 5.662,9.024 A7.147 7.147 0 0 0 5.413,9.624 A1.831 1.831 0 0 1 4.135,10.797 L2.685,11.148 C2.575,11.175 2.529,11.255 2.525,11.31 A9.63 9.63 0 0 0 2.525,12.69 C2.529,12.745 2.575,12.825 2.686,12.851 L4.136,13.204 A1.832 1.832 0 0 1 5.413,14.376 C5.487,14.58 5.57,14.78 5.662,14.976 C5.93,15.529 5.902,16.18 5.588,16.709 L4.812,17.984 C4.752,18.082 4.776,18.17 4.812,18.212 C5.113,18.56 5.44,18.887 5.788,19.188 C5.83,19.224 5.919,19.248 6.016,19.188 L7.29,18.412 A1.83 1.83 0 0 1 9.024,18.337 C9.22,18.43 9.42,18.513 9.624,18.587 A1.831 1.831 0 0 1 10.797,19.865 L11.148,21.315 C11.175,21.425 11.255,21.471 11.31,21.475 A9.63 9.63 0 0 0 12.69,21.475 C12.745,21.471 12.825,21.425 12.851,21.314 L13.204,19.864 A1.834 1.834 0 0 1 14.376,18.586 A6.82 6.82 0 0 0 14.976,18.338 A1.831 1.831 0 0 1 16.709,18.412 L17.984,19.188 C18.082,19.248 18.17,19.224 18.212,19.188 C18.56,18.887 18.887,18.56 19.188,18.212 C19.224,18.17 19.248,18.081 19.188,17.984 L18.412,16.709 A1.834 1.834 0 0 1 18.337,14.976 C18.43,14.78 18.513,14.58 18.587,14.376 A1.831 1.831 0 0 1 19.865,13.203 L21.315,12.852 C21.425,12.825 21.471,12.745 21.475,12.69 A9.63 9.63 0 0 0 21.475,11.31 C21.471,11.255 21.425,11.175 21.314,11.149 L19.864,10.796 C19.238,10.644 18.784,10.171 18.586,9.624 A6.576 6.576 0 0 0 18.338,9.024 A1.833 1.833 0 0 1 18.412,7.29 L19.188,6.016 C19.248,5.918 19.224,5.83 19.188,5.788 A9.774 9.774 0 0 0 18.212,4.812 C18.17,4.776 18.081,4.752 17.984,4.812 L16.709,5.588 A1.831 1.831 0 0 1 14.976,5.662 A6.88 6.88 0 0 0 14.376,5.413 A1.835 1.835 0 0 1 13.203,4.135 L12.852,2.685 C12.825,2.575 12.745,2.529 12.69,2.525 A9.63 9.63 0 0 0 11.31,2.525 Z"/>
</svg>
