<svg xmlns="http://www.w3.org/2000/svg" width="16" height="16" viewBox="0 0 16 16">
  <defs/>
  <path d="M2,2.75 C2,1.2312169075012207 3.2312169075012207,0 4.75,0 C5.732999801635742,0 6.623000144958496,0.41999998688697815 7.320000171661377,1.2319999933242798 C7.5879998207092285,1.5499999523162842 7.816999912261963,1.899999976158142 8,2.2739999294281006 C8.182999610900879,1.8990000486373901 8.41100025177002,1.5490000247955322 8.680000305175781,1.2300000190734863 C9.37600040435791,0.41999998688697815 10.265999794006348,0 11.25,0 L11.251025199890137,0 C12.207833290100098,0.00017754395958036184 13.095806121826172,0.4976768493652344 13.595584869384766,1.3136417865753174 C14.095541954040527,2.1298978328704834 14.135090827941895,3.14739990234375 13.699999809265137,4 L14.25,4 C15.215999603271484,4 16,4.783999919891357 16,5.75 L16,7.75 C16,8.447999954223633 15.590999603271484,9.050999641418457 15,9.331999778747559 L15,14.25 C15,15.216498374938965 14.216498374938965,16 13.25,16 L2.75,16 C1.7835017442703247,16 1,15.216498374938965 1,14.25 L1,9.331999778747559 C0.4090000092983246,9.050000190734863 0,8.447999954223633 0,7.75 L0,5.75 C0,4.783999919891357 0.7839999794960022,4 1.75,4 L2.299999952316284,4 C2.1080000400543213,3.625 2,3.200000047683716 2,2.75 Z M8.75,9.5 L8.75,14.5 L13.25,14.5 C13.388071060180664,14.5 13.5,14.388071060180664 13.5,14.25 L13.5,9.5 Z M7.25,9.5 L2.5,9.5 L2.5,14.25 C2.5,14.387999534606934 2.611999988555908,14.5 2.75,14.5 L7.25,14.5 Z M8.75,5.5 L8.75,8 L14.25,8 C14.388071060180664,8 14.5,7.888071060180664 14.5,7.75 L14.5,5.75 C14.5,5.611928939819336 14.388071060180664,5.5 14.25,5.5 Z M1.75,5.5 C1.6119288206100464,5.5 1.5,5.611928939819336 1.5,5.75 L1.5,7.75 C1.5,7.888000011444092 1.6119999885559082,8 1.75,8 L7.25,8 L7.25,5.5 Z M4.75,1.5 C4.0596442222595215,1.5 3.5,2.0596439838409424 3.5,2.75 C3.5,3.4403560161590576 4.0596442222595215,4 4.75,4 L7.059000015258789,4 C6.826000213623047,3.181999921798706 6.517000198364258,2.5989999771118164 6.181000232696533,2.2070000171661377 C5.750999927520752,1.7050000429153442 5.265999794006348,1.5 4.75,1.5 Z M8.940999984741211,4 L11.25,4 C11.940356254577637,4 12.5,3.4403560161590576 12.5,2.75 C12.5,2.0596439838409424 11.940356254577637,1.5 11.25,1.5 C10.734000205993652,1.5 10.25,1.7050000429153442 9.819999694824219,2.2070000171661377 C9.482999801635742,2.5989999771118164 9.173999786376953,3.181999921798706 8.940999984741211,4 Z"/>
</svg>
