<svg xmlns="http://www.w3.org/2000/svg" width="16" height="16" viewBox="0 0 16 16">
  <defs/>
  <path d="M3.25,1 A2.25 2.25 0 0 1 4,5.372 L4,10.628 A2.251 2.251 0 1 1 2.5,10.628 L2.5,5.372 A2.251 2.251 0 0 1 3.25,1 Z M12.75,15 A2.25 2.25 0 1 1 12.75,10.5 A2.25 2.25 0 0 1 12.75,15 Z M2.5,3.25 A0.75 0.75 0 1 0 4,3.25 A0.75 0.75 0 0 0 2.5,3.25 Z M3.25,12 A0.75 0.75 0 1 0 3.25,13.5 A0.75 0.75 0 0 0 3.25,12 Z M12.75,12 A0.75 0.75 0 1 0 12.75,13.5 A0.75 0.75 0 0 0 12.75,12 Z M14,7.5 A1.25 1.25 0 1 1 11.5,7.5 A1.25 1.25 0 0 1 14,7.5 Z M14,3.25 A1.25 1.25 0 1 1 11.5,3.25 A1.25 1.25 0 0 1 14,3.25 Z"/>
</svg>
