<svg xmlns="http://www.w3.org/2000/svg" width="24" height="24" viewBox="0 0 24 24">
  <defs/>
  <path d="M5.75,6.5 A1.75 1.75 0 1 1 5.751,2.999 A1.75 1.75 0 0 1 5.75,6.5 Z M9.5,8.75 A1.75 1.75 0 1 1 13.001,8.751 A1.75 1.75 0 0 1 9.5,8.75 Z M5.75,22.5 A3.25 3.25 0 0 1 5.005,16.086 A0.81 0.81 0 0 1 5,16 L5,11 A0.75 0.75 0 0 1 6.5,11 L6.5,16 A0.81 0.81 0 0 1 6.495,16.086 A3.252 3.252 0 0 1 5.75,22.5 Z M4,19.25 A1.75 1.75 0 1 0 7.501,19.249 A1.75 1.75 0 0 0 4,19.25 Z M15,12.75 A3.25 3.25 0 1 1 21.5,12.75 A3.25 3.25 0 0 1 15,12.75 Z M18.25,14.5 A1.75 1.75 0 1 0 18.25,11 A1.75 1.75 0 0 0 18.25,14.5 Z"/>
</svg>
