<svg xmlns="http://www.w3.org/2000/svg" width="16" height="16" viewBox="0 0 16 16">
  <defs/>
  <path d="M3.25,1 A2.25 2.25 0 0 1 4,5.372 L4,10.628 A2.251 2.251 0 1 1 2.5,10.628 L2.5,5.372 A2.251 2.251 0 0 1 3.25,1 Z M12.75,6.5 A0.75 0.75 0 0 1 13.5,7.25 L13.5,10.628 A2.251 2.251 0 1 1 12,10.628 L12,7.25 A0.75 0.75 0 0 1 12.75,6.5 Z M10.72,1.227 A0.75 0.75 0 0 1 11.78,1.227 L12.75,2.197 L13.72,1.227 A0.748 0.748 0 0 1 14.985,1.559 A0.75 0.75 0 0 1 14.78,2.288 L13.81,3.258 L14.78,4.228 A0.751 0.751 0 0 1 14.762,5.27 A0.751 0.751 0 0 1 13.72,5.288 L12.75,4.318 L11.78,5.288 A0.749 0.749 0 0 1 10.505,4.962 A0.749 0.749 0 0 1 10.72,4.228 L11.69,3.258 L10.72,2.288 A0.75 0.75 0 0 1 10.72,1.228 Z M2.5,3.25 A0.75 0.75 0 1 0 4,3.25 A0.75 0.75 0 0 0 2.5,3.25 Z M3.25,12 A0.75 0.75 0 1 0 3.25,13.5 A0.75 0.75 0 0 0 3.25,12 Z M12.75,12 A0.75 0.75 0 1 0 12.75,13.5 A0.75 0.75 0 0 0 12.75,12 Z"/>
</svg>
