<svg xmlns="http://www.w3.org/2000/svg" width="24" height="24" viewBox="0 0 24 24">
  <defs/>
  <path d="M16,19.25 A3.25 3.25 0 1 1 22.5,19.25 A3.25 3.25 0 0 1 16,19.25 Z M1.5,19.25 A3.25 3.25 0 1 1 8,19.25 A3.25 3.25 0 0 1 1.5,19.25 Z M1.5,4.75 A3.25 3.25 0 1 1 8,4.75 A3.25 3.25 0 0 1 1.5,4.75 Z M4.75,3 A1.75 1.75 0 1 0 4.751,6.501 A1.75 1.75 0 0 0 4.75,3 Z M4.75,17.5 A1.75 1.75 0 1 0 4.751,21.001 A1.75 1.75 0 0 0 4.75,17.5 Z M19.25,17.5 A1.75 1.75 0 1 0 19.251,21.001 A1.75 1.75 0 0 0 19.25,17.5 Z"/>
  <path d="M13.405,1.72 A0.75 0.75 0 0 1 13.405,2.78 L12.185,4 L16.25,4 A3.75 3.75 0 0 1 20,7.75 L20,16.5 A0.75 0.75 0 0 1 18.5,16.5 L18.5,7.75 A2.25 2.25 0 0 0 16.25,5.5 L12.186,5.5 L13.406,6.72 A0.75 0.75 0 0 1 12.345,7.78 L9.845,5.28 A0.75 0.75 0 0 1 9.845,4.22 L12.345,1.72 A0.75 0.75 0 0 1 13.405,1.72 Z M4.75,7.25 A0.75 0.75 0 0 1 5.5,8 L5.5,16 A0.75 0.75 0 0 1 4,16 L4,8 A0.75 0.75 0 0 1 4.75,7.25 Z"/>
</svg>
