<svg xmlns="http://www.w3.org/2000/svg" width="24" height="24" viewBox="0 0 24 24">
  <defs/>
  <path d="M4.75,1.5 A3.25 3.25 0 0 1 5.495,7.914 A0.827 0.827 0 0 1 5.5,8 L5.5,16 A0.827 0.827 0 0 1 5.495,16.086 A3.25 3.25 0 0 1 4.75,22.5 A3.25 3.25 0 0 1 4.005,16.086 A0.827 0.827 0 0 1 4,16 L4,8 C4,7.971 4.002,7.943 4.005,7.914 A3.25 3.25 0 0 1 4.75,1.5 Z M16,19.25 A3.25 3.25 0 1 1 22.5,19.25 A3.25 3.25 0 0 1 16,19.25 Z M3,4.75 A1.75 1.75 0 1 0 6.501,4.749 A1.75 1.75 0 0 0 3,4.75 Z M3,19.25 A1.75 1.75 0 1 0 6.501,19.249 A1.75 1.75 0 0 0 3,19.25 Z M19.25,17.5 A1.75 1.75 0 1 0 19.251,21.001 A1.75 1.75 0 0 0 19.25,17.5 Z M19.25,6 A1.75 1.75 0 1 0 19.25,2.5 A1.75 1.75 0 0 0 19.25,6 Z M21,11.25 A1.75 1.75 0 1 1 17.5,11.25 A1.75 1.75 0 0 1 21,11.25 Z"/>
</svg>
