<svg xmlns="http://www.w3.org/2000/svg" width="24" height="24" viewBox="0 0 24 24">
  <defs/>
  <path d="M15,13.25 A3.25 3.25 0 1 1 21.5,13.25 A3.25 3.25 0 0 1 15,13.25 Z M2.5,19.25 A3.25 3.25 0 1 1 9,19.25 A3.25 3.25 0 0 1 2.5,19.25 Z M2.5,4.75 A3.25 3.25 0 1 1 9,4.75 A3.25 3.25 0 0 1 2.5,4.75 Z M5.75,6.5 A1.75 1.75 0 1 0 5.749,2.999 A1.75 1.75 0 0 0 5.75,6.5 Z M5.75,21 A1.75 1.75 0 1 0 5.749,17.499 A1.75 1.75 0 0 0 5.75,21 Z M18.25,15 A1.75 1.75 0 1 0 18.249,11.499 A1.75 1.75 0 0 0 18.25,15 Z"/>
  <path d="M6.5,7.25 C6.5,10.15 8.85,12.5 11.75,12.5 L16.25,12.5 L16.25,14 L11.75,14 A6.75 6.75 0 0 1 5,7.25 Z"/>
  <path d="M5.75,16.75 A0.75 0.75 0 0 1 5,16 L5,8 A0.75 0.75 0 0 1 6.5,8 L6.5,16 A0.75 0.75 0 0 1 5.75,16.75 Z"/>
</svg>
