<svg xmlns="http://www.w3.org/2000/svg" width="16" height="16" viewBox="0 0 16 16">
  <defs/>
  <path d="M9.5,3.25 A2.25 2.25 0 1 1 12.5,5.372 L12.5,6 A2.5 2.5 0 0 1 10,8.5 L6,8.5 A1 1 0 0 0 5,9.5 L5,10.628 A2.251 2.251 0 1 1 3.5,10.628 L3.5,5.372 A2.25 2.25 0 1 1 5,5.372 L5,7.208 A2.493 2.493 0 0 1 6,7 L10,7 A1 1 0 0 0 11,6 L11,5.372 A2.25 2.25 0 0 1 9.5,3.25 Z M3.5,3.25 A0.75 0.75 0 1 0 5,3.25 A0.75 0.75 0 0 0 3.5,3.25 Z M11.75,2.5 A0.75 0.75 0 1 0 11.75,4 A0.75 0.75 0 0 0 11.75,2.5 Z M4.25,12 A0.75 0.75 0 1 0 4.25,13.5 A0.75 0.75 0 0 0 4.25,12 Z"/>
</svg>
