<svg xmlns="http://www.w3.org/2000/svg" width="16" height="16" viewBox="0 0 16 16">
  <defs/>
  <path d="M3.75,4.5 A1.25 1.25 0 1 0 3.75,2 A1.25 1.25 0 0 0 3.75,4.5 Z M3,7.75 A0.75 0.75 0 0 1 4.5,7.75 L4.5,10.628 A2.251 2.251 0 1 1 3,10.628 Z M3.75,13.5 A0.75 0.75 0 1 0 3.75,12 A0.75 0.75 0 0 0 3.75,13.5 Z M8.75,5.75 A1.25 1.25 0 1 1 6.25,5.75 A1.25 1.25 0 0 1 8.75,5.75 Z M14.5,8.25 A2.25 2.25 0 1 1 10,8.25 A2.25 2.25 0 0 1 14.5,8.25 Z M13,8.25 A0.75 0.75 0 1 0 11.5,8.25 A0.75 0.75 0 0 0 13,8.25 Z"/>
</svg>
