<svg xmlns="http://www.w3.org/2000/svg" width="16" height="16" viewBox="0 0 16 16">
  <defs/>
  <path d="M1.5,3.25 A2.25 2.25 0 1 1 4.5,5.372 L4.5,10.628 A2.251 2.251 0 1 1 3,10.628 L3,5.372 A2.25 2.25 0 0 1 1.5,3.25 Z M7.177,3.073 L9.573,0.677 A0.25 0.25 0 0 1 10,0.854 L10,2.5 L11,2.5 A2.5 2.5 0 0 1 13.5,5 L13.5,10.628 A2.251 2.251 0 1 1 12,10.628 L12,5 A1 1 0 0 0 11,4 L10,4 L10,5.646 A0.25 0.25 0 0 1 9.573,5.823 L7.177,3.427 A0.25 0.25 0 0 1 7.177,3.073 Z M3.75,2.5 A0.75 0.75 0 1 0 3.75,4 A0.75 0.75 0 0 0 3.75,2.5 Z M3.75,12 A0.75 0.75 0 1 0 3.75,13.5 A0.75 0.75 0 0 0 3.75,12 Z M12,12.75 A0.75 0.75 0 1 0 13.5,12.75 A0.75 0.75 0 0 0 12,12.75 Z"/>
</svg>
