<svg xmlns="http://www.w3.org/2000/svg" width="24" height="24" viewBox="0 0 24 24">
  <defs/>
  <path d="M22.266,2.711 A0.75 0.75 0 1 0 21.205,1.651 L19.222,3.634 L17.238,1.651 A0.75 0.75 0 1 0 16.178,2.711 L18.161,4.694 L16.178,6.678 A0.75 0.75 0 0 0 17.238,7.738 L19.222,5.755 L21.205,7.738 A0.75 0.75 0 0 0 22.265,6.678 L20.282,4.694 L22.266,2.711 Z M4.75,1.5 A3.25 3.25 0 0 1 5.495,7.914 A0.827 0.827 0 0 1 5.5,8 L5.5,16 A0.827 0.827 0 0 1 5.495,16.086 A3.25 3.25 0 0 1 4.75,22.5 A3.25 3.25 0 0 1 4.005,16.086 A0.827 0.827 0 0 1 4,16 L4,8 C4,7.971 4.002,7.943 4.005,7.914 A3.25 3.25 0 0 1 4.75,1.5 Z M16,19.25 A3.252 3.252 0 0 1 18.5,16.087 L18.5,9.625 A0.75 0.75 0 0 1 20,9.625 L20,16.087 A3.252 3.252 0 0 1 19.25,22.5 A3.25 3.25 0 0 1 16,19.25 Z M3,4.75 A1.75 1.75 0 1 0 6.501,4.749 A1.75 1.75 0 0 0 3,4.75 Z M3,19.25 A1.75 1.75 0 1 0 6.501,19.249 A1.75 1.75 0 0 0 3,19.25 Z M19.25,17.5 A1.75 1.75 0 1 0 19.251,21.001 A1.75 1.75 0 0 0 19.25,17.5 Z"/>
</svg>
