<svg xmlns="http://www.w3.org/2000/svg" width="24" height="24" viewBox="0 0 24 24">
  <defs/>
  <path d="M16.5,19.25 A3.25 3.25 0 1 1 23,19.25 A3.25 3.25 0 0 1 16.5,19.25 Z M19.75,17.5 A1.75 1.75 0 1 0 19.751,21.001 A1.75 1.75 0 0 0 19.75,17.5 Z"/>
  <path d="M13.905,1.72 A0.75 0.75 0 0 1 13.905,2.78 L12.685,4 L16.75,4 A3.75 3.75 0 0 1 20.5,7.75 L20.5,16.5 A0.75 0.75 0 0 1 19,16.5 L19,7.75 A2.25 2.25 0 0 0 16.75,5.5 L12.686,5.5 L13.906,6.72 A0.75 0.75 0 0 1 12.845,7.78 L10.345,5.28 A0.75 0.75 0 0 1 10.345,4.22 L12.845,1.72 A0.75 0.75 0 0 1 13.905,1.72 Z M7.5,4.75 A3.25 3.25 0 1 1 1,4.75 A3.25 3.25 0 0 1 7.5,4.75 Z M4.25,6.5 A1.75 1.75 0 1 0 4.249,2.999 A1.75 1.75 0 0 0 4.25,6.5 Z"/>
  <path d="M10.095,22.28 A0.75 0.75 0 0 1 10.095,21.22 L11.315,20 L7.25,20 A3.75 3.75 0 0 1 3.5,16.25 L3.5,7.5 A0.75 0.75 0 0 1 5,7.5 L5,16.25 A2.25 2.25 0 0 0 7.25,18.5 L11.314,18.5 L10.094,17.28 A0.748 0.748 0 0 1 10.426,16.015 A0.75 0.75 0 0 1 11.155,16.22 L13.655,18.72 A0.75 0.75 0 0 1 13.655,19.78 L11.155,22.28 A0.75 0.75 0 0 1 10.095,22.28 Z"/>
</svg>
