<svg xmlns="http://www.w3.org/2000/svg" width="16" height="16" viewBox="0 0 16 16">
  <defs/>
  <path d="M8,0 A8 8 0 1 1 8,16 A8 8 0 0 1 8,0 Z M5.78,8.75 A9.64 9.64 0 0 0 7.143,12.927 C7.398,13.353 7.685,13.759 8,14.142 C8.245,13.846 8.551,13.437 8.857,12.927 A9.64 9.64 0 0 0 10.22,8.75 Z M10.22,7.25 A9.64 9.64 0 0 0 8.857,3.073 C8.55,2.563 8.245,2.154 8,1.858 A9.927 9.927 0 0 0 7.143,3.073 A9.64 9.64 0 0 0 5.78,7.25 Z M4.276,8.75 L1.543,8.75 A6.507 6.507 0 0 0 6.209,14.25 C6.086,14.069 5.969,13.885 5.857,13.698 C5.142,12.506 4.42,10.824 4.276,8.75 Z M1.543,7.25 L4.276,7.25 C4.42,5.176 5.142,3.494 5.856,2.302 C5.976,2.105 6.093,1.921 6.209,1.75 A6.507 6.507 0 0 0 1.543,7.25 Z M11.724,8.75 C11.58,10.824 10.858,12.506 10.144,13.698 C10.024,13.895 9.907,14.079 9.791,14.25 A6.507 6.507 0 0 0 14.457,8.75 Z M14.457,7.25 A6.507 6.507 0 0 0 9.791,1.75 C9.914,1.931 10.031,2.115 10.144,2.302 C10.858,3.494 11.58,5.176 11.724,7.25 Z"/>
</svg>
