<svg xmlns="http://www.w3.org/2000/svg" width="24" height="24" viewBox="0 0 24 24">
  <defs/>
  <path d="M20.172,6.75 L18.311,6.75 L13.745,11.314 A1.874 1.874 0 1 1 12.685,10.254 L17.25,5.689 L17.25,3.828 A0.94 0.94 0 0 1 17.525,3.164 L19.255,1.434 A0.249 0.249 0 0 1 19.505,1.371 C19.594,1.397 19.66,1.471 19.678,1.562 L20.138,3.863 L22.438,4.323 C22.528,4.341 22.602,4.407 22.628,4.496 A0.25 0.25 0 0 1 22.566,4.745 L20.835,6.475 A0.937 0.937 0 0 1 20.172,6.75 Z"/>
  <path d="M2.625,12 A9.375 9.375 0 0 0 12,21.375 A9.375 9.375 0 0 0 21.375,12 C21.375,11.102 21.249,10.234 21.014,9.413 A0.75 0.75 0 0 1 22.455,9 C22.729,9.954 22.875,10.96 22.875,12 C22.875,18.006 18.006,22.875 12,22.875 C5.994,22.875 1.125,18.006 1.125,12 C1.125,5.994 5.994,1.125 12,1.125 C13.015,1.124 14.024,1.265 15,1.544 A0.75 0.75 0 1 1 14.587,2.986 A9.39 9.39 0 0 0 12,2.625 A9.375 9.375 0 0 0 2.625,12 Z"/>
  <path d="M7.125,12 A4.874 4.874 0 1 0 16.842,11.431 A0.748 0.748 0 0 1 17.889,10.633 C18.14,10.745 18.309,10.984 18.331,11.258 A6.373 6.373 0 0 1 7.495,16.511 A6.376 6.376 0 0 1 12.731,5.667 A0.75 0.75 0 1 1 12.561,7.157 A4.876 4.876 0 0 0 7.125,12 Z"/>
</svg>
