<svg xmlns="http://www.w3.org/2000/svg" width="16" height="16" viewBox="0 0 16 16">
  <defs/>
  <path d="M13.637,2.363 L13.636,2.363 L15.312,2.698 C15.402,2.716 15.476,2.782 15.502,2.871 A0.25 0.25 0 0 1 15.44,3.12 L14.067,4.494 A0.876 0.876 0 0 1 13.448,4.75 L12.31,4.75 L9.45,7.611 A1.5 1.5 0 1 1 6.5,8 A1.501 1.501 0 0 1 8.389,6.551 L11.25,3.689 L11.25,2.552 C11.25,2.32 11.342,2.097 11.506,1.933 L12.88,0.559 A0.25 0.25 0 0 1 13.129,0.497 C13.218,0.523 13.284,0.597 13.302,0.687 Z"/>
  <path d="M2,8 A6 6 0 1 0 13.769,6.344 A0.751 0.751 0 1 1 15.211,5.931 A7.502 7.502 0 0 1 2.698,13.302 A7.501 7.501 0 0 1 10.069,0.789 A0.75 0.75 0 0 1 9.656,2.231 A6.001 6.001 0 0 0 2,8 Z"/>
  <path d="M5,8 A3.002 3.002 0 0 0 9.699,10.476 A3 3 0 0 0 10.979,7.649 A0.748 0.748 0 0 1 12.024,6.867 A0.75 0.75 0 0 1 12.469,7.477 A4.5 4.5 0 1 1 8.516,3.53 A0.75 0.75 0 1 1 8.346,5.02 A3 3 0 0 0 5,8 Z"/>
</svg>
