<svg xmlns="http://www.w3.org/2000/svg" width="24" height="24" viewBox="0 0 24 24">
  <defs/>
  <path d="M9.618,1.76 A0.75 0.75 0 0 1 10.241,2.619 L9.46,7.5 L15.94,7.5 L16.76,2.382 A0.75 0.75 0 0 1 18.24,2.619 L17.46,7.5 L21.25,7.5 A0.75 0.75 0 0 1 21.25,9 L17.22,9 L16.26,15 L20.25,15 A0.75 0.75 0 0 1 20.25,16.5 L16.02,16.5 L15.24,21.369 A0.75 0.75 0 0 1 13.76,21.132 L14.5,16.5 L8.02,16.5 L7.24,21.369 A0.75 0.75 0 0 1 5.76,21.132 L6.5,16.5 L2.745,16.5 A0.75 0.75 0 0 1 2.745,15 L6.74,15 L7.7,9 L3.75,9 A0.75 0.75 0 0 1 3.75,7.5 L7.94,7.5 L8.76,2.382 A0.75 0.75 0 0 1 9.618,1.76 Z M14.741,15 L15.701,9 L9.22,9 L8.26,15 Z"/>
</svg>
