<svg xmlns="http://www.w3.org/2000/svg" width="16" height="16" viewBox="0 0 16 16">
  <defs/>
  <path d="M6.368,1.01 A0.75 0.75 0 0 1 6.991,1.869 L6.57,4.5 L10.55,4.5 L11.01,1.632 A0.75 0.75 0 0 1 12.49,1.869 L12.07,4.5 L14.25,4.5 A0.75 0.75 0 0 1 14.25,6 L11.83,6 L11.19,10 L13.75,10 A0.75 0.75 0 0 1 13.75,11.5 L10.95,11.5 L10.49,14.369 A0.75 0.75 0 0 1 9.01,14.132 L9.43,11.5 L5.45,11.5 L4.99,14.369 A0.75 0.75 0 0 1 3.51,14.132 L3.93,11.5 L1.75,11.5 A0.75 0.75 0 0 1 1.75,10 L4.17,10 L4.81,6 L2.25,6 A0.75 0.75 0 0 1 2.25,4.5 L5.05,4.5 L5.51,1.632 A0.75 0.75 0 0 1 6.368,1.01 Z M9.67,10 L10.31,6 L6.33,6 L5.69,10 Z"/>
</svg>
