<svg xmlns="http://www.w3.org/2000/svg" width="16" height="16" viewBox="0 0 16 16">
  <defs/>
  <path d="M7.655,14.916 L7.655,14.915 L7.653,14.915 L7.647,14.912 L7.629,14.902 A22.066 22.066 0 0 1 3.885,12.318 C2.045,10.731 0,8.35 0,5.5 C0,2.836 2.086,1 4.25,1 C5.797,1 7.153,1.802 8,3.02 C8.847,1.802 10.203,1 11.75,1 C13.914,1 16,2.836 16,5.5 C16,8.35 13.956,10.731 12.114,12.318 A22.094 22.094 0 0 1 8.681,14.732 A7.152 7.152 0 0 1 8.371,14.902 L8.353,14.912 L8.345,14.916 A0.75 0.75 0 0 1 7.655,14.916 Z"/>
</svg>
