<svg xmlns="http://www.w3.org/2000/svg" width="24" height="24" viewBox="0 0 24 24">
  <defs/>
  <path d="M12,20.703 L12.343,21.37 A0.748 0.748 0 0 1 11.657,21.37 L11.654,21.368 L11.647,21.365 L11.622,21.352 A31.138 31.138 0 0 1 6.389,17.776 C3.8,15.573 1,12.332 1,8.514 L1,8.513 C1,5.053 3.829,2.5 6.736,2.5 C9.03,2.5 10.881,3.726 12,5.605 C13.12,3.726 14.97,2.5 17.264,2.5 C20.17,2.5 23,5.052 23,8.514 C23,12.332 20.199,15.574 17.611,17.776 A31.148 31.148 0 0 1 12.378,21.352 L12.353,21.365 L12.346,21.368 L12.344,21.369 Z M6.736,4 C4.657,4 2.5,5.88 2.5,8.514 C2.5,11.621 4.824,14.474 7.361,16.634 A29.655 29.655 0 0 0 11.927,19.809 L12,19.85 L12.073,19.81 C12.344,19.657 12.734,19.43 13.203,19.136 C14.143,18.548 15.393,17.695 16.639,16.634 C19.176,14.474 21.5,11.621 21.5,8.514 C21.5,5.88 19.343,4 17.264,4 C15.158,4 13.463,5.389 12.711,7.643 A0.751 0.751 0 0 1 11.289,7.643 C10.537,5.389 8.841,4 6.736,4 Z"/>
</svg>
