<svg xmlns="http://www.w3.org/2000/svg" width="16" height="16" viewBox="0 0 16 16">
  <defs/>
  <path d="M8,14.25 L8.345,14.916 A0.75 0.75 0 0 1 7.655,14.916 L7.647,14.912 L7.629,14.902 A7.152 7.152 0 0 1 7.319,14.732 A22.055 22.055 0 0 1 3.885,12.318 C2.045,10.731 0,8.35 0,5.5 C0,2.836 2.086,1 4.25,1 C5.797,1 7.153,1.802 8,3.02 C8.847,1.802 10.203,1 11.75,1 C13.914,1 16,2.836 16,5.5 C16,8.35 13.955,10.731 12.115,12.318 A22.066 22.066 0 0 1 8.371,14.902 L8.353,14.912 L8.347,14.915 L8.345,14.915 Z M4.25,2.5 C2.914,2.5 1.5,3.664 1.5,5.5 C1.5,7.65 3.08,9.644 4.865,11.182 A20.58 20.58 0 0 0 8,13.393 A20.58 20.58 0 0 0 11.135,11.182 C12.92,9.644 14.5,7.65 14.5,5.5 C14.5,3.664 13.086,2.5 11.75,2.5 C10.377,2.5 9.141,3.486 8.721,4.956 A0.749 0.749 0 0 1 7.279,4.956 C6.859,3.486 5.623,2.5 4.25,2.5 Z"/>
</svg>
