<svg xmlns="http://www.w3.org/2000/svg" width="24" height="24" viewBox="0 0 24 24">
  <defs/>
  <path d="M14,20.408 C13.508,20.716 13.097,20.954 12.808,21.117 C12.655,21.203 12.5,21.287 12.345,21.369 L12.343,21.369 A0.75 0.75 0 0 1 11.657,21.369 A16.709 16.709 0 0 1 11.192,21.117 A31.147 31.147 0 0 1 6.389,17.777 C3.8,15.572 1,12.331 1,8.513 C1,5.052 3.829,2.5 6.736,2.5 C9.03,2.5 10.881,3.726 12,5.605 C13.12,3.726 14.97,2.5 17.264,2.5 C20.17,2.5 23,5.052 23,8.514 C23,12.332 20.199,15.574 17.611,17.776 A31.146 31.146 0 0 1 14,20.408 Z"/>
</svg>
