<svg xmlns="http://www.w3.org/2000/svg" width="16" height="16" viewBox="0 0 16 16">
  <defs/>
  <path d="M0.4269999861717224,1.9270000457763672 L1.6419999599456787,3.1419999599456787 C3.149867534637451,1.167956829071045 5.427341461181641,0.06683007627725601 7.777602195739746,0 L8.232379913330078,0 C9.36681842803955,0.03227658569812775 10.50772476196289,0.3066135346889496 11.577380180358887,0.8410101532936096 C14.263334274291992,2.1829047203063965 15.90789794921875,4.868741035461426 16,7.743443489074707 L16,8.253525733947754 C15.979616165161133,8.889687538146973 15.882705688476562,9.531689643859863 15.703831672668457,10.16724967956543 C14.74111270904541,13.587909698486328 11.655360221862793,15.929463386535645 8.168231010437012,16 L7.843952178955078,16 C7.669693946838379,15.996479988098145 7.494577407836914,15.987272262573242 7.318813323974609,15.972230911254883 C3.4930572509765625,15.644845008850098 0.4391360580921173,12.646145820617676 0.041999999433755875,8.82699966430664 C-0.000525925715919584,8.414719581604004 0.29921942949295044,8.046026229858398 0.7114999890327454,8.003499984741211 C1.123780608177185,7.960974216461182 1.49247407913208,8.260719299316406 1.534999966621399,8.67300033569336 C1.8603342771530151,11.793869018554688 4.368706226348877,14.236817359924316 7.497081756591797,14.479578018188477 C10.625456809997559,14.722339630126953 13.480674743652344,12.695603370666504 14.28357219696045,9.662284851074219 C15.086469650268555,6.628966808319092 13.607815742492676,3.4550869464874268 10.769001007080078,2.1183762550354004 C7.930186748504639,0.7816656827926636 4.54170036315918,1.6637591123580933 2.7149999141693115,4.215000152587891 L4.072999954223633,5.572999954223633 C4.144688606262207,5.644506931304932 4.166164875030518,5.752194881439209 4.127392292022705,5.845731735229492 C4.088619232177734,5.939268589019775 3.9972543716430664,6.000181198120117 3.8959999084472656,6 L0.25,6 C0.11192881315946579,6 0,5.888071060180664 0,5.75 L0,2.1030991077423096 C0.00018054117390420288,2.002203941345215 0.06100893020629883,1.9112657308578491 0.15426835417747498,1.8726078271865845 C0.24780528247356415,1.8338348865509033 0.35549288988113403,1.855311632156372 0.4269999861717224,1.9270000457763672 Z M7.75,4 C8.164213180541992,4 8.5,4.33578634262085 8.5,4.75 L8.5,7.742000102996826 L10.527999877929688,8.553999900817871 C10.899550437927246,8.715970039367676 11.075194358825684,9.143832206726074 10.924615859985352,9.520143508911133 C10.77403736114502,9.896454811096191 10.351722717285156,10.085047721862793 9.970999717712402,9.946000099182129 L7.4710001945495605,8.946000099182129 C7.186738014221191,8.831781387329102 7.000347137451172,8.556350708007812 7,8.25 L7,4.75 C7,4.33578634262085 7.33578634262085,4 7.75,4 Z"/>
</svg>
