<svg xmlns="http://www.w3.org/2000/svg" width="16" height="16" viewBox="0 0 16 16">
  <defs/>
  <path d="M6.906,0.664 A1.749 1.749 0 0 1 9.093,0.664 L14.343,4.864 C14.758,5.196 15,5.699 15,6.231 L15,13.25 A1.75 1.75 0 0 1 13.25,15 L9.75,15 A0.75 0.75 0 0 1 9,14.25 L9,9 L7,9 L7,14.25 A0.75 0.75 0 0 1 6.25,15 L2.75,15 A1.75 1.75 0 0 1 1,13.25 L1,6.23 C1,5.699 1.242,5.196 1.657,4.864 L6.907,0.664 Z M8.156,1.835 A0.25 0.25 0 0 0 7.844,1.835 L2.594,6.035 A0.25 0.25 0 0 0 2.5,6.231 L2.5,13.25 C2.5,13.388 2.612,13.5 2.75,13.5 L5.5,13.5 L5.5,8.25 A0.75 0.75 0 0 1 6.25,7.5 L9.75,7.5 A0.75 0.75 0 0 1 10.5,8.25 L10.5,13.5 L13.25,13.5 A0.25 0.25 0 0 0 13.5,13.25 L13.5,6.23 A0.25 0.25 0 0 0 13.406,6.035 Z"/>
</svg>
