<svg xmlns="http://www.w3.org/2000/svg" width="24" height="24" viewBox="0 0 24 24">
  <defs/>
  <path d="M11.03,2.59 A1.501 1.501 0 0 1 12.97,2.59 L20.47,8.953 A1.5 1.5 0 0 1 21,10.097 L21,19.5 A1.5 1.5 0 0 1 19.5,21 L13.75,21 A0.75 0.75 0 0 1 13,20.25 L13,14 L11,14 L11,20.25 A0.75 0.75 0 0 1 10.25,21 L4.5,21 A1.5 1.5 0 0 1 3,19.5 L3,10.097 C3,9.657 3.194,9.238 3.53,8.953 Z M12,3.734 L4.5,10.097 L4.5,19.5 L9.5,19.5 L9.5,13.25 A0.75 0.75 0 0 1 10.25,12.5 L13.75,12.5 A0.75 0.75 0 0 1 14.5,13.25 L14.5,19.5 L19.5,19.5 L19.5,10.097 Z"/>
</svg>
