<svg xmlns="http://www.w3.org/2000/svg" width="24" height="24" viewBox="0 0 24 24">
  <defs/>
  <path d="M4.75,2 L19.25,2 A0.75 0.75 0 0 1 19.25,3.5 L18.5,3.5 L18.5,6.482 A4.75 4.75 0 0 1 16.285,10.499 L14.241,11.789 A0.25 0.25 0 0 0 14.241,12.211 L16.285,13.501 A4.75 4.75 0 0 1 18.5,17.518 L18.5,20.5 L19.25,20.5 A0.75 0.75 0 0 1 19.25,22 L4.75,22 A0.75 0.75 0 0 1 4.75,20.5 L5.5,20.5 L5.5,17.518 A4.75 4.75 0 0 1 7.715,13.501 L9.759,12.211 A0.25 0.25 0 0 0 9.759,11.789 L7.715,10.499 A4.75 4.75 0 0 1 5.5,6.482 L5.5,3.5 L4.75,3.5 A0.75 0.75 0 0 1 4.75,2 Z M17,3.5 L7,3.5 L7,6.482 A3.25 3.25 0 0 0 8.516,9.23 L10.56,10.52 A1.75 1.75 0 0 1 10.56,13.48 L8.516,14.77 A3.25 3.25 0 0 0 7,17.518 L7,20.5 L17,20.5 L17,17.518 A3.25 3.25 0 0 0 15.484,14.77 L13.44,13.48 A1.75 1.75 0 0 1 13.44,10.52 L15.484,9.23 A3.25 3.25 0 0 0 17,6.482 Z"/>
</svg>
