<svg xmlns="http://www.w3.org/2000/svg" width="16" height="16" viewBox="0 0 16 16">
  <defs/>
  <path d="M2.75,1 L13.25,1 A0.75 0.75 0 0 1 13.25,2.5 L12.5,2.5 L12.5,3.75 A4.75 4.75 0 0 1 10.6,7.55 L10.267,7.8 A0.25 0.25 0 0 0 10.267,8.2 L10.6,8.45 A4.75 4.75 0 0 1 12.5,12.25 L12.5,13.5 L13.25,13.5 A0.75 0.75 0 0 1 13.25,15 L2.75,15 A0.75 0.75 0 0 1 2.75,13.5 L3.5,13.5 L3.5,12.25 A4.75 4.75 0 0 1 5.4,8.45 L5.733,8.2 A0.25 0.25 0 0 0 5.733,7.8 L5.4,7.55 A4.75 4.75 0 0 1 3.5,3.75 L3.5,2.5 L2.75,2.5 A0.75 0.75 0 0 1 2.75,1 Z M11,2.5 L5,2.5 L5,3.75 C5,4.773 5.482,5.736 6.3,6.35 L6.633,6.6 C7.567,7.3 7.567,8.7 6.633,9.4 L6.3,9.65 A3.251 3.251 0 0 0 5,12.25 L5,13.5 L11,13.5 L11,12.25 A3.251 3.251 0 0 0 9.7,9.65 L9.367,9.4 A1.748 1.748 0 0 1 9.367,6.6 L9.7,6.35 A3.251 3.251 0 0 0 11,3.75 Z"/>
</svg>
