<svg xmlns="http://www.w3.org/2000/svg" width="16" height="16" viewBox="0 0 16 16">
  <defs/>
  <path d="M0,8 A8 8 0 0 1 16,8 L16,13.25 A0.75 0.75 0 0 1 14.5,13.25 L14.5,8 A6.5 6.5 0 1 0 1.5,8 L1.5,13.25 A0.75 0.75 0 0 1 0,13.25 Z M3,6.75 C3,5.784 3.784,5 4.75,5 L11.25,5 C12.216,5 13,5.784 13,6.75 L13,8.25 A1.75 1.75 0 0 1 11.25,10 L4.75,10 A1.75 1.75 0 0 1 3,8.25 Z M4.47,6.22 A0.75 0.75 0 0 0 4.47,7.28 L5.97,8.78 A0.75 0.75 0 0 0 7.03,8.78 L8,7.81 L8.97,8.78 A0.75 0.75 0 0 0 10.03,8.78 L11.53,7.28 A0.749 0.749 0 0 0 11.204,6.005 A0.749 0.749 0 0 0 10.47,6.22 L9.5,7.19 L8.53,6.22 A0.75 0.75 0 0 0 7.47,6.22 L6.5,7.19 L5.53,6.22 A0.75 0.75 0 0 0 4.47,6.22 Z M5.5,12.25 A0.75 0.75 0 0 1 6.25,11.5 L9.75,11.5 A0.75 0.75 0 0 1 9.75,13 L6.25,13 A0.75 0.75 0 0 1 5.5,12.25 Z"/>
</svg>
