<svg xmlns="http://www.w3.org/2000/svg" width="24" height="24" viewBox="0 0 24 24">
  <defs/>
  <path d="M0,13 C0,6.373 5.373,1 12,1 C18.627,1 24,6.373 24,13 L24,21.657 A0.75 0.75 0 0 1 22.5,21.657 L22.5,13 C22.5,7.201 17.799,2.5 12,2.5 C6.201,2.5 1.5,7.201 1.5,13 L1.5,21.657 A0.75 0.75 0 0 1 0,21.657 L0,13 Z"/>
  <path d="M8,19.75 A0.75 0.75 0 0 1 8.75,19 L15.25,19 A0.75 0.75 0 0 1 15.25,20.5 L8.75,20.5 A0.75 0.75 0 0 1 8,19.75 Z M5.25,9.5 L18.75,9.5 C19.716,9.5 20.5,10.284 20.5,11.25 L20.5,14.75 A1.75 1.75 0 0 1 18.75,16.5 L5.25,16.5 A1.75 1.75 0 0 1 3.5,14.75 L3.5,11.25 C3.5,10.284 4.284,9.5 5.25,9.5 Z M5.47,10.97 A0.75 0.75 0 0 0 5.47,12.03 L8.47,15.03 A0.75 0.75 0 0 0 9.53,15.03 L12,12.56 L14.47,15.03 A0.75 0.75 0 0 0 15.53,15.03 L18.53,12.03 A0.749 0.749 0 0 0 18.204,10.755 A0.749 0.749 0 0 0 17.47,10.97 L15,13.44 L12.53,10.97 A0.75 0.75 0 0 0 11.47,10.97 L9,13.44 L6.53,10.97 A0.75 0.75 0 0 0 5.47,10.97 Z"/>
</svg>
