<svg xmlns="http://www.w3.org/2000/svg" width="24" height="24" viewBox="0 0 24 24">
  <defs/>
  <path d="M4.75,3 L19.25,3 C20.216,3 21,3.784 21,4.75 L21,19.25 A1.75 1.75 0 0 1 19.25,21 L4.75,21 A1.75 1.75 0 0 1 3,19.25 L3,4.75 C3,3.784 3.784,3 4.75,3 Z M19.25,4.5 L4.75,4.5 A0.25 0.25 0 0 0 4.5,4.75 L4.5,19.25 C4.5,19.388 4.612,19.5 4.75,19.5 L4.94,19.5 L14.763,9.677 A1.75 1.75 0 0 1 17.238,9.677 L19.5,11.939 L19.5,4.75 A0.25 0.25 0 0 0 19.25,4.5 Z M19.5,14.06 L16.177,10.737 A0.25 0.25 0 0 0 15.823,10.737 L7.061,19.5 L19.25,19.5 A0.25 0.25 0 0 0 19.5,19.25 Z M8.5,11 A2.5 2.5 0 1 1 8.5,6 A2.5 2.5 0 0 1 8.5,11 Z M8.5,9.5 A1 1 0 1 0 8.5,7.5 A1 1 0 0 0 8.5,9.5 Z"/>
</svg>
