<svg xmlns="http://www.w3.org/2000/svg" width="16" height="16" viewBox="0 0 16 16">
  <defs/>
  <path d="M16,13.25 A1.75 1.75 0 0 1 14.25,15 L1.75,15 A1.75 1.75 0 0 1 0,13.25 L0,2.75 C0,1.784 0.784,1 1.75,1 L14.25,1 C15.216,1 16,1.784 16,2.75 Z M1.75,2.5 A0.25 0.25 0 0 0 1.5,2.75 L1.5,13.25 C1.5,13.388 1.612,13.5 1.75,13.5 L2.69,13.5 L2.72,13.47 L8.797,7.392 A1.75 1.75 0 0 1 11.209,7.332 L14.5,10.31 L14.5,2.75 A0.25 0.25 0 0 0 14.25,2.5 Z M14.25,13.5 A0.25 0.25 0 0 0 14.5,13.25 L14.5,12.333 L10.202,8.444 A0.25 0.25 0 0 0 9.858,8.453 L4.81,13.5 Z M7,6 A2 2 0 1 1 3.001,6.001 A2 2 0 0 1 7,6 Z M5.5,6 A0.5 0.5 0 1 0 4.5,6 A0.5 0.5 0 0 0 5.5,6 Z"/>
</svg>
