<svg xmlns="http://www.w3.org/2000/svg" width="16" height="16" viewBox="0 0 16 16">
  <defs/>
  <path d="M2.8,2.06 A1.75 1.75 0 0 1 4.41,1 L11.59,1 C12.29,1 12.923,1.417 13.2,2.06 L15.94,8.455 C15.98,8.548 16,8.649 16,8.75 L16,13.25 A1.75 1.75 0 0 1 14.25,15 L1.75,15 A1.75 1.75 0 0 1 0,13.25 L0,8.75 C0,8.649 0.02,8.548 0.06,8.455 Z M4.41,2.5 A0.25 0.25 0 0 0 4.18,2.652 L1.887,8 L4.75,8 A0.75 0.75 0 0 1 5.35,8.3 L6.625,10 L9.375,10 L10.65,8.3 A0.75 0.75 0 0 1 11.25,8 L14.113,8 L11.82,2.652 A0.25 0.25 0 0 0 11.59,2.5 Z M14.5,9.5 L11.625,9.5 L10.35,11.2 A0.75 0.75 0 0 1 9.75,11.5 L6.25,11.5 A0.75 0.75 0 0 1 5.65,11.2 L4.375,9.5 L1.5,9.5 L1.5,13.25 C1.5,13.388 1.612,13.5 1.75,13.5 L14.25,13.5 A0.25 0.25 0 0 0 14.5,13.25 Z"/>
</svg>
