<svg xmlns="http://www.w3.org/2000/svg" width="24" height="24" viewBox="0 0 24 24">
  <defs/>
  <path d="M17.32,3.205 A0.75 0.75 0 0 1 18.366,3.028 A11.056 11.056 0 0 1 20.971,5.634 A0.75 0.75 0 1 1 19.749,6.503 A9.554 9.554 0 0 0 17.497,4.251 A0.75 0.75 0 0 1 17.32,3.205 Z M20.795,17.32 A0.75 0.75 0 0 1 20.971,18.366 A11.07 11.07 0 0 1 18.366,20.971 A0.75 0.75 0 1 1 17.497,19.749 A9.554 9.554 0 0 0 19.749,17.497 A0.75 0.75 0 0 1 20.795,17.32 Z M2.018,9.543 A0.75 0.75 0 0 1 2.633,10.407 A9.571 9.571 0 0 0 2.633,13.593 A0.75 0.75 0 1 1 1.153,13.843 A11.07 11.07 0 0 1 1.153,10.157 A0.75 0.75 0 0 1 2.018,9.543 Z M9.543,21.982 A0.75 0.75 0 0 1 10.407,21.367 A9.571 9.571 0 0 0 13.593,21.367 A0.75 0.75 0 1 1 13.843,22.847 A11.07 11.07 0 0 1 10.157,22.847 A0.75 0.75 0 0 1 9.543,21.982 Z M6.68,3.205 A0.75 0.75 0 0 1 6.503,4.251 A9.558 9.558 0 0 0 4.25,6.503 A0.75 0.75 0 1 1 3.027,5.633 A11.056 11.056 0 0 1 5.633,3.028 A0.75 0.75 0 0 1 6.679,3.205 Z M3.205,17.32 A0.75 0.75 0 0 1 4.251,17.497 A9.554 9.554 0 0 0 6.503,19.749 A0.75 0.75 0 1 1 5.633,20.972 A11.056 11.056 0 0 1 3.028,18.366 A0.75 0.75 0 0 1 3.205,17.32 Z M10.157,1.154 A11.07 11.07 0 0 1 13.843,1.154 A0.75 0.75 0 0 1 13.593,2.633 A9.571 9.571 0 0 0 10.407,2.633 A0.75 0.75 0 1 1 10.157,1.153 Z M21.982,9.543 A0.75 0.75 0 0 1 22.846,10.157 A11.07 11.07 0 0 1 22.846,13.843 A0.75 0.75 0 0 1 21.367,13.593 A9.571 9.571 0 0 0 21.367,10.407 A0.75 0.75 0 0 1 21.982,9.543 Z"/>
</svg>
