<svg xmlns="http://www.w3.org/2000/svg" width="16" height="16" viewBox="0 0 16 16">
  <defs/>
  <path d="M14.307000160217285,11.654999732971191 C14.642050743103027,11.898778915405273 14.715936660766602,12.368063926696777 14.472000122070312,12.70300006866455 C13.978203773498535,13.381606101989746 13.381326675415039,13.97882080078125 12.70300006866455,14.472999572753906 C12.36776351928711,14.71683406829834 11.898333549499512,14.642736434936523 11.654500007629395,14.307499885559082 C11.410666465759277,13.97226333618164 11.484763145446777,13.502833366394043 11.819999694824219,13.258999824523926 C12.372041702270508,12.857288360595703 12.857905387878418,12.3717622756958 13.260000228881836,11.819999694824219 C13.5037202835083,11.485581398010254 13.97224235534668,11.411745071411133 14.307000160217285,11.654999732971191 Z M11.654999732971191,1.6929999589920044 C11.898778915405273,1.3579493761062622 12.368063926696777,1.2840638160705566 12.70300006866455,1.527999997138977 C13.381606101989746,2.021796226501465 13.97882080078125,2.618673086166382 14.472999572753906,3.296999931335449 C14.71683406829834,3.632236957550049 14.642736434936523,4.101666450500488 14.307499885559082,4.3454999923706055 C13.97226333618164,4.589333534240723 13.502833366394043,4.515236854553223 13.258999824523926,4.179999828338623 C12.857288360595703,3.627958297729492 12.3717622756958,3.1420950889587402 11.819999694824219,2.740000009536743 C11.485581398010254,2.496279716491699 11.411745071411133,2.027757406234741 11.654999732971191,1.6929999589920044 Z M0.9549999833106995,6.125 C1.3638447523117065,6.189540863037109 1.6431137323379517,6.5730881690979 1.5789999961853027,6.98199987411499 C1.4730080366134644,7.656528472900391 1.4730080366134644,8.34347152709961 1.5789999961853027,9.017999649047852 C1.6433411836624146,9.42724323272705 1.3637430667877197,9.811159133911133 0.9545000195503235,9.875499725341797 C0.5452569723129272,9.939841270446777 0.16134116053581238,9.660243034362793 0.09700000286102295,9.25100040435791 C0.03667411580681801,8.86635684967041 0.004340781830251217,8.478440284729004 0,8.090288162231445 L0,7.909711837768555 C0.004340781830251217,7.521560192108154 0.03667411580681801,7.133643627166748 0.09700000286102295,6.749000072479248 C0.16152551770210266,6.339700698852539 0.5457318425178528,6.060277938842773 0.9549999833106995,6.125 Z M6.125,15.045000076293945 C6.189540863037109,14.636155128479004 6.5730881690979,14.35688591003418 6.98199987411499,14.420999526977539 C7.656528472900391,14.526991844177246 8.34347152709961,14.526991844177246 9.017999649047852,14.420999526977539 C9.42724323272705,14.356658935546875 9.811159133911133,14.63625717163086 9.875499725341797,15.045499801635742 C9.939841270446777,15.454743385314941 9.660243034362793,15.838659286499023 9.25100040435791,15.902999877929688 C8.866203308105469,15.963342666625977 8.478174209594727,15.995676040649414 8.089913368225098,16 L7.910086154937744,16 C7.521825790405273,15.995676040649414 7.1337971687316895,15.963342666625977 6.749000072479248,15.902999877929688 C6.339700698852539,15.83847427368164 6.060277938842773,15.454268455505371 6.125,15.045000076293945 Z M15.045000076293945,6.125 C15.454268455505371,6.060277938842773 15.83847427368164,6.339700698852539 15.902999877929688,6.749000072479248 C15.963342666625977,7.1337971687316895 15.995676040649414,7.521825790405273 16,7.910086154937744 L16,8.089913368225098 C15.995676040649414,8.478174209594727 15.963342666625977,8.866203308105469 15.902999877929688,9.25100040435791 C15.838659286499023,9.660243034362793 15.454743385314941,9.939841270446777 15.045499801635742,9.875499725341797 C14.63625717163086,9.811159133911133 14.356658935546875,9.42724323272705 14.420999526977539,9.017999649047852 C14.526991844177246,8.34347152709961 14.526991844177246,7.656528472900391 14.420999526977539,6.98199987411499 C14.35688591003418,6.5730881690979 14.636155128479004,6.189540863037109 15.045000076293945,6.125 Z M6.749000072479248,0.09700000286102295 C7.133643627166748,0.03667411580681801 7.521560192108154,0.004340781830251217 7.909711837768555,0 L8.090288162231445,0 C8.478440284729004,0.004340781830251217 8.86635684967041,0.03667411580681801 9.25100040435791,0.09700000286102295 C9.660243034362793,0.16134116053581238 9.939841270446777,0.5452569723129272 9.875499725341797,0.9545000195503235 C9.811159133911133,1.3637430667877197 9.42724323272705,1.6433411836624146 9.017999649047852,1.5789999961853027 C8.34347152709961,1.4730080366134644 7.656528472900391,1.4730080366134644 6.98199987411499,1.5789999961853027 C6.583797454833984,1.621787190437317 6.222081184387207,1.34457266330719 6.159879207611084,0.9489376544952393 C6.097677707672119,0.5533026456832886 6.356878757476807,0.1784674972295761 6.749000072479248,0.09700000286102295 Z M1.6929999589920044,11.654999732971191 C2.0279359817504883,11.411064147949219 2.4972212314605713,11.484949111938477 2.740999937057495,11.819999694824219 C3.142711639404297,12.372041702270508 3.62823748588562,12.857905387878418 4.179999828338623,13.260000228881836 C4.487829685211182,13.512421607971191 4.545210361480713,13.961191177368164 4.310796737670898,14.28294563293457 C4.076383113861084,14.604700088500977 3.6316277980804443,14.687639236450195 3.296999931335449,14.472000122070312 C2.618393898010254,13.978203773498535 2.021179676055908,13.381326675415039 1.5269999504089355,12.70300006866455 C1.2832757234573364,12.367803573608398 1.3576170206069946,11.898468017578125 1.6929999589920044,11.654999732971191 Z M4.34499979019165,1.6929999589920044 C4.588254451751709,2.027757406234741 4.514418601989746,2.496279716491699 4.179999828338623,2.740000009536743 C3.627924680709839,3.142064332962036 3.142064332962036,3.627924680709839 2.740000009536743,4.179999828338623 C2.4875781536102295,4.487829685211182 2.038809061050415,4.545210361480713 1.7170544862747192,4.310796737670898 C1.3952999114990234,4.076383113861084 1.3123611211776733,3.6316277980804443 1.527999997138977,3.296999931335449 C2.021796226501465,2.618393898010254 2.618673086166382,2.021179676055908 3.296999931335449,1.5269999504089355 C3.6321969032287598,1.2832757234573364 4.101531982421875,1.3576170206069946 4.34499979019165,1.6929999589920044 Z"/>
</svg>
