<svg xmlns="http://www.w3.org/2000/svg" width="16" height="16" viewBox="0 0 16 16">
  <defs/>
  <path d="M1.5,8 A6.5 6.5 0 0 1 14.5,8 A0.75 0.75 0 0 0 16,8 A8 8 0 1 0 8,16 A0.75 0.75 0 0 0 8,14.5 A6.5 6.5 0 0 1 1.5,8 Z"/>
  <path d="M8,9.5 A1.5 1.5 0 1 0 8,6.5 A1.5 1.5 0 0 0 8,9.5 Z M9.5,11.25 A0.75 0.75 0 0 1 10.25,10.5 L15.25,10.5 A0.75 0.75 0 0 1 15.25,12 L10.25,12 A0.75 0.75 0 0 1 9.5,11.25 Z M12.25,13.5 A0.75 0.75 0 0 0 12.25,15 L15.25,15 A0.75 0.75 0 0 0 15.25,13.5 L12.25,13.5 Z"/>
</svg>
