<svg xmlns="http://www.w3.org/2000/svg" width="16" height="16" viewBox="0 0 16 16">
  <defs/>
  <path d="M5.0289998054504395,2.2170000076293945 C4.10959005355835,2.689263343811035 3.316253900527954,3.3742616176605225 2.7149999141693115,4.215000152587891 L4.072999954223633,5.572999954223633 C4.144688606262207,5.644506931304932 4.166164875030518,5.752194881439209 4.127392292022705,5.845731735229492 C4.088619232177734,5.939268589019775 3.9972543716430664,6.000181198120117 3.8959999084472656,6 L0.25,6 C0.11192881315946579,6 0,5.888071060180664 0,5.75 L0,2.1030991077423096 C0.00018054117390420288,2.002203941345215 0.06100893020629883,1.9112657308578491 0.15426835417747498,1.8726078271865845 C0.24780528247356415,1.8338348865509033 0.35549288988113403,1.855311632156372 0.4269999861717224,1.9270000457763672 L1.6430000066757202,3.1429998874664307 C3.147801399230957,1.1727657318115234 5.4464287757873535,0.04763943701982498 7.842465877532959,0 L8.159781455993652,0 C8.829245567321777,0.013312540017068386 9.503887176513672,0.1110304668545723 10.168651580810547,0.2981768846511841 C13.324992179870605,1.186759114265442 15.6195068359375,3.9114835262298584 15.958000183105469,7.172999858856201 C15.988344192504883,7.441004276275635 15.872445106506348,7.704661846160889 15.654467582702637,7.863509178161621 C15.43648910522461,8.022356033325195 15.150004386901855,8.051926612854004 14.904175758361816,7.940951824188232 C14.658347129821777,7.829977989196777 14.49103832244873,7.595551490783691 14.465999603271484,7.327000141143799 C14.244454383850098,5.192049026489258 12.98322582244873,3.3041141033172607 11.095757484436035,2.282076835632324 C9.20828914642334,1.2600398063659668 6.937958240509033,1.2356864213943481 5.0289998054504395,2.2170000076293945 Z M1.2619999647140503,8.168999671936035 C1.4162298440933228,8.294881820678711 1.5140832662582397,8.47691822052002 1.534000039100647,8.675000190734863 C1.8145670890808105,11.360668182373047 3.726125717163086,13.59328556060791 6.3365349769592285,14.284152030944824 C8.946944236755371,14.975018501281738 11.71264934539795,13.980278015136719 13.28499984741211,11.78499984741211 L11.927000045776367,10.427000045776367 C11.855311393737793,10.35549259185791 11.833834648132324,10.24780559539795 11.872608184814453,10.154268264770508 C11.911380767822266,10.060731887817383 12.002745628356934,9.999818801879883 12.104000091552734,10 L15.75,10 C15.888071060180664,10 16,10.111928939819336 16,10.25 L16,13.89690113067627 C15.9998197555542,13.997796058654785 15.938990592956543,14.08873462677002 15.845731735229492,14.127391815185547 C15.75219440460205,14.166165351867676 15.64450740814209,14.144688606262207 15.572999954223633,14.072999954223633 L14.357000350952148,12.857000350952148 C12.366182327270508,15.461874961853027 8.987663269042969,16.588621139526367 5.831811904907227,15.700177192687988 C2.6759605407714844,14.81173324584961 0.38146722316741943,12.08790397644043 0.041999999433755875,8.82699966430664 C0.010954339057207108,8.52509593963623 0.16491833329200745,8.23423957824707 0.43203920125961304,8.090169906616211 C0.6991600394248962,7.946099758148193 1.0267785787582397,7.977217197418213 1.2619999647140503,8.168999671936035 Z"/>
  <path d="M9.06,9.06 A1.5 1.5 0 1 1 6.94,6.94 A1.5 1.5 0 0 1 9.06,9.06 Z"/>
</svg>
