<svg xmlns="http://www.w3.org/2000/svg" width="24" height="24" viewBox="0 0 24 24">
  <defs/>
  <path d="M2.5,10.5 C2.5,14.918277740478516 6.081721782684326,18.5 10.5,18.5 L21.440000534057617,18.5 L18.719999313354492,15.779999732971191 C18.44464111328125,15.484490394592285 18.45276641845703,15.023990631103516 18.738378524780273,14.738378524780273 C19.023990631103516,14.452766418457031 19.48448944091797,14.44464111328125 19.780000686645508,14.720000267028809 L23.514999389648438,18.454999923706055 C23.7347354888916,18.674236297607422 23.844736099243164,18.961557388305664 23.844999313354492,19.24896240234375 L23.844999313354492,19.25103759765625 C23.844736099243164,19.538442611694336 23.7347354888916,19.825763702392578 23.514999389648438,20.045000076293945 L19.780000686645508,23.780000686645508 C19.675657272338867,23.891979217529297 19.54184913635254,23.96718978881836 19.39777374267578,24 L19.0648136138916,24 C19.05843734741211,23.99854850769043 19.05207061767578,23.99700927734375 19.045711517333984,23.995386123657227 C18.779977798461914,23.927522659301758 18.572477340698242,23.720022201538086 18.504613876342773,23.454288482666016 C18.436750411987305,23.188554763793945 18.519346237182617,22.906970977783203 18.719999313354492,22.719999313354492 L21.440000534057617,20 L10.5,20 C5.253294944763184,20 1,15.746705055236816 1,10.5 C1,5.253294944763184 5.253294944763184,1 10.5,1 C15.746705055236816,1 20,5.253294944763184 20,10.5 C20,10.914213180541992 19.664213180541992,11.25 19.25,11.25 C18.835786819458008,11.25 18.5,10.914213180541992 18.5,10.5 C18.5,6.081721782684326 14.918277740478516,2.5 10.5,2.5 C6.081721782684326,2.5 2.5,6.081721782684326 2.5,10.5 Z"/>
</svg>
