<svg xmlns="http://www.w3.org/2000/svg" width="24" height="24" viewBox="0 0 24 24">
  <defs/>
  <path d="M16.75,8.5 A1.25 1.25 0 1 0 16.75,6 A1.25 1.25 0 0 0 16.75,8.5 Z"/>
  <path d="M15.75,0 C19.005699157714844,0.002520727925002575 21.9554443359375,1.9194986820220947 23.27998924255371,4.893580436706543 C24.60453224182129,7.867661952972412 24.056133270263672,11.342581748962402 21.88005828857422,13.764208793640137 C19.7039852142334,16.185836791992188 16.30724334716797,17.101234436035156 13.208999633789062,16.10099983215332 L11.572999954223633,17.73699951171875 C11.245365142822266,18.0658016204834 10.800171852111816,18.250429153442383 10.336000442504883,18.25 L9.25,18.25 C9.111928939819336,18.25 9,18.361928939819336 9,18.5 L9,19.947999954223633 C9.000040054321289,20.180099487304688 8.907966613769531,20.402729034423828 8.744000434875488,20.566999435424805 L8.529999732971191,20.780000686645508 C8.385828971862793,20.924423217773438 8.189031600952148,21.003864288330078 7.985000133514404,21 L5.25,21 C5.111928939819336,21 5,21.111928939819336 5,21.25 L5,22.25 C5,23.21649742126465 4.216498374938965,24 3.25,24 L1.75,24 C0.7835016846656799,24 0,23.21649742126465 0,22.25 L0,19.413999557495117 C0,18.950000762939453 0.1850000023841858,18.506000518798828 0.5130000114440918,18.17799949645996 L7.89900016784668,10.789999961853027 C7.085905075073242,8.278755187988281 7.5236992835998535,5.530051231384277 9.0767183303833,3.3956642150878906 C10.628511428833008,1.26296067237854 13.106488227844238,0.0009955341229215264 15.743753433227539,0 Z M9,8.25 C8.998956680297852,9.09240436553955 9.156007766723633,9.927523612976074 9.463000297546387,10.711999893188477 C9.571770668029785,10.989570617675781 9.505816459655762,11.305208206176758 9.295000076293945,11.515999794006348 L1.5729999542236328,19.23699951171875 C1.5261430740356445,19.28397560119629 1.4998815059661865,19.3476505279541 1.5,19.413999557495117 L1.5,22.25 C1.5,22.38800048828125 1.6119999885559082,22.5 1.75,22.5 L3.25,22.5 C3.388071298599243,22.5 3.5,22.388071060180664 3.5,22.25 L3.5,21.25 C3.5,20.284000396728516 4.283999919891357,19.5 5.25,19.5 L7.5,19.5 L7.5,18.5 C7.5,17.534000396728516 8.284000396728516,16.75 9.25,16.75 L10.336000442504883,16.75 C10.402349472045898,16.750118255615234 10.466024398803711,16.723857879638672 10.512999534606934,16.677000045776367 L12.484000205993652,14.704999923706055 C12.694791793823242,14.494183540344238 13.010429382324219,14.428229331970215 13.288000106811523,14.536999702453613 C16.044965744018555,15.616978645324707 19.183908462524414,14.774127960205078 21.029083251953125,12.458410263061523 C22.874258041381836,10.142692565917969 22.99483871459961,6.8947978019714355 21.326452255249023,4.448636531829834 C19.65806770324707,2.0024752616882324 16.590261459350586,0.9291945695877075 13.760805130004883,1.8017725944519043 C10.93134880065918,2.6743505001068115 9.000883102416992,5.2890520095825195 9,8.25 Z"/>
</svg>
