<svg xmlns="http://www.w3.org/2000/svg" width="16" height="16" viewBox="0 0 16 16">
  <defs/>
  <path d="M0,2.75 A2.75 2.75 0 0 1 2.75,0 L13.25,0 A2.75 2.75 0 0 1 16,2.75 L16,13.25 A2.75 2.75 0 0 1 13.25,16 L2.75,16 A2.75 2.75 0 0 1 0,13.25 Z M2.75,1.5 C2.06,1.5 1.5,2.06 1.5,2.75 L1.5,13.25 C1.5,13.94 2.06,14.5 2.75,14.5 L13.25,14.5 C13.94,14.5 14.5,13.94 14.5,13.25 L14.5,2.75 C14.5,2.06 13.94,1.5 13.25,1.5 Z"/>
  <path d="M8,4 A0.75 0.75 0 0 1 8.75,4.75 L8.75,6.7 L10.44,5.725 A0.75 0.75 0 0 1 11.19,7.025 L9.5,8 L11.19,8.976 A0.75 0.75 0 0 1 10.44,10.274 L8.75,9.3 L8.75,11.251 A0.75 0.75 0 0 1 7.25,11.251 L7.25,9.299 L5.56,10.275 A0.75 0.75 0 0 1 4.81,8.975 L6.5,8 L4.81,7.025 A0.75 0.75 0 0 1 5.56,5.725 L7.25,6.701 L7.25,4.75 A0.75 0.75 0 0 1 8,4 Z"/>
</svg>
