<svg xmlns="http://www.w3.org/2000/svg" width="16" height="16" viewBox="0 0 16 16">
  <defs/>
  <path d="M10.5,0 A5.499 5.499 0 1 1 9.212,10.848 L8.28,11.78 A0.749 0.749 0 0 1 7.75,12 L7,12 L7,12.75 A0.749 0.749 0 0 1 6.78,13.28 L6.28,13.78 A0.749 0.749 0 0 1 5.75,14 L5,14 L5,14.75 A0.749 0.749 0 0 1 4.78,15.28 L4.28,15.78 A0.749 0.749 0 0 1 3.75,16 L1.75,16 A1.75 1.75 0 0 1 0,14.25 L0,12.25 C0,12.051 0.079,11.861 0.22,11.72 L5.152,6.788 A5.5 5.5 0 0 1 10.5,0 Z M6.5,5.5 C6.499,5.931 6.569,6.36 6.705,6.769 A0.75 0.75 0 0 1 6.524,7.537 L1.5,12.56 L1.5,14.25 C1.5,14.388 1.612,14.5 1.75,14.5 L3.44,14.5 L3.5,14.44 L3.5,13.25 A0.75 0.75 0 0 1 4.25,12.5 L5.44,12.5 L5.5,12.44 L5.5,11.25 A0.75 0.75 0 0 1 6.25,10.5 L7.44,10.5 L8.463,9.475 A0.75 0.75 0 0 1 9.231,9.295 A4 4 0 1 0 6.5,5.5 Z M11,6 A1 1 0 1 1 11,4 A1 1 0 0 1 11,6 Z"/>
</svg>
