<svg xmlns="http://www.w3.org/2000/svg" width="24" height="24" viewBox="0 0 24 24">
  <defs/>
  <path d="M12.75,8 A0.75 0.75 0 0 0 11.25,8 L11.25,10.701 L8.91,9.351 A0.75 0.75 0 0 0 8.16,10.649 L10.5,12 L8.16,13.35 A0.75 0.75 0 1 0 8.91,14.65 L11.25,13.3 L11.25,16 A0.75 0.75 0 0 0 12.75,16 L12.75,13.299 L15.09,14.649 A0.75 0.75 0 0 0 15.84,13.351 L13.5,12 L15.84,10.65 A0.75 0.75 0 0 0 15.09,9.35 L12.75,10.701 L12.75,8 Z"/>
  <path d="M2,3.75 C2,2.784 2.784,2 3.75,2 L20.25,2 C21.216,2 22,2.784 22,3.75 L22,20.25 A1.75 1.75 0 0 1 20.25,22 L3.75,22 A1.75 1.75 0 0 1 2,20.25 L2,3.75 Z M3.75,3.5 A0.25 0.25 0 0 0 3.5,3.75 L3.5,20.25 C3.5,20.388 3.612,20.5 3.75,20.5 L20.25,20.5 A0.25 0.25 0 0 0 20.5,20.25 L20.5,3.75 A0.25 0.25 0 0 0 20.25,3.5 L3.75,3.5 Z"/>
</svg>
