<svg xmlns="http://www.w3.org/2000/svg" width="24" height="24" viewBox="0 0 24 24">
  <defs/>
  <path d="M12.75,2.75 L12.75,4.5 L14.725,4.5 C15.076,4.5 15.419,4.606 15.709,4.803 L17.406,5.957 C17.447,5.985 17.496,6 17.546,6 L21.648,6 A0.75 0.75 0 0 1 21.648,7.5 L20.07,7.5 L23.436,15.18 A0.749 0.749 0 0 1 23.206,16.076 C23.106,16.15 23.003,16.219 22.896,16.282 A6.296 6.296 0 0 1 22.106,16.681 A7.349 7.349 0 0 1 19.25,17.25 A7.343 7.343 0 0 1 16.395,16.682 A6.205 6.205 0 0 1 15.605,16.282 A3.205 3.205 0 0 1 15.298,16.08 L15.293,16.076 A0.749 0.749 0 0 1 15.063,15.18 L18.431,7.5 L17.545,7.5 C17.194,7.5 16.851,7.394 16.561,7.197 L14.864,6.043 A0.246 0.246 0 0 0 14.724,6 L12.75,6 L12.75,20.5 L17.237,20.5 A0.75 0.75 0 0 1 17.237,22 L6.763,22 A0.75 0.75 0 0 1 6.763,20.5 L11.25,20.5 L11.25,6 L9.275,6 A0.249 0.249 0 0 0 9.135,6.043 L7.439,7.197 C7.149,7.394 6.806,7.5 6.455,7.5 L5.569,7.5 L8.937,15.18 A0.75 0.75 0 0 1 8.728,16.058 C8.648,16.123 8.568,16.184 8.418,16.281 A6.077 6.077 0 0 1 7.626,16.714 A6.924 6.924 0 0 1 4.75,17.334 A6.913 6.913 0 0 1 1.874,16.714 A6.077 6.077 0 0 1 1.082,16.281 A3.483 3.483 0 0 1 0.773,16.06 A0.762 0.762 0 0 1 0.563,15.18 L3.93,7.5 L2.353,7.5 A0.75 0.75 0 0 1 2.353,6 L6.455,6 C6.505,6 6.554,5.985 6.596,5.957 L8.291,4.803 C8.581,4.605 8.925,4.5 9.276,4.5 L11.25,4.5 L11.25,2.75 A0.75 0.75 0 0 1 12.75,2.75 Z M2.193,15.198 A5.414 5.414 0 0 0 4.75,15.833 A5.414 5.414 0 0 0 7.307,15.198 L4.75,9.368 Z M16.703,15.174 C16.785,15.214 16.877,15.257 16.978,15.3 C17.508,15.523 18.283,15.75 19.25,15.75 A5.847 5.847 0 0 0 21.797,15.174 L19.25,9.367 Z"/>
</svg>
