<svg xmlns="http://www.w3.org/2000/svg" width="16" height="16" viewBox="0 0 16 16">
  <defs/>
  <path d="M8.75,0.75 L8.75,2 L9.735,2 C10.039,2 10.338,2.08 10.602,2.231 L11.892,2.967 C11.93,2.989 11.972,3 12.016,3 L14.25,3 A0.75 0.75 0 0 1 14.25,4.5 L13.823,4.5 L15.934,9.192 A0.75 0.75 0 0 1 15.78,10.03 L15.25,9.5 L15.779,10.031 L15.778,10.033 L15.776,10.035 L15.77,10.041 L15.764,10.046 L15.754,10.056 L15.709,10.096 C15.499,10.272 15.268,10.423 15.023,10.546 C14.556,10.78 13.88,11 13,11 A4.498 4.498 0 0 1 10.977,10.546 A3.544 3.544 0 0 1 10.291,10.096 L10.246,10.056 L10.23,10.041 L10.224,10.035 L10.22,10.031 L10.22,10.03 A0.75 0.75 0 0 1 10.066,9.192 L12.178,4.5 L12.016,4.5 C11.711,4.5 11.412,4.421 11.148,4.269 L9.858,3.533 A0.245 0.245 0 0 0 9.734,3.5 L8.75,3.5 L8.75,13 L11.25,13 A0.75 0.75 0 0 1 11.25,14.5 L4.75,14.5 A0.75 0.75 0 0 1 4.75,13 L7.25,13 L7.25,3.5 L6.266,3.5 A0.245 0.245 0 0 0 6.142,3.533 L4.853,4.27 C4.588,4.42 4.289,4.5 3.984,4.5 L3.822,4.5 L5.934,9.192 A0.75 0.75 0 0 1 5.78,10.03 L5.25,9.5 L5.779,10.031 L5.778,10.033 L5.776,10.035 L5.77,10.041 L5.754,10.056 L5.709,10.096 C5.499,10.272 5.268,10.423 5.023,10.546 C4.556,10.78 3.88,11 3,11 A4.498 4.498 0 0 1 0.977,10.546 A3.544 3.544 0 0 1 0.291,10.096 L0.246,10.056 L0.23,10.041 L0.224,10.035 L0.22,10.031 L0.22,10.03 A0.75 0.75 0 0 1 0.066,9.192 L2.178,4.5 L1.75,4.5 A0.75 0.75 0 0 1 1.75,3 L3.984,3 A0.249 0.249 0 0 0 4.109,2.967 L5.397,2.23 C5.662,2.08 5.961,2 6.266,2 L7.25,2 L7.25,0.75 A0.75 0.75 0 0 1 8.75,0.75 Z M11.695,9.227 C11.98,9.362 12.413,9.5 13,9.5 C13.587,9.5 14.02,9.362 14.305,9.227 L13,6.327 Z M1.695,9.227 C1.98,9.362 2.413,9.5 3,9.5 C3.587,9.5 4.02,9.362 4.305,9.227 L3,6.327 Z"/>
</svg>
