<svg xmlns="http://www.w3.org/2000/svg" width="24" height="24" viewBox="0 0 24 24">
  <defs/>
  <path d="M12,2.5 C8.19,2.5 5.5,5.243 5.5,8.619 C5.5,10.155 6.132,11.191 6.925,12.179 C7.097,12.394 7.272,12.601 7.452,12.814 L7.548,12.926 C7.758,13.176 7.975,13.434 8.178,13.7 C8.582,14.231 8.961,14.828 9.173,15.534 A0.75 0.75 0 0 1 7.737,15.966 C7.599,15.506 7.34,15.076 6.984,14.609 A18.111 18.111 0 0 0 6.402,13.895 L6.31,13.785 C6.13,13.573 5.94,13.349 5.755,13.118 C4.87,12.016 4,10.651 4,8.618 C4,4.363 7.415,1 12,1 C16.585,1 20,4.362 20,8.619 C20,10.651 19.13,12.016 18.245,13.119 C18.06,13.349 17.87,13.573 17.69,13.786 L17.598,13.895 C17.388,14.143 17.193,14.376 17.016,14.609 C16.66,15.076 16.401,15.507 16.263,15.966 A0.751 0.751 0 0 1 14.826,15.534 C15.039,14.828 15.418,14.231 15.823,13.7 C16.025,13.434 16.242,13.176 16.453,12.926 L16.548,12.814 C16.728,12.601 16.903,12.394 17.075,12.18 C17.868,11.19 18.5,10.155 18.5,8.619 C18.5,5.243 15.81,2.5 12,2.5 Z M8.75,18 L15.25,18 A0.75 0.75 0 0 1 15.25,19.5 L8.75,19.5 A0.75 0.75 0 0 1 8.75,18 Z M9.5,21.75 A0.75 0.75 0 0 1 10.25,21 L13.75,21 A0.75 0.75 0 0 1 13.75,22.5 L10.25,22.5 A0.75 0.75 0 0 1 9.5,21.75 Z"/>
</svg>
