<svg xmlns="http://www.w3.org/2000/svg" width="16" height="16" viewBox="0 0 16 16">
  <defs/>
  <path d="M7.775,3.275 L9.025,2.025 A3.5 3.5 0 1 1 13.975,6.975 L11.475,9.475 A3.5 3.5 0 0 1 6.525,9.475 A0.751 0.751 0 0 1 6.543,8.433 A0.751 0.751 0 0 1 7.585,8.415 A1.998 1.998 0 0 0 10.415,8.415 L12.915,5.915 A2.002 2.002 0 0 0 10.085,3.085 L8.835,4.335 A0.751 0.751 0 0 1 7.793,4.317 A0.751 0.751 0 0 1 7.775,3.275 Z M3.085,12.915 A1.998 1.998 0 0 0 5.915,12.915 L7.165,11.665 A0.751 0.751 0 0 1 8.207,11.683 A0.751 0.751 0 0 1 8.225,12.725 L6.975,13.975 A3.5 3.5 0 1 1 2.025,9.025 L4.525,6.525 A3.5 3.5 0 0 1 9.475,6.525 A0.751 0.751 0 0 1 9.457,7.567 A0.751 0.751 0 0 1 8.415,7.585 A1.998 1.998 0 0 0 5.585,7.585 L3.085,10.085 A1.998 1.998 0 0 0 3.085,12.915 Z"/>
</svg>
