<svg xmlns="http://www.w3.org/2000/svg" width="16" height="16" viewBox="0 0 16 16">
  <defs/>
  <path d="M3.75,2 L7.25,2 A0.75 0.75 0 0 1 7.25,3.5 L3.75,3.5 A0.25 0.25 0 0 0 3.5,3.75 L3.5,12.25 C3.5,12.388 3.612,12.5 3.75,12.5 L12.25,12.5 A0.25 0.25 0 0 0 12.5,12.25 L12.5,8.75 A0.75 0.75 0 0 1 14,8.75 L14,12.25 A1.75 1.75 0 0 1 12.25,14 L3.75,14 A1.75 1.75 0 0 1 2,12.25 L2,3.75 C2,2.784 2.784,2 3.75,2 Z M10.604,1 L14.75,1 A0.25 0.25 0 0 1 15,1.25 L15,5.396 A0.25 0.25 0 0 1 14.573,5.573 L13.03,4.03 L9.28,7.78 A0.751 0.751 0 0 1 8.238,7.762 A0.751 0.751 0 0 1 8.22,6.72 L11.97,2.97 L10.427,1.427 A0.25 0.25 0 0 1 10.604,1 Z"/>
</svg>
