<svg xmlns="http://www.w3.org/2000/svg" width="24" height="24" viewBox="0 0 24 24">
  <defs/>
  <path d="M3.604,3.089 A0.75 0.75 0 0 1 4,3.75 L4,8.5 L4.75,8.5 A0.75 0.75 0 0 1 4.75,10 L1.75,10 A0.75 0.75 0 1 1 1.75,8.5 L2.5,8.5 L2.5,5.151 L2.166,5.374 A0.75 0.75 0 0 1 1.334,4.126 L2.834,3.126 A0.75 0.75 0 0 1 3.604,3.089 Z M8.75,5.5 A0.75 0.75 0 0 0 8.75,7 L20.25,7 A0.75 0.75 0 0 0 20.25,5.5 L8.75,5.5 Z M8.75,11.5 A0.75 0.75 0 0 0 8.75,13 L20.25,13 A0.75 0.75 0 0 0 20.25,11.5 L8.75,11.5 Z M8.75,17.5 A0.75 0.75 0 0 0 8.75,19 L20.25,19 A0.75 0.75 0 0 0 20.25,17.5 L8.75,17.5 Z M5.5,15.75 C5.5,15.046 5.229,14.464 4.78,14.064 A2.302 2.302 0 0 0 3.25,13.5 C2.715,13.5 2.156,13.678 1.72,14.065 C1.271,14.464 1,15.047 1,15.75 A0.75 0.75 0 0 0 2.5,15.75 C2.5,15.454 2.604,15.286 2.717,15.186 A0.805 0.805 0 0 1 3.25,15 C3.465,15 3.656,15.072 3.783,15.185 C3.896,15.286 4,15.453 4,15.75 C4,16.082 3.931,16.23 3.79,16.407 C3.698,16.52 3.574,16.647 3.387,16.826 L3.24,16.966 C3.088,17.11 2.91,17.279 2.72,17.47 L1.22,18.97 A0.75 0.75 0 0 0 1,19.5 L1,19.75 C1,20.164 1.336,20.5 1.75,20.5 L5,20.5 A0.75 0.75 0 0 0 5,19 L3.31,19 L3.78,18.53 C3.956,18.354 4.113,18.206 4.26,18.065 L4.425,17.909 A5.98 5.98 0 0 0 4.961,17.343 C5.319,16.896 5.5,16.418 5.5,15.75 Z"/>
</svg>
