<svg xmlns="http://www.w3.org/2000/svg" width="16" height="16" viewBox="0 0 16 16">
  <defs/>
  <path d="M5,3.25 A0.75 0.75 0 0 1 5.75,2.5 L14.25,2.5 A0.75 0.75 0 0 1 14.25,4 L5.75,4 A0.75 0.75 0 0 1 5,3.25 Z M5,8.25 A0.75 0.75 0 0 1 5.75,7.5 L14.25,7.5 A0.75 0.75 0 0 1 14.25,9 L5.75,9 A0.75 0.75 0 0 1 5,8.25 Z M5,13.25 A0.75 0.75 0 0 1 5.75,12.5 L14.25,12.5 A0.75 0.75 0 0 1 14.25,14 L5.75,14 A0.75 0.75 0 0 1 5,13.25 Z M0.924,10.32 A0.5 0.5 0 0 1 0.073,9.795 L0.074,9.794 L0.075,9.792 L0.077,9.788 L0.084,9.777 C0.181,9.633 0.299,9.504 0.432,9.393 C0.66,9.203 1.02,9.001 1.5,9.001 C1.968,9.001 2.358,9.182 2.626,9.485 C2.885,9.779 3.003,10.158 3.003,10.523 C3.003,11.51 2.317,12.018 1.847,12.368 L1.8,12.403 C1.497,12.628 1.278,12.803 1.146,13 L2.503,13 A0.5 0.5 0 0 1 2.503,14 L0.5,14 A0.5 0.5 0 0 1 0,13.5 C0,12.495 0.692,11.98 1.167,11.625 L1.202,11.6 C1.733,11.204 2.002,10.975 2.002,10.522 A0.57 0.57 0 0 0 1.874,10.146 C1.806,10.068 1.695,10 1.5,10 A0.658 0.658 0 0 0 1.071,10.163 A0.835 0.835 0 0 0 0.927,10.316 Z M2.003,2.5 L2.003,6 L2.506,6 A0.5 0.5 0 0 1 2.506,7 L0.5,7 A0.5 0.5 0 0 1 0.5,6 L1.003,6 L1.003,3.308 L0.723,3.448 A0.5 0.5 0 0 1 0.277,2.553 L1.28,2.053 A0.5 0.5 0 0 1 2.003,2.5 Z"/>
</svg>
