<svg xmlns="http://www.w3.org/2000/svg" width="24" height="24" viewBox="0 0 24 24">
  <defs/>
  <path d="M12,13.5 A2.5 2.5 0 1 0 12,8.5 A2.5 2.5 0 0 0 12,13.5 Z"/>
  <path d="M19.071,3.429 L19.072,3.429 C22.977,7.334 22.977,13.666 19.072,17.571 L13.669,22.974 A2.36 2.36 0 0 1 10.333,22.974 L4.958,17.599 L4.93,17.571 C1.025,13.666 1.025,7.334 4.93,3.429 C8.834,-0.476 15.166,-0.476 19.071,3.429 Z M5.99,4.489 L5.99,4.49 A8.5 8.5 0 0 0 5.99,16.51 L6.013,16.534 L6.015,16.536 L11.393,21.914 A0.859 0.859 0 0 0 12.607,21.914 L18.01,16.51 A8.5 8.5 0 0 0 17.967,4.533 A8.5 8.5 0 0 0 5.99,4.489 Z"/>
</svg>
