<svg xmlns="http://www.w3.org/2000/svg" width="16" height="16" viewBox="0 0 16 16">
  <defs/>
  <path d="M4,4 A4 4 0 0 1 12,4 L12,6 L12.25,6 C13.216,6 14,6.784 14,7.75 L14,13.25 A1.75 1.75 0 0 1 12.25,15 L3.75,15 A1.75 1.75 0 0 1 2,13.25 L2,7.75 C2,6.784 2.784,6 3.75,6 L4,6 Z M12.25,7.5 L3.75,7.5 A0.25 0.25 0 0 0 3.5,7.75 L3.5,13.25 C3.5,13.388 3.612,13.5 3.75,13.5 L12.25,13.5 A0.25 0.25 0 0 0 12.5,13.25 L12.5,7.75 A0.25 0.25 0 0 0 12.25,7.5 Z M10.5,6 L10.5,4 A2.5 2.5 0 1 0 5.5,4 L5.5,6 Z"/>
</svg>
