<svg xmlns="http://www.w3.org/2000/svg" width="24" height="24" viewBox="0 0 24 24">
  <defs/>
  <path d="M6,9 L6,7.25 C6,3.845 8.503,1 12,1 C15.497,1 18,3.845 18,7.25 L18,9 L18.5,9 A2.5 2.5 0 0 1 21,11.5 L21,19.5 A2.5 2.5 0 0 1 18.5,22 L5.5,22 A2.5 2.5 0 0 1 3,19.5 L3,11.5 A2.5 2.5 0 0 1 5.5,9 Z M4.5,11.5 L4.5,19.5 A1 1 0 0 0 5.5,20.5 L18.5,20.5 A1 1 0 0 0 19.5,19.5 L19.5,11.5 A1 1 0 0 0 18.5,10.5 L5.5,10.5 A1 1 0 0 0 4.5,11.5 Z M7.5,7.25 L7.5,9 L16.5,9 L16.5,7.25 C16.5,4.58 14.578,2.5 12,2.5 C9.422,2.5 7.5,4.58 7.5,7.25 Z"/>
</svg>
