<svg xmlns="http://www.w3.org/2000/svg" width="16" height="16" viewBox="0 0 16 16">
  <defs/>
  <path d="M5,8.25 A0.75 0.75 0 0 1 5.75,7.5 L9.75,7.5 A0.75 0.75 0 0 1 9.75,9 L5.75,9 A0.75 0.75 0 0 1 5,8.25 Z M4,10.5 A0.75 0.75 0 0 0 4,12 L8,12 A0.75 0.75 0 0 0 8,10.5 L4,10.5 Z"/>
  <path d="M0,3.0513665676116943 L0,2.994999885559082 C0,1.3967756032943726 1.249769687652588,0.09045066684484482 2.825334310531616,0 L13.175346374511719,0 C14.748085975646973,0.08994391560554504 16,1.3824946880340576 16,2.994999885559082 C16,3.9769999980926514 15.661999702453613,4.927999973297119 15.217000007629395,5.813000202178955 C14.77400016784668,6.691999912261963 14.189000129699707,7.571000099182129 13.635000228881836,8.401000022888184 L13.62399959564209,8.418000221252441 C13.055999755859375,9.270999908447266 12.520000457763672,10.07699966430664 12.123000144958496,10.86400032043457 C11.725000381469727,11.652999877929688 11.5,12.357999801635742 11.5,13 C11.500266075134277,13.715595245361328 12.005976676940918,14.331355094909668 12.707869529724121,14.470720291137695 C13.409762382507324,14.610084533691406 14.112360954284668,14.234241485595703 14.38599967956543,13.573031425476074 C14.659638404846191,12.911822319030762 14.428109169006348,12.149394035339355 13.833000183105469,11.751999855041504 C13.502633094787598,11.516582489013672 13.419331550598145,11.061149597167969 13.644977569580078,10.72403335571289 C13.870623588562012,10.386917114257812 14.3234224319458,10.290318489074707 14.666999816894531,10.505999565124512 C15.765378952026367,11.240303039550781 16.254056930541992,12.606743812561035 15.870438575744629,13.871051788330078 C15.486820220947266,15.135359764099121 14.321226119995117,15.999857902526855 13,16 L3,16 C1.343145728111267,16 0,14.656854629516602 0,13 C0,11.418000221252441 0.890999972820282,9.864999771118164 1.7769999504089355,8.494000434875488 C1.9859999418258667,8.17199993133545 2.194999933242798,7.85699987411499 2.4000000953674316,7.547999858856201 C2.872999906539917,6.839000225067139 3.322999954223633,6.1620001792907715 3.687000036239624,5.5 L2.509999990463257,5.5 C1.934000015258789,5.5 1.128999948501587,5.367000102996826 0.6029999852180481,4.7170000076293945 C0.2186715006828308,4.2457661628723145 0.006379203405231237,3.6583073139190674 0,3.0513665676116943 Z M13,1.4950000047683716 C12.1715726852417,1.4950000047683716 11.5,2.1665728092193604 11.5,2.994999885559082 C11.5,3.4709999561309814 11.722999572753906,3.8289999961853027 12.166999816894531,4.126999855041504 C12.441160202026367,4.310760974884033 12.562969207763672,4.652151107788086 12.46705436706543,4.967955589294434 C12.371140480041504,5.283760070800781 12.080048561096191,5.499745845794678 11.75,5.5 L5.368000030517578,5.5 C4.901000022888184,6.502999782562256 4.2270002365112305,7.514999866485596 3.5950000286102295,8.463000297546387 C3.4030001163482666,8.751999855041504 3.2139999866485596,9.034000396728516 3.0369999408721924,9.307999610900879 C2.130000114440918,10.711000442504883 1.5,11.916000366210938 1.5,13 C1.5,13.8284273147583 2.1715729236602783,14.5 3,14.5 L10.401000022888184,14.5 C10.137534141540527,14.044053077697754 9.999199867248535,13.526594161987305 10,13 C10,12.020999908447266 10.338000297546387,11.071999549865723 10.784000396728516,10.187999725341797 C11.225000381469727,9.314000129699707 11.807000160217285,8.4399995803833 12.359000205993652,7.611999988555908 L12.37600040435791,7.585999965667725 C12.944000244140625,6.732999801635742 13.479000091552734,5.927999973297119 13.876999855041504,5.138000011444092 C14.274999618530273,4.3480000495910645 14.5,3.6410000324249268 14.5,2.994999885559082 C14.5,2.1570000648498535 13.831000328063965,1.4950000047683716 13,1.4950000047683716 Z M3,1.4950000047683716 C2.1715729236602783,1.4950000047683716 1.5,2.1665728092193604 1.5,2.994999885559082 C1.5,3.315999984741211 1.600000023841858,3.563999891281128 1.7699999809265137,3.7730000019073486 C1.8669999837875366,3.8929998874664307 2.0950000286102295,4 2.509999990463257,4 L10.184000015258789,4 C10.060129165649414,3.679518699645996 9.997708320617676,3.3385796546936035 10,2.994999885559082 C10,2.4489998817443848 10.145999908447266,1.9359999895095825 10.401000022888184,1.4950000047683716 Z"/>
</svg>
