<svg xmlns="http://www.w3.org/2000/svg" width="24" height="24" viewBox="0 0 24 24">
  <defs/>
  <path d="M9.197,10 A0.75 0.75 0 0 0 9.197,11.5 L15.697,11.5 A0.75 0.75 0 0 0 15.697,10 L9.197,10 Z M6.815,14 A0.75 0.75 0 0 0 6.815,15.5 L13.315,15.5 A0.75 0.75 0 0 0 13.315,14 L6.815,14 Z M5.234,18 A0.75 0.75 0 0 0 5.234,19.5 L11.734,19.5 A0.75 0.75 0 0 0 11.734,18 L5.234,18 Z"/>
  <path d="M4.125,0 L19.900161743164062,0 C20.986082077026367,0.0033197011798620224 22.0269775390625,0.436329185962677 22.795000076293945,1.2050000429153442 C23.563671112060547,1.9730212688446045 23.996679306030273,3.0139174461364746 24,4.0998358726501465 L24,4.125 C24,5.508999824523926 23.52400016784668,6.919000148773193 22.871999740600586,8.28499984741211 C22.219999313354492,9.649999618530273 21.35700035095215,11.041999816894531 20.520000457763672,12.388999938964844 L20.511999130249023,12.402000427246094 C19.663000106811523,13.770000457763672 18.843000411987305,15.093000411987305 18.23200035095215,16.371999740600586 C17.618000030517578,17.655000686645508 17.25,18.82200050354004 17.25,19.875 C17.25006866455078,21.127357482910156 18.134811401367188,22.205257415771484 19.363128662109375,22.449464797973633 C20.591445922851562,22.693674087524414 21.821212768554688,22.036170959472656 22.300315856933594,20.879079818725586 C22.779420852661133,19.721988677978516 22.37441635131836,18.387596130371094 21.33300018310547,17.691999435424805 C20.988651275634766,17.46169662475586 20.896196365356445,16.995849609375 21.12649917602539,16.651500701904297 C21.356801986694336,16.30714988708496 21.822650909423828,16.214696884155273 22.16699981689453,16.44499969482422 C23.676509857177734,17.45518684387207 24.34786605834961,19.333702087402344 23.82056427001953,21.071819305419922 C23.293262481689453,22.8099365234375 21.691341400146484,23.998794555664062 19.875,24 L4.5,24 C2.221825361251831,24 0.375,22.153175354003906 0.375,19.875 C0.375,17.641000747680664 1.6330000162124634,15.218999862670898 2.9649999141693115,12.972999572753906 C3.312999963760376,12.38700008392334 3.6670000553131104,11.810999870300293 4.014999866485596,11.244999885559082 C4.815000057220459,9.940999984741211 5.581999778747559,8.692000389099121 6.158999919891357,7.506999969482422 L3.390000104904175,7.506999969482422 C2.566999912261963,7.506999969482422 1.503999948501587,7.314000129699707 0.8230000138282776,6.4720001220703125 C0.2986268699169159,5.830437183380127 0.008848086930811405,5.030084133148193 0,4.203081130981445 L0,4.125 C0,1.846825361251831 1.846825361251831,0 4.125,0 Z M15.75,19.875 C15.75,18.4950008392334 16.22599983215332,17.089000701904297 16.878000259399414,15.725000381469727 C17.527000427246094,14.366999626159668 18.386999130249023,12.982000350952148 19.22100067138672,11.638999938964844 L19.238000869750977,11.611000061035156 C20.086999893188477,10.244000434875488 20.906999588012695,8.918999671936035 21.51799964904785,7.638999938964844 C22.131999969482422,6.354000091552734 22.5,5.182000160217285 22.5,4.125 C22.502670288085938,3.4279913902282715 22.226966857910156,2.7587597370147705 21.73410415649414,2.2658965587615967 C21.241239547729492,1.7730334997177124 20.57200813293457,1.4973294734954834 19.875,1.5 C18.42525291442871,1.5 17.25,2.6752524375915527 17.25,4.125 C17.25,4.989999771118164 17.67099952697754,5.633999824523926 18.41699981689453,6.133999824523926 C18.691160202026367,6.317760944366455 18.812969207763672,6.659151077270508 18.71705436706543,6.9749555587768555 C18.621139526367188,7.290760040283203 18.330047607421875,7.5067458152771 18,7.506999969482422 L7.811999797821045,7.506999969482422 C7.1620001792907715,8.989999771118164 6.188000202178955,10.576000213623047 5.235000133514404,12.12600040435791 C4.901000022888184,12.670000076293945 4.568999767303467,13.208999633789062 4.255000114440918,13.73799991607666 C2.9000000953674316,16.024999618530273 1.875,18.108999252319336 1.875,19.875 C1.875,21.32474708557129 3.0502524375915527,22.5 4.5,22.5 L16.69300079345703,22.5 C16.082141876220703,21.761756896972656 15.74856948852539,20.833200454711914 15.75,19.875 Z M1.5,4.125 C1.4900000095367432,4.636000156402588 1.6629999876022339,5.132999897003174 1.9869999885559082,5.5279998779296875 C2.240999937057495,5.841000080108643 2.7269999980926514,6.006999969482422 3.3889999389648438,6.006999969482422 L16.249000549316406,6.006999969482422 C15.915234565734863,5.436460018157959 15.742757797241211,4.785955905914307 15.75,4.125 C15.748738288879395,3.1668288707733154 16.082290649414062,2.238327741622925 16.69300079345703,1.5 L4.125,1.5 C2.6752524375915527,1.5 1.5,2.6752524375915527 1.5,4.125 Z"/>
</svg>
