<svg xmlns="http://www.w3.org/2000/svg" width="68" height="24" viewBox="0 0 68 24">
  <defs/>
  <path d="M27.8,17.908 L27.77,17.908 C27.783,17.908 27.792,17.922 27.805,17.925 L27.815,17.923 L27.799,17.908 Z M27.805,17.925 C27.665,17.926 27.315,17.998 26.944,17.998 C25.774,17.998 25.369,17.462 25.369,16.764 L25.369,12.112 L27.754,12.112 C27.889,12.112 27.994,11.992 27.994,11.829 L27.994,9.302 C27.994,9.169 27.874,9.05 27.754,9.05 L25.37,9.05 L25.37,5.913 C25.37,5.794 25.295,5.72 25.16,5.72 L21.92,5.72 C21.784,5.72 21.71,5.794 21.71,5.913 L21.71,9.14 C21.71,9.14 20.074,9.541 19.969,9.556 A0.255 0.255 0 0 0 19.774,9.809 L19.774,11.83 C19.774,11.994 19.894,12.112 20.029,12.112 L21.694,12.112 L21.694,16.988 C21.694,20.615 24.244,20.986 25.984,20.986 C26.78,20.986 27.74,20.734 27.89,20.659 C27.98,20.629 28.025,20.525 28.025,20.421 L28.025,18.191 A0.264 0.264 0 0 0 27.806,17.926 Z M63.354,14.653 C63.354,11.963 62.259,11.606 61.104,11.725 C60.204,11.785 59.484,12.23 59.484,12.23 L59.484,17.462 C59.484,17.462 60.219,17.968 61.314,17.998 C62.859,18.042 63.354,17.492 63.354,14.653 Z M67,14.415 C67,19.514 65.335,20.97 62.424,20.97 C59.964,20.97 58.644,19.737 58.644,19.737 C58.644,19.737 58.584,20.42 58.509,20.51 C58.464,20.599 58.389,20.628 58.299,20.628 L56.079,20.628 C55.929,20.628 55.793,20.509 55.793,20.376 L55.823,3.862 A0.26 0.26 0 0 1 56.078,3.61 L59.274,3.61 A0.26 0.26 0 0 1 59.529,3.862 L59.529,9.466 C59.529,9.466 60.759,8.678 62.559,8.678 L62.544,8.648 C64.344,8.648 67,9.318 67,14.415 Z M53.918,9.05 L50.768,9.05 C50.603,9.05 50.513,9.169 50.513,9.332 L50.513,17.418 C50.513,17.418 49.687,17.998 48.563,17.998 C47.437,17.998 47.107,17.492 47.107,16.378 L47.107,9.318 A0.262 0.262 0 0 0 46.852,9.064 L43.642,9.064 A0.262 0.262 0 0 0 43.386,9.317 L43.386,16.913 C43.386,20.183 45.232,21 47.767,21 C49.852,21 51.547,19.855 51.547,19.855 C51.547,19.855 51.623,20.435 51.667,20.525 C51.697,20.599 51.803,20.658 51.907,20.658 L53.918,20.658 A0.243 0.243 0 0 0 54.173,20.405 L54.203,9.302 C54.203,9.169 54.083,9.05 53.918,9.05 Z M18.362,9.035 L15.167,9.035 C15.032,9.035 14.912,9.169 14.912,9.332 L14.912,20.242 C14.912,20.539 15.107,20.643 15.362,20.643 L18.242,20.643 C18.542,20.643 18.617,20.509 18.617,20.242 L18.617,9.287 A0.262 0.262 0 0 0 18.362,9.035 Z M16.787,4.01 C15.632,4.01 14.717,4.917 14.717,6.061 C14.717,7.206 15.632,8.112 16.787,8.112 A2.04 2.04 0 0 0 18.827,6.062 A2.04 2.04 0 0 0 16.787,4.01 Z M41.527,3.638 L38.36,3.638 A0.262 0.262 0 0 0 38.105,3.891 L38.105,9.971 L33.14,9.971 L33.14,3.891 A0.262 0.262 0 0 0 32.885,3.638 L29.689,3.638 A0.262 0.262 0 0 0 29.434,3.891 L29.434,20.405 C29.434,20.538 29.569,20.657 29.689,20.657 L32.885,20.657 A0.262 0.262 0 0 0 33.14,20.404 L33.14,13.344 L38.106,13.344 L38.076,20.404 C38.076,20.538 38.196,20.657 38.331,20.657 L41.526,20.657 A0.262 0.262 0 0 0 41.781,20.404 L41.781,3.892 A0.262 0.262 0 0 0 41.526,3.639 Z M13.217,10.951 L13.217,19.483 C13.217,19.543 13.202,19.646 13.127,19.676 C13.127,19.676 11.252,20.999 8.161,20.999 C4.426,21 0,19.84 0,12.2 C0,4.56 3.87,2.986 7.651,3 C10.921,3 12.241,3.728 12.451,3.862 C12.511,3.937 12.541,3.996 12.541,4.07 L11.911,6.716 C11.911,6.85 11.777,7.013 11.611,6.969 C11.071,6.805 10.261,6.479 8.356,6.479 C6.151,6.479 3.781,7.102 3.781,12.022 C3.781,16.942 6.031,17.522 7.651,17.522 C9.031,17.522 9.526,17.358 9.526,17.358 L9.526,13.94 L7.321,13.94 C7.156,13.94 7.036,13.82 7.036,13.687 L7.036,10.952 C7.036,10.818 7.156,10.7 7.321,10.7 L12.931,10.7 C13.097,10.7 13.217,10.818 13.217,10.952 Z"/>
</svg>
