<svg xmlns="http://www.w3.org/2000/svg" width="38" height="24" viewBox="0 0 38 24">
  <defs/>
  <path d="M7.05,13.095 L7.05,11.595 L12.33,11.595 L12.33,20.13 C11.16,20.685 9.405,21.09 6.945,21.09 C1.665,21.09 0,17.055 0,12.045 C0,7.035 1.695,3 6.945,3 C9.375,3 10.905,3.495 11.865,3.99 L11.865,5.565 C10.035,4.815 8.865,4.47 6.945,4.47 C3.09,4.47 1.725,7.785 1.725,12.06 C1.725,16.335 3.09,19.635 6.93,19.635 C8.265,19.635 9.9,19.53 10.725,19.125 L10.725,13.095 L7.05,13.095 Z M23.52,14.13 L23.565,14.13 C26.895,14.43 27.69,15.555 27.69,17.475 C27.69,19.29 26.55,21.09 22.98,21.09 C21.855,21.09 20.235,20.805 19.485,20.505 L19.485,19.095 C20.19,19.35 21.315,19.635 22.98,19.635 C25.41,19.635 26.07,18.6 26.07,17.505 C26.07,16.44 25.74,15.69 23.415,15.495 C20.025,15.195 19.32,13.995 19.32,12.375 C19.32,10.71 20.4,8.91 23.7,8.91 C24.795,8.91 26.04,9.045 27.075,9.495 L27.075,10.905 C26.16,10.605 25.245,10.365 23.67,10.365 C21.345,10.365 20.85,11.22 20.85,12.375 C20.85,13.41 21.27,13.935 23.52,14.13 Z M36.39,9.135 L36.39,10.41 L32.76,10.41 L32.76,17.715 C32.76,19.14 33.555,19.725 35.01,19.725 C35.31,19.725 35.64,19.725 35.925,19.68 L35.925,21.015 C35.67,21.06 35.175,21.09 34.89,21.09 C32.925,21.09 31.14,20.19 31.14,17.895 L31.14,10.395 L28.8,10.395 L28.8,9.675 L31.14,9.015 L31.14,5.85 L32.76,5.385 L32.76,9.135 L36.39,9.135 Z M16.635,9.09 L16.635,18.705 C16.635,19.515 16.92,19.755 17.64,19.755 L17.64,21.09 C15.93,21.09 15.06,20.385 15.06,18.51 L15.06,9.09 L16.635,9.09 Z M17.01,5.595 C17.01,6.255 16.5,6.765 15.84,6.765 A1.14 1.14 0 0 1 14.685,5.595 C14.685,4.935 15.165,4.425 15.84,4.425 C16.515,4.425 17.01,4.935 17.01,5.595 Z"/>
</svg>
