<svg xmlns="http://www.w3.org/2000/svg" width="45" height="16" viewBox="0 0 45 16">
  <defs/>
  <path d="M8.81,7.35 L8.81,13.09 C8.81,13.13 8.8,13.2 8.75,13.22 C8.75,13.22 7.5,14.11 5.44,14.11 C2.95,14.11 0,13.33 0,8.19 C0,3.05 2.58,1.99 5.1,2 C7.28,2 8.16,2.49 8.3,2.58 C8.34,2.63 8.36,2.67 8.36,2.72 L7.94,4.5 C7.94,4.59 7.85,4.7 7.74,4.67 C7.38,4.56 6.84,4.34 5.57,4.34 C4.1,4.34 2.52,4.76 2.52,8.07 C2.52,11.38 4.02,11.77 5.1,11.77 C6.02,11.77 6.35,11.66 6.35,11.66 L6.35,9.36 L4.88,9.36 C4.77,9.36 4.69,9.28 4.69,9.19 L4.69,7.35 C4.69,7.26 4.77,7.18 4.88,7.18 L8.62,7.18 C8.73,7.18 8.81,7.26 8.81,7.35 Z M44.66,9.68 C44.66,13.11 43.55,14.09 41.61,14.09 C39.97,14.09 39.09,13.26 39.09,13.26 C39.09,13.26 39.05,13.72 39,13.78 C38.97,13.84 38.92,13.86 38.86,13.86 L37.38,13.86 C37.28,13.86 37.19,13.78 37.19,13.69 L37.21,2.58 C37.21,2.49 37.29,2.41 37.38,2.41 L39.51,2.41 C39.6,2.41 39.68,2.49 39.68,2.58 L39.68,6.35 C39.68,6.35 40.5,5.82 41.7,5.82 L41.69,5.8 C42.89,5.8 44.66,6.25 44.66,9.68 Z M27.68,2.43 C27.77,2.43 27.85,2.51 27.85,2.6 L27.85,13.71 C27.85,13.8 27.77,13.88 27.68,13.88 L25.55,13.88 C25.46,13.88 25.38,13.8 25.38,13.71 L25.4,8.96 L22.09,8.96 L22.09,13.71 C22.09,13.8 22.01,13.88 21.92,13.88 L19.79,13.88 C19.71,13.88 19.62,13.8 19.62,13.71 L19.62,2.6 C19.62,2.51 19.7,2.43 19.79,2.43 L21.92,2.43 C22.01,2.43 22.09,2.51 22.09,2.6 L22.09,6.69 L25.4,6.69 L25.4,2.6 C25.4,2.51 25.48,2.43 25.57,2.43 Z M35.94,6.07 C36.05,6.07 36.13,6.15 36.13,6.24 L36.11,13.71 C36.11,13.8 36.05,13.88 35.94,13.88 L34.6,13.88 C34.53,13.88 34.46,13.84 34.44,13.79 C34.41,13.73 34.36,13.34 34.36,13.34 C34.36,13.34 33.23,14.11 31.84,14.11 C30.15,14.11 28.92,13.56 28.92,11.36 L28.92,6.25 C28.92,6.16 29,6.08 29.09,6.08 L31.23,6.08 C31.32,6.08 31.4,6.16 31.4,6.25 L31.4,11 C31.4,11.75 31.62,12.09 32.37,12.09 C33.12,12.09 33.67,11.7 33.67,11.7 L33.67,6.26 C33.67,6.15 33.73,6.07 33.84,6.07 Z M18.534,12.041 L18.539,12.041 A0.177 0.177 0 0 1 18.68,12.22 L18.68,13.72 C18.68,13.79 18.65,13.86 18.59,13.88 C18.49,13.93 17.85,14.1 17.32,14.1 C16.16,14.1 14.46,13.85 14.46,11.41 L14.46,8.13 L13.35,8.13 C13.26,8.13 13.18,8.05 13.18,7.94 L13.18,6.58 C13.18,6.5 13.23,6.43 13.31,6.41 C13.38,6.4 14.47,6.13 14.47,6.13 L14.47,3.96 C14.47,3.88 14.52,3.83 14.61,3.83 L16.77,3.83 C16.86,3.83 16.91,3.88 16.91,3.96 L16.91,6.07 L18.5,6.07 C18.58,6.07 18.66,6.15 18.66,6.24 L18.66,7.94 C18.66,8.05 18.59,8.13 18.5,8.13 L16.91,8.13 L16.91,11.261 C16.91,11.731 17.18,12.091 17.96,12.091 C18.207,12.091 18.441,12.042 18.534,12.041 Z M12.24,6.06 C12.33,6.06 12.41,6.14 12.41,6.23 L12.41,13.6 C12.41,13.78 12.36,13.87 12.16,13.87 L10.24,13.87 C10.07,13.87 9.94,13.8 9.94,13.6 L9.94,6.26 C9.94,6.15 10.02,6.06 10.11,6.06 Z M42.23,9.84 C42.23,8.03 41.5,7.79 40.73,7.87 C40.13,7.91 39.65,8.21 39.65,8.21 L39.65,11.73 C39.65,11.73 40.14,12.07 40.87,12.09 C41.9,12.12 42.23,11.75 42.23,9.84 Z M11.19,2.68 C11.94,2.68 12.55,3.29 12.55,4.06 C12.55,4.83 11.94,5.44 11.19,5.44 C10.42,5.44 9.81,4.83 9.81,4.06 C9.81,3.29 10.42,2.68 11.19,2.68 Z M18.53,12.03 L18.53,12.031 L18.54,12.041 L18.539,12.041 L18.534,12.04 L18.534,12.041 C18.525,12.04 18.519,12.03 18.51,12.03 Z"/>
</svg>
