<svg xmlns="http://www.w3.org/2000/svg" width="16" height="16" viewBox="0 0 16 16">
  <defs/>
  <path d="M1.75,2 L14.25,2 C15.216,2 16,2.784 16,3.75 L16,12.25 A1.75 1.75 0 0 1 14.25,14 L1.75,14 A1.75 1.75 0 0 1 0,12.25 L0,3.75 C0,2.784 0.784,2 1.75,2 Z M1.5,12.251 C1.5,12.389 1.612,12.501 1.75,12.501 L14.25,12.501 A0.25 0.25 0 0 0 14.5,12.251 L14.5,5.809 L8.38,9.397 A0.75 0.75 0 0 1 7.62,9.397 L1.5,5.809 L1.5,12.251 Z M14.5,4.07 L14.5,3.75 A0.25 0.25 0 0 0 14.25,3.5 L1.75,3.5 A0.25 0.25 0 0 0 1.5,3.75 L1.5,4.07 L8,7.88 Z"/>
</svg>
