<svg xmlns="http://www.w3.org/2000/svg" width="24" height="24" viewBox="0 0 24 24">
  <defs/>
  <path d="M22.288999557495117,4.5 C22.745479583740234,4.499712944030762 23.183124542236328,4.681950092315674 23.504493713378906,5.0061354637146 C23.818334579467773,5.322729587554932 23.99583625793457,5.749032974243164 24,6.193962574005127 L24,17.783000946044922 C24,18.729000091552734 23.233999252319336,19.509000778198242 22.27400016784668,19.509000778198242 L1.7259999513626099,19.509000778198242 C0.7708257436752319,19.501314163208008 0.0005797759513370693,18.725093841552734 0,17.770156860351562 L0,6.22599983215332 C0,5.28000020980835 0.7799999713897705,4.5 1.7259999513626099,4.499999523162842 Z M13.508000373840332,16.506999969482422 L13.508000373840332,7.500999927520752 L10.505999565124512,7.500999927520752 L8.255000114440918,10.503000259399414 L6.002999782562256,7.500999927520752 L3.002000093460083,7.500999927520752 L3.002000093460083,16.506999969482422 L6.002999782562256,16.506999969482422 L6.002999782562256,12.003999710083008 L8.255000114440918,14.88599967956543 L10.505999565124512,12.003999710083008 L10.505999565124512,16.506999969482422 Z M17.996999740600586,17.256999969482422 L21.763999938964844,12.003999710083008 L19.51300048828125,12.003999710083008 L19.51300048828125,7.500999927520752 L16.51099967956543,7.500999927520752 L16.51099967956543,12.003999710083008 L14.258999824523926,12.003999710083008 Z"/>
</svg>
