<svg xmlns="http://www.w3.org/2000/svg" width="16" height="16" viewBox="0 0 16 16">
  <defs/>
  <path d="M8,0 C12.420000076293945,0 16,3.5799999237060547 16,8 C15.99912166595459,11.437004089355469 13.806446075439453,14.490655899047852 10.550000190734863,15.59000015258789 C10.149999618530273,15.670000076293945 10,15.420000076293945 10,15.210000038146973 C10,14.9399995803833 10.010000228881836,14.079999923706055 10.010000228881836,13.010000228881836 C10.010000228881836,12.260000228881836 9.760000228881836,11.779999732971191 9.470000267028809,11.529999732971191 C11.25,11.329999923706055 13.119999885559082,10.649999618530273 13.119999885559082,7.579999923706055 C13.119999885559082,6.699999809265137 12.8100004196167,5.989999771118164 12.300000190734863,5.429999828338623 C12.380000114440918,5.230000019073486 12.65999984741211,4.409999847412109 12.220000267028809,3.309999942779541 C12.220000267028809,3.309999942779541 11.550000190734863,3.0899999141693115 10.020000457763672,4.130000114440918 C9.380000114440918,3.950000047683716 8.699999809265137,3.859999895095825 8.020000457763672,3.859999895095825 C7.340000152587891,3.859999895095825 6.659999847412109,3.950000047683716 6.019999980926514,4.130000114440918 C4.489999771118164,3.0999999046325684 3.819999933242798,3.309999942779541 3.819999933242798,3.309999942779541 C3.380000114440918,4.409999847412109 3.6600000858306885,5.230000019073486 3.740000009536743,5.429999828338623 C3.2300000190734863,5.989999771118164 2.9200000762939453,6.710000038146973 2.9200000762939453,7.579999923706055 C2.9200000762939453,10.640000343322754 4.78000020980835,11.329999923706055 6.559999942779541,11.529999732971191 C6.329999923706055,11.729999542236328 6.119999885559082,12.079999923706055 6.050000190734863,12.600000381469727 C5.590000152587891,12.8100004196167 4.440000057220459,13.149999618530273 3.7200000286102295,11.9399995803833 C3.569999933242798,11.699999809265137 3.119999885559082,11.109999656677246 2.490000009536743,11.119999885559082 C1.8200000524520874,11.130000114440918 2.2200000286102295,11.5 2.5,11.649999618530273 C2.8399999141693115,11.84000015258789 3.2300000190734863,12.550000190734863 3.319999933242798,12.779999732971191 C3.4800000190734863,13.229999542236328 4,14.09000015258789 6.010000228881836,13.720000267028809 C6.010000228881836,14.390000343322754 6.019999980926514,15.020000457763672 6.019999980926514,15.210000038146973 C6.019999980926514,15.420000076293945 5.869999885559082,15.65999984741211 5.46999979019165,15.59000015258789 C2.2048592567443848,14.503170013427734 0.001806295127607882,11.449106216430664 0,8.008469581604004 L0,8 C0,3.5799999237060547 3.5799999237060547,0 8,0 Z"/>
</svg>
