<svg xmlns="http://www.w3.org/2000/svg" width="24" height="24" viewBox="0 0 24 24">
  <defs/>
  <path d="M12.5,0.75 C6.146,0.75 1,5.896 1,12.25 C1,17.339 4.292,21.637 8.863,23.16 C9.438,23.261 9.653,22.916 9.653,22.614 C9.653,22.341 9.639,21.436 9.639,20.472 C6.75,21.004 6.003,19.768 5.773,19.122 C5.643,18.791 5.083,17.77 4.593,17.497 C4.191,17.281 3.616,16.749 4.579,16.735 C5.485,16.721 6.132,17.569 6.348,17.914 C7.383,19.654 9.036,19.164 9.697,18.862 C9.797,18.115 10.099,17.612 10.43,17.324 C7.871,17.037 5.198,16.045 5.198,11.646 C5.198,10.396 5.643,9.361 6.376,8.556 C6.261,8.268 5.859,7.089 6.491,5.508 C6.491,5.508 7.454,5.206 9.654,6.687 C10.574,6.428 11.551,6.299 12.529,6.299 C13.506,6.299 14.484,6.429 15.404,6.687 C17.604,5.192 18.566,5.508 18.566,5.508 C19.199,7.089 18.796,8.268 18.681,8.556 C19.414,9.361 19.86,10.381 19.86,11.646 C19.86,16.059 17.172,17.036 14.613,17.324 C15.03,17.684 15.389,18.374 15.389,19.452 C15.389,20.99 15.375,22.226 15.375,22.614 C15.375,22.916 15.591,23.276 16.165,23.161 C20.709,21.637 24,17.324 24,12.25 C24,5.896 18.854,0.75 12.5,0.75 Z"/>
</svg>
