<svg xmlns="http://www.w3.org/2000/svg" width="24" height="24" viewBox="0 0 24 24">
  <defs/>
  <path d="M22,1.75 L22,16.25 A0.75 0.75 0 0 1 21.601,16.912 C21.217,17.116 20.818,16.877 20.462,16.664 L20.459,16.662 C20.369,16.608 20.282,16.555 20.198,16.512 A15.53 15.53 0 0 0 18.198,15.663 C16.46,15.056 13.877,14.44 10.495,14.412 A0.833 0.833 0 0 1 10.5,14.5 C10.5,16.779 10.994,18.779 11.406,20.047 C11.774,21.178 10.968,22.5 9.674,22.5 L7.661,22.5 C6.965,22.5 6.301,22.08 6.061,21.371 C5.684,20.255 5,17.811 5,14.75 L5,14.293 A5.5 5.5 0 0 1 6.5,3.5 L10.25,3.5 C13.755,3.5 16.425,2.89 18.205,2.29 A15.88 15.88 0 0 0 20.207,1.47 A9.21 9.21 0 0 0 20.697,1.208 C20.745,1.18 20.792,1.153 20.839,1.123 A0.751 0.751 0 0 1 22,1.75 Z M10.5,12.912 C14.064,12.941 16.813,13.59 18.693,14.247 C19.43,14.505 20.033,14.764 20.5,14.987 L20.5,2.993 C20.033,3.209 19.427,3.46 18.685,3.711 C16.807,4.345 14.061,4.971 10.5,4.999 Z M6.5,5 A4 4 0 0 0 6.5,13 L9,13 L9,5 Z M6.5,14.75 C6.5,17.597 7.138,19.873 7.482,20.891 C7.5,20.942 7.556,21 7.661,21 L9.674,21 C9.761,21 9.853,20.957 9.923,20.853 A0.396 0.396 0 0 0 9.98,20.51 C9.537,19.148 9,16.986 9,14.5 L6.5,14.5 Z"/>
</svg>
