<svg xmlns="http://www.w3.org/2000/svg" width="16" height="16" viewBox="0 0 16 16">
  <defs/>
  <path d="M3.25,9 A0.75 0.75 0 0 1 4,9.75 C4,11.892 4.456,13.578 4.733,14.403 A0.122 0.122 0 0 0 4.783,14.467 A0.212 0.212 0 0 0 4.9,14.5 L6.21,14.5 C6.295,14.5 6.39,14.458 6.468,14.348 A0.45 0.45 0 0 0 6.543,13.982 A16.743 16.743 0 0 1 6,9.75 A0.75 0.75 0 0 1 7.5,9.75 C7.5,11.338 7.75,12.676 7.994,13.6 C8.287,14.713 7.49,16 6.211,16 L4.9,16 C4.214,16 3.55,15.59 3.311,14.88 A16.4 16.4 0 0 1 2.5,9.75 A0.75 0.75 0 0 1 3.25,9 Z"/>
  <path d="M0,6 A4 4 0 0 1 4,2 L6.75,2 A0.75 0.75 0 0 1 7.5,2.75 L7.5,9.25 A0.75 0.75 0 0 1 6.75,10 L4,10 A4 4 0 0 1 0,6 Z M4,3.5 A2.5 2.5 0 1 0 4,8.5 L6,8.5 L6,3.5 Z"/>
  <path d="M15.59,0.082 A0.75 0.75 0 0 1 16,0.75 L16,11.25 A0.75 0.75 0 0 1 14.811,11.858 L14.809,11.857 L14.81,11.857 L14.796,11.847 A5.775 5.775 0 0 0 14.374,11.597 A10.63 10.63 0 0 0 12.905,10.957 C11.576,10.484 9.536,10 6.75,10 A0.75 0.75 0 0 1 6.75,8.5 C9.714,8.5 11.924,9.016 13.408,9.543 C13.831,9.694 14.195,9.845 14.5,9.986 L14.5,2.014 C14.195,2.154 13.831,2.306 13.408,2.457 C11.924,2.984 9.713,3.5 6.75,3.5 A0.75 0.75 0 0 1 6.75,2 C9.536,2 11.576,1.516 12.905,1.043 C13.57,0.807 14.059,0.573 14.375,0.403 C14.519,0.326 14.659,0.242 14.796,0.153 L14.81,0.143 A0.75 0.75 0 0 1 15.59,0.082 Z"/>
</svg>
