<svg xmlns="http://www.w3.org/2000/svg" width="16" height="16" viewBox="0 0 16 16">
  <defs/>
  <path d="M4.75,2.369999885559082 C1.6773736476898193,4.181736469268799 0.6384339332580566,8.130918502807617 2.4217307567596436,11.220137596130371 C4.2050275802612305,14.309356689453125 8.144452095031738,15.384705543518066 11.25,13.630000114440918 C11.606687545776367,13.440057754516602 12.049735069274902,13.566864967346191 12.251910209655762,13.916763305664062 C12.454086303710938,14.26666259765625 12.342690467834473,14.713833808898926 12,14.928000450134277 C10.79086685180664,15.62658405303955 9.45829963684082,15.978535652160645 8.130303382873535,16 L7.871377944946289,16 C5.8735480308532715,15.967716217041016 3.904947519302368,15.188570022583008 2.4025216102600098,13.717663764953613 C0.8539355397224426,12.201565742492676 0.029605265706777573,10.174738883972168 0,8.114266395568848 L0,7.884132385253906 C0.018352530896663666,6.607089996337891 0.3424418568611145,5.323953151702881 0.9890000224113464,4.1479997634887695 C2.3628458976745605,1.6423959732055664 4.930352687835693,0.11070858687162399 7.681957721710205,0 L8.322752952575684,0 C8.837133407592773,0.02069341391324997 9.3551607131958,0.0914325937628746 9.870399475097656,0.21506783366203308 C13.379039764404297,1.0569919347763062 15.889840126037598,4.143442153930664 16,7.75 L16,9.253299713134766 C15.999274253845215,10.475564956665039 15.191818237304688,11.550853729248047 14.017921447753906,11.892237663269043 C12.842967987060547,12.233928680419922 11.58358383178711,11.758188247680664 10.928000450134277,10.725000381469727 C9.619386672973633,12.134449005126953 7.492809772491455,12.41273021697998 5.865592002868652,11.387460708618164 C4.238374710083008,10.362192153930664 3.5714712142944336,8.323806762695312 4.2779998779296875,6.534999847412109 C4.981855869293213,4.746978759765625 6.857676029205322,3.712099313735962 8.745572090148926,4.070266246795654 C10.633467674255371,4.428433418273926 11.999919891357422,6.078429698944092 12,8 L12,9.25 C12,9.940356254577637 12.559643745422363,10.5 13.25,10.5 C13.940356254577637,10.5 14.5,9.940356254577637 14.5,9.25 L14.5,7.867000102996826 C14.453178405761719,5.568606853485107 13.195791244506836,3.465892791748047 11.1931734085083,2.3370325565338135 C9.190555572509766,1.2081724405288696 6.740604400634766,1.221088171005249 4.75,2.371000051498413 Z M10.5,8 C10.5,6.619287967681885 9.380711555480957,5.5 8,5.5 C6.619287967681885,5.5 5.5,6.619287967681885 5.5,8 C5.5,9.380711555480957 6.619287967681885,10.5 8,10.5 C9.380711555480957,10.5 10.5,9.380711555480957 10.5,8 Z"/>
</svg>
