<svg xmlns="http://www.w3.org/2000/svg" width="24" height="24" viewBox="0 0 24 24">
  <defs/>
  <path d="M20.226,7.25 C17.603,2.708 11.794,1.152 7.252,3.775 C2.709,6.397 1.153,12.206 3.775,16.749 C6.398,21.291 12.206,22.848 16.749,20.226 A0.75 0.75 0 0 1 17.499,21.525 C12.239,24.562 5.512,22.76 2.475,17.499 C-0.562,12.24 1.24,5.512 6.501,2.475 C11.76,-0.562 18.488,1.24 21.525,6.501 A10.959 10.959 0 0 1 22.98,11.327 C22.993,11.383 23,11.44 23,11.5 L23,13.75 A3.5 3.5 0 0 1 16.377,15.331 A5.5 5.5 0 1 1 17.489,11.649 A0.802 0.802 0 0 1 17.5,11.778 L17.5,13.75 A2 2 0 1 0 21.5,13.75 L21.5,11.984 A9.456 9.456 0 0 0 20.226,7.251 Z M16,12 A4 4 0 1 0 8,12 A4 4 0 0 0 16,12 Z"/>
</svg>
