<svg xmlns="http://www.w3.org/2000/svg" width="24" height="24" viewBox="0 0 24 24">
  <defs/>
  <path d="M12,2.5 A9.5 9.5 0 1 0 21.5,12 C21.5,10.594 21.195,9.26 20.648,8.061 A0.75 0.75 0 0 1 22.012,7.439 C22.648,8.829 23,10.374 23,12 C23,18.075 18.075,23 12,23 C5.925,23 1,18.075 1,12 C1,5.925 5.925,1 12,1 C13.626,1 15.17,1.353 16.561,1.988 A0.75 0.75 0 1 1 15.939,3.352 A9.463 9.463 0 0 0 12,2.5 Z M21.03,2.97 A0.75 0.75 0 0 1 21.03,4.03 L14.585,10.476 A3 3 0 1 1 13.525,9.416 L19.97,2.97 A0.75 0.75 0 0 1 21.03,2.97 Z M12,10.5 A1.5 1.5 0 1 0 12,13.5 A1.5 1.5 0 0 0 12,10.5 Z"/>
</svg>
