<svg xmlns="http://www.w3.org/2000/svg" width="16" height="16" viewBox="0 0 16 16">
  <defs/>
  <path d="M8,1.5 C5.139305591583252,1.5006760358810425 2.6153388023376465,3.3715603351593018 1.7828527688980103,6.108445644378662 C0.950366735458374,8.845331192016602 2.0050852298736572,11.804753303527832 4.380882740020752,13.39822769165039 C6.756680011749268,14.991703033447266 9.894987106323242,14.844590187072754 12.11130142211914,13.03585433959961 C14.327615737915039,11.227118492126465 15.100863456726074,8.1820068359375 14.015999794006348,5.534999847412109 C13.858598709106445,5.151714324951172 14.041714668273926,4.7134013175964355 14.425000190734863,4.556000232696533 C14.8082857131958,4.398598670959473 15.246599197387695,4.581714153289795 15.404000282287598,4.965000152587891 C15.784563064575195,5.89391565322876 15.978608131408691,6.85957670211792 16,7.816753387451172 L16,8.173240661621094 C15.943036079406738,10.72316837310791 14.665838241577148,13.172386169433594 12.432846069335938,14.65817928314209 C9.260211944580078,16.769195556640625 5.038936614990234,16.34930992126465 2.344313383102417,13.65468692779541 C0.7987913489341736,12.109164237976074 0.0015865397872403264,10.061422348022461 0.001032114028930664,7.997372150421143 L0.001032114028930664,7.993062973022461 C0.0014439515070989728,6.459853649139404 0.44143685698509216,4.917832851409912 1.3408203125,3.5661540031433105 C2.818798303604126,1.3449082374572754 5.250090599060059,0.06942765414714813 7.785527229309082,0 L8.222460746765137,0 C9.166460037231445,0.02586229145526886 10.118091583251953,0.21976572275161743 11.034000396728516,0.5950000286102295 C11.417561531066895,0.7521250247955322 11.60112476348877,1.1904382705688477 11.444000244140625,1.5740000009536743 C11.286874771118164,1.957561731338501 10.84856128692627,2.141124963760376 10.46500015258789,1.9839999675750732 C9.682822227478027,1.6632471084594727 8.845389366149902,1.4988179206848145 8,1.5 Z M14.279999732971191,1.7200000286102295 C14.572453498840332,2.012817621231079 14.572453498840332,2.487182378768921 14.279999732971191,2.7799999713897705 L10.217000007629395,6.843999862670898 C10.7879638671875,7.938310623168945 10.474830627441406,9.285542488098145 9.479771614074707,10.015865325927734 C8.484712600708008,10.74618911743164 7.105574131011963,10.640999794006348 6.232787132263184,9.768213272094727 C5.359999656677246,8.895425796508789 5.254810810089111,7.516287803649902 5.985134124755859,6.521228790283203 C6.715457916259766,5.526169776916504 8.062689781188965,5.213036060333252 9.156999588012695,5.783999919891357 L13.220000267028809,1.7200000286102295 C13.5128173828125,1.4275466203689575 13.9871826171875,1.4275466203689575 14.279999732971191,1.7200000286102295 Z M7,8 C7,8.552285194396973 7.4477152824401855,9 8,9 C8.552285194396973,9 9,8.552285194396973 9,8 C9,7.4477152824401855 8.552285194396973,7 8,7 C7.4477152824401855,7 7,7.4477152824401855 7,8 Z"/>
</svg>
