<svg xmlns="http://www.w3.org/2000/svg" width="16" height="16" viewBox="0 0 16 16">
  <defs/>
  <path d="M7.75,0 A0.75 0.75 0 0 1 8.5,0.75 L8.5,3 L12.134,3 C12.548,3 12.948,3.147 13.264,3.414 L15.334,5.164 A1.75 1.75 0 0 1 15.334,7.836 L13.264,9.586 A1.75 1.75 0 0 1 12.134,10 L8.5,10 L8.5,15.25 A0.75 0.75 0 0 1 7,15.25 L7,10 L2.75,10 A1.75 1.75 0 0 1 1,8.25 L1,4.75 C1,3.784 1.784,3 2.75,3 L7,3 L7,0.75 A0.75 0.75 0 0 1 7.75,0 Z M12.134,8.5 A0.25 0.25 0 0 0 12.295,8.44 L14.365,6.69 A0.248 0.248 0 0 0 14.365,6.31 L12.295,4.56 A0.25 0.25 0 0 0 12.134,4.5 L2.75,4.5 A0.25 0.25 0 0 0 2.5,4.75 L2.5,8.25 C2.5,8.388 2.612,8.5 2.75,8.5 L12.134,8.5 Z"/>
</svg>
