<svg xmlns="http://www.w3.org/2000/svg" width="24" height="24" viewBox="0 0 24 24">
  <defs/>
  <path d="M11.75,1 A0.75 0.75 0 0 1 12.5,1.75 L12.5,4 L19.032,4 C19.452,4 19.858,4.15 20.175,4.425 L23.362,7.175 A1.75 1.75 0 0 1 23.362,9.825 L20.175,12.575 A1.75 1.75 0 0 1 19.032,13 L12.5,13 L12.5,22.25 A0.75 0.75 0 0 1 11,22.25 L11,13 L3.75,13 A1.75 1.75 0 0 1 2,11.25 L2,5.75 C2,4.783 2.784,4 3.75,4 L11,4 L11,1.75 A0.75 0.75 0 0 1 11.75,1 Z M19.032,5.5 L3.75,5.5 A0.25 0.25 0 0 0 3.5,5.75 L3.5,11.25 C3.5,11.388 3.612,11.5 3.75,11.5 L19.032,11.5 C19.092,11.5 19.15,11.479 19.195,11.44 L22.383,8.69 A0.248 0.248 0 0 0 22.383,8.31 L19.195,5.56 A0.249 0.249 0 0 0 19.032,5.5 Z"/>
</svg>
