<svg xmlns="http://www.w3.org/2000/svg" width="24" height="24" viewBox="0 0 24 24">
  <defs/>
  <path d="M21.553,6.064 A0.75 0.75 0 0 1 22,6.75 L22,17.25 A0.75 0.75 0 0 1 20.744,17.804 L14.994,12.554 A0.748 0.748 0 0 1 14.994,11.446 L20.744,6.196 A0.75 0.75 0 0 1 21.553,6.064 Z M2.447,17.936 A0.75 0.75 0 0 1 2,17.25 L2,6.75 A0.75 0.75 0 0 1 3.256,6.196 L9.006,11.446 A0.748 0.748 0 0 1 9.006,12.554 L3.256,17.804 A0.75 0.75 0 0 1 2.447,17.936 Z M7.387,12 L3.5,8.45 L3.5,15.55 L7.388,12 Z M16.613,12 L20.5,15.55 L20.5,8.45 L16.612,12 Z M12,2.75 A0.75 0.75 0 0 1 12.75,3.5 L12.75,4.5 A0.75 0.75 0 0 1 11.25,4.5 L11.25,3.5 A0.75 0.75 0 0 1 12,2.75 Z M12,6.75 A0.75 0.75 0 0 1 12.75,7.5 L12.75,8.5 A0.75 0.75 0 0 1 11.25,8.5 L11.25,7.5 A0.75 0.75 0 0 1 12,6.75 Z M12,14.75 A0.75 0.75 0 0 1 12.75,15.5 L12.75,16.5 A0.75 0.75 0 0 1 11.25,16.5 L11.25,15.5 A0.75 0.75 0 0 1 12,14.75 Z M12,18.75 A0.75 0.75 0 0 1 12.75,19.5 L12.75,20.5 A0.75 0.75 0 0 1 11.25,20.5 L11.25,19.5 A0.75 0.75 0 0 1 12,18.75 Z M12,10.75 A0.75 0.75 0 0 1 12.75,11.5 L12.75,12.5 A0.75 0.75 0 0 1 11.25,12.5 L11.25,11.5 A0.75 0.75 0 0 1 12,10.75 Z"/>
</svg>
