<svg xmlns="http://www.w3.org/2000/svg" width="16" height="16" viewBox="0 0 16 16">
  <defs/>
  <path d="M15.547,3.061 A0.75 0.75 0 0 1 16,3.75 L16,12.25 A0.751 0.751 0 0 1 14.735,12.795 L10.235,8.545 A0.75 0.75 0 0 1 10.235,7.455 L14.735,3.205 A0.75 0.75 0 0 1 15.547,3.061 Z M0,12.25 L0,3.75 A0.751 0.751 0 0 1 1.265,3.205 L5.765,7.455 A0.75 0.75 0 0 1 5.765,8.545 L1.265,12.795 A0.75 0.75 0 0 1 0,12.25 Z M1.5,5.49 L1.5,10.51 L4.158,8 Z M11.842,8 L14.5,10.51 L14.5,5.49 Z M8,4 A0.75 0.75 0 0 1 8.75,4.75 L8.75,5.25 A0.75 0.75 0 0 1 7.25,5.25 L7.25,4.75 A0.75 0.75 0 0 1 8,4 Z M8.75,1.75 L8.75,2.25 A0.75 0.75 0 0 1 7.25,2.25 L7.25,1.75 A0.75 0.75 0 0 1 8.75,1.75 Z M8.75,7.75 L8.75,8.25 A0.75 0.75 0 0 1 7.25,8.25 L7.25,7.75 A0.75 0.75 0 0 1 8.75,7.75 Z M8,10 A0.75 0.75 0 0 1 8.75,10.75 L8.75,11.25 A0.75 0.75 0 0 1 7.25,11.25 L7.25,10.75 A0.75 0.75 0 0 1 8,10 Z M8,13 A0.75 0.75 0 0 1 8.75,13.75 L8.75,14.25 A0.75 0.75 0 0 1 7.25,14.25 L7.25,13.75 A0.75 0.75 0 0 1 8,13 Z"/>
</svg>
