<svg xmlns="http://www.w3.org/2000/svg" width="24" height="24" viewBox="0 0 24 24">
  <defs/>
  <path d="M14.768,3.96 L14.768,3.961 L14.766,3.956 A9.08 9.08 0 0 0 14.548,3.177 C14.418,2.783 14.758,2.377 15.15,2.507 C15.44,2.603 15.725,2.712 16.005,2.835 L16.015,2.84 A10.002 10.002 0 0 1 12,22 A10.002 10.002 0 0 1 2.838,16.015 L2.834,16.005 A9.722 9.722 0 0 1 2.505,15.15 C2.375,14.758 2.782,14.418 3.175,14.548 C3.432,14.632 3.692,14.705 3.955,14.766 L3.959,14.768 A9 9 0 0 0 14.999,6 A9.09 9.09 0 0 0 14.768,3.96 Z M16.5,6 C16.5,11.799 11.799,16.5 6,16.5 C5.574,16.5 5.153,16.474 4.74,16.425 A8.5 8.5 0 1 0 16.425,4.74 C16.475,5.153 16.5,5.573 16.5,5.999 Z"/>
</svg>
