<svg xmlns="http://www.w3.org/2000/svg" width="24" height="24" viewBox="0 0 24 24">
  <defs/>
  <path d="M12.291999816894531,2.059999942779541 L12.291999816894531,2.059000015258789 L23.54199981689453,6.809000015258789 C23.803646087646484,6.918428897857666 23.979537963867188,7.165369987487793 24,7.445157051086426 L24,7.554842948913574 C23.979537963867188,7.834630012512207 23.803646087646484,8.081571578979492 23.54199981689453,8.190999984741211 L19,10.107999801635742 L19,15 C18.999996185302734,15.137969970703125 18.961933135986328,15.273265838623047 18.889999389648438,15.390999794006348 L18.888999938964844,15.390999794006348 C18.77635383605957,15.565518379211426 18.644899368286133,15.727151870727539 18.496999740600586,15.873000144958496 C18.24799919128418,16.128999710083008 17.871999740600586,16.452999114990234 17.333999633789062,16.768999099731445 C16.253999710083008,17.406999588012695 14.557999610900879,17.999000549316406 12,17.999000549316406 C11.32699966430664,17.999000549316406 10.71399974822998,17.95800018310547 10.154000282287598,17.88599967956543 C9.753472328186035,17.822193145751953 9.47623062133789,17.451536178588867 9.528167724609375,17.049297332763672 C9.58010482788086,16.647058486938477 9.942400932312012,16.358978271484375 10.345999717712402,16.39900016784668 C10.838000297546387,16.461999893188477 11.387999534606934,16.499000549316406 12,16.499000549316406 C14.317000389099121,16.499000549316406 15.746000289916992,15.965999603271484 16.57200050354004,15.477999687194824 C16.881999969482422,15.300000190734863 17.167999267578125,15.081000328063965 17.42099952697754,14.82800006866455 L17.5,14.743000030517578 L17.5,10.739999771118164 L12.291999816894531,12.9399995803833 C12.105328559875488,13.018902778625488 11.894671440124512,13.018902778625488 11.708000183105469,12.9399995803833 L5.75,10.423999786376953 L5.75,13.593999862670898 C6.251999855041504,13.722999572753906 6.710000038146973,13.984999656677246 7.077000141143799,14.35200023651123 C7.656000137329102,14.930000305175781 8,15.76200008392334 8,16.780000686645508 L8,21.280000686645508 C7.998911380767822,21.535898208618164 7.869282245635986,21.77411460876465 7.65500020980835,21.913999557495117 C7.587229251861572,21.956872940063477 7.517120361328125,21.995933532714844 7.445000171661377,22.0310001373291 C7.276980876922607,22.114337921142578 7.103201866149902,22.185522079467773 6.925000190734863,22.243999481201172 C6.302802085876465,22.442060470581055 5.652920722961426,22.539289474487305 5,22.531999588012695 C4.97675085067749,22.532276153564453 4.953505039215088,22.532421112060547 4.930264472961426,22.532432556152344 L4.92435359954834,22.532432556152344 C4.296876907348633,22.532127380371094 3.673056125640869,22.43488121032715 3.075000047683716,22.243999481201172 C2.896960973739624,22.18507957458496 2.723212480545044,22.113910675048828 2.555000066757202,22.0310001373291 C2.4788780212402344,21.994821548461914 2.405367136001587,21.953388214111328 2.3350000381469727,21.906999588012695 C2.126918315887451,21.767284393310547 2.0014803409576416,21.533632278442383 2,21.283000946044922 L2,16.783000946044922 C2,15.762999534606934 2.3440001010894775,14.932999610900879 2.9230000972747803,14.352999687194824 C3.289841890335083,13.9867525100708 3.7480313777923584,13.725374221801758 4.25,13.595999717712402 L4.25,9.793000221252441 L0.4580000042915344,8.1899995803833 C0.1814350038766861,8.072183609008789 0.0019387691281735897,7.800614356994629 0.0019387691281735897,7.5 C0.0019387691281735897,7.199385643005371 0.1814350038766861,6.927816390991211 0.4580000042915344,6.809999942779541 L11.708000183105469,2.059999942779541 C11.801241874694824,2.0205881595611572 11.900467872619629,2.0008623600006104 11.999700546264648,2.0008227825164795 L12.000299453735352,2.0008227825164795 C12.099532127380371,2.0008623600006104 12.198758125305176,2.0205881595611572 12.291999816894531,2.059999942779541 Z M12,11.435999870300293 L21.32200050354004,7.5 L12,3.563999891281128 L2.677999973297119,7.5 Z M5,15 C4.623000144958496,15 4.255000114440918,15.140999794006348 3.9830000400543213,15.413000106811523 C3.7179999351501465,15.678000450134277 3.5,16.113000869750977 3.5,16.7810001373291 L3.5,20.80299949645996 C3.7990000247955322,20.908000946044922 4.296999931335449,21.0310001373291 5,21.0310001373291 C5.703000068664551,21.0310001373291 6.201000213623047,20.908000946044922 6.5,20.80299949645996 L6.5,16.780000686645508 C6.5,16.111000061035156 6.2820000648498535,15.677000045776367 6.017000198364258,15.411999702453613 C5.746088981628418,15.145174980163574 5.38023567199707,14.996963500976562 5,15 Z"/>
</svg>
