<svg xmlns="http://www.w3.org/2000/svg" width="16" height="16" viewBox="0 0 16 16">
  <defs/>
  <path d="M7.693,1.066 A0.747 0.747 0 0 1 8.307,1.066 L15.557,4.316 A0.75 0.75 0 0 1 15.557,5.684 L13,6.831 L13,9.625 C13,10.649 12.19,11.374 11.34,11.798 C10.447,12.245 9.265,12.5 8,12.5 C7.722,12.5 7.45,12.488 7.184,12.464 A0.75 0.75 0 0 1 7.317,10.97 C7.537,10.99 7.767,11 8,11 C9.082,11 10.025,10.779 10.67,10.457 C11.36,10.112 11.5,9.775 11.5,9.625 L11.5,7.503 L8.307,8.934 A0.747 0.747 0 0 1 7.693,8.934 L4,7.28 L4,8.943 C4.296,9.048 4.575,9.218 4.812,9.455 C5.25,9.893 5.5,10.514 5.5,11.251 L5.5,14.251 A0.75 0.75 0 0 1 4.75,15.001 L1.75,15.001 A0.75 0.75 0 0 1 1,14.251 L1,11.251 C1,10.514 1.25,9.893 1.688,9.455 C1.925,9.218 2.204,9.048 2.5,8.943 L2.5,6.606 L0.443,5.684 A0.75 0.75 0 0 1 0.443,4.316 Z M2.583,5 L8,7.428 L13.416,5 L8,2.572 Z M2.5,11.25 L2.5,13.5 L4,13.5 L4,11.25 C4,10.862 3.875,10.639 3.75,10.515 A0.697 0.697 0 0 0 3.25,10.312 A0.707 0.707 0 0 0 2.75,10.515 C2.625,10.639 2.5,10.862 2.5,11.25 Z"/>
</svg>
