<svg xmlns="http://www.w3.org/2000/svg" width="24" height="24" viewBox="0 0 24 24">
  <defs/>
  <path d="M8.75,11.5 L20.25,11.5 A0.75 0.75 0 0 1 20.25,13 L8.75,13 A0.75 0.75 0 0 1 8.75,11.5 Z M8.75,17.5 L20.25,17.5 A0.75 0.75 0 0 1 20.25,19 L8.75,19 A0.75 0.75 0 0 1 8.75,17.5 Z M3.75,5.5 L13.75,5.5 A0.75 0.75 0 0 1 13.75,7 L3.75,7 A0.75 0.75 0 0 1 3.75,5.5 Z M5,12 A1 1 0 1 1 3,12 A1 1 0 0 1 5,12 Z M4,19 A1 1 0 1 1 4,17 A1 1 0 0 1 4,19 Z M19.309,7.918 L17.064,5.417 A0.25 0.25 0 0 1 17.25,5 L21.74,5 A0.25 0.25 0 0 1 21.925,5.417 L19.681,7.917 A0.25 0.25 0 0 1 19.309,7.917 Z"/>
</svg>
