<svg xmlns="http://www.w3.org/2000/svg" width="16" height="16" viewBox="0 0 16 16">
  <defs/>
  <path d="M5.75,7.5 L13.25,7.5 A0.75 0.75 0 0 1 13.25,9 L5.75,9 A0.75 0.75 0 0 1 5.75,7.5 Z M5.75,12.5 L13.25,12.5 A0.75 0.75 0 0 1 13.25,14 L5.75,14 A0.75 0.75 0 0 1 5.75,12.5 Z M1.75,2.5 L8.25,2.5 A0.75 0.75 0 0 1 8.25,4 L1.75,4 A0.75 0.75 0 0 1 1.75,2.5 Z M2,14 A1 1 0 1 1 2,12 A1 1 0 0 1 2,14 Z M3,8 A1 1 0 1 1 1,8 A1 1 0 0 1 3,8 Z M13.314,4.918 L11.07,2.417 A0.25 0.25 0 0 1 11.256,2 L15.744,2 A0.25 0.25 0 0 1 15.93,2.417 L13.686,4.917 A0.25 0.25 0 0 1 13.314,4.917 Z"/>
</svg>
