<svg xmlns="http://www.w3.org/2000/svg" width="24" height="24" viewBox="0 0 24 24">
  <defs/>
  <path d="M12,3.75 L12,20.25 A0.75 0.75 0 0 1 10.745,20.805 L5.46,16 L2.75,16 A1.75 1.75 0 0 1 1,14.25 L1,9.75 C1,8.784 1.784,8 2.75,8 L5.46,8 L10.745,3.195 A0.75 0.75 0 0 1 12,3.75 Z M6.255,9.305 A0.748 0.748 0 0 1 5.75,9.5 L2.75,9.5 A0.25 0.25 0 0 0 2.5,9.75 L2.5,14.25 C2.5,14.388 2.612,14.5 2.75,14.5 L5.75,14.5 C5.937,14.5 6.117,14.569 6.255,14.695 L10.5,18.555 L10.5,5.445 Z M16.28,8.22 A0.75 0.75 0 1 0 15.22,9.28 L17.94,12 L15.22,14.72 A0.75 0.75 0 1 0 16.28,15.78 L19,13.06 L21.72,15.78 A0.75 0.75 0 1 0 22.78,14.72 L20.06,12 L22.78,9.28 A0.75 0.75 0 0 0 21.72,8.22 L19,10.94 L16.28,8.22 Z"/>
</svg>
