<svg xmlns="http://www.w3.org/2000/svg" width="16" height="16" viewBox="0 0 16 16">
  <defs/>
  <path d="M8,2.75 L8,13.25 C7.9993414878845215,13.542566299438477 7.8288373947143555,13.808119773864746 7.563085556030273,13.930477142333984 C7.462667465209961,13.97671127319336 7.355557441711426,13.999320030212402 7.2491350173950195,13.999320030212402 C7.073915004730225,13.999320030212402 6.900557994842529,13.938033103942871 6.76200008392334,13.819999694824219 L3.4730000495910645,11 L1.75,11 C0.7835016846656799,11 0,10.216498374938965 0,9.25 L0,6.75 C0,5.783999919891357 0.7839999794960022,5 1.75,5 L3.4719998836517334,5 L6.76200008392334,2.180000066757202 C6.900509834289551,2.06131649017334 7.074151992797852,1.9996107816696167 7.2497124671936035,1.9995118379592896 L7.250557899475098,1.9995118379592896 C7.356690883636475,1.999571681022644 7.46350622177124,2.0221478939056396 7.563665390014648,2.068263292312622 C7.829775810241699,2.1907858848571777 8.000186920166016,2.457038640975952 8,2.75 Z M11.279999732971191,5.21999979019165 L13,6.940000057220459 L14.720000267028809,5.21999979019165 C15.015660285949707,4.944816589355469 15.476020812988281,4.9527692794799805 15.76200008392334,5.23799991607666 C16.047231674194336,5.523979663848877 16.05518341064453,5.984339714050293 15.779999732971191,6.28000020980835 L14.0600004196167,8 L15.779999732971191,9.720000267028809 C15.8916015625,9.823629379272461 15.96679401397705,9.956523895263672 16,10.09972858428955 L16,10.437996864318848 C15.998730659484863,10.443471908569336 15.997397422790527,10.448942184448242 15.996000289916992,10.454404830932617 C15.928016662597656,10.720292091369629 15.720062255859375,10.927706718444824 15.454000473022461,10.994999885559082 C15.188424110412598,11.063069343566895 14.906878471374512,10.980600357055664 14.720000267028809,10.779999732971191 L13,9.0600004196167 L11.279999732971191,10.779999732971191 C11.093257904052734,10.981109619140625 10.811481475830078,11.063983917236328 10.545595169067383,10.996000289916992 C10.279707908630371,10.928016662597656 10.072293281555176,10.720062255859375 10.005000114440918,10.454000473022461 C9.936930656433105,10.188424110412598 10.019399642944336,9.906878471374512 10.220000267028809,9.720000267028809 L11.9399995803833,8 L10.220000267028809,6.28000020980835 C10.018890380859375,6.093257904052734 9.936016082763672,5.811481475830078 10.003999710083008,5.545594692230225 C10.071983337402344,5.279707908630371 10.279937744140625,5.072292804718018 10.545999526977539,5.005000114440918 C10.811575889587402,4.936930179595947 11.093121528625488,5.019399166107178 11.279999732971191,5.21999979019165 Z M4.23799991607666,6.320000171661377 C4.101922512054443,6.436136722564697 3.928899049758911,6.499957084655762 3.75,6.5 L1.75,6.5 C1.6119288206100464,6.5 1.5,6.611928939819336 1.5,6.75 L1.5,9.25 C1.5,9.387999534606934 1.6119999885559082,9.5 1.75,9.5 L3.75,9.5 C3.928999900817871,9.5 4.1020002365112305,9.564000129699707 4.23799991607666,9.680000305175781 L6.5,11.619999885559082 L6.5,4.380000114440918 Z"/>
</svg>
