<svg xmlns="http://www.w3.org/2000/svg" width="24" height="24" viewBox="0 0 24 24">
  <defs/>
  <path d="M0,4.75 C0,3.784 0.784,3 1.75,3 L22.25,3 C23.216,3 24,3.784 24,4.75 L24,19.25 A1.75 1.75 0 0 1 22.25,21 L1.75,21 A1.75 1.75 0 0 1 0,19.25 Z M1.75,4.5 A0.25 0.25 0 0 0 1.5,4.75 L1.5,19.25 C1.5,19.388 1.612,19.5 1.75,19.5 L22.25,19.5 A0.25 0.25 0 0 0 22.5,19.25 L22.5,4.75 A0.25 0.25 0 0 0 22.25,4.5 Z"/>
  <path d="M5,8.75 A0.75 0.75 0 0 1 5.75,8 L17.25,8 A0.75 0.75 0 0 1 17.25,9.5 L5.75,9.5 A0.75 0.75 0 0 1 5,8.75 Z M5,12.75 A0.75 0.75 0 0 1 5.75,12 L11.25,12 A0.75 0.75 0 0 1 11.25,13.5 L5.75,13.5 A0.75 0.75 0 0 1 5,12.75 Z"/>
</svg>
