<svg xmlns="http://www.w3.org/2000/svg" width="16" height="16" viewBox="0 0 16 16">
  <defs/>
  <path d="M0,3.75 C0,2.784 0.784,2 1.75,2 L14.25,2 C15.216,2 16,2.784 16,3.75 L16,12.25 A1.75 1.75 0 0 1 14.25,14 L1.75,14 A1.75 1.75 0 0 1 0,12.25 Z M1.75,3.5 A0.25 0.25 0 0 0 1.5,3.75 L1.5,12.25 C1.5,12.388 1.612,12.5 1.75,12.5 L14.25,12.5 A0.25 0.25 0 0 0 14.5,12.25 L14.5,3.75 A0.25 0.25 0 0 0 14.25,3.5 Z M3.5,6.25 A0.75 0.75 0 0 1 4.25,5.5 L11.25,5.5 A0.75 0.75 0 0 1 11.25,7 L4.25,7 A0.75 0.75 0 0 1 3.5,6.25 Z M4.25,8.5 L8.25,8.5 A0.75 0.75 0 0 1 8.25,10 L4.25,10 A0.75 0.75 0 0 1 4.25,8.5 Z"/>
</svg>
