<svg xmlns="http://www.w3.org/2000/svg" width="16" height="16" viewBox="0 0 16 16">
  <defs/>
  <path d="M9,4.75 C9,4.33578634262085 9.335786819458008,4 9.75,4 L13.75,4 C14.053141593933105,4.0002665519714355 14.326315879821777,4.182994842529297 14.44228744506836,4.463076591491699 C14.558258056640625,4.743157863616943 14.494220733642578,5.0655131340026855 14.279999732971191,5.28000020980835 L12.390000343322754,7.171999931335449 C12.70199966430664,7.248000144958496 12.994000434875488,7.3520002365112305 13.256999969482422,7.491000175476074 C13.99899959564209,7.881999969482422 14.50100040435791,8.553999900817871 14.50100040435791,9.496000289916992 C14.50100040435791,10.14900016784668 14.270000457763672,10.704000473022461 13.871999740600586,11.123000144958496 C13.486000061035156,11.531000137329102 12.977999687194824,11.776000022888184 12.46399974822998,11.899999618530273 C11.454000473022461,12.142999649047852 10.23900032043457,11.963000297546387 9.34000015258789,11.373000144958496 C9.020861625671387,11.135842323303223 8.941876411437988,10.69103717803955 9.1598539352417,10.358502388000488 C9.37783145904541,10.025967597961426 9.817220687866211,9.920958518981934 10.161999702453613,10.119000434875488 C10.696000099182129,10.468999862670898 11.482000350952148,10.593000411987305 12.11299991607666,10.440999984741211 C12.418999671936035,10.368000030517578 12.642999649047852,10.239999771118164 12.782999992370605,10.092000007629395 C12.911999702453613,9.956000328063965 13.00100040435791,9.772000312805176 13.00100040435791,9.496000289916992 C13.00100040435791,9.187999725341797 12.878000259399414,8.987000465393066 12.557000160217285,8.817999839782715 C12.184000015258789,8.621000289916992 11.57699966430664,8.5 10.75100040435791,8.5 C10.447858810424805,8.499732971191406 10.174684524536133,8.317005157470703 10.05871295928955,8.0369234085083 C9.942741394042969,7.756842136383057 10.006779670715332,7.4344868659973145 10.220999717712402,7.21999979019165 L11.940999984741211,5.5 L9.75,5.5 C9.335786819458008,5.5 9,5.16421365737915 9,4.75 Z M5.413000106811523,10.512999534606934 C5.063000202178955,10.463000297546387 4.64300012588501,10.62600040435791 4.429999828338623,11.085000038146973 C4.320666313171387,11.333702087402344 4.085387229919434,11.503833770751953 3.8149526119232178,11.529746055603027 C3.544517755508423,11.555658340454102 3.2812132835388184,11.43329906463623 3.1266424655914307,11.209884643554688 C3.0383927822113037,11.082328796386719 2.993464708328247,10.933219909667969 2.9934146404266357,10.783350944519043 L2.9934146404266357,10.782849311828613 C2.993452310562134,10.67038631439209 3.018761396408081,10.557507514953613 3.069999933242798,10.45300006866455 C3.578000068664551,9.359000205993652 4.658999919891357,8.887999534606934 5.627999782562256,9.027999877929688 C6.627999782562256,9.17300033569336 7.5,9.972999572753906 7.5,11.25 C7.5,12.682999610900879 6.4120001792907715,13.442000389099121 5.710000038146973,13.930999755859375 C5.4019999504089355,14.147000312805176 5.138999938964844,14.32800006866455 4.938000202178955,14.503999710083008 L7,14.503999710083008 C7.41421365737915,14.503999710083008 7.75,14.839786529541016 7.75,15.253999710083008 C7.75,15.641899108886719 7.455523490905762,15.961018562316895 7.0779290199279785,16 L3.6720712184906006,16 C3.2944769859313965,15.961018562316895 3,15.641899108886719 3,15.253999710083008 C3,14.564000129699707 3.299999952316284,14.043000221252441 3.6700000762939453,13.644000053405762 C4.01800012588501,13.272000312805176 4.46999979019165,12.968000411987305 4.820000171661377,12.723999977111816 C5.619999885559082,12.163999557495117 6,11.819999694824219 6,11.25 C6,10.777000427246094 5.732999801635742,10.5600004196167 5.413000106811523,10.512999534606934 Z M5.604000091552734,0.08900000154972076 C5.847745895385742,0.2194993942975998 5.999926567077637,0.4735182225704193 6,0.75 L6,5.519999980926514 L6.710999965667725,5.519999980926514 C7.125213623046875,5.519999980926514 7.460999965667725,5.855786323547363 7.460999965667725,6.269999980926514 C7.460999965667725,6.684213638305664 7.125213623046875,7.019999980926514 6.710999965667725,7.019999980926514 L3.759000062942505,7.019999980926514 C3.3447864055633545,7.019999980926514 3.009000062942505,6.684213638305664 3.009000062942505,6.269999980926514 C3.009000062942505,5.855786323547363 3.3447864055633545,5.519999980926514 3.759000062942505,5.519999980926514 L4.5,5.519999980926514 L4.5,2.1500000953674316 L4.165999889373779,2.372999906539917 C3.8215439319610596,2.5972063541412354 3.3608036041259766,2.5024209022521973 3.1328234672546387,2.1604509353637695 C2.90484356880188,1.8184809684753418 2.9945573806762695,1.3567261695861816 3.3340001106262207,1.125 L4.834000110626221,0.125 C4.949095249176025,0.04830874502658844 5.080624580383301,0.00640617311000824 5.213860511779785,0 L5.285991191864014,0 C5.395337104797363,0.005258400458842516 5.504045009613037,0.03446173295378685 5.604000091552734,0.08799999952316284 Z"/>
</svg>
