<svg xmlns="http://www.w3.org/2000/svg" width="24" height="24" viewBox="0 0 24 24">
  <defs/>
  <path d="M13.003,7.754 A0.75 0.75 0 0 1 13.753,7.004 L18.985,7.004 A0.75 0.75 0 0 1 19.515,8.284 L16.739,11.061 C17.289,11.158 17.796,11.314 18.231,11.544 C19.136,12.021 19.735,12.828 19.735,13.962 C19.735,14.928 19.264,15.712 18.563,16.232 C17.876,16.743 16.976,17.002 16.042,17.002 C14.675,17.002 13.768,16.474 13.375,16.246 A0.75 0.75 0 0 1 14.13,14.949 C14.461,15.142 15.083,15.502 16.042,15.502 C16.715,15.502 17.285,15.314 17.669,15.029 C18.039,14.754 18.235,14.394 18.235,13.962 C18.235,13.462 18.016,13.126 17.532,12.871 C16.994,12.587 16.157,12.428 15.061,12.428 A0.75 0.75 0 0 1 14.531,11.148 L17.174,8.504 L13.753,8.504 A0.75 0.75 0 0 1 13.003,7.754 Z M7.88,15.215 A1.4 1.4 0 0 0 6.434,16.045 A0.75 0.75 0 0 1 5.064,15.435 A2.899 2.899 0 0 1 8.05,13.725 C8.639,13.785 9.189,14.048 9.607,14.468 C10.041,14.914 10.292,15.526 10.292,16.246 C10.292,17.887 9.038,18.683 8.172,19.232 C7.634,19.573 6.992,19.926 6.677,20.505 L9.75,20.505 A0.75 0.75 0 0 1 9.75,22.005 L5.75,22.005 A0.75 0.75 0 0 1 5,21.255 C5,19.456 6.337,18.625 7.243,18.045 C8.275,17.386 8.793,17.014 8.793,16.245 C8.793,15.89 8.677,15.661 8.533,15.513 A1.071 1.071 0 0 0 7.881,15.215 Z M8.114,2.094 A0.75 0.75 0 0 1 8.5,2.75 L8.5,9 L9.752,9 A0.75 0.75 0 0 1 9.752,10.5 L5.75,10.5 A0.75 0.75 0 0 1 5.75,9 L7,9 L7,4.103 L6.147,4.636 A0.749 0.749 0 1 1 5.352,3.364 L7.352,2.114 A0.749 0.749 0 0 1 8.114,2.094 Z"/>
</svg>
