<svg xmlns="http://www.w3.org/2000/svg" width="24" height="24" viewBox="0 0 24 24">
  <defs/>
  <path d="M6.25,12 A0.75 0.75 0 0 0 6.25,13.5 L6.75,13.5 A0.75 0.75 0 0 0 6.75,12 L6.25,12 Z M5.5,9.25 A0.75 0.75 0 0 1 6.25,8.5 L6.75,8.5 A0.75 0.75 0 0 1 6.75,10 L6.25,10 A0.75 0.75 0 0 1 5.5,9.25 Z M6.25,5 A0.75 0.75 0 0 0 6.25,6.5 L6.75,6.5 A0.75 0.75 0 0 0 6.75,5 L6.25,5 Z M9,12.75 A0.75 0.75 0 0 1 9.75,12 L10.25,12 A0.75 0.75 0 0 1 10.25,13.5 L9.75,13.5 A0.75 0.75 0 0 1 9,12.75 Z M9.75,8.5 A0.75 0.75 0 0 0 9.75,10 L10.25,10 A0.75 0.75 0 0 0 10.25,8.5 L9.75,8.5 Z M9,5.75 A0.75 0.75 0 0 1 9.75,5 L10.25,5 A0.75 0.75 0 0 1 10.25,6.5 L9.75,6.5 A0.75 0.75 0 0 1 9,5.75 Z M13.25,12 A0.75 0.75 0 0 0 13.25,13.5 L13.75,13.5 A0.75 0.75 0 0 0 13.75,12 L13.25,12 Z M12.5,9.25 A0.75 0.75 0 0 1 13.25,8.5 L13.75,8.5 A0.75 0.75 0 0 1 13.75,10 L13.25,10 A0.75 0.75 0 0 1 12.5,9.25 Z M13.25,5 A0.75 0.75 0 0 0 13.25,6.5 L13.75,6.5 A0.75 0.75 0 0 0 13.75,5 L13.25,5 Z"/>
  <path d="M2,20 L2,3 A2 2 0 0 1 4,1 L16,1 A2 2 0 0 1 18,3 L18,20 C18,20.173 17.978,20.34 17.937,20.5 L20,20.5 A0.5 0.5 0 0 0 20.5,20 L20.5,12 A0.5 0.5 0 0 0 20.3,11.6 L19.8,11.225 A0.75 0.75 0 0 1 20.7,10.025 L21.2,10.4 C21.704,10.778 22,11.37 22,12 L22,20 A2 2 0 0 1 20,22 L16.438,22 A0.767 0.767 0 0 1 16.272,21.982 C16.183,21.994 16.092,22 16,22 L12.25,22 A0.75 0.75 0 0 1 11.5,21.25 L11.5,19 L8.5,19 L8.5,21.25 A0.75 0.75 0 0 1 7.75,22 L4,22 A2 2 0 0 1 2,20 Z M4,20.5 L7,20.5 L7,18.25 A0.75 0.75 0 0 1 7.75,17.5 L12.25,17.5 A0.75 0.75 0 0 1 13,18.25 L13,20.5 L16,20.5 A0.5 0.5 0 0 0 16.5,20 L16.5,3 A0.5 0.5 0 0 0 16,2.5 L4,2.5 A0.5 0.5 0 0 0 3.5,3 L3.5,20 A0.5 0.5 0 0 0 4,20.5 Z"/>
</svg>
