<svg xmlns="http://www.w3.org/2000/svg" width="16" height="16" viewBox="0 0 16 16">
  <defs/>
  <path d="M1.75,16 A1.75 1.75 0 0 1 0,14.25 L0,1.75 C0,0.784 0.784,0 1.75,0 L10.25,0 C11.216,0 12,0.784 12,1.75 L12,14.25 C12,14.335 11.994,14.418 11.982,14.5 L14.25,14.5 A0.25 0.25 0 0 0 14.5,14.25 L14.5,8.285 A0.25 0.25 0 0 0 14.389,8.077 L13.334,7.374 A0.749 0.749 0 1 1 14.166,6.126 L15.221,6.829 C15.708,7.154 16,7.7 16,8.285 L16,14.25 A1.75 1.75 0 0 1 14.25,16 L10.75,16 A0.766 0.766 0 0 1 10.553,15.974 C10.454,15.991 10.353,16 10.25,16 L7.25,16 A0.75 0.75 0 0 1 6.5,15.25 L6.5,14 L5.5,14 L5.5,15.25 A0.75 0.75 0 0 1 4.75,16 Z M1.5,14.25 C1.5,14.388 1.612,14.5 1.75,14.5 L4,14.5 L4,13.25 A0.75 0.75 0 0 1 4.75,12.5 L7.25,12.5 A0.75 0.75 0 0 1 8,13.25 L8,14.5 L10.25,14.5 A0.25 0.25 0 0 0 10.5,14.25 L10.5,1.75 A0.25 0.25 0 0 0 10.25,1.5 L1.75,1.5 A0.25 0.25 0 0 0 1.5,1.75 Z M3.75,6 L4.25,6 A0.75 0.75 0 0 1 4.25,7.5 L3.75,7.5 A0.75 0.75 0 0 1 3.75,6 Z M3,3.75 A0.75 0.75 0 0 1 3.75,3 L4.25,3 A0.75 0.75 0 0 1 4.25,4.5 L3.75,4.5 A0.75 0.75 0 0 1 3,3.75 Z M7,6.75 A0.75 0.75 0 0 1 7.75,6 L8.25,6 A0.75 0.75 0 0 1 8.25,7.5 L7.75,7.5 A0.75 0.75 0 0 1 7,6.75 Z M7.75,3 L8.25,3 A0.75 0.75 0 0 1 8.25,4.5 L7.75,4.5 A0.75 0.75 0 0 1 7.75,3 Z M3,9.75 A0.75 0.75 0 0 1 3.75,9 L4.25,9 A0.75 0.75 0 0 1 4.25,10.5 L3.75,10.5 A0.75 0.75 0 0 1 3,9.75 Z M7.75,9 L8.25,9 A0.75 0.75 0 0 1 8.25,10.5 L7.75,10.5 A0.75 0.75 0 0 1 7.75,9 Z"/>
</svg>
