<svg xmlns="http://www.w3.org/2000/svg" width="16" height="16" viewBox="0 0 16 16">
  <defs/>
  <path d="M6.122000217437744,0.3919999897480011 C6.393439292907715,0.23456692695617676 6.696635723114014,0.15583640336990356 6.999838352203369,0.1558084487915039 L7.000161647796631,0.1558084487915039 C7.303364276885986,0.15583640336990356 7.606560707092285,0.23456692695617676 7.877999782562256,0.3919999897480011 L13.128000259399414,3.437000036239624 C13.668000221252441,3.75 14,4.327000141143799 14,4.951000213623047 L14,7.25 C14,7.66421365737915 13.664213180541992,8 13.25,8 C12.835786819458008,8 12.5,7.66421365737915 12.5,7.25 L12.5,5.677000045776367 L7.75,8.432000160217285 L7.75,14.815999984741211 C7.750047206878662,15.173702239990234 7.559030055999756,15.504188537597656 7.249056339263916,15.68270206451416 C6.939082622528076,15.861215591430664 6.5573649406433105,15.860566139221191 6.248000144958496,15.680999755859375 L0.871999979019165,12.562999725341797 C0.3322911262512207,12.249971389770508 6.829096673754975e-05,11.673282623291016 0,11.049385070800781 L0,4.951000213623047 C0,4.327000141143799 0.3319999873638153,3.750999927520752 0.871999979019165,3.437000036239624 Z M7.125,1.690000057220459 C7.047761917114258,1.6449251174926758 6.952238082885742,1.6449251174926758 6.875,1.690000057220459 L2.244999885559082,4.375 L7,7.132999897003174 L11.755000114440918,4.375 Z M1.5,11.048999786376953 C1.5001806020736694,11.13813591003418 1.5478061437606812,11.22043228149414 1.625,11.265000343322754 L6.25,13.947999954223633 L6.25,8.432000160217285 L1.5,5.677000045776367 Z M12.32800006866455,14.732999801635742 L13.50100040435791,13.5 L10.25,13.5 C9.835786819458008,13.5 9.5,13.164213180541992 9.5,12.75 C9.5,12.335786819458008 9.835786819458008,12 10.25,12 L13.50100040435791,12 L12.32800006866455,10.767000198364258 C12.042469024658203,10.466833114624023 12.054333686828613,9.99203109741211 12.354499816894531,9.706500053405762 C12.654666900634766,9.420969009399414 13.12946891784668,9.432833671569824 13.414999961853027,9.732999801635742 L15.793000221252441,12.232999801635742 C16.06855583190918,12.522590637207031 16.06855583190918,12.977409362792969 15.793000221252441,13.267000198364258 L13.414999961853027,15.767000198364258 C13.270929336547852,15.918455123901367 13.078673362731934,15.996511459350586 12.884976387023926,16 L12.85779094696045,16 C12.67663288116455,15.996736526489258 12.496127128601074,15.928221702575684 12.354499816894531,15.793499946594238 C12.054333686828613,15.50796890258789 12.042469024658203,15.033166885375977 12.32800006866455,14.732999801635742 Z"/>
</svg>
