<svg xmlns="http://www.w3.org/2000/svg" width="24" height="24" viewBox="0 0 24 24">
  <defs/>
  <path d="M9.126,0.64 A1.748 1.748 0 0 1 10.876,0.64 L19.126,5.402 C19.229,5.462 19.325,5.53 19.412,5.608 A0.75 0.75 0 0 1 19.966,6.568 C19.989,6.681 20.001,6.798 20.001,6.918 L20.001,10.25 A0.75 0.75 0 0 1 18.501,10.25 L18.501,7.64 L10.751,12.114 L10.751,22.36 A0.75 0.75 0 0 1 9.626,23.01 L0.876,17.958 A1.75 1.75 0 0 1 0.001,16.443 L0.001,6.917 C0.001,6.798 0.013,6.681 0.036,6.567 A0.749 0.749 0 0 1 0.59,5.607 C0.678,5.529 0.774,5.461 0.876,5.402 L9.126,0.639 Z M10.001,10.813 L10.001,10.814 L17.751,6.34 L10.126,1.938 A0.248 0.248 0 0 0 9.876,1.938 L2.251,6.34 Z M1.501,7.638 L1.501,16.441 C1.501,16.531 1.549,16.613 1.626,16.657 L9.251,21.059 L9.251,12.112 Z"/>
  <path d="M21.347,17.5 L18.453,14.798 A0.75 0.75 0 1 1 19.476,13.702 L23.762,17.702 A0.75 0.75 0 0 1 23.762,18.798 L19.476,22.798 A0.75 0.75 0 1 1 18.453,21.702 L21.347,19 L14.714,19 A0.75 0.75 0 0 1 14.714,17.5 L21.347,17.5 Z"/>
</svg>
