<svg xmlns="http://www.w3.org/2000/svg" width="16" height="16" viewBox="0 0 16 16">
  <defs/>
  <path d="M8.878,0.392 L14.128,3.437 C14.668,3.751 15,4.327 15,4.951 L15,11.049 A1.75 1.75 0 0 1 14.128,12.563 L8.878,15.608 A1.75 1.75 0 0 1 7.122,15.608 L1.872,12.563 A1.75 1.75 0 0 1 1,11.049 L1,4.951 C1,4.327 1.332,3.75 1.872,3.437 L7.122,0.392 A1.75 1.75 0 0 1 8.878,0.392 Z M7.875,1.69 L3.245,4.375 L8,7.133 L12.755,4.375 L8.125,1.69 A0.248 0.248 0 0 0 7.875,1.69 Z M2.5,5.677 L2.5,11.049 C2.5,11.139 2.547,11.22 2.625,11.265 L7.25,13.948 L7.25,8.432 Z M8.75,13.948 L13.375,11.265 A0.25 0.25 0 0 0 13.5,11.049 L13.5,5.677 L8.75,8.432 Z"/>
</svg>
