<svg xmlns="http://www.w3.org/2000/svg" width="16" height="16" viewBox="0 0 16 16">
  <defs/>
  <path d="M6.122000217437744,0.3919999897480011 C6.393439292907715,0.23456692695617676 6.696635723114014,0.15583640336990356 6.999838352203369,0.1558084487915039 L7.000161647796631,0.1558084487915039 C7.303364276885986,0.15583640336990356 7.606560707092285,0.23456692695617676 7.877999782562256,0.3919999897480011 L13.128000259399414,3.437000036239624 C13.668000221252441,3.75 14,4.327000141143799 14,4.951000213623047 L14,7.25 C14,7.66421365737915 13.664213180541992,8 13.25,8 C12.835786819458008,8 12.5,7.66421365737915 12.5,7.25 L12.5,5.677000045776367 L7.75,8.432000160217285 L7.75,14.815999984741211 C7.750047206878662,15.173702239990234 7.559030055999756,15.504188537597656 7.249056339263916,15.68270206451416 C6.939082622528076,15.861215591430664 6.5573649406433105,15.860566139221191 6.248000144958496,15.680999755859375 L0.871999979019165,12.562999725341797 C0.3322911262512207,12.249971389770508 6.829096673754975e-05,11.673282623291016 0,11.049385070800781 L0,4.951000213623047 C0,4.327000141143799 0.3319999873638153,3.750999927520752 0.871999979019165,3.437000036239624 Z M7.125,1.690000057220459 C7.047761917114258,1.6449251174926758 6.952238082885742,1.6449251174926758 6.875,1.690000057220459 L2.244999885559082,4.375 L7,7.132999897003174 L11.755000114440918,4.375 Z M1.5,11.048999786376953 C1.5001806020736694,11.13813591003418 1.5478061437606812,11.22043228149414 1.625,11.265000343322754 L6.25,13.947999954223633 L6.25,8.432000160217285 L1.5,5.677000045776367 Z M13.17199993133545,10.767000198364258 L11.99899959564209,12 L15.25,12 C15.664213180541992,12 16,12.335786819458008 16,12.75 C16,13.164213180541992 15.664213180541992,13.5 15.25,13.5 L11.99899959564209,13.5 L13.17199993133545,14.732999801635742 C13.457530975341797,15.033166885375977 13.445666313171387,15.50796890258789 13.145500183105469,15.793499946594238 C13.003872871398926,15.928221702575684 12.82336711883545,15.996736526489258 12.64220905303955,16 L12.615023612976074,16 C12.421326637268066,15.996511459350586 12.229070663452148,15.918455123901367 12.085000038146973,15.767000198364258 L9.706999778747559,13.267000198364258 C9.43144416809082,12.977409362792969 9.43144416809082,12.522590637207031 9.706999778747559,12.232999801635742 L12.085000038146973,9.732999801635742 C12.37053108215332,9.432833671569824 12.845333099365234,9.420969009399414 13.145500183105469,9.706500053405762 C13.445666313171387,9.99203109741211 13.457530975341797,10.466833114624023 13.17199993133545,10.767000198364258 Z"/>
</svg>
