<svg xmlns="http://www.w3.org/2000/svg" width="24" height="24" viewBox="0 0 24 24">
  <defs/>
  <path d="M19.642,6.653 C18.332,8.465 16.391,10.513 14.697,12.228 L14.606,12.32 L11.916,9.63 L12.014,9.532 C13.704,7.822 15.746,5.876 17.558,4.57 C18.469,3.913 19.273,3.455 19.911,3.252 C20.563,3.045 20.826,3.161 20.95,3.285 C21.063,3.398 21.181,3.652 20.969,4.305 C20.762,4.94 20.301,5.741 19.642,6.653 Z M10.9,10.736 L13.505,13.341 C12.625,14.095 11.821,14.635 11.127,14.996 A4.832 4.832 0 0 0 9.235,13.106 C9.595,12.416 10.138,11.624 10.9,10.736 Z M7.814,12.592 A4.825 4.825 0 0 0 3.484,13.92 C2.959,14.445 2.604,15.222 2.354,15.999 C2.098,16.794 1.924,17.681 1.813,18.506 A19.055 19.055 0 0 0 1.64,20.722 C1.636,21.022 1.643,21.289 1.662,21.5 C1.671,21.604 1.684,21.712 1.706,21.81 C1.716,21.86 1.733,21.923 1.759,21.99 C1.779,22.041 1.833,22.168 1.949,22.285 C2.066,22.402 2.194,22.455 2.246,22.475 C2.312,22.501 2.376,22.518 2.424,22.529 C2.523,22.55 2.631,22.564 2.734,22.573 C2.945,22.592 3.213,22.598 3.513,22.594 C4.116,22.586 4.903,22.534 5.729,22.422 C6.554,22.31 7.44,22.137 8.236,21.882 C9.012,21.632 9.789,21.276 10.315,20.75 A4.825 4.825 0 0 0 11.642,16.417 C12.851,15.817 14.264,14.799 15.763,13.282 C17.457,11.568 19.472,9.447 20.856,7.532 C21.544,6.58 22.114,5.628 22.394,4.768 C22.668,3.926 22.728,2.942 22.01,2.224 C21.29,1.505 20.307,1.552 19.455,1.823 C18.59,2.098 17.633,2.666 16.679,3.353 C14.759,4.737 12.643,6.76 10.946,8.478 C9.446,9.996 8.416,11.374 7.814,12.592 Z M9.254,14.98 A3.33 3.33 0 0 1 9.254,19.69 C8.983,19.96 8.48,20.227 7.776,20.453 C7.092,20.673 6.299,20.831 5.528,20.935 C4.759,21.039 4.033,21.087 3.493,21.095 A9.247 9.247 0 0 1 3.142,21.093 A9.182 9.182 0 0 1 3.14,20.743 C3.147,20.201 3.195,19.476 3.3,18.707 C3.404,17.936 3.561,17.143 3.781,16.458 C4.008,15.755 4.274,15.252 4.545,14.98 A3.33 3.33 0 0 1 9.255,14.98 Z"/>
</svg>
