<svg xmlns="http://www.w3.org/2000/svg" width="16" height="16" viewBox="0 0 16 16">
  <defs/>
  <path d="M11.133999824523926,1.534999966621399 C11.833999633789062,1.0260000228881836 12.550000190734863,0.5929999947547913 13.210000038146973,0.3799999952316284 C13.474871635437012,0.29429417848587036 13.767226219177246,0.2340727001428604 14.061708450317383,0.2340727001428604 C14.488779067993164,0.2340727001428604 14.92032241821289,0.3607306480407715 15.279000282287598,0.7200000286102295 C15.647385597229004,1.0871635675430298 15.777653694152832,1.532331109046936 15.777653694152832,1.9734187126159668 C15.777653694152832,2.254335403442383 15.72481632232666,2.533596992492676 15.647000312805176,2.7899999618530273 C15.444999694824219,3.4579999446868896 15.02299976348877,4.179999828338623 14.522000312805176,4.886000156402588 C13.51099967956543,6.309999942779541 12.026000022888184,7.873000144958496 10.746999740600586,9.135000228881836 C9.64900016784668,10.218999862670898 8.614999771118164,10.973999977111816 7.706999778747559,11.4350004196167 C7.887943744659424,12.61417293548584 7.496109962463379,13.808988571166992 6.6519999504089355,14.652000427246094 C6.2210001945495605,15.083000183105469 5.586999893188477,15.343000411987305 4.994999885559082,15.512999534606934 C4.38100004196167,15.6899995803833 3.7009999752044678,15.800000190734863 3.0810000896453857,15.869999885559082 C2.3225693702697754,15.95450496673584 1.5601210594177246,15.997901916503906 0.796999990940094,16 L0.7429999709129333,16 L0.75,15.25 L0.7490000128746033,15.25 L0.7419999837875366,16 C0.3442704975605011,15.996310234069824 0.020617753267288208,15.683354377746582 0,15.28978443145752 L0,15.257989883422852 L0.7419999837875366,15.25 L0,15.256999969482422 L0,15.20300006866455 C0.0022909999825060368,14.439885139465332 0.045687202364206314,13.677446365356445 0.12999999523162842,12.918999671936035 C0.19699999690055847,12.272000312805176 0.31700000166893005,11.631999969482422 0.4880000054836273,11.005000114440918 C0.6579999923706055,10.413999557495117 0.9179999828338623,9.779000282287598 1.3480000495910645,9.347999572753906 C2.1936023235321045,8.501452445983887 3.392733573913574,8.109793663024902 4.574999809265137,8.293999671936035 C5.040999889373779,7.401000022888184 5.800000190734863,6.38700008392334 6.888999938964844,5.311999797821045 C8.15999984741211,4.057000160217285 9.722000122070312,2.562000036239624 11.133999824523926,1.534999966621399 Z M1.6200000047683716,13.08899974822998 C1.569000005722046,13.553000450134277 1.534000039100647,14.017999649047852 1.5160000324249268,14.484000205993652 C1.9819999933242798,14.465999603271484 2.447999954223633,14.430999755859375 2.9119999408721924,14.380000114440918 C3.475417137145996,14.322108268737793 4.033233165740967,14.218771934509277 4.579999923706055,14.071000099182129 C5.105999946594238,13.920000076293945 5.435999870300293,13.746000289916992 5.591000080108643,13.590999603271484 C6.469685077667236,12.71231460571289 6.469685077667236,11.28768539428711 5.591000080108643,10.409000396728516 C4.712315082550049,9.530315399169922 3.2876851558685303,9.530315399169922 2.4089999198913574,10.409000396728516 C2.253999948501587,10.564000129699707 2.0799999237060547,10.894000053405762 1.9290000200271606,11.418999671936035 C1.7811394929885864,11.966423988342285 1.677802562713623,12.524911880493164 1.6200000047683716,13.08899974822998 Z M12.015999794006348,2.749000072479248 C10.791999816894531,3.6389999389648438 9.41100025177002,4.938000202178955 8.194000244140625,6.132999897003174 L9.911999702453613,7.85099983215332 C11.121999740600586,6.645999908447266 12.42199993133545,5.254000186920166 13.298999786376953,4.01800012588501 C13.769000053405762,3.3559999465942383 14.079000473022461,2.7909998893737793 14.211000442504883,2.3559999465942383 C14.345000267028809,1.9119999408721924 14.243000030517578,1.8049999475479126 14.220000267028809,1.781000018119812 L14.218999862670898,1.781000018119812 L14.218999862670898,1.7799999713897705 C14.204999923706055,1.7660000324249268 14.105999946594238,1.6670000553131104 13.670999526977539,1.8070000410079956 C13.23900032043457,1.9470000267028809 12.675999641418457,2.2690000534057617 12.015999794006348,2.749000072479248 Z M7.184000015258789,10.015000343322754 L7.183000087738037,10.015999794006348 C7.763463497161865,9.691289901733398 8.309578895568848,9.308673858642578 8.812999725341797,8.87399959564209 L7.15500020980835,7.216000080108643 C6.7141313552856445,7.710608959197998 6.325099945068359,8.2490873336792 5.99399995803833,8.822999954223633 C6.47599983215332,9.125 6.882999897003174,9.532999992370605 7.184000015258789,10.015000343322754 Z"/>
</svg>
