<svg xmlns="http://www.w3.org/2000/svg" width="24" height="24" viewBox="0 0 24 24">
  <defs/>
  <path d="M19.187,3.588 A2.75 2.75 0 0 0 15.298,3.588 L5.575,13.31 A4.5 4.5 0 0 0 11.939,19.674 L20.601,11.012 A0.75 0.75 0 0 1 21.662,12.072 L13,20.735 A6 6 0 0 1 4.515,12.25 L14.238,2.527 A4.247 4.247 0 0 1 18.362,1.388 A4.247 4.247 0 0 1 21.387,4.413 A4.247 4.247 0 0 1 20.248,8.537 L11.055,17.73 A2.64 2.64 0 0 1 9.197,18.509 A2.626 2.626 0 0 1 7.343,17.73 C7.147,17.534 7.005,17.26 6.913,17.004 A2.822 2.822 0 0 1 6.745,16.058 C6.745,15.358 7.029,14.685 7.52,14.194 L15.652,6.063 A0.749 0.749 0 0 1 16.927,6.389 A0.749 0.749 0 0 1 16.712,7.123 L8.581,15.255 A1.148 1.148 0 0 0 8.245,16.058 C8.248,16.262 8.298,16.463 8.391,16.645 C8.401,16.663 8.409,16.673 8.411,16.677 C8.631,16.892 8.912,17.009 9.197,17.009 C9.487,17.009 9.777,16.888 9.995,16.669 L19.187,7.477 A2.75 2.75 0 0 0 19.187,3.587 Z"/>
</svg>
