<svg xmlns="http://www.w3.org/2000/svg" width="16" height="16" viewBox="0 0 16 16">
  <defs/>
  <path d="M12.212,3.02 A1.753 1.753 0 0 0 9.734,3.023 L3.904,8.853 A3.007 3.007 0 0 0 3.024,10.98 C3.024,11.775 3.339,12.531 3.904,13.096 C4.471,13.663 5.237,13.986 6.03,13.986 C6.82,13.986 7.578,13.665 8.146,13.096 L13.626,7.616 A0.75 0.75 0 0 1 14.687,8.676 L9.207,14.156 A4.492 4.492 0 0 1 6.03,15.486 C4.83,15.486 3.685,14.999 2.843,14.156 A4.483 4.483 0 0 1 1.523,10.979 C1.523,9.784 1.998,8.638 2.843,7.793 L8.673,1.963 A3.25 3.25 0 0 1 14.226,4.26 C14.226,5.123 13.883,5.951 13.273,6.561 L7.439,12.39 C7.064,12.767 6.555,12.98 6.023,12.983 A1.998 1.998 0 0 1 4.611,12.39 A1.992 1.992 0 0 1 4.611,9.562 L10.091,4.082 A0.751 0.751 0 0 1 11.133,4.1 A0.751 0.751 0 0 1 11.151,5.142 L5.671,10.622 A0.492 0.492 0 0 0 5.671,11.329 A0.499 0.499 0 0 0 6.023,11.483 A0.51 0.51 0 0 0 6.379,11.329 L12.212,5.502 A1.755 1.755 0 0 0 12.212,3.021 Z"/>
</svg>
