<svg xmlns="http://www.w3.org/2000/svg" width="24" height="24" viewBox="0 0 24 24">
  <defs/>
  <path d="M9.496,2 A5.25 5.25 0 0 0 6.977,11.857 A9.006 9.006 0 0 0 0.5,20.228 A0.751 0.751 0 0 0 1.228,21 L6.485,21 C9.823,21.001 13.162,21.002 16.5,21 A0.5 0.5 0 0 0 17,20.5 L17,15.831 A0.95 0.95 0 0 0 16.829,15.28 A9.02 9.02 0 0 0 12.015,11.857 A5.25 5.25 0 0 0 9.496,2 Z"/>
  <path d="M23.625,10.313 C23.625,11.623 22.953,12.777 21.934,13.447 A0.398 0.398 0 0 0 21.75,13.777 L21.75,14.663 A0.372 0.372 0 0 1 21.64,14.928 L21.106,15.462 A0.188 0.188 0 0 0 21.106,15.727 L21.64,16.261 C21.711,16.331 21.75,16.427 21.75,16.526 L21.75,16.873 A0.374 0.374 0 0 1 21.64,17.138 L21.106,17.672 A0.188 0.188 0 0 0 21.106,17.937 L21.64,18.471 A0.37 0.37 0 0 1 21.75,18.736 L21.75,19.167 A0.379 0.379 0 0 1 21.653,19.42 L20.453,20.739 A0.781 0.781 0 0 1 19.297,20.739 L18.097,19.42 A0.379 0.379 0 0 1 18,19.167 L18,13.777 A0.398 0.398 0 0 0 17.816,13.447 A3.75 3.75 0 1 1 23.625,10.313 Z M21,9.75 A1.125 1.125 0 1 0 18.75,9.75 A1.125 1.125 0 0 0 21,9.75 Z"/>
</svg>
