<svg xmlns="http://www.w3.org/2000/svg" width="16" height="16" viewBox="0 0 16 16">
  <defs/>
  <path d="M2.743,4.757 A3.757 3.757 0 1 1 8.594,7.876 A5.991 5.991 0 0 1 10.744,9.259 C10.914,9.429 11.001,9.664 11.002,9.905 C11.005,10.503 11.003,11.102 11.002,11.7 L11,12.778 L11,13.499 A0.5 0.5 0 0 1 10.5,13.999 L1.221,13.999 A0.749 0.749 0 0 1 0.507,13.215 A6.004 6.004 0 0 1 4.406,7.876 A3.754 3.754 0 0 1 2.743,4.757 Z"/>
  <path d="M15.75,6.875 C15.75,7.749 15.302,8.518 14.623,8.965 A0.265 0.265 0 0 0 14.5,9.185 L14.5,9.775 C14.5,9.842 14.474,9.905 14.427,9.952 L14.071,10.308 A0.125 0.125 0 0 0 14.071,10.485 L14.427,10.841 C14.474,10.888 14.5,10.951 14.5,11.017 L14.5,11.248 C14.5,11.315 14.474,11.378 14.427,11.425 L14.071,11.781 A0.125 0.125 0 0 0 14.071,11.958 L14.427,12.314 C14.474,12.361 14.5,12.424 14.5,12.491 L14.5,12.778 A0.247 0.247 0 0 1 14.435,12.946 L13.635,13.826 A0.52 0.52 0 0 1 12.865,13.826 L12.065,12.946 A0.247 0.247 0 0 1 12,12.778 L12,9.185 A0.264 0.264 0 0 0 11.877,8.965 A2.5 2.5 0 1 1 15.75,6.875 Z M14,6.5 A0.75 0.75 0 1 0 12.5,6.5 A0.75 0.75 0 0 0 14,6.5 Z"/>
</svg>
