<svg xmlns="http://www.w3.org/2000/svg" width="24" height="24" viewBox="0 0 24 24">
  <defs/>
  <path d="M5.962,2.513 A0.75 0.75 0 0 1 5.487,3.462 L4.671,3.734 A0.25 0.25 0 0 0 4.5,3.971 L4.5,21.25 C4.5,21.388 4.612,21.5 4.75,21.5 L19.25,21.5 A0.25 0.25 0 0 0 19.5,21.25 L19.5,3.97 A0.25 0.25 0 0 0 19.33,3.734 L18.513,3.462 A0.75 0.75 0 0 1 18.987,2.038 L19.803,2.311 A1.751 1.751 0 0 1 21,3.97 L21,21.25 A1.75 1.75 0 0 1 19.25,23 L4.75,23 A1.75 1.75 0 0 1 3,21.25 L3,3.97 A1.75 1.75 0 0 1 4.197,2.31 L5.013,2.038 A0.75 0.75 0 0 1 5.962,2.513 Z"/>
  <path d="M7,1.75 C7,0.784 7.784,0 8.75,0 L15.25,0 C16.216,0 17,0.784 17,1.75 L17,3.25 A1.75 1.75 0 0 1 15.25,5 L8.75,5 A1.75 1.75 0 0 1 7,3.25 Z M8.75,1.5 A0.25 0.25 0 0 0 8.5,1.75 L8.5,3.25 C8.5,3.388 8.612,3.5 8.75,3.5 L15.25,3.5 A0.25 0.25 0 0 0 15.5,3.25 L15.5,1.75 A0.25 0.25 0 0 0 15.25,1.5 Z"/>
</svg>
