<svg xmlns="http://www.w3.org/2000/svg" width="16" height="16" viewBox="0 0 16 16">
  <defs/>
  <path d="M3.626,3.533 A0.249 0.249 0 0 0 3.5,3.75 L3.5,13.25 C3.5,13.388 3.612,13.5 3.75,13.5 L12.25,13.5 A0.25 0.25 0 0 0 12.5,13.25 L12.5,3.75 A0.249 0.249 0 0 0 12.374,3.533 A0.75 0.75 0 0 1 13.126,2.235 C13.667,2.548 14,3.125 14,3.75 L14,13.25 A1.75 1.75 0 0 1 12.25,15 L3.75,15 A1.75 1.75 0 0 1 2,13.25 L2,3.75 C2,3.125 2.333,2.548 2.874,2.235 A0.75 0.75 0 0 1 3.626,3.533 Z M5.75,1 L10.25,1 A0.75 0.75 0 0 1 11,1.75 L11,4.75 A0.75 0.75 0 0 1 10.25,5.5 L5.75,5.5 A0.75 0.75 0 0 1 5,4.75 L5,1.75 A0.75 0.75 0 0 1 5.75,1 Z M6.5,4 L9.5,4 L9.5,2.5 L6.5,2.5 Z"/>
</svg>
