<svg xmlns="http://www.w3.org/2000/svg" width="16" height="16" viewBox="0 0 16 16">
  <defs/>
  <path d="M11.013,1.427 A1.75 1.75 0 0 1 13.487,1.427 L14.573,2.513 A1.75 1.75 0 0 1 14.573,4.987 L5.963,13.597 C5.753,13.807 5.493,13.961 5.207,14.042 L1.956,14.972 A0.75 0.75 0 0 1 1.029,14.044 L1.958,10.794 C2.039,10.508 2.193,10.247 2.403,10.036 L11.013,1.426 Z M11.189,6.25 L9.75,4.81 L3.464,11.097 A0.253 0.253 0 0 0 3.4,11.205 L2.842,13.158 L4.795,12.6 A0.253 0.253 0 0 0 4.903,12.536 Z M12.427,2.487 A0.25 0.25 0 0 0 12.073,2.487 L10.811,3.75 L12.25,5.19 L13.513,3.927 A0.25 0.25 0 0 0 13.513,3.573 Z"/>
</svg>
