<svg xmlns="http://www.w3.org/2000/svg" width="24" height="24" viewBox="0 0 24 24">
  <defs/>
  <path d="M17.263,2.177 A1.75 1.75 0 0 1 19.737,2.177 L22.323,4.763 A1.75 1.75 0 0 1 22.323,7.237 L19.53,10.03 L19.518,10.043 L8.69,20.378 A1.753 1.753 0 0 1 7.991,20.787 L2.468,22.467 A0.748 0.748 0 0 1 1.721,22.279 A0.748 0.748 0 0 1 1.533,21.532 L3.206,16.032 A1.75 1.75 0 0 1 3.672,15.276 L14.476,4.963 Z M4.708,16.361 A0.26 0.26 0 0 0 4.641,16.469 L3.377,20.623 L7.554,19.352 A0.253 0.253 0 0 0 7.654,19.293 L17.927,9.487 L14.987,6.548 L4.708,16.361 Z M19,8.44 L21.263,6.178 A0.25 0.25 0 0 0 21.263,5.824 L18.677,3.238 A0.25 0.25 0 0 0 18.323,3.238 L16.061,5.5 Z"/>
</svg>
