<svg xmlns="http://www.w3.org/2000/svg" width="24" height="24" viewBox="0 0 24 24">
  <defs/>
  <path d="M3.5,8 A5.5 5.5 0 1 1 12.096,12.547 A9.005 9.005 0 0 1 17.996,20.727 A0.751 0.751 0 0 1 16.496,20.772 A7.5 7.5 0 0 0 1.503,20.772 A0.75 0.75 0 0 1 0.004,20.728 A9.005 9.005 0 0 1 5.904,12.547 A5.496 5.496 0 0 1 3.5,8 Z M9,4 A4 4 0 1 0 9,12 A4 4 0 0 0 9,4 Z M17.29,8 C17.142,8 16.998,8.01 16.856,8.03 A0.75 0.75 0 1 1 16.644,6.546 A4.53 4.53 0 0 1 20.024,14.643 A6.69 6.69 0 0 1 23.98,20.75 A0.75 0.75 0 0 1 22.48,20.75 A5.193 5.193 0 0 0 18.784,15.778 L18.25,15.618 L18.25,13.942 L18.66,13.733 A3.03 3.03 0 0 0 17.29,8 Z"/>
</svg>
