<svg xmlns="http://www.w3.org/2000/svg" width="16" height="16" viewBox="0 0 16 16">
  <defs/>
  <path d="M2,5.5 A3.5 3.5 0 1 1 7.898,8.049 A5.508 5.508 0 0 1 10.932,12.133 A0.75 0.75 0 1 1 9.45,12.368 A4 4 0 0 0 1.55,12.368 A0.75 0.75 0 0 1 0.068,12.132 A5.507 5.507 0 0 1 3.102,8.05 A3.493 3.493 0 0 1 2,5.5 Z M11,4 A3.001 3.001 0 0 1 13.22,9.018 A5.01 5.01 0 0 1 15.78,12.03 A0.749 0.749 0 0 1 14.895,12.984 A0.752 0.752 0 0 1 14.346,12.47 A3.507 3.507 0 0 0 11.824,10.098 A0.75 0.75 0 0 1 11.25,9.368 L11.25,9.016 A0.75 0.75 0 0 1 11.666,8.344 A1.5 1.5 0 0 0 11,5.5 A0.75 0.75 0 0 1 11,4 Z M5.5,3.5 A2 2 0 1 0 5.499,7.499 A2 2 0 0 0 5.5,3.5 Z"/>
</svg>
