<svg xmlns="http://www.w3.org/2000/svg" width="24" height="24" viewBox="0 0 24 24">
  <defs/>
  <path d="M4,9.5 A5 5 0 1 1 11.916,13.562 A7.973 7.973 0 0 1 16.934,20.728 A0.75 0.75 0 1 1 15.435,20.772 A6.469 6.469 0 0 0 2.503,20.772 A0.75 0.75 0 0 1 1.004,20.728 A7.972 7.972 0 0 1 6.063,13.547 A4.994 4.994 0 0 1 4,9.5 Z M9,6 A3.5 3.5 0 1 0 9,13 A3.5 3.5 0 0 0 9,6 Z M19.25,1 A0.75 0.75 0 0 1 20,1.75 L20,4 L22.25,4 A0.75 0.75 0 0 1 22.25,5.5 L20,5.5 L20,7.75 A0.75 0.75 0 0 1 18.5,7.75 L18.5,5.5 L16.25,5.5 A0.75 0.75 0 0 1 16.25,4 L18.5,4 L18.5,1.75 A0.75 0.75 0 0 1 19.25,1 Z"/>
</svg>
