<svg xmlns="http://www.w3.org/2000/svg" width="16" height="16" viewBox="0 0 16 16">
  <defs/>
  <path d="M7.900000095367432,8.54800033569336 L7.89900016784668,8.54800033569336 C9.700135231018066,9.424633026123047 10.886112213134766,11.207042694091797 10.99899959564209,13.206999778747559 C11.022747993469238,13.620661735534668 10.706661224365234,13.975252151489258 10.293000221252441,13.99899959564209 C9.879338264465332,14.022747993469238 9.524747848510742,13.706661224365234 9.50100040435791,13.293000221252441 C9.385783195495605,11.16698169708252 7.6291375160217285,9.50165843963623 5.5,9.5 C3.3708627223968506,9.50165843963623 1.6142170429229736,11.16698169708252 1.4989999532699585,13.293000221252441 C1.4755278825759888,13.706661224365234 1.1211613416671753,14.022972106933594 0.7074999809265137,13.999500274658203 C0.3145599365234375,13.977203369140625 0.009461619891226292,13.656332015991211 0,13.269682884216309 L0,13.232643127441406 C0.00019983851234428585,13.224453926086426 0.0005325335077941418,13.216238975524902 0.0010000000474974513,13.208000183105469 C0.11332502216100693,11.207606315612793 1.2994191646575928,9.424639701843262 3.1010000705718994,8.54800033569336 C2.0564897060394287,7.5643720626831055 1.7180821895599365,6.042888641357422 2.2471890449523926,4.70925760269165 C2.7762956619262695,3.375626802444458 4.065743446350098,2.499981164932251 5.500500202178955,2.499981164932251 C6.935256481170654,2.499981164932251 8.22470474243164,3.375626802444458 8.75381088256836,4.70925760269165 C9.282917976379395,6.042888641357422 8.944510459899902,7.5643720626831055 7.900000095367432,8.54800033569336 Z M13.25,0 C13.664213180541992,0 14,0.3357864320278168 14,0.75 L14,2 L15.25,2 C15.664213180541992,2 16,2.3357863426208496 16,2.75 C16,3.1642136573791504 15.664213180541992,3.5 15.25,3.5 L14,3.5 L14,4.75 C14,5.16421365737915 13.664213180541992,5.5 13.25,5.5 C12.835786819458008,5.5 12.5,5.16421365737915 12.5,4.75 L12.5,3.5 L11.25,3.5 C10.835786819458008,3.5 10.5,3.1642136573791504 10.5,2.75 C10.5,2.3357863426208496 10.835786819458008,2 11.25,2 L12.5,2 L12.5,0.75 C12.5,0.3357864320278168 12.835786819458008,0 13.25,0 Z M5.5,4 C4.7749924659729,3.983604907989502 4.097911834716797,4.360952377319336 3.7304880619049072,4.986176013946533 C3.3630642890930176,5.6113996505737305 3.362870454788208,6.386531352996826 3.7299814224243164,7.01193904876709 C4.097092628479004,7.6373467445373535 4.773984432220459,8.015032768249512 5.499000072479248,7.999000072479248 C6.585879802703857,7.974965572357178 7.454512119293213,7.08713436126709 7.454784393310547,5.999989032745361 C7.455056190490723,4.912843227386475 6.586867809295654,4.024578094482422 5.5,4 Z"/>
</svg>
