<svg xmlns="http://www.w3.org/2000/svg" width="16" height="16" viewBox="0 0 16 16">
  <defs/>
  <path d="M11.294,0.984 L15.016,4.706 A1.75 1.75 0 0 1 14.512,7.532 L13.185,8.145 A3.089 3.089 0 0 0 11.478,10.229 L10.894,12.683 C10.577,14.015 8.922,14.483 7.954,13.515 L5.75,11.311 L1.78,15.28 A0.749 0.749 0 1 1 0.72,14.22 L4.689,10.25 L2.485,8.046 C1.517,7.078 1.985,5.423 3.317,5.106 L5.771,4.522 A3.08 3.08 0 0 0 7.855,2.815 L8.468,1.488 A1.75 1.75 0 0 1 11.294,0.984 Z M6.283,9.723 L9.015,12.454 A0.25 0.25 0 0 0 9.435,12.335 L10.019,9.881 A4.586 4.586 0 0 1 12.556,6.783 L13.884,6.17 A0.25 0.25 0 0 0 13.956,5.766 L10.234,2.044 A0.25 0.25 0 0 0 9.83,2.116 L9.217,3.444 A4.584 4.584 0 0 1 6.119,5.981 L3.665,6.565 A0.25 0.25 0 0 0 3.546,6.985 L6.277,9.717 Z"/>
</svg>
