<svg xmlns="http://www.w3.org/2000/svg" width="24" height="24" viewBox="0 0 24 24">
  <defs/>
  <path d="M2.345,20.595 L8.47,14.47 Q8.689,14.25 9,14.25 Q9.311,14.25 9.53,14.47 Q9.75,14.689 9.75,15 Q9.75,15.311 9.53,15.53 L3.405,21.655 Q3.186,21.875 2.875,21.875 Q2.564,21.875 2.345,21.655 Q2.125,21.436 2.125,21.125 Q2.125,20.814 2.345,20.595 Z"/>
  <path d="M16.72,11.97 L17.078,11.612 A6.738 6.738 0 0 1 19.404,10.094 L21.3,9.356 A0.25 0.25 0 0 0 21.386,8.947 L15.053,2.614 A0.25 0.25 0 0 0 14.644,2.7 L14.123,4.04 A8.663 8.663 0 0 1 11.88,7.305 A0.75 0.75 0 0 1 10.87,6.195 A7.132 7.132 0 0 0 12.724,3.496 L13.245,2.156 A1.75 1.75 0 0 1 16.114,1.553 L22.447,7.886 A1.75 1.75 0 0 1 21.844,10.755 L19.948,11.492 A5.26 5.26 0 0 0 18.138,12.672 L17.78,13.03 A0.749 0.749 0 1 1 16.72,11.97 Z M4.171,11.232 A1.75 1.75 0 0 1 4.928,8.312 L8.294,7.35 L8.706,8.793 L5.34,9.754 A0.25 0.25 0 0 0 5.232,10.171 L13.829,18.768 A0.25 0.25 0 0 0 14.246,18.66 L15.207,15.294 L16.65,15.706 L15.688,19.072 A1.75 1.75 0 0 1 12.768,19.829 Z"/>
  <path d="M3.405,2.095 L22.155,20.845 Q22.375,21.064 22.375,21.375 Q22.375,21.686 22.155,21.905 Q21.936,22.125 21.625,22.125 Q21.314,22.125 21.095,21.905 L2.345,3.155 Q2.125,2.936 2.125,2.625 Q2.125,2.314 2.345,2.095 Q2.564,1.875 2.875,1.875 Q3.186,1.875 3.405,2.095 Z"/>
</svg>
