<svg xmlns="http://www.w3.org/2000/svg" width="24" height="24" viewBox="0 0 24 24">
  <defs/>
  <path d="M16.114,1.553 L22.447,7.886 A1.75 1.75 0 0 1 21.844,10.755 L20.214,11.388 A5.67 5.67 0 0 0 16.819,15.113 L15.688,19.072 A1.75 1.75 0 0 1 12.768,19.829 L9,16.061 L3.405,21.655 A0.749 0.749 0 1 1 2.345,20.595 L7.939,15 L4.171,11.232 A1.75 1.75 0 0 1 4.928,8.312 L8.887,7.181 A5.666 5.666 0 0 0 12.612,3.786 L13.245,2.156 A1.75 1.75 0 0 1 16.114,1.553 Z M5.232,10.171 L13.829,18.768 A0.25 0.25 0 0 0 14.246,18.66 L15.377,14.701 A7.17 7.17 0 0 1 19.67,9.99 L21.3,9.356 A0.25 0.25 0 0 0 21.386,8.947 L15.053,2.614 A0.25 0.25 0 0 0 14.644,2.7 L14.01,4.33 A7.17 7.17 0 0 1 9.299,8.623 L5.34,9.754 A0.25 0.25 0 0 0 5.232,10.171 Z"/>
</svg>
