<svg xmlns="http://www.w3.org/2000/svg" width="16" height="16" viewBox="0 0 16 16">
  <defs/>
  <path d="M1.655,0.595 L15.405,14.345 Q15.625,14.564 15.625,14.875 Q15.625,15.186 15.405,15.405 Q15.186,15.625 14.875,15.625 Q14.564,15.625 14.345,15.405 L0.595,1.655 Q0.375,1.436 0.375,1.125 Q0.375,0.814 0.595,0.595 Q0.814,0.375 1.125,0.375 Q1.436,0.375 1.655,0.595 Z M0.72,14.22 L5.22,9.72 Q5.439,9.5 5.75,9.5 Q6.061,9.5 6.28,9.72 Q6.5,9.939 6.5,10.25 Q6.5,10.561 6.28,10.78 L1.78,15.28 Q1.561,15.5 1.25,15.5 Q0.939,15.5 0.72,15.28 Q0.5,15.061 0.5,14.75 Q0.5,14.439 0.72,14.22 Z"/>
  <path d="M5.424,6.146 L3.665,6.565 Q3.522,6.599 3.482,6.74 Q3.442,6.881 3.546,6.985 L9.015,12.454 Q9.119,12.558 9.26,12.518 Q9.401,12.478 9.435,12.335 L9.794,10.826 Q9.866,10.524 10.131,10.361 Q10.395,10.198 10.698,10.27 Q11,10.342 11.163,10.607 Q11.325,10.871 11.253,11.174 L10.894,12.683 Q10.656,13.682 9.668,13.961 Q8.68,14.241 7.954,13.515 L2.485,8.046 Q1.759,7.32 2.039,6.332 Q2.318,5.344 3.317,5.106 L5.076,4.687 Q5.379,4.615 5.643,4.778 Q5.908,4.941 5.98,5.243 Q6.052,5.545 5.889,5.81 Q5.726,6.074 5.424,6.146 Z M7.47,3.47 Q7.625,3.314 7.717,3.115 L8.468,1.488 Q8.851,0.659 9.75,0.498 Q10.649,0.338 11.294,0.984 L15.016,4.706 Q15.662,5.351 15.502,6.25 Q15.341,7.149 14.512,7.532 L12.885,8.283 Q12.686,8.375 12.53,8.53 Q12.311,8.75 12,8.75 Q11.689,8.75 11.47,8.53 Q11.25,8.311 11.25,8 Q11.25,7.689 11.47,7.47 Q11.814,7.125 12.257,6.921 L13.884,6.17 Q14.002,6.115 14.025,5.987 Q14.048,5.859 13.956,5.766 L10.234,2.044 Q10.142,1.952 10.013,1.975 Q9.885,1.998 9.83,2.116 L9.079,3.743 Q8.875,4.186 8.53,4.53 Q8.311,4.75 8,4.75 Q7.689,4.75 7.47,4.53 Q7.25,4.311 7.25,4 Q7.25,3.689 7.47,3.47 Z"/>
</svg>
