<svg xmlns="http://www.w3.org/2000/svg" width="16" height="16" viewBox="0 0 16 16">
  <defs/>
  <path d="M0,1.75 C0,0.784 0.784,0 1.75,0 L14.25,0 C15.217,0 16,0.784 16,1.75 L16,7.25 A0.75 0.75 0 0 1 14.5,7.25 L14.5,6.5 L6.5,6.5 L6.5,14.5 L7.25,14.5 A0.75 0.75 0 0 1 7.25,16 L1.75,16 A1.75 1.75 0 0 1 0,14.25 Z M1.5,6.5 L1.5,14.25 C1.5,14.388 1.612,14.5 1.75,14.5 L5,14.5 L5,6.5 Z M6.5,5 L14.5,5 L14.5,1.75 A0.25 0.25 0 0 0 14.25,1.5 L6.5,1.5 Z M5,5 L5,1.5 L1.75,1.5 A0.25 0.25 0 0 0 1.5,1.75 L1.5,5 Z"/>
  <path d="M11.017,9.89 L8.135,12.567 A0.249 0.249 0 0 0 8.135,12.933 L11.017,15.61 A0.25 0.25 0 0 0 11.438,15.427 L11.438,13.5 L12.5,13.5 A3.5 3.5 0 0 0 16,10 A0.75 0.75 0 0 0 14.5,10 A2 2 0 0 1 12.5,12 L11.438,12 L11.438,10.073 A0.25 0.25 0 0 0 11.017,9.89 Z"/>
</svg>
