<svg xmlns="http://www.w3.org/2000/svg" width="24" height="24" viewBox="0 0 24 24">
  <defs/>
  <path d="M2,3.75 C2,2.783 2.783,2 3.75,2 L20.25,2 C21.216,2 22,2.783 22,3.75 L22,10 A0.75 0.75 0 0 1 20.5,10 L20.5,8.75 L8.75,8.75 L8.75,20.5 L10,20.5 A0.75 0.75 0 0 1 10,22 L3.75,22 A1.75 1.75 0 0 1 2,20.25 Z M8.75,3.5 L8.75,7.25 L20.5,7.25 L20.5,3.75 A0.25 0.25 0 0 0 20.25,3.5 Z M7.25,20.5 L7.25,8.75 L3.5,8.75 L3.5,20.25 C3.5,20.388 3.612,20.5 3.75,20.5 Z M3.5,7.25 L7.25,7.25 L7.25,3.5 L3.75,3.5 A0.25 0.25 0 0 0 3.5,3.75 Z"/>
  <path d="M21.25,12.312 A0.75 0.75 0 0 1 22,13.062 L22,15.688 A3.75 3.75 0 0 1 18.25,19.438 L14.748,19.438 L16.78,21.47 A0.749 0.749 0 1 1 15.72,22.53 L12.47,19.28 A0.749 0.749 0 0 1 12.47,18.22 L15.72,14.97 A0.749 0.749 0 1 1 16.78,16.03 L14.873,17.938 L18.25,17.938 A2.25 2.25 0 0 0 20.5,15.688 L20.5,13.062 A0.75 0.75 0 0 1 21.25,12.312 Z"/>
</svg>
