<svg xmlns="http://www.w3.org/2000/svg" width="24" height="24" viewBox="0 0 24 24">
  <defs/>
  <path d="M7,11.5 L2.938,11.5 C2.144,11.5 1.5,12.144 1.5,12.937 L1.5,21.25 A0.75 0.75 0 0 1 0,21.25 L0,12.938 A2.939 2.939 0 0 1 2.937,10 L7,10 L7,6.151 C7,5.254 7.678,4.503 8.57,4.411 L14.625,3.785 L15.631,2.611 A1.752 1.752 0 0 1 16.96,2 L18.25,2 C19.216,2 20,2.784 20,3.75 L20,6 L23.25,6 A0.75 0.75 0 0 1 23.25,7.5 L20,7.5 L20,14 L23.25,14 A0.75 0.75 0 0 1 23.25,15.5 L20,15.5 L20,17.75 A1.75 1.75 0 0 1 18.25,19.5 L16.96,19.5 A1.75 1.75 0 0 1 15.631,18.889 L14.625,17.715 L8.57,17.088 A1.749 1.749 0 0 1 7,15.348 Z M16.77,3.587 L16.77,3.588 L15.569,4.988 A0.75 0.75 0 0 1 15.077,5.246 L8.724,5.903 A0.25 0.25 0 0 0 8.5,6.152 L8.5,15.348 A0.25 0.25 0 0 0 8.724,15.597 L15.077,16.254 C15.268,16.274 15.445,16.366 15.57,16.512 L16.77,17.913 A0.252 0.252 0 0 0 16.96,18 L18.25,18 A0.25 0.25 0 0 0 18.5,17.75 L18.5,3.75 A0.25 0.25 0 0 0 18.25,3.5 L16.96,3.5 A0.252 0.252 0 0 0 16.77,3.587 Z"/>
</svg>
