<svg xmlns="http://www.w3.org/2000/svg" width="16" height="16" viewBox="0 0 16 16">
  <defs/>
  <path d="M4,8 L2.5,8 C1.9477152824401855,8 1.5,8.447714805603027 1.5,9 L1.5,14.25 C1.5,14.664213180541992 1.1642135381698608,15 0.75,15 C0.3357864320278168,15 0,14.664213180541992 0,14.25 L0,9 C0,7.619287967681885 1.1192880868911743,6.5 2.5,6.5 L4,6.5 L4,5.132999897003174 C3.9997446537017822,4.250217914581299 4.657031059265137,3.505465030670166 5.5329999923706055,3.3959999084472656 L8.36400032043457,3.0429999828338623 L9.12399959564209,2.130000114440918 C9.456000328063965,1.7300000190734863 9.949000358581543,1.5 10.468000411987305,1.5 L11.25,1.5 C12.215999603271484,1.5 13,2.2839999198913574 13,3.25 L13,4 L15.25,4 C15.664213180541992,4 16,4.33578634262085 16,4.75 C16,5.16421365737915 15.664213180541992,5.5 15.25,5.5 L13,5.5 L13,9.5 L15.25,9.5 C15.664213180541992,9.5 16,9.835786819458008 16,10.25 C16,10.664213180541992 15.664213180541992,11 15.25,11 L13,11 L13,11.75 C13,12.716498374938965 12.216498374938965,13.5 11.25,13.5 L10.468000411987305,13.5 C9.949000358581543,13.5 9.456000328063965,13.270000457763672 9.12399959564209,12.869999885559082 L8.36299991607666,11.958000183105469 L5.5329999923706055,11.604000091552734 C4.657031059265137,11.494535446166992 3.9997446537017822,10.749781608581543 4,9.866999626159668 Z M10.276000022888184,3.0899999141693115 L9.326000213623047,4.230000019073486 C9.204254150390625,4.37617301940918 9.031693458557129,4.47084903717041 8.843000411987305,4.494999885559082 L5.718999862670898,4.885000228881836 C5.5939154624938965,4.900630950927734 5.500035762786865,5.0069427490234375 5.5,5.132999897003174 L5.5,9.866999626159668 C5.5,9.993000030517578 5.593999862670898,10.100000381469727 5.718999862670898,10.116000175476074 L8.843000411987305,10.505999565124512 C9.031578063964844,10.529796600341797 9.204150199890137,10.62412166595459 9.326000213623047,10.770000457763672 L10.276000022888184,11.90999984741211 C10.323476791381836,11.967000961303711 10.393816947937012,11.999972343444824 10.468000411987305,12 L11.25,12 C11.388071060180664,12 11.5,11.888071060180664 11.5,11.75 L11.5,3.25 C11.5,3.111928701400757 11.388071060180664,3 11.25,3 L10.468000411987305,3 C10.393816947937012,3.000027894973755 10.323476791381836,3.0329995155334473 10.276000022888184,3.0899999141693115 Z"/>
</svg>
