<svg xmlns="http://www.w3.org/2000/svg" width="16" height="16" viewBox="0 0 16 16">
  <defs/>
  <path d="M1.5,1.75 L1.5,3.312 A0.75 0.75 0 1 1 0,3.312 L0,1.75 C0,0.784 0.784,0 1.75,0 L3.312,0 A0.75 0.75 0 1 1 3.312,1.5 L1.75,1.5 A0.25 0.25 0 0 0 1.5,1.75 Z M6.438,0 L9.562,0 A0.75 0.75 0 1 1 9.562,1.5 L6.438,1.5 A0.75 0.75 0 1 1 6.438,0 Z M12.688,0 L14.25,0 C15.217,0 16,0.784 16,1.75 L16,3.312 A0.75 0.75 0 1 1 14.5,3.312 L14.5,1.75 A0.25 0.25 0 0 0 14.25,1.5 L12.688,1.5 A0.75 0.75 0 1 1 12.688,0 Z M1.5,6.438 L1.5,9.562 A0.75 0.75 0 1 1 0,9.562 L0,6.438 A0.75 0.75 0 1 1 1.5,6.438 Z M16,6.438 L16,9.562 A0.75 0.75 0 1 1 14.5,9.562 L14.5,6.438 A0.75 0.75 0 1 1 16,6.438 Z M1.5,12.688 L1.5,14.25 C1.5,14.388 1.612,14.5 1.75,14.5 L3.312,14.5 A0.75 0.75 0 1 1 3.312,16 L1.75,16 A1.75 1.75 0 0 1 0,14.25 L0,12.688 A0.75 0.75 0 1 1 1.5,12.688 Z M16,12.688 L16,14.25 A1.75 1.75 0 0 1 14.25,16 L12.688,16 A0.75 0.75 0 1 1 12.688,14.5 L14.25,14.5 A0.25 0.25 0 0 0 14.5,14.25 L14.5,12.688 A0.75 0.75 0 1 1 16,12.688 Z M6.438,14.5 L9.562,14.5 A0.75 0.75 0 1 1 9.562,16 L6.438,16 A0.75 0.75 0 1 1 6.438,14.5 Z M6.5,3 L6.5,4 A0.75 0.75 0 0 1 5,4 L5,3 A0.75 0.75 0 0 1 6.5,3 Z M2.25,5.75 A0.75 0.75 0 0 1 3,5 L4,5 A0.75 0.75 0 0 1 4,6.5 L3,6.5 A0.75 0.75 0 0 1 2.25,5.75 Z M6.75,5.75 A0.75 0.75 0 0 1 7.5,5 L8.5,5 A0.75 0.75 0 0 1 8.5,6.5 L7.5,6.5 A0.75 0.75 0 0 1 6.75,5.75 Z M5.75,6.75 A0.75 0.75 0 0 1 6.5,7.5 L6.5,8.5 A0.75 0.75 0 0 1 5,8.5 L5,7.5 A0.75 0.75 0 0 1 5.75,6.75 Z M6.5,10.75 L6.5,13.25 A0.75 0.75 0 0 1 5,13.25 L5,10.75 A0.75 0.75 0 0 1 6.5,10.75 Z M10,5.75 A0.75 0.75 0 0 1 10.75,5 L13.25,5 A0.75 0.75 0 0 1 13.25,6.5 L10.75,6.5 A0.75 0.75 0 0 1 10,5.75 Z"/>
</svg>
