<svg xmlns="http://www.w3.org/2000/svg" width="24" height="24" viewBox="0 0 24 24">
  <defs/>
  <path d="M3.75,3.5 A0.25 0.25 0 0 0 3.5,3.75 L3.5,5.812 A0.75 0.75 0 1 1 2,5.812 L2,3.75 C2,2.783 2.783,2 3.75,2 L5.812,2 A0.75 0.75 0 1 1 5.812,3.5 Z M17.438,2.75 A0.75 0.75 0 0 1 18.188,2 L20.25,2 C21.216,2 22,2.783 22,3.75 L22,5.812 A0.75 0.75 0 1 1 20.5,5.812 L20.5,3.75 A0.25 0.25 0 0 0 20.25,3.5 L18.188,3.5 A0.75 0.75 0 0 1 17.438,2.75 Z M2.75,17.438 A0.75 0.75 0 0 1 3.5,18.188 L3.5,20.25 C3.5,20.388 3.612,20.5 3.75,20.5 L5.812,20.5 A0.75 0.75 0 1 1 5.812,22 L3.75,22 A1.75 1.75 0 0 1 2,20.25 L2,18.188 A0.75 0.75 0 0 1 2.75,17.438 Z M21.25,17.438 A0.75 0.75 0 0 1 22,18.188 L22,20.25 A1.75 1.75 0 0 1 20.25,22 L18.188,22 A0.75 0.75 0 1 1 18.188,20.5 L20.25,20.5 A0.25 0.25 0 0 0 20.5,20.25 L20.5,18.188 A0.75 0.75 0 0 1 21.25,17.438 Z M2.75,9.188 A0.75 0.75 0 0 1 3.5,9.938 L3.5,14.062 A0.75 0.75 0 1 1 2,14.062 L2,9.938 A0.75 0.75 0 0 1 2.75,9.188 Z M9.188,2.75 A0.75 0.75 0 0 1 9.938,2 L14.062,2 A0.75 0.75 0 1 1 14.062,3.5 L9.938,3.5 A0.75 0.75 0 0 1 9.188,2.75 Z M9.188,21.25 A0.75 0.75 0 0 1 9.938,20.5 L14.062,20.5 A0.75 0.75 0 1 1 14.062,22 L9.938,22 A0.75 0.75 0 0 1 9.188,21.25 Z M21.25,9.188 A0.75 0.75 0 0 1 22,9.938 L22,14.062 A0.75 0.75 0 1 1 20.5,14.062 L20.5,9.938 A0.75 0.75 0 0 1 21.25,9.188 Z M3.75,8.25 A0.75 0.75 0 0 1 4.5,7.5 L6.5,7.5 A0.75 0.75 0 0 1 6.5,9 L4.5,9 A0.75 0.75 0 0 1 3.75,8.25 Z M9.25,8.25 A0.75 0.75 0 0 1 10,7.5 L12,7.5 A0.75 0.75 0 0 1 12,9 L10,9 A0.75 0.75 0 0 1 9.25,8.25 Z M8.25,3.75 A0.75 0.75 0 0 1 9,4.5 L9,6.5 A0.75 0.75 0 0 1 7.5,6.5 L7.5,4.5 A0.75 0.75 0 0 1 8.25,3.75 Z M8.25,9.25 A0.75 0.75 0 0 1 9,10 L9,12 A0.75 0.75 0 0 1 7.5,12 L7.5,10 A0.75 0.75 0 0 1 8.25,9.25 Z M8.25,14 A0.75 0.75 0 0 1 9,14.75 L9,18.75 A0.75 0.75 0 0 1 7.5,18.75 L7.5,14.75 A0.75 0.75 0 0 1 8.25,14 Z M14,8.25 A0.75 0.75 0 0 1 14.75,7.5 L18.75,7.5 A0.75 0.75 0 0 1 18.75,9 L14.75,9 A0.75 0.75 0 0 1 14,8.25 Z"/>
</svg>
