<svg xmlns="http://www.w3.org/2000/svg" width="16" height="16" viewBox="0 0 16 16">
  <defs/>
  <path d="M4.75,7 A0.75 0.75 0 0 0 4.75,8.5 L9.25,8.5 A0.75 0.75 0 0 0 9.25,7 L4.75,7 Z M5,4.75 A0.75 0.75 0 0 1 5.75,4 L11.25,4 A0.75 0.75 0 0 1 11.25,5.5 L5.75,5.5 A0.75 0.75 0 0 1 5,4.75 Z M6.75,10 A0.75 0.75 0 0 0 6.75,11.5 L11.25,11.5 A0.75 0.75 0 0 0 11.25,10 L6.75,10 Z"/>
  <path d="M0,1.75 C0,0.784 0.784,0 1.75,0 L14.25,0 C15.216,0 16,0.784 16,1.75 L16,14.25 A1.75 1.75 0 0 1 14.25,16 L1.75,16 A1.75 1.75 0 0 1 0,14.25 Z M1.75,1.5 A0.25 0.25 0 0 0 1.5,1.75 L1.5,14.25 C1.5,14.388 1.612,14.5 1.75,14.5 L14.25,14.5 A0.25 0.25 0 0 0 14.5,14.25 L14.5,1.75 A0.25 0.25 0 0 0 14.25,1.5 Z"/>
</svg>
