<svg xmlns="http://www.w3.org/2000/svg" width="16" height="16" viewBox="0 0 16 16">
  <defs/>
  <path d="M1.75,0 L14.25,0 C15.216,0 16,0.784 16,1.75 L16,14.25 A1.75 1.75 0 0 1 14.25,16 L1.75,16 A1.75 1.75 0 0 1 0,14.25 L0,1.75 C0,0.784 0.784,0 1.75,0 Z M1.5,1.75 L1.5,14.25 C1.5,14.388 1.612,14.5 1.75,14.5 L14.25,14.5 A0.25 0.25 0 0 0 14.5,14.25 L14.5,1.75 A0.25 0.25 0 0 0 14.25,1.5 L1.75,1.5 A0.25 0.25 0 0 0 1.5,1.75 Z M11.75,3 A0.75 0.75 0 0 1 12.5,3.75 L12.5,11.25 A0.75 0.75 0 0 1 11,11.25 L11,3.75 A0.75 0.75 0 0 1 11.75,3 Z M3.5,3.75 A0.75 0.75 0 0 1 5,3.75 L5,9.25 A0.75 0.75 0 0 1 3.5,9.25 Z M8,3 A0.75 0.75 0 0 1 8.75,3.75 L8.75,7.25 A0.75 0.75 0 0 1 7.25,7.25 L7.25,3.75 A0.75 0.75 0 0 1 8,3 Z"/>
</svg>
