<svg xmlns="http://www.w3.org/2000/svg" width="16" height="16" viewBox="0 0 16 16">
  <defs/>
  <path d="M0,8 A8 8 0 1 1 16,8 A8 8 0 0 1 0,8 Z M8,1.5 A6.5 6.5 0 1 0 8,14.5 A6.5 6.5 0 0 0 8,1.5 Z M6.92,6.085 L6.921,6.085 A0.749 0.749 0 1 1 5.579,5.415 C5.748,5.076 6.015,4.714 6.428,4.438 C6.845,4.16 7.369,4 8,4 A2.756 2.756 0 0 1 9.637,4.525 C10.14,4.902 10.5,5.49 10.5,6.25 C10.5,6.698 10.385,7.08 10.171,7.4 C9.966,7.707 9.701,7.913 9.479,8.062 C9.37,8.134 9.259,8.2 9.166,8.257 L9.16,8.261 A6.24 6.24 0 0 0 8.9,8.421 A0.952 0.952 0 0 0 8.624,8.666 A0.75 0.75 0 0 1 7.376,7.834 C7.56,7.57 7.796,7.345 8.068,7.173 C8.171,7.106 8.275,7.041 8.381,6.978 L8.388,6.974 C8.488,6.913 8.57,6.864 8.646,6.813 A0.969 0.969 0 0 0 8.923,6.568 C8.96,6.514 9,6.427 9,6.25 A0.612 0.612 0 0 0 8.738,5.725 A1.27 1.27 0 0 0 8,5.5 C7.631,5.5 7.405,5.59 7.26,5.687 A1.01 1.01 0 0 0 6.92,6.085 Z M9,11 A1 1 0 1 1 7,11 A1 1 0 0 1 9,11 Z"/>
</svg>
