<svg xmlns="http://www.w3.org/2000/svg" width="24" height="24" viewBox="0 0 24 24">
  <defs/>
  <path d="M3,6.25 A0.75 0.75 0 0 1 3.75,5.5 L17.25,5.5 A0.75 0.75 0 0 1 17.25,7 L3.75,7 A0.75 0.75 0 0 1 3,6.25 Z M8,12.313 A0.75 0.75 0 0 1 8.75,11.563 L20.25,11.563 A0.75 0.75 0 0 1 20.25,13.063 L8.75,13.063 A0.75 0.75 0 0 1 8,12.313 Z M8,18.25 A0.75 0.75 0 0 1 8.75,17.5 L20.25,17.5 A0.75 0.75 0 0 1 20.25,19 L8.75,19 A0.75 0.75 0 0 1 8,18.25 Z M3.75,11 A0.75 0.75 0 0 1 4.5,11.75 L4.5,18.75 A0.75 0.75 0 0 1 3,18.75 L3,11.75 A0.75 0.75 0 0 1 3.75,11 Z"/>
</svg>
