<svg xmlns="http://www.w3.org/2000/svg" width="16" height="16" viewBox="0 0 16 16">
  <defs/>
  <path d="M7.115,0.65 A1.752 1.752 0 0 1 8.885,0.65 L15.135,4.313 C15.671,4.627 16,5.202 16,5.823 L16,12.25 A1.75 1.75 0 0 1 14.25,14 L1.75,14 A1.75 1.75 0 0 1 0,12.25 L0,5.823 C0,5.202 0.33,4.627 0.865,4.313 Z M8.126,1.943 A0.252 0.252 0 0 0 7.874,1.943 L2.154,5.296 L6.468,7.76 A2.748 2.748 0 0 1 9.534,7.76 L13.846,5.296 L8.127,1.943 Z M13.15,12.5 L8.772,9.06 A1.25 1.25 0 0 0 7.228,9.06 L2.85,12.5 Z M14.5,6.65 L10.813,8.756 L14.5,11.653 Z M5.187,8.756 L1.5,6.65 L1.5,11.653 Z"/>
</svg>
