<svg xmlns="http://www.w3.org/2000/svg" width="24" height="24" viewBox="0 0 24 24">
  <defs/>
  <path d="M10.89,1.767 A2.252 2.252 0 0 1 13.11,1.767 L22.86,7.292 A2.25 2.25 0 0 1 24,9.249 L24,18.75 A2.25 2.25 0 0 1 21.75,21 L2.25,21 A2.25 2.25 0 0 1 0,18.75 L0,9.25 C0,8.44 0.435,7.692 1.14,7.292 Z M12.37,3.072 A0.75 0.75 0 0 0 11.63,3.072 L2.314,8.352 L9.724,12.585 A3.75 3.75 0 0 1 14.277,12.585 L21.687,8.351 L12.37,3.071 Z M20.65,19.5 L13.39,13.796 A2.25 2.25 0 0 0 10.61,13.796 L3.35,19.5 Z M22.5,9.614 L15.55,13.585 L22.213,18.821 C22.302,18.891 22.374,18.98 22.423,19.081 A0.745 0.745 0 0 0 22.5,18.75 Z M8.45,13.585 L1.5,9.614 L1.5,18.75 C1.5,18.869 1.528,18.98 1.576,19.08 A0.744 0.744 0 0 1 1.786,18.821 Z"/>
</svg>
