<svg xmlns="http://www.w3.org/2000/svg" width="24" height="24" viewBox="0 0 24 24">
  <defs/>
  <path d="M14.72,2.22 A0.75 0.75 0 0 1 15.78,2.22 L22.03,8.47 A0.75 0.75 0 0 1 22.03,9.53 L15.78,15.78 A0.75 0.75 0 1 1 14.72,14.72 L19.69,9.75 L8.25,9.75 C7.453,9.75 6.242,9.995 5.25,10.709 C4.298,11.395 3.5,12.544 3.5,14.5 C3.5,16.456 4.298,17.605 5.25,18.291 C6.242,19.005 7.453,19.25 8.25,19.25 L11.25,19.25 A0.75 0.75 0 0 1 11.25,20.75 L8.25,20.75 C7.213,20.75 5.675,20.445 4.374,19.509 C3.035,18.545 2,16.944 2,14.5 C2,12.056 3.035,10.455 4.374,9.491 C5.675,8.555 7.214,8.25 8.25,8.25 L19.69,8.25 L14.72,3.28 A0.75 0.75 0 0 1 14.72,2.22 Z"/>
</svg>
