<svg xmlns="http://www.w3.org/2000/svg" width="24" height="24" viewBox="0 0 24 24">
  <defs/>
  <path d="M1.875,2.875 A2.5 2.5 0 0 1 4.375,0.375 L18.375,0.375 A0.75 0.75 0 0 1 19.125,1.125 L19.125,10.25 A0.75 0.75 0 0 1 17.625,10.25 L17.625,1.875 L4.375,1.875 A1 1 0 0 0 3.375,2.875 L3.375,14.083 A2.486 2.486 0 0 1 4.375,13.875 L10.312,13.875 A0.75 0.75 0 1 1 10.312,15.375 L4.375,15.375 A1 1 0 0 0 3.375,16.375 L3.375,18.125 A1 1 0 0 0 4.375,19.125 L10.375,19.125 A0.75 0.75 0 0 1 10.375,20.625 L4.375,20.625 A2.5 2.5 0 0 1 1.875,18.125 L1.875,2.875 Z"/>
  <path d="M18.643,20.484 A0.749 0.749 0 1 0 19.704,21.544 L23.461,17.787 A0.75 0.75 0 0 0 23.461,16.727 L19.704,12.97 A0.75 0.75 0 0 0 18.643,14.03 L21.119,16.507 L13,16.507 A0.75 0.75 0 0 0 13,18.007 L21.12,18.007 L18.643,20.484 Z"/>
</svg>
