<svg xmlns="http://www.w3.org/2000/svg" width="24" height="24" viewBox="0 0 24 24">
  <defs/>
  <path d="M4.75,0 A2.75 2.75 0 0 0 2,2.75 L2,19.25 A2.75 2.75 0 0 0 4.75,22 L12.75,22 A0.75 0.75 0 0 0 12.75,20.5 L4.75,20.5 C4.06,20.5 3.5,19.94 3.5,19.25 L3.5,18 A1.5 1.5 0 0 1 5,16.5 L12.75,16.5 A0.75 0.75 0 0 0 12.75,15 L5,15 C4.454,15 3.941,15.146 3.5,15.401 L3.5,2.75 C3.5,2.06 4.06,1.5 4.75,1.5 L18.5,1.5 L18.5,13.75 A0.75 0.75 0 0 0 20,13.75 L20,0.75 A0.75 0.75 0 0 0 19.25,0 L4.75,0 Z"/>
  <path d="M15.220000267028809,16.219999313354492 C15.5128173828125,15.927546501159668 15.9871826171875,15.927546501159668 16.280000686645508,16.219999313354492 L19,18.940000534057617 L21.719999313354492,16.219999313354492 C21.906970977783203,16.019346237182617 22.188554763793945,15.936750411987305 22.454288482666016,16.004613876342773 C22.720022201538086,16.072477340698242 22.927522659301758,16.279977798461914 22.995386123657227,16.545711517333984 C23.01099395751953,16.606828689575195 23.018644332885742,16.668785095214844 23.018728256225586,16.730236053466797 L23.018728256225586,16.732295989990234 C23.01844596862793,16.937301635742188 22.933988571166992,17.136512756347656 22.780000686645508,17.280000686645508 L20.059999465942383,20 L22.780000686645508,22.719999313354492 C22.933988571166992,22.863487243652344 23.01844596862793,23.062698364257812 23.018728256225586,23.267704010009766 L23.018728256225586,23.269763946533203 C23.018644332885742,23.331214904785156 23.01099395751953,23.393171310424805 22.995386123657227,23.454288482666016 C22.927522659301758,23.720022201538086 22.720022201538086,23.927522659301758 22.454288482666016,23.995386123657227 C22.44792938232422,23.99700927734375 22.44156265258789,23.99854850769043 22.4351863861084,24 L22.10222625732422,24 C21.95815086364746,23.96718978881836 21.824342727661133,23.891979217529297 21.719999313354492,23.780000686645508 L19,21.059999465942383 L16.280000686645508,23.780000686645508 C16.175657272338867,23.891979217529297 16.04184913635254,23.96718978881836 15.897772789001465,24 L15.564814567565918,24 C15.558439254760742,23.99854850769043 15.552070617675781,23.99700927734375 15.545711517333984,23.995386123657227 C15.279977798461914,23.927522659301758 15.072478294372559,23.720022201538086 15.00461483001709,23.454288482666016 C14.988958358764648,23.39298439025879 14.98130989074707,23.330835342407227 14.981271743774414,23.26919937133789 L14.981271743774414,23.268266677856445 C14.981399536132812,23.06306266784668 15.065871238708496,22.863618850708008 15.220000267028809,22.719999313354492 L17.940000534057617,20 L15.220000267028809,17.280000686645508 C14.927546501159668,16.9871826171875 14.927546501159668,16.5128173828125 15.220000267028809,16.219999313354492 Z"/>
</svg>
