<svg xmlns="http://www.w3.org/2000/svg" width="24" height="24" viewBox="0 0 24 24">
  <defs/>
  <path d="M1.5,4.25 C1.5,3.284 2.284,2.5 3.25,2.5 L20.75,2.5 C21.716,2.5 22.5,3.284 22.5,4.25 L22.5,16.75 A1.75 1.75 0 0 1 20.75,18.5 L11.164,18.5 A0.25 0.25 0 0 0 10.987,18.573 L7.487,22.073 A1.458 1.458 0 0 1 5,21.043 L5,18.5 L3.25,18.5 A1.75 1.75 0 0 1 1.5,16.75 Z M3.25,4 A0.25 0.25 0 0 0 3,4.25 L3,16.75 C3,16.888 3.112,17 3.25,17 L5.75,17 A0.75 0.75 0 0 1 6.5,17.75 L6.5,20.94 L9.927,17.513 A1.75 1.75 0 0 1 11.164,17 L20.75,17 A0.25 0.25 0 0 0 21,16.75 L21,4.25 A0.25 0.25 0 0 0 20.75,4 Z M12,6 A0.75 0.75 0 0 1 12.75,6.75 L12.75,10.75 A0.75 0.75 0 0 1 11.25,10.75 L11.25,6.75 A0.75 0.75 0 0 1 12,6 Z M12,15 A1 1 0 1 1 12,13 A1 1 0 0 1 12,15 Z"/>
</svg>
