<svg xmlns="http://www.w3.org/2000/svg" width="24" height="24" viewBox="0 0 24 24">
  <defs/>
  <path d="M8.75,19.25 A3.25 3.25 0 1 1 15.25,19.25 A3.25 3.25 0 0 1 8.75,19.25 Z M15,4.75 A3.25 3.25 0 1 1 21.5,4.75 A3.25 3.25 0 0 1 15,4.75 Z M2.5,4.75 A3.25 3.25 0 1 1 9,4.75 A3.25 3.25 0 0 1 2.5,4.75 Z M5.75,6.5 A1.75 1.75 0 1 0 5.749,2.999 A1.75 1.75 0 0 0 5.75,6.5 Z M12,21 A1.75 1.75 0 1 0 11.999,17.499 A1.75 1.75 0 0 0 12,21 Z M18.25,6.5 A1.75 1.75 0 1 0 18.249,2.999 A1.75 1.75 0 0 0 18.25,6.5 Z"/>
  <path d="M6.5,7.75 L6.5,8.75 A2.25 2.25 0 0 0 8.75,11 L15.25,11 A2.25 2.25 0 0 0 17.5,8.75 L17.5,7.75 L19,7.75 L19,8.75 A3.75 3.75 0 0 1 15.25,12.5 L8.75,12.5 A3.75 3.75 0 0 1 5,8.75 L5,7.75 Z"/>
  <path d="M11.25,16.25 L11.25,11.25 L12.75,11.25 L12.75,16.25 L11.25,16.25 Z"/>
</svg>
