<svg xmlns="http://www.w3.org/2000/svg" width="16" height="16" viewBox="0 0 16 16">
  <defs/>
  <path d="M13.25,8 A0.75 0.75 0 0 1 14,8.75 L14,13.25 A0.75 0.75 0 0 1 13.25,14 L10.75,14 A0.75 0.75 0 0 1 10.75,12.5 L12.5,12.5 L12.5,10.5 L11.75,10.5 A0.75 0.75 0 0 1 11.75,9 L12.5,9 L12.5,8.75 A0.75 0.75 0 0 1 13.25,8 Z M5,12.25 A0.25 0.25 0 0 1 5.25,12 L8.75,12 A0.25 0.25 0 0 1 9,12.25 L9,15.5 A0.25 0.25 0 0 1 8.6,15.7 L7.15,14.613 A0.249 0.249 0 0 0 6.85,14.613 L5.4,15.7 A0.25 0.25 0 0 1 5,15.5 Z M2.75,8 A0.75 0.75 0 0 1 3.5,8.75 L3.5,9.018 C3.583,9.006 3.666,9 3.75,9 L4.25,9 A0.75 0.75 0 0 1 4.25,10.5 L3.75,10.5 A0.25 0.25 0 0 0 3.5,10.75 L3.5,11.5 C3.5,11.78 3.614,12.032 3.8,12.214 A0.75 0.75 0 1 1 2.75,13.286 A2.495 2.495 0 0 1 2,11.5 L2,8.75 A0.75 0.75 0 0 1 2.75,8 Z M11,0.75 A0.75 0.75 0 0 1 11.75,0 L13.25,0 A0.75 0.75 0 0 1 14,0.75 L14,2.25 A0.75 0.75 0 0 1 12.5,2.25 L12.5,1.5 L11.75,1.5 A0.75 0.75 0 0 1 11,0.75 Z M6,0.75 A0.75 0.75 0 0 1 6.75,0 L9.25,0 A0.75 0.75 0 0 1 9.25,1.5 L6.75,1.5 A0.75 0.75 0 0 1 6,0.75 Z M6,9.75 A0.75 0.75 0 0 1 6.75,9 L9.25,9 A0.75 0.75 0 0 1 9.25,10.5 L6.75,10.5 A0.75 0.75 0 0 1 6,9.75 Z M4.992,0.662 A0.75 0.75 0 0 1 4.356,1.51 C3.92,1.573 3.573,1.92 3.51,2.356 A0.751 0.751 0 0 1 2.025,2.144 A2.501 2.501 0 0 1 4.144,0.025 A0.75 0.75 0 0 1 4.992,0.662 Z M2.75,4 A0.75 0.75 0 0 1 3.5,4.75 L3.5,6.25 A0.75 0.75 0 0 1 2,6.25 L2,4.75 A0.75 0.75 0 0 1 2.75,4 Z M13.25,4 A0.75 0.75 0 0 1 14,4.75 L14,6.25 A0.75 0.75 0 0 1 12.5,6.25 L12.5,4.75 A0.75 0.75 0 0 1 13.25,4 Z"/>
</svg>
