<svg xmlns="http://www.w3.org/2000/svg" width="24" height="24" viewBox="0 0 24 24">
  <defs/>
  <path d="M4.75,0 A2.75 2.75 0 0 0 2,2.75 L2,19.25 A2.75 2.75 0 0 0 4.75,22 L15.75,22 A0.75 0.75 0 0 0 15.75,20.5 L4.75,20.5 C4.06,20.5 3.5,19.94 3.5,19.25 L3.5,18 A1.5 1.5 0 0 1 5,16.5 L12.25,16.5 A0.75 0.75 0 0 0 12.25,15 L5,15 C4.454,15 3.941,15.146 3.5,15.401 L3.5,2.75 C3.5,2.06 4.06,1.5 4.75,1.5 L18.5,1.5 L18.5,8.5 A0.75 0.75 0 0 0 20,8.5 L20,0.75 A0.75 0.75 0 0 0 19.25,0 L4.75,0 Z"/>
  <path d="M20,13.903 L22.202,16.262 A0.75 0.75 0 0 0 23.298,15.238 L19.798,11.488 A0.75 0.75 0 0 0 18.702,11.488 L15.202,15.238 A0.75 0.75 0 1 0 16.298,16.262 L18.5,13.902 L18.5,23.25 A0.75 0.75 0 0 0 20,23.25 L20,13.903 Z"/>
</svg>
