<svg xmlns="http://www.w3.org/2000/svg" width="16" height="16" viewBox="0 0 16 16">
  <defs/>
  <path d="M0,1.75 C0,0.784 0.784,0 1.75,0 L14.25,0 C15.216,0 16,0.784 16,1.75 L16,11.25 A1.75 1.75 0 0 1 14.25,13 L8.06,13 L5.487,15.573 A1.458 1.458 0 0 1 3,14.543 L3,13 L1.75,13 A1.75 1.75 0 0 1 0,11.25 Z M1.75,1.5 A0.25 0.25 0 0 0 1.5,1.75 L1.5,11.25 C1.5,11.388 1.612,11.5 1.75,11.5 L3.75,11.5 A0.75 0.75 0 0 1 4.5,12.25 L4.5,14.44 L7.22,11.72 A0.749 0.749 0 0 1 7.75,11.5 L14.25,11.5 A0.25 0.25 0 0 0 14.5,11.25 L14.5,1.75 A0.25 0.25 0 0 0 14.25,1.5 Z M8.75,3.75 L8.75,6.25 A0.75 0.75 0 0 1 7.25,6.25 L7.25,3.75 A0.75 0.75 0 0 1 8.75,3.75 Z M9,9 A1 1 0 1 1 7,9 A1 1 0 0 1 9,9 Z"/>
</svg>
