<svg xmlns="http://www.w3.org/2000/svg" width="16" height="16" viewBox="0 0 16 16">
  <defs/>
  <path d="M1,2.5 A2.5 2.5 0 0 1 3.5,0 L12.25,0 A0.75 0.75 0 0 1 13,0.75 L13,4.25 A0.75 0.75 0 0 1 11.5,4.25 L11.5,1.5 L3.5,1.5 A1 1 0 0 0 2.5,2.5 L2.5,9.208 A2.493 2.493 0 0 1 3.5,9 L6.75,9 A0.75 0.75 0 0 1 6.75,10.5 L3.5,10.5 A1 1 0 0 0 3.5,12.5 L9.25,12.5 A0.75 0.75 0 0 1 9.25,14 L3.5,14 A2.5 2.5 0 0 1 1,11.5 Z M14.23,10.29 L14.229,10.29 L13.005,9.066 L13.005,15.25 A0.75 0.75 0 0 1 11.505,15.25 L11.505,9.066 L10.28,10.29 A0.75 0.75 0 0 1 9.22,9.229 L11.725,6.725 A0.75 0.75 0 0 1 12.785,6.725 L15.29,9.23 A0.751 0.751 0 0 1 15.272,10.272 A0.751 0.751 0 0 1 14.23,10.29 Z"/>
</svg>
