<svg xmlns="http://www.w3.org/2000/svg" width="16" height="16" viewBox="0 0 16 16">
  <defs/>
  <path d="M1,2.5 A2.5 2.5 0 0 1 3.5,0 L12.25,0 A0.75 0.75 0 0 1 13,0.75 L13,8.25 A0.75 0.75 0 0 1 11.5,8.25 L11.5,1.5 L3.5,1.5 A1 1 0 0 0 2.5,2.5 L2.5,9.208 A2.492 2.492 0 0 1 3.5,9 L8.25,9 A0.75 0.75 0 0 1 8.25,10.5 L3.5,10.5 A1 1 0 1 0 3.5,12.5 L8.25,12.5 A0.75 0.75 0 0 1 8.25,14 L3.5,14 A2.5 2.5 0 0 1 1,11.5 L1,2.5 Z"/>
  <path d="M11.279999732971191,10.220000267028809 L13,11.9399995803833 L14.720000267028809,10.220000267028809 C14.863619804382324,10.065871238708496 15.063063621520996,9.981399536132812 15.268267631530762,9.981271743774414 L15.269200325012207,9.981271743774414 C15.330836296081543,9.98130989074707 15.392984390258789,9.988958358764648 15.454288482666016,10.00461483001709 C15.720022201538086,10.072478294372559 15.927521705627441,10.279977798461914 15.99538516998291,10.545711517333984 C15.99700927734375,10.552071571350098 15.998547554016113,10.558441162109375 16,10.564818382263184 L16,10.897769927978516 C15.967188835144043,11.041847229003906 15.89197826385498,11.175657272338867 15.779999732971191,11.279999732971191 L14.0600004196167,13 L15.779999732971191,14.720000267028809 C15.89197826385498,14.824342727661133 15.967188835144043,14.958152770996094 16,15.102230072021484 L16,15.435181617736816 C15.998547554016113,15.441558837890625 15.99700927734375,15.447928428649902 15.99538516998291,15.454288482666016 C15.927521705627441,15.720022201538086 15.720022201538086,15.927521705627441 15.454288482666016,15.99538516998291 C15.447928428649902,15.99700927734375 15.441558837890625,15.998547554016113 15.435181617736816,16 L15.102230072021484,16 C14.958152770996094,15.967188835144043 14.824342727661133,15.89197826385498 14.720000267028809,15.779999732971191 L13,14.0600004196167 L11.279999732971191,15.779999732971191 C11.175657272338867,15.89197826385498 11.041847229003906,15.967188835144043 10.897769927978516,16 L10.564818382263184,16 C10.558441162109375,15.998547554016113 10.552071571350098,15.99700927734375 10.545711517333984,15.99538516998291 C10.279977798461914,15.927521705627441 10.072478294372559,15.720022201538086 10.00461483001709,15.454288482666016 C9.988958358764648,15.392984390258789 9.98130989074707,15.330836296081543 9.981271743774414,15.269200325012207 L9.981271743774414,15.268267631530762 C9.981399536132812,15.063063621520996 10.065871238708496,14.863619804382324 10.220000267028809,14.720000267028809 L11.9399995803833,13 L10.220000267028809,11.279999732971191 C10.065871238708496,11.136380195617676 9.981399536132812,10.936936378479004 9.981271743774414,10.731732368469238 L9.981271743774414,10.730799674987793 C9.98130989074707,10.669163703918457 9.988958358764648,10.607015609741211 10.00461483001709,10.545711517333984 C10.072478294372559,10.279977798461914 10.279977798461914,10.072478294372559 10.545711517333984,10.00461483001709 C10.607015609741211,9.988958358764648 10.669163703918457,9.98130989074707 10.730799674987793,9.981271743774414 L10.731732368469238,9.981271743774414 C10.936936378479004,9.981399536132812 11.136380195617676,10.065871238708496 11.279999732971191,10.220000267028809 Z"/>
</svg>
