<svg xmlns="http://www.w3.org/2000/svg" width="16" height="16" viewBox="0 0 16 16">
  <defs/>
  <path d="M5,5.372 L5,6.25 C5,6.664 5.336,7 5.75,7 L10.25,7 A0.75 0.75 0 0 0 11,6.25 L11,5.372 A2.25 2.25 0 1 1 12.5,5.372 L12.5,6.25 A2.25 2.25 0 0 1 10.25,8.5 L8.75,8.5 L8.75,10.628 A2.251 2.251 0 1 1 7.25,10.628 L7.25,8.5 L5.75,8.5 A2.25 2.25 0 0 1 3.5,6.25 L3.5,5.372 A2.25 2.25 0 1 1 5,5.372 Z M5,3.25 A0.75 0.75 0 1 0 3.5,3.25 A0.75 0.75 0 0 0 5,3.25 Z M11.75,4 A0.75 0.75 0 1 0 11.75,2.5 A0.75 0.75 0 0 0 11.75,4 Z M8.75,12.75 A0.75 0.75 0 1 0 7.25,12.75 A0.75 0.75 0 0 0 8.75,12.75 Z"/>
</svg>
