<svg xmlns="http://www.w3.org/2000/svg" width="24" height="24" viewBox="0 0 24 24">
  <defs/>
  <path d="M3,2.75 A2.75 2.75 0 0 1 5.75,0 L20.25,0 A0.75 0.75 0 0 1 21,0.75 L21,21.25 A0.75 0.75 0 0 1 20.25,22 L14.25,22 A0.75 0.75 0 0 1 14.25,20.5 L19.5,20.5 L19.5,16.5 L6,16.5 A1.5 1.5 0 0 0 4.5,18 L4.5,18.75 C4.5,19.466 4.93,20.084 5.55,20.355 A0.75 0.75 0 0 1 4.95,21.729 A3.251 3.251 0 0 1 3,18.75 Z M19.5,1.5 L5.75,1.5 C5.06,1.5 4.5,2.06 4.5,2.75 L4.5,15.401 A2.989 2.989 0 0 1 6,15 L19.5,15 Z"/>
  <path d="M7,18.25 A0.25 0.25 0 0 1 7.25,18 L12.25,18 A0.25 0.25 0 0 1 12.5,18.25 L12.5,23.26 A0.25 0.25 0 0 1 12.103,23.461 L9.897,21.857 A0.25 0.25 0 0 0 9.603,21.857 L7.397,23.46 A0.25 0.25 0 0 1 7,23.26 L7,18.25 Z"/>
</svg>
