<svg xmlns="http://www.w3.org/2000/svg" width="16" height="16" viewBox="0 0 16 16">
  <defs/>
  <path d="M1,2.5 A2.5 2.5 0 0 1 3.5,0 L12.25,0 A0.75 0.75 0 0 1 13,0.75 L13,6 A0.75 0.75 0 0 1 11.5,6 L11.5,1.5 L3.5,1.5 A1 1 0 0 0 2.5,2.5 L2.5,9.208 A2.486 2.486 0 0 1 3.5,9 L6.5,9 A0.75 0.75 0 0 1 6.5,10.5 L3.5,10.5 A1 1 0 0 0 3.5,12.5 L6.5,12.5 A0.75 0.75 0 0 1 6.5,14 L3.5,14 A2.5 2.5 0 0 1 1,11.5 L1,2.5 Z"/>
  <path d="M12.21,13.479 A0.75 0.75 0 1 0 13.271,14.54 L15.775,12.035 A0.75 0.75 0 0 0 15.775,10.974 L13.271,8.47 A0.75 0.75 0 0 0 12.21,9.53 L13.434,10.755 L8.75,10.755 A0.75 0.75 0 1 0 8.75,12.255 L13.435,12.255 L12.21,13.479 Z"/>
</svg>
