<svg xmlns="http://www.w3.org/2000/svg" width="16" height="16" viewBox="0 0 16 16">
  <defs/>
  <path d="M1,2.5 A2.5 2.5 0 0 1 3.5,0 L12.25,0 A0.75 0.75 0 0 1 13,0.75 L13,4.25 A0.75 0.75 0 0 1 11.5,4.25 L11.5,1.5 L3.5,1.5 A1 1 0 0 0 2.5,2.5 L2.5,9.208 A2.492 2.492 0 0 1 3.5,9 L6.25,9 A0.75 0.75 0 0 1 6.25,10.5 L3.5,10.5 A1 1 0 1 0 3.5,12.5 L6.25,12.5 A0.75 0.75 0 0 1 6.25,14 L3.5,14 A2.5 2.5 0 0 1 1,11.5 L1,2.5 Z"/>
  <path d="M9,10.168 L9,9 A3 3 0 1 1 15,9 L15,10.168 C15.591,10.449 16,11.052 16,11.75 L16,14.25 A1.75 1.75 0 0 1 14.25,16 L9.75,16 A1.75 1.75 0 0 1 8,14.25 L8,11.75 C8,11.052 8.409,10.45 9,10.168 Z M13.5,10 L13.5,9 A1.5 1.5 0 0 0 10.5,9 L10.5,10 Z"/>
</svg>
