<svg xmlns="http://www.w3.org/2000/svg" width="16" height="16" viewBox="0 0 16 16">
  <defs/>
  <path d="M2,2.5 A2.5 2.5 0 0 1 4.5,0 L13.25,0 A0.75 0.75 0 0 1 14,0.75 L14,13.25 A0.75 0.75 0 0 1 13.25,14 L10.75,14 A0.75 0.75 0 0 1 10.75,12.5 L12.5,12.5 L12.5,10.5 L4.5,10.5 A1 1 0 0 0 3.786,12.2 A0.75 0.75 0 1 1 2.714,13.25 A2.495 2.495 0 0 1 2,11.5 Z M12.5,1.5 L4.5,1.5 A1 1 0 0 0 3.5,2.5 L3.5,9.208 A2.486 2.486 0 0 1 4.5,9 L12.5,9 Z M5,12.25 A0.25 0.25 0 0 1 5.25,12 L8.75,12 A0.25 0.25 0 0 1 9,12.25 L9,15.5 A0.25 0.25 0 0 1 8.6,15.7 L7.15,14.613 A0.249 0.249 0 0 0 6.85,14.613 L5.4,15.7 A0.25 0.25 0 0 1 5,15.5 Z"/>
</svg>
