<svg xmlns="http://www.w3.org/2000/svg" width="24" height="24" viewBox="0 0 24 24">
  <defs/>
  <path d="M4.375,0.375 A2.5 2.5 0 0 0 1.875,2.875 L1.875,18.125 A2.5 2.5 0 0 0 4.375,20.625 L9.562,20.625 A0.75 0.75 0 1 0 9.562,19.125 L4.375,19.125 A1 1 0 0 1 3.375,18.125 L3.375,16.375 A1 1 0 0 1 4.375,15.375 L10.062,15.375 A0.75 0.75 0 1 0 10.062,13.875 L4.375,13.875 C4.019,13.875 3.681,13.949 3.375,14.083 L3.375,2.875 A1 1 0 0 1 4.375,1.875 L17.625,1.875 L17.625,7.125 A0.75 0.75 0 0 0 19.125,7.125 L19.125,1.125 A0.75 0.75 0 0 0 18.375,0.375 L4.375,0.375 Z"/>
  <path d="M12.375,12.087 C12.375,10.691 13.38,9.375 14.831,9.375 L22.875,9.375 A0.75 0.75 0 0 1 23.625,10.125 L23.625,22.875 A0.75 0.75 0 0 1 22.875,23.625 L15.375,23.625 A3 3 0 0 1 12.375,20.625 Z M22.125,17.625 L22.125,10.875 L14.831,10.875 C14.398,10.875 13.875,11.316 13.875,12.087 L13.875,18.026 A2.989 2.989 0 0 1 15.375,17.625 Z M13.875,20.625 A1.5 1.5 0 0 0 15.375,22.125 L22.125,22.125 L22.125,19.125 L15.375,19.125 A1.5 1.5 0 0 0 13.875,20.625 Z"/>
</svg>
