<svg xmlns="http://www.w3.org/2000/svg" width="16" height="16" viewBox="0 0 16 16">
  <defs/>
  <path d="M3.5,0 L12.25,0 C12.664213180541992,0 13,0.3357864320278168 13,0.75 L13,4.25 C13,4.66421365737915 12.664213180541992,5 12.25,5 C11.835786819458008,5 11.5,4.66421365737915 11.5,4.25 L11.5,1.5 L3.5,1.5 C2.9477152824401855,1.5 2.5,1.9477152824401855 2.5,2.5 L2.5,9.208000183105469 C2.805999994277954,9.074000358581543 3.1440000534057617,9 3.5,9 L6.25,9 C6.66421365737915,9 7,9.335786819458008 7,9.75 C7,10.164213180541992 6.66421365737915,10.5 6.25,10.5 L3.5,10.5 C2.9477152824401855,10.5 2.5,10.947714805603027 2.5,11.5 C2.5,12.052285194396973 2.9477152824401855,12.5 3.5,12.5 L6.25,12.5 C6.66421365737915,12.5 7,12.835786819458008 7,13.25 C7,13.664213180541992 6.66421365737915,14 6.25,14 L3.5,14 C2.119288206100464,14 1,12.880711555480957 1,11.5 L1,2.5 C1,1.1192880868911743 2.119288206100464,0 3.5,0 Z"/>
  <path d="M8,8.058 C8,7.023 8.75,6 9.887,6 L15.25,6 A0.75 0.75 0 0 1 16,6.75 L16,15.25 A0.75 0.75 0 0 1 15.25,16 L10.25,16 A2.25 2.25 0 0 1 8,13.75 Z M14.5,11.5 L14.5,7.5 L9.887,7.5 C9.817,7.5 9.731,7.531 9.649,7.625 A0.663 0.663 0 0 0 9.5,8.058 L9.5,11.628 C9.735,11.545 9.987,11.5 10.25,11.5 Z M9.5,13.75 C9.5,14.164 9.836,14.5 10.25,14.5 L14.5,14.5 L14.5,13 L10.25,13 A0.75 0.75 0 0 0 9.5,13.75 Z"/>
</svg>
