<svg xmlns="http://www.w3.org/2000/svg" width="24" height="24" viewBox="0 0 24 24">
  <defs/>
  <path d="M20.322,0.75 L21.498,0.75 A1.75 1.75 0 0 1 23.248,2.499 L23.248,3.676 A10.75 10.75 0 0 1 20.323,11.05 L19.095,12.354 A23.699 23.699 0 0 1 17.499,13.896 L17.499,18.934 C17.499,19.549 17.176,20.118 16.649,20.434 L12.135,23.143 A0.75 0.75 0 0 1 11.015,22.655 L10.052,18.083 A1.305 1.305 0 0 1 9.912,17.954 L8.04,15.96 L6.046,14.087 A1.305 1.305 0 0 1 5.917,13.947 L1.346,12.984 A0.75 0.75 0 0 1 0.856,11.864 L3.566,7.35 C3.882,6.823 4.451,6.5 5.066,6.5 L10.103,6.5 A23.668 23.668 0 0 1 11.645,4.906 L12.949,3.676 A10.753 10.753 0 0 1 20.321,0.75 Z M13.978,4.768 L13.978,4.767 L12.674,5.997 A22.275 22.275 0 0 0 9.419,9.848 L7.226,13.138 L9.085,14.882 A0.545 0.545 0 0 1 9.119,14.916 L10.862,16.774 L14.15,14.582 A22.263 22.263 0 0 0 18.004,11.325 L19.232,10.022 A9.251 9.251 0 0 0 21.749,3.676 L21.749,2.5 A0.25 0.25 0 0 0 21.499,2.25 L20.322,2.25 A9.252 9.252 0 0 0 13.978,4.768 Z M6.5,21 C5.291,22.209 2.599,22.445 1.757,22.49 A0.236 0.236 0 0 1 1.577,22.423 A0.236 0.236 0 0 1 1.51,22.243 C1.555,21.401 1.791,18.709 3,17.5 C3.9,16.6 5.6,16.6 6.5,17.5 C7.4,18.4 7.4,20.1 6.5,21 Z M5.908,12.412 L8.17,9.017 C8.4,8.671 8.64,8.332 8.887,8 L5.066,8 A0.25 0.25 0 0 0 4.852,8.121 L2.685,11.733 Z M16,15.112 C15.667,15.36 15.328,15.599 14.982,15.83 L11.589,18.092 L12.267,21.315 L15.879,19.148 A0.25 0.25 0 0 0 16,18.934 Z M17.5,8 A1.5 1.5 0 1 1 14.499,7.999 A1.5 1.5 0 0 1 17.5,8 Z"/>
</svg>
