<svg xmlns="http://www.w3.org/2000/svg" width="16" height="16" viewBox="0 0 16 16">
  <defs/>
  <path d="M14.064000129699707,0 L14.25,0 C15.215999603271484,0 16,0.7839999794960022 16,1.75 L16,1.9359999895095825 C15.999152183532715,4.256360054016113 15.07690143585205,6.48141622543335 13.435999870300293,8.121999740600586 L12.977999687194824,8.581000328063965 C12.663999557495117,8.895000457763672 12.336999893188477,9.196999549865723 11.99899959564209,9.484999656677246 L11.99899959564209,12.692000389099121 C11.99899959564209,13.300000190734863 11.684000015258789,13.86400032043457 11.166000366210938,14.182000160217285 L8.392000198364258,15.888999938964844 C8.282636642456055,15.95659065246582 8.159340858459473,15.993980407714844 8.034183502197266,16 L7.962191581726074,16 C7.885112762451172,15.996292114257812 7.80820369720459,15.980652809143066 7.73426628112793,15.95280933380127 C7.516982078552246,15.870985984802246 7.349929332733154,15.693020820617676 7.2820000648498535,15.470999717712402 L6.328000068664551,12.369000434875488 C6.276451587677002,12.331214904785156 6.227967739105225,12.28941822052002 6.183000087738037,12.244000434875488 L3.753999948501587,9.815999984741211 C3.7089388370513916,9.770983695983887 3.667478322982788,9.722500801086426 3.630000114440918,9.670999526977539 L0.527999997138977,8.717000007629395 C0.30597934126853943,8.649070739746094 0.12801432609558105,8.482017517089844 0.04619019851088524,8.26473331451416 C0.020375216379761696,8.196182250976562 0.005050690844655037,8.125076293945312 0,8.053648948669434 L0,7.947973251342773 C0.00843711569905281,7.828617572784424 0.04544391483068466,7.711453437805176 0.10999999940395355,7.60699987411499 L1.8200000524520874,4.833000183105469 C2.1381030082702637,4.315208911895752 2.7023017406463623,3.9997875690460205 3.309999942779541,4 L6.513999938964844,4 C6.802000045776367,3.6619999408721924 7.104000091552734,3.3350000381469727 7.418000221252441,3.0209999084472656 L7.876999855041504,2.562999963760376 C9.517806053161621,0.9219411015510559 11.74337100982666,-1.2089732990716584e-05 14.064000129699707,0 Z M8.937999725341797,3.622999906539917 L8.935999870300293,3.622999906539917 L8.477999687194824,4.080999851226807 C7.7179999351501465,4.841000080108643 7.040999889373779,5.678999900817871 6.458000183105469,6.580999851226807 L4.958000183105469,8.89799976348877 L7.10099983215332,11.041000366210938 L9.418000221252441,9.541000366210938 C10.319999694824219,8.958000183105469 11.157999992370605,8.281000137329102 11.916999816894531,7.520999908447266 L12.37600040435791,7.063000202178955 C13.735580444335938,5.703166961669922 14.499252319335938,3.8589160442352295 14.49899959564209,1.9359999895095825 L14.49899959564209,1.75 C14.49899959564209,1.6119288206100464 14.38707160949707,1.5 14.24899959564209,1.5 L14.062999725341797,1.5 C12.140754699707031,1.5001682043075562 10.297281265258789,2.2638161182403564 8.937999725341797,3.622999906539917 Z M3.559999942779541,14.5600004196167 C2.828000068664551,15.291999816894531 1.2259999513626099,15.604999542236328 0.5550000071525574,15.708000183105469 C0.4816388785839081,15.719788551330566 0.4070391356945038,15.696035385131836 0.3540000021457672,15.644000053405762 C0.30196473002433777,15.590960502624512 0.2782115638256073,15.516361236572266 0.28999999165534973,15.442999839782715 C0.3930000066757202,14.772000312805176 0.7059999704360962,13.170000076293945 1.440000057220459,12.4399995803833 C1.8098338842391968,12.020777702331543 2.3818933963775635,11.841639518737793 2.924781084060669,11.97504711151123 C3.4676687717437744,12.108454704284668 3.891545295715332,12.532331466674805 4.0249528884887695,13.07521915435791 C4.158360481262207,13.618106842041016 3.979222536087036,14.190166473388672 3.559999942779541,14.5600004196167 Z M10.5,10.625 C10.411999702453613,10.6850004196167 10.322999954223633,10.743000030517578 10.234000205993652,10.800000190734863 L7.883999824523926,12.321000099182129 L8.432000160217285,14.104000091552734 L10.380999565124512,12.904000282287598 C10.454972267150879,12.858489990234375 10.500024795532227,12.777850151062012 10.5,12.690999984741211 Z M3.677999973297119,8.116000175476074 L5.199999809265137,5.765999794006348 C5.257999897003174,5.676000118255615 5.316999912261963,5.5879998207092285 5.375999927520752,5.5 L3.309000015258789,5.5 C3.222149610519409,5.499975681304932 3.141509532928467,5.545027732849121 3.0959999561309814,5.61899995803833 L1.8960000276565552,7.568999767303467 Z M12,5 C12,5.5522847175598145 11.552285194396973,6 11,6 C10.447714805603027,6 10,5.5522847175598145 10,5 C10,4.4477152824401855 10.447714805603027,4 11,4 C11.552285194396973,4 12,4.4477152824401855 12,5 Z"/>
</svg>
