<svg xmlns="http://www.w3.org/2000/svg" width="16" height="16" viewBox="0 0 16 16">
  <defs/>
  <path d="M3.63700008392334,2.2909998893737793 C3.778639316558838,2.107469320297241 3.997360944747925,1.9999995231628418 4.229159355163574,1.9999995231628418 L4.230000019073486,2 L11.770000457763672,2 C12.001999855041504,2 12.220999717712402,2.1070001125335693 12.36299991607666,2.2909998893737793 L15.843000411987305,6.790999889373779 C15.945136070251465,6.922816753387451 15.996888160705566,7.078926086425781 16,7.235124111175537 L16,7.265125274658203 C15.996170043945312,7.457365036010742 15.91875171661377,7.6473894119262695 15.770999908447266,7.789999961853027 L8.520999908447266,14.789999961853027 C8.230366706848145,15.07066822052002 7.769633769989014,15.07066822052002 7.479000091552734,14.789999961853027 L0.2290000021457672,7.789999961853027 C0.08124307543039322,7.647383689880371 0.0038237725384533405,7.45734977722168 0,7.265101909637451 L0,7.235147476196289 C0.00310753402300179,7.078941822052002 0.054859310388565063,6.922823429107666 0.15700000524520874,6.790999889373779 Z M4.5980000495910645,3.5 L1.753999948501587,7.177000045776367 L8,13.206999778747559 L14.246000289916992,7.177000045776367 L11.402000427246094,3.5 Z"/>
</svg>
