<svg xmlns="http://www.w3.org/2000/svg" width="16" height="16" viewBox="0 0 16 16">
  <defs/>
  <path d="M10.75,1 A0.75 0.75 0 0 1 11.5,1.75 L11.5,4.25 C11.5,4.388 11.612,4.5 11.75,4.5 L14.25,4.5 A0.75 0.75 0 0 1 14.25,6 L11.75,6 A1.75 1.75 0 0 1 10,4.25 L10,1.75 A0.75 0.75 0 0 1 10.75,1 Z M5.25,1 A0.75 0.75 0 0 1 6,1.75 L6,4.25 A1.75 1.75 0 0 1 4.25,6 L1.75,6 A0.75 0.75 0 0 1 1.75,4.5 L4.25,4.5 A0.25 0.25 0 0 0 4.5,4.25 L4.5,1.75 A0.75 0.75 0 0 1 5.25,1 Z M1,10.75 A0.75 0.75 0 0 1 1.75,10 L4.25,10 C5.216,10 6,10.784 6,11.75 L6,14.25 A0.75 0.75 0 0 1 4.5,14.25 L4.5,11.75 A0.25 0.25 0 0 0 4.25,11.5 L1.75,11.5 A0.75 0.75 0 0 1 1,10.75 Z M10,11.75 C10,10.784 10.784,10 11.75,10 L14.25,10 A0.75 0.75 0 0 1 14.25,11.5 L11.75,11.5 A0.25 0.25 0 0 0 11.5,11.75 L11.5,14.25 A0.75 0.75 0 0 1 10,14.25 Z"/>
</svg>
