<svg xmlns="http://www.w3.org/2000/svg" width="24" height="24" viewBox="0 0 24 24">
  <defs/>
  <path d="M15.75,3 A0.75 0.75 0 0 1 16.5,3.75 L16.5,7.25 C16.5,7.388 16.612,7.5 16.75,7.5 L20.25,7.5 A0.75 0.75 0 0 1 20.25,9 L16.75,9 A1.75 1.75 0 0 1 15,7.25 L15,3.75 A0.75 0.75 0 0 1 15.75,3 Z M8.25,3 A0.75 0.75 0 0 1 9,3.75 L9,7.25 A1.75 1.75 0 0 1 7.25,9 L3.75,9 A0.75 0.75 0 0 1 3.75,7.5 L7.25,7.5 A0.25 0.25 0 0 0 7.5,7.25 L7.5,3.75 A0.75 0.75 0 0 1 8.25,3 Z M3,15.75 A0.75 0.75 0 0 1 3.75,15 L7.25,15 C8.216,15 9,15.784 9,16.75 L9,20.25 A0.75 0.75 0 0 1 7.5,20.25 L7.5,16.75 A0.25 0.25 0 0 0 7.25,16.5 L3.75,16.5 A0.75 0.75 0 0 1 3,15.75 Z M15,16.75 C15,15.784 15.784,15 16.75,15 L20.25,15 A0.75 0.75 0 0 1 20.25,16.5 L16.75,16.5 A0.25 0.25 0 0 0 16.5,16.75 L16.5,20.25 A0.75 0.75 0 0 1 15,20.25 Z"/>
</svg>
