<svg xmlns="http://www.w3.org/2000/svg" width="16" height="16" viewBox="0 0 16 16">
  <defs/>
  <path d="M1.75,10 A0.75 0.75 0 0 1 2.5,10.75 L2.5,13.25 C2.5,13.388 2.612,13.5 2.75,13.5 L5.25,13.5 A0.75 0.75 0 0 1 5.25,15 L2.75,15 A1.75 1.75 0 0 1 1,13.25 L1,10.75 A0.75 0.75 0 0 1 1.75,10 Z M14.25,10 A0.75 0.75 0 0 1 15,10.75 L15,13.25 A1.75 1.75 0 0 1 13.25,15 L10.75,15 A0.75 0.75 0 0 1 10.75,13.5 L13.25,13.5 A0.25 0.25 0 0 0 13.5,13.25 L13.5,10.75 A0.75 0.75 0 0 1 14.25,10 Z M2.75,2.5 A0.25 0.25 0 0 0 2.5,2.75 L2.5,5.25 A0.75 0.75 0 0 1 1,5.25 L1,2.75 C1,1.784 1.784,1 2.75,1 L5.25,1 A0.75 0.75 0 0 1 5.25,2.5 Z M10,1.75 A0.75 0.75 0 0 1 10.75,1 L13.25,1 C14.216,1 15,1.784 15,2.75 L15,5.25 A0.75 0.75 0 0 1 13.5,5.25 L13.5,2.75 A0.25 0.25 0 0 0 13.25,2.5 L10.75,2.5 A0.75 0.75 0 0 1 10,1.75 Z"/>
</svg>
