<svg xmlns="http://www.w3.org/2000/svg" width="24" height="24" viewBox="0 0 24 24">
  <defs/>
  <path d="M3.75,15 A0.75 0.75 0 0 1 4.5,15.75 L4.5,19.25 C4.5,19.388 4.612,19.5 4.75,19.5 L8.25,19.5 A0.75 0.75 0 0 1 8.25,21 L4.75,21 A1.75 1.75 0 0 1 3,19.25 L3,15.75 A0.75 0.75 0 0 1 3.75,15 Z M20.25,15 A0.75 0.75 0 0 1 21,15.75 L21,19.25 A1.75 1.75 0 0 1 19.25,21 L15.75,21 A0.75 0.75 0 0 1 15.75,19.5 L19.25,19.5 A0.25 0.25 0 0 0 19.5,19.25 L19.5,15.75 A0.75 0.75 0 0 1 20.25,15 Z M4.75,4.5 A0.25 0.25 0 0 0 4.5,4.75 L4.5,8.25 A0.75 0.75 0 0 1 3,8.25 L3,4.75 C3,3.784 3.784,3 4.75,3 L8.25,3 A0.75 0.75 0 0 1 8.25,4.5 Z M15,3.75 A0.75 0.75 0 0 1 15.75,3 L19.25,3 C20.216,3 21,3.784 21,4.75 L21,8.25 A0.75 0.75 0 0 1 19.5,8.25 L19.5,4.75 A0.25 0.25 0 0 0 19.25,4.5 L15.75,4.5 A0.75 0.75 0 0 1 15,3.75 Z"/>
</svg>
