<svg xmlns="http://www.w3.org/2000/svg" width="24" height="24" viewBox="0 0 24 24">
  <defs/>
  <path d="M10.75,6.5 A0.75 0.75 0 0 0 10.75,8 L17.25,8 A0.75 0.75 0 0 0 17.25,6.5 L10.75,6.5 Z M6,7.25 A0.75 0.75 0 0 1 6.75,6.5 L7.25,6.5 A0.75 0.75 0 0 1 7.25,8 L6.75,8 A0.75 0.75 0 0 1 6,7.25 Z M10,16.25 A0.75 0.75 0 0 1 10.75,15.5 L17.25,15.5 A0.75 0.75 0 0 1 17.25,17 L10.75,17 A0.75 0.75 0 0 1 10,16.25 Z M6.75,15.5 A0.75 0.75 0 0 0 6.75,17 L7.25,17 A0.75 0.75 0 0 0 7.25,15.5 L6.75,15.5 Z"/>
  <path d="M3.25,2 L20.75,2 C21.716,2 22.5,2.784 22.5,3.75 L22.5,10.75 C22.5,11.122 22.384,11.466 22.186,11.75 C22.384,12.034 22.5,12.378 22.5,12.75 L22.5,19.75 A1.75 1.75 0 0 1 20.75,21.5 L3.25,21.5 A1.75 1.75 0 0 1 1.5,19.75 L1.5,12.75 C1.5,12.392 1.609,12.043 1.814,11.75 A1.741 1.741 0 0 1 1.5,10.75 L1.5,3.75 C1.5,2.784 2.284,2 3.25,2 Z M3.25,12.5 A0.25 0.25 0 0 0 3,12.75 L3,19.75 C3,19.888 3.112,20 3.25,20 L20.75,20 A0.25 0.25 0 0 0 21,19.75 L21,12.75 A0.25 0.25 0 0 0 20.75,12.5 Z M3.25,11 L20.75,11 A0.25 0.25 0 0 0 21,10.75 L21,3.75 A0.25 0.25 0 0 0 20.75,3.5 L3.25,3.5 A0.25 0.25 0 0 0 3,3.75 L3,10.75 C3,10.888 3.112,11 3.25,11 Z"/>
</svg>
