<svg xmlns="http://www.w3.org/2000/svg" width="16" height="16" viewBox="0 0 16 16">
  <defs/>
  <path d="M1.75,1 L14.25,1 C15.215999603271484,1 16,1.784000039100647 16,2.75 L16,6.75 C16,7.122000217437744 15.883999824523926,7.4670000076293945 15.685999870300293,7.75 C15.883999824523926,8.032999992370605 16,8.378000259399414 16,8.75 L16,12.75 C16,13.716498374938965 15.216498374938965,14.5 14.25,14.5 L1.75,14.5 C0.7835016846656799,14.5 0,13.716498374938965 0,12.75 L0,8.75 C0,8.392000198364258 0.10899999737739563,8.043000221252441 0.3140000104904175,7.75 C0.1102232038974762,7.4586710929870605 0.0006648579146713018,7.111928939819336 0,6.756509304046631 L0,2.75 C0,1.784000039100647 0.7839999794960022,1 1.75,1 Z M1.5,2.75 L1.5,6.75 C1.5,6.888000011444092 1.6119999885559082,7 1.75,7 L14.25,7 C14.388071060180664,7 14.5,6.888071060180664 14.5,6.75 L14.5,2.75 C14.5,2.611928701400757 14.388071060180664,2.5 14.25,2.5 L1.75,2.5 C1.6119288206100464,2.5 1.5,2.611928701400757 1.5,2.75 Z M1.75,8.5 C1.6119288206100464,8.5 1.5,8.611928939819336 1.5,8.75 L1.5,12.75 C1.5,12.887999534606934 1.6119999885559082,13 1.75,13 L14.25,13 C14.388071060180664,13 14.5,12.888071060180664 14.5,12.75 L14.5,8.75 C14.5,8.611928939819336 14.388071060180664,8.5 14.25,8.5 Z M7,4.75 C7,4.33578634262085 7.33578634262085,4 7.75,4 L12.25,4 C12.664213180541992,4 13,4.33578634262085 13,4.75 C13,5.16421365737915 12.664213180541992,5.5 12.25,5.5 L7.75,5.5 C7.33578634262085,5.5 7,5.16421365737915 7,4.75 Z M7.75,10 L12.25,10 C12.664213180541992,10 13,10.335786819458008 13,10.75 C13,11.164213180541992 12.664213180541992,11.5 12.25,11.5 L7.75,11.5 C7.33578634262085,11.5 7,11.164213180541992 7,10.75 C7,10.335786819458008 7.33578634262085,10 7.75,10 Z M3,4.75 C3,4.33578634262085 3.3357863426208496,4 3.75,4 L4.25,4 C4.66421365737915,4 5,4.33578634262085 5,4.75 C5,5.16421365737915 4.66421365737915,5.5 4.25,5.5 L3.75,5.5 C3.3357863426208496,5.5 3,5.16421365737915 3,4.75 Z M3.75,10 L4.25,10 C4.66421365737915,10 5,10.335786819458008 5,10.75 C5,11.164213180541992 4.66421365737915,11.5 4.25,11.5 L3.75,11.5 C3.3357863426208496,11.5 3,11.164213180541992 3,10.75 C3,10.335786819458008 3.3357863426208496,10 3.75,10 Z"/>
</svg>
