<svg xmlns="http://www.w3.org/2000/svg" width="16" height="16" viewBox="0 0 16 16">
  <defs/>
  <path d="M15,3 C14.999898910522461,4.227353096008301 14.252187728881836,5.330857753753662 13.11231517791748,5.785925388336182 C11.972442626953125,6.240993499755859 10.670337677001953,5.955831050872803 9.824999809265137,5.065999984741211 L5.90500020980835,7.244999885559082 C6.034010887145996,7.7400665283203125 6.034010887145996,8.259933471679688 5.90500020980835,8.755000114440918 L9.824999809265137,10.934000015258789 C10.866889953613281,9.8400239944458 12.559713363647461,9.691459655761719 13.776226043701172,10.587234497070312 C14.9927396774292,11.483009338378906 15.353375434875488,13.143630981445312 14.617987632751465,14.463298797607422 C14.098709106445312,15.395155906677246 13.147337913513184,15.951699256896973 12.139466285705566,16 L11.85326862335205,16 C11.526471138000488,15.98432445526123 11.197486877441406,15.914684295654297 10.87884521484375,15.78664493560791 C9.477049827575684,15.22336196899414 8.712797164916992,13.705587387084961 9.095000267028809,12.244000434875488 L5.175000190734863,10.065999984741211 C4.32957124710083,10.955718994140625 3.0274581909179688,11.24073600769043 1.8876487016677856,10.785561561584473 C0.7478390336036682,10.330387115478516 0.00024076044792309403,9.226834297180176 0.00024076044792309403,7.999499797821045 C0.00024076044792309403,6.772165775299072 0.7478390336036682,5.668612480163574 1.8876487016677856,5.213438510894775 C3.0274581909179688,4.758264541625977 4.32957124710083,5.043281078338623 5.175000190734863,5.933000087738037 L9.095000267028809,3.755000114440918 C8.804967880249023,2.630047082901001 9.190505027770996,1.4387686252593994 10.084651947021484,0.6970546841621399 C10.978797912597656,-0.044659323990345 12.22079849243164,-0.2034587264060974 13.272798538208008,0.28942540287971497 C14.324797630310059,0.7823095321655273 14.997660636901855,1.8382632732391357 15,3 Z M13.5,13 C13.499723434448242,12.171297073364258 12.827703475952148,11.499723434448242 11.99899959564209,11.5 C11.170296669006348,11.500276565551758 10.498723983764648,12.172296524047852 10.49899959564209,13.00100040435791 C10.499276161193848,13.829703330993652 11.171297073364258,14.501276016235352 12,14.50100040435791 C12.828702926635742,14.500723838806152 13.500276565551758,13.828702926635742 13.5,13 Z M13.5,3 C13.499723434448242,2.1712968349456787 12.827703475952148,1.4997239112854004 11.99899959564209,1.5 C11.170296669006348,1.5002760887145996 10.498723983764648,2.1722967624664307 10.49899959564209,3.000999927520752 C10.499276161193848,3.8297033309936523 11.171297073364258,4.501276016235352 12,4.500999927520752 C12.828702926635742,4.500723838806152 13.500276565551758,3.8287031650543213 13.5,3 Z M4.5,8 C4.4997239112854,7.1712965965271 3.8277032375335693,6.4997239112854 2.999000072479248,6.5 C2.1702966690063477,6.5002760887146 1.4987238645553589,7.172296524047852 1.4989999532699585,8.00100040435791 C1.4992761611938477,8.829703330993652 2.1712968349456787,9.501276016235352 3,9.50100040435791 C3.8287031650543213,9.500723838806152 4.5002760887146,8.828702926635742 4.5,8 Z"/>
</svg>
