<svg xmlns="http://www.w3.org/2000/svg" width="24" height="24" viewBox="0 0 24 24">
  <defs/>
  <path d="M5.5,9.75 L5.5,20.25 C5.5,20.388 5.612,20.5 5.75,20.5 L18.25,20.5 A0.25 0.25 0 0 0 18.5,20.25 L18.5,9.75 A0.25 0.25 0 0 0 18.25,9.5 L15.75,9.5 A0.75 0.75 0 0 1 15.75,8 L18.25,8 C19.216,8 20,8.784 20,9.75 L20,20.25 A1.75 1.75 0 0 1 18.25,22 L5.75,22 A1.75 1.75 0 0 1 4,20.25 L4,9.75 C4,8.784 4.784,8 5.75,8 L8.25,8 A0.75 0.75 0 0 1 8.25,9.5 L5.75,9.5 A0.25 0.25 0 0 0 5.5,9.75 Z M12.53,1.22 L15.78,4.47 A0.749 0.749 0 0 1 15.454,5.745 A0.749 0.749 0 0 1 14.72,5.53 L12.75,3.56 L12.75,14.25 A0.75 0.75 0 0 1 11.25,14.25 L11.25,3.56 L9.28,5.53 A0.751 0.751 0 0 1 8.238,5.512 A0.751 0.751 0 0 1 8.22,4.47 L11.47,1.22 A0.75 0.75 0 0 1 12.53,1.22 Z"/>
</svg>
