<svg xmlns="http://www.w3.org/2000/svg" width="24" height="24" viewBox="0 0 24 24">
  <defs/>
  <path d="M20,5.5 A3.498 3.498 0 0 1 13.938,7.885 L8.826,10.906 A3.498 3.498 0 0 1 8.826,13.094 L13.938,16.115 A3.5 3.5 0 1 1 13.174,17.405 L8.062,14.385 A3.499 3.499 0 1 1 4.219,8.743 A3.499 3.499 0 0 1 8.062,9.615 L13.174,6.594 A3.5 3.5 0 1 1 20,5.5 Z M18.5,18.5 A2 2 0 1 0 14.501,18.499 A2 2 0 0 0 18.5,18.5 Z M18.5,5.5 A2 2 0 1 0 14.501,5.499 A2 2 0 0 0 18.5,5.5 Z M5.5,14 A2 2 0 1 0 5.501,10.001 A2 2 0 0 0 5.5,14 Z"/>
</svg>
