<svg xmlns="http://www.w3.org/2000/svg" width="16" height="16" viewBox="0 0 16 16">
  <defs/>
  <path d="M3.75,6.5 A0.25 0.25 0 0 0 3.5,6.75 L3.5,13.25 C3.5,13.388 3.612,13.5 3.75,13.5 L12.25,13.5 A0.25 0.25 0 0 0 12.5,13.25 L12.5,6.75 A0.25 0.25 0 0 0 12.25,6.5 L11.25,6.5 A0.75 0.75 0 0 1 11.25,5 L12.25,5 C13.216,5 14,5.784 14,6.75 L14,13.25 A1.75 1.75 0 0 1 12.25,15 L3.75,15 A1.75 1.75 0 0 1 2,13.25 L2,6.75 C2,5.784 2.784,5 3.75,5 L4.75,5 A0.75 0.75 0 0 1 4.75,6.5 Z M7.823,0.177 A0.25 0.25 0 0 1 8.177,0.177 L11.073,3.073 A0.25 0.25 0 0 1 10.896,3.5 L8.75,3.5 L8.75,9.25 A0.75 0.75 0 0 1 7.25,9.25 L7.25,3.5 L5.104,3.5 A0.25 0.25 0 0 1 4.927,3.073 Z"/>
</svg>
