<svg xmlns="http://www.w3.org/2000/svg" width="24" height="24" viewBox="0 0 24 24">
  <defs/>
  <path d="M12.54,1.137 A1.748 1.748 0 0 0 11.46,1.137 L6.018,2.905 A0.75 0.75 0 1 0 6.482,4.332 L11.923,2.564 A0.239 0.239 0 0 1 12.077,2.564 L20.327,5.239 A0.249 0.249 0 0 1 20.5,5.476 L20.5,10.5 C20.5,11.784 20.26,13.33 19.804,14.471 A0.75 0.75 0 1 0 21.196,15.028 C21.74,13.67 22,11.927 22,10.5 L22,5.476 A1.75 1.75 0 0 0 20.79,3.812 L12.54,1.137 Z M2.017,4.843 L1.043,4.095 A0.751 0.751 0 0 1 1.957,2.905 L22.457,18.655 A0.751 0.751 0 0 1 21.543,19.845 L19.531,18.299 L18.829,19.151 L18.821,19.16 A0.07 0.07 0 0 1 18.813,19.17 C17.21,20.991 15.082,22.393 12.599,23.33 A1.699 1.699 0 0 1 11.401,23.329 C5.771,21.205 2,16.689 2,10.5 L2,5 C2,4.946 2.006,4.893 2.017,4.843 Z M3.5,5.982 L3.5,10.5 C3.5,15.961 6.781,19.983 11.931,21.926 A0.193 0.193 0 0 0 12.069,21.926 C14.352,21.065 16.261,19.795 17.679,18.188 L18.341,17.385 Z"/>
</svg>
