<svg xmlns="http://www.w3.org/2000/svg" width="24" height="24" viewBox="0 0 24 24">
  <defs/>
  <path d="M11.46,1.137 A1.748 1.748 0 0 1 12.54,1.137 L20.79,3.812 A1.75 1.75 0 0 1 22,5.476 L22,10.5 C22,16.69 18.23,21.205 12.599,23.33 A1.704 1.704 0 0 1 11.401,23.33 C5.771,21.204 2,16.69 2,10.5 L2,5.476 C2,4.716 2.49,4.046 3.21,3.812 Z M12.077,2.563 A0.253 0.253 0 0 0 11.923,2.563 L3.673,5.24 A0.25 0.25 0 0 0 3.5,5.477 L3.5,10.5 C3.5,15.961 6.78,19.983 11.93,21.926 A0.199 0.199 0 0 0 12.07,21.926 C17.22,19.983 20.5,15.961 20.5,10.5 L20.5,5.476 A0.25 0.25 0 0 0 20.327,5.239 Z M13,12.232 L13,15 A1 1 0 0 1 11,15 L11,12.232 A2 2 0 1 1 13,12.232 Z"/>
</svg>
