<svg xmlns="http://www.w3.org/2000/svg" width="16" height="16" viewBox="0 0 16 16">
  <defs/>
  <path d="M1,2.8570001125335693 L0.3100000023841858,2.3570001125335693 C0.14938165247440338,2.2473723888397217 0.04023243859410286,2.0817441940307617 0,1.8972876071929932 L0,1.5778014659881592 C0.05087469145655632,1.3442193269729614 0.21097946166992188,1.1467018127441406 0.4334836006164551,1.0498541593551636 C0.6838130354881287,0.9408952593803406 0.9735774397850037,0.9765723943710327 1.190000057220459,1.1430000066757202 L15.6899995803833,11.642999649047852 C15.850618362426758,11.7526273727417 15.95976734161377,11.918255805969238 16,12.102712631225586 L16,12.422199249267578 C15.949125289916992,12.655780792236328 15.789020538330078,12.85329818725586 15.566515922546387,12.950145721435547 C15.316186904907227,13.059104919433594 15.026422500610352,13.023427963256836 14.8100004196167,12.857000350952148 L13.527999877929688,11.928999900817871 C12.532999992370605,13.326000213623047 10.975000381469727,14.553000450134277 8.663999557495117,15.536999702453613 C8.23900032043457,15.718000411987305 7.758999824523926,15.717000007629395 7.335000038146973,15.536999702453613 C4.888000011444092,14.494999885559082 3.2860000133514404,13.180999755859375 2.302999973297119,11.682000160217285 C1.3200000524520874,10.182000160217285 1,8.565999984741211 1,7 Z M2.5,3.943000078201294 L2.5,7 C2.5,8.357999801635742 2.7750000953674316,9.666000366210938 3.556999921798706,10.859999656677246 C4.341000080108643,12.053999900817871 5.677999973297119,13.199999809265137 7.922999858856201,14.156999588012695 C7.9730000495910645,14.177000045776367 8.029000282287598,14.177000045776367 8.076000213623047,14.156999588012695 C10.20300006866455,13.251999855041504 11.515000343322754,12.175000190734863 12.312999725341797,11.048999786376953 Z M8.532999992370605,0.13300000131130219 L13.782999992370605,1.812999963760376 C14.508047103881836,2.0448434352874756 15.000061988830566,2.718787670135498 15,3.4800000190734863 L15,7 C15,7.26800012588501 14.989999771118164,7.535999774932861 14.970000267028809,7.806000232696533 C14.958529472351074,8.07958984375 14.79886531829834,8.325182914733887 14.553471565246582,8.446696281433105 C14.30807876586914,8.568208694458008 14.015966415405273,8.546324729919434 13.791417121887207,8.389605522155762 C13.56686782836914,8.23288631439209 13.445578575134277,7.966245651245117 13.475000381469727,7.693999767303467 C13.491999626159668,7.464000225067139 13.5,7.232999801635742 13.5,7 L13.5,3.4800000190734863 C13.50036334991455,3.370900869369507 13.429936408996582,3.274165630340576 13.326000213623047,3.240999937057495 L8.076000213623047,1.5609999895095825 C8.026253700256348,1.5450104475021362 7.972746849060059,1.5450104475021362 7.922999858856201,1.5609999895095825 L5.833000183105469,2.2309999465942383 C5.443233966827393,2.3431451320648193 5.034928321838379,2.1251206398010254 4.9113078117370605,1.7388408184051514 C4.7876877784729,1.3525612354278564 4.993544578552246,0.9379875063896179 5.375999927520752,0.8029999732971191 L7.4670000076293945,0.13300000131130219 C7.6403093338012695,0.07758205384016037 7.820100784301758,0.049867600202560425 7.9998931884765625,0.049856625497341156 C8.179899215698242,0.049867600202560425 8.35969066619873,0.07758205384016037 8.532999992370605,0.13300000131130219 Z"/>
</svg>
