<svg xmlns="http://www.w3.org/2000/svg" width="16" height="16" viewBox="0 0 16 16">
  <defs/>
  <path d="M8.533,0.133 L13.783,1.813 A1.75 1.75 0 0 1 15,3.48 L15,7 C15,8.566 14.68,10.182 13.697,11.682 C12.714,13.18 11.112,14.495 8.665,15.537 A1.697 1.697 0 0 1 7.335,15.537 C4.888,14.495 3.286,13.18 2.303,11.682 C1.32,10.182 1,8.566 1,7 L1,3.48 A1.75 1.75 0 0 1 2.217,1.813 L7.467,0.133 A1.748 1.748 0 0 1 8.533,0.133 Z M7.923,1.562 L7.924,1.563 L2.674,3.243 A0.251 0.251 0 0 0 2.5,3.48 L2.5,7 C2.5,8.36 2.775,9.666 3.557,10.859 C4.341,12.053 5.678,13.201 7.923,14.157 A0.196 0.196 0 0 0 8.077,14.157 C10.322,13.2 11.659,12.054 12.443,10.86 C13.225,9.666 13.5,8.358 13.5,7 L13.5,3.48 A0.25 0.25 0 0 0 13.326,3.242 L8.076,1.562 A0.25 0.25 0 0 0 7.923,1.562 Z M11.28,6.28 L7.78,9.78 A0.75 0.75 0 0 1 6.72,9.78 L5.22,8.28 A0.749 0.749 0 0 1 5.546,7.005 A0.749 0.749 0 0 1 6.28,7.22 L7.25,8.19 L10.22,5.22 A0.751 0.751 0 0 1 11.262,5.238 A0.751 0.751 0 0 1 11.28,6.28 Z"/>
</svg>
