<svg xmlns="http://www.w3.org/2000/svg" width="24" height="24" viewBox="0 0 24 24">
  <defs/>
  <path d="M9.28,7.72 A0.75 0.75 0 0 0 8.22,8.78 L10.94,11.5 L8.22,14.22 A0.75 0.75 0 1 0 9.28,15.28 L12,12.56 L14.72,15.28 A0.75 0.75 0 1 0 15.78,14.22 L13.06,11.5 L15.78,8.78 A0.75 0.75 0 0 0 14.72,7.72 L12,10.44 L9.28,7.72 Z"/>
  <path d="M12.54,0.637 L20.79,3.312 A1.75 1.75 0 0 1 22,4.976 L22,10 C22,16.19 18.229,20.704 12.599,22.83 A1.704 1.704 0 0 1 11.401,22.83 C5.77,20.705 2,16.19 2,10 L2,4.976 C2,4.218 2.489,3.546 3.21,3.312 L11.46,0.637 A1.748 1.748 0 0 1 12.54,0.637 Z M11.923,2.063 L3.673,4.739 A0.249 0.249 0 0 0 3.5,4.976 L3.5,10 C3.5,15.46 6.78,19.483 11.93,21.426 A0.199 0.199 0 0 0 12.07,21.426 C17.22,19.483 20.5,15.461 20.5,10 L20.5,4.976 A0.25 0.25 0 0 0 20.327,4.739 L12.077,2.063 A0.253 0.253 0 0 0 11.923,2.063 Z"/>
</svg>
