<svg xmlns="http://www.w3.org/2000/svg" width="16" height="16" viewBox="0 0 16 16">
  <defs/>
  <path d="M7.467,0.133 A1.748 1.748 0 0 1 8.533,0.133 L13.783,1.813 A1.75 1.75 0 0 1 15,3.48 L15,7 C15,8.566 14.68,10.182 13.697,11.682 C12.714,13.18 11.112,14.495 8.665,15.537 A1.697 1.697 0 0 1 7.335,15.537 C4.888,14.495 3.286,13.18 2.303,11.682 C1.32,10.182 1,8.566 1,7 L1,3.48 A1.75 1.75 0 0 1 2.217,1.813 Z M8.077,1.562 A0.25 0.25 0 0 0 7.924,1.562 L2.674,3.242 A0.25 0.25 0 0 0 2.5,3.48 L2.5,7 C2.5,8.358 2.775,9.666 3.557,10.86 C4.341,12.054 5.678,13.2 7.923,14.157 A0.196 0.196 0 0 0 8.077,14.157 C10.322,13.201 11.659,12.053 12.443,10.859 C13.225,9.666 13.5,8.36 13.5,7 L13.5,3.48 A0.251 0.251 0 0 0 13.326,3.243 L8.076,1.563 Z M8.75,4.75 L8.75,7.75 A0.75 0.75 0 0 1 7.25,7.75 L7.25,4.75 A0.75 0.75 0 0 1 8.75,4.75 Z M9,10.5 A1 1 0 1 1 7,10.5 A1 1 0 0 1 9,10.5 Z"/>
</svg>
