<svg xmlns="http://www.w3.org/2000/svg" width="24" height="24" viewBox="0 0 24 24">
  <defs/>
  <path d="M11.28,9.53 L8.81,12 L11.28,14.47 A0.749 0.749 0 0 1 10.954,15.745 A0.749 0.749 0 0 1 10.22,15.53 L7.22,12.53 A0.75 0.75 0 0 1 7.22,11.47 L10.22,8.47 A0.749 0.749 0 0 1 11.495,8.796 A0.749 0.749 0 0 1 11.28,9.53 Z"/>
  <path d="M3.75,2 L20.25,2 C21.216,2 22,2.784 22,3.75 L22,20.25 A1.75 1.75 0 0 1 20.25,22 L3.75,22 A1.75 1.75 0 0 1 2,20.25 L2,3.75 C2,2.784 2.784,2 3.75,2 Z M3.5,3.75 L3.5,20.25 C3.5,20.388 3.612,20.5 3.75,20.5 L15,20.5 L15,3.5 L3.75,3.5 A0.25 0.25 0 0 0 3.5,3.75 Z M16.5,20.5 L20.25,20.5 A0.25 0.25 0 0 0 20.5,20.25 L20.5,3.75 A0.25 0.25 0 0 0 20.25,3.5 L16.5,3.5 Z"/>
</svg>
