<svg xmlns="http://www.w3.org/2000/svg" width="16" height="16" viewBox="0 0 16 16">
  <defs/>
  <path d="M6.823,7.823 A0.25 0.25 0 0 1 6.823,8.177 L4.427,10.573 A0.25 0.25 0 0 1 4,10.396 L4,5.604 A0.25 0.25 0 0 1 4.427,5.427 Z"/>
  <path d="M1.75,0 L14.25,0 C15.216,0 16,0.784 16,1.75 L16,14.25 A1.75 1.75 0 0 1 14.25,16 L1.75,16 A1.75 1.75 0 0 1 0,14.25 L0,1.75 C0,0.784 0.784,0 1.75,0 Z M1.5,1.75 L1.5,14.25 C1.5,14.388 1.612,14.5 1.75,14.5 L9.5,14.5 L9.5,1.5 L1.75,1.5 A0.25 0.25 0 0 0 1.5,1.75 Z M11,14.5 L14.25,14.5 A0.25 0.25 0 0 0 14.5,14.25 L14.5,1.75 A0.25 0.25 0 0 0 14.25,1.5 L11,1.5 Z"/>
</svg>
