<svg xmlns="http://www.w3.org/2000/svg" width="16" height="16" viewBox="0 0 16 16">
  <defs/>
  <path d="M2,2.75 C2,1.784 2.784,1 3.75,1 L6.25,1 A0.75 0.75 0 0 1 6.25,2.5 L3.75,2.5 A0.25 0.25 0 0 0 3.5,2.75 L3.5,13.25 C3.5,13.388 3.612,13.5 3.75,13.5 L6.25,13.5 A0.75 0.75 0 0 1 6.25,15 L3.75,15 A1.75 1.75 0 0 1 2,13.25 Z M8.56,7.25 L14.25,7.25 A0.75 0.75 0 0 1 14.25,8.75 L8.56,8.75 L10.53,10.72 A0.749 0.749 0 0 1 10.204,11.995 A0.749 0.749 0 0 1 9.47,11.78 L6.22,8.53 A0.75 0.75 0 0 1 6.22,7.47 L9.47,4.22 A0.749 0.749 0 0 1 10.745,4.546 A0.749 0.749 0 0 1 10.53,5.28 Z"/>
</svg>
