<svg xmlns="http://www.w3.org/2000/svg" width="16" height="16" viewBox="0 0 16 16">
  <defs/>
  <path d="M2,2.75 C2,1.784 2.784,1 3.75,1 L6.25,1 A0.75 0.75 0 0 1 6.25,2.5 L3.75,2.5 A0.25 0.25 0 0 0 3.5,2.75 L3.5,13.25 C3.5,13.388 3.612,13.5 3.75,13.5 L6.25,13.5 A0.75 0.75 0 0 1 6.25,15 L3.75,15 A1.75 1.75 0 0 1 2,13.25 Z M12.44,7.25 L10.47,5.28 A0.749 0.749 0 0 1 10.796,4.005 A0.749 0.749 0 0 1 11.53,4.22 L14.78,7.47 A0.75 0.75 0 0 1 14.78,8.53 L11.53,11.78 A0.749 0.749 0 0 1 10.255,11.454 A0.749 0.749 0 0 1 10.47,10.72 L12.44,8.75 L6.75,8.75 A0.75 0.75 0 0 1 6.75,7.25 Z"/>
</svg>
