<svg xmlns="http://www.w3.org/2000/svg" width="24" height="24" viewBox="0 0 24 24">
  <defs/>
  <path d="M3,3.25 C3,2.284 3.784,1.5 4.75,1.5 L10.25,1.5 A0.75 0.75 0 0 1 10.25,3 L4.75,3 A0.25 0.25 0 0 0 4.5,3.25 L4.5,20.75 C4.5,20.888 4.612,21 4.75,21 L10.25,21 A0.75 0.75 0 0 1 10.25,22.5 L4.75,22.5 A1.75 1.75 0 0 1 3,20.75 Z M19.006,12.75 L10.75,12.75 A0.75 0.75 0 0 1 10.75,11.25 L19.006,11.25 L15.706,7.766 A0.75 0.75 0 0 1 16.794,6.734 L21.294,11.484 A0.75 0.75 0 0 1 21.294,12.516 L16.794,17.266 A0.75 0.75 0 0 1 15.706,16.234 Z"/>
</svg>
