<svg xmlns="http://www.w3.org/2000/svg" width="24" height="24" viewBox="0 0 24 24">
  <defs/>
  <path d="M3,3.25 C3,2.284 3.784,1.5 4.75,1.5 L10.25,1.5 A0.75 0.75 0 0 1 10.25,3 L4.75,3 A0.25 0.25 0 0 0 4.5,3.25 L4.5,20.75 C4.5,20.888 4.612,21 4.75,21 L10.25,21 A0.75 0.75 0 0 1 10.25,22.5 L4.75,22.5 A1.75 1.75 0 0 1 3,20.75 Z M12.994,12.75 L16.294,16.234 A0.75 0.75 0 0 1 15.206,17.266 L10.706,12.516 A0.75 0.75 0 0 1 10.706,11.484 L15.206,6.734 A0.75 0.75 0 0 1 16.294,7.766 L12.994,11.25 L21.25,11.25 A0.75 0.75 0 0 1 21.25,12.75 Z"/>
</svg>
