<svg xmlns="http://www.w3.org/2000/svg" width="16" height="16" viewBox="0 0 16 16">
  <defs/>
  <path d="M5.06,7.356 L7.855,10.189 C7.935,10.27 8.065,10.27 8.145,10.189 L10.939,7.356 C11.069,7.225 10.977,7 10.794,7 L5.206,7 C5.023,7 4.931,7.225 5.061,7.356 Z"/>
  <path d="M1,2.75 C1,1.784 1.784,1 2.75,1 L13.25,1 C14.216,1 15,1.784 15,2.75 L15,13.25 A1.75 1.75 0 0 1 13.25,15 L2.75,15 A1.75 1.75 0 0 1 1,13.25 Z M2.75,2.5 A0.25 0.25 0 0 0 2.5,2.75 L2.5,13.25 C2.5,13.388 2.612,13.5 2.75,13.5 L13.25,13.5 A0.25 0.25 0 0 0 13.5,13.25 L13.5,2.75 A0.25 0.25 0 0 0 13.25,2.5 Z"/>
</svg>
