<svg xmlns="http://www.w3.org/2000/svg" width="24" height="24" viewBox="0 0 24 24">
  <defs/>
  <path d="M7.854,10.854 L11.646,14.646 A0.5 0.5 0 0 0 12.354,14.646 L16.147,10.854 A0.5 0.5 0 0 0 15.793,10 L8.207,10 A0.5 0.5 0 0 0 7.854,10.854 Z"/>
  <path d="M2,3.75 C2,2.784 2.784,2 3.75,2 L20.25,2 C21.216,2 22,2.784 22,3.75 L22,20.25 A1.75 1.75 0 0 1 20.25,22 L3.75,22 A1.75 1.75 0 0 1 2,20.25 Z M3.75,3.5 A0.25 0.25 0 0 0 3.5,3.75 L3.5,20.25 C3.5,20.388 3.612,20.5 3.75,20.5 L20.25,20.5 A0.25 0.25 0 0 0 20.5,20.25 L20.5,3.75 A0.25 0.25 0 0 0 20.25,3.5 Z"/>
</svg>
