<svg xmlns="http://www.w3.org/2000/svg" width="24" height="24" viewBox="0 0 24 24">
  <defs/>
  <path d="M11,18.25 A0.75 0.75 0 0 1 11.75,17.5 L20.25,17.5 A0.75 0.75 0 0 1 20.25,19 L11.75,19 A0.75 0.75 0 0 1 11,18.25 Z M3,6.25 A0.75 0.75 0 0 1 3.75,5.5 L11.25,5.5 A0.75 0.75 0 0 1 11.25,7 L3.75,7 A0.75 0.75 0 0 1 3,6.25 Z M16,12.25 A0.75 0.75 0 0 1 16.75,11.5 L20.25,11.5 A0.75 0.75 0 0 1 20.25,13 L16.75,13 A0.75 0.75 0 0 1 16,12.25 Z M8.75,16 A0.75 0.75 0 0 1 9.5,16.75 L9.5,19.75 A0.75 0.75 0 0 1 8,19.75 L8,16.75 A0.75 0.75 0 0 1 8.75,16 Z"/>
  <path d="M3,18.25 A0.75 0.75 0 0 1 3.75,17.5 L8.25,17.5 A0.75 0.75 0 0 1 8.25,19 L3.75,19 A0.75 0.75 0 0 1 3,18.25 Z M3,12.25 A0.75 0.75 0 0 1 3.75,11.5 L12.25,11.5 A0.75 0.75 0 0 1 12.25,13 L3.75,13 A0.75 0.75 0 0 1 3,12.25 Z M16.75,10 A0.75 0.75 0 0 1 17.5,10.75 L17.5,13.75 A0.75 0.75 0 0 1 16,13.75 L16,10.75 A0.75 0.75 0 0 1 16.75,10 Z M14,6.25 A0.75 0.75 0 0 1 14.75,5.5 L20.25,5.5 A0.75 0.75 0 0 1 20.25,7 L14.75,7 A0.75 0.75 0 0 1 14,6.25 Z M11.25,4 A0.75 0.75 0 0 1 12,4.75 L12,7.75 A0.75 0.75 0 0 1 10.5,7.75 L10.5,4.75 A0.75 0.75 0 0 1 11.25,4 Z"/>
</svg>
