<svg xmlns="http://www.w3.org/2000/svg" width="16" height="16" viewBox="0 0 16 16">
  <defs/>
  <path d="M8,0 A8 8 0 1 1 8,16 A8 8 0 0 1 8,0 Z M1.5,8 A6.5 6.5 0 1 0 14.5,8 A6.5 6.5 0 0 0 1.5,8 Z M5.32,9.636 A0.75 0.75 0 0 1 6.358,9.811 L6.365,9.82 C6.468,9.938 6.585,10.042 6.715,10.13 C6.979,10.308 7.398,10.5 8,10.5 C8.602,10.5 9.02,10.308 9.285,10.129 C9.415,10.041 9.532,9.937 9.635,9.819 L9.642,9.811 A0.75 0.75 0 0 1 10.864,10.681 L10.842,10.666 C10.862,10.679 10.863,10.681 10.863,10.681 L10.863,10.682 L10.862,10.684 L10.86,10.687 L10.855,10.694 L10.841,10.713 A2.066 2.066 0 0 1 10.657,10.926 C10.497,11.092 10.319,11.242 10.127,11.371 C9.497,11.789 8.757,12.009 8,12 C7.054,12 6.348,11.692 5.874,11.37 A3.331 3.331 0 0 1 5.159,10.713 L5.145,10.693 L5.14,10.687 L5.138,10.684 L5.138,10.682 L5.137,10.682 L5.75,10.25 L5.136,10.68 A0.75 0.75 0 0 1 5.319,9.636 Z M12,7 A1 1 0 1 1 10,7 A1 1 0 0 1 12,7 Z M5,8 A1 1 0 1 1 5,6 A1 1 0 0 1 5,8 Z M10.25,10.25 L10.842,10.666 A97.71 97.71 0 0 0 10.25,10.25 Z"/>
</svg>
