<svg xmlns="http://www.w3.org/2000/svg" width="24" height="24" viewBox="0 0 24 24">
  <defs/>
  <path d="M18.5,16.44 L18.5,6.75 A0.75 0.75 0 0 0 17,6.75 L17,16.44 L14.78,14.22 A0.75 0.75 0 1 0 13.72,15.28 L17.22,18.78 A0.75 0.75 0 0 0 18.28,18.78 L21.78,15.28 A0.75 0.75 0 1 0 20.72,14.22 L18.5,16.44 Z M2,7.25 A0.75 0.75 0 0 1 2.75,6.5 L12.25,6.5 A0.75 0.75 0 0 1 12.25,8 L2.75,8 A0.75 0.75 0 0 1 2,7.25 Z M2,12.25 A0.75 0.75 0 0 1 2.75,11.5 L8.25,11.5 A0.75 0.75 0 0 1 8.25,13 L2.75,13 A0.75 0.75 0 0 1 2,12.25 Z M2,17.25 A0.75 0.75 0 0 1 2.75,16.5 L6.25,16.5 A0.75 0.75 0 0 1 6.25,18 L2.75,18 A0.75 0.75 0 0 1 2,17.25 Z"/>
</svg>
