<svg xmlns="http://www.w3.org/2000/svg" width="16" height="16" viewBox="0 0 16 16">
  <defs/>
  <path d="M12.927000045776367,2.572999954223633 L15.927000045776367,5.572999954223633 C15.971263885498047,5.617151737213135 15.996384620666504,5.675097465515137 16,5.734988689422607 L16,5.7651166915893555 C15.998353958129883,5.792361259460449 15.99222469329834,5.81959867477417 15.981391906738281,5.845731735229492 C15.942619323730469,5.939268589019775 15.8512544631958,6.000181198120117 15.75,6 L13.5,6 L13.5,12.75 C13.5,13.164213180541992 13.164213180541992,13.5 12.75,13.5 C12.335786819458008,13.5 12,13.164213180541992 12,12.75 L12,6 L9.75,6 C9.6487455368042,6.000181198120117 9.557380676269531,5.939268589019775 9.518608093261719,5.845731735229492 C9.47983455657959,5.752194881439209 9.501311302185059,5.644506931304932 9.572999954223633,5.572999954223633 L12.572999954223633,2.572999954223633 C12.619901657104492,2.5259790420532227 12.683586120605469,2.4995532035827637 12.75,2.4995532035827637 C12.816413879394531,2.4995532035827637 12.880098342895508,2.5259790420532227 12.927000045776367,2.572999954223633 Z M0,12.25 C0,11.835786819458008 0.3357864320278168,11.5 0.75,11.5 L8.25,11.5 C8.664213180541992,11.5 9,11.835786819458008 9,12.25 C9,12.664213180541992 8.664213180541992,13 8.25,13 L0.75,13 C0.3357864320278168,13 0,12.664213180541992 0,12.25 Z M0,8.25 C0,7.83578634262085 0.3357864320278168,7.5 0.75,7.5 L5.25,7.5 C5.66421365737915,7.5 6,7.83578634262085 6,8.25 C6,8.664213180541992 5.66421365737915,9 5.25,9 L0.75,9 C0.3357864320278168,9 0,8.664213180541992 0,8.25 Z M0,4.25 C0,3.8357863426208496 0.3357864320278168,3.5 0.75,3.5 L3.25,3.5 C3.6642136573791504,3.5 4,3.8357863426208496 4,4.25 C4,4.66421365737915 3.6642136573791504,5 3.25,5 L0.75,5 C0.3357864320278168,5 0,4.66421365737915 0,4.25 Z"/>
</svg>
