<svg xmlns="http://www.w3.org/2000/svg" width="16" height="16" viewBox="0 0 16 16">
  <defs/>
  <path d="M13.5,10 L15.75,10 C15.8512544631958,9.999818801879883 15.942619323730469,10.060731887817383 15.981391906738281,10.154268264770508 C15.99222469329834,10.180401802062988 15.998353958129883,10.20763874053955 16,10.234883308410645 L16,10.26501178741455 C15.996384620666504,10.324902534484863 15.971263885498047,10.382847785949707 15.927000045776367,10.427000045776367 L12.927000045776367,13.427000045776367 C12.880098342895508,13.474020957946777 12.816413879394531,13.500447273254395 12.75,13.500447273254395 C12.683586120605469,13.500447273254395 12.619901657104492,13.474020957946777 12.572999954223633,13.427000045776367 L9.572999954223633,10.427000045776367 C9.501311302185059,10.35549259185791 9.47983455657959,10.24780559539795 9.518608093261719,10.154268264770508 C9.557380676269531,10.060731887817383 9.6487455368042,9.999818801879883 9.75,10 L12,10 L12,3.75 C12,3.3357863426208496 12.335786819458008,3 12.75,3 C13.164213180541992,3 13.5,3.3357863426208496 13.5,3.75 Z M0,4.25 C0,3.8357863426208496 0.3357864320278168,3.5 0.75,3.5 L8.25,3.5 C8.664213180541992,3.5 9,3.8357863426208496 9,4.25 C9,4.66421365737915 8.664213180541992,5 8.25,5 L0.75,5 C0.3357864320278168,5 0,4.66421365737915 0,4.25 Z M0,8.25 C0,7.83578634262085 0.3357864320278168,7.5 0.75,7.5 L5.25,7.5 C5.66421365737915,7.5 6,7.83578634262085 6,8.25 C6,8.664213180541992 5.66421365737915,9 5.25,9 L0.75,9 C0.3357864320278168,9 0,8.664213180541992 0,8.25 Z M0,12.25 C0,11.835786819458008 0.3357864320278168,11.5 0.75,11.5 L3.25,11.5 C3.6642136573791504,11.5 4,11.835786819458008 4,12.25 C4,12.664213180541992 3.6642136573791504,13 3.25,13 L0.75,13 C0.3357864320278168,13 0,12.664213180541992 0,12.25 Z"/>
</svg>
