<svg xmlns="http://www.w3.org/2000/svg" width="16" height="16" viewBox="0 0 16 16">
  <defs/>
  <path d="M9.600000381469727,2.2790000438690186 C9.661494255065918,2.1111507415771484 9.821240425109863,1.9995468854904175 10,1.9995468854904175 C10.178759574890137,1.9995468854904175 10.338505744934082,2.1111507415771484 10.399999618530273,2.2790000438690186 L10.807000160217285,3.3910000324249268 C11.453044891357422,5.156104564666748 12.843894958496094,6.54695463180542 14.609000205993652,7.192999839782715 L15.720999717712402,7.599999904632568 C15.882649421691895,7.659223556518555 15.992133140563965,7.809574127197266 16,7.980274677276611 L16,8.019725799560547 C15.992133140563965,8.190425872802734 15.882649421691895,8.340777397155762 15.720999717712402,8.399999618530273 L14.609000205993652,8.807000160217285 C12.843894958496094,9.453044891357422 11.453044891357422,10.843894958496094 10.807000160217285,12.609000205993652 L10.399999618530273,13.720999717712402 C10.338505744934082,13.888849258422852 10.178759574890137,14.000452995300293 10,14.000452995300293 C9.821240425109863,14.000452995300293 9.661494255065918,13.888849258422852 9.600000381469727,13.720999717712402 L9.192999839782715,12.609000205993652 C8.546955108642578,10.843894958496094 7.156104564666748,9.453044891357422 5.390999794006348,8.807000160217285 L4.2789998054504395,8.399999618530273 C4.111150741577148,8.338505744934082 3.999547004699707,8.178759574890137 3.999547004699707,8 C3.999547004699707,7.821240425109863 4.111150741577148,7.661494731903076 4.2789998054504395,7.599999904632568 L5.390999794006348,7.192999839782715 C7.156104564666748,6.54695463180542 8.546955108642578,5.156104564666748 9.192999839782715,3.3910000324249268 Z M2.799999952316284,0.14000000059604645 C2.830747365951538,0.0560753159224987 2.9106202125549316,0.00027346040587872267 3,0.00027346040587872267 C3.0893797874450684,0.00027346040587872267 3.169252634048462,0.0560753159224987 3.200000047683716,0.14000000059604645 L3.4030001163482666,0.6959999799728394 C3.7268457412719727,1.5780266523361206 4.42197322845459,2.2731542587280273 5.303999900817871,2.5969998836517334 L5.860000133514404,2.799999952316284 C5.943924903869629,2.830747365951538 5.99972677230835,2.9106202125549316 5.99972677230835,3 C5.99972677230835,3.0893797874450684 5.943924903869629,3.169252634048462 5.860000133514404,3.200000047683716 L5.303999900817871,3.4030001163482666 C4.42197322845459,3.7268457412719727 3.7268457412719727,4.42197322845459 3.4030001163482666,5.303999900817871 L3.200000047683716,5.860000133514404 C3.169252634048462,5.943924903869629 3.0893797874450684,5.99972677230835 3,5.99972677230835 C2.9106202125549316,5.99972677230835 2.830747365951538,5.943924903869629 2.799999952316284,5.860000133514404 L2.5969998836517334,5.303999900817871 C2.2731542587280273,4.42197322845459 1.5780266523361206,3.7268457412719727 0.6959999799728394,3.4030001163482666 L0.14000000059604645,3.200000047683716 C0.0560753159224987,3.169252634048462 0.00027346040587872267,3.0893797874450684 0.00027346040587872267,3 C0.00027346040587872267,2.9106202125549316 0.0560753159224987,2.830747365951538 0.14000000059604645,2.799999952316284 L0.6959999799728394,2.5969998836517334 C1.5780266523361206,2.2731542587280273 2.2731542587280273,1.5780266523361206 2.5969998836517334,0.6959999799728394 Z M5.333000183105469,11.116000175476074 C5.358800411224365,11.046058654785156 5.425451755523682,10.999603271484375 5.5,10.999603271484375 C5.574548244476318,10.999603271484375 5.641199588775635,11.046058654785156 5.666999816894531,11.116000175476074 L5.835999965667725,11.579999923706055 C6.105327606201172,12.315274238586426 6.684725761413574,12.894672393798828 7.420000076293945,13.163999557495117 L7.883999824523926,13.333000183105469 C7.953941345214844,13.358799934387207 8.000396728515625,13.425451278686523 8.000396728515625,13.5 C8.000396728515625,13.574548721313477 7.953941345214844,13.641200065612793 7.883999824523926,13.666999816894531 L7.420000076293945,13.836000442504883 C6.684725761413574,14.105327606201172 6.105327606201172,14.684725761413574 5.835999965667725,15.420000076293945 L5.666999816894531,15.883999824523926 C5.642582416534424,15.950193405151367 5.5815749168396,15.995349884033203 5.5119123458862305,16 L5.4880876541137695,16 C5.4184250831604,15.995349884033203 5.357417583465576,15.950193405151367 5.333000183105469,15.883999824523926 L5.164000034332275,15.420000076293945 C4.894672393798828,14.684725761413574 4.315274238586426,14.105327606201172 3.5799999237060547,13.836000442504883 L3.115999937057495,13.666999816894531 C3.046058416366577,13.641200065612793 2.999603509902954,13.574548721313477 2.999603509902954,13.5 C2.999603509902954,13.425451278686523 3.046058416366577,13.358799934387207 3.115999937057495,13.333000183105469 L3.5799999237060547,13.163999557495117 C4.315274238586426,12.894672393798828 4.894672393798828,12.315274238586426 5.164000034332275,11.579999923706055 Z"/>
</svg>
