<svg xmlns="http://www.w3.org/2000/svg" width="24" height="24" viewBox="0 0 24 24">
  <defs/>
  <path d="M11.296,1.924 C11.536,1.268 12.464,1.268 12.704,1.924 L13.421,3.882 A11.25 11.25 0 0 0 20.118,10.579 L22.076,11.296 C22.733,11.536 22.733,12.464 22.076,12.704 L20.118,13.421 A11.25 11.25 0 0 0 13.421,20.118 L12.704,22.076 C12.464,22.733 11.536,22.733 11.296,22.076 L10.579,20.118 A11.25 11.25 0 0 0 3.882,13.421 L1.924,12.704 C1.268,12.464 1.268,11.536 1.924,11.296 L3.882,10.579 A11.25 11.25 0 0 0 10.579,3.882 L11.296,1.924 Z"/>
</svg>
