<svg xmlns="http://www.w3.org/2000/svg" width="24" height="24" viewBox="0 0 24 24">
  <defs/>
  <path d="M14.399999618530273,3.4189999103546143 C14.492241859436035,3.1672258377075195 14.731860160827637,2.9998204708099365 15,2.9998204708099365 C15.268139839172363,2.9998204708099365 15.507758140563965,3.1672258377075195 15.600000381469727,3.4189999103546143 L16.209999084472656,5.086999893188477 C17.180009841918945,7.734055519104004 19.265945434570312,9.819989204406738 21.913000106811523,10.789999961853027 L23.58099937438965,11.399999618530273 C23.8280086517334,11.490496635437012 23.993812561035156,11.722844123840332 24,11.984808921813965 L24,12.015191078186035 C23.993812561035156,12.277155876159668 23.8280086517334,12.509503364562988 23.58099937438965,12.600000381469727 L21.913000106811523,13.210000038146973 C19.265945434570312,14.180010795593262 17.180009841918945,16.265945434570312 16.209999084472656,18.913000106811523 L15.600000381469727,20.58099937438965 C15.507758140563965,20.832773208618164 15.268139839172363,21.000179290771484 15,21.000179290771484 C14.731860160827637,21.000179290771484 14.492241859436035,20.832773208618164 14.399999618530273,20.58099937438965 L13.789999961853027,18.913000106811523 C12.819989204406738,16.265945434570312 10.734055519104004,14.180010795593262 8.086999893188477,13.210000038146973 L6.419000148773193,12.600000381469727 C6.1672258377075195,12.507758140563965 5.999820232391357,12.268139839172363 5.999820232391357,12 C5.999820232391357,11.731860160827637 6.1672258377075195,11.492241859436035 6.419000148773193,11.399999618530273 L8.086999893188477,10.789999961853027 C10.734055519104004,9.819989204406738 12.819989204406738,7.734055519104004 13.789999961853027,5.086999893188477 Z M4.199999809265137,0.20999999344348907 C4.246554374694824,0.08457884937524796 4.366217613220215,0.0013552872696891427 4.5,0.0013552872696891427 C4.633782386779785,0.0013552872696891427 4.753445625305176,0.08457884937524796 4.800000190734863,0.20999999344348907 L5.105000019073486,1.0429999828338623 C5.589932441711426,2.3668606281280518 6.633139610290527,3.410067558288574 7.956999778747559,3.8949999809265137 L8.789999961853027,4.199999809265137 C8.915421485900879,4.246554374694824 8.998644828796387,4.366217613220215 8.998644828796387,4.5 C8.998644828796387,4.633782386779785 8.915421485900879,4.753445625305176 8.789999961853027,4.800000190734863 L7.956999778747559,5.105000019073486 C6.633139610290527,5.589932441711426 5.589932441711426,6.633139610290527 5.105000019073486,7.956999778747559 L4.800000190734863,8.789999961853027 C4.753445625305176,8.915421485900879 4.633782386779785,8.998644828796387 4.5,8.998644828796387 C4.366217613220215,8.998644828796387 4.246554374694824,8.915421485900879 4.199999809265137,8.789999961853027 L3.8949999809265137,7.956999778747559 C3.410067558288574,6.633139610290527 2.3668606281280518,5.589932441711426 1.0429999828338623,5.105000019073486 L0.20999999344348907,4.800000190734863 C0.08457884937524796,4.753445625305176 0.0013552872696891427,4.633782386779785 0.0013552872696891427,4.5 C0.0013552872696891427,4.366217613220215 0.08457884937524796,4.246554374694824 0.20999999344348907,4.199999809265137 L1.0429999828338623,3.8949999809265137 C2.3668606281280518,3.410067558288574 3.410067558288574,2.3668606281280518 3.8949999809265137,1.0429999828338623 Z M8,16.674999237060547 C8.038213729858398,16.56985855102539 8.138129234313965,16.499862670898438 8.25,16.499862670898438 C8.361870765686035,16.499862670898438 8.461786270141602,16.56985855102539 8.5,16.674999237060547 L8.753999710083008,17.368999481201172 C9.157628059387207,18.472366333007812 10.026803016662598,19.341907501220703 11.130000114440918,19.746000289916992 L11.824999809265137,20 C11.93014144897461,20.0382137298584 12.000137329101562,20.13813018798828 12.000137329101562,20.25 C12.000137329101562,20.36186981201172 11.93014144897461,20.4617862701416 11.824999809265137,20.5 L11.130000114440918,20.753999710083008 C10.026803016662598,21.158092498779297 9.157628059387207,22.027633666992188 8.753999710083008,23.131000518798828 L8.5,23.825000762939453 C8.46276569366455,23.927446365356445 8.366950988769531,23.99652671813965 8.258576393127441,24 L8.241423606872559,24 C8.133049011230469,23.99652671813965 8.03723430633545,23.927446365356445 8,23.825000762939453 L7.745999813079834,23.131000518798828 C7.342372417449951,22.027633666992188 6.473196506500244,21.158092498779297 5.369999885559082,20.753999710083008 L4.675000190734863,20.5 C4.569858551025391,20.4617862701416 4.4998626708984375,20.36186981201172 4.4998626708984375,20.25 C4.4998626708984375,20.13813018798828 4.569858551025391,20.0382137298584 4.675000190734863,20 L5.369999885559082,19.746000289916992 C6.473196506500244,19.341907501220703 7.342372417449951,18.472366333007812 7.745999813079834,17.368999481201172 Z"/>
</svg>
