<svg xmlns="http://www.w3.org/2000/svg" width="24" height="24" viewBox="0 0 24 24">
  <defs/>
  <path d="M16.004,1.25 C18.311,1.25 20,3.128 20,5.75 C20,8.042 18.77,10.214 16.705,12.235 C16.224,12.705 15.725,13.144 15.223,13.545 L15.488,14.865 L16.863,22.365 A0.75 0.75 0 0 1 15.881,23.209 L12.369,22.002 A0.75 0.75 0 0 0 11.881,22.002 L8.37,23.209 A0.75 0.75 0 0 1 7.388,22.365 L8.766,14.853 L9.027,13.544 C8.527,13.144 8.027,12.706 7.546,12.234 C5.479,10.215 4.25,8.043 4.25,5.75 C4.25,3.128 5.939,1.25 8.246,1.25 C9.796,1.25 11.193,2.002 12.078,3.217 L12.125,3.284 L12.172,3.217 A4.726 4.726 0 0 1 15.784,1.255 L16.004,1.25 Z M13.89,14.531 C13.472,14.816 13.062,15.073 12.672,15.301 L12.492,15.404 A0.75 0.75 0 0 1 11.758,15.404 L11.687,15.364 L11.227,15.092 C10.945,14.919 10.654,14.732 10.359,14.53 L10.238,15.135 L9.093,21.374 L11.393,20.584 A2.248 2.248 0 0 1 12.677,20.53 L12.857,20.583 L15.156,21.373 L14.015,15.147 L13.89,14.531 Z M16.004,2.75 C14.54,2.75 13.273,3.733 12.845,5.209 C12.636,5.93 11.614,5.93 11.405,5.209 C10.977,3.733 9.71,2.75 8.245,2.75 C6.805,2.75 5.75,3.923 5.75,5.75 C5.75,7.561 6.789,9.397 8.594,11.162 A19.624 19.624 0 0 0 12.328,14.002 L12.309,13.991 L12.125,13.88 L12.272,13.792 A19.81 19.81 0 0 0 15.287,11.514 L15.657,11.162 C17.46,9.397 18.5,7.561 18.5,5.75 C18.5,3.923 17.445,2.75 16.004,2.75 Z"/>
</svg>
