<svg xmlns="http://www.w3.org/2000/svg" width="16" height="16" viewBox="0 0 16 16">
  <defs/>
  <path d="M10.586,1 C12.268,1 13.5,2.37 13.5,4.25 C13.5,5.995 12.504,7.609 10.878,9.081 C10.712,9.231 10.542,9.378 10.369,9.519 L11.485,15.103 A0.75 0.75 0 0 1 10.494,15.955 L8.085,15.079 A0.25 0.25 0 0 0 7.915,15.079 L5.506,15.955 A0.75 0.75 0 0 1 4.515,15.103 L5.63,9.519 A13.78 13.78 0 0 1 5.12,9.081 C3.497,7.609 2.5,5.995 2.5,4.25 C2.5,2.37 3.732,1 5.414,1 C6.377,1 7.257,1.403 7.888,2.073 L8,2.198 L8.112,2.073 A3.385 3.385 0 0 1 10.395,1.005 L10.586,1 Z M6.965,10.495 L6.247,14.089 L7.402,13.669 A1.75 1.75 0 0 1 8.43,13.618 L8.598,13.669 L9.752,14.089 L9.034,10.497 C8.835,10.627 8.664,10.732 8.529,10.811 L8.36,10.908 A0.75 0.75 0 0 1 7.64,10.908 A9.54 9.54 0 0 1 7.125,10.6 L6.965,10.495 Z M10.586,2.5 C9.723,2.5 8.975,3.08 8.72,3.959 C8.511,4.68 7.489,4.68 7.28,3.959 C7.025,3.08 6.277,2.5 5.414,2.5 C4.598,2.5 4,3.165 4,4.25 C4,5.48 4.786,6.754 6.128,7.969 C6.618,8.412 7.146,8.815 7.674,9.167 L7.999,9.377 L8.075,9.33 L8.326,9.167 A13.341 13.341 0 0 0 9.872,7.969 C11.214,6.754 12,5.479 12,4.25 C12,3.165 11.402,2.5 10.586,2.5 Z"/>
</svg>
