<svg xmlns="http://www.w3.org/2000/svg" width="16" height="16" viewBox="0 0 16 16">
  <defs/>
  <path d="M3.499,0.75 A0.75 0.75 0 0 1 4.999,0.75 L4.999,1.746 C5.9,2.903 6.793,3.65 7.662,4.376 L7.902,4.578 C7.866,3.884 7.957,3.156 8.328,2.415 C9.1,0.873 10.794,-0.045 12.622,0.26 C14.408,0.558 16,1.94 16,4.25 C16,5.528 15.046,6.825 13.56,6.984 L13.706,7.492 L13.771,7.712 C13.974,8.413 14.183,9.167 14.247,9.938 C14.389,11.645 13.847,12.968 12.76,13.836 C11.714,14.671 10.27,15 8.75,15 L2.75,15 A0.75 0.75 0 0 1 2.75,13.5 L4.126,13.5 A4.484 4.484 0 0 1 3.563,12.309 A3.835 3.835 0 0 1 3.513,10.246 A4.647 4.647 0 0 1 1.488,9.953 A0.75 0.75 0 0 1 2.013,8.547 C3.37,9.054 4.389,8.541 4.711,8.229 L4.72,8.219 A0.747 0.747 0 0 1 5.78,8.219 A0.748 0.748 0 0 1 5.768,9.293 C4.856,10.213 4.776,11.128 5,11.879 C5.221,12.619 5.745,13.216 6.196,13.5 L8.75,13.5 C10.093,13.5 11.148,13.204 11.824,12.664 C12.459,12.157 12.86,11.354 12.752,10.062 C12.702,9.459 12.536,8.838 12.33,8.132 L12.266,7.911 C12.146,7.504 12.02,7.071 11.913,6.621 A2.425 2.425 0 0 1 11.406,6.18 A3.075 3.075 0 0 1 10.773,4.932 A0.75 0.75 0 0 1 12.228,4.568 C12.274,4.753 12.372,5.004 12.538,5.195 C12.684,5.363 12.891,5.5 13.25,5.5 C13.988,5.5 14.5,4.885 14.5,4.25 C14.5,2.78 13.55,1.935 12.377,1.74 C11.205,1.544 10.15,2.127 9.671,3.085 C9.211,4.005 9.401,4.859 9.69,6.147 L9.732,6.337 A0.884 0.884 0 0 1 9.742,6.387 C10.09,6.83 10.408,7.336 10.682,7.94 A0.75 0.75 0 1 1 9.317,8.56 C8.764,7.343 7.997,6.62 7.017,5.792 L6.7,5.527 C5.886,4.847 4.95,4.065 4.008,2.908 A3.737 3.737 0 0 0 2.985,3.788 C2.579,4.283 2.322,4.824 2.263,5.296 C2.379,5.418 2.569,5.506 2.854,5.535 C3.242,5.573 3.651,5.475 3.886,5.345 A0.75 0.75 0 0 1 4.614,6.655 C4.099,6.942 3.384,7.094 2.708,7.028 C2.026,6.961 1.235,6.648 0.829,5.835 L0.75,5.677 L0.75,5.5 C0.75,4.516 1.23,3.56 1.827,2.836 C2.287,2.277 2.877,1.781 3.5,1.483 L3.5,0.75 Z"/>
</svg>
