<svg xmlns="http://www.w3.org/2000/svg" width="24" height="24" viewBox="0 0 24 24">
  <defs/>
  <path d="M18.377,3.49 C16.515,3.18 14.659,4.11 13.921,5.585 C13.493,6.442 13.23,7.209 13.193,7.946 C13.158,8.656 13.331,9.39 13.863,10.198 C14.507,11.052 15.062,12.111 15.471,13.544 A0.75 0.75 0 1 1 14.029,13.956 C13.676,12.72 13.209,11.821 12.657,11.091 L12.649,11.081 C12.119,10.383 11.509,9.839 10.842,9.303 A50.724 50.724 0 0 0 10.175,8.779 C9.024,7.884 7.71,6.863 6.471,5.16 C5.881,5.447 5.223,5.958 4.665,6.614 C4,7.394 3.568,8.274 3.507,9.06 C3.753,9.42 4.192,9.67 4.753,9.775 C5.396,9.895 6.031,9.79 6.386,9.593 A0.75 0.75 0 1 1 7.114,10.904 C6.391,11.306 5.386,11.42 4.477,11.25 C3.561,11.078 2.579,10.583 2.079,9.584 L2,9.427 L2,9.25 C2,7.927 2.678,6.635 3.523,5.643 C4.223,4.819 5.113,4.115 6,3.726 L6,2.75 A0.75 0.75 0 1 1 7.5,2.75 L7.5,4.02 C8.654,5.69 9.863,6.632 11.068,7.571 C11.275,7.733 11.483,7.894 11.689,8.06 C11.69,7.997 11.692,7.934 11.695,7.872 C11.747,6.838 12.109,5.855 12.579,4.914 C13.639,2.796 16.173,1.601 18.623,2.01 C19.848,2.214 20.952,2.805 21.748,3.758 C22.546,4.713 23,5.988 23,7.5 C23,8.996 22.087,10.755 20.312,11.152 C21.15,12.851 21.75,14.92 21.493,16.849 C21.224,18.866 20.453,20.464 18.911,21.524 C17.409,22.558 15.288,23 12.5,23 L4.75,23 A0.75 0.75 0 0 1 4.75,21.5 L7.072,21.5 C6.492,20.799 6.074,19.922 5.849,19.029 C5.522,17.729 5.552,16.243 6.114,14.898 C5.194,14.989 4.129,14.878 2.988,14.453 A0.75 0.75 0 1 1 3.512,13.047 C5.476,13.78 6.94,13.313 7.557,12.857 C7.625,12.797 7.694,12.737 7.765,12.677 A0.745 0.745 0 0 1 8.626,12.601 A0.746 0.746 0 0 1 8.946,12.969 A0.752 0.752 0 0 1 8.773,13.788 C8.696,13.864 8.613,13.938 8.521,14.009 C7.199,15.243 6.901,17.064 7.303,18.663 C7.741,20.4 8.877,21.496 9.993,21.5 L12.5,21.5 C15.174,21.5 16.929,21.067 18.06,20.288 C19.154,19.536 19.775,18.384 20.006,16.651 C20.242,14.883 19.561,12.806 18.599,11.122 A0.576 0.576 0 0 1 18.587,11.102 A3.557 3.557 0 0 1 17.034,10.162 C16.478,9.597 16.144,8.919 16.022,8.432 A0.75 0.75 0 0 1 17.478,8.068 C17.535,8.299 17.738,8.738 18.104,9.111 C18.454,9.468 18.926,9.734 19.547,9.734 C20.719,9.734 21.5,8.676 21.5,7.5 C21.5,6.295 21.143,5.373 20.597,4.72 C20.05,4.066 19.279,3.64 18.377,3.49 Z"/>
</svg>
