<svg xmlns="http://www.w3.org/2000/svg" width="16" height="16" viewBox="0 0 16 16">
  <defs/>
  <path d="M7.122,0.392 A1.75 1.75 0 0 1 8.878,0.392 L13.881,3.294 C14.711,3.775 14.711,4.974 13.881,5.456 L8.878,8.358 A1.75 1.75 0 0 1 7.122,8.358 L2.119,5.456 A1.251 1.251 0 0 1 2.119,3.294 Z M8.125,1.69 A0.248 0.248 0 0 0 7.875,1.69 L3.245,4.375 L7.875,7.06 A0.248 0.248 0 0 0 8.125,7.06 L12.755,4.375 Z M1.601,7.789 A0.75 0.75 0 0 1 2.626,7.516 L7.875,10.56 A0.248 0.248 0 0 0 8.125,10.56 L13.374,7.516 A0.75 0.75 0 0 1 14.126,8.814 L8.878,11.858 A1.75 1.75 0 0 1 7.122,11.858 L1.874,8.814 A0.75 0.75 0 0 1 1.6,7.789 Z M1.601,11.289 A0.75 0.75 0 0 1 2.626,11.016 L7.875,14.06 A0.248 0.248 0 0 0 8.125,14.06 L13.374,11.016 A0.75 0.75 0 0 1 14.126,12.314 L8.878,15.358 A1.75 1.75 0 0 1 7.122,15.358 L1.874,12.314 A0.75 0.75 0 0 1 1.601,11.289 Z"/>
</svg>
