<svg xmlns="http://www.w3.org/2000/svg" width="24" height="24" viewBox="0 0 24 24">
  <defs/>
  <path d="M11.063,1.456 A1.749 1.749 0 0 1 12.937,1.456 L21.32,6.772 A1.751 1.751 0 0 1 21.32,9.728 L12.937,15.044 A1.749 1.749 0 0 1 11.063,15.044 L2.68,9.728 A1.751 1.751 0 0 1 2.68,6.772 Z M12.134,2.723 A0.25 0.25 0 0 0 11.866,2.723 L3.483,8.039 A0.25 0.25 0 0 0 3.483,8.461 L11.866,13.777 A0.25 0.25 0 0 0 12.134,13.777 L20.517,8.461 A0.25 0.25 0 0 0 20.517,8.039 Z"/>
  <path d="M1.867,12.324 A0.75 0.75 0 0 1 2.902,12.092 L11.866,17.777 A0.25 0.25 0 0 0 12.134,17.777 L21.098,12.092 A0.75 0.75 0 0 1 21.902,13.359 L12.937,19.044 A1.749 1.749 0 0 1 11.063,19.044 L2.098,13.359 A0.75 0.75 0 0 1 1.867,12.324 Z"/>
  <path d="M1.867,16.324 A0.75 0.75 0 0 1 2.902,16.092 L11.866,21.777 A0.25 0.25 0 0 0 12.134,21.777 L21.098,16.092 A0.75 0.75 0 0 1 21.902,17.359 L12.937,23.044 A1.749 1.749 0 0 1 11.063,23.044 L2.098,17.359 A0.75 0.75 0 0 1 1.867,16.324 Z"/>
</svg>
