<svg xmlns="http://www.w3.org/2000/svg" width="24" height="24" viewBox="0 0 24 24">
  <defs/>
  <path d="M12,0.25 A0.75 0.75 0 0 1 12.673,0.668 L15.731,6.865 L22.57,7.859 A0.75 0.75 0 0 1 22.985,9.138 L18.037,13.961 L19.205,20.772 A0.751 0.751 0 0 1 18.117,21.563 L12,18.347 L5.883,21.563 A0.75 0.75 0 0 1 4.795,20.773 L5.963,13.961 L1.015,9.138 A0.75 0.75 0 0 1 1.431,7.858 L8.269,6.865 L11.328,0.668 A0.75 0.75 0 0 1 12,0.25 Z M12,2.695 L9.44,7.882 A0.75 0.75 0 0 1 8.875,8.292 L3.15,9.124 L7.293,13.162 A0.748 0.748 0 0 1 7.508,13.826 L6.53,19.528 L11.651,16.836 A0.75 0.75 0 0 1 12.349,16.836 L17.469,19.528 L16.492,13.826 A0.748 0.748 0 0 1 16.707,13.162 L20.85,9.124 L15.125,8.293 A0.75 0.75 0 0 1 14.56,7.883 L12,2.694 Z"/>
</svg>
