<svg xmlns="http://www.w3.org/2000/svg" width="16" height="16" viewBox="0 0 16 16">
  <defs/>
  <path d="M8,0.25 A0.75 0.75 0 0 1 8.673,0.668 L10.555,4.483 L14.765,5.095 A0.75 0.75 0 0 1 15.181,6.374 L12.135,9.344 L12.854,13.536 A0.751 0.751 0 0 1 11.766,14.327 L8,12.347 L4.234,14.327 A0.75 0.75 0 0 1 3.146,13.537 L3.866,9.343 L0.818,6.374 A0.75 0.75 0 0 1 1.234,5.094 L5.444,4.483 L7.327,0.668 A0.75 0.75 0 0 1 8,0.25 Z M8,2.695 L6.615,5.5 A0.75 0.75 0 0 1 6.051,5.91 L2.954,6.36 L5.194,8.544 A0.75 0.75 0 0 1 5.41,9.208 L4.882,12.292 L7.651,10.836 A0.75 0.75 0 0 1 8.349,10.836 L11.119,12.292 L10.589,9.208 A0.75 0.75 0 0 1 10.805,8.544 L13.045,6.361 L9.949,5.911 A0.75 0.75 0 0 1 9.385,5.501 L8,2.694 Z"/>
</svg>
