<svg xmlns="http://www.w3.org/2000/svg" width="16" height="16" viewBox="0 0 16 16">
  <defs/>
  <path d="M5.75,0.75 A0.75 0.75 0 0 1 6.5,0 L9.5,0 A0.75 0.75 0 0 1 9.5,1.5 L8.75,1.5 L8.75,2.5 L8.749,2.541 A6.724 6.724 0 0 1 12.213,3.976 L12.22,3.97 L12.97,3.22 A0.749 0.749 0 0 1 14.245,3.546 A0.749 0.749 0 0 1 14.03,4.28 L13.28,5.03 L13.274,5.037 A6.75 6.75 0 1 1 2.726,5.037 L2.72,5.03 L1.97,4.28 A0.751 0.751 0 0 1 1.988,3.238 A0.751 0.751 0 0 1 3.03,3.22 L3.78,3.97 L3.787,3.976 A6.72 6.72 0 0 1 7.25,2.541 L7.25,1.5 L6.5,1.5 A0.75 0.75 0 0 1 5.75,0.75 Z M8,14.5 A5.25 5.25 0 1 0 7.999,3.999 A5.25 5.25 0 0 0 8,14.5 Z M8.389,7.8 L9.719,6.47 A0.75 0.75 0 1 1 10.78,7.53 L9.45,8.861 A1.503 1.503 0 0 1 8,10.75 A1.499 1.499 0 1 1 8.389,7.8 Z"/>
</svg>
