<svg xmlns="http://www.w3.org/2000/svg" width="24" height="24" viewBox="0 0 24 24">
  <defs/>
  <path d="M10.25,0 L13.75,0 A0.75 0.75 0 0 1 13.75,1.5 L12.75,1.5 L12.75,2.778 A9.954 9.954 0 0 1 18.386,5.054 L19.72,3.72 A0.751 0.751 0 0 1 20.762,3.738 A0.751 0.751 0 0 1 20.78,4.78 L19.465,6.096 A9.959 9.959 0 0 1 22,12.75 C22,18.273 17.523,22.75 12,22.75 C6.477,22.75 2,18.273 2,12.75 A9.959 9.959 0 0 1 4.535,6.096 L3.22,4.78 A0.751 0.751 0 0 1 3.238,3.738 A0.751 0.751 0 0 1 4.28,3.72 L5.615,5.054 A9.958 9.958 0 0 1 11.25,2.778 L11.25,1.5 L10.25,1.5 A0.75 0.75 0 0 1 10.25,0 Z M12,21.25 A8.5 8.5 0 1 0 11.999,4.249 A8.5 8.5 0 0 0 12,21.25 Z M16.03,8.72 A0.75 0.75 0 0 1 16.03,9.78 L13.649,12.162 A1.75 1.75 0 1 1 12.589,11.102 L14.969,8.72 A0.75 0.75 0 0 1 16.03,8.72 Z"/>
</svg>
