<svg xmlns="http://www.w3.org/2000/svg" width="16" height="16" viewBox="0 0 16 16">
  <defs/>
  <path d="M4.47,0.22 A0.749 0.749 0 0 1 5,0 L11,0 C11.199,0 11.389,0.079 11.53,0.22 L15.78,4.47 C15.921,4.61 16,4.801 16,5 L16,11 A0.749 0.749 0 0 1 15.78,11.53 L11.53,15.78 A0.749 0.749 0 0 1 11,16 L5,16 A0.749 0.749 0 0 1 4.47,15.78 L0.22,11.53 A0.749 0.749 0 0 1 0,11 L0,5 C0,4.801 0.079,4.611 0.22,4.47 Z M5.31,1.5 L1.5,5.31 L1.5,10.69 L5.31,14.5 L10.69,14.5 L14.5,10.69 L14.5,5.31 L10.69,1.5 Z M8,4 A0.75 0.75 0 0 1 8.75,4.75 L8.75,8.25 A0.75 0.75 0 0 1 7.25,8.25 L7.25,4.75 A0.75 0.75 0 0 1 8,4 Z M8,12 A1 1 0 1 1 8,10 A1 1 0 0 1 8,12 Z"/>
</svg>
