<svg xmlns="http://www.w3.org/2000/svg" width="24" height="24" viewBox="0 0 24 24">
  <defs/>
  <path d="M16.533,12.5 L16.587,12.543 C17.517,13.293 18.125,14.313 18.125,15.609 A4.13 4.13 0 0 1 16.646,18.786 C15.588,19.69 13.967,20.25 11.672,20.25 C9.322,20.25 7.42,19.413 6.354,18.385 A0.75 0.75 0 1 1 7.396,17.305 C8.143,18.027 9.654,18.75 11.672,18.75 C13.737,18.75 14.968,18.246 15.671,17.645 A2.63 2.63 0 0 0 16.625,15.609 C16.625,14.845 16.288,14.229 15.646,13.711 C14.997,13.188 14.048,12.78 12.886,12.5 L3.75,12.5 A0.75 0.75 0 0 1 3.75,11 L20.25,11 A0.75 0.75 0 0 1 20.25,12.5 Z M12.36,5 C9.37,5 8.105,6.613 8.105,7.848 C8.105,8.259 8.177,8.592 8.298,8.868 A0.75 0.75 0 0 1 6.925,9.471 A3.988 3.988 0 0 1 6.605,7.848 C6.605,5.485 8.876,3.5 12.36,3.5 C14.291,3.5 16.082,4.294 17.174,5 A0.75 0.75 0 1 1 16.36,6.26 C15.42,5.653 13.912,5 12.36,5 Z"/>
</svg>
