<svg xmlns="http://www.w3.org/2000/svg" width="16" height="16" viewBox="0 0 16 16">
  <defs/>
  <path d="M11.055,8.5 C11.579,9.036 11.87,9.757 11.866,10.507 A3.133 3.133 0 0 1 10.746,12.915 C9.948,13.597 8.748,14 7.096,14 C5.39,14 3.992,13.393 3.194,12.623 A0.751 0.751 0 0 1 4.236,11.544 C4.716,12.007 5.723,12.5 7.096,12.5 C8.518,12.5 9.328,12.154 9.772,11.774 C10.207,11.402 10.366,10.935 10.366,10.507 C10.366,10.035 10.158,9.65 9.719,9.31 C9.271,8.964 8.603,8.687 7.768,8.5 L1.75,8.5 A0.75 0.75 0 0 1 1.75,7 L14.25,7 A0.75 0.75 0 0 1 14.25,8.5 Z M7.581,3.25 C5.545,3.25 4.803,4.332 4.803,5.036 C4.803,5.091 4.805,5.143 4.809,5.193 A0.75 0.75 0 0 1 3.313,5.307 A3.506 3.506 0 0 1 3.303,5.036 C3.303,3.204 5.053,1.75 7.581,1.75 C8.999,1.75 10.302,2.33 11.095,2.843 A0.75 0.75 0 1 1 10.281,4.103 C9.641,3.689 8.619,3.25 7.581,3.25 Z"/>
</svg>
