<svg xmlns="http://www.w3.org/2000/svg" width="24" height="24" viewBox="0 0 24 24">
  <defs/>
  <path d="M12,19 A7 7 0 1 1 12,5 A7 7 0 0 1 12,19 Z M12,17.5 A5.5 5.5 0 1 0 12,6.5 A5.5 5.5 0 1 0 12,17.5 Z M6.343,17.657 A0.75 0.75 0 0 1 6.343,18.717 L4.575,20.485 A0.749 0.749 0 0 1 3.3,20.159 A0.749 0.749 0 0 1 3.515,19.425 L5.282,17.657 A0.75 0.75 0 0 1 6.343,17.657 Z M3.515,3.515 A0.75 0.75 0 0 1 4.575,3.515 L6.343,5.283 A0.749 0.749 0 0 1 6.017,6.558 A0.749 0.749 0 0 1 5.283,6.343 L3.515,4.575 A0.75 0.75 0 0 1 3.515,3.515 Z M12,0 A0.75 0.75 0 0 1 12.75,0.75 L12.75,3.25 A0.75 0.75 0 0 1 11.25,3.25 L11.25,0.75 A0.75 0.75 0 0 1 12,0 Z M4,12 A0.75 0.75 0 0 1 3.25,12.75 L0.75,12.75 A0.75 0.75 0 0 1 0.75,11.25 L3.25,11.25 A0.75 0.75 0 0 1 4,12 Z M12,20 A0.75 0.75 0 0 1 12.75,20.75 L12.75,23.25 A0.75 0.75 0 0 1 11.25,23.25 L11.25,20.75 A0.75 0.75 0 0 1 12,20 Z M24,12 A0.75 0.75 0 0 1 23.25,12.75 L20.75,12.75 A0.75 0.75 0 0 1 20.75,11.25 L23.25,11.25 A0.75 0.75 0 0 1 24,12 Z M17.657,17.657 A0.75 0.75 0 0 1 18.717,17.657 L20.485,19.425 A0.751 0.751 0 0 1 20.467,20.467 A0.751 0.751 0 0 1 19.425,20.485 L17.657,18.718 A0.75 0.75 0 0 1 17.657,17.657 Z M20.485,3.515 A0.75 0.75 0 0 1 20.485,4.575 L18.717,6.343 A0.751 0.751 0 0 1 17.675,6.325 A0.751 0.751 0 0 1 17.657,5.283 L19.424,3.515 A0.75 0.75 0 0 1 20.485,3.515 Z"/>
</svg>
