<svg xmlns="http://www.w3.org/2000/svg" width="16" height="16" viewBox="0 0 16 16">
  <defs/>
  <path d="M8,12 A4 4 0 1 1 8,4 A4 4 0 0 1 8,12 Z M8,10.5 A2.5 2.5 0 1 0 8,5.5 A2.5 2.5 0 0 0 8,10.5 Z M13.657,2.343 A0.75 0.75 0 0 1 13.657,3.404 L12.596,4.464 A0.749 0.749 0 0 1 11.321,4.138 A0.749 0.749 0 0 1 11.536,3.404 L12.596,2.344 A0.75 0.75 0 0 1 13.656,2.344 Z M4.464,11.536 A0.75 0.75 0 0 1 4.464,12.596 L3.404,13.657 A0.75 0.75 0 1 1 2.343,12.597 L3.403,11.536 A0.75 0.75 0 0 1 4.464,11.536 Z M8,0 A0.75 0.75 0 0 1 8.75,0.75 L8.75,2.25 A0.75 0.75 0 0 1 7.25,2.25 L7.25,0.75 A0.75 0.75 0 0 1 8,0 Z M3,8 A0.75 0.75 0 0 1 2.25,8.75 L0.75,8.75 A0.75 0.75 0 0 1 0.75,7.25 L2.25,7.25 A0.75 0.75 0 0 1 3,8 Z M16,8 A0.75 0.75 0 0 1 15.25,8.75 L13.75,8.75 A0.75 0.75 0 0 1 13.75,7.25 L15.25,7.25 A0.75 0.75 0 0 1 16,8 Z M8,13 A0.75 0.75 0 0 1 8.75,13.75 L8.75,15.25 A0.75 0.75 0 0 1 7.25,15.25 L7.25,13.75 A0.75 0.75 0 0 1 8,13 Z M11.536,11.536 A0.75 0.75 0 0 1 12.596,11.536 L13.657,12.596 A0.75 0.75 0 0 1 12.597,13.657 L11.536,12.597 A0.75 0.75 0 0 1 11.536,11.536 Z M2.343,2.343 A0.75 0.75 0 0 1 3.404,2.343 L4.464,3.404 A0.751 0.751 0 0 1 4.446,4.446 A0.751 0.751 0 0 1 3.404,4.464 L2.344,3.404 A0.75 0.75 0 0 1 2.344,2.344 Z"/>
</svg>
