<svg xmlns="http://www.w3.org/2000/svg" width="16" height="16" viewBox="0 0 16 16">
  <defs/>
  <path d="M1.705,8.005 A0.75 0.75 0 0 1 2.539,8.661 A5.5 5.5 0 0 0 12.131,11.631 L10.927,10.427 A0.25 0.25 0 0 1 11.104,10 L14.75,10 A0.25 0.25 0 0 1 15,10.25 L15,13.896 A0.25 0.25 0 0 1 14.573,14.073 L13.193,12.693 A7.002 7.002 0 0 1 1.05,8.84 A0.75 0.75 0 0 1 1.706,8.006 Z M8,2.5 A5.487 5.487 0 0 0 3.869,4.369 L5.073,5.573 A0.25 0.25 0 0 1 4.896,6 L1.25,6 A0.25 0.25 0 0 1 1,5.75 L1,2.104 A0.25 0.25 0 0 1 1.427,1.927 L2.807,3.307 A7.002 7.002 0 0 1 14.95,7.16 A0.75 0.75 0 0 1 13.46,7.338 A5.5 5.5 0 0 0 8,2.5 Z"/>
</svg>
