<svg xmlns="http://www.w3.org/2000/svg" width="24" height="24" viewBox="0 0 24 24">
  <defs/>
  <path d="M3,5.75 C3,4.784 3.784,4 4.75,4 L19.25,4 C20.216,4 21,4.784 21,5.75 L21,18.5 L23,18.5 A0.75 0.75 0 0 1 23,20 L20.35,20 A0.85 0.85 0 0 1 19.5,19.15 L19.5,5.75 A0.25 0.25 0 0 0 19.25,5.5 L4.75,5.5 A0.25 0.25 0 0 0 4.5,5.75 L4.5,19.15 C4.5,19.62 4.12,20 3.65,20 L1,20 A0.75 0.75 0 0 1 1,18.5 L3,18.5 L3,5.75 Z"/>
  <path d="M16.404,13.7 A0.75 0.75 0 0 1 15.114,14.247 A689.448 689.448 0 0 0 13.194,12.271 L9.053,16.411 A0.75 0.75 0 0 1 7.992,15.351 L12.132,11.211 L10.192,9.271 A0.75 0.75 0 0 1 10.703,8 L15.653,8 A0.75 0.75 0 0 1 16.403,8.75 L16.403,13.7 Z"/>
</svg>
