<svg xmlns="http://www.w3.org/2000/svg" width="16" height="16" viewBox="0 0 16 16">
  <defs/>
  <path d="M1,7.775 L1,2.75 C1,1.784 1.784,1 2.75,1 L7.775,1 C8.239,1 8.685,1.184 9.013,1.513 L15.263,7.763 A1.75 1.75 0 0 1 15.263,10.237 L10.237,15.263 A1.75 1.75 0 0 1 7.763,15.263 L1.513,9.013 A1.752 1.752 0 0 1 1,7.775 Z M2.5,7.775 C2.5,7.841 2.526,7.905 2.573,7.952 L8.823,14.202 A0.25 0.25 0 0 0 9.177,14.202 L14.202,9.177 A0.25 0.25 0 0 0 14.202,8.823 L7.952,2.573 A0.25 0.25 0 0 0 7.775,2.5 L2.75,2.5 A0.25 0.25 0 0 0 2.5,2.75 Z M6,5 A1 1 0 1 1 6,7 A1 1 0 0 1 6,5 Z"/>
</svg>
