<svg xmlns="http://www.w3.org/2000/svg" width="16" height="16" viewBox="0 0 16 16">
  <defs/>
  <path d="M2,2 L6,2 A1 1 0 0 1 7,3 L7,7 A1 1 0 0 1 6,8 L2,8 A1 1 0 0 1 1,7 L1,3 A1 1 0 0 1 2,2 Z M6.655,10.595 A0.75 0.75 0 0 1 6.655,11.655 L4.03,14.28 A0.75 0.75 0 0 1 2.97,14.28 L1.47,12.78 A0.749 0.749 0 0 1 1.796,11.505 A0.749 0.749 0 0 1 2.53,11.72 L3.5,12.69 L5.595,10.595 A0.75 0.75 0 0 1 6.655,10.595 Z M9.75,2.5 L15.25,2.5 A0.75 0.75 0 0 1 15.25,4 L9.75,4 A0.75 0.75 0 0 1 9.75,2.5 Z M9.75,7.5 L15.25,7.5 A0.75 0.75 0 0 1 15.25,9 L9.75,9 A0.75 0.75 0 0 1 9.75,7.5 Z M9.75,12.5 L15.25,12.5 A0.75 0.75 0 0 1 15.25,14 L9.75,14 A0.75 0.75 0 0 1 9.75,12.5 Z M2.5,3.5 L2.5,6.5 L5.5,6.5 L5.5,3.5 Z"/>
</svg>
