<svg xmlns="http://www.w3.org/2000/svg" width="16" height="16" viewBox="0 0 16 16">
  <defs/>
  <path d="M14.184,1.143 L14.184,1.142 L15.606,3.606 A1.75 1.75 0 0 1 14.849,6.057 L3.104,11.713 A1.75 1.75 0 0 1 0.829,11.011 L0.382,10.236 A1.75 1.75 0 0 1 0.912,7.916 L11.682,0.573 A1.748 1.748 0 0 1 14.184,1.143 Z M9.475,10.463 L9.474,10.463 L12.118,14.326 A0.75 0.75 0 1 1 10.88,15.174 L8.999,12.424 L8.999,15.25 A0.75 0.75 0 0 1 7.499,15.25 L7.499,12.424 L5.618,15.174 A0.75 0.75 0 1 1 4.38,14.326 L6.429,11.334 A0.746 0.746 0 0 1 6.722,11.081 L8.531,10.211 A0.749 0.749 0 0 1 9.475,10.463 Z M9.436,3.92 L9.435,3.92 L4.465,7.31 L5.407,8.94 L10.827,6.33 Z M12.527,1.812 L12.528,1.812 L10.678,3.072 L12.183,5.677 L14.199,4.707 A0.247 0.247 0 0 0 14.329,4.556 A0.247 0.247 0 0 0 14.307,4.357 L12.885,1.893 A0.253 0.253 0 0 0 12.724,1.774 A0.254 0.254 0 0 0 12.527,1.812 Z M1.756,9.157 A0.25 0.25 0 0 0 1.681,9.487 L2.128,10.262 A0.25 0.25 0 0 0 2.453,10.362 L4.051,9.593 L3.221,8.157 L1.756,9.157 Z"/>
</svg>
