<svg xmlns="http://www.w3.org/2000/svg" width="16" height="16" viewBox="0 0 16 16">
  <defs/>
  <path d="M11.905,0.42 A1.5 1.5 0 0 1 14.049,0.91 L15.741,3.84 A1.5 1.5 0 0 1 15.092,5.942 L2.895,11.815 A1.5 1.5 0 0 1 0.945,11.213 L0.265,10.037 A1.5 1.5 0 0 1 0.72,8.047 L11.905,0.422 Z M8.531,10.21 A0.75 0.75 0 0 1 9.475,10.463 L12.119,14.327 A0.751 0.751 0 0 1 10.881,15.174 L9,12.424 L9,15.25 A0.75 0.75 0 0 1 7.5,15.25 L7.5,12.424 L5.619,15.174 A0.75 0.75 0 1 1 4.381,14.326 L6.429,11.334 A0.752 0.752 0 0 1 6.722,11.082 L8.532,10.211 Z M11.007,6.245 L11.007,6.244 L12.363,5.591 L10.843,2.96 L9.6,3.808 Z M3.279,8.119 L4.114,9.564 L5.469,8.911 L4.522,7.271 Z"/>
</svg>
