<svg xmlns="http://www.w3.org/2000/svg" width="24" height="24" viewBox="0 0 24 24">
  <defs/>
  <path d="M0.40799999237060547,15.130000114440918 C0.22665967047214508,14.815949440002441 0.13979624211788177,14.471699714660645 0.13979624211788177,14.131343841552734 C0.13979624211788177,13.496122360229492 0.44236230850219727,12.874463081359863 0.9980000257492065,12.48799991607666 L17.038000106811523,1.3300000429153442 C17.37583351135254,1.094842553138733 17.774972915649414,0.9716541767120361 18.18006134033203,0.9716541767120361 C18.31779670715332,0.9716541767120361 18.456220626831055,0.9858959317207336 18.593154907226562,1.0148203372955322 C19.132822036743164,1.1288132667541504 19.60140609741211,1.4607259035110474 19.88800048828125,1.9320000410079956 L22.715999603271484,6.576000213623047 C23.010610580444336,7.059898853302002 23.0861759185791,7.646041393280029 22.92392921447754,8.188838958740234 C22.761680603027344,8.731636047363281 22.376840591430664,9.180158615112305 21.864999771118164,9.42300033569336 L4.103000164031982,17.85300064086914 C3.161285400390625,18.30010414123535 2.034080982208252,17.948884963989258 1.5130000114440918,17.04599952697754 Z M17.155000686645508,22.8700008392334 C16.806486129760742,23.093551635742188 16.34274673461914,22.992389678955078 16.118999481201172,22.643999099731445 L12.519000053405762,17.0310001373291 L12.519000053405762,23.250999450683594 C12.519000053405762,23.65211296081543 12.204116821289062,23.97968101501465 11.808056831359863,24 L11.72994327545166,24 C11.333883285522461,23.97968101501465 11.019000053405762,23.65211296081543 11.019000053405762,23.250999450683594 L11.019000053405762,17.611000061035156 L10.508999824523926,17.843000411987305 L7.377999782562256,22.64900016784668 C7.146866798400879,22.983001708984375 6.691849708557129,23.072311401367188 6.3516154289245605,22.850454330444336 C6.011380672454834,22.628597259521484 5.909587383270264,22.176210403442383 6.122000217437744,21.829999923706055 L9.371999740600586,16.840999603271484 C9.44990348815918,16.721630096435547 9.560211181640625,16.62693214416504 9.6899995803833,16.56800079345703 L12.4399995803833,15.317999839782715 C12.778942108154297,15.163983345031738 13.179558753967285,15.281911849975586 13.380999565124512,15.595000267028809 L17.381000518798828,21.833999633789062 C17.604551315307617,22.182514190673828 17.503389358520508,22.64625358581543 17.155000686645508,22.8700008392334 Z M13.512999534606934,5.609000205993652 L16.3700008392334,10.369000434875488 L17.731000900268555,9.722999572753906 L14.746999740600586,4.75 Z M5.671000003814697,11.064000129699707 L4.435999870300293,11.923999786376953 L6.297999858856201,15.14900016784668 L7.6579999923706055,14.503999710083008 Z"/>
</svg>
