<svg xmlns="http://www.w3.org/2000/svg" width="16" height="16" viewBox="0 0 16 16">
  <defs/>
  <path d="M0,2.75 C0,1.784 0.784,1 1.75,1 L14.25,1 C15.216,1 16,1.784 16,2.75 L16,13.25 A1.75 1.75 0 0 1 14.25,15 L1.75,15 A1.75 1.75 0 0 1 0,13.25 Z M1.75,2.5 A0.25 0.25 0 0 0 1.5,2.75 L1.5,13.25 C1.5,13.388 1.612,13.5 1.75,13.5 L14.25,13.5 A0.25 0.25 0 0 0 14.5,13.25 L14.5,2.75 A0.25 0.25 0 0 0 14.25,2.5 Z M7.25,8 A0.749 0.749 0 0 1 7.03,8.53 L4.78,10.78 A0.749 0.749 0 0 1 3.505,10.454 A0.749 0.749 0 0 1 3.72,9.72 L5.44,8 L3.72,6.28 A0.749 0.749 0 0 1 4.046,5.005 A0.749 0.749 0 0 1 4.78,5.22 L7.03,7.47 C7.171,7.61 7.25,7.801 7.25,8 Z M8.75,9.5 L11.75,9.5 A0.75 0.75 0 0 1 11.75,11 L8.75,11 A0.75 0.75 0 0 1 8.75,9.5 Z"/>
</svg>
