<svg xmlns="http://www.w3.org/2000/svg" width="24" height="24" viewBox="0 0 24 24">
  <defs/>
  <path d="M10.651,21.622 A0.748 0.748 0 0 1 9.843,21.983 L9.716,21.956 A3.875 3.875 0 0 1 6.837,16.986 L7.473,15 L6.336,15 C3.691,15 1.823,12.409 2.66,9.9 L4.219,5.222 A3.25 3.25 0 0 1 7.302,3 L12.591,3 C13.622,3 14.62,3.354 15.419,3.999 A1.75 1.75 0 0 1 17,3 L19.25,3 C20.216,3 21,3.784 21,4.75 L21,13.25 A1.75 1.75 0 0 1 19.25,15 L14.58,15 A0.251 0.251 0 0 0 14.363,15.126 L10.651,21.622 Z M15.25,5.84 L14.566,5.242 A2.999 2.999 0 0 0 12.591,4.5 L7.302,4.5 A1.75 1.75 0 0 0 5.642,5.697 L4.083,10.374 A2.375 2.375 0 0 0 6.336,13.5 L8.5,13.5 A0.75 0.75 0 0 1 9.214,14.479 L8.266,17.443 A2.375 2.375 0 0 0 9.639,20.37 L13.061,14.382 A1.749 1.749 0 0 1 14.58,13.5 L15.25,13.5 L15.25,5.84 Z M16.75,13.5 L19.25,13.5 A0.25 0.25 0 0 0 19.5,13.25 L19.5,4.75 A0.25 0.25 0 0 0 19.25,4.5 L17,4.5 A0.25 0.25 0 0 0 16.75,4.75 L16.75,13.5 Z"/>
</svg>
