<svg xmlns="http://www.w3.org/2000/svg" width="24" height="24" viewBox="0 0 24 24">
  <defs/>
  <path d="M13.349,2.378 A0.748 0.748 0 0 1 14.157,2.017 L14.284,2.044 A3.875 3.875 0 0 1 17.163,7.014 L16.527,9 L17.664,9 C20.309,9 22.177,11.591 21.34,14.1 L19.781,18.778 A3.25 3.25 0 0 1 16.698,21 L11.409,21 A4.503 4.503 0 0 1 8.581,20.001 A1.75 1.75 0 0 1 7,21 L4.75,21 A1.75 1.75 0 0 1 3,19.25 L3,10.75 C3,9.784 3.784,9 4.75,9 L9.42,9 A0.251 0.251 0 0 0 9.637,8.874 L13.349,2.378 Z M8.75,18.16 L9.433,18.758 A3.003 3.003 0 0 0 11.409,19.5 L16.698,19.5 A1.75 1.75 0 0 0 18.358,18.303 L19.917,13.626 A2.375 2.375 0 0 0 17.664,10.5 L15.5,10.5 A0.75 0.75 0 0 1 14.786,9.521 L15.734,6.557 A2.375 2.375 0 0 0 14.361,3.63 L10.939,9.618 A1.749 1.749 0 0 1 9.42,10.5 L8.75,10.5 L8.75,18.16 Z M7.25,10.5 L4.75,10.5 A0.25 0.25 0 0 0 4.5,10.75 L4.5,19.25 C4.5,19.388 4.612,19.5 4.75,19.5 L7,19.5 A0.25 0.25 0 0 0 7.25,19.25 L7.25,10.5 Z"/>
</svg>
