<svg xmlns="http://www.w3.org/2000/svg" width="16" height="16" viewBox="0 0 16 16">
  <defs/>
  <path d="M7.653,15.369 A0.75 0.75 0 0 1 6.877,15.74 L6.639,15.7 A3.25 3.25 0 0 1 4.048,11.601 L4.506,10 L3.841,10 A3.25 3.25 0 0 1 0.723,5.833 L1.858,1.974 A2.75 2.75 0 0 1 4.482,0 L9.43,0 C10.21,0.003 10.968,0.25 11.598,0.702 A1.752 1.752 0 0 1 12.989,0 L14.261,0 A1.75 1.75 0 0 1 16,1.75 L16,8.25 A1.75 1.75 0 0 1 14.25,10 L10.833,10 A0.25 0.25 0 0 0 10.616,10.127 Z M11.25,2.351 L10.854,2.021 A2.248 2.248 0 0 0 9.414,1.5 L4.496,1.5 A1.25 1.25 0 0 0 3.297,2.397 L2.162,6.256 A1.75 1.75 0 0 0 3.841,8.5 L5.5,8.5 A0.75 0.75 0 0 1 6.221,9.456 L5.49,12.014 A1.75 1.75 0 0 0 6.617,14.154 L9.31,9.389 A1.75 1.75 0 0 1 10.833,8.5 L11.25,8.5 Z M12.75,8.5 L14.25,8.5 A0.25 0.25 0 0 0 14.5,8.25 L14.5,1.75 A0.25 0.25 0 0 0 14.25,1.5 L13,1.5 A0.25 0.25 0 0 0 12.75,1.75 Z"/>
</svg>
