<svg xmlns="http://www.w3.org/2000/svg" width="16" height="16" viewBox="0 0 16 16">
  <defs/>
  <path d="M8.347,0.631 A0.75 0.75 0 0 1 9.123,0.26 L9.361,0.3 A3.25 3.25 0 0 1 11.952,4.398 L11.494,6 L12.159,6 A3.25 3.25 0 0 1 15.277,10.167 L14.142,14.026 A2.751 2.751 0 0 1 11.503,16 L6.586,16 A3.75 3.75 0 0 1 4.402,15.298 A1.75 1.75 0 0 1 3,16 L1.75,16 A1.75 1.75 0 0 1 0,14.25 L0,7.75 C0,6.784 0.784,6 1.75,6 L5.167,6 A0.25 0.25 0 0 0 5.384,5.873 Z M4.75,13.649 L5.146,13.979 C5.55,14.316 6.06,14.5 6.586,14.5 L11.503,14.5 A1.25 1.25 0 0 0 12.703,13.603 L13.838,9.744 A1.75 1.75 0 0 0 12.159,7.5 L10.5,7.5 A0.75 0.75 0 0 1 9.779,6.544 L10.51,3.986 A1.75 1.75 0 0 0 9.383,1.846 L6.69,6.611 A1.75 1.75 0 0 1 5.167,7.5 L4.75,7.5 Z M3.25,7.5 L1.75,7.5 A0.25 0.25 0 0 0 1.5,7.75 L1.5,14.25 C1.5,14.388 1.612,14.5 1.75,14.5 L3,14.5 A0.25 0.25 0 0 0 3.25,14.25 Z"/>
</svg>
