<svg xmlns="http://www.w3.org/2000/svg" width="16" height="16" viewBox="0 0 16 16">
  <defs/>
  <path d="M5.433,2.304 A4.492 4.492 0 0 0 3.5,6 C3.5,7.598 4.332,9.002 5.59,9.802 C6.108,10.13 6.519,10.725 6.492,11.442 L6.492,11.45 L6.328,14.787 A0.75 0.75 0 1 1 4.83,14.714 L4.993,11.384 C4.995,11.299 4.943,11.168 4.786,11.068 A5.996 5.996 0 0 1 2,6 A5.993 5.993 0 0 1 4.567,1.08 A1.482 1.482 0 0 1 6.24,1.04 C6.702,1.336 7,1.867 7,2.463 L7,5.283 C7,5.365 7.041,5.443 7.11,5.489 L7.86,5.999 A0.25 0.25 0 0 0 8.14,5.999 L8.89,5.489 A0.249 0.249 0 0 0 9,5.282 L9,2.463 C9,1.867 9.298,1.336 9.76,1.04 A1.482 1.482 0 0 1 11.433,1.08 A5.993 5.993 0 0 1 14,6 A5.996 5.996 0 0 1 11.214,11.068 C11.057,11.168 11.005,11.298 11.007,11.383 L11.17,14.713 A0.752 0.752 0 0 1 10.076,15.427 A0.75 0.75 0 0 1 9.672,14.787 L9.508,11.442 C9.481,10.725 9.892,10.13 10.41,9.802 A4.495 4.495 0 0 0 12.5,6 A4.492 4.492 0 0 0 10.567,2.304 C10.543,2.321 10.5,2.371 10.5,2.464 L10.5,5.282 A1.75 1.75 0 0 1 9.733,6.73 L8.983,7.24 A1.75 1.75 0 0 1 7.017,7.24 L6.267,6.73 A1.75 1.75 0 0 1 5.5,5.282 L5.5,2.463 C5.5,2.371 5.457,2.321 5.433,2.304 Z"/>
</svg>
