<svg xmlns="http://www.w3.org/2000/svg" width="24" height="24" viewBox="0 0 24 24">
  <defs/>
  <path d="M7.875,2.292 A0.114 0.114 0 0 0 7.843,2.31 A7.239 7.239 0 0 0 4.75,8.25 A7.248 7.248 0 0 0 8.404,14.547 C8.974,14.874 9.386,15.502 9.345,16.229 L9.345,16.231 L9.028,22.289 A0.75 0.75 0 1 1 7.53,22.211 L7.847,16.149 L7.847,16.145 C7.853,16.055 7.8,15.93 7.659,15.849 A8.749 8.749 0 0 1 3.25,8.25 A8.738 8.738 0 0 1 6.982,1.081 A1.547 1.547 0 0 1 8.691,1.017 C9.175,1.309 9.5,1.852 9.5,2.477 L9.5,7.191 A0.25 0.25 0 0 0 9.619,7.404 L11.869,8.789 C11.949,8.839 12.051,8.839 12.131,8.789 L14.381,7.404 A0.25 0.25 0 0 0 14.5,7.191 L14.5,2.478 C14.5,1.852 14.825,1.309 15.31,1.017 A1.547 1.547 0 0 1 17.018,1.081 A8.741 8.741 0 0 1 20.75,8.251 A8.747 8.747 0 0 1 16.34,15.849 C16.2,15.93 16.147,16.055 16.152,16.145 L16.152,16.149 L16.47,22.211 A0.75 0.75 0 1 1 14.972,22.289 L14.655,16.231 L14.655,16.229 C14.614,15.502 15.025,14.874 15.595,14.547 A7.247 7.247 0 0 0 19.25,8.25 A7.239 7.239 0 0 0 16.157,2.31 A0.114 0.114 0 0 0 16.125,2.292 L16.115,2.291 C16.112,2.291 16.101,2.291 16.084,2.301 C16.048,2.323 16,2.38 16,2.478 L16,7.19 C16,7.798 15.685,8.362 15.167,8.68 L12.917,10.065 A1.75 1.75 0 0 1 11.083,10.065 L8.833,8.681 A1.752 1.752 0 0 1 8,7.192 L8,2.477 C8,2.379 7.952,2.322 7.916,2.301 A0.068 0.068 0 0 0 7.885,2.29 L7.875,2.291 Z"/>
</svg>
