<svg xmlns="http://www.w3.org/2000/svg" width="24" height="24" viewBox="0 0 24 24">
  <defs/>
  <path d="M12,2.5 A9.5 9.5 0 0 0 2.5,12 A9.5 9.5 0 0 0 12,21.5 A0.75 0.75 0 0 1 12,23 C5.925,23 1,18.075 1,12 C1,5.925 5.925,1 12,1 C18.075,1 23,5.925 23,12 A0.75 0.75 0 0 1 21.5,12 A9.5 9.5 0 0 0 12,2.5 Z"/>
  <path d="M13.759,17.48 L17.487,20.794 A0.308 0.308 0 0 0 18,20.564 L18,18 L22.25,18 A0.75 0.75 0 0 0 22.25,16.5 L18,16.5 L18,13.936 A0.308 0.308 0 0 0 17.487,13.706 L13.759,17.02 A0.307 0.307 0 0 0 13.759,17.48 Z M17.28,7.78 A0.749 0.749 0 1 0 16.22,6.72 L6.72,16.22 A0.749 0.749 0 1 0 7.78,17.28 L17.28,7.78 Z"/>
</svg>
