<svg xmlns="http://www.w3.org/2000/svg" width="16" height="16" viewBox="0 0 16 16">
  <defs/>
  <path d="M1.5,8 A6.5 6.5 0 1 1 14.5,8 A0.75 0.75 0 0 0 16,8 A8 8 0 1 0 8,16 A0.75 0.75 0 0 0 8,14.5 A6.5 6.5 0 0 1 1.5,8 Z"/>
  <path d="M8.677,12.427 L11.573,15.323 A0.25 0.25 0 0 0 12,15.146 L12,13 L15.25,13 A0.75 0.75 0 0 0 15.25,11.5 L12,11.5 L12,9.354 A0.25 0.25 0 0 0 11.573,9.177 L8.677,12.073 A0.25 0.25 0 0 0 8.677,12.427 Z M11.28,5.78 A0.749 0.749 0 1 0 10.22,4.72 L4.72,10.22 A0.749 0.749 0 1 0 5.78,11.28 L11.28,5.78 Z"/>
</svg>
