<svg xmlns="http://www.w3.org/2000/svg" width="16" height="16" viewBox="0 0 16 16">
  <defs/>
  <path d="M11,1.75 L11,3 L13.25,3 A0.75 0.75 0 0 1 13.25,4.5 L2.75,4.5 A0.75 0.75 0 0 1 2.75,3 L5,3 L5,1.75 C5,0.784 5.784,0 6.75,0 L9.25,0 C10.216,0 11,0.784 11,1.75 Z M4.496,6.675 L5.156,13.275 A0.25 0.25 0 0 0 5.405,13.5 L10.595,13.5 A0.25 0.25 0 0 0 10.844,13.275 L11.504,6.675 A0.75 0.75 0 0 1 12.996,6.824 L12.336,13.424 A1.748 1.748 0 0 1 10.595,15 L5.405,15 A1.75 1.75 0 0 1 3.664,13.425 L3.004,6.825 A0.75 0.75 0 1 1 4.496,6.675 Z M6.5,1.75 L6.5,3 L9.5,3 L9.5,1.75 A0.25 0.25 0 0 0 9.25,1.5 L6.75,1.5 A0.25 0.25 0 0 0 6.5,1.75 Z"/>
</svg>
