<svg xmlns="http://www.w3.org/2000/svg" width="24" height="24" viewBox="0 0 24 24">
  <defs/>
  <path d="M10.414,15 L3.586,15 L1.955,19.505 A0.75 0.75 0 1 1 0.545,18.995 L5.625,4.965 A1.463 1.463 0 0 1 8.375,4.965 L13.455,18.995 A0.75 0.75 0 1 1 12.044,19.505 Z M14.946,9.902 C15.859,8.219 17.649,7.697 19.23,7.697 C20.277,7.697 21.314,8.009 22.108,8.582 C22.909,9.159 23.5,10.037 23.5,11.13 L23.5,19.25 A0.75 0.75 0 0 1 22,19.25 L22,19.19 L21.956,19.215 C21.063,19.735 19.86,20 18.505,20 C17.454,20 16.457,19.685 15.71,19.052 C14.95,18.409 14.493,17.474 14.493,16.35 C14.493,15.431 14.842,14.489 15.661,13.787 C16.471,13.093 17.661,12.7 19.23,12.7 L22,12.7 L22,11.13 C22,10.627 21.737,10.163 21.231,9.798 C20.718,9.428 19.996,9.198 19.23,9.198 C17.911,9.198 16.801,9.628 16.264,10.618 A0.75 0.75 0 0 1 14.946,9.902 Z M9.87,13.5 L7,5.572 L4.13,13.5 Z M22,14.2 L19.23,14.2 C17.899,14.2 17.096,14.533 16.637,14.926 A1.822 1.822 0 0 0 15.993,16.35 C15.993,17.039 16.26,17.553 16.679,17.907 C17.109,18.272 17.744,18.5 18.505,18.5 C19.688,18.5 20.607,18.265 21.202,17.919 C21.784,17.579 22,17.179 22,16.785 Z"/>
</svg>
