<svg xmlns="http://www.w3.org/2000/svg" width="16" height="16" viewBox="0 0 16 16">
  <defs/>
  <path d="M6.71,10 L2.332,10 L1.458,12.498 A0.75 0.75 0 0 1 0.043,12.002 L3.433,2.314 A1.217 1.217 0 0 1 5.735,2.332 L8.962,12.013 A0.75 0.75 0 0 1 7.539,12.487 Z M9.84,5.642 C10.53,4.374 11.87,4 13,4 C14.5,4 16,4.939 16,6.601 L16,12.25 A0.75 0.75 0 0 1 14.552,12.525 C13.995,12.82 13.3,13 12.5,13 C11.73,13 10.986,12.769 10.422,12.291 C9.845,11.803 9.5,11.092 9.5,10.25 C9.5,9.556 9.765,8.839 10.387,8.306 C11,7.78 11.88,7.5 13,7.5 L14.5,7.5 L14.5,6.601 C14.5,6.061 14,5.5 13,5.5 C12.131,5.5 11.472,5.782 11.16,6.358 A0.75 0.75 0 1 1 9.84,5.642 Z M6.21,8.5 L4.574,3.594 L2.857,8.5 Z M14.5,9 L13,9 C12.119,9 11.625,9.22 11.363,9.444 C11.11,9.661 11,9.944 11,10.25 C11,10.658 11.155,10.947 11.39,11.146 C11.639,11.356 12.02,11.5 12.5,11.5 C13.232,11.5 13.76,11.291 14.088,11.051 C14.438,10.794 14.5,10.556 14.5,10.5 Z"/>
</svg>
