<svg xmlns="http://www.w3.org/2000/svg" width="24" height="24" viewBox="0 0 24 24">
  <defs/>
  <path d="M9.53,2.22 A0.75 0.75 0 0 0 8.47,2.22 L2.22,8.47 A0.75 0.75 0 0 0 2.22,9.53 L8.47,15.78 A0.75 0.75 0 0 0 9.53,14.72 L4.56,9.75 L16,9.75 C16.797,9.75 18.008,9.995 19,10.709 C19.952,11.395 20.75,12.544 20.75,14.5 C20.75,16.456 19.952,17.605 19,18.291 C18.008,19.005 16.797,19.25 16,19.25 L13,19.25 A0.75 0.75 0 0 0 13,20.75 L16,20.75 C17.037,20.75 18.575,20.445 19.876,19.509 C21.215,18.545 22.25,16.944 22.25,14.5 C22.25,12.056 21.215,10.455 19.876,9.491 C18.575,8.555 17.036,8.25 16,8.25 L4.56,8.25 L9.53,3.28 A0.75 0.75 0 0 0 9.53,2.22 Z"/>
</svg>
