<svg xmlns="http://www.w3.org/2000/svg" width="24" height="24" viewBox="0 0 24 24">
  <defs/>
  <path d="M12,23 A0.749 0.749 0 0 1 11.47,22.78 L8.22,19.53 A0.749 0.749 0 0 1 8.546,18.255 A0.749 0.749 0 0 1 9.28,18.47 L12,21.19 L14.72,18.47 A0.749 0.749 0 0 1 15.995,18.796 A0.749 0.749 0 0 1 15.78,19.53 L12.53,22.78 A0.749 0.749 0 0 1 12,23 Z"/>
  <path d="M11.47,1.22 A0.75 0.75 0 0 1 12.53,1.22 L15.78,4.47 A0.751 0.751 0 0 1 15.762,5.512 A0.751 0.751 0 0 1 14.72,5.53 L12,2.81 L9.28,5.53 A0.751 0.751 0 0 1 8.238,5.512 A0.751 0.751 0 0 1 8.22,4.47 Z M12,22.25 A0.75 0.75 0 0 1 11.25,21.5 L11.25,15.75 A0.75 0.75 0 0 1 12.75,15.75 L12.75,21.5 A0.75 0.75 0 0 1 12,22.25 Z M2.75,12 A0.75 0.75 0 0 1 3.5,11.25 L4.5,11.25 A0.75 0.75 0 0 1 4.5,12.75 L3.5,12.75 A0.75 0.75 0 0 1 2.75,12 Z M6.75,12 A0.75 0.75 0 0 1 7.5,11.25 L8.5,11.25 A0.75 0.75 0 0 1 8.5,12.75 L7.5,12.75 A0.75 0.75 0 0 1 6.75,12 Z M10.75,12 A0.75 0.75 0 0 1 11.5,11.25 L12.5,11.25 A0.75 0.75 0 0 1 12.5,12.75 L11.5,12.75 A0.75 0.75 0 0 1 10.75,12 Z M14.75,12 A0.75 0.75 0 0 1 15.5,11.25 L16.5,11.25 A0.75 0.75 0 0 1 16.5,12.75 L15.5,12.75 A0.75 0.75 0 0 1 14.75,12 Z M18.75,12 A0.75 0.75 0 0 1 19.5,11.25 L20.5,11.25 A0.75 0.75 0 0 1 20.5,12.75 L19.5,12.75 A0.75 0.75 0 0 1 18.75,12 Z"/>
  <path d="M12,1.5 A0.75 0.75 0 0 1 12.75,2.25 L12.75,8.25 A0.75 0.75 0 0 1 11.25,8.25 L11.25,2.25 A0.75 0.75 0 0 1 12,1.5 Z"/>
</svg>
