<svg xmlns="http://www.w3.org/2000/svg" width="24" height="24" viewBox="0 0 24 24">
  <defs/>
  <path d="M20.347,3.653 A3.936 3.936 0 0 0 14.78,3.653 L13.03,5.403 A0.75 0.75 0 0 1 11.97,4.343 L13.72,2.593 A5.436 5.436 0 0 1 21.408,10.28 L19.844,11.844 A0.75 0.75 0 0 1 18.784,10.784 L20.347,9.22 A3.936 3.936 0 0 0 20.347,3.653 Z M9.786,12.369 A0.75 0.75 0 0 1 10.839,12.494 C10.935,12.616 11.039,12.734 11.153,12.847 C12.501,14.195 14.539,14.434 16.043,13.505 L12.121,10.647 A0.745 0.745 0 0 1 12.064,10.61 C10.645,9.597 8.61,9.823 7.28,11.153 L3.653,14.78 A3.936 3.936 0 0 0 9.22,20.347 L12.22,17.347 A0.75 0.75 0 1 1 13.28,18.407 L10.28,21.407 A5.436 5.436 0 1 1 2.592,13.72 L6.22,10.092 A5.517 5.517 0 0 1 9.234,8.545 L2.184,3.409 A0.75 0.75 0 0 1 3.067,2.196 L23.317,16.946 A0.75 0.75 0 0 1 22.433,18.159 L17.324,14.437 C15.169,16.146 12.046,15.862 10.092,13.907 A5.491 5.491 0 0 1 9.661,13.422 A0.75 0.75 0 0 1 9.786,12.369 Z"/>
</svg>
