<svg xmlns="http://www.w3.org/2000/svg" width="16" height="16" viewBox="0 0 16 16">
  <defs/>
  <path d="M11.043999671936035,9.395999908447266 C11.022528648376465,9.423925399780273 10.999137878417969,9.450323104858398 10.973999977111816,9.475000381469727 C10.343999862670898,10.104999542236328 9.505999565124512,10.583000183105469 8.630999565124512,10.73799991607666 C7.741000175476074,10.897000312805176 6.770999908447266,10.720999717712402 6.025000095367432,9.975000381469727 C5.824347019195557,9.788029670715332 5.741750717163086,9.506444931030273 5.809614658355713,9.240711212158203 C5.877478122711182,8.974977493286133 6.084977626800537,8.767477989196777 6.350710868835449,8.699614524841309 C6.6164445877075195,8.63175106048584 6.898029327392578,8.714346885681152 7.085000038146973,8.914999961853027 C7.414000034332275,9.241999626159668 7.8520002365112305,9.352999687194824 8.369000434875488,9.26200008392334 C8.862000465393066,9.173999786376953 9.38700008392334,8.902000427246094 9.814000129699707,8.510000228881836 L8.567000389099121,7.61299991607666 C8.563642501831055,7.610363483428955 8.560309410095215,7.607696533203125 8.557000160217285,7.605000019073486 L8.26200008392334,7.39300012588501 C7.322000026702881,6.796000003814697 6.2779998779296875,6.894000053405762 5.585999965667725,7.585999965667725 L3.0859999656677246,10.086000442504883 C2.566086769104004,10.588149070739746 2.357574701309204,11.331755638122559 2.5406057834625244,12.031014442443848 C2.7236366271972656,12.730273246765137 3.269726514816284,13.276363372802734 3.9689853191375732,13.459394454956055 C4.668244361877441,13.642425537109375 5.411850929260254,13.433913230895996 5.914000034332275,12.913999557495117 L6.750999927520752,12.07800006866455 C7.046509742736816,11.802640914916992 7.507009506225586,11.810766220092773 7.792621612548828,12.096378326416016 C8.07823371887207,12.381990432739258 8.086359024047852,12.842490196228027 7.810999870300293,13.137999534606934 L6.974999904632568,13.975000381469727 C6.291877269744873,14.658123016357422 5.396637916564941,14.999849319458008 4.501296043395996,15.000178337097168 L4.498703956604004,15.000178337097168 C3.6033623218536377,14.999849319458008 2.708122968673706,14.658123016357422 2.0250000953674316,13.975000381469727 C1.3415477275848389,13.291547775268555 0.9998214244842529,12.395773887634277 0.9998214244842529,11.5 C0.9998214244842529,10.604226112365723 1.3415477275848389,9.708452224731445 2.0250000953674316,9.024999618530273 L4.525000095367432,6.525000095367432 C4.904278755187988,6.14092493057251 5.367884635925293,5.850572109222412 5.879000186920166,5.677000045776367 L2.312000036239624,3.1089999675750732 C1.9756585359573364,2.8670992851257324 1.899099349975586,2.398341417312622 2.1410000324249268,2.062000036239624 C2.3829007148742676,1.725658655166626 2.851658582687378,1.6490992307662964 3.187999963760376,1.8910000324249268 L9.118000030517578,6.160999774932861 C9.232999801635742,6.235000133514404 9.343999862670898,6.315999984741211 9.45300006866455,6.401000022888184 L15.687999725341797,10.890999794006348 C15.886652946472168,11.033873558044434 15.994682312011719,11.255885124206543 16,11.483009338378906 L16,11.518241882324219 C15.99658203125,11.664142608642578 15.95064640045166,11.810574531555176 15.859000205993652,11.937999725341797 C15.617098808288574,12.274341583251953 15.148341178894043,12.350900650024414 14.812000274658203,12.109000205993652 Z M12.913999557495117,5.914000034332275 C13.671944618225098,5.129242420196533 13.661105155944824,3.8818304538726807 12.889636993408203,3.1103627681732178 C12.118169784545898,2.338895320892334 10.870758056640625,2.3280556201934814 10.086000442504883,3.0859999656677246 L9.24899959564209,3.9230000972747803 C9.060602188110352,4.1178765296936035 8.781713485717773,4.1959357261657715 8.519524574279785,4.127175331115723 C8.257336616516113,4.058414459228516 8.052650451660156,3.8535354137420654 7.984137058258057,3.5912821292877197 C7.915624141693115,3.329029083251953 7.993945598602295,3.0502142906188965 8.189000129699707,2.861999988555908 L9.024999618530273,2.0250000953674316 C9.708452224731445,1.3415477275848389 10.604226112365723,0.9998214244842529 11.5,0.9998214244842529 C12.395773887634277,0.9998214244842529 13.291547775268555,1.3415477275848389 13.975000381469727,2.0250000953674316 C15.341904640197754,3.391904830932617 15.341904640197754,5.608095169067383 13.975000381469727,6.974999904632568 L13.779999732971191,7.169000148773193 C13.484490394592285,7.444358825683594 13.023990631103516,7.436233997344971 12.738378524780273,7.1506218910217285 C12.452766418457031,6.865009784698486 12.44464111328125,6.404509544372559 12.720000267028809,6.109000205993652 Z"/>
</svg>
