<svg xmlns="http://www.w3.org/2000/svg" width="16" height="16" viewBox="0 0 16 16">
  <defs/>
  <path d="M5.5,4 L5.5,6 L12.5,6 C13.3284273147583,6 14,6.671572685241699 14,7.5 L14,13.5 C14,14.3284273147583 13.3284273147583,15 12.5,15 L3.5,15 C2.6715729236602783,15 2,14.3284273147583 2,13.5 L2,7.5 C1.999999761581421,6.671963214874268 2.6709635257720947,6.000552177429199 3.499000072479248,6 L4,6 L4,4 C3.9996535778045654,2.2226974964141846 5.1720662117004395,0.6583230495452881 6.8780198097229,0.15979856252670288 C7.218344211578369,0.0603468082845211 7.56361722946167,0.008071728982031345 7.905916213989258,0 L8.093856811523438,0 C9.39944839477539,0.030782025307416916 10.640125274658203,0.7017701864242554 11.371000289916992,1.8459999561309814 C11.594122886657715,2.1950440406799316 11.492043495178223,2.658876895904541 11.142999649047852,2.881999969482422 C10.79395580291748,3.1051230430603027 10.330122947692871,3.0030438899993896 10.107000350952148,2.6540000438690186 C9.509112358093262,1.7177780866622925 8.3651704788208,1.2883622646331787 7.298900127410889,1.5998882055282593 C6.232629299163818,1.9114141464233398 5.499807834625244,2.889153003692627 5.5,4 Z M3.5,7.5 L3.5,13.5 L12.5,13.5 L12.5,7.5 Z"/>
</svg>
