<svg xmlns="http://www.w3.org/2000/svg" width="16" height="16" viewBox="0 0 16 16">
  <defs/>
  <path d="M7.563,2.069 A0.75 0.75 0 0 1 8,2.75 L8,13.25 A0.751 0.751 0 0 1 6.762,13.82 L3.472,11 L1.75,11 A1.75 1.75 0 0 1 0,9.25 L0,6.75 C0,5.784 0.784,5 1.75,5 L3.473,5 L6.762,2.18 A0.75 0.75 0 0 1 7.563,2.069 Z M6.5,4.38 L4.238,6.319 A0.748 0.748 0 0 1 3.75,6.5 L1.75,6.5 A0.25 0.25 0 0 0 1.5,6.75 L1.5,9.25 C1.5,9.388 1.612,9.5 1.75,9.5 L3.75,9.5 C3.929,9.5 4.102,9.564 4.238,9.68 L6.5,11.62 Z M12.596,2.342 A0.75 0.75 0 0 1 13.656,2.342 A8 8 0 0 1 13.656,13.656 A0.751 0.751 0 0 1 12.614,13.638 A0.751 0.751 0 0 1 12.596,12.596 A6.5 6.5 0 0 0 12.596,3.403 A0.75 0.75 0 0 1 12.596,2.343 Z M11.536,4.463 L11.535,4.464 A5 5 0 0 1 11.535,11.534 A0.749 0.749 0 0 1 10.26,11.208 A0.749 0.749 0 0 1 10.475,10.474 A3.5 3.5 0 0 0 10.475,5.524 A0.75 0.75 0 1 1 11.536,4.463 Z"/>
</svg>
