<svg xmlns="http://www.w3.org/2000/svg" width="24" height="24" viewBox="0 0 24 24">
  <defs/>
  <path d="M11.553,3.064 A0.75 0.75 0 0 1 12,3.75 L12,20.25 A0.75 0.75 0 0 1 10.745,20.805 L5.46,16 L2.75,16 A1.75 1.75 0 0 1 1,14.25 L1,9.75 C1,8.784 1.784,8 2.75,8 L5.46,8 L10.745,3.195 A0.752 0.752 0 0 1 11.553,3.065 Z M10.5,5.445 L6.255,9.305 A0.748 0.748 0 0 1 5.75,9.5 L2.75,9.5 A0.25 0.25 0 0 0 2.5,9.75 L2.5,14.25 C2.5,14.388 2.612,14.5 2.75,14.5 L5.75,14.5 C5.937,14.5 6.117,14.569 6.255,14.695 L10.5,18.555 Z M18.718,4.222 A0.75 0.75 0 0 1 19.778,4.222 C24.074,8.518 24.074,15.482 19.778,19.778 A0.75 0.75 0 0 1 18.718,18.718 A9.5 9.5 0 0 0 18.718,5.282 A0.75 0.75 0 0 1 18.718,4.222 Z"/>
  <path d="M16.243,7.757 A0.75 0.75 0 1 0 15.182,8.818 A4.5 4.5 0 0 1 15.182,15.182 A0.75 0.75 0 0 0 16.242,16.242 A6 6 0 0 0 16.242,7.757 Z"/>
</svg>
