<svg xmlns="http://www.w3.org/2000/svg" width="16" height="16" viewBox="0 0 16 16">
  <defs/>
  <path d="M10.5,3.5 L1.75,3.5 C1.6119288206100464,3.5 1.5,3.611928701400757 1.5,3.75 L1.5,4.070000171661377 L8,7.880000114440918 L11.020000457763672,6.110000133514404 C11.377604484558105,5.900683879852295 11.837183952331543,6.020895481109619 12.046500205993652,6.378499984741211 C12.255815505981445,6.736104488372803 12.135603904724121,7.19568395614624 11.777999877929688,7.40500020980835 L8.378999710083008,9.397000312805176 C8.144925117492676,9.534075736999512 7.855075359344482,9.534075736999512 7.620999813079834,9.397000312805176 L1.5,5.809000015258789 L1.5,12.25 C1.5,12.387999534606934 1.6119999885559082,12.5 1.75,12.5 L14.25,12.5 C14.388071060180664,12.5 14.5,12.388071060180664 14.5,12.25 L14.5,7.75 C14.5,7.33578634262085 14.835786819458008,7 15.25,7 C15.664213180541992,7 16,7.33578634262085 16,7.75 L16,12.25 C16,13.216498374938965 15.216498374938965,14 14.25,14 L1.75,14 C0.7835016846656799,14 0,13.216498374938965 0,12.25 L0,3.75 C0,2.7839999198913574 0.7839999794960022,2 1.75,2 L10.5,2 C10.914213180541992,2 11.25,2.3357863426208496 11.25,2.75 C11.25,3.1642136573791504 10.914213180541992,3.5 10.5,3.5 Z"/>
  <path d="M14,6 A2 2 0 1 0 14,2 A2 2 0 0 0 14,6 Z"/>
</svg>
