<svg xmlns="http://www.w3.org/2000/svg" width="24" height="24" viewBox="0 0 24 24">
  <defs/>
  <path d="M1.75,4.5 A0.25 0.25 0 0 0 1.5,4.75 L1.5,5.602 L11.86,12.602 A0.25 0.25 0 0 0 12.14,12.602 L17.83,8.757 A0.75 0.75 0 0 1 18.67,10 L12.98,13.845 C12.388,14.245 11.612,14.245 11.02,13.845 L1.5,7.412 L1.5,19.25 C1.5,19.388 1.612,19.5 1.75,19.5 L22.25,19.5 A0.25 0.25 0 0 0 22.5,19.25 L22.5,10.75 A0.75 0.75 0 0 1 24,10.75 L24,19.25 A1.75 1.75 0 0 1 22.25,21 L1.75,21 A1.75 1.75 0 0 1 0,19.25 L0,4.75 C0,3.784 0.784,3 1.75,3 L17.25,3 A0.75 0.75 0 0 1 17.25,4.5 L1.75,4.5 Z"/>
  <path d="M24,5.5 A2.5 2.5 0 1 1 19,5.5 A2.5 2.5 0 0 1 24,5.5 Z"/>
</svg>
