<svg xmlns="http://www.w3.org/2000/svg" width="16" height="16" viewBox="0 0 16 16">
  <defs/>
  <path d="M6.415,0.52 A2.677 2.677 0 0 1 9.585,0.52 L10.513,1.2 C10.666,1.313 10.843,1.386 11.031,1.415 L12.169,1.59 A2.678 2.678 0 0 1 14.41,3.83 L14.585,4.968 C14.614,5.155 14.687,5.333 14.8,5.486 L15.48,6.414 A2.677 2.677 0 0 1 15.48,9.584 L14.8,10.512 A1.186 1.186 0 0 0 14.585,11.03 L14.41,12.168 A2.678 2.678 0 0 1 12.169,14.409 L11.031,14.584 A1.186 1.186 0 0 0 10.513,14.799 L9.585,15.479 A2.677 2.677 0 0 1 6.415,15.479 L5.487,14.799 A1.186 1.186 0 0 0 4.969,14.584 L3.83,14.41 A2.678 2.678 0 0 1 1.59,12.17 L1.415,11.032 A1.186 1.186 0 0 0 1.2,10.514 L0.52,9.586 A2.677 2.677 0 0 1 0.52,6.416 L1.2,5.488 A1.17 1.17 0 0 0 1.415,4.97 L1.59,3.83 A2.678 2.678 0 0 1 3.83,1.59 L4.968,1.415 C5.155,1.386 5.333,1.313 5.486,1.2 L6.414,0.52 Z M8.697,1.729 A1.18 1.18 0 0 0 7.303,1.729 L6.375,2.409 A2.67 2.67 0 0 1 5.195,2.898 L4.059,3.072 A1.18 1.18 0 0 0 3.072,4.059 L2.898,5.196 A2.67 2.67 0 0 1 2.409,6.376 L1.729,7.303 C1.424,7.718 1.424,8.283 1.729,8.697 L2.409,9.625 C2.665,9.973 2.832,10.377 2.898,10.805 L3.072,11.941 C3.15,12.451 3.55,12.85 4.059,12.928 L5.196,13.102 C5.623,13.168 6.027,13.335 6.376,13.591 L7.303,14.271 C7.718,14.576 8.283,14.576 8.697,14.271 L9.625,13.591 A2.67 2.67 0 0 1 10.805,13.102 L11.941,12.928 C12.451,12.85 12.85,12.45 12.928,11.941 L13.102,10.804 C13.168,10.377 13.335,9.973 13.591,9.624 L14.271,8.697 C14.576,8.282 14.576,7.717 14.271,7.303 L13.591,6.375 A2.67 2.67 0 0 1 13.102,5.195 L12.928,4.059 A1.18 1.18 0 0 0 11.941,3.072 L10.804,2.898 A2.67 2.67 0 0 1 9.624,2.409 Z M6.92,6.085 L6.921,6.085 A0.75 0.75 0 0 1 5.579,5.415 C5.748,5.076 6.015,4.714 6.428,4.438 C6.846,4.16 7.369,4 8,4 A2.76 2.76 0 0 1 9.638,4.525 C10.14,4.902 10.5,5.49 10.5,6.25 C10.5,6.698 10.385,7.08 10.171,7.4 C9.966,7.707 9.701,7.913 9.479,8.062 C9.37,8.134 9.259,8.2 9.166,8.257 L9.16,8.261 A6.24 6.24 0 0 0 8.9,8.421 A0.952 0.952 0 0 0 8.624,8.666 A0.75 0.75 0 0 1 7.376,7.834 C7.56,7.57 7.796,7.345 8.068,7.173 C8.177,7.1 8.288,7.034 8.381,6.978 L8.388,6.974 C8.488,6.913 8.57,6.864 8.646,6.813 A0.969 0.969 0 0 0 8.923,6.568 C8.96,6.514 9,6.427 9,6.25 A0.612 0.612 0 0 0 8.738,5.725 A1.27 1.27 0 0 0 8,5.5 C7.631,5.5 7.405,5.59 7.26,5.687 A1.01 1.01 0 0 0 6.92,6.085 Z M9,11 A1 1 0 1 1 7,11 A1 1 0 0 1 9,11 Z"/>
</svg>
