<svg xmlns="http://www.w3.org/2000/svg" width="24" height="24" viewBox="0 0 24 24">
  <defs/>
  <path d="M13,16.5 A1 1 0 1 1 11,16.5 A1 1 0 0 1 13,16.5 Z M10.483,8.835 C10.595,8.612 10.751,8.411 10.971,8.265 C11.186,8.12 11.506,8 12,8 C12.384,8 12.766,8.118 13.034,8.319 A0.953 0.953 0 0 1 13.437,9.125 C13.437,9.605 13.219,9.935 12.817,10.311 A9.293 9.293 0 0 1 12.408,10.665 A19.8 19.8 0 0 0 12.114,10.914 C11.868,11.127 11.59,11.388 11.376,11.709 L11.25,11.899 L11.25,13.5 A0.75 0.75 0 0 0 12.75,13.5 L12.75,12.38 C12.84,12.28 12.953,12.172 13.097,12.047 C13.16,11.992 13.237,11.928 13.319,11.86 C13.485,11.72 13.677,11.56 13.839,11.408 C14.375,10.908 14.937,10.208 14.937,9.125 A2.45 2.45 0 0 0 13.934,7.119 C13.37,6.695 12.658,6.5 12,6.5 C11.244,6.5 10.627,6.691 10.139,7.017 A2.944 2.944 0 0 0 9.142,8.165 A0.75 0.75 0 0 0 10.483,8.835 Z"/>
  <path d="M9.864,1.2 A3.61 3.61 0 0 1 14.136,1.2 L15.511,2.21 C15.785,2.41 16.104,2.543 16.44,2.594 L18.126,2.853 A3.61 3.61 0 0 1 21.147,5.873 L21.406,7.56 C21.457,7.896 21.589,8.215 21.79,8.489 L22.8,9.864 A3.61 3.61 0 0 1 22.8,14.136 L21.79,15.511 A2.106 2.106 0 0 0 21.406,16.44 L21.147,18.126 A3.61 3.61 0 0 1 18.127,21.147 L16.44,21.406 A2.106 2.106 0 0 0 15.511,21.79 L14.136,22.8 A3.61 3.61 0 0 1 9.864,22.8 L8.489,21.79 A2.106 2.106 0 0 0 7.56,21.406 L5.874,21.147 A3.61 3.61 0 0 1 2.853,18.127 L2.594,16.44 A2.106 2.106 0 0 0 2.21,15.511 L1.2,14.136 A3.61 3.61 0 0 1 1.2,9.864 L2.21,8.489 C2.411,8.215 2.543,7.896 2.594,7.56 L2.853,5.874 A3.61 3.61 0 0 1 5.873,2.853 L7.56,2.594 C7.896,2.543 8.215,2.411 8.489,2.21 Z M13.248,2.409 A2.11 2.11 0 0 0 10.752,2.409 L9.376,3.419 A3.61 3.61 0 0 1 7.787,4.077 L6.101,4.335 A2.111 2.111 0 0 0 4.335,6.101 L4.077,7.787 A3.614 3.614 0 0 1 3.419,9.377 L2.409,10.752 A2.11 2.11 0 0 0 2.409,13.248 L3.419,14.624 A3.61 3.61 0 0 1 4.077,16.213 L4.335,17.899 A2.11 2.11 0 0 0 6.101,19.664 L7.787,19.924 A3.613 3.613 0 0 1 9.377,20.581 L10.752,21.591 A2.11 2.11 0 0 0 13.248,21.591 L14.624,20.581 A3.61 3.61 0 0 1 16.213,19.923 L17.899,19.665 A2.11 2.11 0 0 0 19.664,17.899 L19.924,16.213 A3.613 3.613 0 0 1 20.581,14.623 L21.591,13.248 A2.11 2.11 0 0 0 21.591,10.752 L20.581,9.376 A3.61 3.61 0 0 1 19.923,7.787 L19.665,6.101 A2.111 2.111 0 0 0 17.899,4.335 L16.213,4.077 A3.614 3.614 0 0 1 14.623,3.419 Z"/>
</svg>
