<svg xmlns="http://www.w3.org/2000/svg" width="16" height="16" viewBox="0 0 16 16">
  <defs/>
  <path d="M2.75,14 A1.75 1.75 0 0 1 1,12.25 L1,9.75 A0.75 0.75 0 0 1 2.5,9.75 L2.5,12.25 C2.5,12.388 2.612,12.5 2.75,12.5 L13.25,12.5 A0.25 0.25 0 0 0 13.5,12.25 L13.5,9.75 A0.75 0.75 0 0 1 15,9.75 L15,12.25 A1.75 1.75 0 0 1 13.25,14 Z"/>
  <path d="M11.78,4.72 A0.749 0.749 0 1 1 10.72,5.78 L8.75,3.811 L8.75,9.5 A0.75 0.75 0 0 1 7.25,9.5 L7.25,3.811 L5.28,5.78 A0.749 0.749 0 1 1 4.22,4.72 L7.47,1.47 A0.749 0.749 0 0 1 8.53,1.47 L11.78,4.72 Z"/>
</svg>
