<svg xmlns="http://www.w3.org/2000/svg" width="24" height="24" viewBox="0 0 24 24">
  <defs/>
  <path d="M17.03,9.78 A0.75 0.75 0 0 0 15.97,8.72 L10.5,14.19 L8.03,11.72 A0.75 0.75 0 0 0 6.97,12.78 L9.97,15.78 A0.75 0.75 0 0 0 11.03,15.78 L17.03,9.78 Z"/>
  <path d="M14.136,1.2 L15.511,2.21 C15.785,2.411 16.104,2.543 16.44,2.594 L18.127,2.853 A3.61 3.61 0 0 1 21.147,5.874 L21.406,7.56 C21.457,7.896 21.589,8.215 21.79,8.489 L22.8,9.864 A3.61 3.61 0 0 1 22.8,14.136 L21.79,15.511 A2.106 2.106 0 0 0 21.406,16.44 L21.147,18.127 A3.61 3.61 0 0 1 18.126,21.147 L16.44,21.406 A2.106 2.106 0 0 0 15.511,21.79 L14.136,22.8 A3.61 3.61 0 0 1 9.864,22.8 L8.489,21.79 A2.106 2.106 0 0 0 7.56,21.406 L5.873,21.147 A3.61 3.61 0 0 1 2.853,18.126 L2.594,16.44 A2.117 2.117 0 0 0 2.21,15.511 L1.2,14.136 A3.61 3.61 0 0 1 1.2,9.864 L2.21,8.489 C2.411,8.215 2.543,7.896 2.594,7.56 L2.853,5.873 A3.61 3.61 0 0 1 5.874,2.853 L7.56,2.594 C7.896,2.543 8.215,2.411 8.489,2.21 L9.864,1.2 A3.61 3.61 0 0 1 14.136,1.2 Z M10.752,2.409 L9.377,3.419 A3.614 3.614 0 0 1 7.787,4.077 L6.101,4.335 A2.111 2.111 0 0 0 4.335,6.101 L4.077,7.787 A3.61 3.61 0 0 1 3.419,9.376 L2.409,10.752 A2.11 2.11 0 0 0 2.409,13.248 L3.419,14.623 C3.763,15.092 3.989,15.638 4.077,16.213 L4.335,17.899 C4.475,18.81 5.19,19.525 6.101,19.665 L7.787,19.923 A3.61 3.61 0 0 1 9.376,20.581 L10.752,21.591 A2.11 2.11 0 0 0 13.248,21.591 L14.623,20.581 A3.613 3.613 0 0 1 16.213,19.924 L17.899,19.664 A2.11 2.11 0 0 0 19.665,17.899 L19.923,16.213 A3.61 3.61 0 0 1 20.581,14.624 L21.591,13.248 A2.11 2.11 0 0 0 21.591,10.752 L20.581,9.377 A3.613 3.613 0 0 1 19.924,7.787 L19.664,6.101 A2.11 2.11 0 0 0 17.899,4.335 L16.213,4.077 A3.61 3.61 0 0 1 14.624,3.419 L13.248,2.409 A2.11 2.11 0 0 0 10.752,2.409 Z"/>
</svg>
