<svg xmlns="http://www.w3.org/2000/svg" width="16" height="16" viewBox="0 0 16 16">
  <defs/>
  <path d="M9.585,0.52 L10.514,1.2 C10.667,1.312 10.845,1.386 11.032,1.415 L12.17,1.59 A2.678 2.678 0 0 1 14.41,3.83 L14.584,4.969 C14.613,5.156 14.687,5.334 14.799,5.487 L15.479,6.415 A2.677 2.677 0 0 1 15.479,9.585 L14.799,10.513 A1.174 1.174 0 0 0 14.584,11.031 L14.409,12.169 A2.678 2.678 0 0 1 12.168,14.41 L11.03,14.585 A1.17 1.17 0 0 0 10.512,14.8 L9.584,15.48 A2.677 2.677 0 0 1 6.414,15.48 L5.486,14.8 A1.174 1.174 0 0 0 4.968,14.585 L3.83,14.41 A2.678 2.678 0 0 1 1.59,12.17 L1.415,11.032 A1.17 1.17 0 0 0 1.2,10.514 L0.52,9.586 A2.677 2.677 0 0 1 0.52,6.416 L1.2,5.488 C1.312,5.335 1.386,5.157 1.415,4.97 L1.59,3.83 A2.678 2.678 0 0 1 3.83,1.59 L4.969,1.415 C5.156,1.386 5.334,1.312 5.487,1.2 L6.415,0.52 A2.677 2.677 0 0 1 9.585,0.52 Z M7.303,1.728 L6.376,2.408 A2.67 2.67 0 0 1 5.196,2.897 L4.059,3.071 A1.179 1.179 0 0 0 3.072,4.058 L2.898,5.194 A2.677 2.677 0 0 1 2.409,6.374 L1.729,7.302 A1.18 1.18 0 0 0 1.729,8.696 L2.409,9.623 C2.665,9.971 2.833,10.376 2.898,10.803 L3.072,11.94 C3.15,12.449 3.55,12.849 4.059,12.927 L5.195,13.101 A2.67 2.67 0 0 1 6.375,13.59 L7.303,14.27 C7.717,14.575 8.282,14.575 8.697,14.27 L9.624,13.59 A2.67 2.67 0 0 1 10.804,13.101 L11.941,12.927 A1.18 1.18 0 0 0 12.928,11.94 L13.102,10.804 A2.67 2.67 0 0 1 13.591,9.624 L14.271,8.696 A1.176 1.176 0 0 0 14.271,7.302 L13.591,6.375 A2.686 2.686 0 0 1 13.102,5.195 L12.928,4.058 A1.179 1.179 0 0 0 11.941,3.071 L10.805,2.897 A2.677 2.677 0 0 1 9.625,2.408 L8.697,1.728 A1.176 1.176 0 0 0 7.303,1.728 Z M11.28,6.78 L7.53,10.53 A0.75 0.75 0 0 1 6.47,10.53 L4.72,8.78 A0.751 0.751 0 0 1 4.738,7.738 A0.751 0.751 0 0 1 5.78,7.72 L7,8.94 L10.22,5.72 A0.751 0.751 0 0 1 11.262,5.738 A0.751 0.751 0 0 1 11.28,6.78 Z"/>
</svg>
