<svg xmlns="http://www.w3.org/2000/svg" width="16" height="16" viewBox="0 0 16 16">
  <defs/>
  <path d="M7.75,14 C6.783501625061035,14 6,13.216498374938965 6,12.25 L6,3.75 C6,2.7839999198913574 6.783999919891357,2 7.75,2 L14.25,2 C15.215999603271484,2 16,2.7839999198913574 16,3.75 L16,12.25 C16,13.216498374938965 15.216498374938965,14 14.25,14 Z M7.5,12.25 C7.5,12.387999534606934 7.611999988555908,12.5 7.75,12.5 L14.25,12.5 C14.388071060180664,12.5 14.5,12.388071060180664 14.5,12.25 L14.5,3.75 C14.5,3.611928701400757 14.388071060180664,3.5 14.25,3.5 L7.75,3.5 C7.611928939819336,3.5 7.5,3.611928701400757 7.5,3.75 Z M4.900000095367432,3.507999897003174 C5.1075215339660645,3.8666906356811523 4.9848198890686035,4.32570219039917 4.625999927520752,4.5329999923706055 C4.547959327697754,4.577337265014648 4.499819755554199,4.660243988037109 4.5,4.75 L4.5,11.25 C4.5,11.34000015258789 4.547999858856201,11.42300033569336 4.625999927520752,11.467000007629395 C4.984432697296143,11.67465877532959 5.106658935546875,12.133566856384277 4.89900016784668,12.491999626159668 C4.691340923309326,12.850432395935059 4.232432842254639,12.97265911102295 3.874000072479248,12.765000343322754 C3.333101511001587,12.45223617553711 2.999988079071045,11.8748140335083 3,11.25 L3,4.75 C3,4.10099983215332 3.3529999256134033,3.5360000133514404 3.874000072479248,3.2339999675750732 C4.232690811157227,3.0264785289764404 4.691701889038086,3.1491801738739014 4.89900016784668,3.507999897003174 Z M1.625,5.5329999923706055 L1.6260000467300415,5.5329999923706055 C1.5479590892791748,5.577337265014648 1.4998196363449097,5.660243988037109 1.5,5.75 L1.5,10.25 C1.5,10.34000015258789 1.5479999780654907,10.42300033569336 1.6260000467300415,10.467000007629395 C1.9844328165054321,10.67465877532959 2.106659173965454,11.133566856384277 1.8990000486373901,11.491999626159668 C1.6913409233093262,11.850432395935059 1.2324328422546387,11.97265911102295 0.8740000128746033,11.765000343322754 C0.33348798751831055,11.452935218811035 0.00042388372821733356,10.876394271850586 0,10.252385139465332 L0,5.744447231292725 C0.000985142309218645,5.121502876281738 0.33347707986831665,4.545968055725098 0.8730000257492065,4.234000205993652 C1.2317090034484863,4.026340961456299 1.6908409595489502,4.1487908363342285 1.8984999656677246,4.507500171661377 C2.106158971786499,4.866209030151367 1.9837089776992798,5.325340747833252 1.625,5.5329999923706055 Z"/>
</svg>
