<svg xmlns="http://www.w3.org/2000/svg" width="24" height="24" viewBox="0 0 24 24">
  <defs/>
  <path d="M10,22 A2 2 0 0 1 8,20 L8,4 A2 2 0 0 1 10,2 L21,2 A2 2 0 0 1 23,4 L23,20 A2 2 0 0 1 21,22 Z M9.5,20 A0.5 0.5 0 0 0 10,20.5 L21,20.5 A0.5 0.5 0 0 0 21.5,20 L21.5,4 A0.5 0.5 0 0 0 21,3.5 L10,3.5 A0.5 0.5 0 0 0 9.5,4 Z M6.17,4.165 A0.75 0.75 0 0 1 5.835,5.171 C5.607,5.285 5.54,5.348 5.52,5.372 A0.035 0.035 0 0 0 5.512,5.388 A0.423 0.423 0 0 0 5.5,5.5 L5.5,18.5 C5.5,18.57 5.508,18.602 5.512,18.612 A0.03 0.03 0 0 0 5.52,18.628 C5.54,18.652 5.607,18.715 5.835,18.829 A0.749 0.749 0 1 1 5.165,20.171 C4.893,20.035 4.585,19.856 4.355,19.573 C4.1,19.259 4,18.893 4,18.5 L4,5.5 C4,5.107 4.1,4.741 4.355,4.427 C4.585,4.144 4.893,3.965 5.165,3.829 A0.75 0.75 0 0 1 6.171,4.165 Z M2.15,5.624 A0.75 0.75 0 0 1 1.876,6.649 C1.726,6.736 1.619,6.819 1.556,6.894 C1.5,6.96 1.5,6.99 1.5,7 L1.5,17 C1.5,17.01 1.5,17.04 1.556,17.106 C1.619,17.18 1.726,17.264 1.876,17.351 A0.75 0.75 0 0 1 1.124,18.649 C0.73,18.421 0,17.907 0,17 L0,7 C0,6.093 0.73,5.58 1.124,5.35 A0.75 0.75 0 0 1 2.149,5.624 Z"/>
</svg>
