<svg xmlns="http://www.w3.org/2000/svg" width="16" height="16" viewBox="0 0 16 16">
  <defs/>
  <path d="M5.5,4.25 A2.25 2.25 0 0 1 10,4.25 A0.75 0.75 0 0 0 11.5,4.25 A3.75 3.75 0 1 0 5.36,7.139 L3.088,11.397 A0.75 0.75 0 0 0 4.412,12.103 L7,7.25 A0.75 0.75 0 0 0 6.691,6.235 A2.25 2.25 0 0 1 5.5,4.25 Z"/>
  <path d="M7.364,3.607 A0.75 0.75 0 0 1 8.394,3.864 L11.002,8.213 A3.75 3.75 0 1 1 10.374,14.998 A0.75 0.75 0 0 1 11.126,13.699 A2.25 2.25 0 1 0 11.093,9.819 A0.75 0.75 0 0 1 10.063,9.563 L7.107,4.636 A0.75 0.75 0 0 1 7.364,3.606 Z"/>
  <path d="M2.9000000953674316,8.776000022888184 C3.106672763824463,9.134729385375977 2.9835827350616455,9.593072891235352 2.625,9.800000190734863 C1.6795350313186646,10.345864295959473 1.262353539466858,11.491681098937988 1.6355277299880981,12.517650604248047 C2.008701801300049,13.543620109558105 3.064537286758423,14.153657913208008 4.139761447906494,13.9645414352417 C5.2149858474731445,13.775424003601074 5.999300003051758,12.841729164123535 6,11.75 C5.999734401702881,11.550914764404297 6.078635215759277,11.359891891479492 6.219316005706787,11.219023704528809 C6.359997272491455,11.078154563903809 6.550914287567139,10.99899959564209 6.75,10.99899959564209 L12.25,10.99899959564209 C12.664213180541992,10.99899959564209 13,11.334786415100098 13,11.74899959564209 C13,12.163213729858398 12.664213180541992,12.49899959564209 12.25,12.49899959564209 L7.425000190734863,12.49899959564209 C7.080328464508057,14.190397262573242 5.6258463859558105,15.428207397460938 3.901097536087036,15.497953414916992 C2.176348924636841,15.567699432373047 0.6266694664955139,14.451372146606445 0.14655214548110962,12.793328285217285 C0.05765286460518837,12.486322402954102 0.009673528373241425,12.175420761108398 0,11.867116928100586 L0,11.632797241210938 C0.039879973977804184,10.361564636230469 0.7270113229751587,9.163337707519531 1.875,8.50100040435791 C2.2334678173065186,8.294158935546875 2.69173002243042,8.416780471801758 2.8989999294281006,8.774999618530273 Z"/>
</svg>
