<svg xmlns="http://www.w3.org/2000/svg" width="24" height="24" viewBox="0 0 24 24">
  <defs/>
  <path d="M1,3 A2 2 0 0 1 3,1 L9.5,1 A2 2 0 0 1 11.5,3 L11.5,9.5 A2 2 0 0 1 9.5,11.5 L7,11.5 L7,15.563 C7,16.355 7.644,17 8.438,17 L12.5,17 L12.5,14.5 A2 2 0 0 1 14.5,12.5 L21,12.5 A2 2 0 0 1 23,14.5 L23,21 A2 2 0 0 1 21,23 L14.5,23 A2 2 0 0 1 12.5,21 L12.5,18.5 L8.437,18.5 A2.939 2.939 0 0 1 5.5,15.562 L5.5,11.5 L3,11.5 A2 2 0 0 1 1,9.5 Z M3,2.5 A0.5 0.5 0 0 0 2.5,3 L2.5,9.5 A0.5 0.5 0 0 0 3,10 L9.5,10 A0.5 0.5 0 0 0 10,9.5 L10,3 A0.5 0.5 0 0 0 9.5,2.5 Z M14.5,14 A0.5 0.5 0 0 0 14,14.5 L14,21 A0.5 0.5 0 0 0 14.5,21.5 L21,21.5 A0.5 0.5 0 0 0 21.5,21 L21.5,14.5 A0.5 0.5 0 0 0 21,14 Z"/>
</svg>
