<svg xmlns="http://www.w3.org/2000/svg" width="16" height="16" viewBox="0 0 16 16">
  <defs/>
  <path d="M0,1.75 C0,0.784 0.784,0 1.75,0 L5.25,0 C6.216,0 7,0.784 7,1.75 L7,5.25 A1.75 1.75 0 0 1 5.25,7 L4,7 L4,11 A1 1 0 0 0 5,12 L9,12 L9,10.75 C9,9.784 9.784,9 10.75,9 L14.25,9 C15.216,9 16,9.784 16,10.75 L16,14.25 A1.75 1.75 0 0 1 14.25,16 L10.75,16 A1.75 1.75 0 0 1 9,14.25 L9,13.5 L5,13.5 A2.5 2.5 0 0 1 2.5,11 L2.5,7 L1.75,7 A1.75 1.75 0 0 1 0,5.25 Z M1.75,1.5 A0.25 0.25 0 0 0 1.5,1.75 L1.5,5.25 C1.5,5.388 1.612,5.5 1.75,5.5 L5.25,5.5 A0.25 0.25 0 0 0 5.5,5.25 L5.5,1.75 A0.25 0.25 0 0 0 5.25,1.5 Z M10.75,10.5 A0.25 0.25 0 0 0 10.5,10.75 L10.5,14.25 C10.5,14.388 10.612,14.5 10.75,14.5 L14.25,14.5 A0.25 0.25 0 0 0 14.5,14.25 L14.5,10.75 A0.25 0.25 0 0 0 14.25,10.5 Z"/>
</svg>
