<svg xmlns="http://www.w3.org/2000/svg" width="24" height="24" viewBox="0 0 24 24">
  <defs/>
  <path d="M1,12 C1,5.925 5.925,1 12,1 C18.075,1 23,5.925 23,12 C23,18.075 18.075,23 12,23 C5.925,23 1,18.075 1,12 Z M9.036,7.976 A0.751 0.751 0 0 0 7.994,7.994 A0.751 0.751 0 0 0 7.976,9.036 L10.939,12 L7.976,14.963 A0.749 0.749 0 0 0 8.302,16.238 A0.749 0.749 0 0 0 9.036,16.023 L12,13.06 L14.963,16.024 A0.75 0.75 0 0 0 16.024,14.964 L13.061,12 L16.024,9.036 A0.749 0.749 0 0 0 15.698,7.761 A0.749 0.749 0 0 0 14.964,7.976 L12,10.939 Z"/>
</svg>
