<svg xmlns="http://www.w3.org/2000/svg" width="16" height="16" viewBox="0 0 16 16">
  <defs/>
  <path d="M2.3429999351501465,13.656999588012695 C0.7888414859771729,12.102704048156738 0.007848534733057022,10.068071365356445 0,8.031020164489746 L0,7.9689836502075195 C0.00784944836050272,5.931695461273193 0.7890231013298035,3.8968393802642822 2.3434998989105225,2.3424999713897705 C3.8815419673919678,0.8045939803123474 5.889925956726074,0.023767465725541115 7.90557336807251,0 L8.09542179107666,0 C10.111306190490723,0.023770254105329514 12.119913101196289,0.8047770857810974 13.657999992370605,2.3429999351501465 C15.186829566955566,3.871965169906616 15.967490196228027,5.8657379150390625 16,7.869388580322266 L16,8.130611419677734 C15.967485427856445,10.13449764251709 15.1866455078125,12.128490447998047 13.657500267028809,13.657500267028809 C12.119462013244629,15.195402145385742 10.111083984375,15.976228713989258 8.095441818237305,16 L7.905575275421143,16 C5.8896918296813965,15.976228713989258 3.8810861110687256,15.195221900939941 2.3429999351501465,13.656999588012695 Z M6.03000020980835,4.96999979019165 C5.734339714050293,4.694816589355469 5.273979663848877,4.7027692794799805 4.98799991607666,4.98799991607666 C4.7027692794799805,5.273979663848877 4.694816589355469,5.734339714050293 4.96999979019165,6.03000020980835 L6.940000057220459,8 L4.96999979019165,9.970000267028809 C4.768890857696533,10.156742095947266 4.686015605926514,10.438518524169922 4.75399923324585,10.704404830932617 C4.8219828605651855,10.970292091369629 5.029937267303467,11.177706718444824 5.296000003814697,11.244999885559082 C5.5615763664245605,11.313069343566895 5.843121528625488,11.230600357055664 6.03000020980835,11.029999732971191 L8,9.0600004196167 L9.970000267028809,11.029999732971191 C10.156742095947266,11.231109619140625 10.438518524169922,11.313983917236328 10.704404830932617,11.246000289916992 C10.970292091369629,11.178016662597656 11.177706718444824,10.970062255859375 11.244999885559082,10.704000473022461 C11.313069343566895,10.438424110412598 11.230600357055664,10.156878471374512 11.029999732971191,9.970000267028809 L9.0600004196167,8 L11.029999732971191,6.03000020980835 C11.231109619140625,5.843257904052734 11.313983917236328,5.561481475830078 11.246000289916992,5.295594692230225 C11.178016662597656,5.029707908630371 10.970062255859375,4.822292804718018 10.704000473022461,4.755000114440918 C10.438424110412598,4.686930179595947 10.156878471374512,4.769399166107178 9.970000267028809,4.96999979019165 L8,6.940000057220459 Z"/>
</svg>
