<svg xmlns="http://www.w3.org/2000/svg" width="16" height="16" viewBox="0 0 16 16">
  <defs/>
  <path d="M2.3440001010894775,2.3429999351501465 L2.3429999351501465,2.3429999351501465 C3.8904898166656494,0.7955100536346436 5.914215564727783,0.01451005320996046 7.94240665435791,0 L8.057592391967773,0 C10.085783958435059,0.014510056003928185 12.109509468078613,0.7955101132392883 13.656999588012695,2.3430001735687256 C15.204490661621094,3.890490770339966 15.985490798950195,5.914217472076416 16,7.942409515380859 L16,8.05759048461914 C15.985490798950195,10.085783004760742 15.204490661621094,12.109509468078613 13.656999588012695,13.656999588012695 C12.309393882751465,15.019950866699219 10.543228149414062,15.831236839294434 8.692462921142578,16 L7.240478038787842,16 C6.79575777053833,15.959427833557129 6.35115385055542,15.881269454956055 5.911141872406006,15.76430892944336 C3.1381123065948486,15.027202606201172 0.9720011949539185,12.861791610717773 0.23399999737739563,10.08899974822998 C0.11852747201919556,9.654388427734375 0.0409192331135273,9.215303421020508 0,8.776057243347168 L0,7.29404878616333 C0.17189760506153107,5.447876930236816 0.9833641648292542,3.6869056224823 2.3440001010894775,2.3429999351501465 Z M3.4040000438690186,12.595999717712402 C5.055206775665283,14.251962661743164 7.468679904937744,14.893301010131836 9.72411060333252,14.275459289550781 C11.979540824890137,13.65761661529541 13.72923755645752,11.875839233398438 14.306001663208008,9.609556198120117 C14.882766723632812,7.343273162841797 14.197687149047852,4.941849231719971 12.51200008392334,3.321000099182129 C9.943546295166016,0.8513391613960266 5.8655924797058105,0.9098430871963501 3.36904239654541,3.4521684646606445 C0.8724926710128784,5.9944939613342285 0.8880844712257385,10.072837829589844 3.4040000438690186,12.595999717712402 Z M6.03000020980835,4.96999979019165 L8,6.940000057220459 L9.970000267028809,4.96999979019165 C10.156742095947266,4.768890857696533 10.438518524169922,4.686015605926514 10.704404830932617,4.75399923324585 C10.970292091369629,4.8219828605651855 11.177706718444824,5.029937267303467 11.244999885559082,5.296000003814697 C11.313069343566895,5.5615763664245605 11.230600357055664,5.843121528625488 11.029999732971191,6.03000020980835 L9.0600004196167,8 L11.029999732971191,9.970000267028809 C11.231109619140625,10.156742095947266 11.313983917236328,10.438518524169922 11.246000289916992,10.704404830932617 C11.178016662597656,10.970292091369629 10.970062255859375,11.177706718444824 10.704000473022461,11.244999885559082 C10.438424110412598,11.313069343566895 10.156878471374512,11.230600357055664 9.970000267028809,11.029999732971191 L8,9.0600004196167 L6.03000020980835,11.029999732971191 C5.843257904052734,11.231109619140625 5.561481475830078,11.313983917236328 5.295594692230225,11.246000289916992 C5.029707908630371,11.178016662597656 4.822292804718018,10.970062255859375 4.755000114440918,10.704000473022461 C4.686930179595947,10.438424110412598 4.769399166107178,10.156878471374512 4.96999979019165,9.970000267028809 L6.940000057220459,8 L4.96999979019165,6.03000020980835 C4.694816589355469,5.734339714050293 4.7027692794799805,5.273979663848877 4.98799991607666,4.98799991607666 C5.273979663848877,4.7027692794799805 5.734339714050293,4.694816589355469 6.03000020980835,4.96999979019165 Z"/>
</svg>
