<svg xmlns="http://www.w3.org/2000/svg" width="12" height="12" viewBox="0 0 12 12">
  <defs/>
  <path d="M1.7569999694824219,10.243000030517578 C0.5984753370285034,9.084202766418457 0.01282250415533781,7.569561004638672 0,6.050993919372559 L0,5.949015140533447 C0.012826502323150635,4.42997407913208 0.5988403558731079,2.914886474609375 1.7580000162124634,1.75600004196167 C2.8989508152008057,0.6153178811073303 4.38486909866333,0.02999773994088173 5.879847526550293,0 L6.122143745422363,0 C7.617595195770264,0.030007218942046165 9.10395622253418,0.6156870722770691 10.244999885559082,1.7569999694824219 C11.374894142150879,2.887160539627075 11.959881782531738,4.3557939529418945 12,5.836434364318848 L12,6.1635565757751465 C11.959868431091309,7.644669532775879 11.37452220916748,9.113743782043457 10.244000434875488,10.244000434875488 C9.10305118560791,11.38468074798584 7.617135524749756,11.970001220703125 6.122159004211426,12 L5.879849910736084,12 C4.384400367736816,11.969991683959961 2.8980424404144287,11.38431167602539 1.7569999694824219,10.243000030517578 Z M6,4.763000011444092 L4,2.763000011444092 L2.763000011444092,4 L4.763000011444092,6 L2.763000011444092,8 L4,9.237000465393066 L6,7.236999988555908 L8,9.237000465393066 L9.237000465393066,8 L7.236999988555908,6 L9.237000465393066,4 L8,2.763000011444092 Z"/>
</svg>
