<svg xmlns="http://www.w3.org/2000/svg" width="24" height="24" viewBox="0 0 24 24">
  <defs/>
  <path d="M15.716,1.329 A1.341 1.341 0 0 1 17.825,2.879 L15.147,9 L19.308,9 C20.931,9 21.68,11.016 20.451,12.075 L8.102,22.721 A1.148 1.148 0 0 1 6.292,21.404 L8.996,15 L4.674,15 C3.055,15 2.304,12.992 3.526,11.93 L15.716,1.33 Z M16.168,2.924 L4.51,13.061 A0.25 0.25 0 0 0 4.674,13.5 L10.124,13.5 A0.749 0.749 0 0 1 10.816,14.541 L8.257,20.607 L19.472,10.939 A0.25 0.25 0 0 0 19.308,10.5 L14,10.5 A0.75 0.75 0 0 1 13.313,9.45 Z"/>
</svg>
