<svg xmlns="http://www.w3.org/2000/svg" width="16" height="16" viewBox="0 0 16 16">
  <defs/>
  <path d="M9.504,0.43 A1.516 1.516 0 0 1 11.941,2.143 L10.415,5.5 L12.538,5.5 C14.108,5.5 14.884,7.409 13.758,8.504 L6.418,15.646 A1.249 1.249 0 0 1 5.547,16 L5.245,16 A1.25 1.25 0 0 1 4.088,14.277 L5.633,10.5 L3.462,10.5 C1.892,10.5 1.116,8.591 2.242,7.496 L9.503,0.429 Z M10.551,1.504 L3.286,8.571 A0.25 0.25 0 0 0 3.462,9 L6.75,9 A0.75 0.75 0 0 1 7.444,10.034 L5.731,14.222 L12.713,7.429 A0.25 0.25 0 0 0 12.538,7 L9.25,7 A0.75 0.75 0 0 1 8.567,5.94 L10.575,1.522 L10.578,1.516 A0.036 0.036 0 0 0 10.574,1.507 L10.568,1.501 L10.56,1.5 C10.557,1.5 10.554,1.502 10.551,1.504 Z"/>
</svg>
