<svg xmlns="http://www.w3.org/2000/svg" width="16" height="16" viewBox="0 0 16 16">
  <defs/>
  <path d="M3.75,7.5 A0.75 0.75 0 0 1 4.5,6.75 L6.75,6.75 L6.75,4.5 A0.75 0.75 0 0 1 8.25,4.5 L8.25,6.75 L10.5,6.75 A0.75 0.75 0 0 1 10.5,8.25 L8.25,8.25 L8.25,10.5 A0.75 0.75 0 0 1 6.75,10.5 L6.75,8.25 L4.5,8.25 A0.75 0.75 0 0 1 3.75,7.5 Z"/>
  <path d="M7.5,0 L7.500910758972168,0 C10.39802360534668,0.00017489289166405797 13.035998344421387,1.6689355373382568 14.277246475219727,4.286736011505127 C15.518625259399414,6.904811382293701 15.14090633392334,10.003759384155273 13.307000160217285,12.246999740600586 L15.779999732971191,14.720000267028809 C16.072710037231445,15.012710571289062 16.072710037231445,15.487289428710938 15.779999732971191,15.779999732971191 C15.487289428710938,16.072710037231445 15.012710571289062,16.072710037231445 14.720000267028809,15.779999732971191 L12.246999740600586,13.307000160217285 C9.690640449523926,15.396482467651367 6.0685343742370605,15.568471908569336 3.3256919384002686,13.730611801147461 C1.214398741722107,12.315926551818848 0.006372055504471064,9.966546058654785 0,7.518924236297607 L0,7.4799957275390625 C0.0018731143791228533,6.760514736175537 0.10762806236743927,6.03293514251709 0.32483428716659546,5.318475723266602 C1.2851858139038086,2.1595773696899414 4.1983466148376465,0.00024382963601965457 7.5,0 Z M1.5,7.5 C1.5,10.813708305358887 4.186291694641113,13.5 7.5,13.5 C10.813708305358887,13.5 13.5,10.813708305358887 13.5,7.5 C13.5,4.186291694641113 10.813708305358887,1.5 7.5,1.5 C4.186291694641113,1.5 1.5,4.186291694641113 1.5,7.5 Z"/>
</svg>
