<svg xmlns="http://www.w3.org/2000/svg" width="24" height="24" viewBox="0 0 24 24">
  <defs/>
  <path d="M14.5,11.25 A0.75 0.75 0 0 0 14.5,9.75 L6.5,9.75 A0.75 0.75 0 0 0 6.5,11.25 L14.5,11.25 Z"/>
  <path d="M0,10.5 C0,4.701 4.701,0 10.5,0 C16.299,0 21,4.701 21,10.5 C21,13.13 20.033,15.533 18.436,17.375 L22.78,21.72 A0.749 0.749 0 1 1 21.72,22.78 L17.375,18.436 A10.459 10.459 0 0 1 10.5,21 C4.701,21 0,16.299 0,10.5 Z M10.5,1.5 A9 9 0 0 0 1.5,10.5 A9 9 0 0 0 10.5,19.5 A9 9 0 0 0 19.5,10.5 A9 9 0 0 0 10.5,1.5 Z"/>
</svg>
