<svg id="New_Drawings" data-name="New Drawings" xmlns="http://www.w3.org/2000/svg" width="16" height="16" viewBox="0 0 16 16"><defs><style>.cls-1{fill:#010101;}</style></defs><title>octicons-master</title><path class="cls-1" d="M10.5,1H3A1,1,0,0,0,2,2V14a1,1,0,0,0,1,1H13a1,1,0,0,0,1-1V4.5ZM3,2H7a0.68,0.68,0,0,0-.31.2,1.08,1.08,0,0,0-.23.47,4.22,4.22,0,0,0-.09,1.47,10.31,10.31,0,0,0,.34,1.8A21.78,21.78,0,0,1,5.6,8.6c-0.5,1-.8,1.66-0.91,1.84a7.16,7.16,0,0,0-.69.3,4.19,4.19,0,0,0-1,.64V2ZM7.42,6.8A5.65,5.65,0,0,0,8.59,8.89a2.74,2.74,0,0,0,.94.53c-0.64.09-1.23,0.2-1.81,0.33a12.22,12.22,0,0,0-1.81.59s0.22-.44.61-1.25a15.18,15.18,0,0,0,.91-2.3h0ZM13,14H3.5a0.74,0.74,0,0,1-.17,0,2.12,2.12,0,0,0,.73-0.44,10.14,10.14,0,0,0,1.78-2.38c0.31-.13.58-0.23,0.81-0.31l0.42-.14c0.45-.13.94-0.23,1.44-0.33s1-.16,1.48-0.2a8.65,8.65,0,0,0,1.39.53,7.51,7.51,0,0,0,1.23.23c0.14,0,.27,0,0.38,0V14h0Zm0-4.86a3.74,3.74,0,0,0-.64-0.28,4.22,4.22,0,0,0-.75-0.11,10.71,10.71,0,0,0-1.23.08,3,3,0,0,1-1-.64A6.07,6.07,0,0,1,8.09,5.86a15.11,15.11,0,0,0,.2-2,4.88,4.88,0,0,0,0-.75,1.05,1.05,0,0,0-.2-0.88A0.82,0.82,0,0,0,7.48,2H10l3,3V9.13h0Z"/></svg>